ISO-10303-21;
HEADER;
/* Generated by software containing ST-Developer
 * from STEP Tools, Inc. (www.steptools.com) 
 */

FILE_DESCRIPTION(
/* description */ (''),
/* implementation_level */ '2;1');

FILE_NAME(
/* name */ '_10_VT_6mm_AWD_belts_NP_NP.step',
/* time_stamp */ '2026-02-16T13:24:41+01:00',
/* author */ (''),
/* organization */ (''),
/* preprocessor_version */ 'ST-DEVELOPER v20.1',
/* originating_system */ 'Autodesk Translation Framework v14.24.0.0',
/* authorisation */ '');

FILE_SCHEMA (('AUTOMOTIVE_DESIGN { 1 0 10303 214 3 1 1 }'));
ENDSEC;

DATA;
#10=MECHANICAL_DESIGN_GEOMETRIC_PRESENTATION_REPRESENTATION('',(#64,#65,
#66,#67,#68,#69,#70,#71,#72,#73,#74,#75,#76,#77,#78,#79),#1172);
#11=ITEM_DEFINED_TRANSFORMATION($,$,#704,#767);
#12=ITEM_DEFINED_TRANSFORMATION($,$,#704,#768);
#13=(
REPRESENTATION_RELATIONSHIP($,$,#1184,#1183)
REPRESENTATION_RELATIONSHIP_WITH_TRANSFORMATION(#11)
SHAPE_REPRESENTATION_RELATIONSHIP()
);
#14=(
REPRESENTATION_RELATIONSHIP($,$,#1184,#1183)
REPRESENTATION_RELATIONSHIP_WITH_TRANSFORMATION(#12)
SHAPE_REPRESENTATION_RELATIONSHIP()
);
#15=CONTEXT_DEPENDENT_SHAPE_REPRESENTATION(#13,#1181);
#16=CONTEXT_DEPENDENT_SHAPE_REPRESENTATION(#14,#1182);
#17=NEXT_ASSEMBLY_USAGE_OCCURRENCE('_VT_6mm_AWD_belt_NP_NP:1',
'_VT_6mm_AWD_belt_NP_NP:1','_VT_6mm_AWD_belt_NP_NP:1',#1186,#1187,
'_VT_6mm_AWD_belt_NP_NP:1');
#18=NEXT_ASSEMBLY_USAGE_OCCURRENCE('_VT_6mm_AWD_belt_NP_NP:2',
'_VT_6mm_AWD_belt_NP_NP:2','_VT_6mm_AWD_belt_NP_NP:2',#1186,#1187,
'_VT_6mm_AWD_belt_NP_NP:2');
#19=SHAPE_REPRESENTATION_RELATIONSHIP('SRR','None',#1184,#20);
#20=ADVANCED_BREP_SHAPE_REPRESENTATION('',(#21),#1171);
#21=MANIFOLD_SOLID_BREP('Body1',#690);
#22=CIRCLE('',#709,6.49999999999993);
#23=CIRCLE('',#710,6.49999999999993);
#24=CIRCLE('',#712,7.87999999999993);
#25=CIRCLE('',#713,7.87999999999993);
#26=CIRCLE('',#716,7.87999999999999);
#27=CIRCLE('',#717,5.36000000428036);
#28=CIRCLE('',#718,5.35999999999996);
#29=CIRCLE('',#719,7.87999999999996);
#30=CIRCLE('',#720,5.36000000000086);
#31=CIRCLE('',#721,5.36000000981195);
#32=CIRCLE('',#722,6.74000000981195);
#33=CIRCLE('',#723,6.74000000000086);
#34=CIRCLE('',#724,6.49999999999996);
#35=CIRCLE('',#725,6.73999999999996);
#36=CIRCLE('',#726,6.74000000428036);
#37=CIRCLE('',#727,6.49999999999999);
#38=CIRCLE('',#729,5.36000000428036);
#39=CIRCLE('',#732,7.87999999999999);
#40=CIRCLE('',#734,6.74000000428036);
#41=CIRCLE('',#737,6.49999999999999);
#42=CIRCLE('',#742,6.73999999999996);
#43=CIRCLE('',#745,5.35999999999996);
#44=CIRCLE('',#748,6.49999999999996);
#45=CIRCLE('',#751,6.74000000000086);
#46=CIRCLE('',#753,7.87999999999996);
#47=CIRCLE('',#756,5.36000000000086);
#48=CIRCLE('',#759,6.74000000981195);
#49=CIRCLE('',#760,5.36000000981195);
#50=CYLINDRICAL_SURFACE('',#708,6.49999999999993);
#51=CYLINDRICAL_SURFACE('',#711,7.87999999999993);
#52=CYLINDRICAL_SURFACE('',#728,5.36000000428036);
#53=CYLINDRICAL_SURFACE('',#731,7.87999999999999);
#54=CYLINDRICAL_SURFACE('',#733,6.74000000428036);
#55=CYLINDRICAL_SURFACE('',#736,6.49999999999999);
#56=CYLINDRICAL_SURFACE('',#741,6.73999999999996);
#57=CYLINDRICAL_SURFACE('',#744,5.35999999999996);
#58=CYLINDRICAL_SURFACE('',#747,6.49999999999996);
#59=CYLINDRICAL_SURFACE('',#750,6.74000000000086);
#60=CYLINDRICAL_SURFACE('',#752,7.87999999999996);
#61=CYLINDRICAL_SURFACE('',#755,5.36000000000086);
#62=CYLINDRICAL_SURFACE('',#761,6.74000000981195);
#63=CYLINDRICAL_SURFACE('',#764,5.36000000981195);
#64=STYLED_ITEM('',(#1199),#657);
#65=STYLED_ITEM('',(#1199),#660);
#66=STYLED_ITEM('',(#1199),#663);
#67=STYLED_ITEM('',(#1199),#664);
#68=STYLED_ITEM('',(#1199),#665);
#69=STYLED_ITEM('',(#1199),#669);
#70=STYLED_ITEM('',(#1199),#671);
#71=STYLED_ITEM('',(#1199),#674);
#72=STYLED_ITEM('',(#1199),#675);
#73=STYLED_ITEM('',(#1199),#679);
#74=STYLED_ITEM('',(#1199),#680);
#75=STYLED_ITEM('',(#1199),#681);
#76=STYLED_ITEM('',(#1199),#686);
#77=STYLED_ITEM('',(#1199),#687);
#78=STYLED_ITEM('',(#1199),#688);
#79=STYLED_ITEM('',(#1198),#21);
#80=FACE_OUTER_BOUND('',#114,.T.);
#81=FACE_OUTER_BOUND('',#115,.T.);
#82=FACE_OUTER_BOUND('',#116,.T.);
#83=FACE_OUTER_BOUND('',#117,.T.);
#84=FACE_OUTER_BOUND('',#118,.T.);
#85=FACE_OUTER_BOUND('',#119,.T.);
#86=FACE_OUTER_BOUND('',#120,.T.);
#87=FACE_OUTER_BOUND('',#121,.T.);
#88=FACE_OUTER_BOUND('',#122,.T.);
#89=FACE_OUTER_BOUND('',#123,.T.);
#90=FACE_OUTER_BOUND('',#124,.T.);
#91=FACE_OUTER_BOUND('',#125,.T.);
#92=FACE_OUTER_BOUND('',#126,.T.);
#93=FACE_OUTER_BOUND('',#127,.T.);
#94=FACE_OUTER_BOUND('',#128,.T.);
#95=FACE_OUTER_BOUND('',#129,.T.);
#96=FACE_OUTER_BOUND('',#130,.T.);
#97=FACE_OUTER_BOUND('',#131,.T.);
#98=FACE_OUTER_BOUND('',#132,.T.);
#99=FACE_OUTER_BOUND('',#133,.T.);
#100=FACE_OUTER_BOUND('',#134,.T.);
#101=FACE_OUTER_BOUND('',#135,.T.);
#102=FACE_OUTER_BOUND('',#136,.T.);
#103=FACE_OUTER_BOUND('',#137,.T.);
#104=FACE_OUTER_BOUND('',#138,.T.);
#105=FACE_OUTER_BOUND('',#139,.T.);
#106=FACE_OUTER_BOUND('',#140,.T.);
#107=FACE_OUTER_BOUND('',#141,.T.);
#108=FACE_OUTER_BOUND('',#142,.T.);
#109=FACE_OUTER_BOUND('',#143,.T.);
#110=FACE_OUTER_BOUND('',#144,.T.);
#111=FACE_OUTER_BOUND('',#145,.T.);
#112=FACE_OUTER_BOUND('',#146,.T.);
#113=FACE_OUTER_BOUND('',#147,.T.);
#114=EDGE_LOOP('',(#444,#445,#446,#447));
#115=EDGE_LOOP('',(#448,#449,#450,#451));
#116=EDGE_LOOP('',(#452,#453,#454,#455));
#117=EDGE_LOOP('',(#456,#457,#458,#459));
#118=EDGE_LOOP('',(#460,#461,#462,#463));
#119=EDGE_LOOP('',(#464,#465,#466,#467));
#120=EDGE_LOOP('',(#468,#469,#470,#471,#472,#473,#474,#475,#476,#477,#478,
#479,#480,#481,#482,#483,#484,#485,#486,#487,#488,#489,#490,#491,#492,#493,
#494,#495,#496,#497,#498,#499));
#121=EDGE_LOOP('',(#500,#501,#502,#503));
#122=EDGE_LOOP('',(#504,#505,#506,#507));
#123=EDGE_LOOP('',(#508,#509,#510,#511));
#124=EDGE_LOOP('',(#512,#513,#514,#515));
#125=EDGE_LOOP('',(#516,#517,#518,#519));
#126=EDGE_LOOP('',(#520,#521,#522,#523));
#127=EDGE_LOOP('',(#524,#525,#526,#527));
#128=EDGE_LOOP('',(#528,#529,#530,#531));
#129=EDGE_LOOP('',(#532,#533,#534,#535));
#130=EDGE_LOOP('',(#536,#537,#538,#539));
#131=EDGE_LOOP('',(#540,#541,#542,#543));
#132=EDGE_LOOP('',(#544,#545,#546,#547));
#133=EDGE_LOOP('',(#548,#549,#550,#551));
#134=EDGE_LOOP('',(#552,#553,#554,#555));
#135=EDGE_LOOP('',(#556,#557,#558,#559));
#136=EDGE_LOOP('',(#560,#561,#562,#563));
#137=EDGE_LOOP('',(#564,#565,#566,#567));
#138=EDGE_LOOP('',(#568,#569,#570,#571));
#139=EDGE_LOOP('',(#572,#573,#574,#575));
#140=EDGE_LOOP('',(#576,#577,#578,#579));
#141=EDGE_LOOP('',(#580,#581,#582,#583,#584,#585,#586,#587,#588,#589,#590,
#591,#592,#593,#594,#595,#596,#597,#598,#599,#600,#601,#602,#603,#604,#605,
#606,#607,#608,#609,#610,#611));
#142=EDGE_LOOP('',(#612,#613,#614,#615));
#143=EDGE_LOOP('',(#616,#617,#618,#619));
#144=EDGE_LOOP('',(#620,#621,#622,#623));
#145=EDGE_LOOP('',(#624,#625,#626,#627));
#146=EDGE_LOOP('',(#628,#629,#630,#631));
#147=EDGE_LOOP('',(#632,#633,#634,#635));
#148=LINE('',#974,#216);
#149=LINE('',#976,#217);
#150=LINE('',#978,#218);
#151=LINE('',#979,#219);
#152=LINE('',#983,#220);
#153=LINE('',#984,#221);
#154=LINE('',#985,#222);
#155=LINE('',#989,#223);
#156=LINE('',#990,#224);
#157=LINE('',#991,#225);
#158=LINE('',#997,#226);
#159=LINE('',#1002,#227);
#160=LINE('',#1006,#228);
#161=LINE('',#1008,#229);
#162=LINE('',#1009,#230);
#163=LINE('',#1012,#231);
#164=LINE('',#1016,#232);
#165=LINE('',#1020,#233);
#166=LINE('',#1024,#234);
#167=LINE('',#1028,#235);
#168=LINE('',#1032,#236);
#169=LINE('',#1036,#237);
#170=LINE('',#1038,#238);
#171=LINE('',#1040,#239);
#172=LINE('',#1044,#240);
#173=LINE('',#1048,#241);
#174=LINE('',#1052,#242);
#175=LINE('',#1056,#243);
#176=LINE('',#1060,#244);
#177=LINE('',#1066,#245);
#178=LINE('',#1067,#246);
#179=LINE('',#1070,#247);
#180=LINE('',#1071,#248);
#181=LINE('',#1075,#249);
#182=LINE('',#1080,#250);
#183=LINE('',#1081,#251);
#184=LINE('',#1084,#252);
#185=LINE('',#1085,#253);
#186=LINE('',#1089,#254);
#187=LINE('',#1092,#255);
#188=LINE('',#1093,#256);
#189=LINE('',#1096,#257);
#190=LINE('',#1097,#258);
#191=LINE('',#1101,#259);
#192=LINE('',#1104,#260);
#193=LINE('',#1105,#261);
#194=LINE('',#1109,#262);
#195=LINE('',#1112,#263);
#196=LINE('',#1113,#264);
#197=LINE('',#1117,#265);
#198=LINE('',#1120,#266);
#199=LINE('',#1121,#267);
#200=LINE('',#1125,#268);
#201=LINE('',#1129,#269);
#202=LINE('',#1132,#270);
#203=LINE('',#1133,#271);
#204=LINE('',#1137,#272);
#205=LINE('',#1140,#273);
#206=LINE('',#1141,#274);
#207=LINE('',#1146,#275);
#208=LINE('',#1148,#276);
#209=LINE('',#1150,#277);
#210=LINE('',#1153,#278);
#211=LINE('',#1155,#279);
#212=LINE('',#1157,#280);
#213=LINE('',#1159,#281);
#214=LINE('',#1161,#282);
#215=LINE('',#1163,#283);
#216=VECTOR('',#775,10.);
#217=VECTOR('',#776,10.);
#218=VECTOR('',#777,10.);
#219=VECTOR('',#778,10.);
#220=VECTOR('',#781,10.);
#221=VECTOR('',#782,10.);
#222=VECTOR('',#783,10.);
#223=VECTOR('',#786,10.);
#224=VECTOR('',#787,10.);
#225=VECTOR('',#788,10.);
#226=VECTOR('',#795,10.);
#227=VECTOR('',#800,10.);
#228=VECTOR('',#805,10.);
#229=VECTOR('',#806,10.);
#230=VECTOR('',#807,10.);
#231=VECTOR('',#810,10.);
#232=VECTOR('',#813,10.);
#233=VECTOR('',#816,10.);
#234=VECTOR('',#819,10.);
#235=VECTOR('',#822,10.);
#236=VECTOR('',#825,10.);
#237=VECTOR('',#828,10.);
#238=VECTOR('',#829,10.);
#239=VECTOR('',#830,10.);
#240=VECTOR('',#833,10.);
#241=VECTOR('',#836,10.);
#242=VECTOR('',#839,10.);
#243=VECTOR('',#842,10.);
#244=VECTOR('',#845,10.);
#245=VECTOR('',#852,10.);
#246=VECTOR('',#853,10.);
#247=VECTOR('',#856,10.);
#248=VECTOR('',#857,10.);
#249=VECTOR('',#862,10.);
#250=VECTOR('',#867,10.);
#251=VECTOR('',#868,10.);
#252=VECTOR('',#871,10.);
#253=VECTOR('',#872,10.);
#254=VECTOR('',#879,10.);
#255=VECTOR('',#882,10.);
#256=VECTOR('',#883,10.);
#257=VECTOR('',#886,10.);
#258=VECTOR('',#887,10.);
#259=VECTOR('',#892,10.);
#260=VECTOR('',#895,10.);
#261=VECTOR('',#896,10.);
#262=VECTOR('',#901,10.);
#263=VECTOR('',#904,10.);
#264=VECTOR('',#905,10.);
#265=VECTOR('',#910,10.);
#266=VECTOR('',#913,10.);
#267=VECTOR('',#914,10.);
#268=VECTOR('',#919,10.);
#269=VECTOR('',#924,10.);
#270=VECTOR('',#927,10.);
#271=VECTOR('',#928,10.);
#272=VECTOR('',#933,10.);
#273=VECTOR('',#936,10.);
#274=VECTOR('',#937,10.);
#275=VECTOR('',#942,10.);
#276=VECTOR('',#943,10.);
#277=VECTOR('',#944,10.);
#278=VECTOR('',#947,10.);
#279=VECTOR('',#950,10.);
#280=VECTOR('',#953,10.);
#281=VECTOR('',#956,10.);
#282=VECTOR('',#959,10.);
#283=VECTOR('',#962,10.);
#284=VERTEX_POINT('',#972);
#285=VERTEX_POINT('',#973);
#286=VERTEX_POINT('',#975);
#287=VERTEX_POINT('',#977);
#288=VERTEX_POINT('',#981);
#289=VERTEX_POINT('',#982);
#290=VERTEX_POINT('',#987);
#291=VERTEX_POINT('',#988);
#292=VERTEX_POINT('',#993);
#293=VERTEX_POINT('',#995);
#294=VERTEX_POINT('',#999);
#295=VERTEX_POINT('',#1001);
#296=VERTEX_POINT('',#1005);
#297=VERTEX_POINT('',#1007);
#298=VERTEX_POINT('',#1011);
#299=VERTEX_POINT('',#1013);
#300=VERTEX_POINT('',#1015);
#301=VERTEX_POINT('',#1017);
#302=VERTEX_POINT('',#1019);
#303=VERTEX_POINT('',#1021);
#304=VERTEX_POINT('',#1023);
#305=VERTEX_POINT('',#1025);
#306=VERTEX_POINT('',#1027);
#307=VERTEX_POINT('',#1029);
#308=VERTEX_POINT('',#1031);
#309=VERTEX_POINT('',#1033);
#310=VERTEX_POINT('',#1035);
#311=VERTEX_POINT('',#1037);
#312=VERTEX_POINT('',#1039);
#313=VERTEX_POINT('',#1041);
#314=VERTEX_POINT('',#1043);
#315=VERTEX_POINT('',#1045);
#316=VERTEX_POINT('',#1047);
#317=VERTEX_POINT('',#1049);
#318=VERTEX_POINT('',#1051);
#319=VERTEX_POINT('',#1053);
#320=VERTEX_POINT('',#1055);
#321=VERTEX_POINT('',#1057);
#322=VERTEX_POINT('',#1059);
#323=VERTEX_POINT('',#1063);
#324=VERTEX_POINT('',#1064);
#325=VERTEX_POINT('',#1069);
#326=VERTEX_POINT('',#1073);
#327=VERTEX_POINT('',#1077);
#328=VERTEX_POINT('',#1078);
#329=VERTEX_POINT('',#1083);
#330=VERTEX_POINT('',#1091);
#331=VERTEX_POINT('',#1095);
#332=VERTEX_POINT('',#1099);
#333=VERTEX_POINT('',#1103);
#334=VERTEX_POINT('',#1107);
#335=VERTEX_POINT('',#1111);
#336=VERTEX_POINT('',#1115);
#337=VERTEX_POINT('',#1119);
#338=VERTEX_POINT('',#1123);
#339=VERTEX_POINT('',#1127);
#340=VERTEX_POINT('',#1131);
#341=VERTEX_POINT('',#1135);
#342=VERTEX_POINT('',#1139);
#343=VERTEX_POINT('',#1143);
#344=VERTEX_POINT('',#1145);
#345=VERTEX_POINT('',#1147);
#346=VERTEX_POINT('',#1149);
#347=VERTEX_POINT('',#1151);
#348=EDGE_CURVE('',#284,#285,#148,.T.);
#349=EDGE_CURVE('',#285,#286,#149,.T.);
#350=EDGE_CURVE('',#287,#286,#150,.T.);
#351=EDGE_CURVE('',#284,#287,#151,.T.);
#352=EDGE_CURVE('',#288,#289,#152,.T.);
#353=EDGE_CURVE('',#288,#285,#153,.T.);
#354=EDGE_CURVE('',#284,#289,#154,.T.);
#355=EDGE_CURVE('',#290,#291,#155,.T.);
#356=EDGE_CURVE('',#287,#290,#156,.T.);
#357=EDGE_CURVE('',#291,#286,#157,.T.);
#358=EDGE_CURVE('',#292,#290,#22,.T.);
#359=EDGE_CURVE('',#291,#293,#23,.T.);
#360=EDGE_CURVE('',#293,#292,#158,.T.);
#361=EDGE_CURVE('',#289,#294,#24,.T.);
#362=EDGE_CURVE('',#294,#295,#159,.T.);
#363=EDGE_CURVE('',#295,#288,#25,.T.);
#364=EDGE_CURVE('',#296,#293,#160,.T.);
#365=EDGE_CURVE('',#297,#296,#161,.T.);
#366=EDGE_CURVE('',#292,#297,#162,.T.);
#367=EDGE_CURVE('',#298,#295,#163,.T.);
#368=EDGE_CURVE('',#299,#298,#26,.T.);
#369=EDGE_CURVE('',#300,#299,#164,.T.);
#370=EDGE_CURVE('',#301,#300,#27,.T.);
#371=EDGE_CURVE('',#302,#301,#165,.T.);
#372=EDGE_CURVE('',#303,#302,#28,.T.);
#373=EDGE_CURVE('',#304,#303,#166,.T.);
#374=EDGE_CURVE('',#305,#304,#29,.T.);
#375=EDGE_CURVE('',#306,#305,#167,.T.);
#376=EDGE_CURVE('',#307,#306,#30,.T.);
#377=EDGE_CURVE('',#308,#307,#168,.T.);
#378=EDGE_CURVE('',#309,#308,#31,.T.);
#379=EDGE_CURVE('',#310,#309,#169,.T.);
#380=EDGE_CURVE('',#310,#311,#170,.T.);
#381=EDGE_CURVE('',#311,#312,#171,.T.);
#382=EDGE_CURVE('',#312,#313,#32,.T.);
#383=EDGE_CURVE('',#313,#314,#172,.T.);
#384=EDGE_CURVE('',#314,#315,#33,.T.);
#385=EDGE_CURVE('',#315,#316,#173,.T.);
#386=EDGE_CURVE('',#316,#317,#34,.T.);
#387=EDGE_CURVE('',#317,#318,#174,.T.);
#388=EDGE_CURVE('',#319,#318,#35,.T.);
#389=EDGE_CURVE('',#319,#320,#175,.T.);
#390=EDGE_CURVE('',#320,#321,#36,.T.);
#391=EDGE_CURVE('',#321,#322,#176,.T.);
#392=EDGE_CURVE('',#322,#296,#37,.T.);
#393=EDGE_CURVE('',#323,#324,#38,.T.);
#394=EDGE_CURVE('',#324,#301,#177,.T.);
#395=EDGE_CURVE('',#323,#300,#178,.T.);
#396=EDGE_CURVE('',#325,#323,#179,.T.);
#397=EDGE_CURVE('',#325,#299,#180,.T.);
#398=EDGE_CURVE('',#325,#326,#39,.T.);
#399=EDGE_CURVE('',#326,#298,#181,.T.);
#400=EDGE_CURVE('',#327,#328,#40,.T.);
#401=EDGE_CURVE('',#327,#321,#182,.T.);
#402=EDGE_CURVE('',#328,#320,#183,.T.);
#403=EDGE_CURVE('',#329,#327,#184,.T.);
#404=EDGE_CURVE('',#329,#322,#185,.T.);
#405=EDGE_CURVE('',#329,#297,#41,.T.);
#406=EDGE_CURVE('',#294,#326,#186,.T.);
#407=EDGE_CURVE('',#330,#319,#187,.T.);
#408=EDGE_CURVE('',#328,#330,#188,.T.);
#409=EDGE_CURVE('',#324,#331,#189,.T.);
#410=EDGE_CURVE('',#302,#331,#190,.T.);
#411=EDGE_CURVE('',#332,#330,#42,.T.);
#412=EDGE_CURVE('',#318,#332,#191,.T.);
#413=EDGE_CURVE('',#333,#317,#192,.T.);
#414=EDGE_CURVE('',#332,#333,#193,.T.);
#415=EDGE_CURVE('',#331,#334,#43,.T.);
#416=EDGE_CURVE('',#334,#303,#194,.T.);
#417=EDGE_CURVE('',#334,#335,#195,.T.);
#418=EDGE_CURVE('',#335,#304,#196,.T.);
#419=EDGE_CURVE('',#336,#333,#44,.T.);
#420=EDGE_CURVE('',#336,#316,#197,.T.);
#421=EDGE_CURVE('',#336,#337,#198,.T.);
#422=EDGE_CURVE('',#337,#315,#199,.T.);
#423=EDGE_CURVE('',#337,#338,#45,.T.);
#424=EDGE_CURVE('',#338,#314,#200,.T.);
#425=EDGE_CURVE('',#339,#335,#46,.T.);
#426=EDGE_CURVE('',#339,#305,#201,.T.);
#427=EDGE_CURVE('',#339,#340,#202,.T.);
#428=EDGE_CURVE('',#340,#306,#203,.T.);
#429=EDGE_CURVE('',#340,#341,#47,.T.);
#430=EDGE_CURVE('',#341,#307,#204,.T.);
#431=EDGE_CURVE('',#342,#313,#205,.T.);
#432=EDGE_CURVE('',#338,#342,#206,.T.);
#433=EDGE_CURVE('',#342,#343,#48,.T.);
#434=EDGE_CURVE('',#343,#344,#207,.T.);
#435=EDGE_CURVE('',#345,#344,#208,.T.);
#436=EDGE_CURVE('',#346,#345,#209,.T.);
#437=EDGE_CURVE('',#347,#346,#49,.T.);
#438=EDGE_CURVE('',#341,#347,#210,.T.);
#439=EDGE_CURVE('',#343,#312,#211,.T.);
#440=EDGE_CURVE('',#344,#311,#212,.T.);
#441=EDGE_CURVE('',#347,#308,#213,.T.);
#442=EDGE_CURVE('',#346,#309,#214,.T.);
#443=EDGE_CURVE('',#345,#310,#215,.T.);
#444=ORIENTED_EDGE('',*,*,#348,.T.);
#445=ORIENTED_EDGE('',*,*,#349,.T.);
#446=ORIENTED_EDGE('',*,*,#350,.F.);
#447=ORIENTED_EDGE('',*,*,#351,.F.);
#448=ORIENTED_EDGE('',*,*,#352,.F.);
#449=ORIENTED_EDGE('',*,*,#353,.T.);
#450=ORIENTED_EDGE('',*,*,#348,.F.);
#451=ORIENTED_EDGE('',*,*,#354,.T.);
#452=ORIENTED_EDGE('',*,*,#355,.F.);
#453=ORIENTED_EDGE('',*,*,#356,.F.);
#454=ORIENTED_EDGE('',*,*,#350,.T.);
#455=ORIENTED_EDGE('',*,*,#357,.F.);
#456=ORIENTED_EDGE('',*,*,#358,.T.);
#457=ORIENTED_EDGE('',*,*,#355,.T.);
#458=ORIENTED_EDGE('',*,*,#359,.T.);
#459=ORIENTED_EDGE('',*,*,#360,.T.);
#460=ORIENTED_EDGE('',*,*,#361,.T.);
#461=ORIENTED_EDGE('',*,*,#362,.T.);
#462=ORIENTED_EDGE('',*,*,#363,.T.);
#463=ORIENTED_EDGE('',*,*,#352,.T.);
#464=ORIENTED_EDGE('',*,*,#364,.F.);
#465=ORIENTED_EDGE('',*,*,#365,.F.);
#466=ORIENTED_EDGE('',*,*,#366,.F.);
#467=ORIENTED_EDGE('',*,*,#360,.F.);
#468=ORIENTED_EDGE('',*,*,#367,.F.);
#469=ORIENTED_EDGE('',*,*,#368,.F.);
#470=ORIENTED_EDGE('',*,*,#369,.F.);
#471=ORIENTED_EDGE('',*,*,#370,.F.);
#472=ORIENTED_EDGE('',*,*,#371,.F.);
#473=ORIENTED_EDGE('',*,*,#372,.F.);
#474=ORIENTED_EDGE('',*,*,#373,.F.);
#475=ORIENTED_EDGE('',*,*,#374,.F.);
#476=ORIENTED_EDGE('',*,*,#375,.F.);
#477=ORIENTED_EDGE('',*,*,#376,.F.);
#478=ORIENTED_EDGE('',*,*,#377,.F.);
#479=ORIENTED_EDGE('',*,*,#378,.F.);
#480=ORIENTED_EDGE('',*,*,#379,.F.);
#481=ORIENTED_EDGE('',*,*,#380,.T.);
#482=ORIENTED_EDGE('',*,*,#381,.T.);
#483=ORIENTED_EDGE('',*,*,#382,.T.);
#484=ORIENTED_EDGE('',*,*,#383,.T.);
#485=ORIENTED_EDGE('',*,*,#384,.T.);
#486=ORIENTED_EDGE('',*,*,#385,.T.);
#487=ORIENTED_EDGE('',*,*,#386,.T.);
#488=ORIENTED_EDGE('',*,*,#387,.T.);
#489=ORIENTED_EDGE('',*,*,#388,.F.);
#490=ORIENTED_EDGE('',*,*,#389,.T.);
#491=ORIENTED_EDGE('',*,*,#390,.T.);
#492=ORIENTED_EDGE('',*,*,#391,.T.);
#493=ORIENTED_EDGE('',*,*,#392,.T.);
#494=ORIENTED_EDGE('',*,*,#364,.T.);
#495=ORIENTED_EDGE('',*,*,#359,.F.);
#496=ORIENTED_EDGE('',*,*,#357,.T.);
#497=ORIENTED_EDGE('',*,*,#349,.F.);
#498=ORIENTED_EDGE('',*,*,#353,.F.);
#499=ORIENTED_EDGE('',*,*,#363,.F.);
#500=ORIENTED_EDGE('',*,*,#393,.T.);
#501=ORIENTED_EDGE('',*,*,#394,.T.);
#502=ORIENTED_EDGE('',*,*,#370,.T.);
#503=ORIENTED_EDGE('',*,*,#395,.F.);
#504=ORIENTED_EDGE('',*,*,#396,.T.);
#505=ORIENTED_EDGE('',*,*,#395,.T.);
#506=ORIENTED_EDGE('',*,*,#369,.T.);
#507=ORIENTED_EDGE('',*,*,#397,.F.);
#508=ORIENTED_EDGE('',*,*,#398,.F.);
#509=ORIENTED_EDGE('',*,*,#397,.T.);
#510=ORIENTED_EDGE('',*,*,#368,.T.);
#511=ORIENTED_EDGE('',*,*,#399,.F.);
#512=ORIENTED_EDGE('',*,*,#400,.F.);
#513=ORIENTED_EDGE('',*,*,#401,.T.);
#514=ORIENTED_EDGE('',*,*,#390,.F.);
#515=ORIENTED_EDGE('',*,*,#402,.F.);
#516=ORIENTED_EDGE('',*,*,#403,.F.);
#517=ORIENTED_EDGE('',*,*,#404,.T.);
#518=ORIENTED_EDGE('',*,*,#391,.F.);
#519=ORIENTED_EDGE('',*,*,#401,.F.);
#520=ORIENTED_EDGE('',*,*,#405,.T.);
#521=ORIENTED_EDGE('',*,*,#365,.T.);
#522=ORIENTED_EDGE('',*,*,#392,.F.);
#523=ORIENTED_EDGE('',*,*,#404,.F.);
#524=ORIENTED_EDGE('',*,*,#406,.T.);
#525=ORIENTED_EDGE('',*,*,#399,.T.);
#526=ORIENTED_EDGE('',*,*,#367,.T.);
#527=ORIENTED_EDGE('',*,*,#362,.F.);
#528=ORIENTED_EDGE('',*,*,#389,.F.);
#529=ORIENTED_EDGE('',*,*,#407,.F.);
#530=ORIENTED_EDGE('',*,*,#408,.F.);
#531=ORIENTED_EDGE('',*,*,#402,.T.);
#532=ORIENTED_EDGE('',*,*,#409,.T.);
#533=ORIENTED_EDGE('',*,*,#410,.F.);
#534=ORIENTED_EDGE('',*,*,#371,.T.);
#535=ORIENTED_EDGE('',*,*,#394,.F.);
#536=ORIENTED_EDGE('',*,*,#411,.T.);
#537=ORIENTED_EDGE('',*,*,#407,.T.);
#538=ORIENTED_EDGE('',*,*,#388,.T.);
#539=ORIENTED_EDGE('',*,*,#412,.T.);
#540=ORIENTED_EDGE('',*,*,#412,.F.);
#541=ORIENTED_EDGE('',*,*,#387,.F.);
#542=ORIENTED_EDGE('',*,*,#413,.F.);
#543=ORIENTED_EDGE('',*,*,#414,.F.);
#544=ORIENTED_EDGE('',*,*,#415,.T.);
#545=ORIENTED_EDGE('',*,*,#416,.T.);
#546=ORIENTED_EDGE('',*,*,#372,.T.);
#547=ORIENTED_EDGE('',*,*,#410,.T.);
#548=ORIENTED_EDGE('',*,*,#416,.F.);
#549=ORIENTED_EDGE('',*,*,#417,.T.);
#550=ORIENTED_EDGE('',*,*,#418,.T.);
#551=ORIENTED_EDGE('',*,*,#373,.T.);
#552=ORIENTED_EDGE('',*,*,#419,.T.);
#553=ORIENTED_EDGE('',*,*,#413,.T.);
#554=ORIENTED_EDGE('',*,*,#386,.F.);
#555=ORIENTED_EDGE('',*,*,#420,.F.);
#556=ORIENTED_EDGE('',*,*,#421,.F.);
#557=ORIENTED_EDGE('',*,*,#420,.T.);
#558=ORIENTED_EDGE('',*,*,#385,.F.);
#559=ORIENTED_EDGE('',*,*,#422,.F.);
#560=ORIENTED_EDGE('',*,*,#423,.F.);
#561=ORIENTED_EDGE('',*,*,#422,.T.);
#562=ORIENTED_EDGE('',*,*,#384,.F.);
#563=ORIENTED_EDGE('',*,*,#424,.F.);
#564=ORIENTED_EDGE('',*,*,#425,.F.);
#565=ORIENTED_EDGE('',*,*,#426,.T.);
#566=ORIENTED_EDGE('',*,*,#374,.T.);
#567=ORIENTED_EDGE('',*,*,#418,.F.);
#568=ORIENTED_EDGE('',*,*,#427,.T.);
#569=ORIENTED_EDGE('',*,*,#428,.T.);
#570=ORIENTED_EDGE('',*,*,#375,.T.);
#571=ORIENTED_EDGE('',*,*,#426,.F.);
#572=ORIENTED_EDGE('',*,*,#429,.T.);
#573=ORIENTED_EDGE('',*,*,#430,.T.);
#574=ORIENTED_EDGE('',*,*,#376,.T.);
#575=ORIENTED_EDGE('',*,*,#428,.F.);
#576=ORIENTED_EDGE('',*,*,#383,.F.);
#577=ORIENTED_EDGE('',*,*,#431,.F.);
#578=ORIENTED_EDGE('',*,*,#432,.F.);
#579=ORIENTED_EDGE('',*,*,#424,.T.);
#580=ORIENTED_EDGE('',*,*,#366,.T.);
#581=ORIENTED_EDGE('',*,*,#405,.F.);
#582=ORIENTED_EDGE('',*,*,#403,.T.);
#583=ORIENTED_EDGE('',*,*,#400,.T.);
#584=ORIENTED_EDGE('',*,*,#408,.T.);
#585=ORIENTED_EDGE('',*,*,#411,.F.);
#586=ORIENTED_EDGE('',*,*,#414,.T.);
#587=ORIENTED_EDGE('',*,*,#419,.F.);
#588=ORIENTED_EDGE('',*,*,#421,.T.);
#589=ORIENTED_EDGE('',*,*,#423,.T.);
#590=ORIENTED_EDGE('',*,*,#432,.T.);
#591=ORIENTED_EDGE('',*,*,#433,.T.);
#592=ORIENTED_EDGE('',*,*,#434,.T.);
#593=ORIENTED_EDGE('',*,*,#435,.F.);
#594=ORIENTED_EDGE('',*,*,#436,.F.);
#595=ORIENTED_EDGE('',*,*,#437,.F.);
#596=ORIENTED_EDGE('',*,*,#438,.F.);
#597=ORIENTED_EDGE('',*,*,#429,.F.);
#598=ORIENTED_EDGE('',*,*,#427,.F.);
#599=ORIENTED_EDGE('',*,*,#425,.T.);
#600=ORIENTED_EDGE('',*,*,#417,.F.);
#601=ORIENTED_EDGE('',*,*,#415,.F.);
#602=ORIENTED_EDGE('',*,*,#409,.F.);
#603=ORIENTED_EDGE('',*,*,#393,.F.);
#604=ORIENTED_EDGE('',*,*,#396,.F.);
#605=ORIENTED_EDGE('',*,*,#398,.T.);
#606=ORIENTED_EDGE('',*,*,#406,.F.);
#607=ORIENTED_EDGE('',*,*,#361,.F.);
#608=ORIENTED_EDGE('',*,*,#354,.F.);
#609=ORIENTED_EDGE('',*,*,#351,.T.);
#610=ORIENTED_EDGE('',*,*,#356,.T.);
#611=ORIENTED_EDGE('',*,*,#358,.F.);
#612=ORIENTED_EDGE('',*,*,#433,.F.);
#613=ORIENTED_EDGE('',*,*,#431,.T.);
#614=ORIENTED_EDGE('',*,*,#382,.F.);
#615=ORIENTED_EDGE('',*,*,#439,.F.);
#616=ORIENTED_EDGE('',*,*,#434,.F.);
#617=ORIENTED_EDGE('',*,*,#439,.T.);
#618=ORIENTED_EDGE('',*,*,#381,.F.);
#619=ORIENTED_EDGE('',*,*,#440,.F.);
#620=ORIENTED_EDGE('',*,*,#438,.T.);
#621=ORIENTED_EDGE('',*,*,#441,.T.);
#622=ORIENTED_EDGE('',*,*,#377,.T.);
#623=ORIENTED_EDGE('',*,*,#430,.F.);
#624=ORIENTED_EDGE('',*,*,#437,.T.);
#625=ORIENTED_EDGE('',*,*,#442,.T.);
#626=ORIENTED_EDGE('',*,*,#378,.T.);
#627=ORIENTED_EDGE('',*,*,#441,.F.);
#628=ORIENTED_EDGE('',*,*,#436,.T.);
#629=ORIENTED_EDGE('',*,*,#443,.T.);
#630=ORIENTED_EDGE('',*,*,#379,.T.);
#631=ORIENTED_EDGE('',*,*,#442,.F.);
#632=ORIENTED_EDGE('',*,*,#443,.F.);
#633=ORIENTED_EDGE('',*,*,#435,.T.);
#634=ORIENTED_EDGE('',*,*,#440,.T.);
#635=ORIENTED_EDGE('',*,*,#380,.F.);
#636=PLANE('',#705);
#637=PLANE('',#706);
#638=PLANE('',#707);
#639=PLANE('',#714);
#640=PLANE('',#715);
#641=PLANE('',#730);
#642=PLANE('',#735);
#643=PLANE('',#738);
#644=PLANE('',#739);
#645=PLANE('',#740);
#646=PLANE('',#743);
#647=PLANE('',#746);
#648=PLANE('',#749);
#649=PLANE('',#754);
#650=PLANE('',#757);
#651=PLANE('',#758);
#652=PLANE('',#762);
#653=PLANE('',#763);
#654=PLANE('',#765);
#655=PLANE('',#766);
#656=ADVANCED_FACE('',(#80),#636,.F.);
#657=ADVANCED_FACE('',(#81),#637,.F.);
#658=ADVANCED_FACE('',(#82),#638,.T.);
#659=ADVANCED_FACE('',(#83),#50,.F.);
#660=ADVANCED_FACE('',(#84),#51,.T.);
#661=ADVANCED_FACE('',(#85),#639,.T.);
#662=ADVANCED_FACE('',(#86),#640,.F.);
#663=ADVANCED_FACE('',(#87),#52,.F.);
#664=ADVANCED_FACE('',(#88),#641,.F.);
#665=ADVANCED_FACE('',(#89),#53,.T.);
#666=ADVANCED_FACE('',(#90),#54,.T.);
#667=ADVANCED_FACE('',(#91),#642,.T.);
#668=ADVANCED_FACE('',(#92),#55,.F.);
#669=ADVANCED_FACE('',(#93),#643,.F.);
#670=ADVANCED_FACE('',(#94),#644,.T.);
#671=ADVANCED_FACE('',(#95),#645,.F.);
#672=ADVANCED_FACE('',(#96),#56,.T.);
#673=ADVANCED_FACE('',(#97),#646,.T.);
#674=ADVANCED_FACE('',(#98),#57,.F.);
#675=ADVANCED_FACE('',(#99),#647,.F.);
#676=ADVANCED_FACE('',(#100),#58,.F.);
#677=ADVANCED_FACE('',(#101),#648,.T.);
#678=ADVANCED_FACE('',(#102),#59,.T.);
#679=ADVANCED_FACE('',(#103),#60,.T.);
#680=ADVANCED_FACE('',(#104),#649,.F.);
#681=ADVANCED_FACE('',(#105),#61,.F.);
#682=ADVANCED_FACE('',(#106),#650,.T.);
#683=ADVANCED_FACE('',(#107),#651,.F.);
#684=ADVANCED_FACE('',(#108),#62,.T.);
#685=ADVANCED_FACE('',(#109),#652,.T.);
#686=ADVANCED_FACE('',(#110),#653,.F.);
#687=ADVANCED_FACE('',(#111),#63,.F.);
#688=ADVANCED_FACE('',(#112),#654,.F.);
#689=ADVANCED_FACE('',(#113),#655,.F.);
#690=CLOSED_SHELL('',(#656,#657,#658,#659,#660,#661,#662,#663,#664,#665,
#666,#667,#668,#669,#670,#671,#672,#673,#674,#675,#676,#677,#678,#679,#680,
#681,#682,#683,#684,#685,#686,#687,#688,#689));
#691=DERIVED_UNIT_ELEMENT(#693,1.);
#692=DERIVED_UNIT_ELEMENT(#1174,-3.);
#693=(
MASS_UNIT()
NAMED_UNIT(*)
SI_UNIT(.KILO.,.GRAM.)
);
#694=DERIVED_UNIT((#691,#692));
#695=MEASURE_REPRESENTATION_ITEM('density measure',
POSITIVE_RATIO_MEASURE(7850.),#694);
#696=PROPERTY_DEFINITION_REPRESENTATION(#701,#698);
#697=PROPERTY_DEFINITION_REPRESENTATION(#702,#699);
#698=REPRESENTATION('material name',(#700),#1171);
#699=REPRESENTATION('density',(#695),#1171);
#700=DESCRIPTIVE_REPRESENTATION_ITEM('Steel','Steel');
#701=PROPERTY_DEFINITION('material property','material name',#1187);
#702=PROPERTY_DEFINITION('material property','density of part',#1187);
#703=AXIS2_PLACEMENT_3D('',#969,#769,#770);
#704=AXIS2_PLACEMENT_3D('',#970,#771,#772);
#705=AXIS2_PLACEMENT_3D('',#971,#773,#774);
#706=AXIS2_PLACEMENT_3D('',#980,#779,#780);
#707=AXIS2_PLACEMENT_3D('',#986,#784,#785);
#708=AXIS2_PLACEMENT_3D('',#992,#789,#790);
#709=AXIS2_PLACEMENT_3D('',#994,#791,#792);
#710=AXIS2_PLACEMENT_3D('',#996,#793,#794);
#711=AXIS2_PLACEMENT_3D('',#998,#796,#797);
#712=AXIS2_PLACEMENT_3D('',#1000,#798,#799);
#713=AXIS2_PLACEMENT_3D('',#1003,#801,#802);
#714=AXIS2_PLACEMENT_3D('',#1004,#803,#804);
#715=AXIS2_PLACEMENT_3D('',#1010,#808,#809);
#716=AXIS2_PLACEMENT_3D('',#1014,#811,#812);
#717=AXIS2_PLACEMENT_3D('',#1018,#814,#815);
#718=AXIS2_PLACEMENT_3D('',#1022,#817,#818);
#719=AXIS2_PLACEMENT_3D('',#1026,#820,#821);
#720=AXIS2_PLACEMENT_3D('',#1030,#823,#824);
#721=AXIS2_PLACEMENT_3D('',#1034,#826,#827);
#722=AXIS2_PLACEMENT_3D('',#1042,#831,#832);
#723=AXIS2_PLACEMENT_3D('',#1046,#834,#835);
#724=AXIS2_PLACEMENT_3D('',#1050,#837,#838);
#725=AXIS2_PLACEMENT_3D('',#1054,#840,#841);
#726=AXIS2_PLACEMENT_3D('',#1058,#843,#844);
#727=AXIS2_PLACEMENT_3D('',#1061,#846,#847);
#728=AXIS2_PLACEMENT_3D('',#1062,#848,#849);
#729=AXIS2_PLACEMENT_3D('',#1065,#850,#851);
#730=AXIS2_PLACEMENT_3D('',#1068,#854,#855);
#731=AXIS2_PLACEMENT_3D('',#1072,#858,#859);
#732=AXIS2_PLACEMENT_3D('',#1074,#860,#861);
#733=AXIS2_PLACEMENT_3D('',#1076,#863,#864);
#734=AXIS2_PLACEMENT_3D('',#1079,#865,#866);
#735=AXIS2_PLACEMENT_3D('',#1082,#869,#870);
#736=AXIS2_PLACEMENT_3D('',#1086,#873,#874);
#737=AXIS2_PLACEMENT_3D('',#1087,#875,#876);
#738=AXIS2_PLACEMENT_3D('',#1088,#877,#878);
#739=AXIS2_PLACEMENT_3D('',#1090,#880,#881);
#740=AXIS2_PLACEMENT_3D('',#1094,#884,#885);
#741=AXIS2_PLACEMENT_3D('',#1098,#888,#889);
#742=AXIS2_PLACEMENT_3D('',#1100,#890,#891);
#743=AXIS2_PLACEMENT_3D('',#1102,#893,#894);
#744=AXIS2_PLACEMENT_3D('',#1106,#897,#898);
#745=AXIS2_PLACEMENT_3D('',#1108,#899,#900);
#746=AXIS2_PLACEMENT_3D('',#1110,#902,#903);
#747=AXIS2_PLACEMENT_3D('',#1114,#906,#907);
#748=AXIS2_PLACEMENT_3D('',#1116,#908,#909);
#749=AXIS2_PLACEMENT_3D('',#1118,#911,#912);
#750=AXIS2_PLACEMENT_3D('',#1122,#915,#916);
#751=AXIS2_PLACEMENT_3D('',#1124,#917,#918);
#752=AXIS2_PLACEMENT_3D('',#1126,#920,#921);
#753=AXIS2_PLACEMENT_3D('',#1128,#922,#923);
#754=AXIS2_PLACEMENT_3D('',#1130,#925,#926);
#755=AXIS2_PLACEMENT_3D('',#1134,#929,#930);
#756=AXIS2_PLACEMENT_3D('',#1136,#931,#932);
#757=AXIS2_PLACEMENT_3D('',#1138,#934,#935);
#758=AXIS2_PLACEMENT_3D('',#1142,#938,#939);
#759=AXIS2_PLACEMENT_3D('',#1144,#940,#941);
#760=AXIS2_PLACEMENT_3D('',#1152,#945,#946);
#761=AXIS2_PLACEMENT_3D('',#1154,#948,#949);
#762=AXIS2_PLACEMENT_3D('',#1156,#951,#952);
#763=AXIS2_PLACEMENT_3D('',#1158,#954,#955);
#764=AXIS2_PLACEMENT_3D('',#1160,#957,#958);
#765=AXIS2_PLACEMENT_3D('',#1162,#960,#961);
#766=AXIS2_PLACEMENT_3D('',#1164,#963,#964);
#767=AXIS2_PLACEMENT_3D('',#1165,#965,#966);
#768=AXIS2_PLACEMENT_3D('',#1166,#967,#968);
#769=DIRECTION('axis',(0.,0.,1.));
#770=DIRECTION('refdir',(1.,0.,0.));
#771=DIRECTION('axis',(0.,0.,1.));
#772=DIRECTION('refdir',(1.,0.,0.));
#773=DIRECTION('center_axis',(1.,2.99923806453831E-12,-1.11022302462517E-16));
#774=DIRECTION('ref_axis',(-1.11022302462517E-16,-1.22315418339994E-33,
-1.));
#775=DIRECTION('',(-1.11022302462517E-16,-1.22315418339994E-33,-1.));
#776=DIRECTION('',(2.99923806453831E-12,-1.,-3.32981092404083E-28));
#777=DIRECTION('',(-1.11022302462517E-16,-1.22315418339994E-33,-1.));
#778=DIRECTION('',(2.99923806453831E-12,-1.,-3.32981092404083E-28));
#779=DIRECTION('center_axis',(2.99923806453831E-12,-1.,-3.32981092404083E-28));
#780=DIRECTION('ref_axis',(-1.,-2.99923806453831E-12,8.75409631879091E-17));
#781=DIRECTION('',(1.11022302462517E-16,1.2231541834672E-33,1.));
#782=DIRECTION('',(-1.,-2.99923806453831E-12,8.75409631879091E-17));
#783=DIRECTION('',(1.,2.99923806453831E-12,-8.75409631879091E-17));
#784=DIRECTION('center_axis',(2.99923806453831E-12,-1.,-3.32981092404083E-28));
#785=DIRECTION('ref_axis',(-1.,-2.99923806453831E-12,8.75409631879091E-17));
#786=DIRECTION('',(-1.11022302462517E-16,-1.2231541834672E-33,-1.));
#787=DIRECTION('',(1.,2.99923806453831E-12,-8.75409631879091E-17));
#788=DIRECTION('',(-1.,-2.99923806453831E-12,8.75409631879091E-17));
#789=DIRECTION('center_axis',(-1.11022302462517E-16,-1.2231541834672E-33,
-1.));
#790=DIRECTION('ref_axis',(0.707106781185427,0.707106781187668,3.03408040469623E-31));
#791=DIRECTION('center_axis',(1.3305668935189E-16,-2.20343868893621E-17,
1.));
#792=DIRECTION('ref_axis',(0.707106781185427,0.707106781187668,3.03408040469623E-31));
#793=DIRECTION('center_axis',(-1.3305668935189E-16,2.20343868893621E-17,
-1.));
#794=DIRECTION('ref_axis',(0.707106781185427,0.707106781187668,3.03408040469623E-31));
#795=DIRECTION('',(1.11022302462517E-16,1.2231541834672E-33,1.));
#796=DIRECTION('center_axis',(1.11022302462517E-16,1.2231541834672E-33,
1.));
#797=DIRECTION('ref_axis',(0.707106781185425,0.70710678118767,3.4412555351488E-31));
#798=DIRECTION('center_axis',(-1.3305668935189E-16,2.20343868893621E-17,
-1.));
#799=DIRECTION('ref_axis',(0.707106781185425,0.70710678118767,3.4412555351488E-31));
#800=DIRECTION('',(-1.11022302462517E-16,-1.2231541834672E-33,-1.));
#801=DIRECTION('center_axis',(1.3305668935189E-16,-2.20343868893621E-17,
1.));
#802=DIRECTION('ref_axis',(0.707106781185425,0.70710678118767,3.4412555351488E-31));
#803=DIRECTION('center_axis',(-1.,-1.76477775372733E-13,1.11022302462517E-16));
#804=DIRECTION('ref_axis',(-1.76477775372733E-13,1.,-7.03741775244551E-17));
#805=DIRECTION('',(-1.76477775372733E-13,1.,-7.03741775244551E-17));
#806=DIRECTION('',(-1.11022302462517E-16,-1.22315418339996E-33,-1.));
#807=DIRECTION('',(1.76477775372733E-13,-1.,7.03741775244551E-17));
#808=DIRECTION('center_axis',(1.3305668935189E-16,-2.20343868893621E-17,
1.));
#809=DIRECTION('ref_axis',(1.,-5.27355936696951E-16,-1.3305668935189E-16));
#810=DIRECTION('',(-1.76477775372733E-13,1.,-7.03741775244551E-17));
#811=DIRECTION('center_axis',(1.09426637795715E-15,-7.39911079021991E-16,
1.));
#812=DIRECTION('ref_axis',(0.785510057213715,-0.618848891100329,-1.31745039592177E-15));
#813=DIRECTION('',(0.618848890826153,0.785510057429719,-2.07688645323722E-16));
#814=DIRECTION('center_axis',(-5.43276964894556E-16,3.05794569973336E-16,
-1.));
#815=DIRECTION('ref_axis',(-0.78553973185339,0.618811222974911,6.15994753149679E-16));
#816=DIRECTION('',(-2.15489470039195E-15,-1.,3.17878664784773E-17));
#817=DIRECTION('center_axis',(-1.3305668935189E-16,2.20343868893621E-17,
-1.));
#818=DIRECTION('ref_axis',(0.707106781186538,0.707106781186557,2.98950319725782E-31));
#819=DIRECTION('',(1.,3.10015500230737E-14,-1.55091076241301E-16));
#820=DIRECTION('center_axis',(1.55091076241301E-16,5.90501740757623E-29,
1.));
#821=DIRECTION('ref_axis',(-0.9956467306157,-0.0932072304827724,1.54415923007327E-16));
#822=DIRECTION('',(0.0932072304825615,-0.995646730615719,-1.44556096889526E-17));
#823=DIRECTION('center_axis',(-1.55091076241301E-16,-5.90501740757623E-29,
-1.));
#824=DIRECTION('ref_axis',(0.995646730615449,0.0932072304854446,-1.54415923007288E-16));
#825=DIRECTION('',(4.89725397459815E-12,1.,-8.18570563623176E-28));
#826=DIRECTION('center_axis',(-1.55091076241301E-16,-5.90501740757623E-29,
-1.));
#827=DIRECTION('ref_axis',(-1.,-6.31827737881568E-9,1.55091076241301E-16));
#828=DIRECTION('',(-1.,2.15733970013996E-10,2.42642343214385E-16));
#829=DIRECTION('',(-2.15733970013996E-10,-1.,2.39512832934878E-26));
#830=DIRECTION('',(-1.,2.15733970013996E-10,2.42642343214385E-16));
#831=DIRECTION('center_axis',(-1.55091076241301E-16,-5.90501740757623E-29,
-1.));
#832=DIRECTION('ref_axis',(-1.,-6.31827737881568E-9,1.55091076241301E-16));
#833=DIRECTION('',(4.89725397459815E-12,1.,-8.18570563623176E-28));
#834=DIRECTION('center_axis',(-1.55091076241301E-16,-5.90501740757623E-29,
-1.));
#835=DIRECTION('ref_axis',(0.995646730615449,0.0932072304854446,-1.54415923007288E-16));
#836=DIRECTION('',(0.0932072304825615,-0.995646730615719,-1.44556096889526E-17));
#837=DIRECTION('center_axis',(1.55091076241301E-16,5.90501740757623E-29,
1.));
#838=DIRECTION('ref_axis',(-0.9956467306157,-0.0932072304827723,1.54415923007327E-16));
#839=DIRECTION('',(1.,3.10015500230737E-14,-1.55091076241301E-16));
#840=DIRECTION('center_axis',(1.3305668935189E-16,-2.20343868893621E-17,
1.));
#841=DIRECTION('ref_axis',(0.707106781186534,0.707106781186561,3.1089195541444E-31));
#842=DIRECTION('',(-2.15489470039195E-15,-1.,3.17878664784773E-17));
#843=DIRECTION('center_axis',(-5.43276964894556E-16,3.05794569973336E-16,
-1.));
#844=DIRECTION('ref_axis',(-0.78553973185339,0.618811222974911,6.15994753149679E-16));
#845=DIRECTION('',(0.618848890826153,0.785510057429719,-2.07688645323722E-16));
#846=DIRECTION('center_axis',(1.09426637795715E-15,-7.39911079021991E-16,
1.));
#847=DIRECTION('ref_axis',(0.785510057213715,-0.618848891100329,-1.31745039592177E-15));
#848=DIRECTION('center_axis',(-1.11022302462517E-16,-1.22315418339996E-33,
-1.));
#849=DIRECTION('ref_axis',(-0.327457209608768,-0.944866009482423,3.63550533687166E-17));
#850=DIRECTION('center_axis',(5.43276964894556E-16,-3.05794569973336E-16,
1.));
#851=DIRECTION('ref_axis',(-0.78553973185339,0.618811222974911,6.15994753149679E-16));
#852=DIRECTION('',(-1.11022302462517E-16,-1.22315418339996E-33,-1.));
#853=DIRECTION('',(-1.11022302462517E-16,-1.22315418339996E-33,-1.));
#854=DIRECTION('center_axis',(-0.785510057429719,0.618848890826153,8.72091351833116E-17));
#855=DIRECTION('ref_axis',(0.618848890826153,0.785510057429719,-2.07688645323722E-16));
#856=DIRECTION('',(-0.618848890826153,-0.785510057429719,2.07688645323722E-16));
#857=DIRECTION('',(-1.11022302462517E-16,-1.22315418339996E-33,-1.));
#858=DIRECTION('center_axis',(-1.11022302462517E-16,-1.22315418339996E-33,
-1.));
#859=DIRECTION('ref_axis',(0.785510057213715,-0.618848891100329,-8.72091351593303E-17));
#860=DIRECTION('center_axis',(1.09426637795715E-15,-7.39911079021991E-16,
1.));
#861=DIRECTION('ref_axis',(0.785510057213715,-0.618848891100329,-1.31745039592177E-15));
#862=DIRECTION('',(-1.11022302462517E-16,-1.22315418339996E-33,-1.));
#863=DIRECTION('center_axis',(-1.11022302462517E-16,-1.22315418339996E-33,
-1.));
#864=DIRECTION('ref_axis',(-0.327460125928866,-0.944864998783769,3.63553771452885E-17));
#865=DIRECTION('center_axis',(5.43276964894556E-16,-3.05794569973336E-16,
1.));
#866=DIRECTION('ref_axis',(-0.78553973185339,0.618811222974911,6.15994753149679E-16));
#867=DIRECTION('',(-1.11022302462517E-16,-1.22315418339996E-33,-1.));
#868=DIRECTION('',(-1.11022302462517E-16,-1.22315418339996E-33,-1.));
#869=DIRECTION('center_axis',(-0.785510057429719,0.618848890826153,8.72091351833116E-17));
#870=DIRECTION('ref_axis',(0.618848890826153,0.785510057429719,-2.07688645323722E-16));
#871=DIRECTION('',(-0.618848890826153,-0.785510057429719,2.07688645323722E-16));
#872=DIRECTION('',(-1.11022302462517E-16,-1.22315418339996E-33,-1.));
#873=DIRECTION('center_axis',(-1.11022302462517E-16,-1.22315418339996E-33,
-1.));
#874=DIRECTION('ref_axis',(0.785510057213715,-0.618848891100329,-8.72091351593303E-17));
#875=DIRECTION('center_axis',(1.09426637795715E-15,-7.39911079021991E-16,
1.));
#876=DIRECTION('ref_axis',(0.785510057213715,-0.618848891100329,-1.31745039592177E-15));
#877=DIRECTION('center_axis',(-1.,-1.76477775372733E-13,1.11022302462517E-16));
#878=DIRECTION('ref_axis',(-1.76477775372733E-13,1.,-7.03741775244551E-17));
#879=DIRECTION('',(1.76477775372733E-13,-1.,7.03741775244551E-17));
#880=DIRECTION('center_axis',(1.,-2.15489470039195E-15,-1.11022302462517E-16));
#881=DIRECTION('ref_axis',(-2.15489470039195E-15,-1.,3.17878664784773E-17));
#882=DIRECTION('',(-1.11022302462517E-16,-1.22315418339646E-33,-1.));
#883=DIRECTION('',(2.15489470039195E-15,1.,-3.17878664784773E-17));
#884=DIRECTION('center_axis',(1.,-2.15489470039195E-15,-1.11022302462517E-16));
#885=DIRECTION('ref_axis',(-2.15489470039195E-15,-1.,3.17878664784773E-17));
#886=DIRECTION('',(2.15489470039195E-15,1.,-3.17878664784773E-17));
#887=DIRECTION('',(1.11022302462517E-16,1.22315418339646E-33,1.));
#888=DIRECTION('center_axis',(1.11022302462517E-16,1.22315418339646E-33,
1.));
#889=DIRECTION('ref_axis',(0.707106781186534,0.707106781186561,3.1089195541444E-31));
#890=DIRECTION('center_axis',(-1.3305668935189E-16,2.20343868893621E-17,
-1.));
#891=DIRECTION('ref_axis',(0.707106781186534,0.707106781186561,3.1089195541444E-31));
#892=DIRECTION('',(1.11022302462517E-16,1.22315418339646E-33,1.));
#893=DIRECTION('center_axis',(-3.10015500230737E-14,1.,3.44064030928515E-30));
#894=DIRECTION('ref_axis',(1.,3.10015500230737E-14,-1.55091076241301E-16));
#895=DIRECTION('',(-1.11022302462517E-16,-1.22315418339996E-33,-1.));
#896=DIRECTION('',(-1.,-3.10015500230737E-14,1.55091076241301E-16));
#897=DIRECTION('center_axis',(-1.11022302462517E-16,-1.22315418339646E-33,
-1.));
#898=DIRECTION('ref_axis',(0.707106781186538,0.707106781186557,2.98950319725782E-31));
#899=DIRECTION('center_axis',(1.3305668935189E-16,-2.20343868893621E-17,
1.));
#900=DIRECTION('ref_axis',(0.707106781186538,0.707106781186557,2.98950319725782E-31));
#901=DIRECTION('',(-1.11022302462517E-16,-1.22315418339646E-33,-1.));
#902=DIRECTION('center_axis',(-3.10015500230737E-14,1.,3.44064030928515E-30));
#903=DIRECTION('ref_axis',(1.,3.10015500230737E-14,-1.55091076241301E-16));
#904=DIRECTION('',(-1.,-3.10015500230737E-14,1.55091076241301E-16));
#905=DIRECTION('',(-1.11022302462517E-16,-1.22315418339996E-33,-1.));
#906=DIRECTION('center_axis',(-1.11022302462517E-16,-1.22315418339996E-33,
-1.));
#907=DIRECTION('ref_axis',(-0.9956467306157,-0.0932072304827723,1.10538992472233E-16));
#908=DIRECTION('center_axis',(1.55091076241301E-16,5.90501740757623E-29,
1.));
#909=DIRECTION('ref_axis',(-0.9956467306157,-0.0932072304827723,1.54415923007327E-16));
#910=DIRECTION('',(-1.11022302462517E-16,-1.22315418339996E-33,-1.));
#911=DIRECTION('center_axis',(0.995646730615719,0.0932072304825615,-1.10538992472235E-16));
#912=DIRECTION('ref_axis',(0.0932072304825615,-0.995646730615719,-1.44556096889526E-17));
#913=DIRECTION('',(-0.0932072304825615,0.995646730615719,1.44556096889526E-17));
#914=DIRECTION('',(-1.11022302462517E-16,-1.22315418339996E-33,-1.));
#915=DIRECTION('center_axis',(-1.11022302462517E-16,-1.22315418339996E-33,
-1.));
#916=DIRECTION('ref_axis',(0.995646730615449,0.0932072304854446,-1.10538992472205E-16));
#917=DIRECTION('center_axis',(1.55091076241301E-16,5.90501740757623E-29,
1.));
#918=DIRECTION('ref_axis',(0.995646730615449,0.0932072304854446,-1.54415923007288E-16));
#919=DIRECTION('',(-1.11022302462517E-16,-1.22315418339996E-33,-1.));
#920=DIRECTION('center_axis',(-1.11022302462517E-16,-1.22315418339996E-33,
-1.));
#921=DIRECTION('ref_axis',(-0.9956467306157,-0.0932072304827723,1.10538992472233E-16));
#922=DIRECTION('center_axis',(1.55091076241301E-16,5.90501740757623E-29,
1.));
#923=DIRECTION('ref_axis',(-0.9956467306157,-0.0932072304827724,1.54415923007327E-16));
#924=DIRECTION('',(-1.11022302462517E-16,-1.22315418339996E-33,-1.));
#925=DIRECTION('center_axis',(0.995646730615719,0.0932072304825615,-1.10538992472235E-16));
#926=DIRECTION('ref_axis',(0.0932072304825615,-0.995646730615719,-1.44556096889526E-17));
#927=DIRECTION('',(-0.0932072304825615,0.995646730615719,1.44556096889526E-17));
#928=DIRECTION('',(-1.11022302462517E-16,-1.22315418339996E-33,-1.));
#929=DIRECTION('center_axis',(-1.11022302462517E-16,-1.22315418339996E-33,
-1.));
#930=DIRECTION('ref_axis',(0.995646730615449,0.0932072304854446,-1.10538992472205E-16));
#931=DIRECTION('center_axis',(1.55091076241301E-16,5.90501740757623E-29,
1.));
#932=DIRECTION('ref_axis',(0.995646730615449,0.0932072304854446,-1.54415923007288E-16));
#933=DIRECTION('',(-1.11022302462517E-16,-1.22315418339996E-33,-1.));
#934=DIRECTION('center_axis',(-1.,4.89725397459815E-12,1.11022302462517E-16));
#935=DIRECTION('ref_axis',(4.89725397459815E-12,1.,-8.18570563623177E-28));
#936=DIRECTION('',(-1.11022302462517E-16,-1.22315418339952E-33,-1.));
#937=DIRECTION('',(-4.89725397459815E-12,-1.,8.18570563623177E-28));
#938=DIRECTION('center_axis',(-1.3305668935189E-16,2.20343868893621E-17,
-1.));
#939=DIRECTION('ref_axis',(-1.,5.27355936696951E-16,1.3305668935189E-16));
#940=DIRECTION('center_axis',(1.55091076241301E-16,5.90501740757623E-29,
1.));
#941=DIRECTION('ref_axis',(-1.,-6.31827737881568E-9,1.55091076241301E-16));
#942=DIRECTION('',(1.,-2.15733970013996E-10,-2.42642343214385E-16));
#943=DIRECTION('',(-2.15733970013996E-10,-1.,2.39512832934878E-26));
#944=DIRECTION('',(1.,-2.15733970013996E-10,-2.42642343214385E-16));
#945=DIRECTION('center_axis',(1.55091076241301E-16,5.90501740757623E-29,
1.));
#946=DIRECTION('ref_axis',(-1.,-6.31827737881568E-9,1.55091076241301E-16));
#947=DIRECTION('',(-4.89725397459815E-12,-1.,8.18570563623177E-28));
#948=DIRECTION('center_axis',(-1.11022302462517E-16,-1.22315418339952E-33,
-1.));
#949=DIRECTION('ref_axis',(-1.,-6.31827737881568E-9,1.11022302462517E-16));
#950=DIRECTION('',(-1.11022302462517E-16,-1.22315418339952E-33,-1.));
#951=DIRECTION('center_axis',(-2.15733970013996E-10,-1.,2.39512832934878E-26));
#952=DIRECTION('ref_axis',(-1.,2.15733970013996E-10,2.42642343214385E-16));
#953=DIRECTION('',(-1.11022302462517E-16,-1.22315418339952E-33,-1.));
#954=DIRECTION('center_axis',(-1.,4.89725397459815E-12,1.11022302462517E-16));
#955=DIRECTION('ref_axis',(4.89725397459815E-12,1.,-8.18570563623177E-28));
#956=DIRECTION('',(-1.11022302462517E-16,-1.22315418339952E-33,-1.));
#957=DIRECTION('center_axis',(-1.11022302462517E-16,-1.22315418339952E-33,
-1.));
#958=DIRECTION('ref_axis',(-1.,-6.31827737881568E-9,1.11022302462517E-16));
#959=DIRECTION('',(-1.11022302462517E-16,-1.22315418339952E-33,-1.));
#960=DIRECTION('center_axis',(-2.15733970013996E-10,-1.,2.39512832934878E-26));
#961=DIRECTION('ref_axis',(-1.,2.15733970013996E-10,2.42642343214385E-16));
#962=DIRECTION('',(-1.11022302462517E-16,-1.22315418339952E-33,-1.));
#963=DIRECTION('center_axis',(-1.,2.15733970013996E-10,1.11022302462517E-16));
#964=DIRECTION('ref_axis',(1.11022302462517E-16,1.22315418339952E-33,1.));
#965=DIRECTION('',(-1.11022302462518E-16,-1.57772181044202E-30,0.999999999999999));
#966=DIRECTION('',(0.999999999999999,5.27355936696949E-16,1.11022302462518E-16));
#967=DIRECTION('',(-4.40687737787832E-17,-5.9072190851054E-29,-0.999999999999999));
#968=DIRECTION('',(-0.999999999999998,5.27355936696949E-16,4.40687737788829E-17));
#969=CARTESIAN_POINT('',(0.,0.,0.));
#970=CARTESIAN_POINT('',(0.,0.,0.));
#971=CARTESIAN_POINT('Origin',(10.33008144027,-46.740000000439,21.0000000000011));
#972=CARTESIAN_POINT('',(10.3300814402658,-45.360000000439,24.0000000000011));
#973=CARTESIAN_POINT('',(10.3300814402658,-45.360000000439,18.0000000000011));
#974=CARTESIAN_POINT('',(10.3300814402658,-45.360000000439,24.0000000000011));
#975=CARTESIAN_POINT('',(10.33008144027,-46.740000000439,18.0000000000011));
#976=CARTESIAN_POINT('',(10.33008144027,-46.740000000439,18.0000000000011));
#977=CARTESIAN_POINT('',(10.33008144027,-46.740000000439,24.0000000000011));
#978=CARTESIAN_POINT('',(10.33008144027,-46.740000000439,24.0000000000011));
#979=CARTESIAN_POINT('',(10.33008144027,-46.740000000439,24.0000000000011));
#980=CARTESIAN_POINT('Origin',(158.250000001005,-45.3599999999954,24.0000000000011));
#981=CARTESIAN_POINT('',(158.250000000987,-45.3599999999954,18.0000000000011));
#982=CARTESIAN_POINT('',(158.250000000987,-45.3599999999954,24.0000000000011));
#983=CARTESIAN_POINT('',(158.250000000987,-45.3599999999954,24.0000000000011));
#984=CARTESIAN_POINT('',(10.3300814402658,-45.360000000439,18.0000000000011));
#985=CARTESIAN_POINT('',(10.3300814402658,-45.360000000439,24.0000000000011));
#986=CARTESIAN_POINT('Origin',(158.25000000101,-46.7399999999954,24.0000000000011));
#987=CARTESIAN_POINT('',(158.250000000991,-46.7399999999953,24.0000000000011));
#988=CARTESIAN_POINT('',(158.250000000991,-46.7399999999953,18.0000000000011));
#989=CARTESIAN_POINT('',(158.250000000991,-46.7399999999954,24.0000000000011));
#990=CARTESIAN_POINT('',(10.33008144027,-46.740000000439,24.0000000000011));
#991=CARTESIAN_POINT('',(10.33008144027,-46.740000000439,18.0000000000011));
#992=CARTESIAN_POINT('Origin',(158.250000001011,-53.2399999999953,24.0000000000011));
#993=CARTESIAN_POINT('',(164.75000000101,-53.2399999999941,24.0000000000011));
#994=CARTESIAN_POINT('Origin',(158.250000001011,-53.2399999999953,24.0000000000011));
#995=CARTESIAN_POINT('',(164.75000000101,-53.2399999999941,18.0000000000011));
#996=CARTESIAN_POINT('Origin',(158.250000001011,-53.2399999999953,18.0000000000011));
#997=CARTESIAN_POINT('',(164.75000000101,-53.2399999999941,24.0000000000011));
#998=CARTESIAN_POINT('Origin',(158.250000001011,-53.2399999999953,24.0000000000011));
#999=CARTESIAN_POINT('',(166.13000000101,-53.2399999999939,24.0000000000011));
#1000=CARTESIAN_POINT('Origin',(158.250000001011,-53.2399999999953,24.0000000000011));
#1001=CARTESIAN_POINT('',(166.13000000101,-53.2399999999939,18.0000000000011));
#1002=CARTESIAN_POINT('',(166.130000001011,-53.2399999999939,24.0000000000011));
#1003=CARTESIAN_POINT('Origin',(158.250000001011,-53.2399999999953,18.0000000000011));
#1004=CARTESIAN_POINT('Origin',(164.750000001039,-212.999999999973,24.0000000000011));
#1005=CARTESIAN_POINT('',(164.750000001039,-212.999999999973,18.0000000000011));
#1006=CARTESIAN_POINT('',(164.750000001012,-59.2399999999942,18.0000000000011));
#1007=CARTESIAN_POINT('',(164.750000001039,-212.999999999973,24.0000000000011));
#1008=CARTESIAN_POINT('',(164.750000001039,-212.999999999973,24.0000000000011));
#1009=CARTESIAN_POINT('',(164.750000001012,-59.2399999999942,24.0000000000011));
#1010=CARTESIAN_POINT('Origin',(162.846194078723,-48.6438059222816,18.0000000000011));
#1011=CARTESIAN_POINT('',(166.130000001039,-212.999999999973,18.0000000000011));
#1012=CARTESIAN_POINT('',(166.130000001012,-59.2399999999939,18.0000000000011));
#1013=CARTESIAN_POINT('',(164.439819252032,-217.876529261656,18.0000000000011));
#1014=CARTESIAN_POINT('Origin',(158.250000001039,-212.999999999974,18.0000000000011));
#1015=CARTESIAN_POINT('',(158.289486559242,-225.683197833488,18.0000000000011));
#1016=CARTESIAN_POINT('',(164.439819252182,-217.876529261467,18.0000000000011));
#1017=CARTESIAN_POINT('',(167.860000004348,-228.999999999975,18.0000000000011));
#1018=CARTESIAN_POINT('Origin',(162.500000000067,-228.999999999974,18.0000000000011));
#1019=CARTESIAN_POINT('',(167.860000000013,118.260000000004,18.0000000000011));
#1020=CARTESIAN_POINT('',(167.860000000012,-232.999999999975,18.0000000000011));
#1021=CARTESIAN_POINT('',(162.500000000013,123.620000000004,18.0000000000011));
#1022=CARTESIAN_POINT('Origin',(162.500000000013,118.260000000004,18.0000000000011));
#1023=CARTESIAN_POINT('',(-148.500000000011,123.619999999994,18.0000000000011));
#1024=CARTESIAN_POINT('',(162.500000000012,123.620000000004,18.0000000000011));
#1025=CARTESIAN_POINT('',(-156.345696237264,130.76552702379,18.0000000000011));
#1026=CARTESIAN_POINT('Origin',(-148.500000000012,131.499999999994,18.0000000000011));
#1027=CARTESIAN_POINT('',(-157.163333523912,139.499590755398,18.0000000000011));
#1028=CARTESIAN_POINT('',(-156.345696237264,130.76552702379,18.0000000000011));
#1029=CARTESIAN_POINT('',(-167.860000000013,139.00000000002,18.0000000000011));
#1030=CARTESIAN_POINT('Origin',(-162.500000000012,138.999999999994,18.0000000000011));
#1031=CARTESIAN_POINT('',(-167.860000000908,-39.9999999933304,18.0000000000011));
#1032=CARTESIAN_POINT('',(-167.860000000012,139.00000000002,18.0000000000011));
#1033=CARTESIAN_POINT('',(-162.50000000106,-45.3599999649134,18.0000000000011));
#1034=CARTESIAN_POINT('Origin',(-162.499999991096,-39.9999999551014,18.0000000000011));
#1035=CARTESIAN_POINT('',(-10.3299999996924,-45.3599999977413,18.0000000000011));
#1036=CARTESIAN_POINT('',(-162.500000002064,-45.3599999649131,18.0000000000011));
#1037=CARTESIAN_POINT('',(-10.3299999999901,-46.7399999977413,18.0000000000011));
#1038=CARTESIAN_POINT('',(-10.3299999999901,-46.7399999977413,18.0000000000011));
#1039=CARTESIAN_POINT('',(-162.500000002362,-46.7399999649134,18.0000000000011));
#1040=CARTESIAN_POINT('',(-162.500000002362,-46.7399999649131,18.0000000000011));
#1041=CARTESIAN_POINT('',(-169.240000000908,-39.9999999976866,18.0000000000011));
#1042=CARTESIAN_POINT('Origin',(-162.499999991096,-39.9999999551014,18.0000000000011));
#1043=CARTESIAN_POINT('',(-169.240000000013,139.000000000027,18.0000000000011));
#1044=CARTESIAN_POINT('',(-169.240000000012,139.000000000027,18.0000000000011));
#1045=CARTESIAN_POINT('',(-155.789341035663,139.628216733466,18.0000000000011));
#1046=CARTESIAN_POINT('Origin',(-162.500000000012,138.999999999994,18.0000000000011));
#1047=CARTESIAN_POINT('',(-154.971703749014,130.894153001856,18.0000000000011));
#1048=CARTESIAN_POINT('',(-154.971703749014,130.894153001856,18.0000000000011));
#1049=CARTESIAN_POINT('',(-148.500000000011,124.999999999994,18.0000000000011));
#1050=CARTESIAN_POINT('Origin',(-148.500000000012,131.499999999994,18.0000000000011));
#1051=CARTESIAN_POINT('',(162.500000000013,125.000000000004,18.0000000000011));
#1052=CARTESIAN_POINT('',(162.500000000012,125.000000000004,18.0000000000011));
#1053=CARTESIAN_POINT('',(169.240000000013,118.260000000004,18.0000000000011));
#1054=CARTESIAN_POINT('Origin',(162.500000000013,118.260000000004,18.0000000000011));
#1055=CARTESIAN_POINT('',(169.240000004348,-228.999999999975,18.0000000000011));
#1056=CARTESIAN_POINT('',(169.240000000012,-232.999999999975,18.0000000000011));
#1057=CARTESIAN_POINT('',(157.205462204013,-224.829212354475,18.0000000000011));
#1058=CARTESIAN_POINT('Origin',(162.500000000067,-228.999999999974,18.0000000000011));
#1059=CARTESIAN_POINT('',(163.355815372929,-217.022517792126,18.0000000000011));
#1060=CARTESIAN_POINT('',(163.355815372929,-217.022517792126,18.0000000000011));
#1061=CARTESIAN_POINT('Origin',(158.250000001039,-212.999999999974,18.0000000000011));
#1062=CARTESIAN_POINT('Origin',(162.500000000067,-228.999999999974,24.0000000000011));
#1063=CARTESIAN_POINT('',(158.289486559242,-225.683197833488,24.0000000000011));
#1064=CARTESIAN_POINT('',(167.860000004348,-228.999999999975,24.0000000000011));
#1065=CARTESIAN_POINT('Origin',(162.500000000067,-228.999999999974,24.0000000000011));
#1066=CARTESIAN_POINT('',(167.860000004348,-228.999999999975,24.0000000000011));
#1067=CARTESIAN_POINT('',(158.289466083266,-225.683223823815,24.0000000000011));
#1068=CARTESIAN_POINT('Origin',(158.289466083266,-225.683223823815,24.0000000000011));
#1069=CARTESIAN_POINT('',(164.439819252032,-217.876529261656,24.0000000000011));
#1070=CARTESIAN_POINT('',(164.439819252182,-217.876529261467,24.0000000000011));
#1071=CARTESIAN_POINT('',(164.439819252182,-217.876529261467,24.0000000000011));
#1072=CARTESIAN_POINT('Origin',(158.250000001039,-212.999999999974,24.0000000000011));
#1073=CARTESIAN_POINT('',(166.130000001039,-212.999999999973,24.0000000000011));
#1074=CARTESIAN_POINT('Origin',(158.250000001039,-212.999999999974,24.0000000000011));
#1075=CARTESIAN_POINT('',(166.130000001039,-212.999999999973,24.0000000000011));
#1076=CARTESIAN_POINT('Origin',(162.500000000067,-228.999999999974,24.0000000000011));
#1077=CARTESIAN_POINT('',(157.205462204013,-224.829212354475,24.0000000000011));
#1078=CARTESIAN_POINT('',(169.240000004348,-228.999999999975,24.0000000000011));
#1079=CARTESIAN_POINT('Origin',(162.500000000067,-228.999999999974,24.0000000000011));
#1080=CARTESIAN_POINT('',(157.205462204013,-224.829212354475,24.0000000000011));
#1081=CARTESIAN_POINT('',(169.240000004348,-228.999999999975,24.0000000000011));
#1082=CARTESIAN_POINT('Origin',(157.205462204013,-224.829212354475,24.0000000000011));
#1083=CARTESIAN_POINT('',(163.355815372929,-217.022517792126,24.0000000000011));
#1084=CARTESIAN_POINT('',(163.355815372929,-217.022517792126,24.0000000000011));
#1085=CARTESIAN_POINT('',(163.355815372929,-217.022517792126,24.0000000000011));
#1086=CARTESIAN_POINT('Origin',(158.250000001039,-212.999999999974,24.0000000000011));
#1087=CARTESIAN_POINT('Origin',(158.250000001039,-212.999999999974,24.0000000000011));
#1088=CARTESIAN_POINT('Origin',(166.130000001039,-212.999999999973,24.0000000000011));
#1089=CARTESIAN_POINT('',(166.130000001012,-55.239999999994,24.0000000000011));
#1090=CARTESIAN_POINT('Origin',(169.240000000013,112.260000000004,24.0000000000011));
#1091=CARTESIAN_POINT('',(169.240000000013,118.260000000004,24.0000000000011));
#1092=CARTESIAN_POINT('',(169.240000000013,118.260000000004,24.0000000000011));
#1093=CARTESIAN_POINT('',(169.240000000012,-236.999999999975,24.0000000000011));
#1094=CARTESIAN_POINT('Origin',(167.860000000013,112.260000000004,24.0000000000011));
#1095=CARTESIAN_POINT('',(167.860000000013,118.260000000004,24.0000000000011));
#1096=CARTESIAN_POINT('',(167.860000000012,-236.999999999975,24.0000000000011));
#1097=CARTESIAN_POINT('',(167.860000000013,118.260000000004,24.0000000000011));
#1098=CARTESIAN_POINT('Origin',(162.500000000013,118.260000000004,24.0000000000011));
#1099=CARTESIAN_POINT('',(162.500000000013,125.000000000004,24.0000000000011));
#1100=CARTESIAN_POINT('Origin',(162.500000000013,118.260000000004,24.0000000000011));
#1101=CARTESIAN_POINT('',(162.500000000013,125.000000000004,24.0000000000011));
#1102=CARTESIAN_POINT('Origin',(-148.500000000011,124.999999999994,24.0000000000011));
#1103=CARTESIAN_POINT('',(-148.500000000011,124.999999999994,24.0000000000011));
#1104=CARTESIAN_POINT('',(-148.500000000011,124.999999999994,24.0000000000011));
#1105=CARTESIAN_POINT('',(162.500000000012,125.000000000004,24.0000000000011));
#1106=CARTESIAN_POINT('Origin',(162.500000000013,118.260000000004,24.0000000000011));
#1107=CARTESIAN_POINT('',(162.500000000013,123.620000000004,24.0000000000011));
#1108=CARTESIAN_POINT('Origin',(162.500000000013,118.260000000004,24.0000000000011));
#1109=CARTESIAN_POINT('',(162.500000000013,123.620000000004,24.0000000000011));
#1110=CARTESIAN_POINT('Origin',(-148.500000000011,123.619999999994,24.0000000000011));
#1111=CARTESIAN_POINT('',(-148.500000000011,123.619999999994,24.0000000000011));
#1112=CARTESIAN_POINT('',(162.500000000012,123.620000000004,24.0000000000011));
#1113=CARTESIAN_POINT('',(-148.500000000011,123.619999999994,24.0000000000011));
#1114=CARTESIAN_POINT('Origin',(-148.500000000012,131.499999999994,24.0000000000011));
#1115=CARTESIAN_POINT('',(-154.971703749014,130.894153001856,24.0000000000011));
#1116=CARTESIAN_POINT('Origin',(-148.500000000012,131.499999999994,24.0000000000011));
#1117=CARTESIAN_POINT('',(-154.971703749014,130.894153001856,24.0000000000011));
#1118=CARTESIAN_POINT('Origin',(-155.789341035663,139.628216733466,24.0000000000011));
#1119=CARTESIAN_POINT('',(-155.789341035663,139.628216733466,24.0000000000011));
#1120=CARTESIAN_POINT('',(-154.971703749014,130.894153001856,24.0000000000011));
#1121=CARTESIAN_POINT('',(-155.789341035663,139.628216733466,24.0000000000011));
#1122=CARTESIAN_POINT('Origin',(-162.500000000012,138.999999999994,24.0000000000011));
#1123=CARTESIAN_POINT('',(-169.240000000013,139.000000000027,24.0000000000011));
#1124=CARTESIAN_POINT('Origin',(-162.500000000012,138.999999999994,24.0000000000011));
#1125=CARTESIAN_POINT('',(-169.240000000013,139.000000000027,24.0000000000011));
#1126=CARTESIAN_POINT('Origin',(-148.500000000012,131.499999999994,24.0000000000011));
#1127=CARTESIAN_POINT('',(-156.345696237264,130.76552702379,24.0000000000011));
#1128=CARTESIAN_POINT('Origin',(-148.500000000012,131.499999999994,24.0000000000011));
#1129=CARTESIAN_POINT('',(-156.345696237264,130.76552702379,24.0000000000011));
#1130=CARTESIAN_POINT('Origin',(-157.163333523913,139.4995907554,24.0000000000011));
#1131=CARTESIAN_POINT('',(-157.163333523912,139.499590755398,24.0000000000011));
#1132=CARTESIAN_POINT('',(-156.345696237264,130.76552702379,24.0000000000011));
#1133=CARTESIAN_POINT('',(-157.163333523913,139.4995907554,24.0000000000011));
#1134=CARTESIAN_POINT('Origin',(-162.500000000012,138.999999999994,24.0000000000011));
#1135=CARTESIAN_POINT('',(-167.860000000013,139.00000000002,24.0000000000011));
#1136=CARTESIAN_POINT('Origin',(-162.500000000012,138.999999999994,24.0000000000011));
#1137=CARTESIAN_POINT('',(-167.860000000013,139.00000000002,24.0000000000011));
#1138=CARTESIAN_POINT('Origin',(-169.240000000908,-39.9999999976866,24.0000000000011));
#1139=CARTESIAN_POINT('',(-169.240000000908,-39.9999999976866,24.0000000000011));
#1140=CARTESIAN_POINT('',(-169.240000000908,-39.9999999976866,24.0000000000011));
#1141=CARTESIAN_POINT('',(-169.240000000012,143.000000000027,24.0000000000011));
#1142=CARTESIAN_POINT('Origin',(162.846194078723,-48.6438059222816,24.0000000000011));
#1143=CARTESIAN_POINT('',(-162.500000002362,-46.7399999649134,24.0000000000011));
#1144=CARTESIAN_POINT('Origin',(-162.499999991096,-39.9999999551014,24.0000000000011));
#1145=CARTESIAN_POINT('',(-10.3299999999901,-46.7399999977413,24.0000000000011));
#1146=CARTESIAN_POINT('',(-162.500000002362,-46.7399999649131,24.0000000000011));
#1147=CARTESIAN_POINT('',(-10.3299999996924,-45.3599999977413,24.0000000000011));
#1148=CARTESIAN_POINT('',(-10.3299999999901,-46.7399999977413,24.0000000000011));
#1149=CARTESIAN_POINT('',(-162.50000000106,-45.3599999649134,24.0000000000011));
#1150=CARTESIAN_POINT('',(-162.500000002064,-45.3599999649131,24.0000000000011));
#1151=CARTESIAN_POINT('',(-167.860000000908,-39.9999999933304,24.0000000000011));
#1152=CARTESIAN_POINT('Origin',(-162.499999991096,-39.9999999551014,24.0000000000011));
#1153=CARTESIAN_POINT('',(-167.860000000012,143.00000000002,24.0000000000011));
#1154=CARTESIAN_POINT('Origin',(-162.499999991096,-39.9999999551014,24.0000000000011));
#1155=CARTESIAN_POINT('',(-162.500000002362,-46.7399999649134,24.0000000000011));
#1156=CARTESIAN_POINT('Origin',(-10.3299999999901,-46.7399999977413,24.0000000000011));
#1157=CARTESIAN_POINT('',(-10.3299999999901,-46.7399999977413,24.0000000000011));
#1158=CARTESIAN_POINT('Origin',(-167.860000000908,-39.9999999976934,24.0000000000011));
#1159=CARTESIAN_POINT('',(-167.860000000908,-39.9999999976934,24.0000000000011));
#1160=CARTESIAN_POINT('Origin',(-162.499999991096,-39.9999999551014,24.0000000000011));
#1161=CARTESIAN_POINT('',(-162.500000002064,-45.3599999649134,24.0000000000011));
#1162=CARTESIAN_POINT('Origin',(-10.3299999996924,-45.3599999977413,24.0000000000011));
#1163=CARTESIAN_POINT('',(-10.3299999996924,-45.3599999977413,24.0000000000011));
#1164=CARTESIAN_POINT('Origin',(-10.3299999999901,-46.7399999977413,21.0000000000011));
#1165=CARTESIAN_POINT('',(3.19744231092045E-13,44.9999999999988,-16.));
#1166=CARTESIAN_POINT('',(5.86197757002083E-13,45.0000000000039,16.000000000001));
#1167=UNCERTAINTY_MEASURE_WITH_UNIT(LENGTH_MEASURE(0.01),#1173,
'DISTANCE_ACCURACY_VALUE',
'Maximum model space distance between geometric entities at asserted c
onnectivities');
#1168=UNCERTAINTY_MEASURE_WITH_UNIT(LENGTH_MEASURE(0.01),#1173,
'DISTANCE_ACCURACY_VALUE',
'Maximum model space distance between geometric entities at asserted c
onnectivities');
#1169=UNCERTAINTY_MEASURE_WITH_UNIT(LENGTH_MEASURE(0.01),#1173,
'DISTANCE_ACCURACY_VALUE',
'Maximum model space distance between geometric entities at asserted c
onnectivities');
#1170=(
GEOMETRIC_REPRESENTATION_CONTEXT(3)
GLOBAL_UNCERTAINTY_ASSIGNED_CONTEXT((#1167))
GLOBAL_UNIT_ASSIGNED_CONTEXT((#1173,#1175,#1176))
REPRESENTATION_CONTEXT('','3D')
);
#1171=(
GEOMETRIC_REPRESENTATION_CONTEXT(3)
GLOBAL_UNCERTAINTY_ASSIGNED_CONTEXT((#1168))
GLOBAL_UNIT_ASSIGNED_CONTEXT((#1173,#1175,#1176))
REPRESENTATION_CONTEXT('','3D')
);
#1172=(
GEOMETRIC_REPRESENTATION_CONTEXT(3)
GLOBAL_UNCERTAINTY_ASSIGNED_CONTEXT((#1169))
GLOBAL_UNIT_ASSIGNED_CONTEXT((#1173,#1175,#1176))
REPRESENTATION_CONTEXT('','3D')
);
#1173=(
LENGTH_UNIT()
NAMED_UNIT(*)
SI_UNIT(.MILLI.,.METRE.)
);
#1174=(
LENGTH_UNIT()
NAMED_UNIT(*)
SI_UNIT($,.METRE.)
);
#1175=(
NAMED_UNIT(*)
PLANE_ANGLE_UNIT()
SI_UNIT($,.RADIAN.)
);
#1176=(
NAMED_UNIT(*)
SI_UNIT($,.STERADIAN.)
SOLID_ANGLE_UNIT()
);
#1177=SHAPE_DEFINITION_REPRESENTATION(#1179,#1183);
#1178=SHAPE_DEFINITION_REPRESENTATION(#1180,#1184);
#1179=PRODUCT_DEFINITION_SHAPE('',$,#1186);
#1180=PRODUCT_DEFINITION_SHAPE('',$,#1187);
#1181=PRODUCT_DEFINITION_SHAPE($,$,#17);
#1182=PRODUCT_DEFINITION_SHAPE($,$,#18);
#1183=SHAPE_REPRESENTATION('',(#703,#767,#768),#1170);
#1184=SHAPE_REPRESENTATION('',(#704),#1171);
#1185=PRODUCT_DEFINITION_CONTEXT('part definition',#1193,'design');
#1186=PRODUCT_DEFINITION('_10_VT_6mm_AWD_belts_NP_NP',
'_10_VT_6mm_AWD_belts_NP_NP',#1188,#1185);
#1187=PRODUCT_DEFINITION('_VT_6mm_AWD_belt_NP_NP',
'_VT_6mm_AWD_belt_NP_NP',#1189,#1185);
#1188=PRODUCT_DEFINITION_FORMATION('',$,#1195);
#1189=PRODUCT_DEFINITION_FORMATION('',$,#1196);
#1190=PRODUCT_RELATED_PRODUCT_CATEGORY('_10_VT_6mm_AWD_belts_NP_NP',
'_10_VT_6mm_AWD_belts_NP_NP',(#1195));
#1191=PRODUCT_RELATED_PRODUCT_CATEGORY('_VT_6mm_AWD_belt_NP_NP',
'_VT_6mm_AWD_belt_NP_NP',(#1196));
#1192=APPLICATION_PROTOCOL_DEFINITION('international standard',
'automotive_design',2009,#1193);
#1193=APPLICATION_CONTEXT(
'Core Data for Automotive Mechanical Design Process');
#1194=PRODUCT_CONTEXT('part definition',#1193,'mechanical');
#1195=PRODUCT('_10_VT_6mm_AWD_belts_NP_NP','_10_VT_6mm_AWD_belts_NP_NP',
$,(#1194));
#1196=PRODUCT('_VT_6mm_AWD_belt_NP_NP','_VT_6mm_AWD_belt_NP_NP',$,(#1194));
#1197=PRESENTATION_STYLE_ASSIGNMENT((#1200));
#1198=PRESENTATION_STYLE_ASSIGNMENT((#1201));
#1199=PRESENTATION_STYLE_ASSIGNMENT((#1202));
#1200=SURFACE_STYLE_USAGE(.BOTH.,#1203);
#1201=SURFACE_STYLE_USAGE(.BOTH.,#1204);
#1202=SURFACE_STYLE_USAGE(.BOTH.,#1205);
#1203=SURFACE_SIDE_STYLE('',(#1206));
#1204=SURFACE_SIDE_STYLE('',(#1207));
#1205=SURFACE_SIDE_STYLE('',(#1208));
#1206=SURFACE_STYLE_FILL_AREA(#1209);
#1207=SURFACE_STYLE_FILL_AREA(#1210);
#1208=SURFACE_STYLE_FILL_AREA(#1211);
#1209=FILL_AREA_STYLE('Steel - Satin',(#1212));
#1210=FILL_AREA_STYLE('Rubber - Soft',(#1213));
#1211=FILL_AREA_STYLE('Gates Belt Face',(#1214));
#1212=FILL_AREA_STYLE_COLOUR('Steel - Satin',#1215);
#1213=FILL_AREA_STYLE_COLOUR('Rubber - Soft',#1216);
#1214=FILL_AREA_STYLE_COLOUR('Gates Belt Face',#1217);
#1215=COLOUR_RGB('Steel - Satin',0.627450980392157,0.627450980392157,0.627450980392157);
#1216=COLOUR_RGB('Rubber - Soft',0.152941176470588,0.152941176470588,0.152941176470588);
#1217=COLOUR_RGB('Gates Belt Face',0.482352941176471,0.309803921568627,
0.27843137254902);
ENDSEC;
END-ISO-10303-21;
