ISO-10303-21;
HEADER;
/* Generated by software containing ST-Developer
 * from STEP Tools, Inc. (www.steptools.com) 
 */

FILE_DESCRIPTION(
/* description */ (''),
/* implementation_level */ '2;1');

FILE_NAME(
/* name */ '_12_V2_9mm_2WD_belts_FT_NP.step',
/* time_stamp */ '2026-02-16T13:24:53+01:00',
/* author */ (''),
/* organization */ (''),
/* preprocessor_version */ 'ST-DEVELOPER v20.1',
/* originating_system */ 'Autodesk Translation Framework v14.24.0.0',
/* authorisation */ '');

FILE_SCHEMA (('AUTOMOTIVE_DESIGN { 1 0 10303 214 3 1 1 }'));
ENDSEC;

DATA;
#10=MECHANICAL_DESIGN_GEOMETRIC_PRESENTATION_REPRESENTATION('',(#22,#23,
#24,#25,#26,#27,#28,#29,#30,#31,#32,#33,#34,#35,#36,#37),#1172);
#11=ITEM_DEFINED_TRANSFORMATION($,$,#704,#767);
#12=ITEM_DEFINED_TRANSFORMATION($,$,#704,#768);
#13=(
REPRESENTATION_RELATIONSHIP($,$,#1184,#1183)
REPRESENTATION_RELATIONSHIP_WITH_TRANSFORMATION(#11)
SHAPE_REPRESENTATION_RELATIONSHIP()
);
#14=(
REPRESENTATION_RELATIONSHIP($,$,#1184,#1183)
REPRESENTATION_RELATIONSHIP_WITH_TRANSFORMATION(#12)
SHAPE_REPRESENTATION_RELATIONSHIP()
);
#15=CONTEXT_DEPENDENT_SHAPE_REPRESENTATION(#13,#1181);
#16=CONTEXT_DEPENDENT_SHAPE_REPRESENTATION(#14,#1182);
#17=NEXT_ASSEMBLY_USAGE_OCCURRENCE('_V2_9mm_2WD_belt_FT_NP:1',
'_V2_9mm_2WD_belt_FT_NP:1','_V2_9mm_2WD_belt_FT_NP:1',#1186,#1187,
'_V2_9mm_2WD_belt_FT_NP:1');
#18=NEXT_ASSEMBLY_USAGE_OCCURRENCE('_V2_9mm_2WD_belt_FT_NP:2',
'_V2_9mm_2WD_belt_FT_NP:2','_V2_9mm_2WD_belt_FT_NP:2',#1186,#1187,
'_V2_9mm_2WD_belt_FT_NP:2');
#19=SHAPE_REPRESENTATION_RELATIONSHIP('SRR','None',#1184,#20);
#20=ADVANCED_BREP_SHAPE_REPRESENTATION('',(#21),#1171);
#21=MANIFOLD_SOLID_BREP('Body1',#690);
#22=STYLED_ITEM('',(#1199),#659);
#23=STYLED_ITEM('',(#1199),#660);
#24=STYLED_ITEM('',(#1199),#661);
#25=STYLED_ITEM('',(#1199),#662);
#26=STYLED_ITEM('',(#1199),#665);
#27=STYLED_ITEM('',(#1199),#666);
#28=STYLED_ITEM('',(#1199),#679);
#29=STYLED_ITEM('',(#1199),#680);
#30=STYLED_ITEM('',(#1199),#681);
#31=STYLED_ITEM('',(#1199),#682);
#32=STYLED_ITEM('',(#1199),#683);
#33=STYLED_ITEM('',(#1199),#684);
#34=STYLED_ITEM('',(#1199),#685);
#35=STYLED_ITEM('',(#1199),#686);
#36=STYLED_ITEM('',(#1199),#687);
#37=STYLED_ITEM('',(#1198),#21);
#38=PLANE('',#708);
#39=PLANE('',#709);
#40=PLANE('',#725);
#41=PLANE('',#728);
#42=PLANE('',#731);
#43=PLANE('',#732);
#44=PLANE('',#733);
#45=PLANE('',#734);
#46=PLANE('',#735);
#47=PLANE('',#736);
#48=PLANE('',#748);
#49=PLANE('',#751);
#50=PLANE('',#753);
#51=PLANE('',#755);
#52=PLANE('',#757);
#53=PLANE('',#760);
#54=PLANE('',#762);
#55=PLANE('',#764);
#56=PLANE('',#765);
#57=PLANE('',#766);
#58=FACE_OUTER_BOUND('',#92,.T.);
#59=FACE_OUTER_BOUND('',#93,.T.);
#60=FACE_OUTER_BOUND('',#94,.T.);
#61=FACE_OUTER_BOUND('',#95,.T.);
#62=FACE_OUTER_BOUND('',#96,.T.);
#63=FACE_OUTER_BOUND('',#97,.T.);
#64=FACE_OUTER_BOUND('',#98,.T.);
#65=FACE_OUTER_BOUND('',#99,.T.);
#66=FACE_OUTER_BOUND('',#100,.T.);
#67=FACE_OUTER_BOUND('',#101,.T.);
#68=FACE_OUTER_BOUND('',#102,.T.);
#69=FACE_OUTER_BOUND('',#103,.T.);
#70=FACE_OUTER_BOUND('',#104,.T.);
#71=FACE_OUTER_BOUND('',#105,.T.);
#72=FACE_OUTER_BOUND('',#106,.T.);
#73=FACE_OUTER_BOUND('',#107,.T.);
#74=FACE_OUTER_BOUND('',#108,.T.);
#75=FACE_OUTER_BOUND('',#109,.T.);
#76=FACE_OUTER_BOUND('',#110,.T.);
#77=FACE_OUTER_BOUND('',#111,.T.);
#78=FACE_OUTER_BOUND('',#112,.T.);
#79=FACE_OUTER_BOUND('',#113,.T.);
#80=FACE_OUTER_BOUND('',#114,.T.);
#81=FACE_OUTER_BOUND('',#115,.T.);
#82=FACE_OUTER_BOUND('',#116,.T.);
#83=FACE_OUTER_BOUND('',#117,.T.);
#84=FACE_OUTER_BOUND('',#118,.T.);
#85=FACE_OUTER_BOUND('',#119,.T.);
#86=FACE_OUTER_BOUND('',#120,.T.);
#87=FACE_OUTER_BOUND('',#121,.T.);
#88=FACE_OUTER_BOUND('',#122,.T.);
#89=FACE_OUTER_BOUND('',#123,.T.);
#90=FACE_OUTER_BOUND('',#124,.T.);
#91=FACE_OUTER_BOUND('',#125,.T.);
#92=EDGE_LOOP('',(#450,#451,#452,#453));
#93=EDGE_LOOP('',(#454,#455,#456,#457));
#94=EDGE_LOOP('',(#458,#459,#460,#461,#462,#463,#464,#465,#466,#467,#468,
#469,#470,#471,#472,#473,#474,#475,#476,#477,#478,#479,#480,#481,#482,#483,
#484,#485,#486,#487,#488,#489));
#95=EDGE_LOOP('',(#490,#491,#492,#493));
#96=EDGE_LOOP('',(#494,#495,#496,#497));
#97=EDGE_LOOP('',(#498,#499,#500,#501));
#98=EDGE_LOOP('',(#502,#503,#504,#505));
#99=EDGE_LOOP('',(#506,#507,#508,#509));
#100=EDGE_LOOP('',(#510,#511,#512,#513));
#101=EDGE_LOOP('',(#514,#515,#516,#517));
#102=EDGE_LOOP('',(#518,#519,#520,#521));
#103=EDGE_LOOP('',(#522,#523,#524,#525));
#104=EDGE_LOOP('',(#526,#527,#528,#529));
#105=EDGE_LOOP('',(#530,#531,#532,#533,#534,#535,#536,#537,#538,#539,#540,
#541,#542,#543,#544,#545,#546,#547,#548,#549,#550,#551,#552,#553,#554,#555,
#556,#557,#558,#559,#560,#561));
#106=EDGE_LOOP('',(#562,#563,#564,#565));
#107=EDGE_LOOP('',(#566,#567,#568,#569));
#108=EDGE_LOOP('',(#570,#571,#572,#573));
#109=EDGE_LOOP('',(#574,#575,#576,#577));
#110=EDGE_LOOP('',(#578,#579,#580,#581));
#111=EDGE_LOOP('',(#582,#583,#584,#585));
#112=EDGE_LOOP('',(#586,#587,#588,#589));
#113=EDGE_LOOP('',(#590,#591,#592,#593));
#114=EDGE_LOOP('',(#594,#595,#596,#597));
#115=EDGE_LOOP('',(#598,#599,#600,#601));
#116=EDGE_LOOP('',(#602,#603,#604,#605));
#117=EDGE_LOOP('',(#606,#607,#608,#609));
#118=EDGE_LOOP('',(#610,#611,#612,#613));
#119=EDGE_LOOP('',(#614,#615,#616,#617));
#120=EDGE_LOOP('',(#618,#619,#620,#621));
#121=EDGE_LOOP('',(#622,#623,#624,#625));
#122=EDGE_LOOP('',(#626,#627,#628,#629));
#123=EDGE_LOOP('',(#630,#631,#632,#633));
#124=EDGE_LOOP('',(#634,#635,#636,#637));
#125=EDGE_LOOP('',(#638,#639,#640,#641));
#126=LINE('',#976,#194);
#127=LINE('',#979,#195);
#128=LINE('',#982,#196);
#129=LINE('',#984,#197);
#130=LINE('',#985,#198);
#131=LINE('',#988,#199);
#132=LINE('',#992,#200);
#133=LINE('',#996,#201);
#134=LINE('',#1000,#202);
#135=LINE('',#1004,#203);
#136=LINE('',#1008,#204);
#137=LINE('',#1012,#205);
#138=LINE('',#1014,#206);
#139=LINE('',#1016,#207);
#140=LINE('',#1020,#208);
#141=LINE('',#1024,#209);
#142=LINE('',#1028,#210);
#143=LINE('',#1032,#211);
#144=LINE('',#1036,#212);
#145=LINE('',#1040,#213);
#146=LINE('',#1044,#214);
#147=LINE('',#1045,#215);
#148=LINE('',#1050,#216);
#149=LINE('',#1051,#217);
#150=LINE('',#1054,#218);
#151=LINE('',#1055,#219);
#152=LINE('',#1060,#220);
#153=LINE('',#1061,#221);
#154=LINE('',#1064,#222);
#155=LINE('',#1065,#223);
#156=LINE('',#1070,#224);
#157=LINE('',#1071,#225);
#158=LINE('',#1074,#226);
#159=LINE('',#1075,#227);
#160=LINE('',#1078,#228);
#161=LINE('',#1079,#229);
#162=LINE('',#1082,#230);
#163=LINE('',#1083,#231);
#164=LINE('',#1086,#232);
#165=LINE('',#1087,#233);
#166=LINE('',#1090,#234);
#167=LINE('',#1091,#235);
#168=LINE('',#1093,#236);
#169=LINE('',#1097,#237);
#170=LINE('',#1101,#238);
#171=LINE('',#1106,#239);
#172=LINE('',#1110,#240);
#173=LINE('',#1112,#241);
#174=LINE('',#1114,#242);
#175=LINE('',#1118,#243);
#176=LINE('',#1123,#244);
#177=LINE('',#1127,#245);
#178=LINE('',#1130,#246);
#179=LINE('',#1131,#247);
#180=LINE('',#1133,#248);
#181=LINE('',#1136,#249);
#182=LINE('',#1138,#250);
#183=LINE('',#1140,#251);
#184=LINE('',#1142,#252);
#185=LINE('',#1145,#253);
#186=LINE('',#1147,#254);
#187=LINE('',#1148,#255);
#188=LINE('',#1150,#256);
#189=LINE('',#1153,#257);
#190=LINE('',#1155,#258);
#191=LINE('',#1157,#259);
#192=LINE('',#1159,#260);
#193=LINE('',#1162,#261);
#194=VECTOR('',#777,10.);
#195=VECTOR('',#780,10.);
#196=VECTOR('',#783,10.);
#197=VECTOR('',#784,10.);
#198=VECTOR('',#785,10.);
#199=VECTOR('',#788,10.);
#200=VECTOR('',#791,10.);
#201=VECTOR('',#794,10.);
#202=VECTOR('',#797,10.);
#203=VECTOR('',#800,10.);
#204=VECTOR('',#803,10.);
#205=VECTOR('',#806,10.);
#206=VECTOR('',#807,10.);
#207=VECTOR('',#808,10.);
#208=VECTOR('',#811,10.);
#209=VECTOR('',#814,10.);
#210=VECTOR('',#817,10.);
#211=VECTOR('',#820,10.);
#212=VECTOR('',#823,10.);
#213=VECTOR('',#826,10.);
#214=VECTOR('',#829,10.);
#215=VECTOR('',#830,10.);
#216=VECTOR('',#835,10.);
#217=VECTOR('',#836,10.);
#218=VECTOR('',#839,10.);
#219=VECTOR('',#840,10.);
#220=VECTOR('',#845,10.);
#221=VECTOR('',#846,10.);
#222=VECTOR('',#849,10.);
#223=VECTOR('',#850,10.);
#224=VECTOR('',#855,10.);
#225=VECTOR('',#856,10.);
#226=VECTOR('',#859,10.);
#227=VECTOR('',#860,10.);
#228=VECTOR('',#863,10.);
#229=VECTOR('',#864,10.);
#230=VECTOR('',#867,10.);
#231=VECTOR('',#868,10.);
#232=VECTOR('',#871,10.);
#233=VECTOR('',#872,10.);
#234=VECTOR('',#875,10.);
#235=VECTOR('',#876,10.);
#236=VECTOR('',#879,10.);
#237=VECTOR('',#882,10.);
#238=VECTOR('',#885,10.);
#239=VECTOR('',#890,10.);
#240=VECTOR('',#893,10.);
#241=VECTOR('',#894,10.);
#242=VECTOR('',#895,10.);
#243=VECTOR('',#898,10.);
#244=VECTOR('',#903,10.);
#245=VECTOR('',#906,10.);
#246=VECTOR('',#911,10.);
#247=VECTOR('',#912,10.);
#248=VECTOR('',#915,10.);
#249=VECTOR('',#920,10.);
#250=VECTOR('',#923,10.);
#251=VECTOR('',#926,10.);
#252=VECTOR('',#929,10.);
#253=VECTOR('',#934,10.);
#254=VECTOR('',#937,10.);
#255=VECTOR('',#938,10.);
#256=VECTOR('',#941,10.);
#257=VECTOR('',#946,10.);
#258=VECTOR('',#949,10.);
#259=VECTOR('',#952,10.);
#260=VECTOR('',#955,10.);
#261=VECTOR('',#960,10.);
#262=CIRCLE('',#706,6.73999999999996);
#263=CIRCLE('',#707,6.73999999999996);
#264=CIRCLE('',#710,6.74000000000003);
#265=CIRCLE('',#711,6.49999999999999);
#266=CIRCLE('',#712,6.74000000000003);
#267=CIRCLE('',#713,6.49999999999999);
#268=CIRCLE('',#714,6.74000000002557);
#269=CIRCLE('',#715,6.49999999999747);
#270=CIRCLE('',#716,7.87999999999747);
#271=CIRCLE('',#717,5.36000000002557);
#272=CIRCLE('',#718,7.87999999999999);
#273=CIRCLE('',#719,5.36000000000003);
#274=CIRCLE('',#720,7.87999999999999);
#275=CIRCLE('',#721,5.36000000000003);
#276=CIRCLE('',#722,5.35999999999996);
#277=CIRCLE('',#724,7.87999999999999);
#278=CIRCLE('',#727,5.35999999999996);
#279=CIRCLE('',#730,6.49999999999999);
#280=CIRCLE('',#737,5.36000000000003);
#281=CIRCLE('',#738,7.87999999999999);
#282=CIRCLE('',#739,5.36000000000003);
#283=CIRCLE('',#740,5.36000000002557);
#284=CIRCLE('',#741,7.87999999999747);
#285=CIRCLE('',#742,6.49999999999747);
#286=CIRCLE('',#743,6.74000000002557);
#287=CIRCLE('',#744,6.74000000000003);
#288=CIRCLE('',#745,6.49999999999999);
#289=CIRCLE('',#746,6.74000000000003);
#290=VERTEX_POINT('',#972);
#291=VERTEX_POINT('',#973);
#292=VERTEX_POINT('',#975);
#293=VERTEX_POINT('',#977);
#294=VERTEX_POINT('',#981);
#295=VERTEX_POINT('',#983);
#296=VERTEX_POINT('',#987);
#297=VERTEX_POINT('',#989);
#298=VERTEX_POINT('',#991);
#299=VERTEX_POINT('',#993);
#300=VERTEX_POINT('',#995);
#301=VERTEX_POINT('',#997);
#302=VERTEX_POINT('',#999);
#303=VERTEX_POINT('',#1001);
#304=VERTEX_POINT('',#1003);
#305=VERTEX_POINT('',#1005);
#306=VERTEX_POINT('',#1007);
#307=VERTEX_POINT('',#1009);
#308=VERTEX_POINT('',#1011);
#309=VERTEX_POINT('',#1013);
#310=VERTEX_POINT('',#1015);
#311=VERTEX_POINT('',#1017);
#312=VERTEX_POINT('',#1019);
#313=VERTEX_POINT('',#1021);
#314=VERTEX_POINT('',#1023);
#315=VERTEX_POINT('',#1025);
#316=VERTEX_POINT('',#1027);
#317=VERTEX_POINT('',#1029);
#318=VERTEX_POINT('',#1031);
#319=VERTEX_POINT('',#1033);
#320=VERTEX_POINT('',#1035);
#321=VERTEX_POINT('',#1037);
#322=VERTEX_POINT('',#1039);
#323=VERTEX_POINT('',#1041);
#324=VERTEX_POINT('',#1043);
#325=VERTEX_POINT('',#1047);
#326=VERTEX_POINT('',#1048);
#327=VERTEX_POINT('',#1053);
#328=VERTEX_POINT('',#1057);
#329=VERTEX_POINT('',#1058);
#330=VERTEX_POINT('',#1063);
#331=VERTEX_POINT('',#1067);
#332=VERTEX_POINT('',#1068);
#333=VERTEX_POINT('',#1073);
#334=VERTEX_POINT('',#1077);
#335=VERTEX_POINT('',#1081);
#336=VERTEX_POINT('',#1085);
#337=VERTEX_POINT('',#1089);
#338=VERTEX_POINT('',#1094);
#339=VERTEX_POINT('',#1096);
#340=VERTEX_POINT('',#1098);
#341=VERTEX_POINT('',#1100);
#342=VERTEX_POINT('',#1103);
#343=VERTEX_POINT('',#1105);
#344=VERTEX_POINT('',#1107);
#345=VERTEX_POINT('',#1109);
#346=VERTEX_POINT('',#1111);
#347=VERTEX_POINT('',#1113);
#348=VERTEX_POINT('',#1115);
#349=VERTEX_POINT('',#1117);
#350=VERTEX_POINT('',#1120);
#351=VERTEX_POINT('',#1122);
#352=VERTEX_POINT('',#1124);
#353=VERTEX_POINT('',#1126);
#354=EDGE_CURVE('',#290,#291,#262,.T.);
#355=EDGE_CURVE('',#291,#292,#126,.T.);
#356=EDGE_CURVE('',#292,#293,#263,.T.);
#357=EDGE_CURVE('',#293,#290,#127,.T.);
#358=EDGE_CURVE('',#294,#293,#128,.T.);
#359=EDGE_CURVE('',#295,#294,#129,.T.);
#360=EDGE_CURVE('',#290,#295,#130,.T.);
#361=EDGE_CURVE('',#292,#296,#131,.T.);
#362=EDGE_CURVE('',#296,#297,#264,.T.);
#363=EDGE_CURVE('',#297,#298,#132,.T.);
#364=EDGE_CURVE('',#298,#299,#265,.T.);
#365=EDGE_CURVE('',#299,#300,#133,.T.);
#366=EDGE_CURVE('',#300,#301,#266,.T.);
#367=EDGE_CURVE('',#301,#302,#134,.T.);
#368=EDGE_CURVE('',#303,#302,#267,.T.);
#369=EDGE_CURVE('',#303,#304,#135,.T.);
#370=EDGE_CURVE('',#304,#305,#268,.T.);
#371=EDGE_CURVE('',#305,#306,#136,.T.);
#372=EDGE_CURVE('',#306,#307,#269,.T.);
#373=EDGE_CURVE('',#307,#308,#137,.T.);
#374=EDGE_CURVE('',#309,#308,#138,.T.);
#375=EDGE_CURVE('',#310,#309,#139,.T.);
#376=EDGE_CURVE('',#311,#310,#270,.T.);
#377=EDGE_CURVE('',#312,#311,#140,.T.);
#378=EDGE_CURVE('',#313,#312,#271,.T.);
#379=EDGE_CURVE('',#314,#313,#141,.T.);
#380=EDGE_CURVE('',#315,#314,#272,.T.);
#381=EDGE_CURVE('',#316,#315,#142,.T.);
#382=EDGE_CURVE('',#317,#316,#273,.T.);
#383=EDGE_CURVE('',#318,#317,#143,.T.);
#384=EDGE_CURVE('',#319,#318,#274,.T.);
#385=EDGE_CURVE('',#320,#319,#144,.T.);
#386=EDGE_CURVE('',#321,#320,#275,.T.);
#387=EDGE_CURVE('',#322,#321,#145,.T.);
#388=EDGE_CURVE('',#323,#322,#276,.T.);
#389=EDGE_CURVE('',#324,#323,#146,.T.);
#390=EDGE_CURVE('',#324,#294,#147,.T.);
#391=EDGE_CURVE('',#325,#326,#277,.T.);
#392=EDGE_CURVE('',#326,#315,#148,.T.);
#393=EDGE_CURVE('',#314,#325,#149,.T.);
#394=EDGE_CURVE('',#326,#327,#150,.T.);
#395=EDGE_CURVE('',#327,#316,#151,.T.);
#396=EDGE_CURVE('',#328,#329,#278,.T.);
#397=EDGE_CURVE('',#329,#323,#152,.T.);
#398=EDGE_CURVE('',#322,#328,#153,.T.);
#399=EDGE_CURVE('',#329,#330,#154,.T.);
#400=EDGE_CURVE('',#330,#324,#155,.T.);
#401=EDGE_CURVE('',#331,#332,#279,.T.);
#402=EDGE_CURVE('',#332,#303,#156,.T.);
#403=EDGE_CURVE('',#302,#331,#157,.T.);
#404=EDGE_CURVE('',#333,#332,#158,.T.);
#405=EDGE_CURVE('',#333,#304,#159,.T.);
#406=EDGE_CURVE('',#334,#313,#160,.T.);
#407=EDGE_CURVE('',#334,#325,#161,.T.);
#408=EDGE_CURVE('',#335,#321,#162,.T.);
#409=EDGE_CURVE('',#335,#328,#163,.T.);
#410=EDGE_CURVE('',#336,#291,#164,.T.);
#411=EDGE_CURVE('',#336,#296,#165,.T.);
#412=EDGE_CURVE('',#337,#301,#166,.T.);
#413=EDGE_CURVE('',#331,#337,#167,.T.);
#414=EDGE_CURVE('',#330,#295,#168,.T.);
#415=EDGE_CURVE('',#338,#335,#280,.T.);
#416=EDGE_CURVE('',#339,#338,#169,.T.);
#417=EDGE_CURVE('',#339,#340,#281,.T.);
#418=EDGE_CURVE('',#341,#340,#170,.T.);
#419=EDGE_CURVE('',#327,#341,#282,.T.);
#420=EDGE_CURVE('',#342,#334,#283,.T.);
#421=EDGE_CURVE('',#343,#342,#171,.T.);
#422=EDGE_CURVE('',#343,#344,#284,.T.);
#423=EDGE_CURVE('',#345,#344,#172,.T.);
#424=EDGE_CURVE('',#345,#346,#173,.T.);
#425=EDGE_CURVE('',#346,#347,#174,.T.);
#426=EDGE_CURVE('',#348,#347,#285,.T.);
#427=EDGE_CURVE('',#348,#349,#175,.T.);
#428=EDGE_CURVE('',#349,#333,#286,.T.);
#429=EDGE_CURVE('',#337,#350,#287,.T.);
#430=EDGE_CURVE('',#350,#351,#176,.T.);
#431=EDGE_CURVE('',#352,#351,#288,.T.);
#432=EDGE_CURVE('',#352,#353,#177,.T.);
#433=EDGE_CURVE('',#353,#336,#289,.T.);
#434=EDGE_CURVE('',#347,#307,#178,.T.);
#435=EDGE_CURVE('',#348,#306,#179,.T.);
#436=EDGE_CURVE('',#349,#305,#180,.T.);
#437=EDGE_CURVE('',#350,#300,#181,.T.);
#438=EDGE_CURVE('',#351,#299,#182,.T.);
#439=EDGE_CURVE('',#352,#298,#183,.T.);
#440=EDGE_CURVE('',#353,#297,#184,.T.);
#441=EDGE_CURVE('',#346,#308,#185,.T.);
#442=EDGE_CURVE('',#343,#311,#186,.T.);
#443=EDGE_CURVE('',#344,#310,#187,.T.);
#444=EDGE_CURVE('',#342,#312,#188,.T.);
#445=EDGE_CURVE('',#341,#317,#189,.T.);
#446=EDGE_CURVE('',#340,#318,#190,.T.);
#447=EDGE_CURVE('',#339,#319,#191,.T.);
#448=EDGE_CURVE('',#338,#320,#192,.T.);
#449=EDGE_CURVE('',#345,#309,#193,.T.);
#450=ORIENTED_EDGE('',*,*,#354,.T.);
#451=ORIENTED_EDGE('',*,*,#355,.T.);
#452=ORIENTED_EDGE('',*,*,#356,.T.);
#453=ORIENTED_EDGE('',*,*,#357,.T.);
#454=ORIENTED_EDGE('',*,*,#357,.F.);
#455=ORIENTED_EDGE('',*,*,#358,.F.);
#456=ORIENTED_EDGE('',*,*,#359,.F.);
#457=ORIENTED_EDGE('',*,*,#360,.F.);
#458=ORIENTED_EDGE('',*,*,#356,.F.);
#459=ORIENTED_EDGE('',*,*,#361,.T.);
#460=ORIENTED_EDGE('',*,*,#362,.T.);
#461=ORIENTED_EDGE('',*,*,#363,.T.);
#462=ORIENTED_EDGE('',*,*,#364,.T.);
#463=ORIENTED_EDGE('',*,*,#365,.T.);
#464=ORIENTED_EDGE('',*,*,#366,.T.);
#465=ORIENTED_EDGE('',*,*,#367,.T.);
#466=ORIENTED_EDGE('',*,*,#368,.F.);
#467=ORIENTED_EDGE('',*,*,#369,.T.);
#468=ORIENTED_EDGE('',*,*,#370,.T.);
#469=ORIENTED_EDGE('',*,*,#371,.T.);
#470=ORIENTED_EDGE('',*,*,#372,.T.);
#471=ORIENTED_EDGE('',*,*,#373,.T.);
#472=ORIENTED_EDGE('',*,*,#374,.F.);
#473=ORIENTED_EDGE('',*,*,#375,.F.);
#474=ORIENTED_EDGE('',*,*,#376,.F.);
#475=ORIENTED_EDGE('',*,*,#377,.F.);
#476=ORIENTED_EDGE('',*,*,#378,.F.);
#477=ORIENTED_EDGE('',*,*,#379,.F.);
#478=ORIENTED_EDGE('',*,*,#380,.F.);
#479=ORIENTED_EDGE('',*,*,#381,.F.);
#480=ORIENTED_EDGE('',*,*,#382,.F.);
#481=ORIENTED_EDGE('',*,*,#383,.F.);
#482=ORIENTED_EDGE('',*,*,#384,.F.);
#483=ORIENTED_EDGE('',*,*,#385,.F.);
#484=ORIENTED_EDGE('',*,*,#386,.F.);
#485=ORIENTED_EDGE('',*,*,#387,.F.);
#486=ORIENTED_EDGE('',*,*,#388,.F.);
#487=ORIENTED_EDGE('',*,*,#389,.F.);
#488=ORIENTED_EDGE('',*,*,#390,.T.);
#489=ORIENTED_EDGE('',*,*,#358,.T.);
#490=ORIENTED_EDGE('',*,*,#391,.T.);
#491=ORIENTED_EDGE('',*,*,#392,.T.);
#492=ORIENTED_EDGE('',*,*,#380,.T.);
#493=ORIENTED_EDGE('',*,*,#393,.T.);
#494=ORIENTED_EDGE('',*,*,#392,.F.);
#495=ORIENTED_EDGE('',*,*,#394,.T.);
#496=ORIENTED_EDGE('',*,*,#395,.T.);
#497=ORIENTED_EDGE('',*,*,#381,.T.);
#498=ORIENTED_EDGE('',*,*,#396,.T.);
#499=ORIENTED_EDGE('',*,*,#397,.T.);
#500=ORIENTED_EDGE('',*,*,#388,.T.);
#501=ORIENTED_EDGE('',*,*,#398,.T.);
#502=ORIENTED_EDGE('',*,*,#397,.F.);
#503=ORIENTED_EDGE('',*,*,#399,.T.);
#504=ORIENTED_EDGE('',*,*,#400,.T.);
#505=ORIENTED_EDGE('',*,*,#389,.T.);
#506=ORIENTED_EDGE('',*,*,#401,.T.);
#507=ORIENTED_EDGE('',*,*,#402,.T.);
#508=ORIENTED_EDGE('',*,*,#368,.T.);
#509=ORIENTED_EDGE('',*,*,#403,.T.);
#510=ORIENTED_EDGE('',*,*,#402,.F.);
#511=ORIENTED_EDGE('',*,*,#404,.F.);
#512=ORIENTED_EDGE('',*,*,#405,.T.);
#513=ORIENTED_EDGE('',*,*,#369,.F.);
#514=ORIENTED_EDGE('',*,*,#393,.F.);
#515=ORIENTED_EDGE('',*,*,#379,.T.);
#516=ORIENTED_EDGE('',*,*,#406,.F.);
#517=ORIENTED_EDGE('',*,*,#407,.T.);
#518=ORIENTED_EDGE('',*,*,#398,.F.);
#519=ORIENTED_EDGE('',*,*,#387,.T.);
#520=ORIENTED_EDGE('',*,*,#408,.F.);
#521=ORIENTED_EDGE('',*,*,#409,.T.);
#522=ORIENTED_EDGE('',*,*,#355,.F.);
#523=ORIENTED_EDGE('',*,*,#410,.F.);
#524=ORIENTED_EDGE('',*,*,#411,.T.);
#525=ORIENTED_EDGE('',*,*,#361,.F.);
#526=ORIENTED_EDGE('',*,*,#403,.F.);
#527=ORIENTED_EDGE('',*,*,#367,.F.);
#528=ORIENTED_EDGE('',*,*,#412,.F.);
#529=ORIENTED_EDGE('',*,*,#413,.F.);
#530=ORIENTED_EDGE('',*,*,#354,.F.);
#531=ORIENTED_EDGE('',*,*,#360,.T.);
#532=ORIENTED_EDGE('',*,*,#414,.F.);
#533=ORIENTED_EDGE('',*,*,#399,.F.);
#534=ORIENTED_EDGE('',*,*,#396,.F.);
#535=ORIENTED_EDGE('',*,*,#409,.F.);
#536=ORIENTED_EDGE('',*,*,#415,.F.);
#537=ORIENTED_EDGE('',*,*,#416,.F.);
#538=ORIENTED_EDGE('',*,*,#417,.T.);
#539=ORIENTED_EDGE('',*,*,#418,.F.);
#540=ORIENTED_EDGE('',*,*,#419,.F.);
#541=ORIENTED_EDGE('',*,*,#394,.F.);
#542=ORIENTED_EDGE('',*,*,#391,.F.);
#543=ORIENTED_EDGE('',*,*,#407,.F.);
#544=ORIENTED_EDGE('',*,*,#420,.F.);
#545=ORIENTED_EDGE('',*,*,#421,.F.);
#546=ORIENTED_EDGE('',*,*,#422,.T.);
#547=ORIENTED_EDGE('',*,*,#423,.F.);
#548=ORIENTED_EDGE('',*,*,#424,.T.);
#549=ORIENTED_EDGE('',*,*,#425,.T.);
#550=ORIENTED_EDGE('',*,*,#426,.F.);
#551=ORIENTED_EDGE('',*,*,#427,.T.);
#552=ORIENTED_EDGE('',*,*,#428,.T.);
#553=ORIENTED_EDGE('',*,*,#404,.T.);
#554=ORIENTED_EDGE('',*,*,#401,.F.);
#555=ORIENTED_EDGE('',*,*,#413,.T.);
#556=ORIENTED_EDGE('',*,*,#429,.T.);
#557=ORIENTED_EDGE('',*,*,#430,.T.);
#558=ORIENTED_EDGE('',*,*,#431,.F.);
#559=ORIENTED_EDGE('',*,*,#432,.T.);
#560=ORIENTED_EDGE('',*,*,#433,.T.);
#561=ORIENTED_EDGE('',*,*,#410,.T.);
#562=ORIENTED_EDGE('',*,*,#426,.T.);
#563=ORIENTED_EDGE('',*,*,#434,.T.);
#564=ORIENTED_EDGE('',*,*,#372,.F.);
#565=ORIENTED_EDGE('',*,*,#435,.F.);
#566=ORIENTED_EDGE('',*,*,#427,.F.);
#567=ORIENTED_EDGE('',*,*,#435,.T.);
#568=ORIENTED_EDGE('',*,*,#371,.F.);
#569=ORIENTED_EDGE('',*,*,#436,.F.);
#570=ORIENTED_EDGE('',*,*,#428,.F.);
#571=ORIENTED_EDGE('',*,*,#436,.T.);
#572=ORIENTED_EDGE('',*,*,#370,.F.);
#573=ORIENTED_EDGE('',*,*,#405,.F.);
#574=ORIENTED_EDGE('',*,*,#429,.F.);
#575=ORIENTED_EDGE('',*,*,#412,.T.);
#576=ORIENTED_EDGE('',*,*,#366,.F.);
#577=ORIENTED_EDGE('',*,*,#437,.F.);
#578=ORIENTED_EDGE('',*,*,#430,.F.);
#579=ORIENTED_EDGE('',*,*,#437,.T.);
#580=ORIENTED_EDGE('',*,*,#365,.F.);
#581=ORIENTED_EDGE('',*,*,#438,.F.);
#582=ORIENTED_EDGE('',*,*,#431,.T.);
#583=ORIENTED_EDGE('',*,*,#438,.T.);
#584=ORIENTED_EDGE('',*,*,#364,.F.);
#585=ORIENTED_EDGE('',*,*,#439,.F.);
#586=ORIENTED_EDGE('',*,*,#432,.F.);
#587=ORIENTED_EDGE('',*,*,#439,.T.);
#588=ORIENTED_EDGE('',*,*,#363,.F.);
#589=ORIENTED_EDGE('',*,*,#440,.F.);
#590=ORIENTED_EDGE('',*,*,#433,.F.);
#591=ORIENTED_EDGE('',*,*,#440,.T.);
#592=ORIENTED_EDGE('',*,*,#362,.F.);
#593=ORIENTED_EDGE('',*,*,#411,.F.);
#594=ORIENTED_EDGE('',*,*,#425,.F.);
#595=ORIENTED_EDGE('',*,*,#441,.T.);
#596=ORIENTED_EDGE('',*,*,#373,.F.);
#597=ORIENTED_EDGE('',*,*,#434,.F.);
#598=ORIENTED_EDGE('',*,*,#422,.F.);
#599=ORIENTED_EDGE('',*,*,#442,.T.);
#600=ORIENTED_EDGE('',*,*,#376,.T.);
#601=ORIENTED_EDGE('',*,*,#443,.F.);
#602=ORIENTED_EDGE('',*,*,#421,.T.);
#603=ORIENTED_EDGE('',*,*,#444,.T.);
#604=ORIENTED_EDGE('',*,*,#377,.T.);
#605=ORIENTED_EDGE('',*,*,#442,.F.);
#606=ORIENTED_EDGE('',*,*,#420,.T.);
#607=ORIENTED_EDGE('',*,*,#406,.T.);
#608=ORIENTED_EDGE('',*,*,#378,.T.);
#609=ORIENTED_EDGE('',*,*,#444,.F.);
#610=ORIENTED_EDGE('',*,*,#419,.T.);
#611=ORIENTED_EDGE('',*,*,#445,.T.);
#612=ORIENTED_EDGE('',*,*,#382,.T.);
#613=ORIENTED_EDGE('',*,*,#395,.F.);
#614=ORIENTED_EDGE('',*,*,#418,.T.);
#615=ORIENTED_EDGE('',*,*,#446,.T.);
#616=ORIENTED_EDGE('',*,*,#383,.T.);
#617=ORIENTED_EDGE('',*,*,#445,.F.);
#618=ORIENTED_EDGE('',*,*,#417,.F.);
#619=ORIENTED_EDGE('',*,*,#447,.T.);
#620=ORIENTED_EDGE('',*,*,#384,.T.);
#621=ORIENTED_EDGE('',*,*,#446,.F.);
#622=ORIENTED_EDGE('',*,*,#416,.T.);
#623=ORIENTED_EDGE('',*,*,#448,.T.);
#624=ORIENTED_EDGE('',*,*,#385,.T.);
#625=ORIENTED_EDGE('',*,*,#447,.F.);
#626=ORIENTED_EDGE('',*,*,#415,.T.);
#627=ORIENTED_EDGE('',*,*,#408,.T.);
#628=ORIENTED_EDGE('',*,*,#386,.T.);
#629=ORIENTED_EDGE('',*,*,#448,.F.);
#630=ORIENTED_EDGE('',*,*,#423,.T.);
#631=ORIENTED_EDGE('',*,*,#443,.T.);
#632=ORIENTED_EDGE('',*,*,#375,.T.);
#633=ORIENTED_EDGE('',*,*,#449,.F.);
#634=ORIENTED_EDGE('',*,*,#400,.F.);
#635=ORIENTED_EDGE('',*,*,#414,.T.);
#636=ORIENTED_EDGE('',*,*,#359,.T.);
#637=ORIENTED_EDGE('',*,*,#390,.F.);
#638=ORIENTED_EDGE('',*,*,#449,.T.);
#639=ORIENTED_EDGE('',*,*,#374,.T.);
#640=ORIENTED_EDGE('',*,*,#441,.F.);
#641=ORIENTED_EDGE('',*,*,#424,.F.);
#642=CYLINDRICAL_SURFACE('',#705,6.73999999999996);
#643=CYLINDRICAL_SURFACE('',#723,7.87999999999999);
#644=CYLINDRICAL_SURFACE('',#726,5.35999999999996);
#645=CYLINDRICAL_SURFACE('',#729,6.49999999999999);
#646=CYLINDRICAL_SURFACE('',#747,6.49999999999747);
#647=CYLINDRICAL_SURFACE('',#749,6.74000000002558);
#648=CYLINDRICAL_SURFACE('',#750,6.74000000000003);
#649=CYLINDRICAL_SURFACE('',#752,6.49999999999999);
#650=CYLINDRICAL_SURFACE('',#754,6.74000000000003);
#651=CYLINDRICAL_SURFACE('',#756,7.87999999999747);
#652=CYLINDRICAL_SURFACE('',#758,5.36000000002557);
#653=CYLINDRICAL_SURFACE('',#759,5.36000000000003);
#654=CYLINDRICAL_SURFACE('',#761,7.87999999999999);
#655=CYLINDRICAL_SURFACE('',#763,5.36000000000003);
#656=ADVANCED_FACE('',(#58),#642,.T.);
#657=ADVANCED_FACE('',(#59),#38,.T.);
#658=ADVANCED_FACE('',(#60),#39,.F.);
#659=ADVANCED_FACE('',(#61),#643,.T.);
#660=ADVANCED_FACE('',(#62),#40,.F.);
#661=ADVANCED_FACE('',(#63),#644,.F.);
#662=ADVANCED_FACE('',(#64),#41,.F.);
#663=ADVANCED_FACE('',(#65),#645,.F.);
#664=ADVANCED_FACE('',(#66),#42,.T.);
#665=ADVANCED_FACE('',(#67),#43,.F.);
#666=ADVANCED_FACE('',(#68),#44,.F.);
#667=ADVANCED_FACE('',(#69),#45,.T.);
#668=ADVANCED_FACE('',(#70),#46,.T.);
#669=ADVANCED_FACE('',(#71),#47,.F.);
#670=ADVANCED_FACE('',(#72),#646,.F.);
#671=ADVANCED_FACE('',(#73),#48,.T.);
#672=ADVANCED_FACE('',(#74),#647,.T.);
#673=ADVANCED_FACE('',(#75),#648,.T.);
#674=ADVANCED_FACE('',(#76),#49,.T.);
#675=ADVANCED_FACE('',(#77),#649,.F.);
#676=ADVANCED_FACE('',(#78),#50,.T.);
#677=ADVANCED_FACE('',(#79),#650,.T.);
#678=ADVANCED_FACE('',(#80),#51,.T.);
#679=ADVANCED_FACE('',(#81),#651,.T.);
#680=ADVANCED_FACE('',(#82),#52,.F.);
#681=ADVANCED_FACE('',(#83),#652,.F.);
#682=ADVANCED_FACE('',(#84),#653,.F.);
#683=ADVANCED_FACE('',(#85),#53,.F.);
#684=ADVANCED_FACE('',(#86),#654,.T.);
#685=ADVANCED_FACE('',(#87),#54,.F.);
#686=ADVANCED_FACE('',(#88),#655,.F.);
#687=ADVANCED_FACE('',(#89),#55,.F.);
#688=ADVANCED_FACE('',(#90),#56,.F.);
#689=ADVANCED_FACE('',(#91),#57,.F.);
#690=CLOSED_SHELL('',(#656,#657,#658,#659,#660,#661,#662,#663,#664,#665,
#666,#667,#668,#669,#670,#671,#672,#673,#674,#675,#676,#677,#678,#679,#680,
#681,#682,#683,#684,#685,#686,#687,#688,#689));
#691=DERIVED_UNIT_ELEMENT(#693,1.);
#692=DERIVED_UNIT_ELEMENT(#1174,-3.);
#693=(
MASS_UNIT()
NAMED_UNIT(*)
SI_UNIT(.KILO.,.GRAM.)
);
#694=DERIVED_UNIT((#691,#692));
#695=MEASURE_REPRESENTATION_ITEM('density measure',
POSITIVE_RATIO_MEASURE(7850.),#694);
#696=PROPERTY_DEFINITION_REPRESENTATION(#701,#698);
#697=PROPERTY_DEFINITION_REPRESENTATION(#702,#699);
#698=REPRESENTATION('material name',(#700),#1171);
#699=REPRESENTATION('density',(#695),#1171);
#700=DESCRIPTIVE_REPRESENTATION_ITEM('Steel','Steel');
#701=PROPERTY_DEFINITION('material property','material name',#1187);
#702=PROPERTY_DEFINITION('material property','density of part',#1187);
#703=AXIS2_PLACEMENT_3D('',#969,#769,#770);
#704=AXIS2_PLACEMENT_3D('',#970,#771,#772);
#705=AXIS2_PLACEMENT_3D('',#971,#773,#774);
#706=AXIS2_PLACEMENT_3D('',#974,#775,#776);
#707=AXIS2_PLACEMENT_3D('',#978,#778,#779);
#708=AXIS2_PLACEMENT_3D('',#980,#781,#782);
#709=AXIS2_PLACEMENT_3D('',#986,#786,#787);
#710=AXIS2_PLACEMENT_3D('',#990,#789,#790);
#711=AXIS2_PLACEMENT_3D('',#994,#792,#793);
#712=AXIS2_PLACEMENT_3D('',#998,#795,#796);
#713=AXIS2_PLACEMENT_3D('',#1002,#798,#799);
#714=AXIS2_PLACEMENT_3D('',#1006,#801,#802);
#715=AXIS2_PLACEMENT_3D('',#1010,#804,#805);
#716=AXIS2_PLACEMENT_3D('',#1018,#809,#810);
#717=AXIS2_PLACEMENT_3D('',#1022,#812,#813);
#718=AXIS2_PLACEMENT_3D('',#1026,#815,#816);
#719=AXIS2_PLACEMENT_3D('',#1030,#818,#819);
#720=AXIS2_PLACEMENT_3D('',#1034,#821,#822);
#721=AXIS2_PLACEMENT_3D('',#1038,#824,#825);
#722=AXIS2_PLACEMENT_3D('',#1042,#827,#828);
#723=AXIS2_PLACEMENT_3D('',#1046,#831,#832);
#724=AXIS2_PLACEMENT_3D('',#1049,#833,#834);
#725=AXIS2_PLACEMENT_3D('',#1052,#837,#838);
#726=AXIS2_PLACEMENT_3D('',#1056,#841,#842);
#727=AXIS2_PLACEMENT_3D('',#1059,#843,#844);
#728=AXIS2_PLACEMENT_3D('',#1062,#847,#848);
#729=AXIS2_PLACEMENT_3D('',#1066,#851,#852);
#730=AXIS2_PLACEMENT_3D('',#1069,#853,#854);
#731=AXIS2_PLACEMENT_3D('',#1072,#857,#858);
#732=AXIS2_PLACEMENT_3D('',#1076,#861,#862);
#733=AXIS2_PLACEMENT_3D('',#1080,#865,#866);
#734=AXIS2_PLACEMENT_3D('',#1084,#869,#870);
#735=AXIS2_PLACEMENT_3D('',#1088,#873,#874);
#736=AXIS2_PLACEMENT_3D('',#1092,#877,#878);
#737=AXIS2_PLACEMENT_3D('',#1095,#880,#881);
#738=AXIS2_PLACEMENT_3D('',#1099,#883,#884);
#739=AXIS2_PLACEMENT_3D('',#1102,#886,#887);
#740=AXIS2_PLACEMENT_3D('',#1104,#888,#889);
#741=AXIS2_PLACEMENT_3D('',#1108,#891,#892);
#742=AXIS2_PLACEMENT_3D('',#1116,#896,#897);
#743=AXIS2_PLACEMENT_3D('',#1119,#899,#900);
#744=AXIS2_PLACEMENT_3D('',#1121,#901,#902);
#745=AXIS2_PLACEMENT_3D('',#1125,#904,#905);
#746=AXIS2_PLACEMENT_3D('',#1128,#907,#908);
#747=AXIS2_PLACEMENT_3D('',#1129,#909,#910);
#748=AXIS2_PLACEMENT_3D('',#1132,#913,#914);
#749=AXIS2_PLACEMENT_3D('',#1134,#916,#917);
#750=AXIS2_PLACEMENT_3D('',#1135,#918,#919);
#751=AXIS2_PLACEMENT_3D('',#1137,#921,#922);
#752=AXIS2_PLACEMENT_3D('',#1139,#924,#925);
#753=AXIS2_PLACEMENT_3D('',#1141,#927,#928);
#754=AXIS2_PLACEMENT_3D('',#1143,#930,#931);
#755=AXIS2_PLACEMENT_3D('',#1144,#932,#933);
#756=AXIS2_PLACEMENT_3D('',#1146,#935,#936);
#757=AXIS2_PLACEMENT_3D('',#1149,#939,#940);
#758=AXIS2_PLACEMENT_3D('',#1151,#942,#943);
#759=AXIS2_PLACEMENT_3D('',#1152,#944,#945);
#760=AXIS2_PLACEMENT_3D('',#1154,#947,#948);
#761=AXIS2_PLACEMENT_3D('',#1156,#950,#951);
#762=AXIS2_PLACEMENT_3D('',#1158,#953,#954);
#763=AXIS2_PLACEMENT_3D('',#1160,#956,#957);
#764=AXIS2_PLACEMENT_3D('',#1161,#958,#959);
#765=AXIS2_PLACEMENT_3D('',#1163,#961,#962);
#766=AXIS2_PLACEMENT_3D('',#1164,#963,#964);
#767=AXIS2_PLACEMENT_3D('',#1165,#965,#966);
#768=AXIS2_PLACEMENT_3D('',#1166,#967,#968);
#769=DIRECTION('axis',(0.,0.,1.));
#770=DIRECTION('refdir',(1.,0.,0.));
#771=DIRECTION('axis',(0.,0.,1.));
#772=DIRECTION('refdir',(1.,0.,0.));
#773=DIRECTION('center_axis',(-7.40148683083437E-17,-2.24207754291971E-44,
1.));
#774=DIRECTION('ref_axis',(-0.70710678118945,-0.707106781183645,0.));
#775=DIRECTION('center_axis',(3.70074491763625E-17,3.70074341541701E-17,
-1.));
#776=DIRECTION('ref_axis',(-0.70710678118945,-0.707106781183645,0.));
#777=DIRECTION('',(7.40148683083437E-17,2.24207754291971E-44,-1.));
#778=DIRECTION('center_axis',(-6.52651937241583E-17,-6.5265167231482E-17,
1.));
#779=DIRECTION('ref_axis',(-0.70710678118945,-0.707106781183645,0.));
#780=DIRECTION('',(-7.40148683083437E-17,-2.24207754291971E-44,1.));
#781=DIRECTION('center_axis',(-2.67687774603646E-12,-1.,-1.98128753850425E-28));
#782=DIRECTION('ref_axis',(-1.,2.67687774603646E-12,1.01875389938974E-16));
#783=DIRECTION('',(-1.,2.67687774603646E-12,1.01875389938974E-16));
#784=DIRECTION('',(7.40148683083437E-17,-1.92737784091342E-46,-1.));
#785=DIRECTION('',(1.,-2.67687774603646E-12,-1.01875389938974E-16));
#786=DIRECTION('center_axis',(-6.52651937241583E-17,-6.5265167231482E-17,
1.));
#787=DIRECTION('ref_axis',(1.,8.51649597393651E-31,6.52651937241583E-17));
#788=DIRECTION('',(5.52525142892816E-12,1.,1.36844943256594E-16));
#789=DIRECTION('center_axis',(-1.05325256798649E-28,-3.29443034013398E-15,
-1.));
#790=DIRECTION('ref_axis',(3.16265312652862E-14,1.,-3.29443034013398E-15));
#791=DIRECTION('',(1.,-3.33566686241049E-14,7.13969790755659E-17));
#792=DIRECTION('center_axis',(1.1339875512552E-30,-1.57772181044202E-30,
1.));
#793=DIRECTION('ref_axis',(-3.27942801120047E-14,-1.,-1.57772181044199E-30));
#794=DIRECTION('',(0.0932072304849132,0.995646730615499,-2.02496871032749E-15));
#795=DIRECTION('center_axis',(2.63554427210718E-15,3.23845734418088E-27,
-1.));
#796=DIRECTION('ref_axis',(1.,1.22816363080195E-12,2.63554427210718E-15));
#797=DIRECTION('',(1.22326614119752E-12,-1.,-4.89894329674634E-17));
#798=DIRECTION('center_axis',(6.52651937241583E-17,6.5265167231482E-17,
-1.));
#799=DIRECTION('ref_axis',(-0.944857147200168,-0.32748278028739,0.));
#800=DIRECTION('',(0.618848891078086,-0.785510057231238,-1.78742940528468E-15));
#801=DIRECTION('center_axis',(-2.6355442720972E-15,3.21098027878922E-28,
-1.));
#802=DIRECTION('ref_axis',(-1.,1.21235036516471E-13,2.6355442720972E-15));
#803=DIRECTION('',(1.23515052914525E-13,1.,-9.74093477243872E-17));
#804=DIRECTION('center_axis',(1.1339875512552E-30,-1.57772181044202E-30,
1.));
#805=DIRECTION('ref_axis',(0.999999999999918,-4.05923628385801E-7,-1.13778015176152E-30));
#806=DIRECTION('',(-1.,2.17307892882119E-12,-2.24559673264059E-16));
#807=DIRECTION('',(-2.17307892882119E-12,-1.,-1.60840150740337E-28));
#808=DIRECTION('',(-1.,2.17307892882119E-12,-2.24559673264059E-16));
#809=DIRECTION('center_axis',(1.1339875512552E-30,-1.57772181044202E-30,
1.));
#810=DIRECTION('ref_axis',(0.999999999999918,-4.05923628385801E-7,-1.12622908423087E-30));
#811=DIRECTION('',(1.23515052914525E-13,1.,-9.74093477243872E-17));
#812=DIRECTION('center_axis',(-2.6355442720972E-15,3.21098027878922E-28,
-1.));
#813=DIRECTION('ref_axis',(-1.,1.21235036516471E-13,2.6355442720972E-15));
#814=DIRECTION('',(0.618848891078086,-0.785510057231238,-1.78742940528468E-15));
#815=DIRECTION('center_axis',(-6.52651937241583E-17,-6.5265167231482E-17,
1.));
#816=DIRECTION('ref_axis',(-0.944857147200169,-0.327482780287388,0.));
#817=DIRECTION('',(1.22326614119752E-12,-1.,-4.89894329674634E-17));
#818=DIRECTION('center_axis',(2.63554427210718E-15,3.23845734418088E-27,
-1.));
#819=DIRECTION('ref_axis',(1.,1.22816363080195E-12,2.63554427210718E-15));
#820=DIRECTION('',(0.0932072304849132,0.995646730615499,-2.02496871032749E-15));
#821=DIRECTION('center_axis',(1.1339875512552E-30,-1.57772181044202E-30,
1.));
#822=DIRECTION('ref_axis',(-3.27942801120047E-14,-1.,-1.57772181044199E-30));
#823=DIRECTION('',(1.,-3.33566686241049E-14,7.13969790755659E-17));
#824=DIRECTION('center_axis',(-1.05325256798649E-28,-3.29443034013398E-15,
-1.));
#825=DIRECTION('ref_axis',(3.16265312652862E-14,1.,-3.29443034013398E-15));
#826=DIRECTION('',(5.52525142892816E-12,1.,1.36844943256594E-16));
#827=DIRECTION('center_axis',(6.52651937241583E-17,6.5265167231482E-17,
-1.));
#828=DIRECTION('ref_axis',(-0.707106781189446,-0.707106781183649,0.));
#829=DIRECTION('',(-1.,2.67687774603646E-12,1.01875389938974E-16));
#830=DIRECTION('',(-2.67687774603646E-12,-1.,-1.98128753850425E-28));
#831=DIRECTION('center_axis',(-7.40148683083437E-17,1.99175466285875E-32,
1.));
#832=DIRECTION('ref_axis',(-0.944857147200169,-0.327482780287388,0.));
#833=DIRECTION('center_axis',(3.70074491763625E-17,3.70074341541701E-17,
-1.));
#834=DIRECTION('ref_axis',(-0.944857147200169,-0.327482780287388,0.));
#835=DIRECTION('',(7.40148683083437E-17,-1.99175466285875E-32,-1.));
#836=DIRECTION('',(-7.40148683083437E-17,1.99175466285875E-32,1.));
#837=DIRECTION('center_axis',(1.,1.22326614119752E-12,7.40148683083437E-17));
#838=DIRECTION('ref_axis',(1.22326614119752E-12,-1.,-4.89894329674634E-17));
#839=DIRECTION('',(-1.22326614119752E-12,1.,4.89894329674634E-17));
#840=DIRECTION('',(7.40148683083437E-17,-1.92737784091342E-46,-1.));
#841=DIRECTION('center_axis',(7.40148683083437E-17,2.24207754291971E-44,
-1.));
#842=DIRECTION('ref_axis',(-0.707106781189446,-0.707106781183649,0.));
#843=DIRECTION('center_axis',(-3.70074491763625E-17,-3.70074341541701E-17,
1.));
#844=DIRECTION('ref_axis',(-0.707106781189446,-0.707106781183649,0.));
#845=DIRECTION('',(7.40148683083437E-17,2.24207754291971E-44,-1.));
#846=DIRECTION('',(-7.40148683083437E-17,-2.24207754291971E-44,1.));
#847=DIRECTION('center_axis',(-2.67687774603646E-12,-1.,-1.98128753850425E-28));
#848=DIRECTION('ref_axis',(-1.,2.67687774603646E-12,1.01875389938974E-16));
#849=DIRECTION('',(1.,-2.67687774603646E-12,-1.01875389938974E-16));
#850=DIRECTION('',(7.40148683083437E-17,-1.92737784091342E-46,-1.));
#851=DIRECTION('center_axis',(7.40148683083437E-17,-1.99175466285875E-32,
-1.));
#852=DIRECTION('ref_axis',(-0.944857147200168,-0.32748278028739,0.));
#853=DIRECTION('center_axis',(-3.70074491763625E-17,-3.70074341541701E-17,
1.));
#854=DIRECTION('ref_axis',(-0.944857147200168,-0.32748278028739,0.));
#855=DIRECTION('',(7.40148683083437E-17,-1.99175466285875E-32,-1.));
#856=DIRECTION('',(-7.40148683083437E-17,1.99175466285875E-32,1.));
#857=DIRECTION('center_axis',(0.785510057231238,0.618848891078086,5.81394234408496E-17));
#858=DIRECTION('ref_axis',(0.618848891078086,-0.785510057231238,-1.78742940528468E-15));
#859=DIRECTION('',(-0.618848891078086,0.785510057231238,1.78742940528468E-15));
#860=DIRECTION('',(7.40148683083437E-17,-1.92737784091342E-46,-1.));
#861=DIRECTION('center_axis',(0.785510057231238,0.618848891078086,5.81394234408496E-17));
#862=DIRECTION('ref_axis',(0.618848891078086,-0.785510057231238,-1.78742940528468E-15));
#863=DIRECTION('',(7.40148683083437E-17,-1.92737784091342E-46,-1.));
#864=DIRECTION('',(-0.618848891078086,0.785510057231238,1.78742940528468E-15));
#865=DIRECTION('center_axis',(-1.,5.52525142892816E-12,-7.40148683083437E-17));
#866=DIRECTION('ref_axis',(5.52525142892816E-12,1.,1.36844943256594E-16));
#867=DIRECTION('',(7.40148683083437E-17,-1.92737784091342E-46,-1.));
#868=DIRECTION('',(-5.52525142892816E-12,-1.,-1.36844943256594E-16));
#869=DIRECTION('center_axis',(-1.,5.52525142892816E-12,-7.40148683083437E-17));
#870=DIRECTION('ref_axis',(5.52525142892816E-12,1.,1.36844943256594E-16));
#871=DIRECTION('',(-5.52525142892816E-12,-1.,-1.36844943256594E-16));
#872=DIRECTION('',(7.40148683083437E-17,-1.92737784091342E-46,-1.));
#873=DIRECTION('center_axis',(1.,1.22326614119752E-12,7.40148683083437E-17));
#874=DIRECTION('ref_axis',(1.22326614119752E-12,-1.,-4.89894329674634E-17));
#875=DIRECTION('',(7.40148683083437E-17,-1.92737784091342E-46,-1.));
#876=DIRECTION('',(-1.22326614119752E-12,1.,4.89894329674634E-17));
#877=DIRECTION('center_axis',(3.70074491763625E-17,3.70074341541701E-17,
-1.));
#878=DIRECTION('ref_axis',(-1.,-8.51649597393651E-31,-3.70074491763625E-17));
#879=DIRECTION('',(-2.67687774603646E-12,-1.,-1.98128753850425E-28));
#880=DIRECTION('center_axis',(1.05325256798649E-28,3.29443034013398E-15,
1.));
#881=DIRECTION('ref_axis',(3.16265312652862E-14,1.,-3.29443034013398E-15));
#882=DIRECTION('',(-1.,3.33566686241049E-14,-7.13969790755659E-17));
#883=DIRECTION('center_axis',(1.1339875512552E-30,-1.57772181044202E-30,
1.));
#884=DIRECTION('ref_axis',(-3.27942801120047E-14,-1.,-1.57772181044199E-30));
#885=DIRECTION('',(-0.0932072304849132,-0.995646730615499,2.02496871032749E-15));
#886=DIRECTION('center_axis',(-2.63554427210718E-15,-3.23845734418088E-27,
1.));
#887=DIRECTION('ref_axis',(1.,1.22816363080195E-12,2.63554427210718E-15));
#888=DIRECTION('center_axis',(2.6355442720972E-15,-3.21098027878922E-28,
1.));
#889=DIRECTION('ref_axis',(-1.,1.21235036516471E-13,2.6355442720972E-15));
#890=DIRECTION('',(-1.23515052914525E-13,-1.,9.74093477243872E-17));
#891=DIRECTION('center_axis',(1.1339875512552E-30,-1.57772181044202E-30,
1.));
#892=DIRECTION('ref_axis',(0.999999999999918,-4.05923628385801E-7,-1.12622908423087E-30));
#893=DIRECTION('',(1.,-2.17307892882119E-12,2.24559673264059E-16));
#894=DIRECTION('',(-2.17307892882119E-12,-1.,-1.60840150740337E-28));
#895=DIRECTION('',(1.,-2.17307892882119E-12,2.24559673264059E-16));
#896=DIRECTION('center_axis',(1.1339875512552E-30,-1.57772181044202E-30,
1.));
#897=DIRECTION('ref_axis',(0.999999999999918,-4.05923628385801E-7,-1.13778015176152E-30));
#898=DIRECTION('',(-1.23515052914525E-13,-1.,9.74093477243872E-17));
#899=DIRECTION('center_axis',(2.6355442720972E-15,-3.21098027878922E-28,
1.));
#900=DIRECTION('ref_axis',(-1.,1.21235036516471E-13,2.6355442720972E-15));
#901=DIRECTION('center_axis',(-2.63554427210718E-15,-3.23845734418088E-27,
1.));
#902=DIRECTION('ref_axis',(1.,1.22816363080195E-12,2.63554427210718E-15));
#903=DIRECTION('',(-0.0932072304849132,-0.995646730615499,2.02496871032749E-15));
#904=DIRECTION('center_axis',(1.1339875512552E-30,-1.57772181044202E-30,
1.));
#905=DIRECTION('ref_axis',(-3.27942801120047E-14,-1.,-1.57772181044199E-30));
#906=DIRECTION('',(-1.,3.33566686241049E-14,-7.13969790755659E-17));
#907=DIRECTION('center_axis',(1.05325256798649E-28,3.29443034013398E-15,
1.));
#908=DIRECTION('ref_axis',(3.16265312652862E-14,1.,-3.29443034013398E-15));
#909=DIRECTION('center_axis',(7.40148683083437E-17,-1.92737784091342E-46,
-1.));
#910=DIRECTION('ref_axis',(0.999999999999918,-4.05923628385801E-7,7.40148683083376E-17));
#911=DIRECTION('',(7.40148683083437E-17,-1.92737784091342E-46,-1.));
#912=DIRECTION('',(7.40148683083437E-17,-1.92737784091342E-46,-1.));
#913=DIRECTION('center_axis',(-1.,1.23515052914525E-13,-7.40148683083437E-17));
#914=DIRECTION('ref_axis',(1.23515052914525E-13,1.,-9.74093477243872E-17));
#915=DIRECTION('',(7.40148683083437E-17,-1.92737784091342E-46,-1.));
#916=DIRECTION('center_axis',(7.40148683083437E-17,-1.92737784091342E-46,
-1.));
#917=DIRECTION('ref_axis',(0.327482780285544,-0.944857147200809,2.42385948560849E-17));
#918=DIRECTION('center_axis',(7.40148683083437E-17,-1.92737784091342E-46,
-1.));
#919=DIRECTION('ref_axis',(1.,1.22816363080195E-12,7.40148683083437E-17));
#920=DIRECTION('',(7.40148683083437E-17,-1.92737784091342E-46,-1.));
#921=DIRECTION('center_axis',(-0.995646730615499,0.0932072304849132,-7.36926616481391E-17));
#922=DIRECTION('ref_axis',(0.0932072304849132,0.995646730615499,-2.02496871032749E-15));
#923=DIRECTION('',(7.40148683083437E-17,-1.92737784091342E-46,-1.));
#924=DIRECTION('center_axis',(7.40148683083437E-17,-1.92737784091342E-46,
-1.));
#925=DIRECTION('ref_axis',(-3.27942801120047E-14,-1.,-2.42726432375696E-30));
#926=DIRECTION('',(7.40148683083437E-17,-1.92737784091342E-46,-1.));
#927=DIRECTION('center_axis',(3.33566686241049E-14,1.,2.46888943541819E-30));
#928=DIRECTION('ref_axis',(1.,-3.33566686241049E-14,7.13969790755659E-17));
#929=DIRECTION('',(7.40148683083437E-17,-1.92737784091342E-46,-1.));
#930=DIRECTION('center_axis',(7.40148683083437E-17,-1.92737784091342E-46,
-1.));
#931=DIRECTION('ref_axis',(3.16265312652862E-14,1.,2.34083354664987E-30));
#932=DIRECTION('center_axis',(-2.17307892882119E-12,-1.,-1.60840150740337E-28));
#933=DIRECTION('ref_axis',(-1.,2.17307892882119E-12,-2.24559673264059E-16));
#934=DIRECTION('',(7.40148683083437E-17,-1.92737784091342E-46,-1.));
#935=DIRECTION('center_axis',(7.40148683083437E-17,-1.92737784091342E-46,
-1.));
#936=DIRECTION('ref_axis',(0.999999999999918,-4.05923628385801E-7,7.40148683083376E-17));
#937=DIRECTION('',(7.40148683083437E-17,-1.92737784091342E-46,-1.));
#938=DIRECTION('',(7.40148683083437E-17,-1.92737784091342E-46,-1.));
#939=DIRECTION('center_axis',(-1.,1.23515052914525E-13,-7.40148683083437E-17));
#940=DIRECTION('ref_axis',(1.23515052914525E-13,1.,-9.74093477243872E-17));
#941=DIRECTION('',(7.40148683083437E-17,-1.92737784091342E-46,-1.));
#942=DIRECTION('center_axis',(7.40148683083437E-17,-1.92737784091342E-46,
-1.));
#943=DIRECTION('ref_axis',(0.32748278028539,-0.944857147200862,2.42385948560736E-17));
#944=DIRECTION('center_axis',(7.40148683083437E-17,-1.92737784091342E-46,
-1.));
#945=DIRECTION('ref_axis',(1.,1.22816363080195E-12,7.40148683083437E-17));
#946=DIRECTION('',(7.40148683083437E-17,-1.92737784091342E-46,-1.));
#947=DIRECTION('center_axis',(-0.995646730615499,0.0932072304849132,-7.36926616481391E-17));
#948=DIRECTION('ref_axis',(0.0932072304849132,0.995646730615499,-2.02496871032749E-15));
#949=DIRECTION('',(7.40148683083437E-17,-1.92737784091342E-46,-1.));
#950=DIRECTION('center_axis',(7.40148683083437E-17,-1.92737784091342E-46,
-1.));
#951=DIRECTION('ref_axis',(-3.27942801120047E-14,-1.,-2.42726432375696E-30));
#952=DIRECTION('',(7.40148683083437E-17,-1.92737784091342E-46,-1.));
#953=DIRECTION('center_axis',(3.33566686241049E-14,1.,2.46888943541819E-30));
#954=DIRECTION('ref_axis',(1.,-3.33566686241049E-14,7.13969790755659E-17));
#955=DIRECTION('',(7.40148683083437E-17,-1.92737784091342E-46,-1.));
#956=DIRECTION('center_axis',(7.40148683083437E-17,-1.92737784091342E-46,
-1.));
#957=DIRECTION('ref_axis',(3.16265312652862E-14,1.,2.34083354664987E-30));
#958=DIRECTION('center_axis',(-2.17307892882119E-12,-1.,-1.60840150740337E-28));
#959=DIRECTION('ref_axis',(-1.,2.17307892882119E-12,-2.24559673264059E-16));
#960=DIRECTION('',(7.40148683083437E-17,-1.92737784091342E-46,-1.));
#961=DIRECTION('center_axis',(-1.,2.67687774603646E-12,-7.40148683083437E-17));
#962=DIRECTION('ref_axis',(-7.40148683083437E-17,1.92737784091342E-46,1.));
#963=DIRECTION('center_axis',(1.,-2.17307892882119E-12,7.40148683083437E-17));
#964=DIRECTION('ref_axis',(7.40148683083437E-17,-1.92737784091342E-46,-1.));
#965=DIRECTION('',(-1.11022302462514E-16,-1.57772181044202E-30,1.));
#966=DIRECTION('',(1.,-8.51649597393651E-31,1.11022302462516E-16));
#967=DIRECTION('',(2.3348698237725E-16,1.57772181044202E-30,-1.));
#968=DIRECTION('',(-1.,-1.35897048152585E-30,-2.33486982377251E-16));
#969=CARTESIAN_POINT('',(0.,0.,0.));
#970=CARTESIAN_POINT('',(0.,0.,0.));
#971=CARTESIAN_POINT('Origin',(-162.500000000876,-39.9999999976835,14.));
#972=CARTESIAN_POINT('',(-162.500000000894,-46.7399999976835,14.));
#973=CARTESIAN_POINT('',(-169.240000000876,-39.9999999976463,14.));
#974=CARTESIAN_POINT('Origin',(-162.500000000876,-39.9999999976835,14.));
#975=CARTESIAN_POINT('',(-169.240000000876,-39.9999999976463,4.99999999999999));
#976=CARTESIAN_POINT('',(-169.240000000876,-39.9999999976463,14.));
#977=CARTESIAN_POINT('',(-162.500000000894,-46.7399999976835,5.00000000000001));
#978=CARTESIAN_POINT('Origin',(-162.500000000876,-39.9999999976835,4.99999999999999));
#979=CARTESIAN_POINT('',(-162.500000000894,-46.7399999976835,14.));
#980=CARTESIAN_POINT('Origin',(-9.93008146744785,-46.7399999980919,14.));
#981=CARTESIAN_POINT('',(-9.93008146744785,-46.7399999980919,5.));
#982=CARTESIAN_POINT('',(-162.500023570865,-46.7399999976835,5.00000000000001));
#983=CARTESIAN_POINT('',(-9.93008146744785,-46.7399999980919,14.));
#984=CARTESIAN_POINT('',(-9.93008146744785,-46.7399999980919,14.));
#985=CARTESIAN_POINT('',(-162.500023570865,-46.7399999976835,14.));
#986=CARTESIAN_POINT('Origin',(162.846195011574,-48.6438068551412,5.00000000000001));
#987=CARTESIAN_POINT('',(-169.240000000013,116.260000000036,5.00000000000001));
#988=CARTESIAN_POINT('',(-169.240000000013,116.260000000036,5.00000000000001));
#989=CARTESIAN_POINT('',(-162.500000000012,122.999999999999,4.99999999999999));
#990=CARTESIAN_POINT('Origin',(-162.500000000013,116.259999999999,5.00000000000001));
#991=CARTESIAN_POINT('',(148.500000000012,122.999999999989,5.00000000000001));
#992=CARTESIAN_POINT('',(148.500000000012,122.999999999989,5.00000000000001));
#993=CARTESIAN_POINT('',(154.971703749015,128.894153001851,5.00000000000003));
#994=CARTESIAN_POINT('Origin',(148.500000000013,129.499999999989,5.00000000000001));
#995=CARTESIAN_POINT('',(155.789342562439,137.628233042374,4.99999999999999));
#996=CARTESIAN_POINT('',(155.789342562439,137.628233042374,5.00000000000001));
#997=CARTESIAN_POINT('',(169.240000000013,136.999999999998,5.00000000000003));
#998=CARTESIAN_POINT('Origin',(162.500000000013,136.999999999989,5.00000000000001));
#999=CARTESIAN_POINT('',(169.240000000449,-219.60000000001,5.00000000000001));
#1000=CARTESIAN_POINT('',(169.240000000456,-225.60000000002,5.00000000000001));
#1001=CARTESIAN_POINT('',(170.634184628446,-223.62251779201,5.00000000000003));
#1002=CARTESIAN_POINT('Origin',(175.740000000449,-219.600000000002,5.00000000000001));
#1003=CARTESIAN_POINT('',(176.784337786781,-231.42895847411,5.));
#1004=CARTESIAN_POINT('',(176.784337786781,-231.42895847411,5.00000000000001));
#1005=CARTESIAN_POINT('',(164.750000000986,-235.599999999978,5.00000000000003));
#1006=CARTESIAN_POINT('Origin',(171.490000001012,-235.599999999979,5.00000000000001));
#1007=CARTESIAN_POINT('',(164.750000001009,-53.2400026385036,5.00000000000001));
#1008=CARTESIAN_POINT('',(164.750000001009,-53.2400026385036,5.00000000000001));
#1009=CARTESIAN_POINT('',(158.250000001012,-46.7400000000025,5.00000000000003));
#1010=CARTESIAN_POINT('Origin',(158.250000001012,-53.24,5.00000000000001));
#1011=CARTESIAN_POINT('',(9.92999999999038,-46.7399999996802,5.));
#1012=CARTESIAN_POINT('',(9.92999999999038,-46.7399999996802,5.));
#1013=CARTESIAN_POINT('',(9.92999999999338,-45.3599999996802,5.));
#1014=CARTESIAN_POINT('',(9.92999999999038,-46.7399999996802,5.));
#1015=CARTESIAN_POINT('',(158.250000001013,-45.3600000000025,5.00000000000003));
#1016=CARTESIAN_POINT('',(9.92999999999338,-45.3599999996802,5.));
#1017=CARTESIAN_POINT('',(166.130000001009,-53.2400029185909,5.00000000000001));
#1018=CARTESIAN_POINT('Origin',(158.250000001012,-53.24,5.00000000000001));
#1019=CARTESIAN_POINT('',(166.130000000986,-235.599999999978,5.00000000000003));
#1020=CARTESIAN_POINT('',(166.130000001009,-53.2400026385037,5.00000000000001));
#1021=CARTESIAN_POINT('',(175.700333907801,-232.282969943797,5.));
#1022=CARTESIAN_POINT('Origin',(171.490000001012,-235.599999999979,5.00000000000001));
#1023=CARTESIAN_POINT('',(169.550180749467,-224.476529261698,5.00000000000003));
#1024=CARTESIAN_POINT('',(175.700333907802,-232.282969943798,5.00000000000001));
#1025=CARTESIAN_POINT('',(167.860000000449,-219.600000000012,5.00000000000001));
#1026=CARTESIAN_POINT('Origin',(175.740000000449,-219.600000000002,5.00000000000001));
#1027=CARTESIAN_POINT('',(167.860000000013,136.999999999996,5.00000000000003));
#1028=CARTESIAN_POINT('',(167.860000000456,-225.600000000021,5.00000000000001));
#1029=CARTESIAN_POINT('',(157.163334894389,137.499605394697,4.99999999999999));
#1030=CARTESIAN_POINT('Origin',(162.500000000013,136.999999999989,5.00000000000001));
#1031=CARTESIAN_POINT('',(156.345696237264,128.765527023784,5.00000000000003));
#1032=CARTESIAN_POINT('',(157.163335050689,137.499607064304,5.00000000000001));
#1033=CARTESIAN_POINT('',(148.500000000012,121.619999999989,5.00000000000001));
#1034=CARTESIAN_POINT('Origin',(148.500000000013,129.499999999989,5.00000000000001));
#1035=CARTESIAN_POINT('',(-162.500000000012,121.619999999999,4.99999999999999));
#1036=CARTESIAN_POINT('',(148.500000000012,121.619999999989,5.00000000000001));
#1037=CARTESIAN_POINT('',(-167.860000000013,116.260000000029,5.00000000000001));
#1038=CARTESIAN_POINT('Origin',(-162.500000000013,116.259999999999,5.00000000000001));
#1039=CARTESIAN_POINT('',(-167.860000000876,-39.9999999976539,4.99999999999999));
#1040=CARTESIAN_POINT('',(-167.860000000013,116.260000000029,5.00000000000001));
#1041=CARTESIAN_POINT('',(-162.50000000089,-45.3599999976835,5.00000000000001));
#1042=CARTESIAN_POINT('Origin',(-162.500000000876,-39.9999999976835,4.99999999999999));
#1043=CARTESIAN_POINT('',(-9.93008146744415,-45.3599999980919,5.));
#1044=CARTESIAN_POINT('',(-162.500023570861,-45.3599999976835,5.00000000000001));
#1045=CARTESIAN_POINT('',(-9.93008146744785,-46.7399999980919,5.));
#1046=CARTESIAN_POINT('Origin',(175.740000000449,-219.600000000002,14.));
#1047=CARTESIAN_POINT('',(169.550180749467,-224.476529261698,14.));
#1048=CARTESIAN_POINT('',(167.860000000449,-219.600000000012,14.));
#1049=CARTESIAN_POINT('Origin',(175.740000000449,-219.600000000002,14.));
#1050=CARTESIAN_POINT('',(167.860000000449,-219.600000000012,14.));
#1051=CARTESIAN_POINT('',(169.550180749467,-224.476529261698,14.));
#1052=CARTESIAN_POINT('Origin',(167.860000000013,136.999999999996,14.));
#1053=CARTESIAN_POINT('',(167.860000000013,136.999999999996,14.));
#1054=CARTESIAN_POINT('',(167.860000000456,-225.600000000021,14.));
#1055=CARTESIAN_POINT('',(167.860000000013,136.999999999996,14.));
#1056=CARTESIAN_POINT('Origin',(-162.500000000876,-39.9999999976835,14.));
#1057=CARTESIAN_POINT('',(-167.860000000876,-39.9999999976539,14.));
#1058=CARTESIAN_POINT('',(-162.50000000089,-45.3599999976835,14.));
#1059=CARTESIAN_POINT('Origin',(-162.500000000876,-39.9999999976835,14.));
#1060=CARTESIAN_POINT('',(-162.50000000089,-45.3599999976835,14.));
#1061=CARTESIAN_POINT('',(-167.860000000876,-39.9999999976539,14.));
#1062=CARTESIAN_POINT('Origin',(-9.93008146744415,-45.3599999980919,14.));
#1063=CARTESIAN_POINT('',(-9.93008146744415,-45.3599999980919,14.));
#1064=CARTESIAN_POINT('',(-162.500023570861,-45.3599999976835,14.));
#1065=CARTESIAN_POINT('',(-9.93008146744415,-45.3599999980919,14.));
#1066=CARTESIAN_POINT('Origin',(175.740000000449,-219.600000000002,14.));
#1067=CARTESIAN_POINT('',(169.240000000449,-219.60000000001,14.));
#1068=CARTESIAN_POINT('',(170.634184628446,-223.62251779201,14.));
#1069=CARTESIAN_POINT('Origin',(175.740000000449,-219.600000000002,14.));
#1070=CARTESIAN_POINT('',(170.634184628446,-223.62251779201,14.));
#1071=CARTESIAN_POINT('',(169.240000000449,-219.60000000001,14.));
#1072=CARTESIAN_POINT('Origin',(170.634184628443,-223.622517792006,14.));
#1073=CARTESIAN_POINT('',(176.784337786781,-231.42895847411,14.));
#1074=CARTESIAN_POINT('',(176.784337786781,-231.42895847411,14.));
#1075=CARTESIAN_POINT('',(176.784337786781,-231.42895847411,14.));
#1076=CARTESIAN_POINT('Origin',(169.550180749464,-224.476529261694,14.));
#1077=CARTESIAN_POINT('',(175.700333907801,-232.282969943797,14.));
#1078=CARTESIAN_POINT('',(175.700333907802,-232.282969943798,14.));
#1079=CARTESIAN_POINT('',(175.700333907802,-232.282969943798,14.));
#1080=CARTESIAN_POINT('Origin',(-167.860000000909,-45.9999999976951,14.));
#1081=CARTESIAN_POINT('',(-167.860000000013,116.260000000029,14.));
#1082=CARTESIAN_POINT('',(-167.860000000013,116.260000000029,14.));
#1083=CARTESIAN_POINT('',(-167.860000000013,116.260000000029,14.));
#1084=CARTESIAN_POINT('Origin',(-169.240000000909,-45.9999999976875,14.));
#1085=CARTESIAN_POINT('',(-169.240000000013,116.260000000036,14.));
#1086=CARTESIAN_POINT('',(-169.240000000013,116.260000000036,14.));
#1087=CARTESIAN_POINT('',(-169.240000000013,116.260000000036,14.));
#1088=CARTESIAN_POINT('Origin',(169.240000000013,136.999999999998,14.));
#1089=CARTESIAN_POINT('',(169.240000000013,136.999999999998,14.));
#1090=CARTESIAN_POINT('',(169.240000000013,136.999999999998,14.));
#1091=CARTESIAN_POINT('',(169.240000000456,-225.60000000002,14.));
#1092=CARTESIAN_POINT('Origin',(162.846195011574,-48.6438068551412,14.));
#1093=CARTESIAN_POINT('',(-9.93008146744785,-46.7399999980919,14.));
#1094=CARTESIAN_POINT('',(-162.500000000012,121.619999999999,14.));
#1095=CARTESIAN_POINT('Origin',(-162.500000000013,116.259999999999,14.));
#1096=CARTESIAN_POINT('',(148.500000000012,121.619999999989,14.));
#1097=CARTESIAN_POINT('',(148.500000000012,121.619999999989,14.));
#1098=CARTESIAN_POINT('',(156.345696237264,128.765527023784,14.));
#1099=CARTESIAN_POINT('Origin',(148.500000000013,129.499999999989,14.));
#1100=CARTESIAN_POINT('',(157.163334894389,137.499605394697,14.));
#1101=CARTESIAN_POINT('',(157.163335050689,137.499607064304,14.));
#1102=CARTESIAN_POINT('Origin',(162.500000000013,136.999999999989,14.));
#1103=CARTESIAN_POINT('',(166.130000000986,-235.599999999978,14.));
#1104=CARTESIAN_POINT('Origin',(171.490000001012,-235.599999999979,14.));
#1105=CARTESIAN_POINT('',(166.130000001009,-53.2400029185909,14.));
#1106=CARTESIAN_POINT('',(166.130000001009,-53.2400026385037,14.));
#1107=CARTESIAN_POINT('',(158.250000001013,-45.3600000000025,14.));
#1108=CARTESIAN_POINT('Origin',(158.250000001012,-53.24,14.));
#1109=CARTESIAN_POINT('',(9.92999999999338,-45.3599999996802,14.));
#1110=CARTESIAN_POINT('',(9.92999999999338,-45.3599999996802,14.));
#1111=CARTESIAN_POINT('',(9.92999999999038,-46.7399999996802,14.));
#1112=CARTESIAN_POINT('',(9.92999999999038,-46.7399999996802,14.));
#1113=CARTESIAN_POINT('',(158.250000001012,-46.7400000000025,14.));
#1114=CARTESIAN_POINT('',(9.92999999999038,-46.7399999996802,14.));
#1115=CARTESIAN_POINT('',(164.750000001009,-53.2400026385036,14.));
#1116=CARTESIAN_POINT('Origin',(158.250000001012,-53.24,14.));
#1117=CARTESIAN_POINT('',(164.750000000986,-235.599999999978,14.));
#1118=CARTESIAN_POINT('',(164.750000001009,-53.2400026385036,14.));
#1119=CARTESIAN_POINT('Origin',(171.490000001012,-235.599999999979,14.));
#1120=CARTESIAN_POINT('',(155.789342562439,137.628233042374,14.));
#1121=CARTESIAN_POINT('Origin',(162.500000000013,136.999999999989,14.));
#1122=CARTESIAN_POINT('',(154.971703749015,128.894153001851,14.));
#1123=CARTESIAN_POINT('',(155.789342562439,137.628233042374,14.));
#1124=CARTESIAN_POINT('',(148.500000000012,122.999999999989,14.));
#1125=CARTESIAN_POINT('Origin',(148.500000000013,129.499999999989,14.));
#1126=CARTESIAN_POINT('',(-162.500000000012,122.999999999999,14.));
#1127=CARTESIAN_POINT('',(148.500000000012,122.999999999989,14.));
#1128=CARTESIAN_POINT('Origin',(-162.500000000013,116.259999999999,14.));
#1129=CARTESIAN_POINT('Origin',(158.250000001012,-53.24,14.));
#1130=CARTESIAN_POINT('',(158.250000001012,-46.7400000000025,14.));
#1131=CARTESIAN_POINT('',(164.750000001009,-53.2400026385036,14.));
#1132=CARTESIAN_POINT('Origin',(164.750000000986,-235.599999999978,14.));
#1133=CARTESIAN_POINT('',(164.750000000986,-235.599999999978,14.));
#1134=CARTESIAN_POINT('Origin',(171.490000001012,-235.599999999979,14.));
#1135=CARTESIAN_POINT('Origin',(162.500000000013,136.999999999989,14.));
#1136=CARTESIAN_POINT('',(155.789342562439,137.628233042374,14.));
#1137=CARTESIAN_POINT('Origin',(154.971703749015,128.894153001851,14.));
#1138=CARTESIAN_POINT('',(154.971703749015,128.894153001851,14.));
#1139=CARTESIAN_POINT('Origin',(148.500000000013,129.499999999989,14.));
#1140=CARTESIAN_POINT('',(148.500000000012,122.999999999989,14.));
#1141=CARTESIAN_POINT('Origin',(-162.500000000012,122.999999999999,14.));
#1142=CARTESIAN_POINT('',(-162.500000000012,122.999999999999,14.));
#1143=CARTESIAN_POINT('Origin',(-162.500000000013,116.259999999999,14.));
#1144=CARTESIAN_POINT('Origin',(158.250000001012,-46.7400000000025,14.));
#1145=CARTESIAN_POINT('',(9.92999999999038,-46.7399999996802,14.));
#1146=CARTESIAN_POINT('Origin',(158.250000001012,-53.24,14.));
#1147=CARTESIAN_POINT('',(166.130000001009,-53.2400026385037,14.));
#1148=CARTESIAN_POINT('',(158.250000001015,-45.3600000000025,14.));
#1149=CARTESIAN_POINT('Origin',(166.130000000986,-235.599999999978,14.));
#1150=CARTESIAN_POINT('',(166.130000000986,-235.599999999978,14.));
#1151=CARTESIAN_POINT('Origin',(171.490000001012,-235.599999999979,14.));
#1152=CARTESIAN_POINT('Origin',(162.500000000013,136.999999999989,14.));
#1153=CARTESIAN_POINT('',(157.163335050689,137.499607064304,14.));
#1154=CARTESIAN_POINT('Origin',(156.345696237264,128.765527023782,14.));
#1155=CARTESIAN_POINT('',(156.345696237264,128.765527023782,14.));
#1156=CARTESIAN_POINT('Origin',(148.500000000013,129.499999999989,14.));
#1157=CARTESIAN_POINT('',(148.500000000012,121.619999999989,14.));
#1158=CARTESIAN_POINT('Origin',(-162.500000000012,121.619999999999,14.));
#1159=CARTESIAN_POINT('',(-162.500000000012,121.619999999999,14.));
#1160=CARTESIAN_POINT('Origin',(-162.500000000013,116.259999999999,14.));
#1161=CARTESIAN_POINT('Origin',(158.250000001015,-45.3600000000025,14.));
#1162=CARTESIAN_POINT('',(9.92999999999338,-45.3599999996802,14.));
#1163=CARTESIAN_POINT('Origin',(-9.93008146744785,-46.7399999980919,11.));
#1164=CARTESIAN_POINT('Origin',(9.92999999999038,-46.7399999996802,11.));
#1165=CARTESIAN_POINT('',(3.5527136788005E-14,45.0000000000007,-15.9999999999999));
#1166=CARTESIAN_POINT('',(1.73899892221989E-13,45.0000000000006,16.));
#1167=UNCERTAINTY_MEASURE_WITH_UNIT(LENGTH_MEASURE(0.01),#1173,
'DISTANCE_ACCURACY_VALUE',
'Maximum model space distance between geometric entities at asserted c
onnectivities');
#1168=UNCERTAINTY_MEASURE_WITH_UNIT(LENGTH_MEASURE(0.01),#1173,
'DISTANCE_ACCURACY_VALUE',
'Maximum model space distance between geometric entities at asserted c
onnectivities');
#1169=UNCERTAINTY_MEASURE_WITH_UNIT(LENGTH_MEASURE(0.01),#1173,
'DISTANCE_ACCURACY_VALUE',
'Maximum model space distance between geometric entities at asserted c
onnectivities');
#1170=(
GEOMETRIC_REPRESENTATION_CONTEXT(3)
GLOBAL_UNCERTAINTY_ASSIGNED_CONTEXT((#1167))
GLOBAL_UNIT_ASSIGNED_CONTEXT((#1173,#1175,#1176))
REPRESENTATION_CONTEXT('','3D')
);
#1171=(
GEOMETRIC_REPRESENTATION_CONTEXT(3)
GLOBAL_UNCERTAINTY_ASSIGNED_CONTEXT((#1168))
GLOBAL_UNIT_ASSIGNED_CONTEXT((#1173,#1175,#1176))
REPRESENTATION_CONTEXT('','3D')
);
#1172=(
GEOMETRIC_REPRESENTATION_CONTEXT(3)
GLOBAL_UNCERTAINTY_ASSIGNED_CONTEXT((#1169))
GLOBAL_UNIT_ASSIGNED_CONTEXT((#1173,#1175,#1176))
REPRESENTATION_CONTEXT('','3D')
);
#1173=(
LENGTH_UNIT()
NAMED_UNIT(*)
SI_UNIT(.MILLI.,.METRE.)
);
#1174=(
LENGTH_UNIT()
NAMED_UNIT(*)
SI_UNIT($,.METRE.)
);
#1175=(
NAMED_UNIT(*)
PLANE_ANGLE_UNIT()
SI_UNIT($,.RADIAN.)
);
#1176=(
NAMED_UNIT(*)
SI_UNIT($,.STERADIAN.)
SOLID_ANGLE_UNIT()
);
#1177=SHAPE_DEFINITION_REPRESENTATION(#1179,#1183);
#1178=SHAPE_DEFINITION_REPRESENTATION(#1180,#1184);
#1179=PRODUCT_DEFINITION_SHAPE('',$,#1186);
#1180=PRODUCT_DEFINITION_SHAPE('',$,#1187);
#1181=PRODUCT_DEFINITION_SHAPE($,$,#17);
#1182=PRODUCT_DEFINITION_SHAPE($,$,#18);
#1183=SHAPE_REPRESENTATION('',(#703,#767,#768),#1170);
#1184=SHAPE_REPRESENTATION('',(#704),#1171);
#1185=PRODUCT_DEFINITION_CONTEXT('part definition',#1193,'design');
#1186=PRODUCT_DEFINITION('_12_V2_9mm_2WD_belts_FT_NP',
'_12_V2_9mm_2WD_belts_FT_NP',#1188,#1185);
#1187=PRODUCT_DEFINITION('_V2_9mm_2WD_belt_FT_NP',
'_V2_9mm_2WD_belt_FT_NP',#1189,#1185);
#1188=PRODUCT_DEFINITION_FORMATION('',$,#1195);
#1189=PRODUCT_DEFINITION_FORMATION('',$,#1196);
#1190=PRODUCT_RELATED_PRODUCT_CATEGORY('_12_V2_9mm_2WD_belts_FT_NP',
'_12_V2_9mm_2WD_belts_FT_NP',(#1195));
#1191=PRODUCT_RELATED_PRODUCT_CATEGORY('_V2_9mm_2WD_belt_FT_NP',
'_V2_9mm_2WD_belt_FT_NP',(#1196));
#1192=APPLICATION_PROTOCOL_DEFINITION('international standard',
'automotive_design',2009,#1193);
#1193=APPLICATION_CONTEXT(
'Core Data for Automotive Mechanical Design Process');
#1194=PRODUCT_CONTEXT('part definition',#1193,'mechanical');
#1195=PRODUCT('_12_V2_9mm_2WD_belts_FT_NP','_12_V2_9mm_2WD_belts_FT_NP',
$,(#1194));
#1196=PRODUCT('_V2_9mm_2WD_belt_FT_NP','_V2_9mm_2WD_belt_FT_NP',$,(#1194));
#1197=PRESENTATION_STYLE_ASSIGNMENT((#1200));
#1198=PRESENTATION_STYLE_ASSIGNMENT((#1201));
#1199=PRESENTATION_STYLE_ASSIGNMENT((#1202));
#1200=SURFACE_STYLE_USAGE(.BOTH.,#1203);
#1201=SURFACE_STYLE_USAGE(.BOTH.,#1204);
#1202=SURFACE_STYLE_USAGE(.BOTH.,#1205);
#1203=SURFACE_SIDE_STYLE('',(#1206));
#1204=SURFACE_SIDE_STYLE('',(#1207));
#1205=SURFACE_SIDE_STYLE('',(#1208));
#1206=SURFACE_STYLE_FILL_AREA(#1209);
#1207=SURFACE_STYLE_FILL_AREA(#1210);
#1208=SURFACE_STYLE_FILL_AREA(#1211);
#1209=FILL_AREA_STYLE('Steel - Satin',(#1212));
#1210=FILL_AREA_STYLE('Rubber - Soft',(#1213));
#1211=FILL_AREA_STYLE('Gates Belt Face',(#1214));
#1212=FILL_AREA_STYLE_COLOUR('Steel - Satin',#1215);
#1213=FILL_AREA_STYLE_COLOUR('Rubber - Soft',#1216);
#1214=FILL_AREA_STYLE_COLOUR('Gates Belt Face',#1217);
#1215=COLOUR_RGB('Steel - Satin',0.627450980392157,0.627450980392157,0.627450980392157);
#1216=COLOUR_RGB('Rubber - Soft',0.152941176470588,0.152941176470588,0.152941176470588);
#1217=COLOUR_RGB('Gates Belt Face',0.482352941176471,0.309803921568627,
0.27843137254902);
ENDSEC;
END-ISO-10303-21;
