ISO-10303-21;
HEADER;
/* Generated by software containing ST-Developer
 * from STEP Tools, Inc. (www.steptools.com) 
 */

FILE_DESCRIPTION(
/* description */ (''),
/* implementation_level */ '2;1');

FILE_NAME(
/* name */ '_15_V2_9mm_AWD_belts_NP_FT.step',
/* time_stamp */ '2026-02-16T13:25:10+01:00',
/* author */ (''),
/* organization */ (''),
/* preprocessor_version */ 'ST-DEVELOPER v20.1',
/* originating_system */ 'Autodesk Translation Framework v14.24.0.0',
/* authorisation */ '');

FILE_SCHEMA (('AUTOMOTIVE_DESIGN { 1 0 10303 214 3 1 1 }'));
ENDSEC;

DATA;
#10=MECHANICAL_DESIGN_GEOMETRIC_PRESENTATION_REPRESENTATION('',(#22,#23,
#24,#25,#26,#27,#28,#29,#30,#31,#32,#33,#34,#35,#36,#37),#1172);
#11=ITEM_DEFINED_TRANSFORMATION($,$,#704,#767);
#12=ITEM_DEFINED_TRANSFORMATION($,$,#704,#768);
#13=(
REPRESENTATION_RELATIONSHIP($,$,#1184,#1183)
REPRESENTATION_RELATIONSHIP_WITH_TRANSFORMATION(#11)
SHAPE_REPRESENTATION_RELATIONSHIP()
);
#14=(
REPRESENTATION_RELATIONSHIP($,$,#1184,#1183)
REPRESENTATION_RELATIONSHIP_WITH_TRANSFORMATION(#12)
SHAPE_REPRESENTATION_RELATIONSHIP()
);
#15=CONTEXT_DEPENDENT_SHAPE_REPRESENTATION(#13,#1181);
#16=CONTEXT_DEPENDENT_SHAPE_REPRESENTATION(#14,#1182);
#17=NEXT_ASSEMBLY_USAGE_OCCURRENCE('_V2_9mm_AWD_belt_NP_FT:1',
'_V2_9mm_AWD_belt_NP_FT:1','_V2_9mm_AWD_belt_NP_FT:1',#1186,#1187,
'_V2_9mm_AWD_belt_NP_FT:1');
#18=NEXT_ASSEMBLY_USAGE_OCCURRENCE('_V2_9mm_AWD_belt_NP_FT:2',
'_V2_9mm_AWD_belt_NP_FT:2','_V2_9mm_AWD_belt_NP_FT:2',#1186,#1187,
'_V2_9mm_AWD_belt_NP_FT:2');
#19=SHAPE_REPRESENTATION_RELATIONSHIP('SRR','None',#1184,#20);
#20=ADVANCED_BREP_SHAPE_REPRESENTATION('',(#21),#1171);
#21=MANIFOLD_SOLID_BREP('Body1',#690);
#22=STYLED_ITEM('',(#1199),#671);
#23=STYLED_ITEM('',(#1199),#672);
#24=STYLED_ITEM('',(#1199),#673);
#25=STYLED_ITEM('',(#1199),#674);
#26=STYLED_ITEM('',(#1199),#675);
#27=STYLED_ITEM('',(#1199),#676);
#28=STYLED_ITEM('',(#1199),#677);
#29=STYLED_ITEM('',(#1199),#678);
#30=STYLED_ITEM('',(#1199),#679);
#31=STYLED_ITEM('',(#1199),#680);
#32=STYLED_ITEM('',(#1199),#681);
#33=STYLED_ITEM('',(#1199),#682);
#34=STYLED_ITEM('',(#1199),#683);
#35=STYLED_ITEM('',(#1199),#684);
#36=STYLED_ITEM('',(#1199),#685);
#37=STYLED_ITEM('',(#1198),#21);
#38=PLANE('',#708);
#39=PLANE('',#712);
#40=PLANE('',#716);
#41=PLANE('',#720);
#42=PLANE('',#724);
#43=PLANE('',#728);
#44=PLANE('',#732);
#45=PLANE('',#733);
#46=PLANE('',#737);
#47=PLANE('',#741);
#48=PLANE('',#745);
#49=PLANE('',#749);
#50=PLANE('',#753);
#51=PLANE('',#757);
#52=PLANE('',#761);
#53=PLANE('',#762);
#54=PLANE('',#763);
#55=PLANE('',#764);
#56=PLANE('',#765);
#57=PLANE('',#766);
#58=FACE_OUTER_BOUND('',#92,.T.);
#59=FACE_OUTER_BOUND('',#93,.T.);
#60=FACE_OUTER_BOUND('',#94,.T.);
#61=FACE_OUTER_BOUND('',#95,.T.);
#62=FACE_OUTER_BOUND('',#96,.T.);
#63=FACE_OUTER_BOUND('',#97,.T.);
#64=FACE_OUTER_BOUND('',#98,.T.);
#65=FACE_OUTER_BOUND('',#99,.T.);
#66=FACE_OUTER_BOUND('',#100,.T.);
#67=FACE_OUTER_BOUND('',#101,.T.);
#68=FACE_OUTER_BOUND('',#102,.T.);
#69=FACE_OUTER_BOUND('',#103,.T.);
#70=FACE_OUTER_BOUND('',#104,.T.);
#71=FACE_OUTER_BOUND('',#105,.T.);
#72=FACE_OUTER_BOUND('',#106,.T.);
#73=FACE_OUTER_BOUND('',#107,.T.);
#74=FACE_OUTER_BOUND('',#108,.T.);
#75=FACE_OUTER_BOUND('',#109,.T.);
#76=FACE_OUTER_BOUND('',#110,.T.);
#77=FACE_OUTER_BOUND('',#111,.T.);
#78=FACE_OUTER_BOUND('',#112,.T.);
#79=FACE_OUTER_BOUND('',#113,.T.);
#80=FACE_OUTER_BOUND('',#114,.T.);
#81=FACE_OUTER_BOUND('',#115,.T.);
#82=FACE_OUTER_BOUND('',#116,.T.);
#83=FACE_OUTER_BOUND('',#117,.T.);
#84=FACE_OUTER_BOUND('',#118,.T.);
#85=FACE_OUTER_BOUND('',#119,.T.);
#86=FACE_OUTER_BOUND('',#120,.T.);
#87=FACE_OUTER_BOUND('',#121,.T.);
#88=FACE_OUTER_BOUND('',#122,.T.);
#89=FACE_OUTER_BOUND('',#123,.T.);
#90=FACE_OUTER_BOUND('',#124,.T.);
#91=FACE_OUTER_BOUND('',#125,.T.);
#92=EDGE_LOOP('',(#450,#451,#452,#453));
#93=EDGE_LOOP('',(#454,#455,#456,#457));
#94=EDGE_LOOP('',(#458,#459,#460,#461));
#95=EDGE_LOOP('',(#462,#463,#464,#465));
#96=EDGE_LOOP('',(#466,#467,#468,#469));
#97=EDGE_LOOP('',(#470,#471,#472,#473));
#98=EDGE_LOOP('',(#474,#475,#476,#477));
#99=EDGE_LOOP('',(#478,#479,#480,#481));
#100=EDGE_LOOP('',(#482,#483,#484,#485));
#101=EDGE_LOOP('',(#486,#487,#488,#489));
#102=EDGE_LOOP('',(#490,#491,#492,#493));
#103=EDGE_LOOP('',(#494,#495,#496,#497));
#104=EDGE_LOOP('',(#498,#499,#500,#501));
#105=EDGE_LOOP('',(#502,#503,#504,#505));
#106=EDGE_LOOP('',(#506,#507,#508,#509));
#107=EDGE_LOOP('',(#510,#511,#512,#513));
#108=EDGE_LOOP('',(#514,#515,#516,#517));
#109=EDGE_LOOP('',(#518,#519,#520,#521));
#110=EDGE_LOOP('',(#522,#523,#524,#525));
#111=EDGE_LOOP('',(#526,#527,#528,#529));
#112=EDGE_LOOP('',(#530,#531,#532,#533));
#113=EDGE_LOOP('',(#534,#535,#536,#537));
#114=EDGE_LOOP('',(#538,#539,#540,#541));
#115=EDGE_LOOP('',(#542,#543,#544,#545));
#116=EDGE_LOOP('',(#546,#547,#548,#549));
#117=EDGE_LOOP('',(#550,#551,#552,#553));
#118=EDGE_LOOP('',(#554,#555,#556,#557));
#119=EDGE_LOOP('',(#558,#559,#560,#561));
#120=EDGE_LOOP('',(#562,#563,#564,#565));
#121=EDGE_LOOP('',(#566,#567,#568,#569));
#122=EDGE_LOOP('',(#570,#571,#572,#573,#574,#575,#576,#577,#578,#579,#580,
#581,#582,#583,#584,#585,#586,#587,#588,#589,#590,#591,#592,#593,#594,#595,
#596,#597,#598,#599,#600,#601));
#123=EDGE_LOOP('',(#602,#603,#604,#605,#606,#607,#608,#609,#610,#611,#612,
#613,#614,#615,#616,#617,#618,#619,#620,#621,#622,#623,#624,#625,#626,#627,
#628,#629,#630,#631,#632,#633));
#124=EDGE_LOOP('',(#634,#635,#636,#637));
#125=EDGE_LOOP('',(#638,#639,#640,#641));
#126=LINE('',#976,#194);
#127=LINE('',#979,#195);
#128=LINE('',#982,#196);
#129=LINE('',#984,#197);
#130=LINE('',#985,#198);
#131=LINE('',#991,#199);
#132=LINE('',#994,#200);
#133=LINE('',#996,#201);
#134=LINE('',#997,#202);
#135=LINE('',#1003,#203);
#136=LINE('',#1006,#204);
#137=LINE('',#1008,#205);
#138=LINE('',#1009,#206);
#139=LINE('',#1015,#207);
#140=LINE('',#1018,#208);
#141=LINE('',#1020,#209);
#142=LINE('',#1021,#210);
#143=LINE('',#1027,#211);
#144=LINE('',#1030,#212);
#145=LINE('',#1032,#213);
#146=LINE('',#1033,#214);
#147=LINE('',#1039,#215);
#148=LINE('',#1042,#216);
#149=LINE('',#1044,#217);
#150=LINE('',#1045,#218);
#151=LINE('',#1051,#219);
#152=LINE('',#1054,#220);
#153=LINE('',#1056,#221);
#154=LINE('',#1057,#222);
#155=LINE('',#1060,#223);
#156=LINE('',#1062,#224);
#157=LINE('',#1063,#225);
#158=LINE('',#1069,#226);
#159=LINE('',#1072,#227);
#160=LINE('',#1075,#228);
#161=LINE('',#1077,#229);
#162=LINE('',#1078,#230);
#163=LINE('',#1083,#231);
#164=LINE('',#1087,#232);
#165=LINE('',#1089,#233);
#166=LINE('',#1090,#234);
#167=LINE('',#1095,#235);
#168=LINE('',#1099,#236);
#169=LINE('',#1101,#237);
#170=LINE('',#1102,#238);
#171=LINE('',#1107,#239);
#172=LINE('',#1111,#240);
#173=LINE('',#1113,#241);
#174=LINE('',#1114,#242);
#175=LINE('',#1119,#243);
#176=LINE('',#1123,#244);
#177=LINE('',#1125,#245);
#178=LINE('',#1126,#246);
#179=LINE('',#1131,#247);
#180=LINE('',#1135,#248);
#181=LINE('',#1137,#249);
#182=LINE('',#1138,#250);
#183=LINE('',#1143,#251);
#184=LINE('',#1147,#252);
#185=LINE('',#1149,#253);
#186=LINE('',#1150,#254);
#187=LINE('',#1153,#255);
#188=LINE('',#1155,#256);
#189=LINE('',#1156,#257);
#190=LINE('',#1158,#258);
#191=LINE('',#1159,#259);
#192=LINE('',#1161,#260);
#193=LINE('',#1162,#261);
#194=VECTOR('',#777,10.);
#195=VECTOR('',#780,10.);
#196=VECTOR('',#783,10.);
#197=VECTOR('',#784,10.);
#198=VECTOR('',#785,10.);
#199=VECTOR('',#792,10.);
#200=VECTOR('',#795,10.);
#201=VECTOR('',#796,10.);
#202=VECTOR('',#797,10.);
#203=VECTOR('',#804,10.);
#204=VECTOR('',#807,10.);
#205=VECTOR('',#808,10.);
#206=VECTOR('',#809,10.);
#207=VECTOR('',#816,10.);
#208=VECTOR('',#819,10.);
#209=VECTOR('',#820,10.);
#210=VECTOR('',#821,10.);
#211=VECTOR('',#828,10.);
#212=VECTOR('',#831,10.);
#213=VECTOR('',#832,10.);
#214=VECTOR('',#833,10.);
#215=VECTOR('',#840,10.);
#216=VECTOR('',#843,10.);
#217=VECTOR('',#844,10.);
#218=VECTOR('',#845,10.);
#219=VECTOR('',#852,10.);
#220=VECTOR('',#855,10.);
#221=VECTOR('',#856,10.);
#222=VECTOR('',#857,10.);
#223=VECTOR('',#860,10.);
#224=VECTOR('',#861,10.);
#225=VECTOR('',#862,10.);
#226=VECTOR('',#867,10.);
#227=VECTOR('',#870,10.);
#228=VECTOR('',#873,10.);
#229=VECTOR('',#874,10.);
#230=VECTOR('',#875,10.);
#231=VECTOR('',#880,10.);
#232=VECTOR('',#885,10.);
#233=VECTOR('',#886,10.);
#234=VECTOR('',#887,10.);
#235=VECTOR('',#892,10.);
#236=VECTOR('',#897,10.);
#237=VECTOR('',#898,10.);
#238=VECTOR('',#899,10.);
#239=VECTOR('',#904,10.);
#240=VECTOR('',#909,10.);
#241=VECTOR('',#910,10.);
#242=VECTOR('',#911,10.);
#243=VECTOR('',#916,10.);
#244=VECTOR('',#921,10.);
#245=VECTOR('',#922,10.);
#246=VECTOR('',#923,10.);
#247=VECTOR('',#928,10.);
#248=VECTOR('',#933,10.);
#249=VECTOR('',#934,10.);
#250=VECTOR('',#935,10.);
#251=VECTOR('',#940,10.);
#252=VECTOR('',#945,10.);
#253=VECTOR('',#946,10.);
#254=VECTOR('',#947,10.);
#255=VECTOR('',#950,10.);
#256=VECTOR('',#951,10.);
#257=VECTOR('',#952,10.);
#258=VECTOR('',#955,10.);
#259=VECTOR('',#956,10.);
#260=VECTOR('',#959,10.);
#261=VECTOR('',#960,10.);
#262=CIRCLE('',#706,6.49999999999993);
#263=CIRCLE('',#707,6.49999999999993);
#264=CIRCLE('',#710,6.49999999999999);
#265=CIRCLE('',#711,6.49999999999999);
#266=CIRCLE('',#714,6.74000000428036);
#267=CIRCLE('',#715,6.74000000428036);
#268=CIRCLE('',#718,6.73999999999996);
#269=CIRCLE('',#719,6.73999999999996);
#270=CIRCLE('',#722,6.49999999999996);
#271=CIRCLE('',#723,6.49999999999996);
#272=CIRCLE('',#726,6.74000000000086);
#273=CIRCLE('',#727,6.74000000000086);
#274=CIRCLE('',#730,6.74000000981195);
#275=CIRCLE('',#731,6.74000000981195);
#276=CIRCLE('',#735,7.87999999999993);
#277=CIRCLE('',#736,7.87999999999993);
#278=CIRCLE('',#739,7.87999999999999);
#279=CIRCLE('',#740,7.87999999999999);
#280=CIRCLE('',#743,5.36000000428036);
#281=CIRCLE('',#744,5.36000000428036);
#282=CIRCLE('',#747,5.35999999999996);
#283=CIRCLE('',#748,5.35999999999996);
#284=CIRCLE('',#751,7.87999999999996);
#285=CIRCLE('',#752,7.87999999999996);
#286=CIRCLE('',#755,5.36000000000086);
#287=CIRCLE('',#756,5.36000000000086);
#288=CIRCLE('',#759,5.36000000981195);
#289=CIRCLE('',#760,5.36000000981195);
#290=VERTEX_POINT('',#972);
#291=VERTEX_POINT('',#973);
#292=VERTEX_POINT('',#975);
#293=VERTEX_POINT('',#977);
#294=VERTEX_POINT('',#981);
#295=VERTEX_POINT('',#983);
#296=VERTEX_POINT('',#987);
#297=VERTEX_POINT('',#989);
#298=VERTEX_POINT('',#993);
#299=VERTEX_POINT('',#995);
#300=VERTEX_POINT('',#999);
#301=VERTEX_POINT('',#1001);
#302=VERTEX_POINT('',#1005);
#303=VERTEX_POINT('',#1007);
#304=VERTEX_POINT('',#1011);
#305=VERTEX_POINT('',#1013);
#306=VERTEX_POINT('',#1017);
#307=VERTEX_POINT('',#1019);
#308=VERTEX_POINT('',#1023);
#309=VERTEX_POINT('',#1025);
#310=VERTEX_POINT('',#1029);
#311=VERTEX_POINT('',#1031);
#312=VERTEX_POINT('',#1035);
#313=VERTEX_POINT('',#1037);
#314=VERTEX_POINT('',#1041);
#315=VERTEX_POINT('',#1043);
#316=VERTEX_POINT('',#1047);
#317=VERTEX_POINT('',#1049);
#318=VERTEX_POINT('',#1053);
#319=VERTEX_POINT('',#1055);
#320=VERTEX_POINT('',#1059);
#321=VERTEX_POINT('',#1061);
#322=VERTEX_POINT('',#1065);
#323=VERTEX_POINT('',#1066);
#324=VERTEX_POINT('',#1068);
#325=VERTEX_POINT('',#1070);
#326=VERTEX_POINT('',#1074);
#327=VERTEX_POINT('',#1076);
#328=VERTEX_POINT('',#1080);
#329=VERTEX_POINT('',#1082);
#330=VERTEX_POINT('',#1086);
#331=VERTEX_POINT('',#1088);
#332=VERTEX_POINT('',#1092);
#333=VERTEX_POINT('',#1094);
#334=VERTEX_POINT('',#1098);
#335=VERTEX_POINT('',#1100);
#336=VERTEX_POINT('',#1104);
#337=VERTEX_POINT('',#1106);
#338=VERTEX_POINT('',#1110);
#339=VERTEX_POINT('',#1112);
#340=VERTEX_POINT('',#1116);
#341=VERTEX_POINT('',#1118);
#342=VERTEX_POINT('',#1122);
#343=VERTEX_POINT('',#1124);
#344=VERTEX_POINT('',#1128);
#345=VERTEX_POINT('',#1130);
#346=VERTEX_POINT('',#1134);
#347=VERTEX_POINT('',#1136);
#348=VERTEX_POINT('',#1140);
#349=VERTEX_POINT('',#1142);
#350=VERTEX_POINT('',#1146);
#351=VERTEX_POINT('',#1148);
#352=VERTEX_POINT('',#1152);
#353=VERTEX_POINT('',#1154);
#354=EDGE_CURVE('',#290,#291,#262,.T.);
#355=EDGE_CURVE('',#291,#292,#126,.T.);
#356=EDGE_CURVE('',#293,#292,#263,.T.);
#357=EDGE_CURVE('',#290,#293,#127,.T.);
#358=EDGE_CURVE('',#290,#294,#128,.T.);
#359=EDGE_CURVE('',#295,#293,#129,.T.);
#360=EDGE_CURVE('',#294,#295,#130,.T.);
#361=EDGE_CURVE('',#296,#294,#264,.T.);
#362=EDGE_CURVE('',#297,#295,#265,.T.);
#363=EDGE_CURVE('',#296,#297,#131,.T.);
#364=EDGE_CURVE('',#296,#298,#132,.T.);
#365=EDGE_CURVE('',#299,#297,#133,.T.);
#366=EDGE_CURVE('',#298,#299,#134,.T.);
#367=EDGE_CURVE('',#298,#300,#266,.T.);
#368=EDGE_CURVE('',#301,#299,#267,.T.);
#369=EDGE_CURVE('',#300,#301,#135,.T.);
#370=EDGE_CURVE('',#300,#302,#136,.T.);
#371=EDGE_CURVE('',#303,#301,#137,.T.);
#372=EDGE_CURVE('',#302,#303,#138,.T.);
#373=EDGE_CURVE('',#302,#304,#268,.T.);
#374=EDGE_CURVE('',#305,#303,#269,.T.);
#375=EDGE_CURVE('',#304,#305,#139,.T.);
#376=EDGE_CURVE('',#304,#306,#140,.T.);
#377=EDGE_CURVE('',#307,#305,#141,.T.);
#378=EDGE_CURVE('',#306,#307,#142,.T.);
#379=EDGE_CURVE('',#308,#306,#270,.T.);
#380=EDGE_CURVE('',#309,#307,#271,.T.);
#381=EDGE_CURVE('',#308,#309,#143,.T.);
#382=EDGE_CURVE('',#308,#310,#144,.T.);
#383=EDGE_CURVE('',#311,#309,#145,.T.);
#384=EDGE_CURVE('',#310,#311,#146,.T.);
#385=EDGE_CURVE('',#310,#312,#272,.T.);
#386=EDGE_CURVE('',#313,#311,#273,.T.);
#387=EDGE_CURVE('',#312,#313,#147,.T.);
#388=EDGE_CURVE('',#312,#314,#148,.T.);
#389=EDGE_CURVE('',#315,#313,#149,.T.);
#390=EDGE_CURVE('',#314,#315,#150,.T.);
#391=EDGE_CURVE('',#314,#316,#274,.T.);
#392=EDGE_CURVE('',#317,#315,#275,.T.);
#393=EDGE_CURVE('',#316,#317,#151,.T.);
#394=EDGE_CURVE('',#316,#318,#152,.T.);
#395=EDGE_CURVE('',#319,#317,#153,.T.);
#396=EDGE_CURVE('',#318,#319,#154,.T.);
#397=EDGE_CURVE('',#320,#291,#155,.T.);
#398=EDGE_CURVE('',#320,#321,#156,.T.);
#399=EDGE_CURVE('',#292,#321,#157,.T.);
#400=EDGE_CURVE('',#322,#323,#276,.T.);
#401=EDGE_CURVE('',#322,#324,#158,.T.);
#402=EDGE_CURVE('',#324,#325,#277,.T.);
#403=EDGE_CURVE('',#323,#325,#159,.T.);
#404=EDGE_CURVE('',#322,#326,#160,.T.);
#405=EDGE_CURVE('',#326,#327,#161,.T.);
#406=EDGE_CURVE('',#327,#324,#162,.T.);
#407=EDGE_CURVE('',#328,#326,#278,.T.);
#408=EDGE_CURVE('',#328,#329,#163,.T.);
#409=EDGE_CURVE('',#329,#327,#279,.T.);
#410=EDGE_CURVE('',#328,#330,#164,.T.);
#411=EDGE_CURVE('',#330,#331,#165,.T.);
#412=EDGE_CURVE('',#331,#329,#166,.T.);
#413=EDGE_CURVE('',#330,#332,#280,.T.);
#414=EDGE_CURVE('',#332,#333,#167,.T.);
#415=EDGE_CURVE('',#333,#331,#281,.T.);
#416=EDGE_CURVE('',#332,#334,#168,.T.);
#417=EDGE_CURVE('',#334,#335,#169,.T.);
#418=EDGE_CURVE('',#335,#333,#170,.T.);
#419=EDGE_CURVE('',#334,#336,#282,.T.);
#420=EDGE_CURVE('',#336,#337,#171,.T.);
#421=EDGE_CURVE('',#337,#335,#283,.T.);
#422=EDGE_CURVE('',#336,#338,#172,.T.);
#423=EDGE_CURVE('',#338,#339,#173,.T.);
#424=EDGE_CURVE('',#339,#337,#174,.T.);
#425=EDGE_CURVE('',#340,#338,#284,.T.);
#426=EDGE_CURVE('',#340,#341,#175,.T.);
#427=EDGE_CURVE('',#341,#339,#285,.T.);
#428=EDGE_CURVE('',#340,#342,#176,.T.);
#429=EDGE_CURVE('',#342,#343,#177,.T.);
#430=EDGE_CURVE('',#343,#341,#178,.T.);
#431=EDGE_CURVE('',#342,#344,#286,.T.);
#432=EDGE_CURVE('',#344,#345,#179,.T.);
#433=EDGE_CURVE('',#345,#343,#287,.T.);
#434=EDGE_CURVE('',#344,#346,#180,.T.);
#435=EDGE_CURVE('',#346,#347,#181,.T.);
#436=EDGE_CURVE('',#347,#345,#182,.T.);
#437=EDGE_CURVE('',#346,#348,#288,.T.);
#438=EDGE_CURVE('',#348,#349,#183,.T.);
#439=EDGE_CURVE('',#349,#347,#289,.T.);
#440=EDGE_CURVE('',#348,#350,#184,.T.);
#441=EDGE_CURVE('',#350,#351,#185,.T.);
#442=EDGE_CURVE('',#351,#349,#186,.T.);
#443=EDGE_CURVE('',#352,#323,#187,.T.);
#444=EDGE_CURVE('',#325,#353,#188,.T.);
#445=EDGE_CURVE('',#352,#353,#189,.T.);
#446=EDGE_CURVE('',#352,#320,#190,.T.);
#447=EDGE_CURVE('',#350,#318,#191,.T.);
#448=EDGE_CURVE('',#351,#319,#192,.T.);
#449=EDGE_CURVE('',#353,#321,#193,.T.);
#450=ORIENTED_EDGE('',*,*,#354,.T.);
#451=ORIENTED_EDGE('',*,*,#355,.T.);
#452=ORIENTED_EDGE('',*,*,#356,.F.);
#453=ORIENTED_EDGE('',*,*,#357,.F.);
#454=ORIENTED_EDGE('',*,*,#358,.F.);
#455=ORIENTED_EDGE('',*,*,#357,.T.);
#456=ORIENTED_EDGE('',*,*,#359,.F.);
#457=ORIENTED_EDGE('',*,*,#360,.F.);
#458=ORIENTED_EDGE('',*,*,#361,.T.);
#459=ORIENTED_EDGE('',*,*,#360,.T.);
#460=ORIENTED_EDGE('',*,*,#362,.F.);
#461=ORIENTED_EDGE('',*,*,#363,.F.);
#462=ORIENTED_EDGE('',*,*,#364,.F.);
#463=ORIENTED_EDGE('',*,*,#363,.T.);
#464=ORIENTED_EDGE('',*,*,#365,.F.);
#465=ORIENTED_EDGE('',*,*,#366,.F.);
#466=ORIENTED_EDGE('',*,*,#367,.F.);
#467=ORIENTED_EDGE('',*,*,#366,.T.);
#468=ORIENTED_EDGE('',*,*,#368,.F.);
#469=ORIENTED_EDGE('',*,*,#369,.F.);
#470=ORIENTED_EDGE('',*,*,#370,.F.);
#471=ORIENTED_EDGE('',*,*,#369,.T.);
#472=ORIENTED_EDGE('',*,*,#371,.F.);
#473=ORIENTED_EDGE('',*,*,#372,.F.);
#474=ORIENTED_EDGE('',*,*,#373,.F.);
#475=ORIENTED_EDGE('',*,*,#372,.T.);
#476=ORIENTED_EDGE('',*,*,#374,.F.);
#477=ORIENTED_EDGE('',*,*,#375,.F.);
#478=ORIENTED_EDGE('',*,*,#376,.F.);
#479=ORIENTED_EDGE('',*,*,#375,.T.);
#480=ORIENTED_EDGE('',*,*,#377,.F.);
#481=ORIENTED_EDGE('',*,*,#378,.F.);
#482=ORIENTED_EDGE('',*,*,#379,.T.);
#483=ORIENTED_EDGE('',*,*,#378,.T.);
#484=ORIENTED_EDGE('',*,*,#380,.F.);
#485=ORIENTED_EDGE('',*,*,#381,.F.);
#486=ORIENTED_EDGE('',*,*,#382,.F.);
#487=ORIENTED_EDGE('',*,*,#381,.T.);
#488=ORIENTED_EDGE('',*,*,#383,.F.);
#489=ORIENTED_EDGE('',*,*,#384,.F.);
#490=ORIENTED_EDGE('',*,*,#385,.F.);
#491=ORIENTED_EDGE('',*,*,#384,.T.);
#492=ORIENTED_EDGE('',*,*,#386,.F.);
#493=ORIENTED_EDGE('',*,*,#387,.F.);
#494=ORIENTED_EDGE('',*,*,#388,.F.);
#495=ORIENTED_EDGE('',*,*,#387,.T.);
#496=ORIENTED_EDGE('',*,*,#389,.F.);
#497=ORIENTED_EDGE('',*,*,#390,.F.);
#498=ORIENTED_EDGE('',*,*,#391,.F.);
#499=ORIENTED_EDGE('',*,*,#390,.T.);
#500=ORIENTED_EDGE('',*,*,#392,.F.);
#501=ORIENTED_EDGE('',*,*,#393,.F.);
#502=ORIENTED_EDGE('',*,*,#394,.F.);
#503=ORIENTED_EDGE('',*,*,#393,.T.);
#504=ORIENTED_EDGE('',*,*,#395,.F.);
#505=ORIENTED_EDGE('',*,*,#396,.F.);
#506=ORIENTED_EDGE('',*,*,#397,.F.);
#507=ORIENTED_EDGE('',*,*,#398,.T.);
#508=ORIENTED_EDGE('',*,*,#399,.F.);
#509=ORIENTED_EDGE('',*,*,#355,.F.);
#510=ORIENTED_EDGE('',*,*,#400,.F.);
#511=ORIENTED_EDGE('',*,*,#401,.T.);
#512=ORIENTED_EDGE('',*,*,#402,.T.);
#513=ORIENTED_EDGE('',*,*,#403,.F.);
#514=ORIENTED_EDGE('',*,*,#404,.T.);
#515=ORIENTED_EDGE('',*,*,#405,.T.);
#516=ORIENTED_EDGE('',*,*,#406,.T.);
#517=ORIENTED_EDGE('',*,*,#401,.F.);
#518=ORIENTED_EDGE('',*,*,#407,.F.);
#519=ORIENTED_EDGE('',*,*,#408,.T.);
#520=ORIENTED_EDGE('',*,*,#409,.T.);
#521=ORIENTED_EDGE('',*,*,#405,.F.);
#522=ORIENTED_EDGE('',*,*,#410,.T.);
#523=ORIENTED_EDGE('',*,*,#411,.T.);
#524=ORIENTED_EDGE('',*,*,#412,.T.);
#525=ORIENTED_EDGE('',*,*,#408,.F.);
#526=ORIENTED_EDGE('',*,*,#413,.T.);
#527=ORIENTED_EDGE('',*,*,#414,.T.);
#528=ORIENTED_EDGE('',*,*,#415,.T.);
#529=ORIENTED_EDGE('',*,*,#411,.F.);
#530=ORIENTED_EDGE('',*,*,#416,.T.);
#531=ORIENTED_EDGE('',*,*,#417,.T.);
#532=ORIENTED_EDGE('',*,*,#418,.T.);
#533=ORIENTED_EDGE('',*,*,#414,.F.);
#534=ORIENTED_EDGE('',*,*,#419,.T.);
#535=ORIENTED_EDGE('',*,*,#420,.T.);
#536=ORIENTED_EDGE('',*,*,#421,.T.);
#537=ORIENTED_EDGE('',*,*,#417,.F.);
#538=ORIENTED_EDGE('',*,*,#422,.T.);
#539=ORIENTED_EDGE('',*,*,#423,.T.);
#540=ORIENTED_EDGE('',*,*,#424,.T.);
#541=ORIENTED_EDGE('',*,*,#420,.F.);
#542=ORIENTED_EDGE('',*,*,#425,.F.);
#543=ORIENTED_EDGE('',*,*,#426,.T.);
#544=ORIENTED_EDGE('',*,*,#427,.T.);
#545=ORIENTED_EDGE('',*,*,#423,.F.);
#546=ORIENTED_EDGE('',*,*,#428,.T.);
#547=ORIENTED_EDGE('',*,*,#429,.T.);
#548=ORIENTED_EDGE('',*,*,#430,.T.);
#549=ORIENTED_EDGE('',*,*,#426,.F.);
#550=ORIENTED_EDGE('',*,*,#431,.T.);
#551=ORIENTED_EDGE('',*,*,#432,.T.);
#552=ORIENTED_EDGE('',*,*,#433,.T.);
#553=ORIENTED_EDGE('',*,*,#429,.F.);
#554=ORIENTED_EDGE('',*,*,#434,.T.);
#555=ORIENTED_EDGE('',*,*,#435,.T.);
#556=ORIENTED_EDGE('',*,*,#436,.T.);
#557=ORIENTED_EDGE('',*,*,#432,.F.);
#558=ORIENTED_EDGE('',*,*,#437,.T.);
#559=ORIENTED_EDGE('',*,*,#438,.T.);
#560=ORIENTED_EDGE('',*,*,#439,.T.);
#561=ORIENTED_EDGE('',*,*,#435,.F.);
#562=ORIENTED_EDGE('',*,*,#440,.T.);
#563=ORIENTED_EDGE('',*,*,#441,.T.);
#564=ORIENTED_EDGE('',*,*,#442,.T.);
#565=ORIENTED_EDGE('',*,*,#438,.F.);
#566=ORIENTED_EDGE('',*,*,#443,.T.);
#567=ORIENTED_EDGE('',*,*,#403,.T.);
#568=ORIENTED_EDGE('',*,*,#444,.T.);
#569=ORIENTED_EDGE('',*,*,#445,.F.);
#570=ORIENTED_EDGE('',*,*,#400,.T.);
#571=ORIENTED_EDGE('',*,*,#443,.F.);
#572=ORIENTED_EDGE('',*,*,#446,.T.);
#573=ORIENTED_EDGE('',*,*,#397,.T.);
#574=ORIENTED_EDGE('',*,*,#354,.F.);
#575=ORIENTED_EDGE('',*,*,#358,.T.);
#576=ORIENTED_EDGE('',*,*,#361,.F.);
#577=ORIENTED_EDGE('',*,*,#364,.T.);
#578=ORIENTED_EDGE('',*,*,#367,.T.);
#579=ORIENTED_EDGE('',*,*,#370,.T.);
#580=ORIENTED_EDGE('',*,*,#373,.T.);
#581=ORIENTED_EDGE('',*,*,#376,.T.);
#582=ORIENTED_EDGE('',*,*,#379,.F.);
#583=ORIENTED_EDGE('',*,*,#382,.T.);
#584=ORIENTED_EDGE('',*,*,#385,.T.);
#585=ORIENTED_EDGE('',*,*,#388,.T.);
#586=ORIENTED_EDGE('',*,*,#391,.T.);
#587=ORIENTED_EDGE('',*,*,#394,.T.);
#588=ORIENTED_EDGE('',*,*,#447,.F.);
#589=ORIENTED_EDGE('',*,*,#440,.F.);
#590=ORIENTED_EDGE('',*,*,#437,.F.);
#591=ORIENTED_EDGE('',*,*,#434,.F.);
#592=ORIENTED_EDGE('',*,*,#431,.F.);
#593=ORIENTED_EDGE('',*,*,#428,.F.);
#594=ORIENTED_EDGE('',*,*,#425,.T.);
#595=ORIENTED_EDGE('',*,*,#422,.F.);
#596=ORIENTED_EDGE('',*,*,#419,.F.);
#597=ORIENTED_EDGE('',*,*,#416,.F.);
#598=ORIENTED_EDGE('',*,*,#413,.F.);
#599=ORIENTED_EDGE('',*,*,#410,.F.);
#600=ORIENTED_EDGE('',*,*,#407,.T.);
#601=ORIENTED_EDGE('',*,*,#404,.F.);
#602=ORIENTED_EDGE('',*,*,#402,.F.);
#603=ORIENTED_EDGE('',*,*,#406,.F.);
#604=ORIENTED_EDGE('',*,*,#409,.F.);
#605=ORIENTED_EDGE('',*,*,#412,.F.);
#606=ORIENTED_EDGE('',*,*,#415,.F.);
#607=ORIENTED_EDGE('',*,*,#418,.F.);
#608=ORIENTED_EDGE('',*,*,#421,.F.);
#609=ORIENTED_EDGE('',*,*,#424,.F.);
#610=ORIENTED_EDGE('',*,*,#427,.F.);
#611=ORIENTED_EDGE('',*,*,#430,.F.);
#612=ORIENTED_EDGE('',*,*,#433,.F.);
#613=ORIENTED_EDGE('',*,*,#436,.F.);
#614=ORIENTED_EDGE('',*,*,#439,.F.);
#615=ORIENTED_EDGE('',*,*,#442,.F.);
#616=ORIENTED_EDGE('',*,*,#448,.T.);
#617=ORIENTED_EDGE('',*,*,#395,.T.);
#618=ORIENTED_EDGE('',*,*,#392,.T.);
#619=ORIENTED_EDGE('',*,*,#389,.T.);
#620=ORIENTED_EDGE('',*,*,#386,.T.);
#621=ORIENTED_EDGE('',*,*,#383,.T.);
#622=ORIENTED_EDGE('',*,*,#380,.T.);
#623=ORIENTED_EDGE('',*,*,#377,.T.);
#624=ORIENTED_EDGE('',*,*,#374,.T.);
#625=ORIENTED_EDGE('',*,*,#371,.T.);
#626=ORIENTED_EDGE('',*,*,#368,.T.);
#627=ORIENTED_EDGE('',*,*,#365,.T.);
#628=ORIENTED_EDGE('',*,*,#362,.T.);
#629=ORIENTED_EDGE('',*,*,#359,.T.);
#630=ORIENTED_EDGE('',*,*,#356,.T.);
#631=ORIENTED_EDGE('',*,*,#399,.T.);
#632=ORIENTED_EDGE('',*,*,#449,.F.);
#633=ORIENTED_EDGE('',*,*,#444,.F.);
#634=ORIENTED_EDGE('',*,*,#441,.F.);
#635=ORIENTED_EDGE('',*,*,#447,.T.);
#636=ORIENTED_EDGE('',*,*,#396,.T.);
#637=ORIENTED_EDGE('',*,*,#448,.F.);
#638=ORIENTED_EDGE('',*,*,#445,.T.);
#639=ORIENTED_EDGE('',*,*,#449,.T.);
#640=ORIENTED_EDGE('',*,*,#398,.F.);
#641=ORIENTED_EDGE('',*,*,#446,.F.);
#642=CYLINDRICAL_SURFACE('',#705,6.49999999999993);
#643=CYLINDRICAL_SURFACE('',#709,6.49999999999999);
#644=CYLINDRICAL_SURFACE('',#713,6.74000000428036);
#645=CYLINDRICAL_SURFACE('',#717,6.73999999999996);
#646=CYLINDRICAL_SURFACE('',#721,6.49999999999996);
#647=CYLINDRICAL_SURFACE('',#725,6.74000000000086);
#648=CYLINDRICAL_SURFACE('',#729,6.74000000981195);
#649=CYLINDRICAL_SURFACE('',#734,7.87999999999993);
#650=CYLINDRICAL_SURFACE('',#738,7.87999999999999);
#651=CYLINDRICAL_SURFACE('',#742,5.36000000428036);
#652=CYLINDRICAL_SURFACE('',#746,5.35999999999996);
#653=CYLINDRICAL_SURFACE('',#750,7.87999999999996);
#654=CYLINDRICAL_SURFACE('',#754,5.36000000000086);
#655=CYLINDRICAL_SURFACE('',#758,5.36000000981195);
#656=ADVANCED_FACE('',(#58),#642,.F.);
#657=ADVANCED_FACE('',(#59),#38,.T.);
#658=ADVANCED_FACE('',(#60),#643,.F.);
#659=ADVANCED_FACE('',(#61),#39,.T.);
#660=ADVANCED_FACE('',(#62),#644,.T.);
#661=ADVANCED_FACE('',(#63),#40,.T.);
#662=ADVANCED_FACE('',(#64),#645,.T.);
#663=ADVANCED_FACE('',(#65),#41,.T.);
#664=ADVANCED_FACE('',(#66),#646,.F.);
#665=ADVANCED_FACE('',(#67),#42,.T.);
#666=ADVANCED_FACE('',(#68),#647,.T.);
#667=ADVANCED_FACE('',(#69),#43,.T.);
#668=ADVANCED_FACE('',(#70),#648,.T.);
#669=ADVANCED_FACE('',(#71),#44,.T.);
#670=ADVANCED_FACE('',(#72),#45,.T.);
#671=ADVANCED_FACE('',(#73),#649,.T.);
#672=ADVANCED_FACE('',(#74),#46,.F.);
#673=ADVANCED_FACE('',(#75),#650,.T.);
#674=ADVANCED_FACE('',(#76),#47,.F.);
#675=ADVANCED_FACE('',(#77),#651,.F.);
#676=ADVANCED_FACE('',(#78),#48,.F.);
#677=ADVANCED_FACE('',(#79),#652,.F.);
#678=ADVANCED_FACE('',(#80),#49,.F.);
#679=ADVANCED_FACE('',(#81),#653,.T.);
#680=ADVANCED_FACE('',(#82),#50,.F.);
#681=ADVANCED_FACE('',(#83),#654,.F.);
#682=ADVANCED_FACE('',(#84),#51,.F.);
#683=ADVANCED_FACE('',(#85),#655,.F.);
#684=ADVANCED_FACE('',(#86),#52,.F.);
#685=ADVANCED_FACE('',(#87),#53,.F.);
#686=ADVANCED_FACE('',(#88),#54,.F.);
#687=ADVANCED_FACE('',(#89),#55,.F.);
#688=ADVANCED_FACE('',(#90),#56,.F.);
#689=ADVANCED_FACE('',(#91),#57,.F.);
#690=CLOSED_SHELL('',(#656,#657,#658,#659,#660,#661,#662,#663,#664,#665,
#666,#667,#668,#669,#670,#671,#672,#673,#674,#675,#676,#677,#678,#679,#680,
#681,#682,#683,#684,#685,#686,#687,#688,#689));
#691=DERIVED_UNIT_ELEMENT(#693,1.);
#692=DERIVED_UNIT_ELEMENT(#1174,-3.);
#693=(
MASS_UNIT()
NAMED_UNIT(*)
SI_UNIT(.KILO.,.GRAM.)
);
#694=DERIVED_UNIT((#691,#692));
#695=MEASURE_REPRESENTATION_ITEM('density measure',
POSITIVE_RATIO_MEASURE(7850.),#694);
#696=PROPERTY_DEFINITION_REPRESENTATION(#701,#698);
#697=PROPERTY_DEFINITION_REPRESENTATION(#702,#699);
#698=REPRESENTATION('material name',(#700),#1171);
#699=REPRESENTATION('density',(#695),#1171);
#700=DESCRIPTIVE_REPRESENTATION_ITEM('Steel','Steel');
#701=PROPERTY_DEFINITION('material property','material name',#1187);
#702=PROPERTY_DEFINITION('material property','density of part',#1187);
#703=AXIS2_PLACEMENT_3D('',#969,#769,#770);
#704=AXIS2_PLACEMENT_3D('',#970,#771,#772);
#705=AXIS2_PLACEMENT_3D('',#971,#773,#774);
#706=AXIS2_PLACEMENT_3D('',#974,#775,#776);
#707=AXIS2_PLACEMENT_3D('',#978,#778,#779);
#708=AXIS2_PLACEMENT_3D('',#980,#781,#782);
#709=AXIS2_PLACEMENT_3D('',#986,#786,#787);
#710=AXIS2_PLACEMENT_3D('',#988,#788,#789);
#711=AXIS2_PLACEMENT_3D('',#990,#790,#791);
#712=AXIS2_PLACEMENT_3D('',#992,#793,#794);
#713=AXIS2_PLACEMENT_3D('',#998,#798,#799);
#714=AXIS2_PLACEMENT_3D('',#1000,#800,#801);
#715=AXIS2_PLACEMENT_3D('',#1002,#802,#803);
#716=AXIS2_PLACEMENT_3D('',#1004,#805,#806);
#717=AXIS2_PLACEMENT_3D('',#1010,#810,#811);
#718=AXIS2_PLACEMENT_3D('',#1012,#812,#813);
#719=AXIS2_PLACEMENT_3D('',#1014,#814,#815);
#720=AXIS2_PLACEMENT_3D('',#1016,#817,#818);
#721=AXIS2_PLACEMENT_3D('',#1022,#822,#823);
#722=AXIS2_PLACEMENT_3D('',#1024,#824,#825);
#723=AXIS2_PLACEMENT_3D('',#1026,#826,#827);
#724=AXIS2_PLACEMENT_3D('',#1028,#829,#830);
#725=AXIS2_PLACEMENT_3D('',#1034,#834,#835);
#726=AXIS2_PLACEMENT_3D('',#1036,#836,#837);
#727=AXIS2_PLACEMENT_3D('',#1038,#838,#839);
#728=AXIS2_PLACEMENT_3D('',#1040,#841,#842);
#729=AXIS2_PLACEMENT_3D('',#1046,#846,#847);
#730=AXIS2_PLACEMENT_3D('',#1048,#848,#849);
#731=AXIS2_PLACEMENT_3D('',#1050,#850,#851);
#732=AXIS2_PLACEMENT_3D('',#1052,#853,#854);
#733=AXIS2_PLACEMENT_3D('',#1058,#858,#859);
#734=AXIS2_PLACEMENT_3D('',#1064,#863,#864);
#735=AXIS2_PLACEMENT_3D('',#1067,#865,#866);
#736=AXIS2_PLACEMENT_3D('',#1071,#868,#869);
#737=AXIS2_PLACEMENT_3D('',#1073,#871,#872);
#738=AXIS2_PLACEMENT_3D('',#1079,#876,#877);
#739=AXIS2_PLACEMENT_3D('',#1081,#878,#879);
#740=AXIS2_PLACEMENT_3D('',#1084,#881,#882);
#741=AXIS2_PLACEMENT_3D('',#1085,#883,#884);
#742=AXIS2_PLACEMENT_3D('',#1091,#888,#889);
#743=AXIS2_PLACEMENT_3D('',#1093,#890,#891);
#744=AXIS2_PLACEMENT_3D('',#1096,#893,#894);
#745=AXIS2_PLACEMENT_3D('',#1097,#895,#896);
#746=AXIS2_PLACEMENT_3D('',#1103,#900,#901);
#747=AXIS2_PLACEMENT_3D('',#1105,#902,#903);
#748=AXIS2_PLACEMENT_3D('',#1108,#905,#906);
#749=AXIS2_PLACEMENT_3D('',#1109,#907,#908);
#750=AXIS2_PLACEMENT_3D('',#1115,#912,#913);
#751=AXIS2_PLACEMENT_3D('',#1117,#914,#915);
#752=AXIS2_PLACEMENT_3D('',#1120,#917,#918);
#753=AXIS2_PLACEMENT_3D('',#1121,#919,#920);
#754=AXIS2_PLACEMENT_3D('',#1127,#924,#925);
#755=AXIS2_PLACEMENT_3D('',#1129,#926,#927);
#756=AXIS2_PLACEMENT_3D('',#1132,#929,#930);
#757=AXIS2_PLACEMENT_3D('',#1133,#931,#932);
#758=AXIS2_PLACEMENT_3D('',#1139,#936,#937);
#759=AXIS2_PLACEMENT_3D('',#1141,#938,#939);
#760=AXIS2_PLACEMENT_3D('',#1144,#941,#942);
#761=AXIS2_PLACEMENT_3D('',#1145,#943,#944);
#762=AXIS2_PLACEMENT_3D('',#1151,#948,#949);
#763=AXIS2_PLACEMENT_3D('',#1157,#953,#954);
#764=AXIS2_PLACEMENT_3D('',#1160,#957,#958);
#765=AXIS2_PLACEMENT_3D('',#1163,#961,#962);
#766=AXIS2_PLACEMENT_3D('',#1164,#963,#964);
#767=AXIS2_PLACEMENT_3D('',#1165,#965,#966);
#768=AXIS2_PLACEMENT_3D('',#1166,#967,#968);
#769=DIRECTION('axis',(0.,0.,1.));
#770=DIRECTION('refdir',(1.,0.,0.));
#771=DIRECTION('axis',(0.,0.,1.));
#772=DIRECTION('refdir',(1.,0.,0.));
#773=DIRECTION('center_axis',(-4.40687737788829E-17,-1.70275430496367E-28,
1.));
#774=DIRECTION('ref_axis',(-1.,1.83628753228725E-13,-4.40687737788829E-17));
#775=DIRECTION('center_axis',(9.96429930907291E-29,2.29370861276897E-28,
-1.));
#776=DIRECTION('ref_axis',(-1.,1.83628753228725E-13,-9.96505782917418E-29));
#777=DIRECTION('',(-4.40687737788829E-17,-1.70275430496367E-28,1.));
#778=DIRECTION('center_axis',(9.96429930907291E-29,2.29370861276897E-28,
-1.));
#779=DIRECTION('ref_axis',(-1.,1.83628753228725E-13,-9.96505782917418E-29));
#780=DIRECTION('',(-4.40687737788829E-17,-1.70275430496367E-28,1.));
#781=DIRECTION('center_axis',(1.,-1.77532487246127E-13,4.40687737788829E-17));
#782=DIRECTION('ref_axis',(1.77532487246127E-13,1.,7.03741775246528E-17));
#783=DIRECTION('',(-1.77532487246127E-13,-1.,-7.03741775246528E-17));
#784=DIRECTION('',(1.77532487246127E-13,1.,7.03741775246528E-17));
#785=DIRECTION('',(-4.40687737788829E-17,-1.70275430496367E-28,1.));
#786=DIRECTION('center_axis',(-4.40687737788829E-17,-1.70275430496367E-28,
1.));
#787=DIRECTION('ref_axis',(-0.785510057213715,-0.618848891100328,-3.4616465012494E-17));
#788=DIRECTION('center_axis',(-9.39175301715754E-16,-7.3991107902182E-16,
-1.));
#789=DIRECTION('ref_axis',(-0.785510057213715,-0.618848891100328,1.19562479574995E-15));
#790=DIRECTION('center_axis',(-9.39175301715754E-16,-7.3991107902182E-16,
-1.));
#791=DIRECTION('ref_axis',(-0.785510057213715,-0.618848891100328,1.19562479574995E-15));
#792=DIRECTION('',(-4.40687737788829E-17,-1.70275430496367E-28,1.));
#793=DIRECTION('center_axis',(0.78551005742972,0.618848890826152,3.4616465022013E-17));
#794=DIRECTION('ref_axis',(-0.618848890826152,0.78551005742972,1.11710704814831E-16));
#795=DIRECTION('',(0.618848890826152,-0.78551005742972,-1.11710704814831E-16));
#796=DIRECTION('',(-0.618848890826152,0.78551005742972,1.11710704814831E-16));
#797=DIRECTION('',(-4.40687737788829E-17,-1.70275430496367E-28,1.));
#798=DIRECTION('center_axis',(-4.40687737788829E-17,-1.70275430496367E-28,
1.));
#799=DIRECTION('ref_axis',(0.327460125928864,-0.94486499878377,1.44307662110027E-17));
#800=DIRECTION('center_axis',(-3.88185888653156E-16,-3.05794569973165E-16,
-1.));
#801=DIRECTION('ref_axis',(0.78553973185339,0.61881122297491,-4.94164550706051E-16));
#802=DIRECTION('center_axis',(3.88185888653156E-16,3.05794569973165E-16,
1.));
#803=DIRECTION('ref_axis',(0.78553973185339,0.61881122297491,-4.94164550706051E-16));
#804=DIRECTION('',(-4.40687737788829E-17,-1.70275430496367E-28,1.));
#805=DIRECTION('center_axis',(-1.,-1.10018282699805E-15,-4.40687737788829E-17));
#806=DIRECTION('ref_axis',(1.10018282699805E-15,-1.,-3.17878664786473E-17));
#807=DIRECTION('',(-1.10018282699805E-15,1.,3.17878664786473E-17));
#808=DIRECTION('',(1.10018282699805E-15,-1.,-3.17878664786473E-17));
#809=DIRECTION('',(-4.40687737788829E-17,-1.70275430496367E-28,1.));
#810=DIRECTION('center_axis',(-4.40687737788829E-17,-1.70275430496367E-28,
1.));
#811=DIRECTION('ref_axis',(-1.,5.79844448091137E-15,-4.40687737788829E-17));
#812=DIRECTION('center_axis',(9.96429930907291E-29,2.29370861276897E-28,
-1.));
#813=DIRECTION('ref_axis',(-1.,5.79844448091137E-15,-9.96500155913696E-29));
#814=DIRECTION('center_axis',(-9.96429930907291E-29,-2.29370861276897E-28,
1.));
#815=DIRECTION('ref_axis',(-1.,5.79844448091137E-15,-9.96500155913696E-29));
#816=DIRECTION('',(-4.40687737788829E-17,-1.70275430496367E-28,1.));
#817=DIRECTION('center_axis',(3.20562618964676E-14,1.,1.71688110650079E-28));
#818=DIRECTION('ref_axis',(-1.,3.20562618964676E-14,-9.96429930907291E-29));
#819=DIRECTION('',(1.,-3.20562618964676E-14,9.96429930907291E-29));
#820=DIRECTION('',(-1.,3.20562618964676E-14,-9.96429930907291E-29));
#821=DIRECTION('',(-4.40687737788829E-17,-1.70275430496367E-28,1.));
#822=DIRECTION('center_axis',(-4.40687737788829E-17,-1.70275430496367E-28,
1.));
#823=DIRECTION('ref_axis',(0.9956467306157,-0.0932072304827734,4.38769305351718E-17));
#824=DIRECTION('center_axis',(9.96429930907291E-29,2.29370861276897E-28,
-1.));
#825=DIRECTION('ref_axis',(0.9956467306157,-0.0932072304827734,7.78336438817227E-29));
#826=DIRECTION('center_axis',(9.96429930907291E-29,2.29370861276897E-28,
-1.));
#827=DIRECTION('ref_axis',(0.9956467306157,-0.0932072304827734,7.78336438817227E-29));
#828=DIRECTION('',(-4.40687737788829E-17,-1.70275430496367E-28,1.));
#829=DIRECTION('center_axis',(-0.995646730615719,0.0932072304825626,-4.38769305351726E-17));
#830=DIRECTION('ref_axis',(-0.0932072304825625,-0.995646730615719,-2.37658984765407E-28));
#831=DIRECTION('',(0.0932072304825625,0.995646730615719,2.37658984765407E-28));
#832=DIRECTION('',(-0.0932072304825625,-0.995646730615719,-2.37658984765407E-28));
#833=DIRECTION('',(-4.40687737788829E-17,-1.70275430496367E-28,1.));
#834=DIRECTION('center_axis',(-4.40687737788829E-17,-1.70275430496367E-28,
1.));
#835=DIRECTION('ref_axis',(-0.995646730615449,0.0932072304854456,-4.38769305351607E-17));
#836=DIRECTION('center_axis',(9.96429930907291E-29,2.29370861276897E-28,
-1.));
#837=DIRECTION('ref_axis',(-0.995646730615449,0.0932072304854456,-7.78327154260988E-29));
#838=DIRECTION('center_axis',(-9.96429930907291E-29,-2.29370861276897E-28,
1.));
#839=DIRECTION('ref_axis',(-0.995646730615449,0.0932072304854456,-7.78327154260988E-29));
#840=DIRECTION('',(-4.40687737788829E-17,-1.70275430496367E-28,1.));
#841=DIRECTION('center_axis',(1.,4.89619926272475E-12,4.40687737788829E-17));
#842=DIRECTION('ref_axis',(-4.89619926272475E-12,1.,2.29370861276409E-28));
#843=DIRECTION('',(4.89619926272475E-12,-1.,-2.29370861276409E-28));
#844=DIRECTION('',(-4.89619926272475E-12,1.,2.29370861276409E-28));
#845=DIRECTION('',(-4.40687737788829E-17,-1.70275430496367E-28,1.));
#846=DIRECTION('center_axis',(-4.40687737788829E-17,-1.70275430496367E-28,
1.));
#847=DIRECTION('ref_axis',(1.,-6.31827843352755E-9,4.40687737788829E-17));
#848=DIRECTION('center_axis',(9.96429930907291E-29,2.29370861276897E-28,
-1.));
#849=DIRECTION('ref_axis',(1.,-6.31827843352755E-9,9.96408715652723E-29));
#850=DIRECTION('center_axis',(-9.96429930907291E-29,-2.29370861276897E-28,
1.));
#851=DIRECTION('ref_axis',(1.,-6.31827843352755E-9,9.96408715652723E-29));
#852=DIRECTION('',(-4.40687737788829E-17,-1.70275430496367E-28,1.));
#853=DIRECTION('center_axis',(2.15732915302123E-10,-1.,9.3368096106118E-27));
#854=DIRECTION('ref_axis',(1.,2.15732915302123E-10,-8.75512669729844E-17));
#855=DIRECTION('',(-1.,-2.15732915302123E-10,8.75512669729844E-17));
#856=DIRECTION('',(1.,2.15732915302123E-10,-8.75512669729844E-17));
#857=DIRECTION('',(-4.40687737788829E-17,-1.70275430496367E-28,1.));
#858=DIRECTION('center_axis',(-3.0002927764117E-12,-1.,-3.02494654130471E-28));
#859=DIRECTION('ref_axis',(1.,-3.0002927764117E-12,6.7550113053491E-17));
#860=DIRECTION('',(-1.,3.0002927764117E-12,-6.7550113053491E-17));
#861=DIRECTION('',(-4.40687737788829E-17,-1.70275430496367E-28,1.));
#862=DIRECTION('',(1.,-3.0002927764117E-12,6.7550113053491E-17));
#863=DIRECTION('center_axis',(-4.40687737788829E-17,-1.70275430496367E-28,
1.));
#864=DIRECTION('ref_axis',(-1.,1.83628753228725E-13,-4.40687737788829E-17));
#865=DIRECTION('center_axis',(9.96429930907291E-29,2.29370861276897E-28,
-1.));
#866=DIRECTION('ref_axis',(-1.,1.83628753228725E-13,-9.96478108484791E-29));
#867=DIRECTION('',(-4.40687737788829E-17,-1.70275430496367E-28,1.));
#868=DIRECTION('center_axis',(9.96429930907291E-29,2.29370861276897E-28,
-1.));
#869=DIRECTION('ref_axis',(-1.,1.83628753228725E-13,-9.96478108484791E-29));
#870=DIRECTION('',(-4.40687737788829E-17,-1.70275430496367E-28,1.));
#871=DIRECTION('center_axis',(1.,-1.77532487246127E-13,4.40687737788829E-17));
#872=DIRECTION('ref_axis',(1.77532487246127E-13,1.,7.03741775246528E-17));
#873=DIRECTION('',(-1.77532487246127E-13,-1.,-7.03741775246528E-17));
#874=DIRECTION('',(-4.40687737788829E-17,-1.70275430496367E-28,1.));
#875=DIRECTION('',(1.77532487246127E-13,1.,7.03741775246528E-17));
#876=DIRECTION('center_axis',(-4.40687737788829E-17,-1.70275430496367E-28,
1.));
#877=DIRECTION('ref_axis',(-0.785510057213715,-0.618848891100328,-3.4616465012494E-17));
#878=DIRECTION('center_axis',(-9.39175301715754E-16,-7.3991107902182E-16,
-1.));
#879=DIRECTION('ref_axis',(-0.785510057213715,-0.618848891100328,1.19562479574995E-15));
#880=DIRECTION('',(-4.40687737788829E-17,-1.70275430496367E-28,1.));
#881=DIRECTION('center_axis',(-9.39175301715754E-16,-7.3991107902182E-16,
-1.));
#882=DIRECTION('ref_axis',(-0.785510057213715,-0.618848891100328,1.19562479574995E-15));
#883=DIRECTION('center_axis',(0.78551005742972,0.618848890826152,3.4616465022013E-17));
#884=DIRECTION('ref_axis',(-0.618848890826152,0.78551005742972,1.11710704814831E-16));
#885=DIRECTION('',(0.618848890826152,-0.78551005742972,-1.11710704814831E-16));
#886=DIRECTION('',(-4.40687737788829E-17,-1.70275430496367E-28,1.));
#887=DIRECTION('',(-0.618848890826152,0.78551005742972,1.11710704814831E-16));
#888=DIRECTION('center_axis',(-4.40687737788829E-17,-1.70275430496367E-28,
1.));
#889=DIRECTION('ref_axis',(0.327457209608768,-0.944866009482423,1.44306376923522E-17));
#890=DIRECTION('center_axis',(-3.88185888653156E-16,-3.05794569973165E-16,
-1.));
#891=DIRECTION('ref_axis',(0.78553973185339,0.61881122297491,-4.94164550706051E-16));
#892=DIRECTION('',(-4.40687737788829E-17,-1.70275430496367E-28,1.));
#893=DIRECTION('center_axis',(3.88185888653156E-16,3.05794569973165E-16,
1.));
#894=DIRECTION('ref_axis',(0.78553973185339,0.61881122297491,-4.94164550706051E-16));
#895=DIRECTION('center_axis',(-1.,-1.10018282699805E-15,-4.40687737788829E-17));
#896=DIRECTION('ref_axis',(1.10018282699805E-15,-1.,-3.17878664786473E-17));
#897=DIRECTION('',(-1.10018282699805E-15,1.,3.17878664786473E-17));
#898=DIRECTION('',(-4.40687737788829E-17,-1.70275430496367E-28,1.));
#899=DIRECTION('',(1.10018282699805E-15,-1.,-3.17878664786473E-17));
#900=DIRECTION('center_axis',(-4.40687737788829E-17,-1.70275430496367E-28,
1.));
#901=DIRECTION('ref_axis',(-1.,5.79844448091137E-15,-4.40687737788829E-17));
#902=DIRECTION('center_axis',(9.96429930907291E-29,2.29370861276897E-28,
-1.));
#903=DIRECTION('ref_axis',(-1.,5.79844448091137E-15,-9.96424411824472E-29));
#904=DIRECTION('',(-4.40687737788829E-17,-1.70275430496367E-28,1.));
#905=DIRECTION('center_axis',(-9.96429930907291E-29,-2.29370861276897E-28,
1.));
#906=DIRECTION('ref_axis',(-1.,5.79844448091137E-15,-9.96424411824472E-29));
#907=DIRECTION('center_axis',(3.20562618964676E-14,1.,1.71688110650079E-28));
#908=DIRECTION('ref_axis',(-1.,3.20562618964676E-14,-9.96429930907291E-29));
#909=DIRECTION('',(1.,-3.20562618964676E-14,9.96429930907291E-29));
#910=DIRECTION('',(-4.40687737788829E-17,-1.70275430496367E-28,1.));
#911=DIRECTION('',(-1.,3.20562618964676E-14,-9.96429930907291E-29));
#912=DIRECTION('center_axis',(-4.40687737788829E-17,-1.70275430496367E-28,
1.));
#913=DIRECTION('ref_axis',(0.995646730615699,-0.0932072304827734,4.38769305351718E-17));
#914=DIRECTION('center_axis',(9.96429930907291E-29,2.29370861276897E-28,
-1.));
#915=DIRECTION('ref_axis',(0.995646730615699,-0.0932072304827734,7.78193013062055E-29));
#916=DIRECTION('',(-4.40687737788829E-17,-1.70275430496367E-28,1.));
#917=DIRECTION('center_axis',(9.96429930907291E-29,2.29370861276897E-28,
-1.));
#918=DIRECTION('ref_axis',(0.995646730615699,-0.0932072304827734,7.78193013062055E-29));
#919=DIRECTION('center_axis',(-0.995646730615719,0.0932072304825626,-4.38769305351726E-17));
#920=DIRECTION('ref_axis',(-0.0932072304825625,-0.995646730615719,-2.37658984765407E-28));
#921=DIRECTION('',(0.0932072304825625,0.995646730615719,2.37658984765407E-28));
#922=DIRECTION('',(-4.40687737788829E-17,-1.70275430496367E-28,1.));
#923=DIRECTION('',(-0.0932072304825625,-0.995646730615719,-2.37658984765407E-28));
#924=DIRECTION('center_axis',(-4.40687737788829E-17,-1.70275430496367E-28,
1.));
#925=DIRECTION('ref_axis',(-0.995646730615449,0.0932072304854456,-4.38769305351607E-17));
#926=DIRECTION('center_axis',(9.96429930907291E-29,2.29370861276897E-28,
-1.));
#927=DIRECTION('ref_axis',(-0.995646730615449,0.0932072304854456,-7.78248168870622E-29));
#928=DIRECTION('',(-4.40687737788829E-17,-1.70275430496367E-28,1.));
#929=DIRECTION('center_axis',(-9.96429930907291E-29,-2.29370861276897E-28,
1.));
#930=DIRECTION('ref_axis',(-0.995646730615449,0.0932072304854456,-7.78248168870622E-29));
#931=DIRECTION('center_axis',(1.,4.89619926272475E-12,4.40687737788829E-17));
#932=DIRECTION('ref_axis',(-4.89619926272475E-12,1.,2.29370861276409E-28));
#933=DIRECTION('',(4.89619926272475E-12,-1.,-2.29370861276409E-28));
#934=DIRECTION('',(-4.40687737788829E-17,-1.70275430496367E-28,1.));
#935=DIRECTION('',(-4.89619926272475E-12,1.,2.29370861276409E-28));
#936=DIRECTION('center_axis',(-4.40687737788829E-17,-1.70275430496367E-28,
1.));
#937=DIRECTION('ref_axis',(1.,-6.31827843352755E-9,4.40687737788829E-17));
#938=DIRECTION('center_axis',(9.96429930907291E-29,2.29370861276897E-28,
-1.));
#939=DIRECTION('ref_axis',(1.,-6.31827843352755E-9,9.96366919554427E-29));
#940=DIRECTION('',(-4.40687737788829E-17,-1.70275430496367E-28,1.));
#941=DIRECTION('center_axis',(-9.96429930907291E-29,-2.29370861276897E-28,
1.));
#942=DIRECTION('ref_axis',(1.,-6.31827843352755E-9,9.96366919554427E-29));
#943=DIRECTION('center_axis',(2.15732915302123E-10,-1.,9.3368096106118E-27));
#944=DIRECTION('ref_axis',(1.,2.15732915302123E-10,-8.75512669729844E-17));
#945=DIRECTION('',(-1.,-2.15732915302123E-10,8.75512669729844E-17));
#946=DIRECTION('',(-4.40687737788829E-17,-1.70275430496367E-28,1.));
#947=DIRECTION('',(1.,2.15732915302123E-10,-8.75512669729844E-17));
#948=DIRECTION('center_axis',(-3.0002927764117E-12,-1.,-3.02494654130471E-28));
#949=DIRECTION('ref_axis',(1.,-3.0002927764117E-12,6.7550113053491E-17));
#950=DIRECTION('',(-1.,3.0002927764117E-12,-6.7550113053491E-17));
#951=DIRECTION('',(1.,-3.0002927764117E-12,6.7550113053491E-17));
#952=DIRECTION('',(-4.40687737788829E-17,-1.70275430496367E-28,1.));
#953=DIRECTION('center_axis',(-2.203438688951E-17,2.20343868891918E-17,
1.));
#954=DIRECTION('ref_axis',(1.,-5.27355936696948E-16,2.203438688951E-17));
#955=DIRECTION('',(-3.0002927764117E-12,-1.,-3.02494654130471E-28));
#956=DIRECTION('',(2.15732915302123E-10,-1.,9.3368096106118E-27));
#957=DIRECTION('center_axis',(2.203438688951E-17,-2.20343868891918E-17,
-1.));
#958=DIRECTION('ref_axis',(-1.,5.27355936696948E-16,-2.203438688951E-17));
#959=DIRECTION('',(2.15732915302123E-10,-1.,9.3368096106118E-27));
#960=DIRECTION('',(-3.0002927764117E-12,-1.,-3.02494654130471E-28));
#961=DIRECTION('center_axis',(1.,2.15732915302123E-10,4.40687737788829E-17));
#962=DIRECTION('ref_axis',(4.40687737788829E-17,1.70275430496367E-28,-1.));
#963=DIRECTION('center_axis',(-1.,3.0002927764117E-12,-4.40687737788829E-17));
#964=DIRECTION('ref_axis',(-4.40687737788829E-17,-1.70275430496367E-28,
1.));
#965=DIRECTION('',(-1.11022302462518E-16,-1.57772181044202E-30,1.));
#966=DIRECTION('',(0.999999999999999,5.2735593669694E-16,1.11022302462515E-16));
#967=DIRECTION('',(1.22464679914612E-16,2.92802305336994E-29,-1.));
#968=DIRECTION('',(-0.999999999999998,5.27355936696717E-16,-1.22464679914612E-16));
#969=CARTESIAN_POINT('',(0.,0.,0.));
#970=CARTESIAN_POINT('',(0.,0.,0.));
#971=CARTESIAN_POINT('Origin',(-158.250000001011,-53.2400000000001,8.00000000000002));
#972=CARTESIAN_POINT('',(-164.750000001011,-53.2399999999989,5.00000000000002));
#973=CARTESIAN_POINT('',(-158.250000001009,-46.7400000000001,5.00000000000002));
#974=CARTESIAN_POINT('Origin',(-158.250000001011,-53.2400000000001,5.00000000000002));
#975=CARTESIAN_POINT('',(-158.250000001009,-46.7400000000001,14.));
#976=CARTESIAN_POINT('',(-158.250000001009,-46.7400000000001,8.00000000000002));
#977=CARTESIAN_POINT('',(-164.750000001011,-53.2399999999989,14.));
#978=CARTESIAN_POINT('Origin',(-158.250000001011,-53.2400000000001,14.));
#979=CARTESIAN_POINT('',(-164.750000001011,-53.2399999999989,8.00000000000002));
#980=CARTESIAN_POINT('Origin',(-164.750000001039,-210.999999999978,8.00000000000001));
#981=CARTESIAN_POINT('',(-164.750000001039,-210.999999999978,5.00000000000001));
#982=CARTESIAN_POINT('',(-164.750000001011,-53.2399999999989,5.00000000000002));
#983=CARTESIAN_POINT('',(-164.750000001039,-210.999999999978,14.));
#984=CARTESIAN_POINT('',(-164.750000001011,-53.2399999999989,14.));
#985=CARTESIAN_POINT('',(-164.750000001039,-210.999999999978,8.00000000000001));
#986=CARTESIAN_POINT('Origin',(-158.250000001039,-210.999999999979,8.));
#987=CARTESIAN_POINT('',(-163.355815372929,-215.022517792131,5.));
#988=CARTESIAN_POINT('Origin',(-158.250000001039,-210.999999999979,5.));
#989=CARTESIAN_POINT('',(-163.355815372929,-215.022517792131,14.));
#990=CARTESIAN_POINT('Origin',(-158.250000001039,-210.999999999979,14.));
#991=CARTESIAN_POINT('',(-163.355815372929,-215.022517792131,8.00000000000001));
#992=CARTESIAN_POINT('Origin',(-157.205462204013,-222.829212354479,8.00000000000001));
#993=CARTESIAN_POINT('',(-157.205462204013,-222.829212354479,5.));
#994=CARTESIAN_POINT('',(-163.355815372929,-215.022517792131,5.));
#995=CARTESIAN_POINT('',(-157.205462204013,-222.829212354479,14.));
#996=CARTESIAN_POINT('',(-163.355815372929,-215.022517792131,14.));
#997=CARTESIAN_POINT('',(-157.205462204013,-222.829212354479,8.00000000000001));
#998=CARTESIAN_POINT('Origin',(-162.500000000067,-226.999999999979,8.00000000000001));
#999=CARTESIAN_POINT('',(-169.240000004348,-226.99999999998,5.00000000000001));
#1000=CARTESIAN_POINT('Origin',(-162.500000000067,-226.999999999979,5.00000000000001));
#1001=CARTESIAN_POINT('',(-169.240000004348,-226.99999999998,14.));
#1002=CARTESIAN_POINT('Origin',(-162.500000000067,-226.999999999979,14.));
#1003=CARTESIAN_POINT('',(-169.240000004348,-226.99999999998,8.00000000000001));
#1004=CARTESIAN_POINT('Origin',(-169.240000000012,122.259999999999,8.00000000000002));
#1005=CARTESIAN_POINT('',(-169.240000000012,122.259999999999,5.00000000000002));
#1006=CARTESIAN_POINT('',(-169.240000000012,-226.99999999998,5.00000000000001));
#1007=CARTESIAN_POINT('',(-169.240000000012,122.259999999999,14.));
#1008=CARTESIAN_POINT('',(-169.240000000012,-226.99999999998,14.));
#1009=CARTESIAN_POINT('',(-169.240000000012,122.259999999999,8.00000000000002));
#1010=CARTESIAN_POINT('Origin',(-162.500000000012,122.259999999999,8.00000000000002));
#1011=CARTESIAN_POINT('',(-162.500000000011,128.999999999999,5.00000000000002));
#1012=CARTESIAN_POINT('Origin',(-162.500000000012,122.259999999999,5.00000000000002));
#1013=CARTESIAN_POINT('',(-162.500000000011,128.999999999999,14.));
#1014=CARTESIAN_POINT('Origin',(-162.500000000012,122.259999999999,14.));
#1015=CARTESIAN_POINT('',(-162.500000000011,128.999999999999,8.00000000000002));
#1016=CARTESIAN_POINT('Origin',(148.500000000011,128.999999999989,8.00000000000002));
#1017=CARTESIAN_POINT('',(148.500000000011,128.999999999989,5.00000000000002));
#1018=CARTESIAN_POINT('',(-162.500000000011,128.999999999999,5.00000000000002));
#1019=CARTESIAN_POINT('',(148.500000000011,128.999999999989,14.));
#1020=CARTESIAN_POINT('',(-162.500000000011,128.999999999999,14.));
#1021=CARTESIAN_POINT('',(148.500000000011,128.999999999989,8.00000000000002));
#1022=CARTESIAN_POINT('Origin',(148.500000000012,135.499999999989,8.00000000000002));
#1023=CARTESIAN_POINT('',(154.971703749014,134.894153001851,5.00000000000002));
#1024=CARTESIAN_POINT('Origin',(148.500000000012,135.499999999989,5.00000000000002));
#1025=CARTESIAN_POINT('',(154.971703749014,134.894153001851,14.));
#1026=CARTESIAN_POINT('Origin',(148.500000000012,135.499999999989,14.));
#1027=CARTESIAN_POINT('',(154.971703749014,134.894153001851,8.00000000000002));
#1028=CARTESIAN_POINT('Origin',(155.789341035663,143.628216733461,8.00000000000002));
#1029=CARTESIAN_POINT('',(155.789341035663,143.628216733461,5.00000000000002));
#1030=CARTESIAN_POINT('',(154.971703749014,134.894153001851,5.00000000000002));
#1031=CARTESIAN_POINT('',(155.789341035663,143.628216733461,14.));
#1032=CARTESIAN_POINT('',(154.971703749014,134.894153001851,14.));
#1033=CARTESIAN_POINT('',(155.789341035663,143.628216733461,8.00000000000002));
#1034=CARTESIAN_POINT('Origin',(162.500000000012,142.999999999989,8.00000000000002));
#1035=CARTESIAN_POINT('',(169.240000000013,143.000000000022,5.00000000000002));
#1036=CARTESIAN_POINT('Origin',(162.500000000012,142.999999999989,5.00000000000002));
#1037=CARTESIAN_POINT('',(169.240000000013,143.000000000022,14.));
#1038=CARTESIAN_POINT('Origin',(162.500000000012,142.999999999989,14.));
#1039=CARTESIAN_POINT('',(169.240000000013,143.000000000022,8.00000000000002));
#1040=CARTESIAN_POINT('Origin',(169.240000000908,-39.9999999976918,8.00000000000002));
#1041=CARTESIAN_POINT('',(169.240000000908,-39.9999999976918,5.00000000000002));
#1042=CARTESIAN_POINT('',(169.240000000012,143.000000000022,5.00000000000002));
#1043=CARTESIAN_POINT('',(169.240000000908,-39.9999999976918,14.));
#1044=CARTESIAN_POINT('',(169.240000000012,143.000000000022,14.));
#1045=CARTESIAN_POINT('',(169.240000000908,-39.9999999976918,8.00000000000002));
#1046=CARTESIAN_POINT('Origin',(162.499999991096,-39.9999999551066,8.00000000000002));
#1047=CARTESIAN_POINT('',(162.500000002362,-46.7399999649186,5.00000000000002));
#1048=CARTESIAN_POINT('Origin',(162.499999991096,-39.9999999551066,5.00000000000002));
#1049=CARTESIAN_POINT('',(162.500000002362,-46.7399999649186,14.));
#1050=CARTESIAN_POINT('Origin',(162.499999991096,-39.9999999551066,14.));
#1051=CARTESIAN_POINT('',(162.500000002362,-46.7399999649186,8.00000000000002));
#1052=CARTESIAN_POINT('Origin',(10.3299999999904,-46.7399999977464,8.00000000000004));
#1053=CARTESIAN_POINT('',(10.3299999999904,-46.7399999977464,5.00000000000003));
#1054=CARTESIAN_POINT('',(162.500000002362,-46.7399999649183,5.00000000000002));
#1055=CARTESIAN_POINT('',(10.3299999999904,-46.7399999977464,14.));
#1056=CARTESIAN_POINT('',(162.500000002362,-46.7399999649183,14.));
#1057=CARTESIAN_POINT('',(10.3299999999904,-46.7399999977464,8.00000000000004));
#1058=CARTESIAN_POINT('Origin',(-158.250000001009,-46.7400000000001,8.00000000000002));
#1059=CARTESIAN_POINT('',(-10.3300814402698,-46.7400000004439,5.00000000000003));
#1060=CARTESIAN_POINT('',(-10.3300814402698,-46.7400000004439,5.00000000000003));
#1061=CARTESIAN_POINT('',(-10.3300814402698,-46.7400000004439,14.));
#1062=CARTESIAN_POINT('',(-10.3300814402698,-46.7400000004439,8.00000000000003));
#1063=CARTESIAN_POINT('',(-10.3300814402698,-46.7400000004439,14.));
#1064=CARTESIAN_POINT('Origin',(-158.250000001011,-53.2400000000001,8.00000000000002));
#1065=CARTESIAN_POINT('',(-166.130000001011,-53.2399999999987,5.00000000000002));
#1066=CARTESIAN_POINT('',(-158.250000001007,-45.3600000000001,5.00000000000002));
#1067=CARTESIAN_POINT('Origin',(-158.250000001011,-53.2400000000001,5.00000000000002));
#1068=CARTESIAN_POINT('',(-166.130000001011,-53.2399999999987,14.));
#1069=CARTESIAN_POINT('',(-166.130000001011,-53.2399999999987,8.00000000000002));
#1070=CARTESIAN_POINT('',(-158.250000001007,-45.3600000000001,14.));
#1071=CARTESIAN_POINT('Origin',(-158.250000001011,-53.2400000000001,14.));
#1072=CARTESIAN_POINT('',(-158.250000001005,-45.3600000000001,8.00000000000002));
#1073=CARTESIAN_POINT('Origin',(-166.130000001039,-210.999999999978,8.00000000000001));
#1074=CARTESIAN_POINT('',(-166.130000001039,-210.999999999978,5.00000000000001));
#1075=CARTESIAN_POINT('',(-166.130000001011,-53.2399999999987,5.00000000000002));
#1076=CARTESIAN_POINT('',(-166.130000001039,-210.999999999978,14.));
#1077=CARTESIAN_POINT('',(-166.130000001039,-210.999999999978,8.00000000000001));
#1078=CARTESIAN_POINT('',(-166.130000001011,-53.2399999999987,14.));
#1079=CARTESIAN_POINT('Origin',(-158.250000001039,-210.999999999979,8.));
#1080=CARTESIAN_POINT('',(-164.439819252032,-215.87652926166,5.));
#1081=CARTESIAN_POINT('Origin',(-158.250000001039,-210.999999999979,5.));
#1082=CARTESIAN_POINT('',(-164.439819252032,-215.87652926166,14.));
#1083=CARTESIAN_POINT('',(-164.439819252182,-215.876529261471,8.00000000000001));
#1084=CARTESIAN_POINT('Origin',(-158.250000001039,-210.999999999979,14.));
#1085=CARTESIAN_POINT('Origin',(-158.289466083266,-223.68322382382,8.00000000000001));
#1086=CARTESIAN_POINT('',(-158.289486559242,-223.683197833493,5.));
#1087=CARTESIAN_POINT('',(-164.439819252182,-215.876529261471,5.));
#1088=CARTESIAN_POINT('',(-158.289486559242,-223.683197833493,14.));
#1089=CARTESIAN_POINT('',(-158.289466083266,-223.68322382382,8.00000000000001));
#1090=CARTESIAN_POINT('',(-164.439819252182,-215.876529261471,14.));
#1091=CARTESIAN_POINT('Origin',(-162.500000000067,-226.999999999979,8.00000000000001));
#1092=CARTESIAN_POINT('',(-167.860000004348,-226.99999999998,5.00000000000001));
#1093=CARTESIAN_POINT('Origin',(-162.500000000067,-226.999999999979,5.00000000000001));
#1094=CARTESIAN_POINT('',(-167.860000004348,-226.99999999998,14.));
#1095=CARTESIAN_POINT('',(-167.860000004348,-226.99999999998,8.00000000000001));
#1096=CARTESIAN_POINT('Origin',(-162.500000000067,-226.999999999979,14.));
#1097=CARTESIAN_POINT('Origin',(-167.860000000012,122.259999999999,8.00000000000002));
#1098=CARTESIAN_POINT('',(-167.860000000012,122.259999999999,5.00000000000002));
#1099=CARTESIAN_POINT('',(-167.860000000012,-226.99999999998,5.00000000000001));
#1100=CARTESIAN_POINT('',(-167.860000000012,122.259999999999,14.));
#1101=CARTESIAN_POINT('',(-167.860000000012,122.259999999999,8.00000000000002));
#1102=CARTESIAN_POINT('',(-167.860000000012,-226.99999999998,14.));
#1103=CARTESIAN_POINT('Origin',(-162.500000000012,122.259999999999,8.00000000000002));
#1104=CARTESIAN_POINT('',(-162.500000000011,127.619999999999,5.00000000000002));
#1105=CARTESIAN_POINT('Origin',(-162.500000000012,122.259999999999,5.00000000000002));
#1106=CARTESIAN_POINT('',(-162.500000000011,127.619999999999,14.));
#1107=CARTESIAN_POINT('',(-162.500000000011,127.619999999999,8.00000000000002));
#1108=CARTESIAN_POINT('Origin',(-162.500000000012,122.259999999999,14.));
#1109=CARTESIAN_POINT('Origin',(148.500000000011,127.619999999989,8.00000000000002));
#1110=CARTESIAN_POINT('',(148.500000000011,127.619999999989,5.00000000000002));
#1111=CARTESIAN_POINT('',(-162.500000000011,127.619999999999,5.00000000000002));
#1112=CARTESIAN_POINT('',(148.500000000011,127.619999999989,14.));
#1113=CARTESIAN_POINT('',(148.500000000011,127.619999999989,8.00000000000002));
#1114=CARTESIAN_POINT('',(-162.500000000011,127.619999999999,14.));
#1115=CARTESIAN_POINT('Origin',(148.500000000012,135.499999999989,8.00000000000002));
#1116=CARTESIAN_POINT('',(156.345696237264,134.765527023785,5.00000000000002));
#1117=CARTESIAN_POINT('Origin',(148.500000000012,135.499999999989,5.00000000000002));
#1118=CARTESIAN_POINT('',(156.345696237264,134.765527023785,14.));
#1119=CARTESIAN_POINT('',(156.345696237264,134.765527023785,8.00000000000002));
#1120=CARTESIAN_POINT('Origin',(148.500000000012,135.499999999989,14.));
#1121=CARTESIAN_POINT('Origin',(157.163333523913,143.499590755395,8.00000000000002));
#1122=CARTESIAN_POINT('',(157.163333523913,143.499590755393,5.00000000000002));
#1123=CARTESIAN_POINT('',(156.345696237264,134.765527023785,5.00000000000002));
#1124=CARTESIAN_POINT('',(157.163333523913,143.499590755393,14.));
#1125=CARTESIAN_POINT('',(157.163333523913,143.499590755395,8.00000000000002));
#1126=CARTESIAN_POINT('',(156.345696237264,134.765527023785,14.));
#1127=CARTESIAN_POINT('Origin',(162.500000000012,142.999999999989,8.00000000000002));
#1128=CARTESIAN_POINT('',(167.860000000013,143.000000000015,5.00000000000002));
#1129=CARTESIAN_POINT('Origin',(162.500000000012,142.999999999989,5.00000000000002));
#1130=CARTESIAN_POINT('',(167.860000000013,143.000000000015,14.));
#1131=CARTESIAN_POINT('',(167.860000000013,143.000000000015,8.00000000000002));
#1132=CARTESIAN_POINT('Origin',(162.500000000012,142.999999999989,14.));
#1133=CARTESIAN_POINT('Origin',(167.860000000908,-39.9999999976986,8.00000000000002));
#1134=CARTESIAN_POINT('',(167.860000000908,-39.9999999933356,5.00000000000002));
#1135=CARTESIAN_POINT('',(167.860000000012,143.000000000015,5.00000000000002));
#1136=CARTESIAN_POINT('',(167.860000000908,-39.9999999933356,14.));
#1137=CARTESIAN_POINT('',(167.860000000908,-39.9999999976986,8.00000000000002));
#1138=CARTESIAN_POINT('',(167.860000000012,143.000000000015,14.));
#1139=CARTESIAN_POINT('Origin',(162.499999991096,-39.9999999551066,8.00000000000002));
#1140=CARTESIAN_POINT('',(162.50000000106,-45.3599999649186,5.00000000000002));
#1141=CARTESIAN_POINT('Origin',(162.499999991096,-39.9999999551066,5.00000000000002));
#1142=CARTESIAN_POINT('',(162.50000000106,-45.3599999649186,14.));
#1143=CARTESIAN_POINT('',(162.500000002065,-45.3599999649186,8.00000000000002));
#1144=CARTESIAN_POINT('Origin',(162.499999991096,-39.9999999551066,14.));
#1145=CARTESIAN_POINT('Origin',(10.3299999996926,-45.3599999977464,8.00000000000004));
#1146=CARTESIAN_POINT('',(10.3299999996926,-45.3599999977464,5.00000000000003));
#1147=CARTESIAN_POINT('',(162.500000002065,-45.3599999649183,5.00000000000002));
#1148=CARTESIAN_POINT('',(10.3299999996926,-45.3599999977464,14.));
#1149=CARTESIAN_POINT('',(10.3299999996926,-45.3599999977464,8.00000000000004));
#1150=CARTESIAN_POINT('',(162.500000002065,-45.3599999649183,14.));
#1151=CARTESIAN_POINT('Origin',(-158.250000001005,-45.3600000000001,8.00000000000002));
#1152=CARTESIAN_POINT('',(-10.3300814402656,-45.3600000004439,5.00000000000003));
#1153=CARTESIAN_POINT('',(-10.3300814402656,-45.3600000004439,5.00000000000003));
#1154=CARTESIAN_POINT('',(-10.3300814402656,-45.3600000004439,14.));
#1155=CARTESIAN_POINT('',(-10.3300814402656,-45.3600000004439,14.));
#1156=CARTESIAN_POINT('',(-10.3300814402656,-45.3600000004439,8.00000000000003));
#1157=CARTESIAN_POINT('Origin',(-162.846194078723,-48.6438059222865,5.00000000000002));
#1158=CARTESIAN_POINT('',(-10.3300814402698,-46.7400000004439,5.00000000000003));
#1159=CARTESIAN_POINT('',(10.3299999999904,-46.7399999977464,5.00000000000003));
#1160=CARTESIAN_POINT('Origin',(-162.846194078723,-48.6438059222865,14.));
#1161=CARTESIAN_POINT('',(10.3299999999904,-46.7399999977464,14.));
#1162=CARTESIAN_POINT('',(-10.3300814402698,-46.7400000004439,14.));
#1163=CARTESIAN_POINT('Origin',(10.3299999999904,-46.7399999977464,11.));
#1164=CARTESIAN_POINT('Origin',(-10.3300814402698,-46.7400000004439,11.));
#1165=CARTESIAN_POINT('',(3.19744231092045E-13,44.9999999999988,-15.9999999999999));
#1166=CARTESIAN_POINT('',(-2.8421709430404E-13,45.0000000000042,16.0000000000002));
#1167=UNCERTAINTY_MEASURE_WITH_UNIT(LENGTH_MEASURE(0.01),#1173,
'DISTANCE_ACCURACY_VALUE',
'Maximum model space distance between geometric entities at asserted c
onnectivities');
#1168=UNCERTAINTY_MEASURE_WITH_UNIT(LENGTH_MEASURE(0.01),#1173,
'DISTANCE_ACCURACY_VALUE',
'Maximum model space distance between geometric entities at asserted c
onnectivities');
#1169=UNCERTAINTY_MEASURE_WITH_UNIT(LENGTH_MEASURE(0.01),#1173,
'DISTANCE_ACCURACY_VALUE',
'Maximum model space distance between geometric entities at asserted c
onnectivities');
#1170=(
GEOMETRIC_REPRESENTATION_CONTEXT(3)
GLOBAL_UNCERTAINTY_ASSIGNED_CONTEXT((#1167))
GLOBAL_UNIT_ASSIGNED_CONTEXT((#1173,#1175,#1176))
REPRESENTATION_CONTEXT('','3D')
);
#1171=(
GEOMETRIC_REPRESENTATION_CONTEXT(3)
GLOBAL_UNCERTAINTY_ASSIGNED_CONTEXT((#1168))
GLOBAL_UNIT_ASSIGNED_CONTEXT((#1173,#1175,#1176))
REPRESENTATION_CONTEXT('','3D')
);
#1172=(
GEOMETRIC_REPRESENTATION_CONTEXT(3)
GLOBAL_UNCERTAINTY_ASSIGNED_CONTEXT((#1169))
GLOBAL_UNIT_ASSIGNED_CONTEXT((#1173,#1175,#1176))
REPRESENTATION_CONTEXT('','3D')
);
#1173=(
LENGTH_UNIT()
NAMED_UNIT(*)
SI_UNIT(.MILLI.,.METRE.)
);
#1174=(
LENGTH_UNIT()
NAMED_UNIT(*)
SI_UNIT($,.METRE.)
);
#1175=(
NAMED_UNIT(*)
PLANE_ANGLE_UNIT()
SI_UNIT($,.RADIAN.)
);
#1176=(
NAMED_UNIT(*)
SI_UNIT($,.STERADIAN.)
SOLID_ANGLE_UNIT()
);
#1177=SHAPE_DEFINITION_REPRESENTATION(#1179,#1183);
#1178=SHAPE_DEFINITION_REPRESENTATION(#1180,#1184);
#1179=PRODUCT_DEFINITION_SHAPE('',$,#1186);
#1180=PRODUCT_DEFINITION_SHAPE('',$,#1187);
#1181=PRODUCT_DEFINITION_SHAPE($,$,#17);
#1182=PRODUCT_DEFINITION_SHAPE($,$,#18);
#1183=SHAPE_REPRESENTATION('',(#703,#767,#768),#1170);
#1184=SHAPE_REPRESENTATION('',(#704),#1171);
#1185=PRODUCT_DEFINITION_CONTEXT('part definition',#1193,'design');
#1186=PRODUCT_DEFINITION('_15_V2_9mm_AWD_belts_NP_FT',
'_15_V2_9mm_AWD_belts_NP_FT',#1188,#1185);
#1187=PRODUCT_DEFINITION('_V2_9mm_AWD_belt_NP_FT',
'_V2_9mm_AWD_belt_NP_FT',#1189,#1185);
#1188=PRODUCT_DEFINITION_FORMATION('',$,#1195);
#1189=PRODUCT_DEFINITION_FORMATION('',$,#1196);
#1190=PRODUCT_RELATED_PRODUCT_CATEGORY('_15_V2_9mm_AWD_belts_NP_FT',
'_15_V2_9mm_AWD_belts_NP_FT',(#1195));
#1191=PRODUCT_RELATED_PRODUCT_CATEGORY('_V2_9mm_AWD_belt_NP_FT',
'_V2_9mm_AWD_belt_NP_FT',(#1196));
#1192=APPLICATION_PROTOCOL_DEFINITION('international standard',
'automotive_design',2009,#1193);
#1193=APPLICATION_CONTEXT(
'Core Data for Automotive Mechanical Design Process');
#1194=PRODUCT_CONTEXT('part definition',#1193,'mechanical');
#1195=PRODUCT('_15_V2_9mm_AWD_belts_NP_FT','_15_V2_9mm_AWD_belts_NP_FT',
$,(#1194));
#1196=PRODUCT('_V2_9mm_AWD_belt_NP_FT','_V2_9mm_AWD_belt_NP_FT',$,(#1194));
#1197=PRESENTATION_STYLE_ASSIGNMENT((#1200));
#1198=PRESENTATION_STYLE_ASSIGNMENT((#1201));
#1199=PRESENTATION_STYLE_ASSIGNMENT((#1202));
#1200=SURFACE_STYLE_USAGE(.BOTH.,#1203);
#1201=SURFACE_STYLE_USAGE(.BOTH.,#1204);
#1202=SURFACE_STYLE_USAGE(.BOTH.,#1205);
#1203=SURFACE_SIDE_STYLE('',(#1206));
#1204=SURFACE_SIDE_STYLE('',(#1207));
#1205=SURFACE_SIDE_STYLE('',(#1208));
#1206=SURFACE_STYLE_FILL_AREA(#1209);
#1207=SURFACE_STYLE_FILL_AREA(#1210);
#1208=SURFACE_STYLE_FILL_AREA(#1211);
#1209=FILL_AREA_STYLE('Steel - Satin',(#1212));
#1210=FILL_AREA_STYLE('Rubber - Soft',(#1213));
#1211=FILL_AREA_STYLE('Gates Belt Face',(#1214));
#1212=FILL_AREA_STYLE_COLOUR('Steel - Satin',#1215);
#1213=FILL_AREA_STYLE_COLOUR('Rubber - Soft',#1216);
#1214=FILL_AREA_STYLE_COLOUR('Gates Belt Face',#1217);
#1215=COLOUR_RGB('Steel - Satin',0.627450980392157,0.627450980392157,0.627450980392157);
#1216=COLOUR_RGB('Rubber - Soft',0.152941176470588,0.152941176470588,0.152941176470588);
#1217=COLOUR_RGB('Gates Belt Face',0.482352941176471,0.309803921568627,
0.27843137254902);
ENDSEC;
END-ISO-10303-21;
