ISO-10303-21;
HEADER;
/* Generated by software containing ST-Developer
 * from STEP Tools, Inc. (www.steptools.com) 
 */

FILE_DESCRIPTION(
/* description */ (''),
/* implementation_level */ '2;1');

FILE_NAME(
/* name */ '_17_V2_9mm_AWD_belts_NP_NP.step',
/* time_stamp */ '2026-02-16T13:26:05+01:00',
/* author */ (''),
/* organization */ (''),
/* preprocessor_version */ 'ST-DEVELOPER v20.1',
/* originating_system */ 'Autodesk Translation Framework v14.24.0.0',
/* authorisation */ '');

FILE_SCHEMA (('AUTOMOTIVE_DESIGN { 1 0 10303 214 3 1 1 }'));
ENDSEC;

DATA;
#10=MECHANICAL_DESIGN_GEOMETRIC_PRESENTATION_REPRESENTATION('',(#640,#641,
#642,#643,#644,#645,#646,#647,#648,#649,#650,#651,#652,#653,#654,#655),
#1172);
#11=ITEM_DEFINED_TRANSFORMATION($,$,#704,#767);
#12=ITEM_DEFINED_TRANSFORMATION($,$,#704,#768);
#13=(
REPRESENTATION_RELATIONSHIP($,$,#1184,#1183)
REPRESENTATION_RELATIONSHIP_WITH_TRANSFORMATION(#11)
SHAPE_REPRESENTATION_RELATIONSHIP()
);
#14=(
REPRESENTATION_RELATIONSHIP($,$,#1184,#1183)
REPRESENTATION_RELATIONSHIP_WITH_TRANSFORMATION(#12)
SHAPE_REPRESENTATION_RELATIONSHIP()
);
#15=CONTEXT_DEPENDENT_SHAPE_REPRESENTATION(#13,#1181);
#16=CONTEXT_DEPENDENT_SHAPE_REPRESENTATION(#14,#1182);
#17=NEXT_ASSEMBLY_USAGE_OCCURRENCE('_V2_9mm_AWD_belt_NP_NP:1',
'_V2_9mm_AWD_belt_NP_NP:1','_V2_9mm_AWD_belt_NP_NP:1',#1186,#1187,
'_V2_9mm_AWD_belt_NP_NP:1');
#18=NEXT_ASSEMBLY_USAGE_OCCURRENCE('_V2_9mm_AWD_belt_NP_NP:2',
'_V2_9mm_AWD_belt_NP_NP:2','_V2_9mm_AWD_belt_NP_NP:2',#1186,#1187,
'_V2_9mm_AWD_belt_NP_NP:2');
#19=SHAPE_REPRESENTATION_RELATIONSHIP('SRR','None',#1184,#20);
#20=ADVANCED_BREP_SHAPE_REPRESENTATION('',(#21),#1171);
#21=MANIFOLD_SOLID_BREP('Body1',#690);
#22=PLANE('',#708);
#23=PLANE('',#715);
#24=PLANE('',#719);
#25=PLANE('',#720);
#26=PLANE('',#721);
#27=PLANE('',#722);
#28=PLANE('',#723);
#29=PLANE('',#730);
#30=PLANE('',#731);
#31=PLANE('',#740);
#32=PLANE('',#743);
#33=PLANE('',#746);
#34=PLANE('',#749);
#35=PLANE('',#754);
#36=PLANE('',#757);
#37=PLANE('',#758);
#38=PLANE('',#762);
#39=PLANE('',#763);
#40=PLANE('',#765);
#41=PLANE('',#766);
#42=FACE_OUTER_BOUND('',#76,.T.);
#43=FACE_OUTER_BOUND('',#77,.T.);
#44=FACE_OUTER_BOUND('',#78,.T.);
#45=FACE_OUTER_BOUND('',#79,.T.);
#46=FACE_OUTER_BOUND('',#80,.T.);
#47=FACE_OUTER_BOUND('',#81,.T.);
#48=FACE_OUTER_BOUND('',#82,.T.);
#49=FACE_OUTER_BOUND('',#83,.T.);
#50=FACE_OUTER_BOUND('',#84,.T.);
#51=FACE_OUTER_BOUND('',#85,.T.);
#52=FACE_OUTER_BOUND('',#86,.T.);
#53=FACE_OUTER_BOUND('',#87,.T.);
#54=FACE_OUTER_BOUND('',#88,.T.);
#55=FACE_OUTER_BOUND('',#89,.T.);
#56=FACE_OUTER_BOUND('',#90,.T.);
#57=FACE_OUTER_BOUND('',#91,.T.);
#58=FACE_OUTER_BOUND('',#92,.T.);
#59=FACE_OUTER_BOUND('',#93,.T.);
#60=FACE_OUTER_BOUND('',#94,.T.);
#61=FACE_OUTER_BOUND('',#95,.T.);
#62=FACE_OUTER_BOUND('',#96,.T.);
#63=FACE_OUTER_BOUND('',#97,.T.);
#64=FACE_OUTER_BOUND('',#98,.T.);
#65=FACE_OUTER_BOUND('',#99,.T.);
#66=FACE_OUTER_BOUND('',#100,.T.);
#67=FACE_OUTER_BOUND('',#101,.T.);
#68=FACE_OUTER_BOUND('',#102,.T.);
#69=FACE_OUTER_BOUND('',#103,.T.);
#70=FACE_OUTER_BOUND('',#104,.T.);
#71=FACE_OUTER_BOUND('',#105,.T.);
#72=FACE_OUTER_BOUND('',#106,.T.);
#73=FACE_OUTER_BOUND('',#107,.T.);
#74=FACE_OUTER_BOUND('',#108,.T.);
#75=FACE_OUTER_BOUND('',#109,.T.);
#76=EDGE_LOOP('',(#434,#435,#436,#437));
#77=EDGE_LOOP('',(#438,#439,#440,#441));
#78=EDGE_LOOP('',(#442,#443,#444,#445));
#79=EDGE_LOOP('',(#446,#447,#448,#449));
#80=EDGE_LOOP('',(#450,#451,#452,#453));
#81=EDGE_LOOP('',(#454,#455,#456,#457));
#82=EDGE_LOOP('',(#458,#459,#460,#461));
#83=EDGE_LOOP('',(#462,#463,#464,#465));
#84=EDGE_LOOP('',(#466,#467,#468,#469));
#85=EDGE_LOOP('',(#470,#471,#472,#473));
#86=EDGE_LOOP('',(#474,#475,#476,#477));
#87=EDGE_LOOP('',(#478,#479,#480,#481));
#88=EDGE_LOOP('',(#482,#483,#484,#485));
#89=EDGE_LOOP('',(#486,#487,#488,#489));
#90=EDGE_LOOP('',(#490,#491,#492,#493,#494,#495,#496,#497,#498,#499,#500,
#501,#502,#503,#504,#505,#506,#507,#508,#509,#510,#511,#512,#513,#514,#515,
#516,#517,#518,#519,#520,#521));
#91=EDGE_LOOP('',(#522,#523,#524,#525));
#92=EDGE_LOOP('',(#526,#527,#528,#529));
#93=EDGE_LOOP('',(#530,#531,#532,#533));
#94=EDGE_LOOP('',(#534,#535,#536,#537));
#95=EDGE_LOOP('',(#538,#539,#540,#541));
#96=EDGE_LOOP('',(#542,#543,#544,#545));
#97=EDGE_LOOP('',(#546,#547,#548,#549));
#98=EDGE_LOOP('',(#550,#551,#552,#553));
#99=EDGE_LOOP('',(#554,#555,#556,#557));
#100=EDGE_LOOP('',(#558,#559,#560,#561));
#101=EDGE_LOOP('',(#562,#563,#564,#565));
#102=EDGE_LOOP('',(#566,#567,#568,#569));
#103=EDGE_LOOP('',(#570,#571,#572,#573,#574,#575,#576,#577,#578,#579,#580,
#581,#582,#583,#584,#585,#586,#587,#588,#589,#590,#591,#592,#593,#594,#595,
#596,#597,#598,#599,#600,#601));
#104=EDGE_LOOP('',(#602,#603,#604,#605));
#105=EDGE_LOOP('',(#606,#607,#608,#609));
#106=EDGE_LOOP('',(#610,#611,#612,#613));
#107=EDGE_LOOP('',(#614,#615,#616,#617));
#108=EDGE_LOOP('',(#618,#619,#620,#621));
#109=EDGE_LOOP('',(#622,#623,#624,#625));
#110=LINE('',#976,#178);
#111=LINE('',#979,#179);
#112=LINE('',#982,#180);
#113=LINE('',#984,#181);
#114=LINE('',#985,#182);
#115=LINE('',#991,#183);
#116=LINE('',#997,#184);
#117=LINE('',#1000,#185);
#118=LINE('',#1003,#186);
#119=LINE('',#1005,#187);
#120=LINE('',#1006,#188);
#121=LINE('',#1011,#189);
#122=LINE('',#1015,#190);
#123=LINE('',#1017,#191);
#124=LINE('',#1018,#192);
#125=LINE('',#1022,#193);
#126=LINE('',#1024,#194);
#127=LINE('',#1026,#195);
#128=LINE('',#1027,#196);
#129=LINE('',#1030,#197);
#130=LINE('',#1032,#198);
#131=LINE('',#1033,#199);
#132=LINE('',#1037,#200);
#133=LINE('',#1038,#201);
#134=LINE('',#1039,#202);
#135=LINE('',#1043,#203);
#136=LINE('',#1044,#204);
#137=LINE('',#1045,#205);
#138=LINE('',#1054,#206);
#139=LINE('',#1056,#207);
#140=LINE('',#1057,#208);
#141=LINE('',#1060,#209);
#142=LINE('',#1064,#210);
#143=LINE('',#1068,#211);
#144=LINE('',#1072,#212);
#145=LINE('',#1076,#213);
#146=LINE('',#1078,#214);
#147=LINE('',#1080,#215);
#148=LINE('',#1084,#216);
#149=LINE('',#1088,#217);
#150=LINE('',#1092,#218);
#151=LINE('',#1096,#219);
#152=LINE('',#1097,#220);
#153=LINE('',#1101,#221);
#154=LINE('',#1104,#222);
#155=LINE('',#1105,#223);
#156=LINE('',#1109,#224);
#157=LINE('',#1112,#225);
#158=LINE('',#1113,#226);
#159=LINE('',#1117,#227);
#160=LINE('',#1120,#228);
#161=LINE('',#1121,#229);
#162=LINE('',#1125,#230);
#163=LINE('',#1129,#231);
#164=LINE('',#1132,#232);
#165=LINE('',#1133,#233);
#166=LINE('',#1137,#234);
#167=LINE('',#1140,#235);
#168=LINE('',#1141,#236);
#169=LINE('',#1146,#237);
#170=LINE('',#1148,#238);
#171=LINE('',#1150,#239);
#172=LINE('',#1153,#240);
#173=LINE('',#1155,#241);
#174=LINE('',#1157,#242);
#175=LINE('',#1159,#243);
#176=LINE('',#1161,#244);
#177=LINE('',#1163,#245);
#178=VECTOR('',#777,10.);
#179=VECTOR('',#780,10.);
#180=VECTOR('',#783,10.);
#181=VECTOR('',#784,10.);
#182=VECTOR('',#785,10.);
#183=VECTOR('',#792,10.);
#184=VECTOR('',#797,10.);
#185=VECTOR('',#800,10.);
#186=VECTOR('',#803,10.);
#187=VECTOR('',#804,10.);
#188=VECTOR('',#805,10.);
#189=VECTOR('',#810,10.);
#190=VECTOR('',#815,10.);
#191=VECTOR('',#816,10.);
#192=VECTOR('',#817,10.);
#193=VECTOR('',#820,10.);
#194=VECTOR('',#821,10.);
#195=VECTOR('',#822,10.);
#196=VECTOR('',#823,10.);
#197=VECTOR('',#826,10.);
#198=VECTOR('',#827,10.);
#199=VECTOR('',#828,10.);
#200=VECTOR('',#831,10.);
#201=VECTOR('',#832,10.);
#202=VECTOR('',#833,10.);
#203=VECTOR('',#836,10.);
#204=VECTOR('',#837,10.);
#205=VECTOR('',#838,10.);
#206=VECTOR('',#853,10.);
#207=VECTOR('',#854,10.);
#208=VECTOR('',#855,10.);
#209=VECTOR('',#858,10.);
#210=VECTOR('',#861,10.);
#211=VECTOR('',#864,10.);
#212=VECTOR('',#867,10.);
#213=VECTOR('',#870,10.);
#214=VECTOR('',#871,10.);
#215=VECTOR('',#872,10.);
#216=VECTOR('',#875,10.);
#217=VECTOR('',#878,10.);
#218=VECTOR('',#881,10.);
#219=VECTOR('',#886,10.);
#220=VECTOR('',#887,10.);
#221=VECTOR('',#892,10.);
#222=VECTOR('',#895,10.);
#223=VECTOR('',#896,10.);
#224=VECTOR('',#901,10.);
#225=VECTOR('',#904,10.);
#226=VECTOR('',#905,10.);
#227=VECTOR('',#910,10.);
#228=VECTOR('',#913,10.);
#229=VECTOR('',#914,10.);
#230=VECTOR('',#919,10.);
#231=VECTOR('',#924,10.);
#232=VECTOR('',#927,10.);
#233=VECTOR('',#928,10.);
#234=VECTOR('',#933,10.);
#235=VECTOR('',#936,10.);
#236=VECTOR('',#937,10.);
#237=VECTOR('',#942,10.);
#238=VECTOR('',#943,10.);
#239=VECTOR('',#944,10.);
#240=VECTOR('',#947,10.);
#241=VECTOR('',#950,10.);
#242=VECTOR('',#953,10.);
#243=VECTOR('',#956,10.);
#244=VECTOR('',#959,10.);
#245=VECTOR('',#962,10.);
#246=CIRCLE('',#706,5.36000000428036);
#247=CIRCLE('',#707,5.36000000428036);
#248=CIRCLE('',#710,7.87999999999999);
#249=CIRCLE('',#711,7.87999999999999);
#250=CIRCLE('',#713,6.74000000428036);
#251=CIRCLE('',#714,6.74000000428036);
#252=CIRCLE('',#717,6.49999999999999);
#253=CIRCLE('',#718,6.49999999999999);
#254=CIRCLE('',#725,6.49999999999993);
#255=CIRCLE('',#726,6.49999999999993);
#256=CIRCLE('',#728,7.87999999999993);
#257=CIRCLE('',#729,7.87999999999993);
#258=CIRCLE('',#732,5.35999999999996);
#259=CIRCLE('',#733,7.87999999999996);
#260=CIRCLE('',#734,5.36000000000086);
#261=CIRCLE('',#735,5.36000000981195);
#262=CIRCLE('',#736,6.74000000981195);
#263=CIRCLE('',#737,6.74000000000086);
#264=CIRCLE('',#738,6.49999999999996);
#265=CIRCLE('',#739,6.73999999999996);
#266=CIRCLE('',#742,6.73999999999996);
#267=CIRCLE('',#745,5.35999999999996);
#268=CIRCLE('',#748,6.49999999999996);
#269=CIRCLE('',#751,6.74000000000086);
#270=CIRCLE('',#753,7.87999999999996);
#271=CIRCLE('',#756,5.36000000000086);
#272=CIRCLE('',#759,6.74000000981195);
#273=CIRCLE('',#760,5.36000000981195);
#274=VERTEX_POINT('',#972);
#275=VERTEX_POINT('',#973);
#276=VERTEX_POINT('',#975);
#277=VERTEX_POINT('',#977);
#278=VERTEX_POINT('',#981);
#279=VERTEX_POINT('',#983);
#280=VERTEX_POINT('',#987);
#281=VERTEX_POINT('',#989);
#282=VERTEX_POINT('',#993);
#283=VERTEX_POINT('',#994);
#284=VERTEX_POINT('',#996);
#285=VERTEX_POINT('',#998);
#286=VERTEX_POINT('',#1002);
#287=VERTEX_POINT('',#1004);
#288=VERTEX_POINT('',#1008);
#289=VERTEX_POINT('',#1010);
#290=VERTEX_POINT('',#1014);
#291=VERTEX_POINT('',#1016);
#292=VERTEX_POINT('',#1020);
#293=VERTEX_POINT('',#1021);
#294=VERTEX_POINT('',#1023);
#295=VERTEX_POINT('',#1025);
#296=VERTEX_POINT('',#1029);
#297=VERTEX_POINT('',#1031);
#298=VERTEX_POINT('',#1035);
#299=VERTEX_POINT('',#1036);
#300=VERTEX_POINT('',#1041);
#301=VERTEX_POINT('',#1042);
#302=VERTEX_POINT('',#1053);
#303=VERTEX_POINT('',#1055);
#304=VERTEX_POINT('',#1059);
#305=VERTEX_POINT('',#1061);
#306=VERTEX_POINT('',#1063);
#307=VERTEX_POINT('',#1065);
#308=VERTEX_POINT('',#1067);
#309=VERTEX_POINT('',#1069);
#310=VERTEX_POINT('',#1071);
#311=VERTEX_POINT('',#1073);
#312=VERTEX_POINT('',#1075);
#313=VERTEX_POINT('',#1077);
#314=VERTEX_POINT('',#1079);
#315=VERTEX_POINT('',#1081);
#316=VERTEX_POINT('',#1083);
#317=VERTEX_POINT('',#1085);
#318=VERTEX_POINT('',#1087);
#319=VERTEX_POINT('',#1089);
#320=VERTEX_POINT('',#1091);
#321=VERTEX_POINT('',#1095);
#322=VERTEX_POINT('',#1099);
#323=VERTEX_POINT('',#1103);
#324=VERTEX_POINT('',#1107);
#325=VERTEX_POINT('',#1111);
#326=VERTEX_POINT('',#1115);
#327=VERTEX_POINT('',#1119);
#328=VERTEX_POINT('',#1123);
#329=VERTEX_POINT('',#1127);
#330=VERTEX_POINT('',#1131);
#331=VERTEX_POINT('',#1135);
#332=VERTEX_POINT('',#1139);
#333=VERTEX_POINT('',#1143);
#334=VERTEX_POINT('',#1145);
#335=VERTEX_POINT('',#1147);
#336=VERTEX_POINT('',#1149);
#337=VERTEX_POINT('',#1151);
#338=EDGE_CURVE('',#274,#275,#246,.T.);
#339=EDGE_CURVE('',#275,#276,#110,.T.);
#340=EDGE_CURVE('',#276,#277,#247,.T.);
#341=EDGE_CURVE('',#274,#277,#111,.T.);
#342=EDGE_CURVE('',#278,#274,#112,.T.);
#343=EDGE_CURVE('',#277,#279,#113,.T.);
#344=EDGE_CURVE('',#278,#279,#114,.T.);
#345=EDGE_CURVE('',#278,#280,#248,.T.);
#346=EDGE_CURVE('',#279,#281,#249,.T.);
#347=EDGE_CURVE('',#280,#281,#115,.T.);
#348=EDGE_CURVE('',#282,#283,#250,.T.);
#349=EDGE_CURVE('',#282,#284,#116,.T.);
#350=EDGE_CURVE('',#285,#284,#251,.T.);
#351=EDGE_CURVE('',#283,#285,#117,.T.);
#352=EDGE_CURVE('',#286,#282,#118,.T.);
#353=EDGE_CURVE('',#286,#287,#119,.T.);
#354=EDGE_CURVE('',#284,#287,#120,.T.);
#355=EDGE_CURVE('',#286,#288,#252,.T.);
#356=EDGE_CURVE('',#288,#289,#121,.T.);
#357=EDGE_CURVE('',#287,#289,#253,.T.);
#358=EDGE_CURVE('',#281,#290,#122,.T.);
#359=EDGE_CURVE('',#291,#290,#123,.T.);
#360=EDGE_CURVE('',#291,#280,#124,.T.);
#361=EDGE_CURVE('',#292,#293,#125,.T.);
#362=EDGE_CURVE('',#293,#294,#126,.T.);
#363=EDGE_CURVE('',#295,#294,#127,.T.);
#364=EDGE_CURVE('',#292,#295,#128,.T.);
#365=EDGE_CURVE('',#296,#288,#129,.T.);
#366=EDGE_CURVE('',#297,#296,#130,.T.);
#367=EDGE_CURVE('',#289,#297,#131,.T.);
#368=EDGE_CURVE('',#298,#299,#132,.T.);
#369=EDGE_CURVE('',#298,#293,#133,.T.);
#370=EDGE_CURVE('',#292,#299,#134,.T.);
#371=EDGE_CURVE('',#300,#301,#135,.T.);
#372=EDGE_CURVE('',#295,#300,#136,.T.);
#373=EDGE_CURVE('',#301,#294,#137,.T.);
#374=EDGE_CURVE('',#296,#300,#254,.T.);
#375=EDGE_CURVE('',#301,#297,#255,.T.);
#376=EDGE_CURVE('',#299,#291,#256,.T.);
#377=EDGE_CURVE('',#290,#298,#257,.T.);
#378=EDGE_CURVE('',#302,#285,#138,.T.);
#379=EDGE_CURVE('',#303,#302,#139,.T.);
#380=EDGE_CURVE('',#283,#303,#140,.T.);
#381=EDGE_CURVE('',#304,#276,#141,.T.);
#382=EDGE_CURVE('',#305,#304,#258,.T.);
#383=EDGE_CURVE('',#306,#305,#142,.T.);
#384=EDGE_CURVE('',#307,#306,#259,.T.);
#385=EDGE_CURVE('',#308,#307,#143,.T.);
#386=EDGE_CURVE('',#309,#308,#260,.T.);
#387=EDGE_CURVE('',#310,#309,#144,.T.);
#388=EDGE_CURVE('',#311,#310,#261,.T.);
#389=EDGE_CURVE('',#312,#311,#145,.T.);
#390=EDGE_CURVE('',#312,#313,#146,.T.);
#391=EDGE_CURVE('',#313,#314,#147,.T.);
#392=EDGE_CURVE('',#314,#315,#262,.T.);
#393=EDGE_CURVE('',#315,#316,#148,.T.);
#394=EDGE_CURVE('',#316,#317,#263,.T.);
#395=EDGE_CURVE('',#317,#318,#149,.T.);
#396=EDGE_CURVE('',#318,#319,#264,.T.);
#397=EDGE_CURVE('',#319,#320,#150,.T.);
#398=EDGE_CURVE('',#302,#320,#265,.T.);
#399=EDGE_CURVE('',#275,#321,#151,.T.);
#400=EDGE_CURVE('',#304,#321,#152,.T.);
#401=EDGE_CURVE('',#322,#303,#266,.T.);
#402=EDGE_CURVE('',#320,#322,#153,.T.);
#403=EDGE_CURVE('',#323,#319,#154,.T.);
#404=EDGE_CURVE('',#322,#323,#155,.T.);
#405=EDGE_CURVE('',#321,#324,#267,.T.);
#406=EDGE_CURVE('',#324,#305,#156,.T.);
#407=EDGE_CURVE('',#324,#325,#157,.T.);
#408=EDGE_CURVE('',#325,#306,#158,.T.);
#409=EDGE_CURVE('',#326,#323,#268,.T.);
#410=EDGE_CURVE('',#326,#318,#159,.T.);
#411=EDGE_CURVE('',#326,#327,#160,.T.);
#412=EDGE_CURVE('',#327,#317,#161,.T.);
#413=EDGE_CURVE('',#327,#328,#269,.T.);
#414=EDGE_CURVE('',#328,#316,#162,.T.);
#415=EDGE_CURVE('',#329,#325,#270,.T.);
#416=EDGE_CURVE('',#329,#307,#163,.T.);
#417=EDGE_CURVE('',#329,#330,#164,.T.);
#418=EDGE_CURVE('',#330,#308,#165,.T.);
#419=EDGE_CURVE('',#330,#331,#271,.T.);
#420=EDGE_CURVE('',#331,#309,#166,.T.);
#421=EDGE_CURVE('',#332,#315,#167,.T.);
#422=EDGE_CURVE('',#328,#332,#168,.T.);
#423=EDGE_CURVE('',#332,#333,#272,.T.);
#424=EDGE_CURVE('',#333,#334,#169,.T.);
#425=EDGE_CURVE('',#335,#334,#170,.T.);
#426=EDGE_CURVE('',#336,#335,#171,.T.);
#427=EDGE_CURVE('',#337,#336,#273,.T.);
#428=EDGE_CURVE('',#331,#337,#172,.T.);
#429=EDGE_CURVE('',#333,#314,#173,.T.);
#430=EDGE_CURVE('',#334,#313,#174,.T.);
#431=EDGE_CURVE('',#337,#310,#175,.T.);
#432=EDGE_CURVE('',#336,#311,#176,.T.);
#433=EDGE_CURVE('',#335,#312,#177,.T.);
#434=ORIENTED_EDGE('',*,*,#338,.T.);
#435=ORIENTED_EDGE('',*,*,#339,.T.);
#436=ORIENTED_EDGE('',*,*,#340,.T.);
#437=ORIENTED_EDGE('',*,*,#341,.F.);
#438=ORIENTED_EDGE('',*,*,#342,.T.);
#439=ORIENTED_EDGE('',*,*,#341,.T.);
#440=ORIENTED_EDGE('',*,*,#343,.T.);
#441=ORIENTED_EDGE('',*,*,#344,.F.);
#442=ORIENTED_EDGE('',*,*,#345,.F.);
#443=ORIENTED_EDGE('',*,*,#344,.T.);
#444=ORIENTED_EDGE('',*,*,#346,.T.);
#445=ORIENTED_EDGE('',*,*,#347,.F.);
#446=ORIENTED_EDGE('',*,*,#348,.F.);
#447=ORIENTED_EDGE('',*,*,#349,.T.);
#448=ORIENTED_EDGE('',*,*,#350,.F.);
#449=ORIENTED_EDGE('',*,*,#351,.F.);
#450=ORIENTED_EDGE('',*,*,#352,.F.);
#451=ORIENTED_EDGE('',*,*,#353,.T.);
#452=ORIENTED_EDGE('',*,*,#354,.F.);
#453=ORIENTED_EDGE('',*,*,#349,.F.);
#454=ORIENTED_EDGE('',*,*,#355,.T.);
#455=ORIENTED_EDGE('',*,*,#356,.T.);
#456=ORIENTED_EDGE('',*,*,#357,.F.);
#457=ORIENTED_EDGE('',*,*,#353,.F.);
#458=ORIENTED_EDGE('',*,*,#358,.T.);
#459=ORIENTED_EDGE('',*,*,#359,.F.);
#460=ORIENTED_EDGE('',*,*,#360,.T.);
#461=ORIENTED_EDGE('',*,*,#347,.T.);
#462=ORIENTED_EDGE('',*,*,#361,.T.);
#463=ORIENTED_EDGE('',*,*,#362,.T.);
#464=ORIENTED_EDGE('',*,*,#363,.F.);
#465=ORIENTED_EDGE('',*,*,#364,.F.);
#466=ORIENTED_EDGE('',*,*,#365,.F.);
#467=ORIENTED_EDGE('',*,*,#366,.F.);
#468=ORIENTED_EDGE('',*,*,#367,.F.);
#469=ORIENTED_EDGE('',*,*,#356,.F.);
#470=ORIENTED_EDGE('',*,*,#368,.F.);
#471=ORIENTED_EDGE('',*,*,#369,.T.);
#472=ORIENTED_EDGE('',*,*,#361,.F.);
#473=ORIENTED_EDGE('',*,*,#370,.T.);
#474=ORIENTED_EDGE('',*,*,#371,.F.);
#475=ORIENTED_EDGE('',*,*,#372,.F.);
#476=ORIENTED_EDGE('',*,*,#363,.T.);
#477=ORIENTED_EDGE('',*,*,#373,.F.);
#478=ORIENTED_EDGE('',*,*,#374,.T.);
#479=ORIENTED_EDGE('',*,*,#371,.T.);
#480=ORIENTED_EDGE('',*,*,#375,.T.);
#481=ORIENTED_EDGE('',*,*,#366,.T.);
#482=ORIENTED_EDGE('',*,*,#376,.T.);
#483=ORIENTED_EDGE('',*,*,#359,.T.);
#484=ORIENTED_EDGE('',*,*,#377,.T.);
#485=ORIENTED_EDGE('',*,*,#368,.T.);
#486=ORIENTED_EDGE('',*,*,#378,.F.);
#487=ORIENTED_EDGE('',*,*,#379,.F.);
#488=ORIENTED_EDGE('',*,*,#380,.F.);
#489=ORIENTED_EDGE('',*,*,#351,.T.);
#490=ORIENTED_EDGE('',*,*,#381,.F.);
#491=ORIENTED_EDGE('',*,*,#382,.F.);
#492=ORIENTED_EDGE('',*,*,#383,.F.);
#493=ORIENTED_EDGE('',*,*,#384,.F.);
#494=ORIENTED_EDGE('',*,*,#385,.F.);
#495=ORIENTED_EDGE('',*,*,#386,.F.);
#496=ORIENTED_EDGE('',*,*,#387,.F.);
#497=ORIENTED_EDGE('',*,*,#388,.F.);
#498=ORIENTED_EDGE('',*,*,#389,.F.);
#499=ORIENTED_EDGE('',*,*,#390,.T.);
#500=ORIENTED_EDGE('',*,*,#391,.T.);
#501=ORIENTED_EDGE('',*,*,#392,.T.);
#502=ORIENTED_EDGE('',*,*,#393,.T.);
#503=ORIENTED_EDGE('',*,*,#394,.T.);
#504=ORIENTED_EDGE('',*,*,#395,.T.);
#505=ORIENTED_EDGE('',*,*,#396,.T.);
#506=ORIENTED_EDGE('',*,*,#397,.T.);
#507=ORIENTED_EDGE('',*,*,#398,.F.);
#508=ORIENTED_EDGE('',*,*,#378,.T.);
#509=ORIENTED_EDGE('',*,*,#350,.T.);
#510=ORIENTED_EDGE('',*,*,#354,.T.);
#511=ORIENTED_EDGE('',*,*,#357,.T.);
#512=ORIENTED_EDGE('',*,*,#367,.T.);
#513=ORIENTED_EDGE('',*,*,#375,.F.);
#514=ORIENTED_EDGE('',*,*,#373,.T.);
#515=ORIENTED_EDGE('',*,*,#362,.F.);
#516=ORIENTED_EDGE('',*,*,#369,.F.);
#517=ORIENTED_EDGE('',*,*,#377,.F.);
#518=ORIENTED_EDGE('',*,*,#358,.F.);
#519=ORIENTED_EDGE('',*,*,#346,.F.);
#520=ORIENTED_EDGE('',*,*,#343,.F.);
#521=ORIENTED_EDGE('',*,*,#340,.F.);
#522=ORIENTED_EDGE('',*,*,#399,.T.);
#523=ORIENTED_EDGE('',*,*,#400,.F.);
#524=ORIENTED_EDGE('',*,*,#381,.T.);
#525=ORIENTED_EDGE('',*,*,#339,.F.);
#526=ORIENTED_EDGE('',*,*,#401,.T.);
#527=ORIENTED_EDGE('',*,*,#379,.T.);
#528=ORIENTED_EDGE('',*,*,#398,.T.);
#529=ORIENTED_EDGE('',*,*,#402,.T.);
#530=ORIENTED_EDGE('',*,*,#402,.F.);
#531=ORIENTED_EDGE('',*,*,#397,.F.);
#532=ORIENTED_EDGE('',*,*,#403,.F.);
#533=ORIENTED_EDGE('',*,*,#404,.F.);
#534=ORIENTED_EDGE('',*,*,#405,.T.);
#535=ORIENTED_EDGE('',*,*,#406,.T.);
#536=ORIENTED_EDGE('',*,*,#382,.T.);
#537=ORIENTED_EDGE('',*,*,#400,.T.);
#538=ORIENTED_EDGE('',*,*,#406,.F.);
#539=ORIENTED_EDGE('',*,*,#407,.T.);
#540=ORIENTED_EDGE('',*,*,#408,.T.);
#541=ORIENTED_EDGE('',*,*,#383,.T.);
#542=ORIENTED_EDGE('',*,*,#409,.T.);
#543=ORIENTED_EDGE('',*,*,#403,.T.);
#544=ORIENTED_EDGE('',*,*,#396,.F.);
#545=ORIENTED_EDGE('',*,*,#410,.F.);
#546=ORIENTED_EDGE('',*,*,#411,.F.);
#547=ORIENTED_EDGE('',*,*,#410,.T.);
#548=ORIENTED_EDGE('',*,*,#395,.F.);
#549=ORIENTED_EDGE('',*,*,#412,.F.);
#550=ORIENTED_EDGE('',*,*,#413,.F.);
#551=ORIENTED_EDGE('',*,*,#412,.T.);
#552=ORIENTED_EDGE('',*,*,#394,.F.);
#553=ORIENTED_EDGE('',*,*,#414,.F.);
#554=ORIENTED_EDGE('',*,*,#415,.F.);
#555=ORIENTED_EDGE('',*,*,#416,.T.);
#556=ORIENTED_EDGE('',*,*,#384,.T.);
#557=ORIENTED_EDGE('',*,*,#408,.F.);
#558=ORIENTED_EDGE('',*,*,#417,.T.);
#559=ORIENTED_EDGE('',*,*,#418,.T.);
#560=ORIENTED_EDGE('',*,*,#385,.T.);
#561=ORIENTED_EDGE('',*,*,#416,.F.);
#562=ORIENTED_EDGE('',*,*,#419,.T.);
#563=ORIENTED_EDGE('',*,*,#420,.T.);
#564=ORIENTED_EDGE('',*,*,#386,.T.);
#565=ORIENTED_EDGE('',*,*,#418,.F.);
#566=ORIENTED_EDGE('',*,*,#393,.F.);
#567=ORIENTED_EDGE('',*,*,#421,.F.);
#568=ORIENTED_EDGE('',*,*,#422,.F.);
#569=ORIENTED_EDGE('',*,*,#414,.T.);
#570=ORIENTED_EDGE('',*,*,#380,.T.);
#571=ORIENTED_EDGE('',*,*,#401,.F.);
#572=ORIENTED_EDGE('',*,*,#404,.T.);
#573=ORIENTED_EDGE('',*,*,#409,.F.);
#574=ORIENTED_EDGE('',*,*,#411,.T.);
#575=ORIENTED_EDGE('',*,*,#413,.T.);
#576=ORIENTED_EDGE('',*,*,#422,.T.);
#577=ORIENTED_EDGE('',*,*,#423,.T.);
#578=ORIENTED_EDGE('',*,*,#424,.T.);
#579=ORIENTED_EDGE('',*,*,#425,.F.);
#580=ORIENTED_EDGE('',*,*,#426,.F.);
#581=ORIENTED_EDGE('',*,*,#427,.F.);
#582=ORIENTED_EDGE('',*,*,#428,.F.);
#583=ORIENTED_EDGE('',*,*,#419,.F.);
#584=ORIENTED_EDGE('',*,*,#417,.F.);
#585=ORIENTED_EDGE('',*,*,#415,.T.);
#586=ORIENTED_EDGE('',*,*,#407,.F.);
#587=ORIENTED_EDGE('',*,*,#405,.F.);
#588=ORIENTED_EDGE('',*,*,#399,.F.);
#589=ORIENTED_EDGE('',*,*,#338,.F.);
#590=ORIENTED_EDGE('',*,*,#342,.F.);
#591=ORIENTED_EDGE('',*,*,#345,.T.);
#592=ORIENTED_EDGE('',*,*,#360,.F.);
#593=ORIENTED_EDGE('',*,*,#376,.F.);
#594=ORIENTED_EDGE('',*,*,#370,.F.);
#595=ORIENTED_EDGE('',*,*,#364,.T.);
#596=ORIENTED_EDGE('',*,*,#372,.T.);
#597=ORIENTED_EDGE('',*,*,#374,.F.);
#598=ORIENTED_EDGE('',*,*,#365,.T.);
#599=ORIENTED_EDGE('',*,*,#355,.F.);
#600=ORIENTED_EDGE('',*,*,#352,.T.);
#601=ORIENTED_EDGE('',*,*,#348,.T.);
#602=ORIENTED_EDGE('',*,*,#423,.F.);
#603=ORIENTED_EDGE('',*,*,#421,.T.);
#604=ORIENTED_EDGE('',*,*,#392,.F.);
#605=ORIENTED_EDGE('',*,*,#429,.F.);
#606=ORIENTED_EDGE('',*,*,#424,.F.);
#607=ORIENTED_EDGE('',*,*,#429,.T.);
#608=ORIENTED_EDGE('',*,*,#391,.F.);
#609=ORIENTED_EDGE('',*,*,#430,.F.);
#610=ORIENTED_EDGE('',*,*,#428,.T.);
#611=ORIENTED_EDGE('',*,*,#431,.T.);
#612=ORIENTED_EDGE('',*,*,#387,.T.);
#613=ORIENTED_EDGE('',*,*,#420,.F.);
#614=ORIENTED_EDGE('',*,*,#427,.T.);
#615=ORIENTED_EDGE('',*,*,#432,.T.);
#616=ORIENTED_EDGE('',*,*,#388,.T.);
#617=ORIENTED_EDGE('',*,*,#431,.F.);
#618=ORIENTED_EDGE('',*,*,#426,.T.);
#619=ORIENTED_EDGE('',*,*,#433,.T.);
#620=ORIENTED_EDGE('',*,*,#389,.T.);
#621=ORIENTED_EDGE('',*,*,#432,.F.);
#622=ORIENTED_EDGE('',*,*,#433,.F.);
#623=ORIENTED_EDGE('',*,*,#425,.T.);
#624=ORIENTED_EDGE('',*,*,#430,.T.);
#625=ORIENTED_EDGE('',*,*,#390,.F.);
#626=CYLINDRICAL_SURFACE('',#705,5.36000000428036);
#627=CYLINDRICAL_SURFACE('',#709,7.87999999999999);
#628=CYLINDRICAL_SURFACE('',#712,6.74000000428036);
#629=CYLINDRICAL_SURFACE('',#716,6.49999999999999);
#630=CYLINDRICAL_SURFACE('',#724,6.49999999999993);
#631=CYLINDRICAL_SURFACE('',#727,7.87999999999993);
#632=CYLINDRICAL_SURFACE('',#741,6.73999999999996);
#633=CYLINDRICAL_SURFACE('',#744,5.35999999999996);
#634=CYLINDRICAL_SURFACE('',#747,6.49999999999996);
#635=CYLINDRICAL_SURFACE('',#750,6.74000000000086);
#636=CYLINDRICAL_SURFACE('',#752,7.87999999999996);
#637=CYLINDRICAL_SURFACE('',#755,5.36000000000086);
#638=CYLINDRICAL_SURFACE('',#761,6.74000000981195);
#639=CYLINDRICAL_SURFACE('',#764,5.36000000981195);
#640=STYLED_ITEM('',(#1199),#656);
#641=STYLED_ITEM('',(#1199),#657);
#642=STYLED_ITEM('',(#1199),#658);
#643=STYLED_ITEM('',(#1199),#662);
#644=STYLED_ITEM('',(#1199),#665);
#645=STYLED_ITEM('',(#1199),#668);
#646=STYLED_ITEM('',(#1199),#671);
#647=STYLED_ITEM('',(#1199),#674);
#648=STYLED_ITEM('',(#1199),#675);
#649=STYLED_ITEM('',(#1199),#679);
#650=STYLED_ITEM('',(#1199),#680);
#651=STYLED_ITEM('',(#1199),#681);
#652=STYLED_ITEM('',(#1199),#686);
#653=STYLED_ITEM('',(#1199),#687);
#654=STYLED_ITEM('',(#1199),#688);
#655=STYLED_ITEM('',(#1198),#21);
#656=ADVANCED_FACE('',(#42),#626,.F.);
#657=ADVANCED_FACE('',(#43),#22,.F.);
#658=ADVANCED_FACE('',(#44),#627,.T.);
#659=ADVANCED_FACE('',(#45),#628,.T.);
#660=ADVANCED_FACE('',(#46),#23,.T.);
#661=ADVANCED_FACE('',(#47),#629,.F.);
#662=ADVANCED_FACE('',(#48),#24,.F.);
#663=ADVANCED_FACE('',(#49),#25,.F.);
#664=ADVANCED_FACE('',(#50),#26,.T.);
#665=ADVANCED_FACE('',(#51),#27,.F.);
#666=ADVANCED_FACE('',(#52),#28,.T.);
#667=ADVANCED_FACE('',(#53),#630,.F.);
#668=ADVANCED_FACE('',(#54),#631,.T.);
#669=ADVANCED_FACE('',(#55),#29,.T.);
#670=ADVANCED_FACE('',(#56),#30,.F.);
#671=ADVANCED_FACE('',(#57),#31,.F.);
#672=ADVANCED_FACE('',(#58),#632,.T.);
#673=ADVANCED_FACE('',(#59),#32,.T.);
#674=ADVANCED_FACE('',(#60),#633,.F.);
#675=ADVANCED_FACE('',(#61),#33,.F.);
#676=ADVANCED_FACE('',(#62),#634,.F.);
#677=ADVANCED_FACE('',(#63),#34,.T.);
#678=ADVANCED_FACE('',(#64),#635,.T.);
#679=ADVANCED_FACE('',(#65),#636,.T.);
#680=ADVANCED_FACE('',(#66),#35,.F.);
#681=ADVANCED_FACE('',(#67),#637,.F.);
#682=ADVANCED_FACE('',(#68),#36,.T.);
#683=ADVANCED_FACE('',(#69),#37,.F.);
#684=ADVANCED_FACE('',(#70),#638,.T.);
#685=ADVANCED_FACE('',(#71),#38,.T.);
#686=ADVANCED_FACE('',(#72),#39,.F.);
#687=ADVANCED_FACE('',(#73),#639,.F.);
#688=ADVANCED_FACE('',(#74),#40,.F.);
#689=ADVANCED_FACE('',(#75),#41,.F.);
#690=CLOSED_SHELL('',(#656,#657,#658,#659,#660,#661,#662,#663,#664,#665,
#666,#667,#668,#669,#670,#671,#672,#673,#674,#675,#676,#677,#678,#679,#680,
#681,#682,#683,#684,#685,#686,#687,#688,#689));
#691=DERIVED_UNIT_ELEMENT(#693,1.);
#692=DERIVED_UNIT_ELEMENT(#1174,-3.);
#693=(
MASS_UNIT()
NAMED_UNIT(*)
SI_UNIT(.KILO.,.GRAM.)
);
#694=DERIVED_UNIT((#691,#692));
#695=MEASURE_REPRESENTATION_ITEM('density measure',
POSITIVE_RATIO_MEASURE(7850.),#694);
#696=PROPERTY_DEFINITION_REPRESENTATION(#701,#698);
#697=PROPERTY_DEFINITION_REPRESENTATION(#702,#699);
#698=REPRESENTATION('material name',(#700),#1171);
#699=REPRESENTATION('density',(#695),#1171);
#700=DESCRIPTIVE_REPRESENTATION_ITEM('Steel','Steel');
#701=PROPERTY_DEFINITION('material property','material name',#1187);
#702=PROPERTY_DEFINITION('material property','density of part',#1187);
#703=AXIS2_PLACEMENT_3D('',#969,#769,#770);
#704=AXIS2_PLACEMENT_3D('',#970,#771,#772);
#705=AXIS2_PLACEMENT_3D('',#971,#773,#774);
#706=AXIS2_PLACEMENT_3D('',#974,#775,#776);
#707=AXIS2_PLACEMENT_3D('',#978,#778,#779);
#708=AXIS2_PLACEMENT_3D('',#980,#781,#782);
#709=AXIS2_PLACEMENT_3D('',#986,#786,#787);
#710=AXIS2_PLACEMENT_3D('',#988,#788,#789);
#711=AXIS2_PLACEMENT_3D('',#990,#790,#791);
#712=AXIS2_PLACEMENT_3D('',#992,#793,#794);
#713=AXIS2_PLACEMENT_3D('',#995,#795,#796);
#714=AXIS2_PLACEMENT_3D('',#999,#798,#799);
#715=AXIS2_PLACEMENT_3D('',#1001,#801,#802);
#716=AXIS2_PLACEMENT_3D('',#1007,#806,#807);
#717=AXIS2_PLACEMENT_3D('',#1009,#808,#809);
#718=AXIS2_PLACEMENT_3D('',#1012,#811,#812);
#719=AXIS2_PLACEMENT_3D('',#1013,#813,#814);
#720=AXIS2_PLACEMENT_3D('',#1019,#818,#819);
#721=AXIS2_PLACEMENT_3D('',#1028,#824,#825);
#722=AXIS2_PLACEMENT_3D('',#1034,#829,#830);
#723=AXIS2_PLACEMENT_3D('',#1040,#834,#835);
#724=AXIS2_PLACEMENT_3D('',#1046,#839,#840);
#725=AXIS2_PLACEMENT_3D('',#1047,#841,#842);
#726=AXIS2_PLACEMENT_3D('',#1048,#843,#844);
#727=AXIS2_PLACEMENT_3D('',#1049,#845,#846);
#728=AXIS2_PLACEMENT_3D('',#1050,#847,#848);
#729=AXIS2_PLACEMENT_3D('',#1051,#849,#850);
#730=AXIS2_PLACEMENT_3D('',#1052,#851,#852);
#731=AXIS2_PLACEMENT_3D('',#1058,#856,#857);
#732=AXIS2_PLACEMENT_3D('',#1062,#859,#860);
#733=AXIS2_PLACEMENT_3D('',#1066,#862,#863);
#734=AXIS2_PLACEMENT_3D('',#1070,#865,#866);
#735=AXIS2_PLACEMENT_3D('',#1074,#868,#869);
#736=AXIS2_PLACEMENT_3D('',#1082,#873,#874);
#737=AXIS2_PLACEMENT_3D('',#1086,#876,#877);
#738=AXIS2_PLACEMENT_3D('',#1090,#879,#880);
#739=AXIS2_PLACEMENT_3D('',#1093,#882,#883);
#740=AXIS2_PLACEMENT_3D('',#1094,#884,#885);
#741=AXIS2_PLACEMENT_3D('',#1098,#888,#889);
#742=AXIS2_PLACEMENT_3D('',#1100,#890,#891);
#743=AXIS2_PLACEMENT_3D('',#1102,#893,#894);
#744=AXIS2_PLACEMENT_3D('',#1106,#897,#898);
#745=AXIS2_PLACEMENT_3D('',#1108,#899,#900);
#746=AXIS2_PLACEMENT_3D('',#1110,#902,#903);
#747=AXIS2_PLACEMENT_3D('',#1114,#906,#907);
#748=AXIS2_PLACEMENT_3D('',#1116,#908,#909);
#749=AXIS2_PLACEMENT_3D('',#1118,#911,#912);
#750=AXIS2_PLACEMENT_3D('',#1122,#915,#916);
#751=AXIS2_PLACEMENT_3D('',#1124,#917,#918);
#752=AXIS2_PLACEMENT_3D('',#1126,#920,#921);
#753=AXIS2_PLACEMENT_3D('',#1128,#922,#923);
#754=AXIS2_PLACEMENT_3D('',#1130,#925,#926);
#755=AXIS2_PLACEMENT_3D('',#1134,#929,#930);
#756=AXIS2_PLACEMENT_3D('',#1136,#931,#932);
#757=AXIS2_PLACEMENT_3D('',#1138,#934,#935);
#758=AXIS2_PLACEMENT_3D('',#1142,#938,#939);
#759=AXIS2_PLACEMENT_3D('',#1144,#940,#941);
#760=AXIS2_PLACEMENT_3D('',#1152,#945,#946);
#761=AXIS2_PLACEMENT_3D('',#1154,#948,#949);
#762=AXIS2_PLACEMENT_3D('',#1156,#951,#952);
#763=AXIS2_PLACEMENT_3D('',#1158,#954,#955);
#764=AXIS2_PLACEMENT_3D('',#1160,#957,#958);
#765=AXIS2_PLACEMENT_3D('',#1162,#960,#961);
#766=AXIS2_PLACEMENT_3D('',#1164,#963,#964);
#767=AXIS2_PLACEMENT_3D('',#1165,#965,#966);
#768=AXIS2_PLACEMENT_3D('',#1166,#967,#968);
#769=DIRECTION('axis',(0.,0.,1.));
#770=DIRECTION('refdir',(1.,0.,0.));
#771=DIRECTION('axis',(0.,0.,1.));
#772=DIRECTION('refdir',(1.,0.,0.));
#773=DIRECTION('center_axis',(-1.11022302462517E-16,-1.22315418339995E-33,
-1.));
#774=DIRECTION('ref_axis',(-0.327457209608773,-0.944866009482422,3.63550533687171E-17));
#775=DIRECTION('center_axis',(5.43276964894556E-16,-3.05794569973336E-16,
1.));
#776=DIRECTION('ref_axis',(-0.78553973185339,0.618811222974911,6.15994753149679E-16));
#777=DIRECTION('',(-1.11022302462517E-16,-1.22315418339995E-33,-1.));
#778=DIRECTION('center_axis',(-5.43276964894556E-16,3.05794569973336E-16,
-1.));
#779=DIRECTION('ref_axis',(-0.78553973185339,0.618811222974911,6.15994753149679E-16));
#780=DIRECTION('',(-1.11022302462517E-16,-1.22315418339995E-33,-1.));
#781=DIRECTION('center_axis',(-0.785510057429719,0.618848890826153,8.72091351833116E-17));
#782=DIRECTION('ref_axis',(0.618848890826153,0.785510057429719,-2.07688645323722E-16));
#783=DIRECTION('',(-0.618848890826153,-0.785510057429719,2.07688645323722E-16));
#784=DIRECTION('',(0.618848890826153,0.785510057429719,-2.07688645323722E-16));
#785=DIRECTION('',(-1.11022302462517E-16,-1.22315418339995E-33,-1.));
#786=DIRECTION('center_axis',(-1.11022302462517E-16,-1.22315418339995E-33,
-1.));
#787=DIRECTION('ref_axis',(0.785510057213715,-0.618848891100329,-8.72091351593303E-17));
#788=DIRECTION('center_axis',(1.09426637795715E-15,-7.39911079021991E-16,
1.));
#789=DIRECTION('ref_axis',(0.785510057213715,-0.618848891100329,-1.31745039592177E-15));
#790=DIRECTION('center_axis',(1.09426637795715E-15,-7.39911079021991E-16,
1.));
#791=DIRECTION('ref_axis',(0.785510057213715,-0.618848891100329,-1.31745039592177E-15));
#792=DIRECTION('',(-1.11022302462517E-16,-1.22315418339995E-33,-1.));
#793=DIRECTION('center_axis',(-1.11022302462517E-16,-1.22315418339995E-33,
-1.));
#794=DIRECTION('ref_axis',(-0.327460125928866,-0.944864998783769,3.63553771452885E-17));
#795=DIRECTION('center_axis',(5.43276964894556E-16,-3.05794569973336E-16,
1.));
#796=DIRECTION('ref_axis',(-0.78553973185339,0.618811222974911,6.15994753149679E-16));
#797=DIRECTION('',(-1.11022302462517E-16,-1.22315418339995E-33,-1.));
#798=DIRECTION('center_axis',(-5.43276964894556E-16,3.05794569973336E-16,
-1.));
#799=DIRECTION('ref_axis',(-0.78553973185339,0.618811222974911,6.15994753149679E-16));
#800=DIRECTION('',(-1.11022302462517E-16,-1.22315418339995E-33,-1.));
#801=DIRECTION('center_axis',(-0.785510057429719,0.618848890826153,8.72091351833116E-17));
#802=DIRECTION('ref_axis',(0.618848890826153,0.785510057429719,-2.07688645323722E-16));
#803=DIRECTION('',(-0.618848890826153,-0.785510057429719,2.07688645323722E-16));
#804=DIRECTION('',(-1.11022302462517E-16,-1.22315418339995E-33,-1.));
#805=DIRECTION('',(0.618848890826153,0.785510057429719,-2.07688645323722E-16));
#806=DIRECTION('center_axis',(-1.11022302462517E-16,-1.22315418339995E-33,
-1.));
#807=DIRECTION('ref_axis',(0.785510057213715,-0.618848891100329,-8.72091351593303E-17));
#808=DIRECTION('center_axis',(1.09426637795715E-15,-7.39911079021991E-16,
1.));
#809=DIRECTION('ref_axis',(0.785510057213715,-0.618848891100329,-1.31745039592177E-15));
#810=DIRECTION('',(-1.11022302462517E-16,-1.22315418339995E-33,-1.));
#811=DIRECTION('center_axis',(1.09426637795715E-15,-7.39911079021991E-16,
1.));
#812=DIRECTION('ref_axis',(0.785510057213715,-0.618848891100329,-1.31745039592177E-15));
#813=DIRECTION('center_axis',(-1.,-1.76477775372733E-13,1.11022302462517E-16));
#814=DIRECTION('ref_axis',(-1.76477775372733E-13,1.,-7.03741775244551E-17));
#815=DIRECTION('',(-1.76477775372733E-13,1.,-7.03741775244551E-17));
#816=DIRECTION('',(-1.11022302462517E-16,-1.2231541834672E-33,-1.));
#817=DIRECTION('',(1.76477775372733E-13,-1.,7.03741775244551E-17));
#818=DIRECTION('center_axis',(1.,2.99923806453831E-12,-1.11022302462517E-16));
#819=DIRECTION('ref_axis',(-1.11022302462517E-16,-1.22315418339994E-33,
-1.));
#820=DIRECTION('',(-1.11022302462517E-16,-1.22315418339994E-33,-1.));
#821=DIRECTION('',(2.99923806453831E-12,-1.,-3.32981092404083E-28));
#822=DIRECTION('',(-1.11022302462517E-16,-1.22315418339994E-33,-1.));
#823=DIRECTION('',(2.99923806453831E-12,-1.,-3.32981092404083E-28));
#824=DIRECTION('center_axis',(-1.,-1.76477775372733E-13,1.11022302462517E-16));
#825=DIRECTION('ref_axis',(-1.76477775372733E-13,1.,-7.03741775244551E-17));
#826=DIRECTION('',(1.76477775372733E-13,-1.,7.03741775244551E-17));
#827=DIRECTION('',(1.11022302462517E-16,1.2231541834672E-33,1.));
#828=DIRECTION('',(-1.76477775372733E-13,1.,-7.03741775244551E-17));
#829=DIRECTION('center_axis',(2.99923806453831E-12,-1.,-3.32981092404083E-28));
#830=DIRECTION('ref_axis',(-1.,-2.99923806453831E-12,8.75409631879091E-17));
#831=DIRECTION('',(1.11022302462517E-16,1.2231541834672E-33,1.));
#832=DIRECTION('',(-1.,-2.99923806453831E-12,8.75409631879091E-17));
#833=DIRECTION('',(1.,2.99923806453831E-12,-8.75409631879091E-17));
#834=DIRECTION('center_axis',(2.99923806453831E-12,-1.,-3.32981092404083E-28));
#835=DIRECTION('ref_axis',(-1.,-2.99923806453831E-12,8.75409631879091E-17));
#836=DIRECTION('',(-1.11022302462517E-16,-1.2231541834672E-33,-1.));
#837=DIRECTION('',(1.,2.99923806453831E-12,-8.75409631879091E-17));
#838=DIRECTION('',(-1.,-2.99923806453831E-12,8.75409631879091E-17));
#839=DIRECTION('center_axis',(-1.11022302462517E-16,-1.2231541834672E-33,
-1.));
#840=DIRECTION('ref_axis',(0.707106781185427,0.707106781187668,3.03408040469623E-31));
#841=DIRECTION('center_axis',(1.3305668935189E-16,-2.20343868893621E-17,
1.));
#842=DIRECTION('ref_axis',(0.707106781185427,0.707106781187668,3.03408040469623E-31));
#843=DIRECTION('center_axis',(-1.3305668935189E-16,2.20343868893621E-17,
-1.));
#844=DIRECTION('ref_axis',(0.707106781185427,0.707106781187668,3.03408040469623E-31));
#845=DIRECTION('center_axis',(1.11022302462517E-16,1.2231541834672E-33,
1.));
#846=DIRECTION('ref_axis',(0.707106781185425,0.70710678118767,3.4412555351488E-31));
#847=DIRECTION('center_axis',(-1.3305668935189E-16,2.20343868893621E-17,
-1.));
#848=DIRECTION('ref_axis',(0.707106781185425,0.70710678118767,3.4412555351488E-31));
#849=DIRECTION('center_axis',(1.3305668935189E-16,-2.20343868893621E-17,
1.));
#850=DIRECTION('ref_axis',(0.707106781185425,0.70710678118767,3.4412555351488E-31));
#851=DIRECTION('center_axis',(1.,-2.15489470039195E-15,-1.11022302462517E-16));
#852=DIRECTION('ref_axis',(-2.15489470039195E-15,-1.,3.17878664784773E-17));
#853=DIRECTION('',(-2.15489470039195E-15,-1.,3.17878664784773E-17));
#854=DIRECTION('',(-1.11022302462517E-16,-1.22315418339645E-33,-1.));
#855=DIRECTION('',(2.15489470039195E-15,1.,-3.17878664784773E-17));
#856=DIRECTION('center_axis',(1.3305668935189E-16,-2.20343868893621E-17,
1.));
#857=DIRECTION('ref_axis',(1.,-5.27355936696951E-16,-1.3305668935189E-16));
#858=DIRECTION('',(-2.15489470039195E-15,-1.,3.17878664784773E-17));
#859=DIRECTION('center_axis',(-1.3305668935189E-16,2.20343868893621E-17,
-1.));
#860=DIRECTION('ref_axis',(0.707106781186538,0.707106781186557,2.98950319725782E-31));
#861=DIRECTION('',(1.,3.10015500230737E-14,-1.55091076241301E-16));
#862=DIRECTION('center_axis',(1.55091076241301E-16,5.90501740757623E-29,
1.));
#863=DIRECTION('ref_axis',(-0.9956467306157,-0.0932072304827724,1.54415923007327E-16));
#864=DIRECTION('',(0.0932072304825615,-0.995646730615719,-1.44556096889526E-17));
#865=DIRECTION('center_axis',(-1.55091076241301E-16,-5.90501740757623E-29,
-1.));
#866=DIRECTION('ref_axis',(0.995646730615449,0.0932072304854446,-1.54415923007288E-16));
#867=DIRECTION('',(4.89725397459815E-12,1.,-8.18570563623176E-28));
#868=DIRECTION('center_axis',(-1.55091076241301E-16,-5.90501740757623E-29,
-1.));
#869=DIRECTION('ref_axis',(-1.,-6.31827737881568E-9,1.55091076241301E-16));
#870=DIRECTION('',(-1.,2.15733970013996E-10,2.42642343214385E-16));
#871=DIRECTION('',(-2.15733970013996E-10,-1.,2.39512832934878E-26));
#872=DIRECTION('',(-1.,2.15733970013996E-10,2.42642343214385E-16));
#873=DIRECTION('center_axis',(-1.55091076241301E-16,-5.90501740757623E-29,
-1.));
#874=DIRECTION('ref_axis',(-1.,-6.31827737881568E-9,1.55091076241301E-16));
#875=DIRECTION('',(4.89725397459815E-12,1.,-8.18570563623176E-28));
#876=DIRECTION('center_axis',(-1.55091076241301E-16,-5.90501740757623E-29,
-1.));
#877=DIRECTION('ref_axis',(0.995646730615449,0.0932072304854446,-1.54415923007288E-16));
#878=DIRECTION('',(0.0932072304825615,-0.995646730615719,-1.44556096889526E-17));
#879=DIRECTION('center_axis',(1.55091076241301E-16,5.90501740757623E-29,
1.));
#880=DIRECTION('ref_axis',(-0.9956467306157,-0.0932072304827723,1.54415923007327E-16));
#881=DIRECTION('',(1.,3.10015500230737E-14,-1.55091076241301E-16));
#882=DIRECTION('center_axis',(1.3305668935189E-16,-2.20343868893621E-17,
1.));
#883=DIRECTION('ref_axis',(0.707106781186534,0.707106781186561,3.1089195541444E-31));
#884=DIRECTION('center_axis',(1.,-2.15489470039195E-15,-1.11022302462517E-16));
#885=DIRECTION('ref_axis',(-2.15489470039195E-15,-1.,3.17878664784773E-17));
#886=DIRECTION('',(2.15489470039195E-15,1.,-3.17878664784773E-17));
#887=DIRECTION('',(1.11022302462517E-16,1.22315418339645E-33,1.));
#888=DIRECTION('center_axis',(1.11022302462517E-16,1.22315418339645E-33,
1.));
#889=DIRECTION('ref_axis',(0.707106781186534,0.707106781186561,3.1089195541444E-31));
#890=DIRECTION('center_axis',(-1.3305668935189E-16,2.20343868893621E-17,
-1.));
#891=DIRECTION('ref_axis',(0.707106781186534,0.707106781186561,3.1089195541444E-31));
#892=DIRECTION('',(1.11022302462517E-16,1.22315418339645E-33,1.));
#893=DIRECTION('center_axis',(-3.10015500230737E-14,1.,3.44064030928515E-30));
#894=DIRECTION('ref_axis',(1.,3.10015500230737E-14,-1.55091076241301E-16));
#895=DIRECTION('',(-1.11022302462517E-16,-1.22315418339995E-33,-1.));
#896=DIRECTION('',(-1.,-3.10015500230737E-14,1.55091076241301E-16));
#897=DIRECTION('center_axis',(-1.11022302462517E-16,-1.22315418339645E-33,
-1.));
#898=DIRECTION('ref_axis',(0.707106781186538,0.707106781186557,2.98950319725782E-31));
#899=DIRECTION('center_axis',(1.3305668935189E-16,-2.20343868893621E-17,
1.));
#900=DIRECTION('ref_axis',(0.707106781186538,0.707106781186557,2.98950319725782E-31));
#901=DIRECTION('',(-1.11022302462517E-16,-1.22315418339645E-33,-1.));
#902=DIRECTION('center_axis',(-3.10015500230737E-14,1.,3.44064030928515E-30));
#903=DIRECTION('ref_axis',(1.,3.10015500230737E-14,-1.55091076241301E-16));
#904=DIRECTION('',(-1.,-3.10015500230737E-14,1.55091076241301E-16));
#905=DIRECTION('',(-1.11022302462517E-16,-1.22315418339995E-33,-1.));
#906=DIRECTION('center_axis',(-1.11022302462517E-16,-1.22315418339995E-33,
-1.));
#907=DIRECTION('ref_axis',(-0.9956467306157,-0.0932072304827723,1.10538992472233E-16));
#908=DIRECTION('center_axis',(1.55091076241301E-16,5.90501740757623E-29,
1.));
#909=DIRECTION('ref_axis',(-0.9956467306157,-0.0932072304827723,1.54415923007327E-16));
#910=DIRECTION('',(-1.11022302462517E-16,-1.22315418339995E-33,-1.));
#911=DIRECTION('center_axis',(0.995646730615719,0.0932072304825615,-1.10538992472235E-16));
#912=DIRECTION('ref_axis',(0.0932072304825615,-0.995646730615719,-1.44556096889526E-17));
#913=DIRECTION('',(-0.0932072304825615,0.995646730615719,1.44556096889526E-17));
#914=DIRECTION('',(-1.11022302462517E-16,-1.22315418339995E-33,-1.));
#915=DIRECTION('center_axis',(-1.11022302462517E-16,-1.22315418339995E-33,
-1.));
#916=DIRECTION('ref_axis',(0.995646730615449,0.0932072304854446,-1.10538992472205E-16));
#917=DIRECTION('center_axis',(1.55091076241301E-16,5.90501740757623E-29,
1.));
#918=DIRECTION('ref_axis',(0.995646730615449,0.0932072304854446,-1.54415923007288E-16));
#919=DIRECTION('',(-1.11022302462517E-16,-1.22315418339995E-33,-1.));
#920=DIRECTION('center_axis',(-1.11022302462517E-16,-1.22315418339995E-33,
-1.));
#921=DIRECTION('ref_axis',(-0.9956467306157,-0.0932072304827723,1.10538992472233E-16));
#922=DIRECTION('center_axis',(1.55091076241301E-16,5.90501740757623E-29,
1.));
#923=DIRECTION('ref_axis',(-0.9956467306157,-0.0932072304827724,1.54415923007327E-16));
#924=DIRECTION('',(-1.11022302462517E-16,-1.22315418339995E-33,-1.));
#925=DIRECTION('center_axis',(0.995646730615719,0.0932072304825615,-1.10538992472235E-16));
#926=DIRECTION('ref_axis',(0.0932072304825615,-0.995646730615719,-1.44556096889526E-17));
#927=DIRECTION('',(-0.0932072304825615,0.995646730615719,1.44556096889526E-17));
#928=DIRECTION('',(-1.11022302462517E-16,-1.22315418339995E-33,-1.));
#929=DIRECTION('center_axis',(-1.11022302462517E-16,-1.22315418339995E-33,
-1.));
#930=DIRECTION('ref_axis',(0.995646730615449,0.0932072304854446,-1.10538992472205E-16));
#931=DIRECTION('center_axis',(1.55091076241301E-16,5.90501740757623E-29,
1.));
#932=DIRECTION('ref_axis',(0.995646730615449,0.0932072304854446,-1.54415923007288E-16));
#933=DIRECTION('',(-1.11022302462517E-16,-1.22315418339995E-33,-1.));
#934=DIRECTION('center_axis',(-1.,4.89725397459815E-12,1.11022302462517E-16));
#935=DIRECTION('ref_axis',(4.89725397459815E-12,1.,-8.18570563623177E-28));
#936=DIRECTION('',(-1.11022302462517E-16,-1.22315418339952E-33,-1.));
#937=DIRECTION('',(-4.89725397459815E-12,-1.,8.18570563623177E-28));
#938=DIRECTION('center_axis',(-1.3305668935189E-16,2.20343868893621E-17,
-1.));
#939=DIRECTION('ref_axis',(-1.,5.27355936696951E-16,1.3305668935189E-16));
#940=DIRECTION('center_axis',(1.55091076241301E-16,5.90501740757623E-29,
1.));
#941=DIRECTION('ref_axis',(-1.,-6.31827737881568E-9,1.55091076241301E-16));
#942=DIRECTION('',(1.,-2.15733970013996E-10,-2.42642343214385E-16));
#943=DIRECTION('',(-2.15733970013996E-10,-1.,2.39512832934878E-26));
#944=DIRECTION('',(1.,-2.15733970013996E-10,-2.42642343214385E-16));
#945=DIRECTION('center_axis',(1.55091076241301E-16,5.90501740757623E-29,
1.));
#946=DIRECTION('ref_axis',(-1.,-6.31827737881568E-9,1.55091076241301E-16));
#947=DIRECTION('',(-4.89725397459815E-12,-1.,8.18570563623177E-28));
#948=DIRECTION('center_axis',(-1.11022302462517E-16,-1.22315418339952E-33,
-1.));
#949=DIRECTION('ref_axis',(-1.,-6.31827737881568E-9,1.11022302462517E-16));
#950=DIRECTION('',(-1.11022302462517E-16,-1.22315418339952E-33,-1.));
#951=DIRECTION('center_axis',(-2.15733970013996E-10,-1.,2.39512832934878E-26));
#952=DIRECTION('ref_axis',(-1.,2.15733970013996E-10,2.42642343214385E-16));
#953=DIRECTION('',(-1.11022302462517E-16,-1.22315418339952E-33,-1.));
#954=DIRECTION('center_axis',(-1.,4.89725397459815E-12,1.11022302462517E-16));
#955=DIRECTION('ref_axis',(4.89725397459815E-12,1.,-8.18570563623177E-28));
#956=DIRECTION('',(-1.11022302462517E-16,-1.22315418339952E-33,-1.));
#957=DIRECTION('center_axis',(-1.11022302462517E-16,-1.22315418339952E-33,
-1.));
#958=DIRECTION('ref_axis',(-1.,-6.31827737881568E-9,1.11022302462517E-16));
#959=DIRECTION('',(-1.11022302462517E-16,-1.22315418339952E-33,-1.));
#960=DIRECTION('center_axis',(-2.15733970013996E-10,-1.,2.39512832934878E-26));
#961=DIRECTION('ref_axis',(-1.,2.15733970013996E-10,2.42642343214385E-16));
#962=DIRECTION('',(-1.11022302462517E-16,-1.22315418339952E-33,-1.));
#963=DIRECTION('center_axis',(-1.,2.15733970013996E-10,1.11022302462517E-16));
#964=DIRECTION('ref_axis',(1.11022302462517E-16,1.22315418339952E-33,1.));
#965=DIRECTION('',(-1.11022302462518E-16,-1.57772181044202E-30,1.));
#966=DIRECTION('',(0.999999999999999,5.2735593669694E-16,1.11022302462515E-16));
#967=DIRECTION('',(1.22464679914612E-16,2.92802305336994E-29,-1.));
#968=DIRECTION('',(-0.999999999999998,5.27355936696717E-16,-1.22464679914612E-16));
#969=CARTESIAN_POINT('',(0.,0.,0.));
#970=CARTESIAN_POINT('',(0.,0.,0.));
#971=CARTESIAN_POINT('Origin',(162.500000000067,-226.999999999974,24.0000000000011));
#972=CARTESIAN_POINT('',(158.289486559242,-223.683197833488,27.0000000000011));
#973=CARTESIAN_POINT('',(167.860000004348,-226.999999999975,27.0000000000011));
#974=CARTESIAN_POINT('Origin',(162.500000000067,-226.999999999974,27.0000000000011));
#975=CARTESIAN_POINT('',(167.860000004348,-226.999999999975,18.0000000000011));
#976=CARTESIAN_POINT('',(167.860000004348,-226.999999999975,24.0000000000011));
#977=CARTESIAN_POINT('',(158.289486559242,-223.683197833488,18.0000000000011));
#978=CARTESIAN_POINT('Origin',(162.500000000067,-226.999999999974,18.0000000000011));
#979=CARTESIAN_POINT('',(158.289466083266,-223.683223823815,24.0000000000011));
#980=CARTESIAN_POINT('Origin',(158.289466083266,-223.683223823815,24.0000000000011));
#981=CARTESIAN_POINT('',(164.439819252032,-215.876529261656,27.0000000000011));
#982=CARTESIAN_POINT('',(164.439819252182,-215.876529261467,27.0000000000011));
#983=CARTESIAN_POINT('',(164.439819252032,-215.876529261656,18.0000000000011));
#984=CARTESIAN_POINT('',(164.439819252182,-215.876529261467,18.0000000000011));
#985=CARTESIAN_POINT('',(164.439819252182,-215.876529261467,24.0000000000011));
#986=CARTESIAN_POINT('Origin',(158.250000001039,-210.999999999974,24.0000000000011));
#987=CARTESIAN_POINT('',(166.130000001039,-210.999999999973,27.0000000000011));
#988=CARTESIAN_POINT('Origin',(158.250000001039,-210.999999999974,27.0000000000011));
#989=CARTESIAN_POINT('',(166.130000001039,-210.999999999973,18.0000000000011));
#990=CARTESIAN_POINT('Origin',(158.250000001039,-210.999999999974,18.0000000000011));
#991=CARTESIAN_POINT('',(166.130000001039,-210.999999999973,24.0000000000011));
#992=CARTESIAN_POINT('Origin',(162.500000000067,-226.999999999974,24.0000000000011));
#993=CARTESIAN_POINT('',(157.205462204013,-222.829212354475,27.0000000000011));
#994=CARTESIAN_POINT('',(169.240000004348,-226.999999999975,27.0000000000011));
#995=CARTESIAN_POINT('Origin',(162.500000000067,-226.999999999974,27.0000000000011));
#996=CARTESIAN_POINT('',(157.205462204013,-222.829212354475,18.0000000000011));
#997=CARTESIAN_POINT('',(157.205462204013,-222.829212354475,24.0000000000011));
#998=CARTESIAN_POINT('',(169.240000004348,-226.999999999975,18.0000000000011));
#999=CARTESIAN_POINT('Origin',(162.500000000067,-226.999999999974,18.0000000000011));
#1000=CARTESIAN_POINT('',(169.240000004348,-226.999999999975,24.0000000000011));
#1001=CARTESIAN_POINT('Origin',(157.205462204013,-222.829212354475,24.0000000000011));
#1002=CARTESIAN_POINT('',(163.355815372929,-215.022517792126,27.0000000000011));
#1003=CARTESIAN_POINT('',(163.355815372929,-215.022517792126,27.0000000000011));
#1004=CARTESIAN_POINT('',(163.355815372929,-215.022517792126,18.0000000000011));
#1005=CARTESIAN_POINT('',(163.355815372929,-215.022517792126,24.0000000000011));
#1006=CARTESIAN_POINT('',(163.355815372929,-215.022517792126,18.0000000000011));
#1007=CARTESIAN_POINT('Origin',(158.250000001039,-210.999999999974,24.0000000000011));
#1008=CARTESIAN_POINT('',(164.750000001039,-210.999999999973,27.0000000000011));
#1009=CARTESIAN_POINT('Origin',(158.250000001039,-210.999999999974,27.0000000000011));
#1010=CARTESIAN_POINT('',(164.750000001039,-210.999999999973,18.0000000000011));
#1011=CARTESIAN_POINT('',(164.750000001039,-210.999999999973,24.0000000000011));
#1012=CARTESIAN_POINT('Origin',(158.250000001039,-210.999999999974,18.0000000000011));
#1013=CARTESIAN_POINT('Origin',(166.130000001039,-216.999999999973,24.0000000000011));
#1014=CARTESIAN_POINT('',(166.13000000101,-53.2399999999939,18.0000000000011));
#1015=CARTESIAN_POINT('',(166.130000001012,-59.2399999999939,18.0000000000011));
#1016=CARTESIAN_POINT('',(166.13000000101,-53.2399999999939,27.0000000000011));
#1017=CARTESIAN_POINT('',(166.130000001011,-53.2399999999939,24.0000000000011));
#1018=CARTESIAN_POINT('',(166.130000001012,-53.2399999999939,27.0000000000011));
#1019=CARTESIAN_POINT('Origin',(10.33008144027,-46.740000000439,21.0000000000011));
#1020=CARTESIAN_POINT('',(10.3300814402658,-45.360000000439,27.0000000000011));
#1021=CARTESIAN_POINT('',(10.3300814402658,-45.360000000439,18.0000000000011));
#1022=CARTESIAN_POINT('',(10.3300814402658,-45.360000000439,24.0000000000011));
#1023=CARTESIAN_POINT('',(10.33008144027,-46.740000000439,18.0000000000011));
#1024=CARTESIAN_POINT('',(10.33008144027,-46.740000000439,18.0000000000011));
#1025=CARTESIAN_POINT('',(10.33008144027,-46.740000000439,27.0000000000011));
#1026=CARTESIAN_POINT('',(10.33008144027,-46.740000000439,24.0000000000011));
#1027=CARTESIAN_POINT('',(10.33008144027,-46.740000000439,27.0000000000011));
#1028=CARTESIAN_POINT('Origin',(164.750000001039,-216.999999999973,24.0000000000011));
#1029=CARTESIAN_POINT('',(164.75000000101,-53.2399999999941,27.0000000000011));
#1030=CARTESIAN_POINT('',(164.750000001012,-59.2399999999942,27.0000000000011));
#1031=CARTESIAN_POINT('',(164.75000000101,-53.2399999999941,18.0000000000011));
#1032=CARTESIAN_POINT('',(164.75000000101,-53.2399999999941,24.0000000000011));
#1033=CARTESIAN_POINT('',(164.750000001012,-59.2399999999942,18.0000000000011));
#1034=CARTESIAN_POINT('Origin',(158.250000001005,-45.3599999999954,24.0000000000011));
#1035=CARTESIAN_POINT('',(158.250000000987,-45.3599999999954,18.0000000000011));
#1036=CARTESIAN_POINT('',(158.250000000987,-45.3599999999954,27.0000000000011));
#1037=CARTESIAN_POINT('',(158.250000000987,-45.3599999999954,24.0000000000011));
#1038=CARTESIAN_POINT('',(10.3300814402658,-45.360000000439,18.0000000000011));
#1039=CARTESIAN_POINT('',(10.3300814402658,-45.360000000439,27.0000000000011));
#1040=CARTESIAN_POINT('Origin',(158.25000000101,-46.7399999999954,24.0000000000011));
#1041=CARTESIAN_POINT('',(158.250000000991,-46.7399999999953,27.0000000000011));
#1042=CARTESIAN_POINT('',(158.250000000991,-46.7399999999953,18.0000000000011));
#1043=CARTESIAN_POINT('',(158.250000000991,-46.7399999999954,24.0000000000011));
#1044=CARTESIAN_POINT('',(10.33008144027,-46.740000000439,27.0000000000011));
#1045=CARTESIAN_POINT('',(10.33008144027,-46.740000000439,18.0000000000011));
#1046=CARTESIAN_POINT('Origin',(158.250000001011,-53.2399999999953,24.0000000000011));
#1047=CARTESIAN_POINT('Origin',(158.250000001011,-53.2399999999953,27.0000000000011));
#1048=CARTESIAN_POINT('Origin',(158.250000001011,-53.2399999999953,18.0000000000011));
#1049=CARTESIAN_POINT('Origin',(158.250000001011,-53.2399999999953,24.0000000000011));
#1050=CARTESIAN_POINT('Origin',(158.250000001011,-53.2399999999953,27.0000000000011));
#1051=CARTESIAN_POINT('Origin',(158.250000001011,-53.2399999999953,18.0000000000011));
#1052=CARTESIAN_POINT('Origin',(169.240000000013,110.260000000004,24.0000000000011));
#1053=CARTESIAN_POINT('',(169.240000000013,116.260000000004,18.0000000000011));
#1054=CARTESIAN_POINT('',(169.240000000012,-232.999999999975,18.0000000000011));
#1055=CARTESIAN_POINT('',(169.240000000013,116.260000000004,27.0000000000011));
#1056=CARTESIAN_POINT('',(169.240000000013,116.260000000004,24.0000000000011));
#1057=CARTESIAN_POINT('',(169.240000000012,-238.999999999975,27.0000000000011));
#1058=CARTESIAN_POINT('Origin',(162.846194078723,-48.6438059222816,18.0000000000011));
#1059=CARTESIAN_POINT('',(167.860000000013,116.260000000004,18.0000000000011));
#1060=CARTESIAN_POINT('',(167.860000000012,-232.999999999975,18.0000000000011));
#1061=CARTESIAN_POINT('',(162.500000000013,121.620000000004,18.0000000000011));
#1062=CARTESIAN_POINT('Origin',(162.500000000013,116.260000000004,18.0000000000011));
#1063=CARTESIAN_POINT('',(-148.500000000011,121.619999999994,18.0000000000011));
#1064=CARTESIAN_POINT('',(162.500000000012,121.620000000004,18.0000000000011));
#1065=CARTESIAN_POINT('',(-156.345696237264,128.76552702379,18.0000000000011));
#1066=CARTESIAN_POINT('Origin',(-148.500000000012,129.499999999994,18.0000000000011));
#1067=CARTESIAN_POINT('',(-157.163333523912,137.499590755398,18.0000000000011));
#1068=CARTESIAN_POINT('',(-156.345696237264,128.76552702379,18.0000000000011));
#1069=CARTESIAN_POINT('',(-167.860000000013,137.00000000002,18.0000000000011));
#1070=CARTESIAN_POINT('Origin',(-162.500000000012,136.999999999994,18.0000000000011));
#1071=CARTESIAN_POINT('',(-167.860000000908,-39.9999999933304,18.0000000000011));
#1072=CARTESIAN_POINT('',(-167.860000000012,137.00000000002,18.0000000000011));
#1073=CARTESIAN_POINT('',(-162.50000000106,-45.3599999649134,18.0000000000011));
#1074=CARTESIAN_POINT('Origin',(-162.499999991096,-39.9999999551014,18.0000000000011));
#1075=CARTESIAN_POINT('',(-10.3299999996924,-45.3599999977413,18.0000000000011));
#1076=CARTESIAN_POINT('',(-162.500000002064,-45.3599999649131,18.0000000000011));
#1077=CARTESIAN_POINT('',(-10.3299999999901,-46.7399999977413,18.0000000000011));
#1078=CARTESIAN_POINT('',(-10.3299999999901,-46.7399999977413,18.0000000000011));
#1079=CARTESIAN_POINT('',(-162.500000002362,-46.7399999649134,18.0000000000011));
#1080=CARTESIAN_POINT('',(-162.500000002362,-46.7399999649131,18.0000000000011));
#1081=CARTESIAN_POINT('',(-169.240000000908,-39.9999999976866,18.0000000000011));
#1082=CARTESIAN_POINT('Origin',(-162.499999991096,-39.9999999551014,18.0000000000011));
#1083=CARTESIAN_POINT('',(-169.240000000013,137.000000000027,18.0000000000011));
#1084=CARTESIAN_POINT('',(-169.240000000012,137.000000000027,18.0000000000011));
#1085=CARTESIAN_POINT('',(-155.789341035663,137.628216733466,18.0000000000011));
#1086=CARTESIAN_POINT('Origin',(-162.500000000012,136.999999999994,18.0000000000011));
#1087=CARTESIAN_POINT('',(-154.971703749014,128.894153001856,18.0000000000011));
#1088=CARTESIAN_POINT('',(-154.971703749014,128.894153001856,18.0000000000011));
#1089=CARTESIAN_POINT('',(-148.500000000011,122.999999999994,18.0000000000011));
#1090=CARTESIAN_POINT('Origin',(-148.500000000012,129.499999999994,18.0000000000011));
#1091=CARTESIAN_POINT('',(162.500000000013,123.000000000004,18.0000000000011));
#1092=CARTESIAN_POINT('',(162.500000000012,123.000000000004,18.0000000000011));
#1093=CARTESIAN_POINT('Origin',(162.500000000013,116.260000000004,18.0000000000011));
#1094=CARTESIAN_POINT('Origin',(167.860000000013,110.260000000004,24.0000000000011));
#1095=CARTESIAN_POINT('',(167.860000000013,116.260000000004,27.0000000000011));
#1096=CARTESIAN_POINT('',(167.860000000012,-238.999999999975,27.0000000000011));
#1097=CARTESIAN_POINT('',(167.860000000013,116.260000000004,24.0000000000011));
#1098=CARTESIAN_POINT('Origin',(162.500000000013,116.260000000004,24.0000000000011));
#1099=CARTESIAN_POINT('',(162.500000000013,123.000000000004,27.0000000000011));
#1100=CARTESIAN_POINT('Origin',(162.500000000013,116.260000000004,27.0000000000011));
#1101=CARTESIAN_POINT('',(162.500000000013,123.000000000004,24.0000000000011));
#1102=CARTESIAN_POINT('Origin',(-148.500000000011,122.999999999994,24.0000000000011));
#1103=CARTESIAN_POINT('',(-148.500000000011,122.999999999994,27.0000000000011));
#1104=CARTESIAN_POINT('',(-148.500000000011,122.999999999994,24.0000000000011));
#1105=CARTESIAN_POINT('',(162.500000000012,123.000000000004,27.0000000000011));
#1106=CARTESIAN_POINT('Origin',(162.500000000013,116.260000000004,24.0000000000011));
#1107=CARTESIAN_POINT('',(162.500000000013,121.620000000004,27.0000000000011));
#1108=CARTESIAN_POINT('Origin',(162.500000000013,116.260000000004,27.0000000000011));
#1109=CARTESIAN_POINT('',(162.500000000013,121.620000000004,24.0000000000011));
#1110=CARTESIAN_POINT('Origin',(-148.500000000011,121.619999999994,24.0000000000011));
#1111=CARTESIAN_POINT('',(-148.500000000011,121.619999999994,27.0000000000011));
#1112=CARTESIAN_POINT('',(162.500000000012,121.620000000004,27.0000000000011));
#1113=CARTESIAN_POINT('',(-148.500000000011,121.619999999994,24.0000000000011));
#1114=CARTESIAN_POINT('Origin',(-148.500000000012,129.499999999994,24.0000000000011));
#1115=CARTESIAN_POINT('',(-154.971703749014,128.894153001856,27.0000000000011));
#1116=CARTESIAN_POINT('Origin',(-148.500000000012,129.499999999994,27.0000000000011));
#1117=CARTESIAN_POINT('',(-154.971703749014,128.894153001856,24.0000000000011));
#1118=CARTESIAN_POINT('Origin',(-155.789341035663,137.628216733466,24.0000000000011));
#1119=CARTESIAN_POINT('',(-155.789341035663,137.628216733466,27.0000000000011));
#1120=CARTESIAN_POINT('',(-154.971703749014,128.894153001856,27.0000000000011));
#1121=CARTESIAN_POINT('',(-155.789341035663,137.628216733466,24.0000000000011));
#1122=CARTESIAN_POINT('Origin',(-162.500000000012,136.999999999994,24.0000000000011));
#1123=CARTESIAN_POINT('',(-169.240000000013,137.000000000027,27.0000000000011));
#1124=CARTESIAN_POINT('Origin',(-162.500000000012,136.999999999994,27.0000000000011));
#1125=CARTESIAN_POINT('',(-169.240000000013,137.000000000027,24.0000000000011));
#1126=CARTESIAN_POINT('Origin',(-148.500000000012,129.499999999994,24.0000000000011));
#1127=CARTESIAN_POINT('',(-156.345696237264,128.76552702379,27.0000000000011));
#1128=CARTESIAN_POINT('Origin',(-148.500000000012,129.499999999994,27.0000000000011));
#1129=CARTESIAN_POINT('',(-156.345696237264,128.76552702379,24.0000000000011));
#1130=CARTESIAN_POINT('Origin',(-157.163333523913,137.4995907554,24.0000000000011));
#1131=CARTESIAN_POINT('',(-157.163333523912,137.499590755398,27.0000000000011));
#1132=CARTESIAN_POINT('',(-156.345696237264,128.76552702379,27.0000000000011));
#1133=CARTESIAN_POINT('',(-157.163333523913,137.4995907554,24.0000000000011));
#1134=CARTESIAN_POINT('Origin',(-162.500000000012,136.999999999994,24.0000000000011));
#1135=CARTESIAN_POINT('',(-167.860000000013,137.00000000002,27.0000000000011));
#1136=CARTESIAN_POINT('Origin',(-162.500000000012,136.999999999994,27.0000000000011));
#1137=CARTESIAN_POINT('',(-167.860000000013,137.00000000002,24.0000000000011));
#1138=CARTESIAN_POINT('Origin',(-169.240000000908,-39.9999999976866,24.0000000000011));
#1139=CARTESIAN_POINT('',(-169.240000000908,-39.9999999976866,27.0000000000011));
#1140=CARTESIAN_POINT('',(-169.240000000908,-39.9999999976866,24.0000000000011));
#1141=CARTESIAN_POINT('',(-169.240000000012,143.000000000027,27.0000000000011));
#1142=CARTESIAN_POINT('Origin',(162.846194078723,-48.6438059222816,27.0000000000011));
#1143=CARTESIAN_POINT('',(-162.500000002362,-46.7399999649134,27.0000000000011));
#1144=CARTESIAN_POINT('Origin',(-162.499999991096,-39.9999999551014,27.0000000000011));
#1145=CARTESIAN_POINT('',(-10.3299999999901,-46.7399999977413,27.0000000000011));
#1146=CARTESIAN_POINT('',(-162.500000002362,-46.7399999649131,27.0000000000011));
#1147=CARTESIAN_POINT('',(-10.3299999996924,-45.3599999977413,27.0000000000011));
#1148=CARTESIAN_POINT('',(-10.3299999999901,-46.7399999977413,27.0000000000011));
#1149=CARTESIAN_POINT('',(-162.50000000106,-45.3599999649134,27.0000000000011));
#1150=CARTESIAN_POINT('',(-162.500000002064,-45.3599999649131,27.0000000000011));
#1151=CARTESIAN_POINT('',(-167.860000000908,-39.9999999933304,27.0000000000011));
#1152=CARTESIAN_POINT('Origin',(-162.499999991096,-39.9999999551014,27.0000000000011));
#1153=CARTESIAN_POINT('',(-167.860000000012,143.00000000002,27.0000000000011));
#1154=CARTESIAN_POINT('Origin',(-162.499999991096,-39.9999999551014,24.0000000000011));
#1155=CARTESIAN_POINT('',(-162.500000002362,-46.7399999649134,24.0000000000011));
#1156=CARTESIAN_POINT('Origin',(-10.3299999999901,-46.7399999977413,24.0000000000011));
#1157=CARTESIAN_POINT('',(-10.3299999999901,-46.7399999977413,24.0000000000011));
#1158=CARTESIAN_POINT('Origin',(-167.860000000908,-39.9999999976934,24.0000000000011));
#1159=CARTESIAN_POINT('',(-167.860000000908,-39.9999999976934,24.0000000000011));
#1160=CARTESIAN_POINT('Origin',(-162.499999991096,-39.9999999551014,24.0000000000011));
#1161=CARTESIAN_POINT('',(-162.500000002064,-45.3599999649134,24.0000000000011));
#1162=CARTESIAN_POINT('Origin',(-10.3299999996924,-45.3599999977413,24.0000000000011));
#1163=CARTESIAN_POINT('',(-10.3299999996924,-45.3599999977413,24.0000000000011));
#1164=CARTESIAN_POINT('Origin',(-10.3299999999901,-46.7399999977413,21.0000000000011));
#1165=CARTESIAN_POINT('',(3.19744231092045E-13,44.9999999999988,-15.9999999999999));
#1166=CARTESIAN_POINT('',(-2.8421709430404E-13,45.0000000000042,16.0000000000002));
#1167=UNCERTAINTY_MEASURE_WITH_UNIT(LENGTH_MEASURE(0.01),#1173,
'DISTANCE_ACCURACY_VALUE',
'Maximum model space distance between geometric entities at asserted c
onnectivities');
#1168=UNCERTAINTY_MEASURE_WITH_UNIT(LENGTH_MEASURE(0.01),#1173,
'DISTANCE_ACCURACY_VALUE',
'Maximum model space distance between geometric entities at asserted c
onnectivities');
#1169=UNCERTAINTY_MEASURE_WITH_UNIT(LENGTH_MEASURE(0.01),#1173,
'DISTANCE_ACCURACY_VALUE',
'Maximum model space distance between geometric entities at asserted c
onnectivities');
#1170=(
GEOMETRIC_REPRESENTATION_CONTEXT(3)
GLOBAL_UNCERTAINTY_ASSIGNED_CONTEXT((#1167))
GLOBAL_UNIT_ASSIGNED_CONTEXT((#1173,#1175,#1176))
REPRESENTATION_CONTEXT('','3D')
);
#1171=(
GEOMETRIC_REPRESENTATION_CONTEXT(3)
GLOBAL_UNCERTAINTY_ASSIGNED_CONTEXT((#1168))
GLOBAL_UNIT_ASSIGNED_CONTEXT((#1173,#1175,#1176))
REPRESENTATION_CONTEXT('','3D')
);
#1172=(
GEOMETRIC_REPRESENTATION_CONTEXT(3)
GLOBAL_UNCERTAINTY_ASSIGNED_CONTEXT((#1169))
GLOBAL_UNIT_ASSIGNED_CONTEXT((#1173,#1175,#1176))
REPRESENTATION_CONTEXT('','3D')
);
#1173=(
LENGTH_UNIT()
NAMED_UNIT(*)
SI_UNIT(.MILLI.,.METRE.)
);
#1174=(
LENGTH_UNIT()
NAMED_UNIT(*)
SI_UNIT($,.METRE.)
);
#1175=(
NAMED_UNIT(*)
PLANE_ANGLE_UNIT()
SI_UNIT($,.RADIAN.)
);
#1176=(
NAMED_UNIT(*)
SI_UNIT($,.STERADIAN.)
SOLID_ANGLE_UNIT()
);
#1177=SHAPE_DEFINITION_REPRESENTATION(#1179,#1183);
#1178=SHAPE_DEFINITION_REPRESENTATION(#1180,#1184);
#1179=PRODUCT_DEFINITION_SHAPE('',$,#1186);
#1180=PRODUCT_DEFINITION_SHAPE('',$,#1187);
#1181=PRODUCT_DEFINITION_SHAPE($,$,#17);
#1182=PRODUCT_DEFINITION_SHAPE($,$,#18);
#1183=SHAPE_REPRESENTATION('',(#703,#767,#768),#1170);
#1184=SHAPE_REPRESENTATION('',(#704),#1171);
#1185=PRODUCT_DEFINITION_CONTEXT('part definition',#1193,'design');
#1186=PRODUCT_DEFINITION('_17_V2_9mm_AWD_belts_NP_NP',
'_17_V2_9mm_AWD_belts_NP_NP',#1188,#1185);
#1187=PRODUCT_DEFINITION('_V2_9mm_AWD_belt_NP_NP',
'_V2_9mm_AWD_belt_NP_NP',#1189,#1185);
#1188=PRODUCT_DEFINITION_FORMATION('',$,#1195);
#1189=PRODUCT_DEFINITION_FORMATION('',$,#1196);
#1190=PRODUCT_RELATED_PRODUCT_CATEGORY('_17_V2_9mm_AWD_belts_NP_NP',
'_17_V2_9mm_AWD_belts_NP_NP',(#1195));
#1191=PRODUCT_RELATED_PRODUCT_CATEGORY('_V2_9mm_AWD_belt_NP_NP',
'_V2_9mm_AWD_belt_NP_NP',(#1196));
#1192=APPLICATION_PROTOCOL_DEFINITION('international standard',
'automotive_design',2009,#1193);
#1193=APPLICATION_CONTEXT(
'Core Data for Automotive Mechanical Design Process');
#1194=PRODUCT_CONTEXT('part definition',#1193,'mechanical');
#1195=PRODUCT('_17_V2_9mm_AWD_belts_NP_NP','_17_V2_9mm_AWD_belts_NP_NP',
$,(#1194));
#1196=PRODUCT('_V2_9mm_AWD_belt_NP_NP','_V2_9mm_AWD_belt_NP_NP',$,(#1194));
#1197=PRESENTATION_STYLE_ASSIGNMENT((#1200));
#1198=PRESENTATION_STYLE_ASSIGNMENT((#1201));
#1199=PRESENTATION_STYLE_ASSIGNMENT((#1202));
#1200=SURFACE_STYLE_USAGE(.BOTH.,#1203);
#1201=SURFACE_STYLE_USAGE(.BOTH.,#1204);
#1202=SURFACE_STYLE_USAGE(.BOTH.,#1205);
#1203=SURFACE_SIDE_STYLE('',(#1206));
#1204=SURFACE_SIDE_STYLE('',(#1207));
#1205=SURFACE_SIDE_STYLE('',(#1208));
#1206=SURFACE_STYLE_FILL_AREA(#1209);
#1207=SURFACE_STYLE_FILL_AREA(#1210);
#1208=SURFACE_STYLE_FILL_AREA(#1211);
#1209=FILL_AREA_STYLE('Steel - Satin',(#1212));
#1210=FILL_AREA_STYLE('Rubber - Soft',(#1213));
#1211=FILL_AREA_STYLE('Gates Belt Face',(#1214));
#1212=FILL_AREA_STYLE_COLOUR('Steel - Satin',#1215);
#1213=FILL_AREA_STYLE_COLOUR('Rubber - Soft',#1216);
#1214=FILL_AREA_STYLE_COLOUR('Gates Belt Face',#1217);
#1215=COLOUR_RGB('Steel - Satin',0.627450980392157,0.627450980392157,0.627450980392157);
#1216=COLOUR_RGB('Rubber - Soft',0.152941176470588,0.152941176470588,0.152941176470588);
#1217=COLOUR_RGB('Gates Belt Face',0.482352941176471,0.309803921568627,
0.27843137254902);
ENDSEC;
END-ISO-10303-21;
