ISO-10303-21;
HEADER;
/* Generated by software containing ST-Developer
 * from STEP Tools, Inc. (www.steptools.com) 
 */

FILE_DESCRIPTION(
/* description */ (''),
/* implementation_level */ '2;1');

FILE_NAME(
/* name */ '_4_6mm_AWD_belts_FT_FT.step',
/* time_stamp */ '2026-02-16T13:24:04+01:00',
/* author */ (''),
/* organization */ (''),
/* preprocessor_version */ 'ST-DEVELOPER v20.1',
/* originating_system */ 'Autodesk Translation Framework v14.24.0.0',
/* authorisation */ '');

FILE_SCHEMA (('AUTOMOTIVE_DESIGN { 1 0 10303 214 3 1 1 }'));
ENDSEC;

DATA;
#10=MECHANICAL_DESIGN_GEOMETRIC_PRESENTATION_REPRESENTATION('',(#640,#641,
#642,#643,#644,#645,#646,#647,#648,#649,#650,#651,#652,#653,#654,#655),
#1172);
#11=ITEM_DEFINED_TRANSFORMATION($,$,#704,#767);
#12=ITEM_DEFINED_TRANSFORMATION($,$,#704,#768);
#13=(
REPRESENTATION_RELATIONSHIP($,$,#1184,#1183)
REPRESENTATION_RELATIONSHIP_WITH_TRANSFORMATION(#11)
SHAPE_REPRESENTATION_RELATIONSHIP()
);
#14=(
REPRESENTATION_RELATIONSHIP($,$,#1184,#1183)
REPRESENTATION_RELATIONSHIP_WITH_TRANSFORMATION(#12)
SHAPE_REPRESENTATION_RELATIONSHIP()
);
#15=CONTEXT_DEPENDENT_SHAPE_REPRESENTATION(#13,#1181);
#16=CONTEXT_DEPENDENT_SHAPE_REPRESENTATION(#14,#1182);
#17=NEXT_ASSEMBLY_USAGE_OCCURRENCE('_6mm_AWD_belt_FT_FT:1',
'_6mm_AWD_belt_FT_FT:1','_6mm_AWD_belt_FT_FT:1',#1186,#1187,
'_6mm_AWD_belt_FT_FT:1');
#18=NEXT_ASSEMBLY_USAGE_OCCURRENCE('_6mm_AWD_belt_FT_FT:2',
'_6mm_AWD_belt_FT_FT:2','_6mm_AWD_belt_FT_FT:2',#1186,#1187,
'_6mm_AWD_belt_FT_FT:2');
#19=SHAPE_REPRESENTATION_RELATIONSHIP('SRR','None',#1184,#20);
#20=ADVANCED_BREP_SHAPE_REPRESENTATION('',(#21),#1171);
#21=MANIFOLD_SOLID_BREP('Body1',#690);
#22=PLANE('',#708);
#23=PLANE('',#709);
#24=PLANE('',#725);
#25=PLANE('',#728);
#26=PLANE('',#731);
#27=PLANE('',#732);
#28=PLANE('',#733);
#29=PLANE('',#744);
#30=PLANE('',#745);
#31=PLANE('',#746);
#32=PLANE('',#748);
#33=PLANE('',#751);
#34=PLANE('',#753);
#35=PLANE('',#755);
#36=PLANE('',#757);
#37=PLANE('',#760);
#38=PLANE('',#762);
#39=PLANE('',#764);
#40=PLANE('',#765);
#41=PLANE('',#766);
#42=FACE_OUTER_BOUND('',#76,.T.);
#43=FACE_OUTER_BOUND('',#77,.T.);
#44=FACE_OUTER_BOUND('',#78,.T.);
#45=FACE_OUTER_BOUND('',#79,.T.);
#46=FACE_OUTER_BOUND('',#80,.T.);
#47=FACE_OUTER_BOUND('',#81,.T.);
#48=FACE_OUTER_BOUND('',#82,.T.);
#49=FACE_OUTER_BOUND('',#83,.T.);
#50=FACE_OUTER_BOUND('',#84,.T.);
#51=FACE_OUTER_BOUND('',#85,.T.);
#52=FACE_OUTER_BOUND('',#86,.T.);
#53=FACE_OUTER_BOUND('',#87,.T.);
#54=FACE_OUTER_BOUND('',#88,.T.);
#55=FACE_OUTER_BOUND('',#89,.T.);
#56=FACE_OUTER_BOUND('',#90,.T.);
#57=FACE_OUTER_BOUND('',#91,.T.);
#58=FACE_OUTER_BOUND('',#92,.T.);
#59=FACE_OUTER_BOUND('',#93,.T.);
#60=FACE_OUTER_BOUND('',#94,.T.);
#61=FACE_OUTER_BOUND('',#95,.T.);
#62=FACE_OUTER_BOUND('',#96,.T.);
#63=FACE_OUTER_BOUND('',#97,.T.);
#64=FACE_OUTER_BOUND('',#98,.T.);
#65=FACE_OUTER_BOUND('',#99,.T.);
#66=FACE_OUTER_BOUND('',#100,.T.);
#67=FACE_OUTER_BOUND('',#101,.T.);
#68=FACE_OUTER_BOUND('',#102,.T.);
#69=FACE_OUTER_BOUND('',#103,.T.);
#70=FACE_OUTER_BOUND('',#104,.T.);
#71=FACE_OUTER_BOUND('',#105,.T.);
#72=FACE_OUTER_BOUND('',#106,.T.);
#73=FACE_OUTER_BOUND('',#107,.T.);
#74=FACE_OUTER_BOUND('',#108,.T.);
#75=FACE_OUTER_BOUND('',#109,.T.);
#76=EDGE_LOOP('',(#434,#435,#436,#437));
#77=EDGE_LOOP('',(#438,#439,#440,#441));
#78=EDGE_LOOP('',(#442,#443,#444,#445,#446,#447,#448,#449,#450,#451,#452,
#453,#454,#455,#456,#457,#458,#459,#460,#461,#462,#463,#464,#465,#466,#467,
#468,#469,#470,#471,#472,#473));
#79=EDGE_LOOP('',(#474,#475,#476,#477));
#80=EDGE_LOOP('',(#478,#479,#480,#481));
#81=EDGE_LOOP('',(#482,#483,#484,#485));
#82=EDGE_LOOP('',(#486,#487,#488,#489));
#83=EDGE_LOOP('',(#490,#491,#492,#493));
#84=EDGE_LOOP('',(#494,#495,#496,#497));
#85=EDGE_LOOP('',(#498,#499,#500,#501));
#86=EDGE_LOOP('',(#502,#503,#504,#505,#506,#507,#508,#509,#510,#511,#512,
#513,#514,#515,#516,#517,#518,#519,#520,#521,#522,#523,#524,#525,#526,#527,
#528,#529,#530,#531,#532,#533));
#87=EDGE_LOOP('',(#534,#535,#536,#537));
#88=EDGE_LOOP('',(#538,#539,#540,#541));
#89=EDGE_LOOP('',(#542,#543,#544,#545));
#90=EDGE_LOOP('',(#546,#547,#548,#549));
#91=EDGE_LOOP('',(#550,#551,#552,#553));
#92=EDGE_LOOP('',(#554,#555,#556,#557));
#93=EDGE_LOOP('',(#558,#559,#560,#561));
#94=EDGE_LOOP('',(#562,#563,#564,#565));
#95=EDGE_LOOP('',(#566,#567,#568,#569));
#96=EDGE_LOOP('',(#570,#571,#572,#573));
#97=EDGE_LOOP('',(#574,#575,#576,#577));
#98=EDGE_LOOP('',(#578,#579,#580,#581));
#99=EDGE_LOOP('',(#582,#583,#584,#585));
#100=EDGE_LOOP('',(#586,#587,#588,#589));
#101=EDGE_LOOP('',(#590,#591,#592,#593));
#102=EDGE_LOOP('',(#594,#595,#596,#597));
#103=EDGE_LOOP('',(#598,#599,#600,#601));
#104=EDGE_LOOP('',(#602,#603,#604,#605));
#105=EDGE_LOOP('',(#606,#607,#608,#609));
#106=EDGE_LOOP('',(#610,#611,#612,#613));
#107=EDGE_LOOP('',(#614,#615,#616,#617));
#108=EDGE_LOOP('',(#618,#619,#620,#621));
#109=EDGE_LOOP('',(#622,#623,#624,#625));
#110=LINE('',#976,#178);
#111=LINE('',#979,#179);
#112=LINE('',#982,#180);
#113=LINE('',#984,#181);
#114=LINE('',#985,#182);
#115=LINE('',#988,#183);
#116=LINE('',#990,#184);
#117=LINE('',#992,#185);
#118=LINE('',#996,#186);
#119=LINE('',#1000,#187);
#120=LINE('',#1004,#188);
#121=LINE('',#1008,#189);
#122=LINE('',#1012,#190);
#123=LINE('',#1016,#191);
#124=LINE('',#1020,#192);
#125=LINE('',#1022,#193);
#126=LINE('',#1024,#194);
#127=LINE('',#1028,#195);
#128=LINE('',#1032,#196);
#129=LINE('',#1036,#197);
#130=LINE('',#1040,#198);
#131=LINE('',#1044,#199);
#132=LINE('',#1048,#200);
#133=LINE('',#1051,#201);
#134=LINE('',#1054,#202);
#135=LINE('',#1055,#203);
#136=LINE('',#1058,#204);
#137=LINE('',#1061,#205);
#138=LINE('',#1064,#206);
#139=LINE('',#1065,#207);
#140=LINE('',#1068,#208);
#141=LINE('',#1071,#209);
#142=LINE('',#1074,#210);
#143=LINE('',#1075,#211);
#144=LINE('',#1078,#212);
#145=LINE('',#1079,#213);
#146=LINE('',#1084,#214);
#147=LINE('',#1089,#215);
#148=LINE('',#1093,#216);
#149=LINE('',#1097,#217);
#150=LINE('',#1099,#218);
#151=LINE('',#1101,#219);
#152=LINE('',#1105,#220);
#153=LINE('',#1109,#221);
#154=LINE('',#1112,#222);
#155=LINE('',#1116,#223);
#156=LINE('',#1119,#224);
#157=LINE('',#1121,#225);
#158=LINE('',#1122,#226);
#159=LINE('',#1124,#227);
#160=LINE('',#1126,#228);
#161=LINE('',#1128,#229);
#162=LINE('',#1130,#230);
#163=LINE('',#1132,#231);
#164=LINE('',#1135,#232);
#165=LINE('',#1137,#233);
#166=LINE('',#1139,#234);
#167=LINE('',#1141,#235);
#168=LINE('',#1143,#236);
#169=LINE('',#1145,#237);
#170=LINE('',#1147,#238);
#171=LINE('',#1149,#239);
#172=LINE('',#1152,#240);
#173=LINE('',#1154,#241);
#174=LINE('',#1156,#242);
#175=LINE('',#1158,#243);
#176=LINE('',#1160,#244);
#177=LINE('',#1162,#245);
#178=VECTOR('',#777,10.);
#179=VECTOR('',#780,10.);
#180=VECTOR('',#783,10.);
#181=VECTOR('',#784,10.);
#182=VECTOR('',#785,10.);
#183=VECTOR('',#788,10.);
#184=VECTOR('',#789,10.);
#185=VECTOR('',#790,10.);
#186=VECTOR('',#793,10.);
#187=VECTOR('',#796,10.);
#188=VECTOR('',#799,10.);
#189=VECTOR('',#802,10.);
#190=VECTOR('',#805,10.);
#191=VECTOR('',#808,10.);
#192=VECTOR('',#811,10.);
#193=VECTOR('',#812,10.);
#194=VECTOR('',#813,10.);
#195=VECTOR('',#816,10.);
#196=VECTOR('',#819,10.);
#197=VECTOR('',#822,10.);
#198=VECTOR('',#825,10.);
#199=VECTOR('',#828,10.);
#200=VECTOR('',#833,10.);
#201=VECTOR('',#836,10.);
#202=VECTOR('',#839,10.);
#203=VECTOR('',#840,10.);
#204=VECTOR('',#843,10.);
#205=VECTOR('',#846,10.);
#206=VECTOR('',#849,10.);
#207=VECTOR('',#850,10.);
#208=VECTOR('',#853,10.);
#209=VECTOR('',#856,10.);
#210=VECTOR('',#859,10.);
#211=VECTOR('',#860,10.);
#212=VECTOR('',#863,10.);
#213=VECTOR('',#864,10.);
#214=VECTOR('',#869,10.);
#215=VECTOR('',#874,10.);
#216=VECTOR('',#877,10.);
#217=VECTOR('',#880,10.);
#218=VECTOR('',#881,10.);
#219=VECTOR('',#882,10.);
#220=VECTOR('',#885,10.);
#221=VECTOR('',#888,10.);
#222=VECTOR('',#891,10.);
#223=VECTOR('',#894,10.);
#224=VECTOR('',#897,10.);
#225=VECTOR('',#898,10.);
#226=VECTOR('',#899,10.);
#227=VECTOR('',#902,10.);
#228=VECTOR('',#905,10.);
#229=VECTOR('',#908,10.);
#230=VECTOR('',#911,10.);
#231=VECTOR('',#914,10.);
#232=VECTOR('',#919,10.);
#233=VECTOR('',#922,10.);
#234=VECTOR('',#925,10.);
#235=VECTOR('',#928,10.);
#236=VECTOR('',#931,10.);
#237=VECTOR('',#934,10.);
#238=VECTOR('',#937,10.);
#239=VECTOR('',#940,10.);
#240=VECTOR('',#945,10.);
#241=VECTOR('',#948,10.);
#242=VECTOR('',#951,10.);
#243=VECTOR('',#954,10.);
#244=VECTOR('',#957,10.);
#245=VECTOR('',#960,10.);
#246=CIRCLE('',#706,7.87999999999993);
#247=CIRCLE('',#707,7.87999999999993);
#248=CIRCLE('',#710,6.49999999999993);
#249=CIRCLE('',#711,6.49999999999999);
#250=CIRCLE('',#712,6.74000000428036);
#251=CIRCLE('',#713,6.73999999999996);
#252=CIRCLE('',#714,6.49999999999996);
#253=CIRCLE('',#715,6.74000000000086);
#254=CIRCLE('',#716,6.74000000981195);
#255=CIRCLE('',#717,5.36000000981195);
#256=CIRCLE('',#718,5.36000000000086);
#257=CIRCLE('',#719,7.87999999999996);
#258=CIRCLE('',#720,5.35999999999996);
#259=CIRCLE('',#721,5.36000000428036);
#260=CIRCLE('',#722,7.87999999999999);
#261=CIRCLE('',#724,6.73999999999996);
#262=CIRCLE('',#727,5.35999999999996);
#263=CIRCLE('',#730,6.49999999999993);
#264=CIRCLE('',#734,7.87999999999999);
#265=CIRCLE('',#735,5.36000000428036);
#266=CIRCLE('',#736,7.87999999999996);
#267=CIRCLE('',#737,5.36000000000086);
#268=CIRCLE('',#738,5.36000000981195);
#269=CIRCLE('',#739,6.74000000981195);
#270=CIRCLE('',#740,6.74000000000086);
#271=CIRCLE('',#741,6.49999999999996);
#272=CIRCLE('',#742,6.74000000428036);
#273=CIRCLE('',#743,6.49999999999999);
#274=VERTEX_POINT('',#972);
#275=VERTEX_POINT('',#973);
#276=VERTEX_POINT('',#975);
#277=VERTEX_POINT('',#977);
#278=VERTEX_POINT('',#981);
#279=VERTEX_POINT('',#983);
#280=VERTEX_POINT('',#987);
#281=VERTEX_POINT('',#989);
#282=VERTEX_POINT('',#991);
#283=VERTEX_POINT('',#993);
#284=VERTEX_POINT('',#995);
#285=VERTEX_POINT('',#997);
#286=VERTEX_POINT('',#999);
#287=VERTEX_POINT('',#1001);
#288=VERTEX_POINT('',#1003);
#289=VERTEX_POINT('',#1005);
#290=VERTEX_POINT('',#1007);
#291=VERTEX_POINT('',#1009);
#292=VERTEX_POINT('',#1011);
#293=VERTEX_POINT('',#1013);
#294=VERTEX_POINT('',#1015);
#295=VERTEX_POINT('',#1017);
#296=VERTEX_POINT('',#1019);
#297=VERTEX_POINT('',#1021);
#298=VERTEX_POINT('',#1023);
#299=VERTEX_POINT('',#1025);
#300=VERTEX_POINT('',#1027);
#301=VERTEX_POINT('',#1029);
#302=VERTEX_POINT('',#1031);
#303=VERTEX_POINT('',#1033);
#304=VERTEX_POINT('',#1035);
#305=VERTEX_POINT('',#1037);
#306=VERTEX_POINT('',#1039);
#307=VERTEX_POINT('',#1041);
#308=VERTEX_POINT('',#1043);
#309=VERTEX_POINT('',#1047);
#310=VERTEX_POINT('',#1049);
#311=VERTEX_POINT('',#1053);
#312=VERTEX_POINT('',#1057);
#313=VERTEX_POINT('',#1059);
#314=VERTEX_POINT('',#1063);
#315=VERTEX_POINT('',#1067);
#316=VERTEX_POINT('',#1069);
#317=VERTEX_POINT('',#1073);
#318=VERTEX_POINT('',#1077);
#319=VERTEX_POINT('',#1081);
#320=VERTEX_POINT('',#1083);
#321=VERTEX_POINT('',#1086);
#322=VERTEX_POINT('',#1088);
#323=VERTEX_POINT('',#1090);
#324=VERTEX_POINT('',#1092);
#325=VERTEX_POINT('',#1094);
#326=VERTEX_POINT('',#1096);
#327=VERTEX_POINT('',#1098);
#328=VERTEX_POINT('',#1100);
#329=VERTEX_POINT('',#1102);
#330=VERTEX_POINT('',#1104);
#331=VERTEX_POINT('',#1106);
#332=VERTEX_POINT('',#1108);
#333=VERTEX_POINT('',#1111);
#334=VERTEX_POINT('',#1113);
#335=VERTEX_POINT('',#1115);
#336=VERTEX_POINT('',#1117);
#337=VERTEX_POINT('',#1120);
#338=EDGE_CURVE('',#274,#275,#246,.T.);
#339=EDGE_CURVE('',#275,#276,#110,.T.);
#340=EDGE_CURVE('',#276,#277,#247,.T.);
#341=EDGE_CURVE('',#277,#274,#111,.T.);
#342=EDGE_CURVE('',#275,#278,#112,.T.);
#343=EDGE_CURVE('',#278,#279,#113,.T.);
#344=EDGE_CURVE('',#279,#276,#114,.T.);
#345=EDGE_CURVE('',#280,#274,#115,.T.);
#346=EDGE_CURVE('',#280,#281,#116,.T.);
#347=EDGE_CURVE('',#281,#282,#117,.T.);
#348=EDGE_CURVE('',#283,#282,#248,.T.);
#349=EDGE_CURVE('',#283,#284,#118,.T.);
#350=EDGE_CURVE('',#285,#284,#249,.T.);
#351=EDGE_CURVE('',#285,#286,#119,.T.);
#352=EDGE_CURVE('',#286,#287,#250,.T.);
#353=EDGE_CURVE('',#287,#288,#120,.T.);
#354=EDGE_CURVE('',#289,#288,#251,.T.);
#355=EDGE_CURVE('',#289,#290,#121,.T.);
#356=EDGE_CURVE('',#291,#290,#252,.T.);
#357=EDGE_CURVE('',#291,#292,#122,.T.);
#358=EDGE_CURVE('',#292,#293,#253,.T.);
#359=EDGE_CURVE('',#293,#294,#123,.T.);
#360=EDGE_CURVE('',#294,#295,#254,.T.);
#361=EDGE_CURVE('',#295,#296,#124,.T.);
#362=EDGE_CURVE('',#297,#296,#125,.T.);
#363=EDGE_CURVE('',#298,#297,#126,.T.);
#364=EDGE_CURVE('',#299,#298,#255,.T.);
#365=EDGE_CURVE('',#300,#299,#127,.T.);
#366=EDGE_CURVE('',#301,#300,#256,.T.);
#367=EDGE_CURVE('',#302,#301,#128,.T.);
#368=EDGE_CURVE('',#302,#303,#257,.T.);
#369=EDGE_CURVE('',#304,#303,#129,.T.);
#370=EDGE_CURVE('',#305,#304,#258,.T.);
#371=EDGE_CURVE('',#306,#305,#130,.T.);
#372=EDGE_CURVE('',#307,#306,#259,.T.);
#373=EDGE_CURVE('',#308,#307,#131,.T.);
#374=EDGE_CURVE('',#308,#278,#260,.T.);
#375=EDGE_CURVE('',#288,#309,#132,.T.);
#376=EDGE_CURVE('',#309,#310,#261,.T.);
#377=EDGE_CURVE('',#310,#289,#133,.T.);
#378=EDGE_CURVE('',#311,#310,#134,.T.);
#379=EDGE_CURVE('',#290,#311,#135,.T.);
#380=EDGE_CURVE('',#304,#312,#136,.T.);
#381=EDGE_CURVE('',#312,#313,#262,.T.);
#382=EDGE_CURVE('',#313,#305,#137,.T.);
#383=EDGE_CURVE('',#303,#314,#138,.T.);
#384=EDGE_CURVE('',#314,#312,#139,.T.);
#385=EDGE_CURVE('',#282,#315,#140,.T.);
#386=EDGE_CURVE('',#315,#316,#263,.T.);
#387=EDGE_CURVE('',#316,#283,#141,.T.);
#388=EDGE_CURVE('',#281,#317,#142,.T.);
#389=EDGE_CURVE('',#315,#317,#143,.T.);
#390=EDGE_CURVE('',#313,#318,#144,.T.);
#391=EDGE_CURVE('',#306,#318,#145,.T.);
#392=EDGE_CURVE('',#319,#279,#264,.T.);
#393=EDGE_CURVE('',#320,#319,#146,.T.);
#394=EDGE_CURVE('',#318,#320,#265,.T.);
#395=EDGE_CURVE('',#321,#314,#266,.T.);
#396=EDGE_CURVE('',#322,#321,#147,.T.);
#397=EDGE_CURVE('',#323,#322,#267,.T.);
#398=EDGE_CURVE('',#324,#323,#148,.T.);
#399=EDGE_CURVE('',#325,#324,#268,.T.);
#400=EDGE_CURVE('',#326,#325,#149,.T.);
#401=EDGE_CURVE('',#326,#327,#150,.T.);
#402=EDGE_CURVE('',#327,#328,#151,.T.);
#403=EDGE_CURVE('',#328,#329,#269,.T.);
#404=EDGE_CURVE('',#329,#330,#152,.T.);
#405=EDGE_CURVE('',#330,#331,#270,.T.);
#406=EDGE_CURVE('',#331,#332,#153,.T.);
#407=EDGE_CURVE('',#332,#311,#271,.T.);
#408=EDGE_CURVE('',#309,#333,#154,.T.);
#409=EDGE_CURVE('',#333,#334,#272,.T.);
#410=EDGE_CURVE('',#334,#335,#155,.T.);
#411=EDGE_CURVE('',#335,#336,#273,.T.);
#412=EDGE_CURVE('',#336,#316,#156,.T.);
#413=EDGE_CURVE('',#337,#317,#157,.T.);
#414=EDGE_CURVE('',#277,#337,#158,.T.);
#415=EDGE_CURVE('',#280,#337,#159,.T.);
#416=EDGE_CURVE('',#287,#333,#160,.T.);
#417=EDGE_CURVE('',#284,#336,#161,.T.);
#418=EDGE_CURVE('',#285,#335,#162,.T.);
#419=EDGE_CURVE('',#286,#334,#163,.T.);
#420=EDGE_CURVE('',#291,#332,#164,.T.);
#421=EDGE_CURVE('',#292,#331,#165,.T.);
#422=EDGE_CURVE('',#293,#330,#166,.T.);
#423=EDGE_CURVE('',#294,#329,#167,.T.);
#424=EDGE_CURVE('',#295,#328,#168,.T.);
#425=EDGE_CURVE('',#296,#327,#169,.T.);
#426=EDGE_CURVE('',#308,#319,#170,.T.);
#427=EDGE_CURVE('',#307,#320,#171,.T.);
#428=EDGE_CURVE('',#302,#321,#172,.T.);
#429=EDGE_CURVE('',#301,#322,#173,.T.);
#430=EDGE_CURVE('',#300,#323,#174,.T.);
#431=EDGE_CURVE('',#299,#324,#175,.T.);
#432=EDGE_CURVE('',#298,#325,#176,.T.);
#433=EDGE_CURVE('',#297,#326,#177,.T.);
#434=ORIENTED_EDGE('',*,*,#338,.T.);
#435=ORIENTED_EDGE('',*,*,#339,.T.);
#436=ORIENTED_EDGE('',*,*,#340,.T.);
#437=ORIENTED_EDGE('',*,*,#341,.T.);
#438=ORIENTED_EDGE('',*,*,#339,.F.);
#439=ORIENTED_EDGE('',*,*,#342,.T.);
#440=ORIENTED_EDGE('',*,*,#343,.T.);
#441=ORIENTED_EDGE('',*,*,#344,.T.);
#442=ORIENTED_EDGE('',*,*,#338,.F.);
#443=ORIENTED_EDGE('',*,*,#345,.F.);
#444=ORIENTED_EDGE('',*,*,#346,.T.);
#445=ORIENTED_EDGE('',*,*,#347,.T.);
#446=ORIENTED_EDGE('',*,*,#348,.F.);
#447=ORIENTED_EDGE('',*,*,#349,.T.);
#448=ORIENTED_EDGE('',*,*,#350,.F.);
#449=ORIENTED_EDGE('',*,*,#351,.T.);
#450=ORIENTED_EDGE('',*,*,#352,.T.);
#451=ORIENTED_EDGE('',*,*,#353,.T.);
#452=ORIENTED_EDGE('',*,*,#354,.F.);
#453=ORIENTED_EDGE('',*,*,#355,.T.);
#454=ORIENTED_EDGE('',*,*,#356,.F.);
#455=ORIENTED_EDGE('',*,*,#357,.T.);
#456=ORIENTED_EDGE('',*,*,#358,.T.);
#457=ORIENTED_EDGE('',*,*,#359,.T.);
#458=ORIENTED_EDGE('',*,*,#360,.T.);
#459=ORIENTED_EDGE('',*,*,#361,.T.);
#460=ORIENTED_EDGE('',*,*,#362,.F.);
#461=ORIENTED_EDGE('',*,*,#363,.F.);
#462=ORIENTED_EDGE('',*,*,#364,.F.);
#463=ORIENTED_EDGE('',*,*,#365,.F.);
#464=ORIENTED_EDGE('',*,*,#366,.F.);
#465=ORIENTED_EDGE('',*,*,#367,.F.);
#466=ORIENTED_EDGE('',*,*,#368,.T.);
#467=ORIENTED_EDGE('',*,*,#369,.F.);
#468=ORIENTED_EDGE('',*,*,#370,.F.);
#469=ORIENTED_EDGE('',*,*,#371,.F.);
#470=ORIENTED_EDGE('',*,*,#372,.F.);
#471=ORIENTED_EDGE('',*,*,#373,.F.);
#472=ORIENTED_EDGE('',*,*,#374,.T.);
#473=ORIENTED_EDGE('',*,*,#342,.F.);
#474=ORIENTED_EDGE('',*,*,#354,.T.);
#475=ORIENTED_EDGE('',*,*,#375,.T.);
#476=ORIENTED_EDGE('',*,*,#376,.T.);
#477=ORIENTED_EDGE('',*,*,#377,.T.);
#478=ORIENTED_EDGE('',*,*,#377,.F.);
#479=ORIENTED_EDGE('',*,*,#378,.F.);
#480=ORIENTED_EDGE('',*,*,#379,.F.);
#481=ORIENTED_EDGE('',*,*,#355,.F.);
#482=ORIENTED_EDGE('',*,*,#370,.T.);
#483=ORIENTED_EDGE('',*,*,#380,.T.);
#484=ORIENTED_EDGE('',*,*,#381,.T.);
#485=ORIENTED_EDGE('',*,*,#382,.T.);
#486=ORIENTED_EDGE('',*,*,#380,.F.);
#487=ORIENTED_EDGE('',*,*,#369,.T.);
#488=ORIENTED_EDGE('',*,*,#383,.T.);
#489=ORIENTED_EDGE('',*,*,#384,.T.);
#490=ORIENTED_EDGE('',*,*,#348,.T.);
#491=ORIENTED_EDGE('',*,*,#385,.T.);
#492=ORIENTED_EDGE('',*,*,#386,.T.);
#493=ORIENTED_EDGE('',*,*,#387,.T.);
#494=ORIENTED_EDGE('',*,*,#385,.F.);
#495=ORIENTED_EDGE('',*,*,#347,.F.);
#496=ORIENTED_EDGE('',*,*,#388,.T.);
#497=ORIENTED_EDGE('',*,*,#389,.F.);
#498=ORIENTED_EDGE('',*,*,#382,.F.);
#499=ORIENTED_EDGE('',*,*,#390,.T.);
#500=ORIENTED_EDGE('',*,*,#391,.F.);
#501=ORIENTED_EDGE('',*,*,#371,.T.);
#502=ORIENTED_EDGE('',*,*,#340,.F.);
#503=ORIENTED_EDGE('',*,*,#344,.F.);
#504=ORIENTED_EDGE('',*,*,#392,.F.);
#505=ORIENTED_EDGE('',*,*,#393,.F.);
#506=ORIENTED_EDGE('',*,*,#394,.F.);
#507=ORIENTED_EDGE('',*,*,#390,.F.);
#508=ORIENTED_EDGE('',*,*,#381,.F.);
#509=ORIENTED_EDGE('',*,*,#384,.F.);
#510=ORIENTED_EDGE('',*,*,#395,.F.);
#511=ORIENTED_EDGE('',*,*,#396,.F.);
#512=ORIENTED_EDGE('',*,*,#397,.F.);
#513=ORIENTED_EDGE('',*,*,#398,.F.);
#514=ORIENTED_EDGE('',*,*,#399,.F.);
#515=ORIENTED_EDGE('',*,*,#400,.F.);
#516=ORIENTED_EDGE('',*,*,#401,.T.);
#517=ORIENTED_EDGE('',*,*,#402,.T.);
#518=ORIENTED_EDGE('',*,*,#403,.T.);
#519=ORIENTED_EDGE('',*,*,#404,.T.);
#520=ORIENTED_EDGE('',*,*,#405,.T.);
#521=ORIENTED_EDGE('',*,*,#406,.T.);
#522=ORIENTED_EDGE('',*,*,#407,.T.);
#523=ORIENTED_EDGE('',*,*,#378,.T.);
#524=ORIENTED_EDGE('',*,*,#376,.F.);
#525=ORIENTED_EDGE('',*,*,#408,.T.);
#526=ORIENTED_EDGE('',*,*,#409,.T.);
#527=ORIENTED_EDGE('',*,*,#410,.T.);
#528=ORIENTED_EDGE('',*,*,#411,.T.);
#529=ORIENTED_EDGE('',*,*,#412,.T.);
#530=ORIENTED_EDGE('',*,*,#386,.F.);
#531=ORIENTED_EDGE('',*,*,#389,.T.);
#532=ORIENTED_EDGE('',*,*,#413,.F.);
#533=ORIENTED_EDGE('',*,*,#414,.F.);
#534=ORIENTED_EDGE('',*,*,#341,.F.);
#535=ORIENTED_EDGE('',*,*,#414,.T.);
#536=ORIENTED_EDGE('',*,*,#415,.F.);
#537=ORIENTED_EDGE('',*,*,#345,.T.);
#538=ORIENTED_EDGE('',*,*,#375,.F.);
#539=ORIENTED_EDGE('',*,*,#353,.F.);
#540=ORIENTED_EDGE('',*,*,#416,.T.);
#541=ORIENTED_EDGE('',*,*,#408,.F.);
#542=ORIENTED_EDGE('',*,*,#387,.F.);
#543=ORIENTED_EDGE('',*,*,#412,.F.);
#544=ORIENTED_EDGE('',*,*,#417,.F.);
#545=ORIENTED_EDGE('',*,*,#349,.F.);
#546=ORIENTED_EDGE('',*,*,#350,.T.);
#547=ORIENTED_EDGE('',*,*,#417,.T.);
#548=ORIENTED_EDGE('',*,*,#411,.F.);
#549=ORIENTED_EDGE('',*,*,#418,.F.);
#550=ORIENTED_EDGE('',*,*,#351,.F.);
#551=ORIENTED_EDGE('',*,*,#418,.T.);
#552=ORIENTED_EDGE('',*,*,#410,.F.);
#553=ORIENTED_EDGE('',*,*,#419,.F.);
#554=ORIENTED_EDGE('',*,*,#352,.F.);
#555=ORIENTED_EDGE('',*,*,#419,.T.);
#556=ORIENTED_EDGE('',*,*,#409,.F.);
#557=ORIENTED_EDGE('',*,*,#416,.F.);
#558=ORIENTED_EDGE('',*,*,#356,.T.);
#559=ORIENTED_EDGE('',*,*,#379,.T.);
#560=ORIENTED_EDGE('',*,*,#407,.F.);
#561=ORIENTED_EDGE('',*,*,#420,.F.);
#562=ORIENTED_EDGE('',*,*,#357,.F.);
#563=ORIENTED_EDGE('',*,*,#420,.T.);
#564=ORIENTED_EDGE('',*,*,#406,.F.);
#565=ORIENTED_EDGE('',*,*,#421,.F.);
#566=ORIENTED_EDGE('',*,*,#358,.F.);
#567=ORIENTED_EDGE('',*,*,#421,.T.);
#568=ORIENTED_EDGE('',*,*,#405,.F.);
#569=ORIENTED_EDGE('',*,*,#422,.F.);
#570=ORIENTED_EDGE('',*,*,#359,.F.);
#571=ORIENTED_EDGE('',*,*,#422,.T.);
#572=ORIENTED_EDGE('',*,*,#404,.F.);
#573=ORIENTED_EDGE('',*,*,#423,.F.);
#574=ORIENTED_EDGE('',*,*,#360,.F.);
#575=ORIENTED_EDGE('',*,*,#423,.T.);
#576=ORIENTED_EDGE('',*,*,#403,.F.);
#577=ORIENTED_EDGE('',*,*,#424,.F.);
#578=ORIENTED_EDGE('',*,*,#361,.F.);
#579=ORIENTED_EDGE('',*,*,#424,.T.);
#580=ORIENTED_EDGE('',*,*,#402,.F.);
#581=ORIENTED_EDGE('',*,*,#425,.F.);
#582=ORIENTED_EDGE('',*,*,#374,.F.);
#583=ORIENTED_EDGE('',*,*,#426,.T.);
#584=ORIENTED_EDGE('',*,*,#392,.T.);
#585=ORIENTED_EDGE('',*,*,#343,.F.);
#586=ORIENTED_EDGE('',*,*,#373,.T.);
#587=ORIENTED_EDGE('',*,*,#427,.T.);
#588=ORIENTED_EDGE('',*,*,#393,.T.);
#589=ORIENTED_EDGE('',*,*,#426,.F.);
#590=ORIENTED_EDGE('',*,*,#372,.T.);
#591=ORIENTED_EDGE('',*,*,#391,.T.);
#592=ORIENTED_EDGE('',*,*,#394,.T.);
#593=ORIENTED_EDGE('',*,*,#427,.F.);
#594=ORIENTED_EDGE('',*,*,#368,.F.);
#595=ORIENTED_EDGE('',*,*,#428,.T.);
#596=ORIENTED_EDGE('',*,*,#395,.T.);
#597=ORIENTED_EDGE('',*,*,#383,.F.);
#598=ORIENTED_EDGE('',*,*,#367,.T.);
#599=ORIENTED_EDGE('',*,*,#429,.T.);
#600=ORIENTED_EDGE('',*,*,#396,.T.);
#601=ORIENTED_EDGE('',*,*,#428,.F.);
#602=ORIENTED_EDGE('',*,*,#366,.T.);
#603=ORIENTED_EDGE('',*,*,#430,.T.);
#604=ORIENTED_EDGE('',*,*,#397,.T.);
#605=ORIENTED_EDGE('',*,*,#429,.F.);
#606=ORIENTED_EDGE('',*,*,#365,.T.);
#607=ORIENTED_EDGE('',*,*,#431,.T.);
#608=ORIENTED_EDGE('',*,*,#398,.T.);
#609=ORIENTED_EDGE('',*,*,#430,.F.);
#610=ORIENTED_EDGE('',*,*,#364,.T.);
#611=ORIENTED_EDGE('',*,*,#432,.T.);
#612=ORIENTED_EDGE('',*,*,#399,.T.);
#613=ORIENTED_EDGE('',*,*,#431,.F.);
#614=ORIENTED_EDGE('',*,*,#363,.T.);
#615=ORIENTED_EDGE('',*,*,#433,.T.);
#616=ORIENTED_EDGE('',*,*,#400,.T.);
#617=ORIENTED_EDGE('',*,*,#432,.F.);
#618=ORIENTED_EDGE('',*,*,#433,.F.);
#619=ORIENTED_EDGE('',*,*,#362,.T.);
#620=ORIENTED_EDGE('',*,*,#425,.T.);
#621=ORIENTED_EDGE('',*,*,#401,.F.);
#622=ORIENTED_EDGE('',*,*,#415,.T.);
#623=ORIENTED_EDGE('',*,*,#413,.T.);
#624=ORIENTED_EDGE('',*,*,#388,.F.);
#625=ORIENTED_EDGE('',*,*,#346,.F.);
#626=CYLINDRICAL_SURFACE('',#705,7.87999999999993);
#627=CYLINDRICAL_SURFACE('',#723,6.73999999999996);
#628=CYLINDRICAL_SURFACE('',#726,5.35999999999996);
#629=CYLINDRICAL_SURFACE('',#729,6.49999999999993);
#630=CYLINDRICAL_SURFACE('',#747,6.49999999999999);
#631=CYLINDRICAL_SURFACE('',#749,6.74000000428036);
#632=CYLINDRICAL_SURFACE('',#750,6.49999999999996);
#633=CYLINDRICAL_SURFACE('',#752,6.74000000000086);
#634=CYLINDRICAL_SURFACE('',#754,6.74000000981195);
#635=CYLINDRICAL_SURFACE('',#756,7.87999999999999);
#636=CYLINDRICAL_SURFACE('',#758,5.36000000428036);
#637=CYLINDRICAL_SURFACE('',#759,7.87999999999996);
#638=CYLINDRICAL_SURFACE('',#761,5.36000000000086);
#639=CYLINDRICAL_SURFACE('',#763,5.36000000981195);
#640=STYLED_ITEM('',(#1199),#656);
#641=STYLED_ITEM('',(#1199),#657);
#642=STYLED_ITEM('',(#1199),#661);
#643=STYLED_ITEM('',(#1199),#662);
#644=STYLED_ITEM('',(#1199),#665);
#645=STYLED_ITEM('',(#1199),#667);
#646=STYLED_ITEM('',(#1199),#679);
#647=STYLED_ITEM('',(#1199),#680);
#648=STYLED_ITEM('',(#1199),#681);
#649=STYLED_ITEM('',(#1199),#682);
#650=STYLED_ITEM('',(#1199),#683);
#651=STYLED_ITEM('',(#1199),#684);
#652=STYLED_ITEM('',(#1199),#685);
#653=STYLED_ITEM('',(#1199),#686);
#654=STYLED_ITEM('',(#1199),#687);
#655=STYLED_ITEM('',(#1198),#21);
#656=ADVANCED_FACE('',(#42),#626,.T.);
#657=ADVANCED_FACE('',(#43),#22,.F.);
#658=ADVANCED_FACE('',(#44),#23,.F.);
#659=ADVANCED_FACE('',(#45),#627,.T.);
#660=ADVANCED_FACE('',(#46),#24,.T.);
#661=ADVANCED_FACE('',(#47),#628,.F.);
#662=ADVANCED_FACE('',(#48),#25,.F.);
#663=ADVANCED_FACE('',(#49),#629,.F.);
#664=ADVANCED_FACE('',(#50),#26,.T.);
#665=ADVANCED_FACE('',(#51),#27,.F.);
#666=ADVANCED_FACE('',(#52),#28,.F.);
#667=ADVANCED_FACE('',(#53),#29,.F.);
#668=ADVANCED_FACE('',(#54),#30,.T.);
#669=ADVANCED_FACE('',(#55),#31,.T.);
#670=ADVANCED_FACE('',(#56),#630,.F.);
#671=ADVANCED_FACE('',(#57),#32,.T.);
#672=ADVANCED_FACE('',(#58),#631,.T.);
#673=ADVANCED_FACE('',(#59),#632,.F.);
#674=ADVANCED_FACE('',(#60),#33,.T.);
#675=ADVANCED_FACE('',(#61),#633,.T.);
#676=ADVANCED_FACE('',(#62),#34,.T.);
#677=ADVANCED_FACE('',(#63),#634,.T.);
#678=ADVANCED_FACE('',(#64),#35,.T.);
#679=ADVANCED_FACE('',(#65),#635,.T.);
#680=ADVANCED_FACE('',(#66),#36,.F.);
#681=ADVANCED_FACE('',(#67),#636,.F.);
#682=ADVANCED_FACE('',(#68),#637,.T.);
#683=ADVANCED_FACE('',(#69),#37,.F.);
#684=ADVANCED_FACE('',(#70),#638,.F.);
#685=ADVANCED_FACE('',(#71),#38,.F.);
#686=ADVANCED_FACE('',(#72),#639,.F.);
#687=ADVANCED_FACE('',(#73),#39,.F.);
#688=ADVANCED_FACE('',(#74),#40,.F.);
#689=ADVANCED_FACE('',(#75),#41,.F.);
#690=CLOSED_SHELL('',(#656,#657,#658,#659,#660,#661,#662,#663,#664,#665,
#666,#667,#668,#669,#670,#671,#672,#673,#674,#675,#676,#677,#678,#679,#680,
#681,#682,#683,#684,#685,#686,#687,#688,#689));
#691=DERIVED_UNIT_ELEMENT(#693,1.);
#692=DERIVED_UNIT_ELEMENT(#1174,-3.);
#693=(
MASS_UNIT()
NAMED_UNIT(*)
SI_UNIT(.KILO.,.GRAM.)
);
#694=DERIVED_UNIT((#691,#692));
#695=MEASURE_REPRESENTATION_ITEM('density measure',
POSITIVE_RATIO_MEASURE(7850.),#694);
#696=PROPERTY_DEFINITION_REPRESENTATION(#701,#698);
#697=PROPERTY_DEFINITION_REPRESENTATION(#702,#699);
#698=REPRESENTATION('material name',(#700),#1171);
#699=REPRESENTATION('density',(#695),#1171);
#700=DESCRIPTIVE_REPRESENTATION_ITEM('Steel','Steel');
#701=PROPERTY_DEFINITION('material property','material name',#1187);
#702=PROPERTY_DEFINITION('material property','density of part',#1187);
#703=AXIS2_PLACEMENT_3D('',#969,#769,#770);
#704=AXIS2_PLACEMENT_3D('',#970,#771,#772);
#705=AXIS2_PLACEMENT_3D('',#971,#773,#774);
#706=AXIS2_PLACEMENT_3D('',#974,#775,#776);
#707=AXIS2_PLACEMENT_3D('',#978,#778,#779);
#708=AXIS2_PLACEMENT_3D('',#980,#781,#782);
#709=AXIS2_PLACEMENT_3D('',#986,#786,#787);
#710=AXIS2_PLACEMENT_3D('',#994,#791,#792);
#711=AXIS2_PLACEMENT_3D('',#998,#794,#795);
#712=AXIS2_PLACEMENT_3D('',#1002,#797,#798);
#713=AXIS2_PLACEMENT_3D('',#1006,#800,#801);
#714=AXIS2_PLACEMENT_3D('',#1010,#803,#804);
#715=AXIS2_PLACEMENT_3D('',#1014,#806,#807);
#716=AXIS2_PLACEMENT_3D('',#1018,#809,#810);
#717=AXIS2_PLACEMENT_3D('',#1026,#814,#815);
#718=AXIS2_PLACEMENT_3D('',#1030,#817,#818);
#719=AXIS2_PLACEMENT_3D('',#1034,#820,#821);
#720=AXIS2_PLACEMENT_3D('',#1038,#823,#824);
#721=AXIS2_PLACEMENT_3D('',#1042,#826,#827);
#722=AXIS2_PLACEMENT_3D('',#1045,#829,#830);
#723=AXIS2_PLACEMENT_3D('',#1046,#831,#832);
#724=AXIS2_PLACEMENT_3D('',#1050,#834,#835);
#725=AXIS2_PLACEMENT_3D('',#1052,#837,#838);
#726=AXIS2_PLACEMENT_3D('',#1056,#841,#842);
#727=AXIS2_PLACEMENT_3D('',#1060,#844,#845);
#728=AXIS2_PLACEMENT_3D('',#1062,#847,#848);
#729=AXIS2_PLACEMENT_3D('',#1066,#851,#852);
#730=AXIS2_PLACEMENT_3D('',#1070,#854,#855);
#731=AXIS2_PLACEMENT_3D('',#1072,#857,#858);
#732=AXIS2_PLACEMENT_3D('',#1076,#861,#862);
#733=AXIS2_PLACEMENT_3D('',#1080,#865,#866);
#734=AXIS2_PLACEMENT_3D('',#1082,#867,#868);
#735=AXIS2_PLACEMENT_3D('',#1085,#870,#871);
#736=AXIS2_PLACEMENT_3D('',#1087,#872,#873);
#737=AXIS2_PLACEMENT_3D('',#1091,#875,#876);
#738=AXIS2_PLACEMENT_3D('',#1095,#878,#879);
#739=AXIS2_PLACEMENT_3D('',#1103,#883,#884);
#740=AXIS2_PLACEMENT_3D('',#1107,#886,#887);
#741=AXIS2_PLACEMENT_3D('',#1110,#889,#890);
#742=AXIS2_PLACEMENT_3D('',#1114,#892,#893);
#743=AXIS2_PLACEMENT_3D('',#1118,#895,#896);
#744=AXIS2_PLACEMENT_3D('',#1123,#900,#901);
#745=AXIS2_PLACEMENT_3D('',#1125,#903,#904);
#746=AXIS2_PLACEMENT_3D('',#1127,#906,#907);
#747=AXIS2_PLACEMENT_3D('',#1129,#909,#910);
#748=AXIS2_PLACEMENT_3D('',#1131,#912,#913);
#749=AXIS2_PLACEMENT_3D('',#1133,#915,#916);
#750=AXIS2_PLACEMENT_3D('',#1134,#917,#918);
#751=AXIS2_PLACEMENT_3D('',#1136,#920,#921);
#752=AXIS2_PLACEMENT_3D('',#1138,#923,#924);
#753=AXIS2_PLACEMENT_3D('',#1140,#926,#927);
#754=AXIS2_PLACEMENT_3D('',#1142,#929,#930);
#755=AXIS2_PLACEMENT_3D('',#1144,#932,#933);
#756=AXIS2_PLACEMENT_3D('',#1146,#935,#936);
#757=AXIS2_PLACEMENT_3D('',#1148,#938,#939);
#758=AXIS2_PLACEMENT_3D('',#1150,#941,#942);
#759=AXIS2_PLACEMENT_3D('',#1151,#943,#944);
#760=AXIS2_PLACEMENT_3D('',#1153,#946,#947);
#761=AXIS2_PLACEMENT_3D('',#1155,#949,#950);
#762=AXIS2_PLACEMENT_3D('',#1157,#952,#953);
#763=AXIS2_PLACEMENT_3D('',#1159,#955,#956);
#764=AXIS2_PLACEMENT_3D('',#1161,#958,#959);
#765=AXIS2_PLACEMENT_3D('',#1163,#961,#962);
#766=AXIS2_PLACEMENT_3D('',#1164,#963,#964);
#767=AXIS2_PLACEMENT_3D('',#1165,#965,#966);
#768=AXIS2_PLACEMENT_3D('',#1166,#967,#968);
#769=DIRECTION('axis',(0.,0.,1.));
#770=DIRECTION('refdir',(1.,0.,0.));
#771=DIRECTION('axis',(0.,0.,1.));
#772=DIRECTION('refdir',(1.,0.,0.));
#773=DIRECTION('center_axis',(1.11022302462518E-16,1.22315418346636E-33,
1.));
#774=DIRECTION('ref_axis',(0.707106781185425,0.70710678118767,0.));
#775=DIRECTION('center_axis',(-1.33056689351891E-16,2.20343868893621E-17,
-1.));
#776=DIRECTION('ref_axis',(0.707106781185425,0.70710678118767,0.));
#777=DIRECTION('',(-1.11022302462518E-16,-1.22315418346636E-33,-1.));
#778=DIRECTION('center_axis',(1.33056689351891E-16,-2.20343868893621E-17,
1.));
#779=DIRECTION('ref_axis',(0.707106781185425,0.70710678118767,0.));
#780=DIRECTION('',(1.11022302462518E-16,1.22315418346636E-33,1.));
#781=DIRECTION('center_axis',(-1.,-1.76477775372733E-13,1.11022302462518E-16));
#782=DIRECTION('ref_axis',(-1.76477775372733E-13,1.,-7.03741775244551E-17));
#783=DIRECTION('',(1.76477775372733E-13,-1.,7.03741775244551E-17));
#784=DIRECTION('',(-1.11022302462518E-16,-1.22315418339911E-33,-1.));
#785=DIRECTION('',(-1.76477775372733E-13,1.,-7.03741775244551E-17));
#786=DIRECTION('center_axis',(-1.33056689351891E-16,2.20343868893621E-17,
-1.));
#787=DIRECTION('ref_axis',(-1.,5.27355936696951E-16,1.33056689351891E-16));
#788=DIRECTION('',(1.,2.99923806453831E-12,-8.75409631879096E-17));
#789=DIRECTION('',(2.99923806453831E-12,-1.,-3.32981092404085E-28));
#790=DIRECTION('',(1.,2.99923806453831E-12,-8.75409631879096E-17));
#791=DIRECTION('center_axis',(1.33056689351891E-16,-2.20343868893621E-17,
1.));
#792=DIRECTION('ref_axis',(0.707106781185427,0.707106781187668,0.));
#793=DIRECTION('',(1.76477775372733E-13,-1.,7.03741775244551E-17));
#794=DIRECTION('center_axis',(1.09426637795715E-15,-7.39911079021991E-16,
1.));
#795=DIRECTION('ref_axis',(0.785510057213715,-0.618848891100329,-1.31745039592177E-15));
#796=DIRECTION('',(-0.618848890826153,-0.785510057429719,2.07688645323722E-16));
#797=DIRECTION('center_axis',(5.43276964894556E-16,-3.05794569973336E-16,
1.));
#798=DIRECTION('ref_axis',(-0.78553973185339,0.618811222974911,6.1599475314968E-16));
#799=DIRECTION('',(2.15489470039195E-15,1.,-3.17878664784773E-17));
#800=DIRECTION('center_axis',(-1.33056689351891E-16,2.20343868893621E-17,
-1.));
#801=DIRECTION('ref_axis',(0.707106781186534,0.707106781186561,0.));
#802=DIRECTION('',(-1.,-3.10015500230737E-14,1.55091076241301E-16));
#803=DIRECTION('center_axis',(1.55091076241301E-16,5.90501740757623E-29,
1.));
#804=DIRECTION('ref_axis',(-0.9956467306157,-0.0932072304827723,1.54415923007327E-16));
#805=DIRECTION('',(-0.0932072304825615,0.995646730615719,1.44556096889527E-17));
#806=DIRECTION('center_axis',(1.55091076241301E-16,5.90501740757623E-29,
1.));
#807=DIRECTION('ref_axis',(0.995646730615449,0.0932072304854446,-1.54415923007288E-16));
#808=DIRECTION('',(-4.89725397459815E-12,-1.,8.18570563623178E-28));
#809=DIRECTION('center_axis',(1.55091076241301E-16,5.90501740757623E-29,
1.));
#810=DIRECTION('ref_axis',(-1.,-6.31827737881568E-9,1.55091076241301E-16));
#811=DIRECTION('',(1.,-2.15733970013996E-10,-2.42642343214385E-16));
#812=DIRECTION('',(-2.15733970013996E-10,-1.,2.39512832934878E-26));
#813=DIRECTION('',(1.,-2.15733970013996E-10,-2.42642343214385E-16));
#814=DIRECTION('center_axis',(1.55091076241301E-16,5.90501740757623E-29,
1.));
#815=DIRECTION('ref_axis',(-1.,-6.31827737881568E-9,1.55091076241301E-16));
#816=DIRECTION('',(-4.89725397459815E-12,-1.,8.18570563623178E-28));
#817=DIRECTION('center_axis',(1.55091076241301E-16,5.90501740757623E-29,
1.));
#818=DIRECTION('ref_axis',(0.995646730615449,0.0932072304854446,-1.54415923007288E-16));
#819=DIRECTION('',(-0.0932072304825615,0.995646730615719,1.44556096889527E-17));
#820=DIRECTION('center_axis',(1.55091076241301E-16,5.90501740757623E-29,
1.));
#821=DIRECTION('ref_axis',(-0.9956467306157,-0.0932072304827724,1.54415923007327E-16));
#822=DIRECTION('',(-1.,-3.10015500230737E-14,1.55091076241301E-16));
#823=DIRECTION('center_axis',(1.33056689351891E-16,-2.20343868893621E-17,
1.));
#824=DIRECTION('ref_axis',(0.707106781186538,0.707106781186557,0.));
#825=DIRECTION('',(2.15489470039195E-15,1.,-3.17878664784773E-17));
#826=DIRECTION('center_axis',(5.43276964894556E-16,-3.05794569973336E-16,
1.));
#827=DIRECTION('ref_axis',(-0.78553973185339,0.618811222974911,6.1599475314968E-16));
#828=DIRECTION('',(-0.618848890826153,-0.785510057429719,2.07688645323722E-16));
#829=DIRECTION('center_axis',(1.09426637795715E-15,-7.39911079021991E-16,
1.));
#830=DIRECTION('ref_axis',(0.785510057213715,-0.618848891100329,-1.31745039592178E-15));
#831=DIRECTION('center_axis',(1.11022302462518E-16,1.22315418339559E-33,
1.));
#832=DIRECTION('ref_axis',(0.707106781186534,0.707106781186561,0.));
#833=DIRECTION('',(-1.11022302462518E-16,-1.22315418339559E-33,-1.));
#834=DIRECTION('center_axis',(1.33056689351891E-16,-2.20343868893621E-17,
1.));
#835=DIRECTION('ref_axis',(0.707106781186534,0.707106781186561,0.));
#836=DIRECTION('',(1.11022302462518E-16,1.22315418339559E-33,1.));
#837=DIRECTION('center_axis',(-3.10015500230737E-14,1.,3.44064030928516E-30));
#838=DIRECTION('ref_axis',(1.,3.10015500230737E-14,-1.55091076241301E-16));
#839=DIRECTION('',(1.,3.10015500230737E-14,-1.55091076241301E-16));
#840=DIRECTION('',(-1.11022302462518E-16,-1.22315418339909E-33,-1.));
#841=DIRECTION('center_axis',(-1.11022302462518E-16,-1.22315418339559E-33,
-1.));
#842=DIRECTION('ref_axis',(0.707106781186538,0.707106781186557,0.));
#843=DIRECTION('',(-1.11022302462518E-16,-1.22315418339559E-33,-1.));
#844=DIRECTION('center_axis',(-1.33056689351891E-16,2.20343868893621E-17,
-1.));
#845=DIRECTION('ref_axis',(0.707106781186538,0.707106781186557,0.));
#846=DIRECTION('',(1.11022302462518E-16,1.22315418339559E-33,1.));
#847=DIRECTION('center_axis',(-3.10015500230737E-14,1.,3.44064030928516E-30));
#848=DIRECTION('ref_axis',(1.,3.10015500230737E-14,-1.55091076241301E-16));
#849=DIRECTION('',(-1.11022302462518E-16,-1.22315418339909E-33,-1.));
#850=DIRECTION('',(1.,3.10015500230737E-14,-1.55091076241301E-16));
#851=DIRECTION('center_axis',(-1.11022302462518E-16,-1.22315418346636E-33,
-1.));
#852=DIRECTION('ref_axis',(0.707106781185427,0.707106781187668,0.));
#853=DIRECTION('',(-1.11022302462518E-16,-1.22315418346636E-33,-1.));
#854=DIRECTION('center_axis',(-1.33056689351891E-16,2.20343868893621E-17,
-1.));
#855=DIRECTION('ref_axis',(0.707106781185427,0.707106781187668,0.));
#856=DIRECTION('',(1.11022302462518E-16,1.22315418346636E-33,1.));
#857=DIRECTION('center_axis',(2.99923806453831E-12,-1.,-3.32981092404085E-28));
#858=DIRECTION('ref_axis',(-1.,-2.99923806453831E-12,8.75409631879096E-17));
#859=DIRECTION('',(-1.11022302462518E-16,-1.22315418339909E-33,-1.));
#860=DIRECTION('',(-1.,-2.99923806453831E-12,8.75409631879096E-17));
#861=DIRECTION('center_axis',(1.,-2.15489470039195E-15,-1.11022302462518E-16));
#862=DIRECTION('ref_axis',(-2.15489470039195E-15,-1.,3.17878664784773E-17));
#863=DIRECTION('',(-2.15489470039195E-15,-1.,3.17878664784773E-17));
#864=DIRECTION('',(-1.11022302462518E-16,-1.22315418339911E-33,-1.));
#865=DIRECTION('center_axis',(1.33056689351891E-16,-2.20343868893621E-17,
1.));
#866=DIRECTION('ref_axis',(1.,-5.27355936696951E-16,-1.33056689351891E-16));
#867=DIRECTION('center_axis',(1.09426637795715E-15,-7.39911079021991E-16,
1.));
#868=DIRECTION('ref_axis',(0.785510057213715,-0.618848891100329,-1.31745039592178E-15));
#869=DIRECTION('',(0.618848890826153,0.785510057429719,-2.07688645323722E-16));
#870=DIRECTION('center_axis',(-5.43276964894556E-16,3.05794569973336E-16,
-1.));
#871=DIRECTION('ref_axis',(-0.78553973185339,0.618811222974911,6.1599475314968E-16));
#872=DIRECTION('center_axis',(1.55091076241301E-16,5.90501740757623E-29,
1.));
#873=DIRECTION('ref_axis',(-0.9956467306157,-0.0932072304827724,1.54415923007327E-16));
#874=DIRECTION('',(0.0932072304825615,-0.995646730615719,-1.44556096889527E-17));
#875=DIRECTION('center_axis',(-1.55091076241301E-16,-5.90501740757623E-29,
-1.));
#876=DIRECTION('ref_axis',(0.995646730615449,0.0932072304854446,-1.54415923007288E-16));
#877=DIRECTION('',(4.89725397459815E-12,1.,-8.18570563623178E-28));
#878=DIRECTION('center_axis',(-1.55091076241301E-16,-5.90501740757623E-29,
-1.));
#879=DIRECTION('ref_axis',(-1.,-6.31827737881568E-9,1.55091076241301E-16));
#880=DIRECTION('',(-1.,2.15733970013996E-10,2.42642343214385E-16));
#881=DIRECTION('',(-2.15733970013996E-10,-1.,2.39512832934878E-26));
#882=DIRECTION('',(-1.,2.15733970013996E-10,2.42642343214385E-16));
#883=DIRECTION('center_axis',(-1.55091076241301E-16,-5.90501740757623E-29,
-1.));
#884=DIRECTION('ref_axis',(-1.,-6.31827737881568E-9,1.55091076241301E-16));
#885=DIRECTION('',(4.89725397459815E-12,1.,-8.18570563623178E-28));
#886=DIRECTION('center_axis',(-1.55091076241301E-16,-5.90501740757623E-29,
-1.));
#887=DIRECTION('ref_axis',(0.995646730615449,0.0932072304854446,-1.54415923007288E-16));
#888=DIRECTION('',(0.0932072304825615,-0.995646730615719,-1.44556096889527E-17));
#889=DIRECTION('center_axis',(1.55091076241301E-16,5.90501740757623E-29,
1.));
#890=DIRECTION('ref_axis',(-0.9956467306157,-0.0932072304827723,1.54415923007327E-16));
#891=DIRECTION('',(-2.15489470039195E-15,-1.,3.17878664784773E-17));
#892=DIRECTION('center_axis',(-5.43276964894556E-16,3.05794569973336E-16,
-1.));
#893=DIRECTION('ref_axis',(-0.78553973185339,0.618811222974911,6.1599475314968E-16));
#894=DIRECTION('',(0.618848890826153,0.785510057429719,-2.07688645323722E-16));
#895=DIRECTION('center_axis',(1.09426637795715E-15,-7.39911079021991E-16,
1.));
#896=DIRECTION('ref_axis',(0.785510057213715,-0.618848891100329,-1.31745039592177E-15));
#897=DIRECTION('',(-1.76477775372733E-13,1.,-7.03741775244551E-17));
#898=DIRECTION('',(2.99923806453831E-12,-1.,-3.32981092404085E-28));
#899=DIRECTION('',(-1.,-2.99923806453831E-12,8.75409631879096E-17));
#900=DIRECTION('center_axis',(2.99923806453831E-12,-1.,-3.32981092404085E-28));
#901=DIRECTION('ref_axis',(-1.,-2.99923806453831E-12,8.75409631879096E-17));
#902=DIRECTION('',(-1.11022302462518E-16,-1.22315418339909E-33,-1.));
#903=DIRECTION('center_axis',(1.,-2.15489470039195E-15,-1.11022302462518E-16));
#904=DIRECTION('ref_axis',(-2.15489470039195E-15,-1.,3.17878664784773E-17));
#905=DIRECTION('',(-1.11022302462518E-16,-1.22315418339911E-33,-1.));
#906=DIRECTION('center_axis',(-1.,-1.76477775372733E-13,1.11022302462518E-16));
#907=DIRECTION('ref_axis',(-1.76477775372733E-13,1.,-7.03741775244551E-17));
#908=DIRECTION('',(-1.11022302462518E-16,-1.22315418339911E-33,-1.));
#909=DIRECTION('center_axis',(-1.11022302462518E-16,-1.22315418339911E-33,
-1.));
#910=DIRECTION('ref_axis',(0.785510057213715,-0.618848891100329,-8.72091351593306E-17));
#911=DIRECTION('',(-1.11022302462518E-16,-1.22315418339911E-33,-1.));
#912=DIRECTION('center_axis',(-0.785510057429719,0.618848890826153,8.72091351833119E-17));
#913=DIRECTION('ref_axis',(0.618848890826153,0.785510057429719,-2.07688645323722E-16));
#914=DIRECTION('',(-1.11022302462518E-16,-1.22315418339911E-33,-1.));
#915=DIRECTION('center_axis',(-1.11022302462518E-16,-1.22315418339911E-33,
-1.));
#916=DIRECTION('ref_axis',(-0.327460125928864,-0.94486499878377,3.63553771452885E-17));
#917=DIRECTION('center_axis',(-1.11022302462518E-16,-1.22315418339909E-33,
-1.));
#918=DIRECTION('ref_axis',(-0.9956467306157,-0.0932072304827723,1.10538992472233E-16));
#919=DIRECTION('',(-1.11022302462518E-16,-1.22315418339909E-33,-1.));
#920=DIRECTION('center_axis',(0.995646730615719,0.0932072304825615,-1.10538992472235E-16));
#921=DIRECTION('ref_axis',(0.0932072304825615,-0.995646730615719,-1.44556096889527E-17));
#922=DIRECTION('',(-1.11022302462518E-16,-1.22315418339909E-33,-1.));
#923=DIRECTION('center_axis',(-1.11022302462518E-16,-1.22315418339909E-33,
-1.));
#924=DIRECTION('ref_axis',(0.995646730615449,0.0932072304854446,-1.10538992472205E-16));
#925=DIRECTION('',(-1.11022302462518E-16,-1.22315418339909E-33,-1.));
#926=DIRECTION('center_axis',(-1.,4.89725397459815E-12,1.11022302462518E-16));
#927=DIRECTION('ref_axis',(4.89725397459815E-12,1.,-8.18570563623178E-28));
#928=DIRECTION('',(-1.11022302462518E-16,-1.22315418339909E-33,-1.));
#929=DIRECTION('center_axis',(-1.11022302462518E-16,-1.22315418339909E-33,
-1.));
#930=DIRECTION('ref_axis',(-1.,-6.31827737881568E-9,1.11022302462518E-16));
#931=DIRECTION('',(-1.11022302462518E-16,-1.22315418339909E-33,-1.));
#932=DIRECTION('center_axis',(-2.15733970013996E-10,-1.,2.39512832934878E-26));
#933=DIRECTION('ref_axis',(-1.,2.15733970013996E-10,2.42642343214385E-16));
#934=DIRECTION('',(-1.11022302462518E-16,-1.22315418339909E-33,-1.));
#935=DIRECTION('center_axis',(-1.11022302462518E-16,-1.22315418339911E-33,
-1.));
#936=DIRECTION('ref_axis',(0.785510057213715,-0.618848891100329,-8.72091351593306E-17));
#937=DIRECTION('',(-1.11022302462518E-16,-1.22315418339911E-33,-1.));
#938=DIRECTION('center_axis',(-0.785510057429719,0.618848890826153,8.72091351833119E-17));
#939=DIRECTION('ref_axis',(0.618848890826153,0.785510057429719,-2.07688645323722E-16));
#940=DIRECTION('',(-1.11022302462518E-16,-1.22315418339911E-33,-1.));
#941=DIRECTION('center_axis',(-1.11022302462518E-16,-1.22315418339911E-33,
-1.));
#942=DIRECTION('ref_axis',(-0.327457209608768,-0.944866009482423,3.63550533687168E-17));
#943=DIRECTION('center_axis',(-1.11022302462518E-16,-1.22315418339909E-33,
-1.));
#944=DIRECTION('ref_axis',(-0.9956467306157,-0.0932072304827723,1.10538992472233E-16));
#945=DIRECTION('',(-1.11022302462518E-16,-1.22315418339909E-33,-1.));
#946=DIRECTION('center_axis',(0.995646730615719,0.0932072304825615,-1.10538992472235E-16));
#947=DIRECTION('ref_axis',(0.0932072304825615,-0.995646730615719,-1.44556096889527E-17));
#948=DIRECTION('',(-1.11022302462518E-16,-1.22315418339909E-33,-1.));
#949=DIRECTION('center_axis',(-1.11022302462518E-16,-1.22315418339909E-33,
-1.));
#950=DIRECTION('ref_axis',(0.995646730615449,0.0932072304854446,-1.10538992472205E-16));
#951=DIRECTION('',(-1.11022302462518E-16,-1.22315418339909E-33,-1.));
#952=DIRECTION('center_axis',(-1.,4.89725397459815E-12,1.11022302462518E-16));
#953=DIRECTION('ref_axis',(4.89725397459815E-12,1.,-8.18570563623178E-28));
#954=DIRECTION('',(-1.11022302462518E-16,-1.22315418339909E-33,-1.));
#955=DIRECTION('center_axis',(-1.11022302462518E-16,-1.22315418339909E-33,
-1.));
#956=DIRECTION('ref_axis',(-1.,-6.31827737881568E-9,1.11022302462518E-16));
#957=DIRECTION('',(-1.11022302462518E-16,-1.22315418339909E-33,-1.));
#958=DIRECTION('center_axis',(-2.15733970013996E-10,-1.,2.39512832934878E-26));
#959=DIRECTION('ref_axis',(-1.,2.15733970013996E-10,2.42642343214385E-16));
#960=DIRECTION('',(-1.11022302462518E-16,-1.22315418339909E-33,-1.));
#961=DIRECTION('center_axis',(-1.,2.15733970013996E-10,1.11022302462518E-16));
#962=DIRECTION('ref_axis',(1.11022302462518E-16,1.22315418339909E-33,1.));
#963=DIRECTION('center_axis',(1.,2.99923806453831E-12,-1.11022302462518E-16));
#964=DIRECTION('ref_axis',(-1.11022302462518E-16,-1.22315418339909E-33,
-1.));
#965=DIRECTION('',(-1.11022302462518E-16,-1.57772181044202E-30,0.999999999999999));
#966=DIRECTION('',(0.999999999999999,5.27355936696949E-16,1.11022302462518E-16));
#967=DIRECTION('',(-4.40687737787832E-17,-5.9072190851054E-29,-0.999999999999999));
#968=DIRECTION('',(-0.999999999999998,5.27355936696949E-16,4.40687737788829E-17));
#969=CARTESIAN_POINT('',(0.,0.,0.));
#970=CARTESIAN_POINT('',(0.,0.,0.));
#971=CARTESIAN_POINT('Origin',(158.250000001011,-53.2399999999951,24.0000000000011));
#972=CARTESIAN_POINT('',(158.250000000987,-45.3599999999952,24.0000000000011));
#973=CARTESIAN_POINT('',(166.13000000101,-53.2399999999937,24.0000000000011));
#974=CARTESIAN_POINT('Origin',(158.250000001011,-53.2399999999951,24.0000000000011));
#975=CARTESIAN_POINT('',(166.13000000101,-53.2399999999937,18.0000000000011));
#976=CARTESIAN_POINT('',(166.130000001011,-53.2399999999937,24.0000000000011));
#977=CARTESIAN_POINT('',(158.250000000987,-45.3599999999952,18.0000000000011));
#978=CARTESIAN_POINT('Origin',(158.250000001011,-53.2399999999951,18.0000000000011));
#979=CARTESIAN_POINT('',(158.250000000987,-45.3599999999952,24.0000000000011));
#980=CARTESIAN_POINT('Origin',(166.130000001039,-216.999999999973,24.0000000000011));
#981=CARTESIAN_POINT('',(166.130000001039,-216.999999999973,24.0000000000011));
#982=CARTESIAN_POINT('',(166.130000001012,-59.2399999999937,24.0000000000011));
#983=CARTESIAN_POINT('',(166.130000001039,-216.999999999973,18.0000000000011));
#984=CARTESIAN_POINT('',(166.130000001039,-216.999999999973,24.0000000000011));
#985=CARTESIAN_POINT('',(166.130000001012,-59.2399999999937,18.0000000000011));
#986=CARTESIAN_POINT('Origin',(162.846194078723,-48.6438059222815,24.0000000000011));
#987=CARTESIAN_POINT('',(10.3300814402658,-45.3600000004388,24.0000000000011));
#988=CARTESIAN_POINT('',(10.3300814402658,-45.3600000004388,24.0000000000011));
#989=CARTESIAN_POINT('',(10.33008144027,-46.7400000004388,24.0000000000011));
#990=CARTESIAN_POINT('',(10.33008144027,-46.7400000004388,24.0000000000011));
#991=CARTESIAN_POINT('',(158.250000000991,-46.7399999999952,24.0000000000011));
#992=CARTESIAN_POINT('',(10.33008144027,-46.7400000004388,24.0000000000011));
#993=CARTESIAN_POINT('',(164.75000000101,-53.2399999999939,24.0000000000011));
#994=CARTESIAN_POINT('Origin',(158.250000001011,-53.2399999999951,24.0000000000011));
#995=CARTESIAN_POINT('',(164.750000001039,-216.999999999973,24.0000000000011));
#996=CARTESIAN_POINT('',(164.750000001012,-59.239999999994,24.0000000000011));
#997=CARTESIAN_POINT('',(163.355815372929,-221.022517792126,24.0000000000011));
#998=CARTESIAN_POINT('Origin',(158.250000001039,-216.999999999974,24.0000000000011));
#999=CARTESIAN_POINT('',(157.205462204013,-228.829212354475,24.0000000000011));
#1000=CARTESIAN_POINT('',(163.355815372929,-221.022517792126,24.0000000000011));
#1001=CARTESIAN_POINT('',(169.240000004348,-232.999999999975,24.0000000000011));
#1002=CARTESIAN_POINT('Origin',(162.500000000067,-232.999999999974,24.0000000000011));
#1003=CARTESIAN_POINT('',(169.240000000013,122.260000000004,24.0000000000011));
#1004=CARTESIAN_POINT('',(169.240000000012,-232.999999999975,24.0000000000011));
#1005=CARTESIAN_POINT('',(162.500000000013,129.000000000004,24.0000000000011));
#1006=CARTESIAN_POINT('Origin',(162.500000000013,122.260000000004,24.0000000000011));
#1007=CARTESIAN_POINT('',(-148.500000000011,128.999999999994,24.0000000000011));
#1008=CARTESIAN_POINT('',(162.500000000012,129.000000000004,24.0000000000011));
#1009=CARTESIAN_POINT('',(-154.971703749014,134.894153001856,24.0000000000011));
#1010=CARTESIAN_POINT('Origin',(-148.500000000012,135.499999999994,24.0000000000011));
#1011=CARTESIAN_POINT('',(-155.789341035663,143.628216733466,24.0000000000011));
#1012=CARTESIAN_POINT('',(-154.971703749014,134.894153001856,24.0000000000011));
#1013=CARTESIAN_POINT('',(-169.240000000013,143.000000000027,24.0000000000011));
#1014=CARTESIAN_POINT('Origin',(-162.500000000012,142.999999999994,24.0000000000011));
#1015=CARTESIAN_POINT('',(-169.240000000908,-39.9999999976865,24.0000000000011));
#1016=CARTESIAN_POINT('',(-169.240000000012,143.000000000027,24.0000000000011));
#1017=CARTESIAN_POINT('',(-162.500000002362,-46.7399999649133,24.0000000000011));
#1018=CARTESIAN_POINT('Origin',(-162.499999991096,-39.9999999551013,24.0000000000011));
#1019=CARTESIAN_POINT('',(-10.3299999999901,-46.7399999977412,24.0000000000011));
#1020=CARTESIAN_POINT('',(-162.500000002362,-46.739999964913,24.0000000000011));
#1021=CARTESIAN_POINT('',(-10.3299999996924,-45.3599999977412,24.0000000000011));
#1022=CARTESIAN_POINT('',(-10.3299999999901,-46.7399999977412,24.0000000000011));
#1023=CARTESIAN_POINT('',(-162.50000000106,-45.3599999649133,24.0000000000011));
#1024=CARTESIAN_POINT('',(-162.500000002064,-45.359999964913,24.0000000000011));
#1025=CARTESIAN_POINT('',(-167.860000000908,-39.9999999933303,24.0000000000011));
#1026=CARTESIAN_POINT('Origin',(-162.499999991096,-39.9999999551013,24.0000000000011));
#1027=CARTESIAN_POINT('',(-167.860000000013,143.00000000002,24.0000000000011));
#1028=CARTESIAN_POINT('',(-167.860000000012,143.00000000002,24.0000000000011));
#1029=CARTESIAN_POINT('',(-157.163333523912,143.499590755398,24.0000000000011));
#1030=CARTESIAN_POINT('Origin',(-162.500000000012,142.999999999994,24.0000000000011));
#1031=CARTESIAN_POINT('',(-156.345696237264,134.76552702379,24.0000000000011));
#1032=CARTESIAN_POINT('',(-156.345696237264,134.76552702379,24.0000000000011));
#1033=CARTESIAN_POINT('',(-148.500000000011,127.619999999994,24.0000000000011));
#1034=CARTESIAN_POINT('Origin',(-148.500000000012,135.499999999994,24.0000000000011));
#1035=CARTESIAN_POINT('',(162.500000000013,127.620000000004,24.0000000000011));
#1036=CARTESIAN_POINT('',(162.500000000012,127.620000000004,24.0000000000011));
#1037=CARTESIAN_POINT('',(167.860000000013,122.260000000004,24.0000000000011));
#1038=CARTESIAN_POINT('Origin',(162.500000000013,122.260000000004,24.0000000000011));
#1039=CARTESIAN_POINT('',(167.860000004348,-232.999999999975,24.0000000000011));
#1040=CARTESIAN_POINT('',(167.860000000012,-232.999999999975,24.0000000000011));
#1041=CARTESIAN_POINT('',(158.289486559242,-229.683197833488,24.0000000000011));
#1042=CARTESIAN_POINT('Origin',(162.500000000067,-232.999999999974,24.0000000000011));
#1043=CARTESIAN_POINT('',(164.439819252033,-221.876529261656,24.0000000000011));
#1044=CARTESIAN_POINT('',(164.439819252182,-221.876529261466,24.0000000000011));
#1045=CARTESIAN_POINT('Origin',(158.250000001039,-216.999999999974,24.0000000000011));
#1046=CARTESIAN_POINT('Origin',(162.500000000013,122.260000000004,24.0000000000011));
#1047=CARTESIAN_POINT('',(169.240000000013,122.260000000004,18.0000000000011));
#1048=CARTESIAN_POINT('',(169.240000000013,122.260000000004,24.0000000000011));
#1049=CARTESIAN_POINT('',(162.500000000013,129.000000000004,18.0000000000011));
#1050=CARTESIAN_POINT('Origin',(162.500000000013,122.260000000004,18.0000000000011));
#1051=CARTESIAN_POINT('',(162.500000000013,129.000000000004,24.0000000000011));
#1052=CARTESIAN_POINT('Origin',(-148.500000000011,128.999999999994,24.0000000000011));
#1053=CARTESIAN_POINT('',(-148.500000000011,128.999999999994,18.0000000000011));
#1054=CARTESIAN_POINT('',(162.500000000012,129.000000000004,18.0000000000011));
#1055=CARTESIAN_POINT('',(-148.500000000011,128.999999999994,24.0000000000011));
#1056=CARTESIAN_POINT('Origin',(162.500000000013,122.260000000004,24.0000000000011));
#1057=CARTESIAN_POINT('',(162.500000000013,127.620000000004,18.0000000000011));
#1058=CARTESIAN_POINT('',(162.500000000013,127.620000000004,24.0000000000011));
#1059=CARTESIAN_POINT('',(167.860000000013,122.260000000004,18.0000000000011));
#1060=CARTESIAN_POINT('Origin',(162.500000000013,122.260000000004,18.0000000000011));
#1061=CARTESIAN_POINT('',(167.860000000013,122.260000000004,24.0000000000011));
#1062=CARTESIAN_POINT('Origin',(-148.500000000011,127.619999999994,24.0000000000011));
#1063=CARTESIAN_POINT('',(-148.500000000011,127.619999999994,18.0000000000011));
#1064=CARTESIAN_POINT('',(-148.500000000011,127.619999999994,24.0000000000011));
#1065=CARTESIAN_POINT('',(162.500000000012,127.620000000004,18.0000000000011));
#1066=CARTESIAN_POINT('Origin',(158.250000001011,-53.2399999999951,24.0000000000011));
#1067=CARTESIAN_POINT('',(158.250000000991,-46.7399999999952,18.0000000000011));
#1068=CARTESIAN_POINT('',(158.250000000991,-46.7399999999952,24.0000000000011));
#1069=CARTESIAN_POINT('',(164.75000000101,-53.2399999999939,18.0000000000011));
#1070=CARTESIAN_POINT('Origin',(158.250000001011,-53.2399999999951,18.0000000000011));
#1071=CARTESIAN_POINT('',(164.75000000101,-53.2399999999939,24.0000000000011));
#1072=CARTESIAN_POINT('Origin',(158.25000000101,-46.7399999999952,24.0000000000011));
#1073=CARTESIAN_POINT('',(10.33008144027,-46.7400000004388,18.0000000000011));
#1074=CARTESIAN_POINT('',(10.33008144027,-46.7400000004388,24.0000000000011));
#1075=CARTESIAN_POINT('',(10.33008144027,-46.7400000004388,18.0000000000011));
#1076=CARTESIAN_POINT('Origin',(167.860000000013,116.260000000004,24.0000000000011));
#1077=CARTESIAN_POINT('',(167.860000004348,-232.999999999975,18.0000000000011));
#1078=CARTESIAN_POINT('',(167.860000000012,-232.999999999975,18.0000000000011));
#1079=CARTESIAN_POINT('',(167.860000004348,-232.999999999975,24.0000000000011));
#1080=CARTESIAN_POINT('Origin',(162.846194078723,-48.6438059222815,18.0000000000011));
#1081=CARTESIAN_POINT('',(164.439819252033,-221.876529261656,18.0000000000011));
#1082=CARTESIAN_POINT('Origin',(158.250000001039,-216.999999999974,18.0000000000011));
#1083=CARTESIAN_POINT('',(158.289486559242,-229.683197833488,18.0000000000011));
#1084=CARTESIAN_POINT('',(164.439819252182,-221.876529261466,18.0000000000011));
#1085=CARTESIAN_POINT('Origin',(162.500000000067,-232.999999999974,18.0000000000011));
#1086=CARTESIAN_POINT('',(-156.345696237264,134.76552702379,18.0000000000011));
#1087=CARTESIAN_POINT('Origin',(-148.500000000012,135.499999999994,18.0000000000011));
#1088=CARTESIAN_POINT('',(-157.163333523912,143.499590755398,18.0000000000011));
#1089=CARTESIAN_POINT('',(-156.345696237264,134.76552702379,18.0000000000011));
#1090=CARTESIAN_POINT('',(-167.860000000013,143.00000000002,18.0000000000011));
#1091=CARTESIAN_POINT('Origin',(-162.500000000012,142.999999999994,18.0000000000011));
#1092=CARTESIAN_POINT('',(-167.860000000908,-39.9999999933303,18.0000000000011));
#1093=CARTESIAN_POINT('',(-167.860000000012,143.00000000002,18.0000000000011));
#1094=CARTESIAN_POINT('',(-162.50000000106,-45.3599999649133,18.0000000000011));
#1095=CARTESIAN_POINT('Origin',(-162.499999991096,-39.9999999551013,18.0000000000011));
#1096=CARTESIAN_POINT('',(-10.3299999996924,-45.3599999977412,18.0000000000011));
#1097=CARTESIAN_POINT('',(-162.500000002064,-45.359999964913,18.0000000000011));
#1098=CARTESIAN_POINT('',(-10.3299999999901,-46.7399999977412,18.0000000000011));
#1099=CARTESIAN_POINT('',(-10.3299999999901,-46.7399999977412,18.0000000000011));
#1100=CARTESIAN_POINT('',(-162.500000002362,-46.7399999649133,18.0000000000011));
#1101=CARTESIAN_POINT('',(-162.500000002362,-46.739999964913,18.0000000000011));
#1102=CARTESIAN_POINT('',(-169.240000000908,-39.9999999976865,18.0000000000011));
#1103=CARTESIAN_POINT('Origin',(-162.499999991096,-39.9999999551013,18.0000000000011));
#1104=CARTESIAN_POINT('',(-169.240000000013,143.000000000027,18.0000000000011));
#1105=CARTESIAN_POINT('',(-169.240000000012,143.000000000027,18.0000000000011));
#1106=CARTESIAN_POINT('',(-155.789341035663,143.628216733466,18.0000000000011));
#1107=CARTESIAN_POINT('Origin',(-162.500000000012,142.999999999994,18.0000000000011));
#1108=CARTESIAN_POINT('',(-154.971703749014,134.894153001856,18.0000000000011));
#1109=CARTESIAN_POINT('',(-154.971703749014,134.894153001856,18.0000000000011));
#1110=CARTESIAN_POINT('Origin',(-148.500000000012,135.499999999994,18.0000000000011));
#1111=CARTESIAN_POINT('',(169.240000004348,-232.999999999975,18.0000000000011));
#1112=CARTESIAN_POINT('',(169.240000000012,-232.999999999975,18.0000000000011));
#1113=CARTESIAN_POINT('',(157.205462204013,-228.829212354475,18.0000000000011));
#1114=CARTESIAN_POINT('Origin',(162.500000000067,-232.999999999974,18.0000000000011));
#1115=CARTESIAN_POINT('',(163.355815372929,-221.022517792126,18.0000000000011));
#1116=CARTESIAN_POINT('',(163.355815372929,-221.022517792126,18.0000000000011));
#1117=CARTESIAN_POINT('',(164.750000001039,-216.999999999973,18.0000000000011));
#1118=CARTESIAN_POINT('Origin',(158.250000001039,-216.999999999974,18.0000000000011));
#1119=CARTESIAN_POINT('',(164.750000001012,-59.239999999994,18.0000000000011));
#1120=CARTESIAN_POINT('',(10.3300814402658,-45.3600000004388,18.0000000000011));
#1121=CARTESIAN_POINT('',(10.33008144027,-46.7400000004388,18.0000000000011));
#1122=CARTESIAN_POINT('',(10.3300814402658,-45.3600000004388,18.0000000000011));
#1123=CARTESIAN_POINT('Origin',(158.250000001005,-45.3599999999952,24.0000000000011));
#1124=CARTESIAN_POINT('',(10.3300814402658,-45.3600000004388,24.0000000000011));
#1125=CARTESIAN_POINT('Origin',(169.240000000013,116.260000000004,24.0000000000011));
#1126=CARTESIAN_POINT('',(169.240000004348,-232.999999999975,24.0000000000011));
#1127=CARTESIAN_POINT('Origin',(164.750000001039,-216.999999999973,24.0000000000011));
#1128=CARTESIAN_POINT('',(164.750000001039,-216.999999999973,24.0000000000011));
#1129=CARTESIAN_POINT('Origin',(158.250000001039,-216.999999999974,24.0000000000011));
#1130=CARTESIAN_POINT('',(163.355815372929,-221.022517792126,24.0000000000011));
#1131=CARTESIAN_POINT('Origin',(157.205462204013,-228.829212354475,24.0000000000011));
#1132=CARTESIAN_POINT('',(157.205462204013,-228.829212354475,24.0000000000011));
#1133=CARTESIAN_POINT('Origin',(162.500000000067,-232.999999999974,24.0000000000011));
#1134=CARTESIAN_POINT('Origin',(-148.500000000012,135.499999999994,24.0000000000011));
#1135=CARTESIAN_POINT('',(-154.971703749014,134.894153001856,24.0000000000011));
#1136=CARTESIAN_POINT('Origin',(-155.789341035663,143.628216733466,24.0000000000011));
#1137=CARTESIAN_POINT('',(-155.789341035663,143.628216733466,24.0000000000011));
#1138=CARTESIAN_POINT('Origin',(-162.500000000012,142.999999999994,24.0000000000011));
#1139=CARTESIAN_POINT('',(-169.240000000013,143.000000000027,24.0000000000011));
#1140=CARTESIAN_POINT('Origin',(-169.240000000908,-39.9999999976865,24.0000000000011));
#1141=CARTESIAN_POINT('',(-169.240000000908,-39.9999999976865,24.0000000000011));
#1142=CARTESIAN_POINT('Origin',(-162.499999991096,-39.9999999551013,24.0000000000011));
#1143=CARTESIAN_POINT('',(-162.500000002362,-46.7399999649133,24.0000000000011));
#1144=CARTESIAN_POINT('Origin',(-10.3299999999901,-46.7399999977412,24.0000000000011));
#1145=CARTESIAN_POINT('',(-10.3299999999901,-46.7399999977412,24.0000000000011));
#1146=CARTESIAN_POINT('Origin',(158.250000001039,-216.999999999974,24.0000000000011));
#1147=CARTESIAN_POINT('',(164.439819252182,-221.876529261466,24.0000000000011));
#1148=CARTESIAN_POINT('Origin',(158.289466083266,-229.683223823815,24.0000000000011));
#1149=CARTESIAN_POINT('',(158.289466083266,-229.683223823815,24.0000000000011));
#1150=CARTESIAN_POINT('Origin',(162.500000000067,-232.999999999974,24.0000000000011));
#1151=CARTESIAN_POINT('Origin',(-148.500000000012,135.499999999994,24.0000000000011));
#1152=CARTESIAN_POINT('',(-156.345696237264,134.76552702379,24.0000000000011));
#1153=CARTESIAN_POINT('Origin',(-157.163333523913,143.4995907554,24.0000000000011));
#1154=CARTESIAN_POINT('',(-157.163333523913,143.4995907554,24.0000000000011));
#1155=CARTESIAN_POINT('Origin',(-162.500000000012,142.999999999994,24.0000000000011));
#1156=CARTESIAN_POINT('',(-167.860000000013,143.00000000002,24.0000000000011));
#1157=CARTESIAN_POINT('Origin',(-167.860000000908,-39.9999999976933,24.0000000000011));
#1158=CARTESIAN_POINT('',(-167.860000000908,-39.9999999976933,24.0000000000011));
#1159=CARTESIAN_POINT('Origin',(-162.499999991096,-39.9999999551013,24.0000000000011));
#1160=CARTESIAN_POINT('',(-162.500000002064,-45.3599999649133,24.0000000000011));
#1161=CARTESIAN_POINT('Origin',(-10.3299999996924,-45.3599999977412,24.0000000000011));
#1162=CARTESIAN_POINT('',(-10.3299999996924,-45.3599999977412,24.0000000000011));
#1163=CARTESIAN_POINT('Origin',(-10.3299999999901,-46.7399999977412,21.0000000000011));
#1164=CARTESIAN_POINT('Origin',(10.33008144027,-46.7400000004388,21.0000000000011));
#1165=CARTESIAN_POINT('',(3.19744231092045E-13,44.9999999999988,-16.));
#1166=CARTESIAN_POINT('',(5.86197757002083E-13,45.0000000000039,16.000000000001));
#1167=UNCERTAINTY_MEASURE_WITH_UNIT(LENGTH_MEASURE(0.01),#1173,
'DISTANCE_ACCURACY_VALUE',
'Maximum model space distance between geometric entities at asserted c
onnectivities');
#1168=UNCERTAINTY_MEASURE_WITH_UNIT(LENGTH_MEASURE(0.01),#1173,
'DISTANCE_ACCURACY_VALUE',
'Maximum model space distance between geometric entities at asserted c
onnectivities');
#1169=UNCERTAINTY_MEASURE_WITH_UNIT(LENGTH_MEASURE(0.01),#1173,
'DISTANCE_ACCURACY_VALUE',
'Maximum model space distance between geometric entities at asserted c
onnectivities');
#1170=(
GEOMETRIC_REPRESENTATION_CONTEXT(3)
GLOBAL_UNCERTAINTY_ASSIGNED_CONTEXT((#1167))
GLOBAL_UNIT_ASSIGNED_CONTEXT((#1173,#1175,#1176))
REPRESENTATION_CONTEXT('','3D')
);
#1171=(
GEOMETRIC_REPRESENTATION_CONTEXT(3)
GLOBAL_UNCERTAINTY_ASSIGNED_CONTEXT((#1168))
GLOBAL_UNIT_ASSIGNED_CONTEXT((#1173,#1175,#1176))
REPRESENTATION_CONTEXT('','3D')
);
#1172=(
GEOMETRIC_REPRESENTATION_CONTEXT(3)
GLOBAL_UNCERTAINTY_ASSIGNED_CONTEXT((#1169))
GLOBAL_UNIT_ASSIGNED_CONTEXT((#1173,#1175,#1176))
REPRESENTATION_CONTEXT('','3D')
);
#1173=(
LENGTH_UNIT()
NAMED_UNIT(*)
SI_UNIT(.MILLI.,.METRE.)
);
#1174=(
LENGTH_UNIT()
NAMED_UNIT(*)
SI_UNIT($,.METRE.)
);
#1175=(
NAMED_UNIT(*)
PLANE_ANGLE_UNIT()
SI_UNIT($,.RADIAN.)
);
#1176=(
NAMED_UNIT(*)
SI_UNIT($,.STERADIAN.)
SOLID_ANGLE_UNIT()
);
#1177=SHAPE_DEFINITION_REPRESENTATION(#1179,#1183);
#1178=SHAPE_DEFINITION_REPRESENTATION(#1180,#1184);
#1179=PRODUCT_DEFINITION_SHAPE('',$,#1186);
#1180=PRODUCT_DEFINITION_SHAPE('',$,#1187);
#1181=PRODUCT_DEFINITION_SHAPE($,$,#17);
#1182=PRODUCT_DEFINITION_SHAPE($,$,#18);
#1183=SHAPE_REPRESENTATION('',(#703,#767,#768),#1170);
#1184=SHAPE_REPRESENTATION('',(#704),#1171);
#1185=PRODUCT_DEFINITION_CONTEXT('part definition',#1193,'design');
#1186=PRODUCT_DEFINITION('_4_6mm_AWD_belts_FT_FT',
'_4_6mm_AWD_belts_FT_FT',#1188,#1185);
#1187=PRODUCT_DEFINITION('_6mm_AWD_belt_FT_FT','_6mm_AWD_belt_FT_FT',#1189,
#1185);
#1188=PRODUCT_DEFINITION_FORMATION('',$,#1195);
#1189=PRODUCT_DEFINITION_FORMATION('',$,#1196);
#1190=PRODUCT_RELATED_PRODUCT_CATEGORY('_4_6mm_AWD_belts_FT_FT',
'_4_6mm_AWD_belts_FT_FT',(#1195));
#1191=PRODUCT_RELATED_PRODUCT_CATEGORY('_6mm_AWD_belt_FT_FT',
'_6mm_AWD_belt_FT_FT',(#1196));
#1192=APPLICATION_PROTOCOL_DEFINITION('international standard',
'automotive_design',2009,#1193);
#1193=APPLICATION_CONTEXT(
'Core Data for Automotive Mechanical Design Process');
#1194=PRODUCT_CONTEXT('part definition',#1193,'mechanical');
#1195=PRODUCT('_4_6mm_AWD_belts_FT_FT','_4_6mm_AWD_belts_FT_FT',$,(#1194));
#1196=PRODUCT('_6mm_AWD_belt_FT_FT','_6mm_AWD_belt_FT_FT',$,(#1194));
#1197=PRESENTATION_STYLE_ASSIGNMENT((#1200));
#1198=PRESENTATION_STYLE_ASSIGNMENT((#1201));
#1199=PRESENTATION_STYLE_ASSIGNMENT((#1202));
#1200=SURFACE_STYLE_USAGE(.BOTH.,#1203);
#1201=SURFACE_STYLE_USAGE(.BOTH.,#1204);
#1202=SURFACE_STYLE_USAGE(.BOTH.,#1205);
#1203=SURFACE_SIDE_STYLE('',(#1206));
#1204=SURFACE_SIDE_STYLE('',(#1207));
#1205=SURFACE_SIDE_STYLE('',(#1208));
#1206=SURFACE_STYLE_FILL_AREA(#1209);
#1207=SURFACE_STYLE_FILL_AREA(#1210);
#1208=SURFACE_STYLE_FILL_AREA(#1211);
#1209=FILL_AREA_STYLE('Steel - Satin',(#1212));
#1210=FILL_AREA_STYLE('Rubber - Soft',(#1213));
#1211=FILL_AREA_STYLE('Gates Belt Face',(#1214));
#1212=FILL_AREA_STYLE_COLOUR('Steel - Satin',#1215);
#1213=FILL_AREA_STYLE_COLOUR('Rubber - Soft',#1216);
#1214=FILL_AREA_STYLE_COLOUR('Gates Belt Face',#1217);
#1215=COLOUR_RGB('Steel - Satin',0.627450980392157,0.627450980392157,0.627450980392157);
#1216=COLOUR_RGB('Rubber - Soft',0.152941176470588,0.152941176470588,0.152941176470588);
#1217=COLOUR_RGB('Gates Belt Face',0.482352941176471,0.309803921568627,
0.27843137254902);
ENDSEC;
END-ISO-10303-21;
