ISO-10303-21;
HEADER;
/* Generated by software containing ST-Developer
 * from STEP Tools, Inc. (www.steptools.com) 
 */

FILE_DESCRIPTION(
/* description */ (''),
/* implementation_level */ '2;1');

FILE_NAME(
/* name */ '_6_V2_6mm_AWD_belts_FT_NP.step',
/* time_stamp */ '2026-02-16T13:24:19+01:00',
/* author */ (''),
/* organization */ (''),
/* preprocessor_version */ 'ST-DEVELOPER v20.1',
/* originating_system */ 'Autodesk Translation Framework v14.24.0.0',
/* authorisation */ '');

FILE_SCHEMA (('AUTOMOTIVE_DESIGN { 1 0 10303 214 3 1 1 }'));
ENDSEC;

DATA;
#10=MECHANICAL_DESIGN_GEOMETRIC_PRESENTATION_REPRESENTATION('',(#22,#23,
#24,#25,#26,#27,#28,#29,#30,#31,#32,#33,#34,#35,#36,#37),#1172);
#11=ITEM_DEFINED_TRANSFORMATION($,$,#704,#767);
#12=ITEM_DEFINED_TRANSFORMATION($,$,#704,#768);
#13=(
REPRESENTATION_RELATIONSHIP($,$,#1184,#1183)
REPRESENTATION_RELATIONSHIP_WITH_TRANSFORMATION(#11)
SHAPE_REPRESENTATION_RELATIONSHIP()
);
#14=(
REPRESENTATION_RELATIONSHIP($,$,#1184,#1183)
REPRESENTATION_RELATIONSHIP_WITH_TRANSFORMATION(#12)
SHAPE_REPRESENTATION_RELATIONSHIP()
);
#15=CONTEXT_DEPENDENT_SHAPE_REPRESENTATION(#13,#1181);
#16=CONTEXT_DEPENDENT_SHAPE_REPRESENTATION(#14,#1182);
#17=NEXT_ASSEMBLY_USAGE_OCCURRENCE('_V2_6mm_AWD_belt_FT_NP:1',
'_V2_6mm_AWD_belt_FT_NP:1','_V2_6mm_AWD_belt_FT_NP:1',#1186,#1187,
'_V2_6mm_AWD_belt_FT_NP:1');
#18=NEXT_ASSEMBLY_USAGE_OCCURRENCE('_V2_6mm_AWD_belt_FT_NP:2',
'_V2_6mm_AWD_belt_FT_NP:2','_V2_6mm_AWD_belt_FT_NP:2',#1186,#1187,
'_V2_6mm_AWD_belt_FT_NP:2');
#19=SHAPE_REPRESENTATION_RELATIONSHIP('SRR','None',#1184,#20);
#20=ADVANCED_BREP_SHAPE_REPRESENTATION('',(#21),#1171);
#21=MANIFOLD_SOLID_BREP('Body1',#690);
#22=STYLED_ITEM('',(#1199),#658);
#23=STYLED_ITEM('',(#1199),#659);
#24=STYLED_ITEM('',(#1199),#663);
#25=STYLED_ITEM('',(#1199),#664);
#26=STYLED_ITEM('',(#1199),#665);
#27=STYLED_ITEM('',(#1199),#666);
#28=STYLED_ITEM('',(#1199),#668);
#29=STYLED_ITEM('',(#1199),#669);
#30=STYLED_ITEM('',(#1199),#670);
#31=STYLED_ITEM('',(#1199),#675);
#32=STYLED_ITEM('',(#1199),#678);
#33=STYLED_ITEM('',(#1199),#679);
#34=STYLED_ITEM('',(#1199),#686);
#35=STYLED_ITEM('',(#1199),#687);
#36=STYLED_ITEM('',(#1199),#688);
#37=STYLED_ITEM('',(#1198),#21);
#38=PLANE('',#708);
#39=PLANE('',#712);
#40=PLANE('',#716);
#41=PLANE('',#723);
#42=PLANE('',#727);
#43=PLANE('',#728);
#44=PLANE('',#732);
#45=PLANE('',#739);
#46=PLANE('',#743);
#47=PLANE('',#744);
#48=PLANE('',#745);
#49=PLANE('',#749);
#50=PLANE('',#753);
#51=PLANE('',#754);
#52=PLANE('',#755);
#53=PLANE('',#758);
#54=PLANE('',#762);
#55=PLANE('',#763);
#56=PLANE('',#765);
#57=PLANE('',#766);
#58=FACE_OUTER_BOUND('',#92,.T.);
#59=FACE_OUTER_BOUND('',#93,.T.);
#60=FACE_OUTER_BOUND('',#94,.T.);
#61=FACE_OUTER_BOUND('',#95,.T.);
#62=FACE_OUTER_BOUND('',#96,.T.);
#63=FACE_OUTER_BOUND('',#97,.T.);
#64=FACE_OUTER_BOUND('',#98,.T.);
#65=FACE_OUTER_BOUND('',#99,.T.);
#66=FACE_OUTER_BOUND('',#100,.T.);
#67=FACE_OUTER_BOUND('',#101,.T.);
#68=FACE_OUTER_BOUND('',#102,.T.);
#69=FACE_OUTER_BOUND('',#103,.T.);
#70=FACE_OUTER_BOUND('',#104,.T.);
#71=FACE_OUTER_BOUND('',#105,.T.);
#72=FACE_OUTER_BOUND('',#106,.T.);
#73=FACE_OUTER_BOUND('',#107,.T.);
#74=FACE_OUTER_BOUND('',#108,.T.);
#75=FACE_OUTER_BOUND('',#109,.T.);
#76=FACE_OUTER_BOUND('',#110,.T.);
#77=FACE_OUTER_BOUND('',#111,.T.);
#78=FACE_OUTER_BOUND('',#112,.T.);
#79=FACE_OUTER_BOUND('',#113,.T.);
#80=FACE_OUTER_BOUND('',#114,.T.);
#81=FACE_OUTER_BOUND('',#115,.T.);
#82=FACE_OUTER_BOUND('',#116,.T.);
#83=FACE_OUTER_BOUND('',#117,.T.);
#84=FACE_OUTER_BOUND('',#118,.T.);
#85=FACE_OUTER_BOUND('',#119,.T.);
#86=FACE_OUTER_BOUND('',#120,.T.);
#87=FACE_OUTER_BOUND('',#121,.T.);
#88=FACE_OUTER_BOUND('',#122,.T.);
#89=FACE_OUTER_BOUND('',#123,.T.);
#90=FACE_OUTER_BOUND('',#124,.T.);
#91=FACE_OUTER_BOUND('',#125,.T.);
#92=EDGE_LOOP('',(#450,#451,#452,#453));
#93=EDGE_LOOP('',(#454,#455,#456,#457));
#94=EDGE_LOOP('',(#458,#459,#460,#461));
#95=EDGE_LOOP('',(#462,#463,#464,#465));
#96=EDGE_LOOP('',(#466,#467,#468,#469));
#97=EDGE_LOOP('',(#470,#471,#472,#473));
#98=EDGE_LOOP('',(#474,#475,#476,#477));
#99=EDGE_LOOP('',(#478,#479,#480,#481));
#100=EDGE_LOOP('',(#482,#483,#484,#485));
#101=EDGE_LOOP('',(#486,#487,#488,#489));
#102=EDGE_LOOP('',(#490,#491,#492,#493));
#103=EDGE_LOOP('',(#494,#495,#496,#497));
#104=EDGE_LOOP('',(#498,#499,#500,#501));
#105=EDGE_LOOP('',(#502,#503,#504,#505));
#106=EDGE_LOOP('',(#506,#507,#508,#509));
#107=EDGE_LOOP('',(#510,#511,#512,#513));
#108=EDGE_LOOP('',(#514,#515,#516,#517));
#109=EDGE_LOOP('',(#518,#519,#520,#521));
#110=EDGE_LOOP('',(#522,#523,#524,#525));
#111=EDGE_LOOP('',(#526,#527,#528,#529));
#112=EDGE_LOOP('',(#530,#531,#532,#533));
#113=EDGE_LOOP('',(#534,#535,#536,#537));
#114=EDGE_LOOP('',(#538,#539,#540,#541));
#115=EDGE_LOOP('',(#542,#543,#544,#545));
#116=EDGE_LOOP('',(#546,#547,#548,#549));
#117=EDGE_LOOP('',(#550,#551,#552,#553));
#118=EDGE_LOOP('',(#554,#555,#556,#557,#558,#559,#560,#561,#562,#563,#564,
#565,#566,#567,#568,#569,#570,#571,#572,#573,#574,#575,#576,#577,#578,#579,
#580,#581,#582,#583,#584,#585));
#119=EDGE_LOOP('',(#586,#587,#588,#589,#590,#591,#592,#593,#594,#595,#596,
#597,#598,#599,#600,#601,#602,#603,#604,#605,#606,#607,#608,#609,#610,#611,
#612,#613,#614,#615,#616,#617));
#120=EDGE_LOOP('',(#618,#619,#620,#621));
#121=EDGE_LOOP('',(#622,#623,#624,#625));
#122=EDGE_LOOP('',(#626,#627,#628,#629));
#123=EDGE_LOOP('',(#630,#631,#632,#633));
#124=EDGE_LOOP('',(#634,#635,#636,#637));
#125=EDGE_LOOP('',(#638,#639,#640,#641));
#126=LINE('',#976,#194);
#127=LINE('',#979,#195);
#128=LINE('',#982,#196);
#129=LINE('',#984,#197);
#130=LINE('',#985,#198);
#131=LINE('',#991,#199);
#132=LINE('',#994,#200);
#133=LINE('',#997,#201);
#134=LINE('',#999,#202);
#135=LINE('',#1000,#203);
#136=LINE('',#1006,#204);
#137=LINE('',#1009,#205);
#138=LINE('',#1011,#206);
#139=LINE('',#1012,#207);
#140=LINE('',#1018,#208);
#141=LINE('',#1023,#209);
#142=LINE('',#1027,#210);
#143=LINE('',#1029,#211);
#144=LINE('',#1030,#212);
#145=LINE('',#1035,#213);
#146=LINE('',#1039,#214);
#147=LINE('',#1041,#215);
#148=LINE('',#1042,#216);
#149=LINE('',#1046,#217);
#150=LINE('',#1048,#218);
#151=LINE('',#1050,#219);
#152=LINE('',#1051,#220);
#153=LINE('',#1057,#221);
#154=LINE('',#1060,#222);
#155=LINE('',#1062,#223);
#156=LINE('',#1063,#224);
#157=LINE('',#1069,#225);
#158=LINE('',#1075,#226);
#159=LINE('',#1078,#227);
#160=LINE('',#1081,#228);
#161=LINE('',#1083,#229);
#162=LINE('',#1084,#230);
#163=LINE('',#1089,#231);
#164=LINE('',#1094,#232);
#165=LINE('',#1095,#233);
#166=LINE('',#1096,#234);
#167=LINE('',#1100,#235);
#168=LINE('',#1101,#236);
#169=LINE('',#1102,#237);
#170=LINE('',#1106,#238);
#171=LINE('',#1107,#239);
#172=LINE('',#1108,#240);
#173=LINE('',#1115,#241);
#174=LINE('',#1116,#242);
#175=LINE('',#1117,#243);
#176=LINE('',#1122,#244);
#177=LINE('',#1123,#245);
#178=LINE('',#1126,#246);
#179=LINE('',#1128,#247);
#180=LINE('',#1129,#248);
#181=LINE('',#1132,#249);
#182=LINE('',#1136,#250);
#183=LINE('',#1138,#251);
#184=LINE('',#1140,#252);
#185=LINE('',#1146,#253);
#186=LINE('',#1148,#254);
#187=LINE('',#1150,#255);
#188=LINE('',#1153,#256);
#189=LINE('',#1155,#257);
#190=LINE('',#1157,#258);
#191=LINE('',#1159,#259);
#192=LINE('',#1161,#260);
#193=LINE('',#1163,#261);
#194=VECTOR('',#777,10.);
#195=VECTOR('',#780,10.);
#196=VECTOR('',#783,10.);
#197=VECTOR('',#784,10.);
#198=VECTOR('',#785,10.);
#199=VECTOR('',#790,10.);
#200=VECTOR('',#793,10.);
#201=VECTOR('',#796,10.);
#202=VECTOR('',#797,10.);
#203=VECTOR('',#798,10.);
#204=VECTOR('',#805,10.);
#205=VECTOR('',#808,10.);
#206=VECTOR('',#809,10.);
#207=VECTOR('',#810,10.);
#208=VECTOR('',#817,10.);
#209=VECTOR('',#822,10.);
#210=VECTOR('',#827,10.);
#211=VECTOR('',#828,10.);
#212=VECTOR('',#829,10.);
#213=VECTOR('',#834,10.);
#214=VECTOR('',#839,10.);
#215=VECTOR('',#840,10.);
#216=VECTOR('',#841,10.);
#217=VECTOR('',#844,10.);
#218=VECTOR('',#845,10.);
#219=VECTOR('',#846,10.);
#220=VECTOR('',#847,10.);
#221=VECTOR('',#854,10.);
#222=VECTOR('',#857,10.);
#223=VECTOR('',#858,10.);
#224=VECTOR('',#859,10.);
#225=VECTOR('',#866,10.);
#226=VECTOR('',#871,10.);
#227=VECTOR('',#874,10.);
#228=VECTOR('',#877,10.);
#229=VECTOR('',#878,10.);
#230=VECTOR('',#879,10.);
#231=VECTOR('',#884,10.);
#232=VECTOR('',#889,10.);
#233=VECTOR('',#890,10.);
#234=VECTOR('',#891,10.);
#235=VECTOR('',#894,10.);
#236=VECTOR('',#895,10.);
#237=VECTOR('',#896,10.);
#238=VECTOR('',#899,10.);
#239=VECTOR('',#900,10.);
#240=VECTOR('',#901,10.);
#241=VECTOR('',#910,10.);
#242=VECTOR('',#911,10.);
#243=VECTOR('',#912,10.);
#244=VECTOR('',#921,10.);
#245=VECTOR('',#922,10.);
#246=VECTOR('',#925,10.);
#247=VECTOR('',#926,10.);
#248=VECTOR('',#927,10.);
#249=VECTOR('',#930,10.);
#250=VECTOR('',#933,10.);
#251=VECTOR('',#934,10.);
#252=VECTOR('',#935,10.);
#253=VECTOR('',#942,10.);
#254=VECTOR('',#943,10.);
#255=VECTOR('',#944,10.);
#256=VECTOR('',#947,10.);
#257=VECTOR('',#950,10.);
#258=VECTOR('',#953,10.);
#259=VECTOR('',#956,10.);
#260=VECTOR('',#959,10.);
#261=VECTOR('',#962,10.);
#262=CIRCLE('',#706,6.73999999999996);
#263=CIRCLE('',#707,6.73999999999996);
#264=CIRCLE('',#710,5.35999999999996);
#265=CIRCLE('',#711,5.35999999999996);
#266=CIRCLE('',#714,6.49999999999996);
#267=CIRCLE('',#715,6.49999999999996);
#268=CIRCLE('',#718,6.74000000000086);
#269=CIRCLE('',#719,6.74000000000086);
#270=CIRCLE('',#721,7.87999999999996);
#271=CIRCLE('',#722,7.87999999999996);
#272=CIRCLE('',#725,5.36000000000086);
#273=CIRCLE('',#726,5.36000000000086);
#274=CIRCLE('',#730,5.36000000428036);
#275=CIRCLE('',#731,5.36000000428036);
#276=CIRCLE('',#734,7.87999999999999);
#277=CIRCLE('',#735,7.87999999999999);
#278=CIRCLE('',#737,6.74000000428036);
#279=CIRCLE('',#738,6.74000000428036);
#280=CIRCLE('',#741,6.49999999999999);
#281=CIRCLE('',#742,6.49999999999999);
#282=CIRCLE('',#747,6.49999999999993);
#283=CIRCLE('',#748,6.49999999999993);
#284=CIRCLE('',#751,7.87999999999993);
#285=CIRCLE('',#752,7.87999999999993);
#286=CIRCLE('',#756,5.36000000981195);
#287=CIRCLE('',#757,6.74000000981195);
#288=CIRCLE('',#759,6.74000000981195);
#289=CIRCLE('',#760,5.36000000981195);
#290=VERTEX_POINT('',#972);
#291=VERTEX_POINT('',#973);
#292=VERTEX_POINT('',#975);
#293=VERTEX_POINT('',#977);
#294=VERTEX_POINT('',#981);
#295=VERTEX_POINT('',#983);
#296=VERTEX_POINT('',#987);
#297=VERTEX_POINT('',#988);
#298=VERTEX_POINT('',#990);
#299=VERTEX_POINT('',#992);
#300=VERTEX_POINT('',#996);
#301=VERTEX_POINT('',#998);
#302=VERTEX_POINT('',#1002);
#303=VERTEX_POINT('',#1004);
#304=VERTEX_POINT('',#1008);
#305=VERTEX_POINT('',#1010);
#306=VERTEX_POINT('',#1014);
#307=VERTEX_POINT('',#1016);
#308=VERTEX_POINT('',#1020);
#309=VERTEX_POINT('',#1022);
#310=VERTEX_POINT('',#1026);
#311=VERTEX_POINT('',#1028);
#312=VERTEX_POINT('',#1032);
#313=VERTEX_POINT('',#1034);
#314=VERTEX_POINT('',#1038);
#315=VERTEX_POINT('',#1040);
#316=VERTEX_POINT('',#1044);
#317=VERTEX_POINT('',#1045);
#318=VERTEX_POINT('',#1047);
#319=VERTEX_POINT('',#1049);
#320=VERTEX_POINT('',#1053);
#321=VERTEX_POINT('',#1055);
#322=VERTEX_POINT('',#1059);
#323=VERTEX_POINT('',#1061);
#324=VERTEX_POINT('',#1065);
#325=VERTEX_POINT('',#1067);
#326=VERTEX_POINT('',#1071);
#327=VERTEX_POINT('',#1072);
#328=VERTEX_POINT('',#1074);
#329=VERTEX_POINT('',#1076);
#330=VERTEX_POINT('',#1080);
#331=VERTEX_POINT('',#1082);
#332=VERTEX_POINT('',#1086);
#333=VERTEX_POINT('',#1088);
#334=VERTEX_POINT('',#1092);
#335=VERTEX_POINT('',#1093);
#336=VERTEX_POINT('',#1098);
#337=VERTEX_POINT('',#1099);
#338=VERTEX_POINT('',#1104);
#339=VERTEX_POINT('',#1105);
#340=VERTEX_POINT('',#1113);
#341=VERTEX_POINT('',#1114);
#342=VERTEX_POINT('',#1125);
#343=VERTEX_POINT('',#1127);
#344=VERTEX_POINT('',#1131);
#345=VERTEX_POINT('',#1133);
#346=VERTEX_POINT('',#1135);
#347=VERTEX_POINT('',#1137);
#348=VERTEX_POINT('',#1139);
#349=VERTEX_POINT('',#1143);
#350=VERTEX_POINT('',#1145);
#351=VERTEX_POINT('',#1147);
#352=VERTEX_POINT('',#1149);
#353=VERTEX_POINT('',#1151);
#354=EDGE_CURVE('',#290,#291,#262,.T.);
#355=EDGE_CURVE('',#291,#292,#126,.T.);
#356=EDGE_CURVE('',#292,#293,#263,.T.);
#357=EDGE_CURVE('',#293,#290,#127,.T.);
#358=EDGE_CURVE('',#294,#293,#128,.T.);
#359=EDGE_CURVE('',#295,#294,#129,.T.);
#360=EDGE_CURVE('',#290,#295,#130,.T.);
#361=EDGE_CURVE('',#296,#297,#264,.T.);
#362=EDGE_CURVE('',#297,#298,#131,.T.);
#363=EDGE_CURVE('',#298,#299,#265,.T.);
#364=EDGE_CURVE('',#299,#296,#132,.T.);
#365=EDGE_CURVE('',#297,#300,#133,.T.);
#366=EDGE_CURVE('',#300,#301,#134,.T.);
#367=EDGE_CURVE('',#301,#298,#135,.T.);
#368=EDGE_CURVE('',#302,#295,#266,.T.);
#369=EDGE_CURVE('',#303,#294,#267,.T.);
#370=EDGE_CURVE('',#302,#303,#136,.T.);
#371=EDGE_CURVE('',#302,#304,#137,.T.);
#372=EDGE_CURVE('',#305,#303,#138,.T.);
#373=EDGE_CURVE('',#304,#305,#139,.T.);
#374=EDGE_CURVE('',#304,#306,#268,.T.);
#375=EDGE_CURVE('',#307,#305,#269,.T.);
#376=EDGE_CURVE('',#306,#307,#140,.T.);
#377=EDGE_CURVE('',#308,#300,#270,.T.);
#378=EDGE_CURVE('',#308,#309,#141,.T.);
#379=EDGE_CURVE('',#309,#301,#271,.T.);
#380=EDGE_CURVE('',#308,#310,#142,.T.);
#381=EDGE_CURVE('',#310,#311,#143,.T.);
#382=EDGE_CURVE('',#311,#309,#144,.T.);
#383=EDGE_CURVE('',#310,#312,#272,.T.);
#384=EDGE_CURVE('',#312,#313,#145,.T.);
#385=EDGE_CURVE('',#313,#311,#273,.T.);
#386=EDGE_CURVE('',#299,#314,#146,.T.);
#387=EDGE_CURVE('',#315,#314,#147,.T.);
#388=EDGE_CURVE('',#315,#296,#148,.T.);
#389=EDGE_CURVE('',#316,#317,#149,.T.);
#390=EDGE_CURVE('',#317,#318,#150,.T.);
#391=EDGE_CURVE('',#319,#318,#151,.T.);
#392=EDGE_CURVE('',#316,#319,#152,.T.);
#393=EDGE_CURVE('',#320,#315,#274,.T.);
#394=EDGE_CURVE('',#314,#321,#275,.T.);
#395=EDGE_CURVE('',#320,#321,#153,.T.);
#396=EDGE_CURVE('',#322,#320,#154,.T.);
#397=EDGE_CURVE('',#321,#323,#155,.T.);
#398=EDGE_CURVE('',#322,#323,#156,.T.);
#399=EDGE_CURVE('',#322,#324,#276,.T.);
#400=EDGE_CURVE('',#323,#325,#277,.T.);
#401=EDGE_CURVE('',#324,#325,#157,.T.);
#402=EDGE_CURVE('',#326,#327,#278,.T.);
#403=EDGE_CURVE('',#326,#328,#158,.T.);
#404=EDGE_CURVE('',#329,#328,#279,.T.);
#405=EDGE_CURVE('',#327,#329,#159,.T.);
#406=EDGE_CURVE('',#330,#326,#160,.T.);
#407=EDGE_CURVE('',#330,#331,#161,.T.);
#408=EDGE_CURVE('',#328,#331,#162,.T.);
#409=EDGE_CURVE('',#330,#332,#280,.T.);
#410=EDGE_CURVE('',#332,#333,#163,.T.);
#411=EDGE_CURVE('',#331,#333,#281,.T.);
#412=EDGE_CURVE('',#334,#335,#164,.T.);
#413=EDGE_CURVE('',#333,#334,#165,.T.);
#414=EDGE_CURVE('',#335,#332,#166,.T.);
#415=EDGE_CURVE('',#336,#337,#167,.T.);
#416=EDGE_CURVE('',#336,#317,#168,.T.);
#417=EDGE_CURVE('',#316,#337,#169,.T.);
#418=EDGE_CURVE('',#338,#339,#170,.T.);
#419=EDGE_CURVE('',#319,#338,#171,.T.);
#420=EDGE_CURVE('',#339,#318,#172,.T.);
#421=EDGE_CURVE('',#335,#338,#282,.T.);
#422=EDGE_CURVE('',#339,#334,#283,.T.);
#423=EDGE_CURVE('',#340,#341,#173,.T.);
#424=EDGE_CURVE('',#340,#324,#174,.T.);
#425=EDGE_CURVE('',#325,#341,#175,.T.);
#426=EDGE_CURVE('',#337,#340,#284,.T.);
#427=EDGE_CURVE('',#341,#336,#285,.T.);
#428=EDGE_CURVE('',#327,#291,#176,.T.);
#429=EDGE_CURVE('',#292,#329,#177,.T.);
#430=EDGE_CURVE('',#342,#307,#178,.T.);
#431=EDGE_CURVE('',#343,#342,#179,.T.);
#432=EDGE_CURVE('',#306,#343,#180,.T.);
#433=EDGE_CURVE('',#344,#313,#181,.T.);
#434=EDGE_CURVE('',#345,#344,#286,.T.);
#435=EDGE_CURVE('',#346,#345,#182,.T.);
#436=EDGE_CURVE('',#346,#347,#183,.T.);
#437=EDGE_CURVE('',#347,#348,#184,.T.);
#438=EDGE_CURVE('',#348,#342,#287,.T.);
#439=EDGE_CURVE('',#343,#349,#288,.T.);
#440=EDGE_CURVE('',#349,#350,#185,.T.);
#441=EDGE_CURVE('',#351,#350,#186,.T.);
#442=EDGE_CURVE('',#352,#351,#187,.T.);
#443=EDGE_CURVE('',#353,#352,#289,.T.);
#444=EDGE_CURVE('',#312,#353,#188,.T.);
#445=EDGE_CURVE('',#349,#348,#189,.T.);
#446=EDGE_CURVE('',#350,#347,#190,.T.);
#447=EDGE_CURVE('',#353,#344,#191,.T.);
#448=EDGE_CURVE('',#352,#345,#192,.T.);
#449=EDGE_CURVE('',#351,#346,#193,.T.);
#450=ORIENTED_EDGE('',*,*,#354,.T.);
#451=ORIENTED_EDGE('',*,*,#355,.T.);
#452=ORIENTED_EDGE('',*,*,#356,.T.);
#453=ORIENTED_EDGE('',*,*,#357,.T.);
#454=ORIENTED_EDGE('',*,*,#357,.F.);
#455=ORIENTED_EDGE('',*,*,#358,.F.);
#456=ORIENTED_EDGE('',*,*,#359,.F.);
#457=ORIENTED_EDGE('',*,*,#360,.F.);
#458=ORIENTED_EDGE('',*,*,#361,.T.);
#459=ORIENTED_EDGE('',*,*,#362,.T.);
#460=ORIENTED_EDGE('',*,*,#363,.T.);
#461=ORIENTED_EDGE('',*,*,#364,.T.);
#462=ORIENTED_EDGE('',*,*,#362,.F.);
#463=ORIENTED_EDGE('',*,*,#365,.T.);
#464=ORIENTED_EDGE('',*,*,#366,.T.);
#465=ORIENTED_EDGE('',*,*,#367,.T.);
#466=ORIENTED_EDGE('',*,*,#368,.T.);
#467=ORIENTED_EDGE('',*,*,#359,.T.);
#468=ORIENTED_EDGE('',*,*,#369,.F.);
#469=ORIENTED_EDGE('',*,*,#370,.F.);
#470=ORIENTED_EDGE('',*,*,#371,.F.);
#471=ORIENTED_EDGE('',*,*,#370,.T.);
#472=ORIENTED_EDGE('',*,*,#372,.F.);
#473=ORIENTED_EDGE('',*,*,#373,.F.);
#474=ORIENTED_EDGE('',*,*,#374,.F.);
#475=ORIENTED_EDGE('',*,*,#373,.T.);
#476=ORIENTED_EDGE('',*,*,#375,.F.);
#477=ORIENTED_EDGE('',*,*,#376,.F.);
#478=ORIENTED_EDGE('',*,*,#377,.F.);
#479=ORIENTED_EDGE('',*,*,#378,.T.);
#480=ORIENTED_EDGE('',*,*,#379,.T.);
#481=ORIENTED_EDGE('',*,*,#366,.F.);
#482=ORIENTED_EDGE('',*,*,#380,.T.);
#483=ORIENTED_EDGE('',*,*,#381,.T.);
#484=ORIENTED_EDGE('',*,*,#382,.T.);
#485=ORIENTED_EDGE('',*,*,#378,.F.);
#486=ORIENTED_EDGE('',*,*,#383,.T.);
#487=ORIENTED_EDGE('',*,*,#384,.T.);
#488=ORIENTED_EDGE('',*,*,#385,.T.);
#489=ORIENTED_EDGE('',*,*,#381,.F.);
#490=ORIENTED_EDGE('',*,*,#386,.T.);
#491=ORIENTED_EDGE('',*,*,#387,.F.);
#492=ORIENTED_EDGE('',*,*,#388,.T.);
#493=ORIENTED_EDGE('',*,*,#364,.F.);
#494=ORIENTED_EDGE('',*,*,#389,.T.);
#495=ORIENTED_EDGE('',*,*,#390,.T.);
#496=ORIENTED_EDGE('',*,*,#391,.F.);
#497=ORIENTED_EDGE('',*,*,#392,.F.);
#498=ORIENTED_EDGE('',*,*,#393,.T.);
#499=ORIENTED_EDGE('',*,*,#387,.T.);
#500=ORIENTED_EDGE('',*,*,#394,.T.);
#501=ORIENTED_EDGE('',*,*,#395,.F.);
#502=ORIENTED_EDGE('',*,*,#396,.T.);
#503=ORIENTED_EDGE('',*,*,#395,.T.);
#504=ORIENTED_EDGE('',*,*,#397,.T.);
#505=ORIENTED_EDGE('',*,*,#398,.F.);
#506=ORIENTED_EDGE('',*,*,#399,.F.);
#507=ORIENTED_EDGE('',*,*,#398,.T.);
#508=ORIENTED_EDGE('',*,*,#400,.T.);
#509=ORIENTED_EDGE('',*,*,#401,.F.);
#510=ORIENTED_EDGE('',*,*,#402,.F.);
#511=ORIENTED_EDGE('',*,*,#403,.T.);
#512=ORIENTED_EDGE('',*,*,#404,.F.);
#513=ORIENTED_EDGE('',*,*,#405,.F.);
#514=ORIENTED_EDGE('',*,*,#406,.F.);
#515=ORIENTED_EDGE('',*,*,#407,.T.);
#516=ORIENTED_EDGE('',*,*,#408,.F.);
#517=ORIENTED_EDGE('',*,*,#403,.F.);
#518=ORIENTED_EDGE('',*,*,#409,.T.);
#519=ORIENTED_EDGE('',*,*,#410,.T.);
#520=ORIENTED_EDGE('',*,*,#411,.F.);
#521=ORIENTED_EDGE('',*,*,#407,.F.);
#522=ORIENTED_EDGE('',*,*,#412,.F.);
#523=ORIENTED_EDGE('',*,*,#413,.F.);
#524=ORIENTED_EDGE('',*,*,#410,.F.);
#525=ORIENTED_EDGE('',*,*,#414,.F.);
#526=ORIENTED_EDGE('',*,*,#415,.F.);
#527=ORIENTED_EDGE('',*,*,#416,.T.);
#528=ORIENTED_EDGE('',*,*,#389,.F.);
#529=ORIENTED_EDGE('',*,*,#417,.T.);
#530=ORIENTED_EDGE('',*,*,#418,.F.);
#531=ORIENTED_EDGE('',*,*,#419,.F.);
#532=ORIENTED_EDGE('',*,*,#391,.T.);
#533=ORIENTED_EDGE('',*,*,#420,.F.);
#534=ORIENTED_EDGE('',*,*,#421,.T.);
#535=ORIENTED_EDGE('',*,*,#418,.T.);
#536=ORIENTED_EDGE('',*,*,#422,.T.);
#537=ORIENTED_EDGE('',*,*,#412,.T.);
#538=ORIENTED_EDGE('',*,*,#423,.F.);
#539=ORIENTED_EDGE('',*,*,#424,.T.);
#540=ORIENTED_EDGE('',*,*,#401,.T.);
#541=ORIENTED_EDGE('',*,*,#425,.T.);
#542=ORIENTED_EDGE('',*,*,#426,.T.);
#543=ORIENTED_EDGE('',*,*,#423,.T.);
#544=ORIENTED_EDGE('',*,*,#427,.T.);
#545=ORIENTED_EDGE('',*,*,#415,.T.);
#546=ORIENTED_EDGE('',*,*,#428,.F.);
#547=ORIENTED_EDGE('',*,*,#405,.T.);
#548=ORIENTED_EDGE('',*,*,#429,.F.);
#549=ORIENTED_EDGE('',*,*,#355,.F.);
#550=ORIENTED_EDGE('',*,*,#430,.F.);
#551=ORIENTED_EDGE('',*,*,#431,.F.);
#552=ORIENTED_EDGE('',*,*,#432,.F.);
#553=ORIENTED_EDGE('',*,*,#376,.T.);
#554=ORIENTED_EDGE('',*,*,#433,.F.);
#555=ORIENTED_EDGE('',*,*,#434,.F.);
#556=ORIENTED_EDGE('',*,*,#435,.F.);
#557=ORIENTED_EDGE('',*,*,#436,.T.);
#558=ORIENTED_EDGE('',*,*,#437,.T.);
#559=ORIENTED_EDGE('',*,*,#438,.T.);
#560=ORIENTED_EDGE('',*,*,#430,.T.);
#561=ORIENTED_EDGE('',*,*,#375,.T.);
#562=ORIENTED_EDGE('',*,*,#372,.T.);
#563=ORIENTED_EDGE('',*,*,#369,.T.);
#564=ORIENTED_EDGE('',*,*,#358,.T.);
#565=ORIENTED_EDGE('',*,*,#356,.F.);
#566=ORIENTED_EDGE('',*,*,#429,.T.);
#567=ORIENTED_EDGE('',*,*,#404,.T.);
#568=ORIENTED_EDGE('',*,*,#408,.T.);
#569=ORIENTED_EDGE('',*,*,#411,.T.);
#570=ORIENTED_EDGE('',*,*,#413,.T.);
#571=ORIENTED_EDGE('',*,*,#422,.F.);
#572=ORIENTED_EDGE('',*,*,#420,.T.);
#573=ORIENTED_EDGE('',*,*,#390,.F.);
#574=ORIENTED_EDGE('',*,*,#416,.F.);
#575=ORIENTED_EDGE('',*,*,#427,.F.);
#576=ORIENTED_EDGE('',*,*,#425,.F.);
#577=ORIENTED_EDGE('',*,*,#400,.F.);
#578=ORIENTED_EDGE('',*,*,#397,.F.);
#579=ORIENTED_EDGE('',*,*,#394,.F.);
#580=ORIENTED_EDGE('',*,*,#386,.F.);
#581=ORIENTED_EDGE('',*,*,#363,.F.);
#582=ORIENTED_EDGE('',*,*,#367,.F.);
#583=ORIENTED_EDGE('',*,*,#379,.F.);
#584=ORIENTED_EDGE('',*,*,#382,.F.);
#585=ORIENTED_EDGE('',*,*,#385,.F.);
#586=ORIENTED_EDGE('',*,*,#432,.T.);
#587=ORIENTED_EDGE('',*,*,#439,.T.);
#588=ORIENTED_EDGE('',*,*,#440,.T.);
#589=ORIENTED_EDGE('',*,*,#441,.F.);
#590=ORIENTED_EDGE('',*,*,#442,.F.);
#591=ORIENTED_EDGE('',*,*,#443,.F.);
#592=ORIENTED_EDGE('',*,*,#444,.F.);
#593=ORIENTED_EDGE('',*,*,#383,.F.);
#594=ORIENTED_EDGE('',*,*,#380,.F.);
#595=ORIENTED_EDGE('',*,*,#377,.T.);
#596=ORIENTED_EDGE('',*,*,#365,.F.);
#597=ORIENTED_EDGE('',*,*,#361,.F.);
#598=ORIENTED_EDGE('',*,*,#388,.F.);
#599=ORIENTED_EDGE('',*,*,#393,.F.);
#600=ORIENTED_EDGE('',*,*,#396,.F.);
#601=ORIENTED_EDGE('',*,*,#399,.T.);
#602=ORIENTED_EDGE('',*,*,#424,.F.);
#603=ORIENTED_EDGE('',*,*,#426,.F.);
#604=ORIENTED_EDGE('',*,*,#417,.F.);
#605=ORIENTED_EDGE('',*,*,#392,.T.);
#606=ORIENTED_EDGE('',*,*,#419,.T.);
#607=ORIENTED_EDGE('',*,*,#421,.F.);
#608=ORIENTED_EDGE('',*,*,#414,.T.);
#609=ORIENTED_EDGE('',*,*,#409,.F.);
#610=ORIENTED_EDGE('',*,*,#406,.T.);
#611=ORIENTED_EDGE('',*,*,#402,.T.);
#612=ORIENTED_EDGE('',*,*,#428,.T.);
#613=ORIENTED_EDGE('',*,*,#354,.F.);
#614=ORIENTED_EDGE('',*,*,#360,.T.);
#615=ORIENTED_EDGE('',*,*,#368,.F.);
#616=ORIENTED_EDGE('',*,*,#371,.T.);
#617=ORIENTED_EDGE('',*,*,#374,.T.);
#618=ORIENTED_EDGE('',*,*,#439,.F.);
#619=ORIENTED_EDGE('',*,*,#431,.T.);
#620=ORIENTED_EDGE('',*,*,#438,.F.);
#621=ORIENTED_EDGE('',*,*,#445,.F.);
#622=ORIENTED_EDGE('',*,*,#440,.F.);
#623=ORIENTED_EDGE('',*,*,#445,.T.);
#624=ORIENTED_EDGE('',*,*,#437,.F.);
#625=ORIENTED_EDGE('',*,*,#446,.F.);
#626=ORIENTED_EDGE('',*,*,#444,.T.);
#627=ORIENTED_EDGE('',*,*,#447,.T.);
#628=ORIENTED_EDGE('',*,*,#433,.T.);
#629=ORIENTED_EDGE('',*,*,#384,.F.);
#630=ORIENTED_EDGE('',*,*,#443,.T.);
#631=ORIENTED_EDGE('',*,*,#448,.T.);
#632=ORIENTED_EDGE('',*,*,#434,.T.);
#633=ORIENTED_EDGE('',*,*,#447,.F.);
#634=ORIENTED_EDGE('',*,*,#442,.T.);
#635=ORIENTED_EDGE('',*,*,#449,.T.);
#636=ORIENTED_EDGE('',*,*,#435,.T.);
#637=ORIENTED_EDGE('',*,*,#448,.F.);
#638=ORIENTED_EDGE('',*,*,#449,.F.);
#639=ORIENTED_EDGE('',*,*,#441,.T.);
#640=ORIENTED_EDGE('',*,*,#446,.T.);
#641=ORIENTED_EDGE('',*,*,#436,.F.);
#642=CYLINDRICAL_SURFACE('',#705,6.73999999999996);
#643=CYLINDRICAL_SURFACE('',#709,5.35999999999996);
#644=CYLINDRICAL_SURFACE('',#713,6.49999999999996);
#645=CYLINDRICAL_SURFACE('',#717,6.74000000000086);
#646=CYLINDRICAL_SURFACE('',#720,7.87999999999996);
#647=CYLINDRICAL_SURFACE('',#724,5.36000000000086);
#648=CYLINDRICAL_SURFACE('',#729,5.36000000428036);
#649=CYLINDRICAL_SURFACE('',#733,7.87999999999999);
#650=CYLINDRICAL_SURFACE('',#736,6.74000000428036);
#651=CYLINDRICAL_SURFACE('',#740,6.49999999999999);
#652=CYLINDRICAL_SURFACE('',#746,6.49999999999993);
#653=CYLINDRICAL_SURFACE('',#750,7.87999999999993);
#654=CYLINDRICAL_SURFACE('',#761,6.74000000981195);
#655=CYLINDRICAL_SURFACE('',#764,5.36000000981195);
#656=ADVANCED_FACE('',(#58),#642,.T.);
#657=ADVANCED_FACE('',(#59),#38,.T.);
#658=ADVANCED_FACE('',(#60),#643,.F.);
#659=ADVANCED_FACE('',(#61),#39,.F.);
#660=ADVANCED_FACE('',(#62),#644,.F.);
#661=ADVANCED_FACE('',(#63),#40,.T.);
#662=ADVANCED_FACE('',(#64),#645,.T.);
#663=ADVANCED_FACE('',(#65),#646,.T.);
#664=ADVANCED_FACE('',(#66),#41,.F.);
#665=ADVANCED_FACE('',(#67),#647,.F.);
#666=ADVANCED_FACE('',(#68),#42,.F.);
#667=ADVANCED_FACE('',(#69),#43,.F.);
#668=ADVANCED_FACE('',(#70),#648,.F.);
#669=ADVANCED_FACE('',(#71),#44,.F.);
#670=ADVANCED_FACE('',(#72),#649,.T.);
#671=ADVANCED_FACE('',(#73),#650,.T.);
#672=ADVANCED_FACE('',(#74),#45,.T.);
#673=ADVANCED_FACE('',(#75),#651,.F.);
#674=ADVANCED_FACE('',(#76),#46,.T.);
#675=ADVANCED_FACE('',(#77),#47,.F.);
#676=ADVANCED_FACE('',(#78),#48,.T.);
#677=ADVANCED_FACE('',(#79),#652,.F.);
#678=ADVANCED_FACE('',(#80),#49,.F.);
#679=ADVANCED_FACE('',(#81),#653,.T.);
#680=ADVANCED_FACE('',(#82),#50,.T.);
#681=ADVANCED_FACE('',(#83),#51,.T.);
#682=ADVANCED_FACE('',(#84),#52,.F.);
#683=ADVANCED_FACE('',(#85),#53,.F.);
#684=ADVANCED_FACE('',(#86),#654,.T.);
#685=ADVANCED_FACE('',(#87),#54,.T.);
#686=ADVANCED_FACE('',(#88),#55,.F.);
#687=ADVANCED_FACE('',(#89),#655,.F.);
#688=ADVANCED_FACE('',(#90),#56,.F.);
#689=ADVANCED_FACE('',(#91),#57,.F.);
#690=CLOSED_SHELL('',(#656,#657,#658,#659,#660,#661,#662,#663,#664,#665,
#666,#667,#668,#669,#670,#671,#672,#673,#674,#675,#676,#677,#678,#679,#680,
#681,#682,#683,#684,#685,#686,#687,#688,#689));
#691=DERIVED_UNIT_ELEMENT(#693,1.);
#692=DERIVED_UNIT_ELEMENT(#1174,-3.);
#693=(
MASS_UNIT()
NAMED_UNIT(*)
SI_UNIT(.KILO.,.GRAM.)
);
#694=DERIVED_UNIT((#691,#692));
#695=MEASURE_REPRESENTATION_ITEM('density measure',
POSITIVE_RATIO_MEASURE(7850.),#694);
#696=PROPERTY_DEFINITION_REPRESENTATION(#701,#698);
#697=PROPERTY_DEFINITION_REPRESENTATION(#702,#699);
#698=REPRESENTATION('material name',(#700),#1171);
#699=REPRESENTATION('density',(#695),#1171);
#700=DESCRIPTIVE_REPRESENTATION_ITEM('Steel','Steel');
#701=PROPERTY_DEFINITION('material property','material name',#1187);
#702=PROPERTY_DEFINITION('material property','density of part',#1187);
#703=AXIS2_PLACEMENT_3D('',#969,#769,#770);
#704=AXIS2_PLACEMENT_3D('',#970,#771,#772);
#705=AXIS2_PLACEMENT_3D('',#971,#773,#774);
#706=AXIS2_PLACEMENT_3D('',#974,#775,#776);
#707=AXIS2_PLACEMENT_3D('',#978,#778,#779);
#708=AXIS2_PLACEMENT_3D('',#980,#781,#782);
#709=AXIS2_PLACEMENT_3D('',#986,#786,#787);
#710=AXIS2_PLACEMENT_3D('',#989,#788,#789);
#711=AXIS2_PLACEMENT_3D('',#993,#791,#792);
#712=AXIS2_PLACEMENT_3D('',#995,#794,#795);
#713=AXIS2_PLACEMENT_3D('',#1001,#799,#800);
#714=AXIS2_PLACEMENT_3D('',#1003,#801,#802);
#715=AXIS2_PLACEMENT_3D('',#1005,#803,#804);
#716=AXIS2_PLACEMENT_3D('',#1007,#806,#807);
#717=AXIS2_PLACEMENT_3D('',#1013,#811,#812);
#718=AXIS2_PLACEMENT_3D('',#1015,#813,#814);
#719=AXIS2_PLACEMENT_3D('',#1017,#815,#816);
#720=AXIS2_PLACEMENT_3D('',#1019,#818,#819);
#721=AXIS2_PLACEMENT_3D('',#1021,#820,#821);
#722=AXIS2_PLACEMENT_3D('',#1024,#823,#824);
#723=AXIS2_PLACEMENT_3D('',#1025,#825,#826);
#724=AXIS2_PLACEMENT_3D('',#1031,#830,#831);
#725=AXIS2_PLACEMENT_3D('',#1033,#832,#833);
#726=AXIS2_PLACEMENT_3D('',#1036,#835,#836);
#727=AXIS2_PLACEMENT_3D('',#1037,#837,#838);
#728=AXIS2_PLACEMENT_3D('',#1043,#842,#843);
#729=AXIS2_PLACEMENT_3D('',#1052,#848,#849);
#730=AXIS2_PLACEMENT_3D('',#1054,#850,#851);
#731=AXIS2_PLACEMENT_3D('',#1056,#852,#853);
#732=AXIS2_PLACEMENT_3D('',#1058,#855,#856);
#733=AXIS2_PLACEMENT_3D('',#1064,#860,#861);
#734=AXIS2_PLACEMENT_3D('',#1066,#862,#863);
#735=AXIS2_PLACEMENT_3D('',#1068,#864,#865);
#736=AXIS2_PLACEMENT_3D('',#1070,#867,#868);
#737=AXIS2_PLACEMENT_3D('',#1073,#869,#870);
#738=AXIS2_PLACEMENT_3D('',#1077,#872,#873);
#739=AXIS2_PLACEMENT_3D('',#1079,#875,#876);
#740=AXIS2_PLACEMENT_3D('',#1085,#880,#881);
#741=AXIS2_PLACEMENT_3D('',#1087,#882,#883);
#742=AXIS2_PLACEMENT_3D('',#1090,#885,#886);
#743=AXIS2_PLACEMENT_3D('',#1091,#887,#888);
#744=AXIS2_PLACEMENT_3D('',#1097,#892,#893);
#745=AXIS2_PLACEMENT_3D('',#1103,#897,#898);
#746=AXIS2_PLACEMENT_3D('',#1109,#902,#903);
#747=AXIS2_PLACEMENT_3D('',#1110,#904,#905);
#748=AXIS2_PLACEMENT_3D('',#1111,#906,#907);
#749=AXIS2_PLACEMENT_3D('',#1112,#908,#909);
#750=AXIS2_PLACEMENT_3D('',#1118,#913,#914);
#751=AXIS2_PLACEMENT_3D('',#1119,#915,#916);
#752=AXIS2_PLACEMENT_3D('',#1120,#917,#918);
#753=AXIS2_PLACEMENT_3D('',#1121,#919,#920);
#754=AXIS2_PLACEMENT_3D('',#1124,#923,#924);
#755=AXIS2_PLACEMENT_3D('',#1130,#928,#929);
#756=AXIS2_PLACEMENT_3D('',#1134,#931,#932);
#757=AXIS2_PLACEMENT_3D('',#1141,#936,#937);
#758=AXIS2_PLACEMENT_3D('',#1142,#938,#939);
#759=AXIS2_PLACEMENT_3D('',#1144,#940,#941);
#760=AXIS2_PLACEMENT_3D('',#1152,#945,#946);
#761=AXIS2_PLACEMENT_3D('',#1154,#948,#949);
#762=AXIS2_PLACEMENT_3D('',#1156,#951,#952);
#763=AXIS2_PLACEMENT_3D('',#1158,#954,#955);
#764=AXIS2_PLACEMENT_3D('',#1160,#957,#958);
#765=AXIS2_PLACEMENT_3D('',#1162,#960,#961);
#766=AXIS2_PLACEMENT_3D('',#1164,#963,#964);
#767=AXIS2_PLACEMENT_3D('',#1165,#965,#966);
#768=AXIS2_PLACEMENT_3D('',#1166,#967,#968);
#769=DIRECTION('axis',(0.,0.,1.));
#770=DIRECTION('refdir',(1.,0.,0.));
#771=DIRECTION('axis',(0.,0.,1.));
#772=DIRECTION('refdir',(1.,0.,0.));
#773=DIRECTION('center_axis',(1.11022302462517E-16,1.22315418339603E-33,
1.));
#774=DIRECTION('ref_axis',(0.707106781186534,0.707106781186561,1.5544597770722E-31));
#775=DIRECTION('center_axis',(-1.3305668935189E-16,2.20343868893621E-17,
-1.));
#776=DIRECTION('ref_axis',(0.707106781186534,0.707106781186561,1.5544597770722E-31));
#777=DIRECTION('',(-1.11022302462517E-16,-1.22315418339603E-33,-1.));
#778=DIRECTION('center_axis',(1.3305668935189E-16,-2.20343868893621E-17,
1.));
#779=DIRECTION('ref_axis',(0.707106781186534,0.707106781186561,1.5544597770722E-31));
#780=DIRECTION('',(1.11022302462517E-16,1.22315418339603E-33,1.));
#781=DIRECTION('center_axis',(-3.10015500230737E-14,1.,3.44064030928516E-30));
#782=DIRECTION('ref_axis',(1.,3.10015500230737E-14,-1.55091076241301E-16));
#783=DIRECTION('',(1.,3.10015500230737E-14,-1.55091076241301E-16));
#784=DIRECTION('',(-1.11022302462517E-16,-1.22315418339953E-33,-1.));
#785=DIRECTION('',(-1.,-3.10015500230737E-14,1.55091076241301E-16));
#786=DIRECTION('center_axis',(-1.11022302462517E-16,-1.22315418339603E-33,
-1.));
#787=DIRECTION('ref_axis',(0.707106781186538,0.707106781186557,1.49475159862891E-31));
#788=DIRECTION('center_axis',(1.3305668935189E-16,-2.20343868893621E-17,
1.));
#789=DIRECTION('ref_axis',(0.707106781186538,0.707106781186557,1.49475159862891E-31));
#790=DIRECTION('',(-1.11022302462517E-16,-1.22315418339603E-33,-1.));
#791=DIRECTION('center_axis',(-1.3305668935189E-16,2.20343868893621E-17,
-1.));
#792=DIRECTION('ref_axis',(0.707106781186538,0.707106781186557,1.49475159862891E-31));
#793=DIRECTION('',(1.11022302462517E-16,1.22315418339603E-33,1.));
#794=DIRECTION('center_axis',(-3.10015500230737E-14,1.,3.44064030928516E-30));
#795=DIRECTION('ref_axis',(1.,3.10015500230737E-14,-1.55091076241301E-16));
#796=DIRECTION('',(-1.,-3.10015500230737E-14,1.55091076241301E-16));
#797=DIRECTION('',(-1.11022302462517E-16,-1.22315418339953E-33,-1.));
#798=DIRECTION('',(1.,3.10015500230737E-14,-1.55091076241301E-16));
#799=DIRECTION('center_axis',(-1.11022302462517E-16,-1.22315418339953E-33,
-1.));
#800=DIRECTION('ref_axis',(-0.9956467306157,-0.0932072304827723,1.10538992472233E-16));
#801=DIRECTION('center_axis',(1.55091076241301E-16,5.90501740757623E-29,
1.));
#802=DIRECTION('ref_axis',(-0.9956467306157,-0.0932072304827723,1.54415923007327E-16));
#803=DIRECTION('center_axis',(1.55091076241301E-16,5.90501740757623E-29,
1.));
#804=DIRECTION('ref_axis',(-0.9956467306157,-0.0932072304827723,1.54415923007327E-16));
#805=DIRECTION('',(-1.11022302462517E-16,-1.22315418339953E-33,-1.));
#806=DIRECTION('center_axis',(0.995646730615719,0.0932072304825615,-1.10538992472235E-16));
#807=DIRECTION('ref_axis',(0.0932072304825615,-0.995646730615719,-1.44556096889527E-17));
#808=DIRECTION('',(-0.0932072304825615,0.995646730615719,1.44556096889527E-17));
#809=DIRECTION('',(0.0932072304825615,-0.995646730615719,-1.44556096889527E-17));
#810=DIRECTION('',(-1.11022302462517E-16,-1.22315418339953E-33,-1.));
#811=DIRECTION('center_axis',(-1.11022302462517E-16,-1.22315418339953E-33,
-1.));
#812=DIRECTION('ref_axis',(0.995646730615449,0.0932072304854446,-1.10538992472205E-16));
#813=DIRECTION('center_axis',(1.55091076241301E-16,5.90501740757623E-29,
1.));
#814=DIRECTION('ref_axis',(0.995646730615449,0.0932072304854446,-1.54415923007288E-16));
#815=DIRECTION('center_axis',(-1.55091076241301E-16,-5.90501740757623E-29,
-1.));
#816=DIRECTION('ref_axis',(0.995646730615449,0.0932072304854446,-1.54415923007288E-16));
#817=DIRECTION('',(-1.11022302462517E-16,-1.22315418339953E-33,-1.));
#818=DIRECTION('center_axis',(-1.11022302462517E-16,-1.22315418339953E-33,
-1.));
#819=DIRECTION('ref_axis',(-0.9956467306157,-0.0932072304827723,1.10538992472233E-16));
#820=DIRECTION('center_axis',(1.55091076241301E-16,5.90501740757623E-29,
1.));
#821=DIRECTION('ref_axis',(-0.9956467306157,-0.0932072304827724,1.54415923007327E-16));
#822=DIRECTION('',(-1.11022302462517E-16,-1.22315418339953E-33,-1.));
#823=DIRECTION('center_axis',(1.55091076241301E-16,5.90501740757623E-29,
1.));
#824=DIRECTION('ref_axis',(-0.9956467306157,-0.0932072304827724,1.54415923007327E-16));
#825=DIRECTION('center_axis',(0.995646730615719,0.0932072304825615,-1.10538992472235E-16));
#826=DIRECTION('ref_axis',(0.0932072304825615,-0.995646730615719,-1.44556096889527E-17));
#827=DIRECTION('',(-0.0932072304825615,0.995646730615719,1.44556096889527E-17));
#828=DIRECTION('',(-1.11022302462517E-16,-1.22315418339953E-33,-1.));
#829=DIRECTION('',(0.0932072304825615,-0.995646730615719,-1.44556096889527E-17));
#830=DIRECTION('center_axis',(-1.11022302462517E-16,-1.22315418339953E-33,
-1.));
#831=DIRECTION('ref_axis',(0.995646730615449,0.0932072304854446,-1.10538992472205E-16));
#832=DIRECTION('center_axis',(1.55091076241301E-16,5.90501740757623E-29,
1.));
#833=DIRECTION('ref_axis',(0.995646730615449,0.0932072304854446,-1.54415923007288E-16));
#834=DIRECTION('',(-1.11022302462517E-16,-1.22315418339953E-33,-1.));
#835=DIRECTION('center_axis',(-1.55091076241301E-16,-5.90501740757623E-29,
-1.));
#836=DIRECTION('ref_axis',(0.995646730615449,0.0932072304854446,-1.54415923007288E-16));
#837=DIRECTION('center_axis',(1.,-2.15489470039195E-15,-1.11022302462517E-16));
#838=DIRECTION('ref_axis',(-2.15489470039195E-15,-1.,3.17878664784773E-17));
#839=DIRECTION('',(-2.15489470039195E-15,-1.,3.17878664784773E-17));
#840=DIRECTION('',(-1.11022302462517E-16,-1.22315418339953E-33,-1.));
#841=DIRECTION('',(2.15489470039195E-15,1.,-3.17878664784773E-17));
#842=DIRECTION('center_axis',(1.,2.99923806453831E-12,-1.11022302462517E-16));
#843=DIRECTION('ref_axis',(-1.11022302462517E-16,-1.22315418339952E-33,
-1.));
#844=DIRECTION('',(-1.11022302462517E-16,-1.22315418339952E-33,-1.));
#845=DIRECTION('',(2.99923806453831E-12,-1.,-3.32981092404084E-28));
#846=DIRECTION('',(-1.11022302462517E-16,-1.22315418339952E-33,-1.));
#847=DIRECTION('',(2.99923806453831E-12,-1.,-3.32981092404084E-28));
#848=DIRECTION('center_axis',(-1.11022302462517E-16,-1.22315418339953E-33,
-1.));
#849=DIRECTION('ref_axis',(-0.327457209608768,-0.944866009482423,3.63550533687167E-17));
#850=DIRECTION('center_axis',(5.43276964894556E-16,-3.05794569973336E-16,
1.));
#851=DIRECTION('ref_axis',(-0.78553973185339,0.618811222974911,6.1599475314968E-16));
#852=DIRECTION('center_axis',(-5.43276964894556E-16,3.05794569973336E-16,
-1.));
#853=DIRECTION('ref_axis',(-0.78553973185339,0.618811222974911,6.1599475314968E-16));
#854=DIRECTION('',(-1.11022302462517E-16,-1.22315418339953E-33,-1.));
#855=DIRECTION('center_axis',(-0.785510057429719,0.618848890826153,8.72091351833117E-17));
#856=DIRECTION('ref_axis',(0.618848890826153,0.785510057429719,-2.07688645323722E-16));
#857=DIRECTION('',(-0.618848890826153,-0.785510057429719,2.07688645323722E-16));
#858=DIRECTION('',(0.618848890826153,0.785510057429719,-2.07688645323722E-16));
#859=DIRECTION('',(-1.11022302462517E-16,-1.22315418339953E-33,-1.));
#860=DIRECTION('center_axis',(-1.11022302462517E-16,-1.22315418339953E-33,
-1.));
#861=DIRECTION('ref_axis',(0.785510057213715,-0.618848891100329,-8.72091351593305E-17));
#862=DIRECTION('center_axis',(1.09426637795715E-15,-7.39911079021991E-16,
1.));
#863=DIRECTION('ref_axis',(0.785510057213715,-0.618848891100329,-1.31745039592177E-15));
#864=DIRECTION('center_axis',(1.09426637795715E-15,-7.39911079021991E-16,
1.));
#865=DIRECTION('ref_axis',(0.785510057213715,-0.618848891100329,-1.31745039592177E-15));
#866=DIRECTION('',(-1.11022302462517E-16,-1.22315418339953E-33,-1.));
#867=DIRECTION('center_axis',(-1.11022302462517E-16,-1.22315418339953E-33,
-1.));
#868=DIRECTION('ref_axis',(-0.327460125928863,-0.94486499878377,3.63553771452883E-17));
#869=DIRECTION('center_axis',(5.43276964894556E-16,-3.05794569973336E-16,
1.));
#870=DIRECTION('ref_axis',(-0.78553973185339,0.618811222974911,6.1599475314968E-16));
#871=DIRECTION('',(-1.11022302462517E-16,-1.22315418339953E-33,-1.));
#872=DIRECTION('center_axis',(-5.43276964894556E-16,3.05794569973336E-16,
-1.));
#873=DIRECTION('ref_axis',(-0.78553973185339,0.618811222974911,6.1599475314968E-16));
#874=DIRECTION('',(-1.11022302462517E-16,-1.22315418339953E-33,-1.));
#875=DIRECTION('center_axis',(-0.785510057429719,0.618848890826153,8.72091351833117E-17));
#876=DIRECTION('ref_axis',(0.618848890826153,0.785510057429719,-2.07688645323722E-16));
#877=DIRECTION('',(-0.618848890826153,-0.785510057429719,2.07688645323722E-16));
#878=DIRECTION('',(-1.11022302462517E-16,-1.22315418339953E-33,-1.));
#879=DIRECTION('',(0.618848890826153,0.785510057429719,-2.07688645323722E-16));
#880=DIRECTION('center_axis',(-1.11022302462517E-16,-1.22315418339953E-33,
-1.));
#881=DIRECTION('ref_axis',(0.785510057213715,-0.618848891100329,-8.72091351593304E-17));
#882=DIRECTION('center_axis',(1.09426637795715E-15,-7.39911079021991E-16,
1.));
#883=DIRECTION('ref_axis',(0.785510057213715,-0.618848891100329,-1.31745039592177E-15));
#884=DIRECTION('',(-1.11022302462517E-16,-1.22315418339953E-33,-1.));
#885=DIRECTION('center_axis',(1.09426637795715E-15,-7.39911079021991E-16,
1.));
#886=DIRECTION('ref_axis',(0.785510057213715,-0.618848891100329,-1.31745039592177E-15));
#887=DIRECTION('center_axis',(-1.,-1.76477775372733E-13,1.11022302462517E-16));
#888=DIRECTION('ref_axis',(-1.76477775372733E-13,1.,-7.03741775244551E-17));
#889=DIRECTION('',(1.11022302462517E-16,1.22315418346678E-33,1.));
#890=DIRECTION('',(-1.76477775372733E-13,1.,-7.03741775244551E-17));
#891=DIRECTION('',(1.76477775372733E-13,-1.,7.03741775244551E-17));
#892=DIRECTION('center_axis',(2.99923806453831E-12,-1.,-3.32981092404084E-28));
#893=DIRECTION('ref_axis',(-1.,-2.99923806453831E-12,8.75409631879094E-17));
#894=DIRECTION('',(1.11022302462517E-16,1.22315418346678E-33,1.));
#895=DIRECTION('',(-1.,-2.99923806453831E-12,8.75409631879094E-17));
#896=DIRECTION('',(1.,2.99923806453831E-12,-8.75409631879094E-17));
#897=DIRECTION('center_axis',(2.99923806453831E-12,-1.,-3.32981092404084E-28));
#898=DIRECTION('ref_axis',(-1.,-2.99923806453831E-12,8.75409631879094E-17));
#899=DIRECTION('',(-1.11022302462517E-16,-1.22315418346678E-33,-1.));
#900=DIRECTION('',(1.,2.99923806453831E-12,-8.75409631879094E-17));
#901=DIRECTION('',(-1.,-2.99923806453831E-12,8.75409631879094E-17));
#902=DIRECTION('center_axis',(-1.11022302462517E-16,-1.22315418346678E-33,
-1.));
#903=DIRECTION('ref_axis',(0.707106781185427,0.707106781187668,1.51704020234812E-31));
#904=DIRECTION('center_axis',(1.3305668935189E-16,-2.20343868893621E-17,
1.));
#905=DIRECTION('ref_axis',(0.707106781185427,0.707106781187668,1.51704020234812E-31));
#906=DIRECTION('center_axis',(-1.3305668935189E-16,2.20343868893621E-17,
-1.));
#907=DIRECTION('ref_axis',(0.707106781185427,0.707106781187668,1.51704020234812E-31));
#908=DIRECTION('center_axis',(-1.,-1.76477775372733E-13,1.11022302462517E-16));
#909=DIRECTION('ref_axis',(-1.76477775372733E-13,1.,-7.03741775244551E-17));
#910=DIRECTION('',(-1.11022302462517E-16,-1.22315418346678E-33,-1.));
#911=DIRECTION('',(1.76477775372733E-13,-1.,7.03741775244551E-17));
#912=DIRECTION('',(-1.76477775372733E-13,1.,-7.03741775244551E-17));
#913=DIRECTION('center_axis',(1.11022302462517E-16,1.22315418346678E-33,
1.));
#914=DIRECTION('ref_axis',(0.707106781185425,0.70710678118767,1.7206277675744E-31));
#915=DIRECTION('center_axis',(-1.3305668935189E-16,2.20343868893621E-17,
-1.));
#916=DIRECTION('ref_axis',(0.707106781185425,0.70710678118767,1.7206277675744E-31));
#917=DIRECTION('center_axis',(1.3305668935189E-16,-2.20343868893621E-17,
1.));
#918=DIRECTION('ref_axis',(0.707106781185425,0.70710678118767,1.7206277675744E-31));
#919=DIRECTION('center_axis',(1.,-2.15489470039195E-15,-1.11022302462517E-16));
#920=DIRECTION('ref_axis',(-2.15489470039195E-15,-1.,3.17878664784773E-17));
#921=DIRECTION('',(2.15489470039195E-15,1.,-3.17878664784773E-17));
#922=DIRECTION('',(-2.15489470039195E-15,-1.,3.17878664784773E-17));
#923=DIRECTION('center_axis',(-1.,4.89725397459815E-12,1.11022302462518E-16));
#924=DIRECTION('ref_axis',(4.89725397459815E-12,1.,-8.18570563623178E-28));
#925=DIRECTION('',(4.89725397459815E-12,1.,-8.18570563623177E-28));
#926=DIRECTION('',(-1.11022302462518E-16,-1.22315418339909E-33,-1.));
#927=DIRECTION('',(-4.89725397459815E-12,-1.,8.18570563623178E-28));
#928=DIRECTION('center_axis',(1.33056689351891E-16,-2.20343868893621E-17,
1.));
#929=DIRECTION('ref_axis',(1.,-5.27355936696951E-16,-1.33056689351891E-16));
#930=DIRECTION('',(4.89725397459815E-12,1.,-8.18570563623177E-28));
#931=DIRECTION('center_axis',(-1.55091076241301E-16,-5.90501740757623E-29,
-1.));
#932=DIRECTION('ref_axis',(-1.,-6.31827737881568E-9,1.55091076241301E-16));
#933=DIRECTION('',(-1.,2.15733970013996E-10,2.42642343214385E-16));
#934=DIRECTION('',(-2.15733970013996E-10,-1.,2.39512832934878E-26));
#935=DIRECTION('',(-1.,2.15733970013996E-10,2.42642343214385E-16));
#936=DIRECTION('center_axis',(-1.55091076241301E-16,-5.90501740757623E-29,
-1.));
#937=DIRECTION('ref_axis',(-1.,-6.31827737881568E-9,1.55091076241301E-16));
#938=DIRECTION('center_axis',(-1.33056689351891E-16,2.20343868893621E-17,
-1.));
#939=DIRECTION('ref_axis',(-1.,5.27355936696951E-16,1.33056689351891E-16));
#940=DIRECTION('center_axis',(1.55091076241301E-16,5.90501740757623E-29,
1.));
#941=DIRECTION('ref_axis',(-1.,-6.31827737881568E-9,1.55091076241301E-16));
#942=DIRECTION('',(1.,-2.15733970013996E-10,-2.42642343214385E-16));
#943=DIRECTION('',(-2.15733970013996E-10,-1.,2.39512832934878E-26));
#944=DIRECTION('',(1.,-2.15733970013996E-10,-2.42642343214385E-16));
#945=DIRECTION('center_axis',(1.55091076241301E-16,5.90501740757623E-29,
1.));
#946=DIRECTION('ref_axis',(-1.,-6.31827737881568E-9,1.55091076241301E-16));
#947=DIRECTION('',(-4.89725397459815E-12,-1.,8.18570563623178E-28));
#948=DIRECTION('center_axis',(-1.11022302462518E-16,-1.22315418339909E-33,
-1.));
#949=DIRECTION('ref_axis',(-1.,-6.31827737881568E-9,1.11022302462518E-16));
#950=DIRECTION('',(-1.11022302462518E-16,-1.22315418339909E-33,-1.));
#951=DIRECTION('center_axis',(-2.15733970013996E-10,-1.,2.39512832934878E-26));
#952=DIRECTION('ref_axis',(-1.,2.15733970013996E-10,2.42642343214385E-16));
#953=DIRECTION('',(-1.11022302462518E-16,-1.22315418339909E-33,-1.));
#954=DIRECTION('center_axis',(-1.,4.89725397459815E-12,1.11022302462518E-16));
#955=DIRECTION('ref_axis',(4.89725397459815E-12,1.,-8.18570563623178E-28));
#956=DIRECTION('',(-1.11022302462518E-16,-1.22315418339909E-33,-1.));
#957=DIRECTION('center_axis',(-1.11022302462518E-16,-1.22315418339909E-33,
-1.));
#958=DIRECTION('ref_axis',(-1.,-6.31827737881568E-9,1.11022302462518E-16));
#959=DIRECTION('',(-1.11022302462518E-16,-1.22315418339909E-33,-1.));
#960=DIRECTION('center_axis',(-2.15733970013996E-10,-1.,2.39512832934878E-26));
#961=DIRECTION('ref_axis',(-1.,2.15733970013996E-10,2.42642343214385E-16));
#962=DIRECTION('',(-1.11022302462518E-16,-1.22315418339909E-33,-1.));
#963=DIRECTION('center_axis',(-1.,2.15733970013996E-10,1.11022302462518E-16));
#964=DIRECTION('ref_axis',(1.11022302462518E-16,1.22315418339909E-33,1.));
#965=DIRECTION('',(-1.11022302462518E-16,-1.57772181044202E-30,0.999999999999999));
#966=DIRECTION('',(0.999999999999999,5.27355936696949E-16,1.11022302462518E-16));
#967=DIRECTION('',(-4.40687737787832E-17,-5.9072190851054E-29,-0.999999999999999));
#968=DIRECTION('',(-0.999999999999998,5.27355936696949E-16,4.40687737788829E-17));
#969=CARTESIAN_POINT('',(0.,0.,0.));
#970=CARTESIAN_POINT('',(0.,0.,0.));
#971=CARTESIAN_POINT('Origin',(162.500000000013,116.260000000004,24.0000000000011));
#972=CARTESIAN_POINT('',(162.500000000013,123.000000000004,24.0000000000011));
#973=CARTESIAN_POINT('',(169.240000000013,116.260000000004,24.0000000000011));
#974=CARTESIAN_POINT('Origin',(162.500000000013,116.260000000004,24.0000000000011));
#975=CARTESIAN_POINT('',(169.240000000013,116.260000000004,18.0000000000011));
#976=CARTESIAN_POINT('',(169.240000000013,116.260000000004,24.0000000000011));
#977=CARTESIAN_POINT('',(162.500000000013,123.000000000004,18.0000000000011));
#978=CARTESIAN_POINT('Origin',(162.500000000013,116.260000000004,18.0000000000011));
#979=CARTESIAN_POINT('',(162.500000000013,123.000000000004,24.0000000000011));
#980=CARTESIAN_POINT('Origin',(-148.500000000011,122.999999999994,24.0000000000011));
#981=CARTESIAN_POINT('',(-148.500000000011,122.999999999994,18.0000000000011));
#982=CARTESIAN_POINT('',(162.500000000012,123.000000000004,18.0000000000011));
#983=CARTESIAN_POINT('',(-148.500000000011,122.999999999994,24.0000000000011));
#984=CARTESIAN_POINT('',(-148.500000000011,122.999999999994,24.0000000000011));
#985=CARTESIAN_POINT('',(162.500000000012,123.000000000004,24.0000000000011));
#986=CARTESIAN_POINT('Origin',(162.500000000013,116.260000000004,24.0000000000011));
#987=CARTESIAN_POINT('',(167.860000000013,116.260000000004,24.0000000000011));
#988=CARTESIAN_POINT('',(162.500000000013,121.620000000004,24.0000000000011));
#989=CARTESIAN_POINT('Origin',(162.500000000013,116.260000000004,24.0000000000011));
#990=CARTESIAN_POINT('',(162.500000000013,121.620000000004,18.0000000000011));
#991=CARTESIAN_POINT('',(162.500000000013,121.620000000004,24.0000000000011));
#992=CARTESIAN_POINT('',(167.860000000013,116.260000000004,18.0000000000011));
#993=CARTESIAN_POINT('Origin',(162.500000000013,116.260000000004,18.0000000000011));
#994=CARTESIAN_POINT('',(167.860000000013,116.260000000004,24.0000000000011));
#995=CARTESIAN_POINT('Origin',(-148.500000000011,121.619999999994,24.0000000000011));
#996=CARTESIAN_POINT('',(-148.500000000011,121.619999999994,24.0000000000011));
#997=CARTESIAN_POINT('',(162.500000000012,121.620000000004,24.0000000000011));
#998=CARTESIAN_POINT('',(-148.500000000011,121.619999999994,18.0000000000011));
#999=CARTESIAN_POINT('',(-148.500000000011,121.619999999994,24.0000000000011));
#1000=CARTESIAN_POINT('',(162.500000000012,121.620000000004,18.0000000000011));
#1001=CARTESIAN_POINT('Origin',(-148.500000000012,129.499999999994,24.0000000000011));
#1002=CARTESIAN_POINT('',(-154.971703749014,128.894153001856,24.0000000000011));
#1003=CARTESIAN_POINT('Origin',(-148.500000000012,129.499999999994,24.0000000000011));
#1004=CARTESIAN_POINT('',(-154.971703749014,128.894153001856,18.0000000000011));
#1005=CARTESIAN_POINT('Origin',(-148.500000000012,129.499999999994,18.0000000000011));
#1006=CARTESIAN_POINT('',(-154.971703749014,128.894153001856,24.0000000000011));
#1007=CARTESIAN_POINT('Origin',(-155.789341035663,137.628216733466,24.0000000000011));
#1008=CARTESIAN_POINT('',(-155.789341035663,137.628216733466,24.0000000000011));
#1009=CARTESIAN_POINT('',(-154.971703749014,128.894153001856,24.0000000000011));
#1010=CARTESIAN_POINT('',(-155.789341035663,137.628216733466,18.0000000000011));
#1011=CARTESIAN_POINT('',(-154.971703749014,128.894153001856,18.0000000000011));
#1012=CARTESIAN_POINT('',(-155.789341035663,137.628216733466,24.0000000000011));
#1013=CARTESIAN_POINT('Origin',(-162.500000000012,136.999999999994,24.0000000000011));
#1014=CARTESIAN_POINT('',(-169.240000000013,137.000000000027,24.0000000000011));
#1015=CARTESIAN_POINT('Origin',(-162.500000000012,136.999999999994,24.0000000000011));
#1016=CARTESIAN_POINT('',(-169.240000000013,137.000000000027,18.0000000000011));
#1017=CARTESIAN_POINT('Origin',(-162.500000000012,136.999999999994,18.0000000000011));
#1018=CARTESIAN_POINT('',(-169.240000000013,137.000000000027,24.0000000000011));
#1019=CARTESIAN_POINT('Origin',(-148.500000000012,129.499999999994,24.0000000000011));
#1020=CARTESIAN_POINT('',(-156.345696237264,128.76552702379,24.0000000000011));
#1021=CARTESIAN_POINT('Origin',(-148.500000000012,129.499999999994,24.0000000000011));
#1022=CARTESIAN_POINT('',(-156.345696237264,128.76552702379,18.0000000000011));
#1023=CARTESIAN_POINT('',(-156.345696237264,128.76552702379,24.0000000000011));
#1024=CARTESIAN_POINT('Origin',(-148.500000000012,129.499999999994,18.0000000000011));
#1025=CARTESIAN_POINT('Origin',(-157.163333523913,137.4995907554,24.0000000000011));
#1026=CARTESIAN_POINT('',(-157.163333523912,137.499590755398,24.0000000000011));
#1027=CARTESIAN_POINT('',(-156.345696237264,128.76552702379,24.0000000000011));
#1028=CARTESIAN_POINT('',(-157.163333523912,137.499590755398,18.0000000000011));
#1029=CARTESIAN_POINT('',(-157.163333523913,137.4995907554,24.0000000000011));
#1030=CARTESIAN_POINT('',(-156.345696237264,128.76552702379,18.0000000000011));
#1031=CARTESIAN_POINT('Origin',(-162.500000000012,136.999999999994,24.0000000000011));
#1032=CARTESIAN_POINT('',(-167.860000000013,137.00000000002,24.0000000000011));
#1033=CARTESIAN_POINT('Origin',(-162.500000000012,136.999999999994,24.0000000000011));
#1034=CARTESIAN_POINT('',(-167.860000000013,137.00000000002,18.0000000000011));
#1035=CARTESIAN_POINT('',(-167.860000000013,137.00000000002,24.0000000000011));
#1036=CARTESIAN_POINT('Origin',(-162.500000000012,136.999999999994,18.0000000000011));
#1037=CARTESIAN_POINT('Origin',(167.860000000013,116.260000000004,24.0000000000011));
#1038=CARTESIAN_POINT('',(167.860000004348,-232.999999999975,18.0000000000011));
#1039=CARTESIAN_POINT('',(167.860000000012,-232.999999999975,18.0000000000011));
#1040=CARTESIAN_POINT('',(167.860000004348,-232.999999999975,24.0000000000011));
#1041=CARTESIAN_POINT('',(167.860000004348,-232.999999999975,24.0000000000011));
#1042=CARTESIAN_POINT('',(167.860000000012,-238.999999999975,24.0000000000011));
#1043=CARTESIAN_POINT('Origin',(10.33008144027,-46.7400000004389,21.0000000000011));
#1044=CARTESIAN_POINT('',(10.3300814402658,-45.3600000004389,24.0000000000011));
#1045=CARTESIAN_POINT('',(10.3300814402658,-45.3600000004389,18.0000000000011));
#1046=CARTESIAN_POINT('',(10.3300814402658,-45.3600000004389,24.0000000000011));
#1047=CARTESIAN_POINT('',(10.33008144027,-46.7400000004389,18.0000000000011));
#1048=CARTESIAN_POINT('',(10.33008144027,-46.7400000004389,18.0000000000011));
#1049=CARTESIAN_POINT('',(10.33008144027,-46.7400000004389,24.0000000000011));
#1050=CARTESIAN_POINT('',(10.33008144027,-46.7400000004389,24.0000000000011));
#1051=CARTESIAN_POINT('',(10.33008144027,-46.7400000004389,24.0000000000011));
#1052=CARTESIAN_POINT('Origin',(162.500000000067,-232.999999999974,24.0000000000011));
#1053=CARTESIAN_POINT('',(158.289486559242,-229.683197833488,24.0000000000011));
#1054=CARTESIAN_POINT('Origin',(162.500000000067,-232.999999999974,24.0000000000011));
#1055=CARTESIAN_POINT('',(158.289486559242,-229.683197833488,18.0000000000011));
#1056=CARTESIAN_POINT('Origin',(162.500000000067,-232.999999999974,18.0000000000011));
#1057=CARTESIAN_POINT('',(158.289466083266,-229.683223823815,24.0000000000011));
#1058=CARTESIAN_POINT('Origin',(158.289466083266,-229.683223823815,24.0000000000011));
#1059=CARTESIAN_POINT('',(164.439819252033,-221.876529261656,24.0000000000011));
#1060=CARTESIAN_POINT('',(164.439819252182,-221.876529261466,24.0000000000011));
#1061=CARTESIAN_POINT('',(164.439819252033,-221.876529261656,18.0000000000011));
#1062=CARTESIAN_POINT('',(164.439819252182,-221.876529261466,18.0000000000011));
#1063=CARTESIAN_POINT('',(164.439819252182,-221.876529261466,24.0000000000011));
#1064=CARTESIAN_POINT('Origin',(158.250000001039,-216.999999999974,24.0000000000011));
#1065=CARTESIAN_POINT('',(166.130000001039,-216.999999999973,24.0000000000011));
#1066=CARTESIAN_POINT('Origin',(158.250000001039,-216.999999999974,24.0000000000011));
#1067=CARTESIAN_POINT('',(166.130000001039,-216.999999999973,18.0000000000011));
#1068=CARTESIAN_POINT('Origin',(158.250000001039,-216.999999999974,18.0000000000011));
#1069=CARTESIAN_POINT('',(166.130000001039,-216.999999999973,24.0000000000011));
#1070=CARTESIAN_POINT('Origin',(162.500000000067,-232.999999999974,24.0000000000011));
#1071=CARTESIAN_POINT('',(157.205462204013,-228.829212354475,24.0000000000011));
#1072=CARTESIAN_POINT('',(169.240000004348,-232.999999999975,24.0000000000011));
#1073=CARTESIAN_POINT('Origin',(162.500000000067,-232.999999999974,24.0000000000011));
#1074=CARTESIAN_POINT('',(157.205462204013,-228.829212354475,18.0000000000011));
#1075=CARTESIAN_POINT('',(157.205462204013,-228.829212354475,24.0000000000011));
#1076=CARTESIAN_POINT('',(169.240000004348,-232.999999999975,18.0000000000011));
#1077=CARTESIAN_POINT('Origin',(162.500000000067,-232.999999999974,18.0000000000011));
#1078=CARTESIAN_POINT('',(169.240000004348,-232.999999999975,24.0000000000011));
#1079=CARTESIAN_POINT('Origin',(157.205462204013,-228.829212354475,24.0000000000011));
#1080=CARTESIAN_POINT('',(163.355815372929,-221.022517792126,24.0000000000011));
#1081=CARTESIAN_POINT('',(163.355815372929,-221.022517792126,24.0000000000011));
#1082=CARTESIAN_POINT('',(163.355815372929,-221.022517792126,18.0000000000011));
#1083=CARTESIAN_POINT('',(163.355815372929,-221.022517792126,24.0000000000011));
#1084=CARTESIAN_POINT('',(163.355815372929,-221.022517792126,18.0000000000011));
#1085=CARTESIAN_POINT('Origin',(158.250000001039,-216.999999999974,24.0000000000011));
#1086=CARTESIAN_POINT('',(164.750000001039,-216.999999999973,24.0000000000011));
#1087=CARTESIAN_POINT('Origin',(158.250000001039,-216.999999999974,24.0000000000011));
#1088=CARTESIAN_POINT('',(164.750000001039,-216.999999999973,18.0000000000011));
#1089=CARTESIAN_POINT('',(164.750000001039,-216.999999999973,24.0000000000011));
#1090=CARTESIAN_POINT('Origin',(158.250000001039,-216.999999999974,18.0000000000011));
#1091=CARTESIAN_POINT('Origin',(164.750000001039,-216.999999999973,24.0000000000011));
#1092=CARTESIAN_POINT('',(164.75000000101,-53.239999999994,18.0000000000011));
#1093=CARTESIAN_POINT('',(164.75000000101,-53.239999999994,24.0000000000011));
#1094=CARTESIAN_POINT('',(164.75000000101,-53.239999999994,24.0000000000011));
#1095=CARTESIAN_POINT('',(164.750000001012,-59.2399999999941,18.0000000000011));
#1096=CARTESIAN_POINT('',(164.750000001012,-59.2399999999941,24.0000000000011));
#1097=CARTESIAN_POINT('Origin',(158.250000001005,-45.3599999999953,24.0000000000011));
#1098=CARTESIAN_POINT('',(158.250000000987,-45.3599999999953,18.0000000000011));
#1099=CARTESIAN_POINT('',(158.250000000987,-45.3599999999953,24.0000000000011));
#1100=CARTESIAN_POINT('',(158.250000000987,-45.3599999999953,24.0000000000011));
#1101=CARTESIAN_POINT('',(10.3300814402658,-45.3600000004389,18.0000000000011));
#1102=CARTESIAN_POINT('',(10.3300814402658,-45.3600000004389,24.0000000000011));
#1103=CARTESIAN_POINT('Origin',(158.25000000101,-46.7399999999953,24.0000000000011));
#1104=CARTESIAN_POINT('',(158.250000000991,-46.7399999999952,24.0000000000011));
#1105=CARTESIAN_POINT('',(158.250000000991,-46.7399999999952,18.0000000000011));
#1106=CARTESIAN_POINT('',(158.250000000991,-46.7399999999953,24.0000000000011));
#1107=CARTESIAN_POINT('',(10.33008144027,-46.7400000004389,24.0000000000011));
#1108=CARTESIAN_POINT('',(10.33008144027,-46.7400000004389,18.0000000000011));
#1109=CARTESIAN_POINT('Origin',(158.250000001011,-53.2399999999952,24.0000000000011));
#1110=CARTESIAN_POINT('Origin',(158.250000001011,-53.2399999999952,24.0000000000011));
#1111=CARTESIAN_POINT('Origin',(158.250000001011,-53.2399999999952,18.0000000000011));
#1112=CARTESIAN_POINT('Origin',(166.130000001039,-216.999999999973,24.0000000000011));
#1113=CARTESIAN_POINT('',(166.13000000101,-53.2399999999938,24.0000000000011));
#1114=CARTESIAN_POINT('',(166.13000000101,-53.2399999999938,18.0000000000011));
#1115=CARTESIAN_POINT('',(166.130000001011,-53.2399999999938,24.0000000000011));
#1116=CARTESIAN_POINT('',(166.130000001012,-59.2399999999938,24.0000000000011));
#1117=CARTESIAN_POINT('',(166.130000001012,-59.2399999999938,18.0000000000011));
#1118=CARTESIAN_POINT('Origin',(158.250000001011,-53.2399999999952,24.0000000000011));
#1119=CARTESIAN_POINT('Origin',(158.250000001011,-53.2399999999952,24.0000000000011));
#1120=CARTESIAN_POINT('Origin',(158.250000001011,-53.2399999999952,18.0000000000011));
#1121=CARTESIAN_POINT('Origin',(169.240000000013,116.260000000004,24.0000000000011));
#1122=CARTESIAN_POINT('',(169.240000000012,-238.999999999975,24.0000000000011));
#1123=CARTESIAN_POINT('',(169.240000000012,-232.999999999975,18.0000000000011));
#1124=CARTESIAN_POINT('Origin',(-169.240000000908,-39.9999999976865,24.0000000000011));
#1125=CARTESIAN_POINT('',(-169.240000000908,-39.9999999976865,18.0000000000011));
#1126=CARTESIAN_POINT('',(-169.240000000012,137.000000000027,18.0000000000011));
#1127=CARTESIAN_POINT('',(-169.240000000908,-39.9999999976865,24.0000000000011));
#1128=CARTESIAN_POINT('',(-169.240000000908,-39.9999999976865,24.0000000000011));
#1129=CARTESIAN_POINT('',(-169.240000000012,143.000000000027,24.0000000000011));
#1130=CARTESIAN_POINT('Origin',(162.846194078723,-48.6438059222815,18.0000000000011));
#1131=CARTESIAN_POINT('',(-167.860000000908,-39.9999999933303,18.0000000000011));
#1132=CARTESIAN_POINT('',(-167.860000000012,137.00000000002,18.0000000000011));
#1133=CARTESIAN_POINT('',(-162.50000000106,-45.3599999649133,18.0000000000011));
#1134=CARTESIAN_POINT('Origin',(-162.499999991096,-39.9999999551013,18.0000000000011));
#1135=CARTESIAN_POINT('',(-10.3299999996924,-45.3599999977412,18.0000000000011));
#1136=CARTESIAN_POINT('',(-162.500000002064,-45.359999964913,18.0000000000011));
#1137=CARTESIAN_POINT('',(-10.3299999999901,-46.7399999977412,18.0000000000011));
#1138=CARTESIAN_POINT('',(-10.3299999999901,-46.7399999977412,18.0000000000011));
#1139=CARTESIAN_POINT('',(-162.500000002362,-46.7399999649133,18.0000000000011));
#1140=CARTESIAN_POINT('',(-162.500000002362,-46.739999964913,18.0000000000011));
#1141=CARTESIAN_POINT('Origin',(-162.499999991096,-39.9999999551013,18.0000000000011));
#1142=CARTESIAN_POINT('Origin',(162.846194078723,-48.6438059222815,24.0000000000011));
#1143=CARTESIAN_POINT('',(-162.500000002362,-46.7399999649133,24.0000000000011));
#1144=CARTESIAN_POINT('Origin',(-162.499999991096,-39.9999999551013,24.0000000000011));
#1145=CARTESIAN_POINT('',(-10.3299999999901,-46.7399999977412,24.0000000000011));
#1146=CARTESIAN_POINT('',(-162.500000002362,-46.739999964913,24.0000000000011));
#1147=CARTESIAN_POINT('',(-10.3299999996924,-45.3599999977412,24.0000000000011));
#1148=CARTESIAN_POINT('',(-10.3299999999901,-46.7399999977412,24.0000000000011));
#1149=CARTESIAN_POINT('',(-162.50000000106,-45.3599999649133,24.0000000000011));
#1150=CARTESIAN_POINT('',(-162.500000002064,-45.359999964913,24.0000000000011));
#1151=CARTESIAN_POINT('',(-167.860000000908,-39.9999999933303,24.0000000000011));
#1152=CARTESIAN_POINT('Origin',(-162.499999991096,-39.9999999551013,24.0000000000011));
#1153=CARTESIAN_POINT('',(-167.860000000012,143.00000000002,24.0000000000011));
#1154=CARTESIAN_POINT('Origin',(-162.499999991096,-39.9999999551013,24.0000000000011));
#1155=CARTESIAN_POINT('',(-162.500000002362,-46.7399999649133,24.0000000000011));
#1156=CARTESIAN_POINT('Origin',(-10.3299999999901,-46.7399999977412,24.0000000000011));
#1157=CARTESIAN_POINT('',(-10.3299999999901,-46.7399999977412,24.0000000000011));
#1158=CARTESIAN_POINT('Origin',(-167.860000000908,-39.9999999976933,24.0000000000011));
#1159=CARTESIAN_POINT('',(-167.860000000908,-39.9999999976933,24.0000000000011));
#1160=CARTESIAN_POINT('Origin',(-162.499999991096,-39.9999999551013,24.0000000000011));
#1161=CARTESIAN_POINT('',(-162.500000002064,-45.3599999649133,24.0000000000011));
#1162=CARTESIAN_POINT('Origin',(-10.3299999996924,-45.3599999977412,24.0000000000011));
#1163=CARTESIAN_POINT('',(-10.3299999996924,-45.3599999977412,24.0000000000011));
#1164=CARTESIAN_POINT('Origin',(-10.3299999999901,-46.7399999977412,21.0000000000011));
#1165=CARTESIAN_POINT('',(3.19744231092045E-13,44.9999999999988,-16.));
#1166=CARTESIAN_POINT('',(5.86197757002083E-13,45.0000000000039,16.000000000001));
#1167=UNCERTAINTY_MEASURE_WITH_UNIT(LENGTH_MEASURE(0.01),#1173,
'DISTANCE_ACCURACY_VALUE',
'Maximum model space distance between geometric entities at asserted c
onnectivities');
#1168=UNCERTAINTY_MEASURE_WITH_UNIT(LENGTH_MEASURE(0.01),#1173,
'DISTANCE_ACCURACY_VALUE',
'Maximum model space distance between geometric entities at asserted c
onnectivities');
#1169=UNCERTAINTY_MEASURE_WITH_UNIT(LENGTH_MEASURE(0.01),#1173,
'DISTANCE_ACCURACY_VALUE',
'Maximum model space distance between geometric entities at asserted c
onnectivities');
#1170=(
GEOMETRIC_REPRESENTATION_CONTEXT(3)
GLOBAL_UNCERTAINTY_ASSIGNED_CONTEXT((#1167))
GLOBAL_UNIT_ASSIGNED_CONTEXT((#1173,#1175,#1176))
REPRESENTATION_CONTEXT('','3D')
);
#1171=(
GEOMETRIC_REPRESENTATION_CONTEXT(3)
GLOBAL_UNCERTAINTY_ASSIGNED_CONTEXT((#1168))
GLOBAL_UNIT_ASSIGNED_CONTEXT((#1173,#1175,#1176))
REPRESENTATION_CONTEXT('','3D')
);
#1172=(
GEOMETRIC_REPRESENTATION_CONTEXT(3)
GLOBAL_UNCERTAINTY_ASSIGNED_CONTEXT((#1169))
GLOBAL_UNIT_ASSIGNED_CONTEXT((#1173,#1175,#1176))
REPRESENTATION_CONTEXT('','3D')
);
#1173=(
LENGTH_UNIT()
NAMED_UNIT(*)
SI_UNIT(.MILLI.,.METRE.)
);
#1174=(
LENGTH_UNIT()
NAMED_UNIT(*)
SI_UNIT($,.METRE.)
);
#1175=(
NAMED_UNIT(*)
PLANE_ANGLE_UNIT()
SI_UNIT($,.RADIAN.)
);
#1176=(
NAMED_UNIT(*)
SI_UNIT($,.STERADIAN.)
SOLID_ANGLE_UNIT()
);
#1177=SHAPE_DEFINITION_REPRESENTATION(#1179,#1183);
#1178=SHAPE_DEFINITION_REPRESENTATION(#1180,#1184);
#1179=PRODUCT_DEFINITION_SHAPE('',$,#1186);
#1180=PRODUCT_DEFINITION_SHAPE('',$,#1187);
#1181=PRODUCT_DEFINITION_SHAPE($,$,#17);
#1182=PRODUCT_DEFINITION_SHAPE($,$,#18);
#1183=SHAPE_REPRESENTATION('',(#703,#767,#768),#1170);
#1184=SHAPE_REPRESENTATION('',(#704),#1171);
#1185=PRODUCT_DEFINITION_CONTEXT('part definition',#1193,'design');
#1186=PRODUCT_DEFINITION('_6_V2_6mm_AWD_belts_FT_NP',
'_6_V2_6mm_AWD_belts_FT_NP',#1188,#1185);
#1187=PRODUCT_DEFINITION('_V2_6mm_AWD_belt_FT_NP',
'_V2_6mm_AWD_belt_FT_NP',#1189,#1185);
#1188=PRODUCT_DEFINITION_FORMATION('',$,#1195);
#1189=PRODUCT_DEFINITION_FORMATION('',$,#1196);
#1190=PRODUCT_RELATED_PRODUCT_CATEGORY('_6_V2_6mm_AWD_belts_FT_NP',
'_6_V2_6mm_AWD_belts_FT_NP',(#1195));
#1191=PRODUCT_RELATED_PRODUCT_CATEGORY('_V2_6mm_AWD_belt_FT_NP',
'_V2_6mm_AWD_belt_FT_NP',(#1196));
#1192=APPLICATION_PROTOCOL_DEFINITION('international standard',
'automotive_design',2009,#1193);
#1193=APPLICATION_CONTEXT(
'Core Data for Automotive Mechanical Design Process');
#1194=PRODUCT_CONTEXT('part definition',#1193,'mechanical');
#1195=PRODUCT('_6_V2_6mm_AWD_belts_FT_NP','_6_V2_6mm_AWD_belts_FT_NP',$,
(#1194));
#1196=PRODUCT('_V2_6mm_AWD_belt_FT_NP','_V2_6mm_AWD_belt_FT_NP',$,(#1194));
#1197=PRESENTATION_STYLE_ASSIGNMENT((#1200));
#1198=PRESENTATION_STYLE_ASSIGNMENT((#1201));
#1199=PRESENTATION_STYLE_ASSIGNMENT((#1202));
#1200=SURFACE_STYLE_USAGE(.BOTH.,#1203);
#1201=SURFACE_STYLE_USAGE(.BOTH.,#1204);
#1202=SURFACE_STYLE_USAGE(.BOTH.,#1205);
#1203=SURFACE_SIDE_STYLE('',(#1206));
#1204=SURFACE_SIDE_STYLE('',(#1207));
#1205=SURFACE_SIDE_STYLE('',(#1208));
#1206=SURFACE_STYLE_FILL_AREA(#1209);
#1207=SURFACE_STYLE_FILL_AREA(#1210);
#1208=SURFACE_STYLE_FILL_AREA(#1211);
#1209=FILL_AREA_STYLE('Steel - Satin',(#1212));
#1210=FILL_AREA_STYLE('Rubber - Soft',(#1213));
#1211=FILL_AREA_STYLE('Gates Belt Face',(#1214));
#1212=FILL_AREA_STYLE_COLOUR('Steel - Satin',#1215);
#1213=FILL_AREA_STYLE_COLOUR('Rubber - Soft',#1216);
#1214=FILL_AREA_STYLE_COLOUR('Gates Belt Face',#1217);
#1215=COLOUR_RGB('Steel - Satin',0.627450980392157,0.627450980392157,0.627450980392157);
#1216=COLOUR_RGB('Rubber - Soft',0.152941176470588,0.152941176470588,0.152941176470588);
#1217=COLOUR_RGB('Gates Belt Face',0.482352941176471,0.309803921568627,
0.27843137254902);
ENDSEC;
END-ISO-10303-21;
