ISO-10303-21;
HEADER;
/* Generated by software containing ST-Developer
 * from STEP Tools, Inc. (www.steptools.com) 
 */

FILE_DESCRIPTION(
/* description */ (''),
/* implementation_level */ '2;1');

FILE_NAME(
/* name */ 'V2_Z_idler_spacer.step',
/* time_stamp */ '2026-04-01T17:08:25+02:00',
/* author */ (''),
/* organization */ (''),
/* preprocessor_version */ 'ST-DEVELOPER v20.1',
/* originating_system */ 'Autodesk Translation Framework v14.24.0.0',
/* authorisation */ '');

FILE_SCHEMA (('AUTOMOTIVE_DESIGN { 1 0 10303 214 3 1 1 }'));
ENDSEC;

DATA;
#10=MECHANICAL_DESIGN_GEOMETRIC_PRESENTATION_REPRESENTATION('',(#13),#1579);
#11=SHAPE_REPRESENTATION_RELATIONSHIP('SRR','None',#1586,#12);
#12=ADVANCED_BREP_SHAPE_REPRESENTATION('',(#14),#1578);
#13=STYLED_ITEM('',(#1596),#14);
#14=MANIFOLD_SOLID_BREP('z_tensioner_bracket_a_x2',#919);
#15=SPHERICAL_SURFACE('',#1026,1.);
#16=SPHERICAL_SURFACE('',#1028,1.);
#17=TOROIDAL_SURFACE('',#1002,1.4,0.4);
#18=TOROIDAL_SURFACE('',#1008,1.4,0.4);
#19=CYLINDRICAL_SURFACE('',#975,0.4);
#20=CYLINDRICAL_SURFACE('',#978,0.4);
#21=CYLINDRICAL_SURFACE('',#981,0.4);
#22=CYLINDRICAL_SURFACE('',#984,1.);
#23=CYLINDRICAL_SURFACE('',#987,1.);
#24=CYLINDRICAL_SURFACE('',#990,0.4);
#25=CYLINDRICAL_SURFACE('',#994,0.4);
#26=CYLINDRICAL_SURFACE('',#999,0.4);
#27=CYLINDRICAL_SURFACE('',#1000,0.4);
#28=CYLINDRICAL_SURFACE('',#1006,0.4);
#29=CYLINDRICAL_SURFACE('',#1012,0.4);
#30=CYLINDRICAL_SURFACE('',#1014,1.);
#31=CYLINDRICAL_SURFACE('',#1017,1.);
#32=CYLINDRICAL_SURFACE('',#1022,1.);
#33=CYLINDRICAL_SURFACE('',#1024,1.);
#34=CYLINDRICAL_SURFACE('',#1030,1.);
#35=CIRCLE('',#936,0.4);
#36=CIRCLE('',#937,0.799999999999989);
#37=CIRCLE('',#940,0.599999999999961);
#38=CIRCLE('',#941,1.);
#39=CIRCLE('',#944,1.);
#40=CIRCLE('',#945,0.599999999999961);
#41=CIRCLE('',#948,0.4);
#42=CIRCLE('',#949,0.799999999999989);
#43=CIRCLE('',#952,0.399999999999989);
#44=CIRCLE('',#955,0.399999999999989);
#45=CIRCLE('',#958,0.399999999999989);
#46=CIRCLE('',#961,1.);
#47=CIRCLE('',#962,1.40000000000004);
#48=CIRCLE('',#965,1.);
#49=CIRCLE('',#966,1.40000000000004);
#50=CIRCLE('',#969,0.400000000000039);
#51=CIRCLE('',#972,0.400000000000039);
#52=CIRCLE('',#974,0.399999999999989);
#53=CIRCLE('',#976,0.4);
#54=CIRCLE('',#979,0.4);
#55=CIRCLE('',#982,0.4);
#56=CIRCLE('',#985,1.);
#57=CIRCLE('',#988,1.);
#58=CIRCLE('',#991,0.4);
#59=CIRCLE('',#995,0.4);
#60=CIRCLE('',#998,0.4);
#61=CIRCLE('',#1001,0.399999999999991);
#62=CIRCLE('',#1003,0.399999999999991);
#63=CIRCLE('',#1004,1.4);
#64=CIRCLE('',#1005,1.);
#65=CIRCLE('',#1007,0.399999999999956);
#66=CIRCLE('',#1009,0.399999999999991);
#67=CIRCLE('',#1010,1.4);
#68=CIRCLE('',#1011,1.);
#69=CIRCLE('',#1015,1.);
#70=CIRCLE('',#1018,1.00000000000001);
#71=CIRCLE('',#1023,1.);
#72=CIRCLE('',#1025,0.999999999999989);
#73=CIRCLE('',#1027,1.);
#74=CIRCLE('',#1029,1.);
#75=CONICAL_SURFACE('',#935,0.599999999999995,0.785398163397534);
#76=CONICAL_SURFACE('',#939,0.79999999999998,0.785398163397508);
#77=CONICAL_SURFACE('',#943,0.79999999999998,0.785398163397508);
#78=CONICAL_SURFACE('',#947,0.599999999999995,0.785398163397535);
#79=CONICAL_SURFACE('',#951,0.399999999999989,0.78539816339749);
#80=CONICAL_SURFACE('',#954,0.399999999999989,0.78539816339749);
#81=CONICAL_SURFACE('',#957,0.399999999999989,0.785398163397801);
#82=CONICAL_SURFACE('',#960,1.20000000000002,0.785398163397508);
#83=CONICAL_SURFACE('',#964,1.20000000000002,0.785398163397508);
#84=CONICAL_SURFACE('',#968,0.400000000000039,0.785398163397864);
#85=CONICAL_SURFACE('',#971,0.400000000000039,0.785398163397864);
#86=CONICAL_SURFACE('',#973,0.399999999999989,0.785398163397801);
#87=FACE_OUTER_BOUND('',#145,.T.);
#88=FACE_OUTER_BOUND('',#146,.T.);
#89=FACE_OUTER_BOUND('',#147,.T.);
#90=FACE_OUTER_BOUND('',#148,.T.);
#91=FACE_OUTER_BOUND('',#149,.T.);
#92=FACE_OUTER_BOUND('',#150,.T.);
#93=FACE_OUTER_BOUND('',#151,.T.);
#94=FACE_OUTER_BOUND('',#152,.T.);
#95=FACE_OUTER_BOUND('',#153,.T.);
#96=FACE_OUTER_BOUND('',#154,.T.);
#97=FACE_OUTER_BOUND('',#155,.T.);
#98=FACE_OUTER_BOUND('',#156,.T.);
#99=FACE_OUTER_BOUND('',#157,.T.);
#100=FACE_OUTER_BOUND('',#158,.T.);
#101=FACE_OUTER_BOUND('',#159,.T.);
#102=FACE_OUTER_BOUND('',#160,.T.);
#103=FACE_OUTER_BOUND('',#161,.T.);
#104=FACE_OUTER_BOUND('',#162,.T.);
#105=FACE_OUTER_BOUND('',#163,.T.);
#106=FACE_OUTER_BOUND('',#164,.T.);
#107=FACE_OUTER_BOUND('',#165,.T.);
#108=FACE_OUTER_BOUND('',#166,.T.);
#109=FACE_OUTER_BOUND('',#167,.T.);
#110=FACE_OUTER_BOUND('',#168,.T.);
#111=FACE_OUTER_BOUND('',#169,.T.);
#112=FACE_OUTER_BOUND('',#170,.T.);
#113=FACE_OUTER_BOUND('',#171,.T.);
#114=FACE_OUTER_BOUND('',#172,.T.);
#115=FACE_OUTER_BOUND('',#173,.T.);
#116=FACE_OUTER_BOUND('',#174,.T.);
#117=FACE_OUTER_BOUND('',#175,.T.);
#118=FACE_OUTER_BOUND('',#176,.T.);
#119=FACE_OUTER_BOUND('',#177,.T.);
#120=FACE_OUTER_BOUND('',#178,.T.);
#121=FACE_OUTER_BOUND('',#179,.T.);
#122=FACE_OUTER_BOUND('',#180,.T.);
#123=FACE_OUTER_BOUND('',#181,.T.);
#124=FACE_OUTER_BOUND('',#182,.T.);
#125=FACE_OUTER_BOUND('',#183,.T.);
#126=FACE_OUTER_BOUND('',#184,.T.);
#127=FACE_OUTER_BOUND('',#185,.T.);
#128=FACE_OUTER_BOUND('',#186,.T.);
#129=FACE_OUTER_BOUND('',#187,.T.);
#130=FACE_OUTER_BOUND('',#188,.T.);
#131=FACE_OUTER_BOUND('',#189,.T.);
#132=FACE_OUTER_BOUND('',#190,.T.);
#133=FACE_OUTER_BOUND('',#191,.T.);
#134=FACE_OUTER_BOUND('',#192,.T.);
#135=FACE_OUTER_BOUND('',#193,.T.);
#136=FACE_OUTER_BOUND('',#194,.T.);
#137=FACE_OUTER_BOUND('',#195,.T.);
#138=FACE_OUTER_BOUND('',#196,.T.);
#139=FACE_OUTER_BOUND('',#197,.T.);
#140=FACE_OUTER_BOUND('',#198,.T.);
#141=FACE_OUTER_BOUND('',#199,.T.);
#142=FACE_OUTER_BOUND('',#200,.T.);
#143=FACE_OUTER_BOUND('',#201,.T.);
#144=FACE_OUTER_BOUND('',#202,.T.);
#145=EDGE_LOOP('',(#579,#580,#581,#582));
#146=EDGE_LOOP('',(#583,#584,#585,#586));
#147=EDGE_LOOP('',(#587,#588,#589,#590));
#148=EDGE_LOOP('',(#591,#592,#593,#594));
#149=EDGE_LOOP('',(#595,#596,#597,#598));
#150=EDGE_LOOP('',(#599,#600,#601,#602));
#151=EDGE_LOOP('',(#603,#604,#605,#606));
#152=EDGE_LOOP('',(#607,#608,#609,#610));
#153=EDGE_LOOP('',(#611,#612,#613,#614));
#154=EDGE_LOOP('',(#615,#616,#617,#618));
#155=EDGE_LOOP('',(#619,#620,#621));
#156=EDGE_LOOP('',(#622,#623,#624,#625));
#157=EDGE_LOOP('',(#626,#627,#628));
#158=EDGE_LOOP('',(#629,#630,#631,#632));
#159=EDGE_LOOP('',(#633,#634,#635));
#160=EDGE_LOOP('',(#636,#637,#638,#639));
#161=EDGE_LOOP('',(#640,#641,#642,#643));
#162=EDGE_LOOP('',(#644,#645,#646,#647));
#163=EDGE_LOOP('',(#648,#649,#650,#651));
#164=EDGE_LOOP('',(#652,#653,#654,#655));
#165=EDGE_LOOP('',(#656,#657,#658));
#166=EDGE_LOOP('',(#659,#660,#661,#662));
#167=EDGE_LOOP('',(#663,#664,#665));
#168=EDGE_LOOP('',(#666,#667,#668));
#169=EDGE_LOOP('',(#669,#670,#671,#672));
#170=EDGE_LOOP('',(#673,#674,#675,#676));
#171=EDGE_LOOP('',(#677,#678,#679,#680));
#172=EDGE_LOOP('',(#681,#682,#683,#684));
#173=EDGE_LOOP('',(#685,#686,#687,#688));
#174=EDGE_LOOP('',(#689,#690,#691,#692));
#175=EDGE_LOOP('',(#693,#694,#695,#696));
#176=EDGE_LOOP('',(#697,#698,#699,#700));
#177=EDGE_LOOP('',(#701,#702,#703,#704));
#178=EDGE_LOOP('',(#705,#706,#707,#708));
#179=EDGE_LOOP('',(#709,#710,#711,#712));
#180=EDGE_LOOP('',(#713,#714,#715,#716));
#181=EDGE_LOOP('',(#717,#718,#719,#720,#721,#722,#723,#724,#725,#726,#727,
#728,#729,#730,#731,#732,#733,#734));
#182=EDGE_LOOP('',(#735,#736,#737,#738));
#183=EDGE_LOOP('',(#739,#740,#741,#742));
#184=EDGE_LOOP('',(#743,#744,#745,#746,#747,#748,#749,#750,#751,#752,#753,
#754,#755,#756,#757,#758));
#185=EDGE_LOOP('',(#759,#760,#761,#762));
#186=EDGE_LOOP('',(#763,#764,#765,#766));
#187=EDGE_LOOP('',(#767,#768,#769,#770));
#188=EDGE_LOOP('',(#771,#772,#773,#774));
#189=EDGE_LOOP('',(#775,#776,#777,#778));
#190=EDGE_LOOP('',(#779,#780,#781,#782));
#191=EDGE_LOOP('',(#783,#784,#785,#786));
#192=EDGE_LOOP('',(#787,#788,#789,#790));
#193=EDGE_LOOP('',(#791,#792,#793,#794));
#194=EDGE_LOOP('',(#795,#796,#797,#798));
#195=EDGE_LOOP('',(#799,#800,#801,#802));
#196=EDGE_LOOP('',(#803,#804,#805,#806,#807,#808,#809,#810,#811,#812));
#197=EDGE_LOOP('',(#813,#814,#815,#816));
#198=EDGE_LOOP('',(#817,#818,#819,#820));
#199=EDGE_LOOP('',(#821,#822,#823,#824));
#200=EDGE_LOOP('',(#825,#826,#827));
#201=EDGE_LOOP('',(#828,#829,#830));
#202=EDGE_LOOP('',(#831,#832,#833,#834));
#203=LINE('',#1321,#291);
#204=LINE('',#1323,#292);
#205=LINE('',#1325,#293);
#206=LINE('',#1326,#294);
#207=LINE('',#1329,#295);
#208=LINE('',#1331,#296);
#209=LINE('',#1333,#297);
#210=LINE('',#1334,#298);
#211=LINE('',#1338,#299);
#212=LINE('',#1343,#300);
#213=LINE('',#1345,#301);
#214=LINE('',#1346,#302);
#215=LINE('',#1351,#303);
#216=LINE('',#1355,#304);
#217=LINE('',#1357,#305);
#218=LINE('',#1358,#306);
#219=LINE('',#1362,#307);
#220=LINE('',#1367,#308);
#221=LINE('',#1369,#309);
#222=LINE('',#1370,#310);
#223=LINE('',#1374,#311);
#224=LINE('',#1379,#312);
#225=LINE('',#1381,#313);
#226=LINE('',#1382,#314);
#227=LINE('',#1387,#315);
#228=LINE('',#1389,#316);
#229=LINE('',#1391,#317);
#230=LINE('',#1392,#318);
#231=LINE('',#1398,#319);
#232=LINE('',#1400,#320);
#233=LINE('',#1401,#321);
#234=LINE('',#1402,#322);
#235=LINE('',#1407,#323);
#236=LINE('',#1409,#324);
#237=LINE('',#1411,#325);
#238=LINE('',#1412,#326);
#239=LINE('',#1416,#327);
#240=LINE('',#1421,#328);
#241=LINE('',#1423,#329);
#242=LINE('',#1424,#330);
#243=LINE('',#1428,#331);
#244=LINE('',#1433,#332);
#245=LINE('',#1435,#333);
#246=LINE('',#1436,#334);
#247=LINE('',#1441,#335);
#248=LINE('',#1443,#336);
#249=LINE('',#1444,#337);
#250=LINE('',#1445,#338);
#251=LINE('',#1452,#339);
#252=LINE('',#1455,#340);
#253=LINE('',#1458,#341);
#254=LINE('',#1459,#342);
#255=LINE('',#1462,#343);
#256=LINE('',#1466,#344);
#257=LINE('',#1467,#345);
#258=LINE('',#1470,#346);
#259=LINE('',#1474,#347);
#260=LINE('',#1475,#348);
#261=LINE('',#1478,#349);
#262=LINE('',#1482,#350);
#263=LINE('',#1483,#351);
#264=LINE('',#1486,#352);
#265=LINE('',#1490,#353);
#266=LINE('',#1491,#354);
#267=LINE('',#1494,#355);
#268=LINE('',#1498,#356);
#269=LINE('',#1499,#357);
#270=LINE('',#1503,#358);
#271=LINE('',#1506,#359);
#272=LINE('',#1509,#360);
#273=LINE('',#1510,#361);
#274=LINE('',#1512,#362);
#275=LINE('',#1517,#363);
#276=LINE('',#1520,#364);
#277=LINE('',#1531,#365);
#278=LINE('',#1532,#366);
#279=LINE('',#1540,#367);
#280=LINE('',#1541,#368);
#281=LINE('',#1544,#369);
#282=LINE('',#1545,#370);
#283=LINE('',#1548,#371);
#284=LINE('',#1552,#372);
#285=LINE('',#1553,#373);
#286=LINE('',#1556,#374);
#287=LINE('',#1559,#375);
#288=LINE('',#1563,#376);
#289=LINE('',#1565,#377);
#290=LINE('',#1566,#378);
#291=VECTOR('',#1035,10.);
#292=VECTOR('',#1036,10.);
#293=VECTOR('',#1037,10.);
#294=VECTOR('',#1038,10.);
#295=VECTOR('',#1041,10.);
#296=VECTOR('',#1042,10.);
#297=VECTOR('',#1043,10.);
#298=VECTOR('',#1044,10.);
#299=VECTOR('',#1047,10.);
#300=VECTOR('',#1054,10.);
#301=VECTOR('',#1055,10.);
#302=VECTOR('',#1056,10.);
#303=VECTOR('',#1061,10.);
#304=VECTOR('',#1066,10.);
#305=VECTOR('',#1067,10.);
#306=VECTOR('',#1068,10.);
#307=VECTOR('',#1071,10.);
#308=VECTOR('',#1078,10.);
#309=VECTOR('',#1079,10.);
#310=VECTOR('',#1080,10.);
#311=VECTOR('',#1083,10.);
#312=VECTOR('',#1090,10.);
#313=VECTOR('',#1091,10.);
#314=VECTOR('',#1092,10.);
#315=VECTOR('',#1099,10.);
#316=VECTOR('',#1100,10.);
#317=VECTOR('',#1101,10.);
#318=VECTOR('',#1102,10.);
#319=VECTOR('',#1109,10.);
#320=VECTOR('',#1110,10.);
#321=VECTOR('',#1111,10.);
#322=VECTOR('',#1112,10.);
#323=VECTOR('',#1119,10.);
#324=VECTOR('',#1120,10.);
#325=VECTOR('',#1121,10.);
#326=VECTOR('',#1122,10.);
#327=VECTOR('',#1125,10.);
#328=VECTOR('',#1132,10.);
#329=VECTOR('',#1133,10.);
#330=VECTOR('',#1134,10.);
#331=VECTOR('',#1137,10.);
#332=VECTOR('',#1144,10.);
#333=VECTOR('',#1145,10.);
#334=VECTOR('',#1146,10.);
#335=VECTOR('',#1153,10.);
#336=VECTOR('',#1154,10.);
#337=VECTOR('',#1155,10.);
#338=VECTOR('',#1156,10.);
#339=VECTOR('',#1167,10.);
#340=VECTOR('',#1170,10.);
#341=VECTOR('',#1173,10.);
#342=VECTOR('',#1174,10.);
#343=VECTOR('',#1177,10.);
#344=VECTOR('',#1182,10.);
#345=VECTOR('',#1183,10.);
#346=VECTOR('',#1186,10.);
#347=VECTOR('',#1191,10.);
#348=VECTOR('',#1192,10.);
#349=VECTOR('',#1195,10.);
#350=VECTOR('',#1200,10.);
#351=VECTOR('',#1201,10.);
#352=VECTOR('',#1204,10.);
#353=VECTOR('',#1209,10.);
#354=VECTOR('',#1210,10.);
#355=VECTOR('',#1213,10.);
#356=VECTOR('',#1218,10.);
#357=VECTOR('',#1219,10.);
#358=VECTOR('',#1224,10.);
#359=VECTOR('',#1227,10.);
#360=VECTOR('',#1230,10.);
#361=VECTOR('',#1231,10.);
#362=VECTOR('',#1234,10.);
#363=VECTOR('',#1241,10.);
#364=VECTOR('',#1244,10.);
#365=VECTOR('',#1257,10.);
#366=VECTOR('',#1258,10.);
#367=VECTOR('',#1269,10.);
#368=VECTOR('',#1270,10.);
#369=VECTOR('',#1273,10.);
#370=VECTOR('',#1274,1.);
#371=VECTOR('',#1277,10.);
#372=VECTOR('',#1282,10.);
#373=VECTOR('',#1283,10.);
#374=VECTOR('',#1286,10.);
#375=VECTOR('',#1291,10.);
#376=VECTOR('',#1296,10.);
#377=VECTOR('',#1297,10.);
#378=VECTOR('',#1298,1.);
#379=VERTEX_POINT('',#1319);
#380=VERTEX_POINT('',#1320);
#381=VERTEX_POINT('',#1322);
#382=VERTEX_POINT('',#1324);
#383=VERTEX_POINT('',#1328);
#384=VERTEX_POINT('',#1330);
#385=VERTEX_POINT('',#1332);
#386=VERTEX_POINT('',#1336);
#387=VERTEX_POINT('',#1337);
#388=VERTEX_POINT('',#1342);
#389=VERTEX_POINT('',#1344);
#390=VERTEX_POINT('',#1348);
#391=VERTEX_POINT('',#1350);
#392=VERTEX_POINT('',#1354);
#393=VERTEX_POINT('',#1356);
#394=VERTEX_POINT('',#1360);
#395=VERTEX_POINT('',#1361);
#396=VERTEX_POINT('',#1366);
#397=VERTEX_POINT('',#1368);
#398=VERTEX_POINT('',#1372);
#399=VERTEX_POINT('',#1373);
#400=VERTEX_POINT('',#1378);
#401=VERTEX_POINT('',#1380);
#402=VERTEX_POINT('',#1386);
#403=VERTEX_POINT('',#1388);
#404=VERTEX_POINT('',#1390);
#405=VERTEX_POINT('',#1396);
#406=VERTEX_POINT('',#1397);
#407=VERTEX_POINT('',#1399);
#408=VERTEX_POINT('',#1406);
#409=VERTEX_POINT('',#1408);
#410=VERTEX_POINT('',#1410);
#411=VERTEX_POINT('',#1414);
#412=VERTEX_POINT('',#1415);
#413=VERTEX_POINT('',#1420);
#414=VERTEX_POINT('',#1422);
#415=VERTEX_POINT('',#1426);
#416=VERTEX_POINT('',#1427);
#417=VERTEX_POINT('',#1432);
#418=VERTEX_POINT('',#1434);
#419=VERTEX_POINT('',#1440);
#420=VERTEX_POINT('',#1442);
#421=VERTEX_POINT('',#1451);
#422=VERTEX_POINT('',#1453);
#423=VERTEX_POINT('',#1457);
#424=VERTEX_POINT('',#1461);
#425=VERTEX_POINT('',#1465);
#426=VERTEX_POINT('',#1469);
#427=VERTEX_POINT('',#1473);
#428=VERTEX_POINT('',#1477);
#429=VERTEX_POINT('',#1481);
#430=VERTEX_POINT('',#1485);
#431=VERTEX_POINT('',#1489);
#432=VERTEX_POINT('',#1493);
#433=VERTEX_POINT('',#1497);
#434=VERTEX_POINT('',#1502);
#435=VERTEX_POINT('',#1504);
#436=VERTEX_POINT('',#1508);
#437=VERTEX_POINT('',#1516);
#438=VERTEX_POINT('',#1518);
#439=VERTEX_POINT('',#1522);
#440=VERTEX_POINT('',#1523);
#441=VERTEX_POINT('',#1528);
#442=VERTEX_POINT('',#1529);
#443=VERTEX_POINT('',#1534);
#444=VERTEX_POINT('',#1535);
#445=VERTEX_POINT('',#1543);
#446=VERTEX_POINT('',#1547);
#447=VERTEX_POINT('',#1551);
#448=VERTEX_POINT('',#1555);
#449=VERTEX_POINT('',#1562);
#450=VERTEX_POINT('',#1564);
#451=EDGE_CURVE('',#379,#380,#203,.T.);
#452=EDGE_CURVE('',#380,#381,#204,.T.);
#453=EDGE_CURVE('',#381,#382,#205,.T.);
#454=EDGE_CURVE('',#382,#379,#206,.T.);
#455=EDGE_CURVE('',#383,#381,#207,.T.);
#456=EDGE_CURVE('',#381,#384,#208,.T.);
#457=EDGE_CURVE('',#384,#385,#209,.T.);
#458=EDGE_CURVE('',#385,#383,#210,.T.);
#459=EDGE_CURVE('',#386,#387,#211,.T.);
#460=EDGE_CURVE('',#387,#385,#35,.T.);
#461=EDGE_CURVE('',#384,#386,#36,.T.);
#462=EDGE_CURVE('',#386,#388,#212,.T.);
#463=EDGE_CURVE('',#388,#389,#213,.T.);
#464=EDGE_CURVE('',#389,#387,#214,.T.);
#465=EDGE_CURVE('',#388,#390,#37,.T.);
#466=EDGE_CURVE('',#390,#391,#215,.T.);
#467=EDGE_CURVE('',#391,#389,#38,.T.);
#468=EDGE_CURVE('',#390,#392,#216,.T.);
#469=EDGE_CURVE('',#392,#393,#217,.T.);
#470=EDGE_CURVE('',#393,#391,#218,.T.);
#471=EDGE_CURVE('',#394,#395,#219,.T.);
#472=EDGE_CURVE('',#395,#393,#39,.T.);
#473=EDGE_CURVE('',#392,#394,#40,.T.);
#474=EDGE_CURVE('',#394,#396,#220,.T.);
#475=EDGE_CURVE('',#396,#397,#221,.T.);
#476=EDGE_CURVE('',#397,#395,#222,.T.);
#477=EDGE_CURVE('',#398,#399,#223,.T.);
#478=EDGE_CURVE('',#399,#397,#41,.T.);
#479=EDGE_CURVE('',#396,#398,#42,.T.);
#480=EDGE_CURVE('',#398,#400,#224,.T.);
#481=EDGE_CURVE('',#400,#401,#225,.T.);
#482=EDGE_CURVE('',#401,#399,#226,.T.);
#483=EDGE_CURVE('',#383,#382,#43,.T.);
#484=EDGE_CURVE('',#402,#400,#227,.T.);
#485=EDGE_CURVE('',#400,#403,#228,.T.);
#486=EDGE_CURVE('',#403,#404,#229,.T.);
#487=EDGE_CURVE('',#404,#402,#230,.T.);
#488=EDGE_CURVE('',#402,#401,#44,.T.);
#489=EDGE_CURVE('',#405,#406,#231,.T.);
#490=EDGE_CURVE('',#406,#407,#232,.T.);
#491=EDGE_CURVE('',#407,#403,#233,.T.);
#492=EDGE_CURVE('',#403,#405,#234,.T.);
#493=EDGE_CURVE('',#407,#404,#45,.T.);
#494=EDGE_CURVE('',#408,#405,#235,.T.);
#495=EDGE_CURVE('',#405,#409,#236,.T.);
#496=EDGE_CURVE('',#409,#410,#237,.T.);
#497=EDGE_CURVE('',#410,#408,#238,.T.);
#498=EDGE_CURVE('',#411,#412,#239,.T.);
#499=EDGE_CURVE('',#412,#410,#46,.T.);
#500=EDGE_CURVE('',#409,#411,#47,.T.);
#501=EDGE_CURVE('',#411,#413,#240,.T.);
#502=EDGE_CURVE('',#413,#414,#241,.T.);
#503=EDGE_CURVE('',#414,#412,#242,.T.);
#504=EDGE_CURVE('',#415,#416,#243,.T.);
#505=EDGE_CURVE('',#416,#414,#48,.T.);
#506=EDGE_CURVE('',#413,#415,#49,.T.);
#507=EDGE_CURVE('',#415,#417,#244,.T.);
#508=EDGE_CURVE('',#417,#418,#245,.T.);
#509=EDGE_CURVE('',#418,#416,#246,.T.);
#510=EDGE_CURVE('',#408,#406,#50,.T.);
#511=EDGE_CURVE('',#380,#419,#247,.T.);
#512=EDGE_CURVE('',#419,#420,#248,.T.);
#513=EDGE_CURVE('',#420,#417,#249,.T.);
#514=EDGE_CURVE('',#417,#380,#250,.T.);
#515=EDGE_CURVE('',#420,#418,#51,.T.);
#516=EDGE_CURVE('',#379,#419,#52,.T.);
#517=EDGE_CURVE('',#402,#421,#251,.T.);
#518=EDGE_CURVE('',#421,#422,#53,.T.);
#519=EDGE_CURVE('',#422,#401,#252,.T.);
#520=EDGE_CURVE('',#423,#404,#253,.T.);
#521=EDGE_CURVE('',#421,#423,#254,.T.);
#522=EDGE_CURVE('',#407,#424,#255,.T.);
#523=EDGE_CURVE('',#424,#423,#54,.T.);
#524=EDGE_CURVE('',#425,#406,#256,.T.);
#525=EDGE_CURVE('',#425,#424,#257,.T.);
#526=EDGE_CURVE('',#408,#426,#258,.T.);
#527=EDGE_CURVE('',#426,#425,#55,.T.);
#528=EDGE_CURVE('',#427,#410,#259,.T.);
#529=EDGE_CURVE('',#427,#426,#260,.T.);
#530=EDGE_CURVE('',#412,#428,#261,.T.);
#531=EDGE_CURVE('',#428,#427,#56,.T.);
#532=EDGE_CURVE('',#429,#414,#262,.T.);
#533=EDGE_CURVE('',#429,#428,#263,.T.);
#534=EDGE_CURVE('',#416,#430,#264,.T.);
#535=EDGE_CURVE('',#430,#429,#57,.T.);
#536=EDGE_CURVE('',#431,#418,#265,.T.);
#537=EDGE_CURVE('',#431,#430,#266,.T.);
#538=EDGE_CURVE('',#420,#432,#267,.T.);
#539=EDGE_CURVE('',#432,#431,#58,.T.);
#540=EDGE_CURVE('',#433,#419,#268,.T.);
#541=EDGE_CURVE('',#433,#432,#269,.T.);
#542=EDGE_CURVE('',#383,#434,#270,.T.);
#543=EDGE_CURVE('',#434,#435,#59,.T.);
#544=EDGE_CURVE('',#435,#382,#271,.T.);
#545=EDGE_CURVE('',#436,#435,#272,.T.);
#546=EDGE_CURVE('',#379,#436,#273,.T.);
#547=EDGE_CURVE('',#434,#422,#274,.T.);
#548=EDGE_CURVE('',#436,#433,#60,.T.);
#549=EDGE_CURVE('',#387,#437,#275,.T.);
#550=EDGE_CURVE('',#437,#438,#61,.T.);
#551=EDGE_CURVE('',#438,#385,#276,.T.);
#552=EDGE_CURVE('',#439,#440,#62,.T.);
#553=EDGE_CURVE('',#440,#438,#63,.T.);
#554=EDGE_CURVE('',#437,#439,#64,.T.);
#555=EDGE_CURVE('',#441,#442,#65,.T.);
#556=EDGE_CURVE('',#442,#440,#277,.T.);
#557=EDGE_CURVE('',#439,#441,#278,.T.);
#558=EDGE_CURVE('',#443,#444,#66,.T.);
#559=EDGE_CURVE('',#444,#442,#67,.T.);
#560=EDGE_CURVE('',#441,#443,#68,.T.);
#561=EDGE_CURVE('',#399,#444,#279,.T.);
#562=EDGE_CURVE('',#443,#397,#280,.T.);
#563=EDGE_CURVE('',#445,#443,#281,.T.);
#564=EDGE_CURVE('',#395,#445,#282,.T.);
#565=EDGE_CURVE('',#441,#446,#283,.T.);
#566=EDGE_CURVE('',#446,#445,#69,.T.);
#567=EDGE_CURVE('',#447,#439,#284,.T.);
#568=EDGE_CURVE('',#446,#447,#285,.T.);
#569=EDGE_CURVE('',#437,#448,#286,.T.);
#570=EDGE_CURVE('',#448,#447,#70,.T.);
#571=EDGE_CURVE('',#448,#389,#287,.T.);
#572=EDGE_CURVE('',#449,#393,#288,.T.);
#573=EDGE_CURVE('',#450,#449,#289,.T.);
#574=EDGE_CURVE('',#391,#450,#290,.T.);
#575=EDGE_CURVE('',#448,#450,#71,.T.);
#576=EDGE_CURVE('',#449,#445,#72,.T.);
#577=EDGE_CURVE('',#449,#446,#73,.T.);
#578=EDGE_CURVE('',#447,#450,#74,.T.);
#579=ORIENTED_EDGE('',*,*,#451,.T.);
#580=ORIENTED_EDGE('',*,*,#452,.T.);
#581=ORIENTED_EDGE('',*,*,#453,.T.);
#582=ORIENTED_EDGE('',*,*,#454,.T.);
#583=ORIENTED_EDGE('',*,*,#455,.T.);
#584=ORIENTED_EDGE('',*,*,#456,.T.);
#585=ORIENTED_EDGE('',*,*,#457,.T.);
#586=ORIENTED_EDGE('',*,*,#458,.T.);
#587=ORIENTED_EDGE('',*,*,#459,.T.);
#588=ORIENTED_EDGE('',*,*,#460,.T.);
#589=ORIENTED_EDGE('',*,*,#457,.F.);
#590=ORIENTED_EDGE('',*,*,#461,.T.);
#591=ORIENTED_EDGE('',*,*,#459,.F.);
#592=ORIENTED_EDGE('',*,*,#462,.T.);
#593=ORIENTED_EDGE('',*,*,#463,.T.);
#594=ORIENTED_EDGE('',*,*,#464,.T.);
#595=ORIENTED_EDGE('',*,*,#463,.F.);
#596=ORIENTED_EDGE('',*,*,#465,.T.);
#597=ORIENTED_EDGE('',*,*,#466,.T.);
#598=ORIENTED_EDGE('',*,*,#467,.T.);
#599=ORIENTED_EDGE('',*,*,#466,.F.);
#600=ORIENTED_EDGE('',*,*,#468,.T.);
#601=ORIENTED_EDGE('',*,*,#469,.T.);
#602=ORIENTED_EDGE('',*,*,#470,.T.);
#603=ORIENTED_EDGE('',*,*,#471,.T.);
#604=ORIENTED_EDGE('',*,*,#472,.T.);
#605=ORIENTED_EDGE('',*,*,#469,.F.);
#606=ORIENTED_EDGE('',*,*,#473,.T.);
#607=ORIENTED_EDGE('',*,*,#471,.F.);
#608=ORIENTED_EDGE('',*,*,#474,.T.);
#609=ORIENTED_EDGE('',*,*,#475,.T.);
#610=ORIENTED_EDGE('',*,*,#476,.T.);
#611=ORIENTED_EDGE('',*,*,#477,.T.);
#612=ORIENTED_EDGE('',*,*,#478,.T.);
#613=ORIENTED_EDGE('',*,*,#475,.F.);
#614=ORIENTED_EDGE('',*,*,#479,.T.);
#615=ORIENTED_EDGE('',*,*,#477,.F.);
#616=ORIENTED_EDGE('',*,*,#480,.T.);
#617=ORIENTED_EDGE('',*,*,#481,.T.);
#618=ORIENTED_EDGE('',*,*,#482,.T.);
#619=ORIENTED_EDGE('',*,*,#455,.F.);
#620=ORIENTED_EDGE('',*,*,#483,.T.);
#621=ORIENTED_EDGE('',*,*,#453,.F.);
#622=ORIENTED_EDGE('',*,*,#484,.T.);
#623=ORIENTED_EDGE('',*,*,#485,.T.);
#624=ORIENTED_EDGE('',*,*,#486,.T.);
#625=ORIENTED_EDGE('',*,*,#487,.T.);
#626=ORIENTED_EDGE('',*,*,#484,.F.);
#627=ORIENTED_EDGE('',*,*,#488,.T.);
#628=ORIENTED_EDGE('',*,*,#481,.F.);
#629=ORIENTED_EDGE('',*,*,#489,.T.);
#630=ORIENTED_EDGE('',*,*,#490,.T.);
#631=ORIENTED_EDGE('',*,*,#491,.T.);
#632=ORIENTED_EDGE('',*,*,#492,.T.);
#633=ORIENTED_EDGE('',*,*,#491,.F.);
#634=ORIENTED_EDGE('',*,*,#493,.T.);
#635=ORIENTED_EDGE('',*,*,#486,.F.);
#636=ORIENTED_EDGE('',*,*,#494,.T.);
#637=ORIENTED_EDGE('',*,*,#495,.T.);
#638=ORIENTED_EDGE('',*,*,#496,.T.);
#639=ORIENTED_EDGE('',*,*,#497,.T.);
#640=ORIENTED_EDGE('',*,*,#498,.T.);
#641=ORIENTED_EDGE('',*,*,#499,.T.);
#642=ORIENTED_EDGE('',*,*,#496,.F.);
#643=ORIENTED_EDGE('',*,*,#500,.T.);
#644=ORIENTED_EDGE('',*,*,#498,.F.);
#645=ORIENTED_EDGE('',*,*,#501,.T.);
#646=ORIENTED_EDGE('',*,*,#502,.T.);
#647=ORIENTED_EDGE('',*,*,#503,.T.);
#648=ORIENTED_EDGE('',*,*,#504,.T.);
#649=ORIENTED_EDGE('',*,*,#505,.T.);
#650=ORIENTED_EDGE('',*,*,#502,.F.);
#651=ORIENTED_EDGE('',*,*,#506,.T.);
#652=ORIENTED_EDGE('',*,*,#504,.F.);
#653=ORIENTED_EDGE('',*,*,#507,.T.);
#654=ORIENTED_EDGE('',*,*,#508,.T.);
#655=ORIENTED_EDGE('',*,*,#509,.T.);
#656=ORIENTED_EDGE('',*,*,#494,.F.);
#657=ORIENTED_EDGE('',*,*,#510,.T.);
#658=ORIENTED_EDGE('',*,*,#489,.F.);
#659=ORIENTED_EDGE('',*,*,#511,.T.);
#660=ORIENTED_EDGE('',*,*,#512,.T.);
#661=ORIENTED_EDGE('',*,*,#513,.T.);
#662=ORIENTED_EDGE('',*,*,#514,.T.);
#663=ORIENTED_EDGE('',*,*,#513,.F.);
#664=ORIENTED_EDGE('',*,*,#515,.T.);
#665=ORIENTED_EDGE('',*,*,#508,.F.);
#666=ORIENTED_EDGE('',*,*,#451,.F.);
#667=ORIENTED_EDGE('',*,*,#516,.T.);
#668=ORIENTED_EDGE('',*,*,#511,.F.);
#669=ORIENTED_EDGE('',*,*,#488,.F.);
#670=ORIENTED_EDGE('',*,*,#517,.T.);
#671=ORIENTED_EDGE('',*,*,#518,.T.);
#672=ORIENTED_EDGE('',*,*,#519,.T.);
#673=ORIENTED_EDGE('',*,*,#487,.F.);
#674=ORIENTED_EDGE('',*,*,#520,.F.);
#675=ORIENTED_EDGE('',*,*,#521,.F.);
#676=ORIENTED_EDGE('',*,*,#517,.F.);
#677=ORIENTED_EDGE('',*,*,#493,.F.);
#678=ORIENTED_EDGE('',*,*,#522,.T.);
#679=ORIENTED_EDGE('',*,*,#523,.T.);
#680=ORIENTED_EDGE('',*,*,#520,.T.);
#681=ORIENTED_EDGE('',*,*,#490,.F.);
#682=ORIENTED_EDGE('',*,*,#524,.F.);
#683=ORIENTED_EDGE('',*,*,#525,.T.);
#684=ORIENTED_EDGE('',*,*,#522,.F.);
#685=ORIENTED_EDGE('',*,*,#510,.F.);
#686=ORIENTED_EDGE('',*,*,#526,.T.);
#687=ORIENTED_EDGE('',*,*,#527,.T.);
#688=ORIENTED_EDGE('',*,*,#524,.T.);
#689=ORIENTED_EDGE('',*,*,#497,.F.);
#690=ORIENTED_EDGE('',*,*,#528,.F.);
#691=ORIENTED_EDGE('',*,*,#529,.T.);
#692=ORIENTED_EDGE('',*,*,#526,.F.);
#693=ORIENTED_EDGE('',*,*,#499,.F.);
#694=ORIENTED_EDGE('',*,*,#530,.T.);
#695=ORIENTED_EDGE('',*,*,#531,.T.);
#696=ORIENTED_EDGE('',*,*,#528,.T.);
#697=ORIENTED_EDGE('',*,*,#503,.F.);
#698=ORIENTED_EDGE('',*,*,#532,.F.);
#699=ORIENTED_EDGE('',*,*,#533,.T.);
#700=ORIENTED_EDGE('',*,*,#530,.F.);
#701=ORIENTED_EDGE('',*,*,#505,.F.);
#702=ORIENTED_EDGE('',*,*,#534,.T.);
#703=ORIENTED_EDGE('',*,*,#535,.T.);
#704=ORIENTED_EDGE('',*,*,#532,.T.);
#705=ORIENTED_EDGE('',*,*,#509,.F.);
#706=ORIENTED_EDGE('',*,*,#536,.F.);
#707=ORIENTED_EDGE('',*,*,#537,.T.);
#708=ORIENTED_EDGE('',*,*,#534,.F.);
#709=ORIENTED_EDGE('',*,*,#515,.F.);
#710=ORIENTED_EDGE('',*,*,#538,.T.);
#711=ORIENTED_EDGE('',*,*,#539,.T.);
#712=ORIENTED_EDGE('',*,*,#536,.T.);
#713=ORIENTED_EDGE('',*,*,#512,.F.);
#714=ORIENTED_EDGE('',*,*,#540,.F.);
#715=ORIENTED_EDGE('',*,*,#541,.T.);
#716=ORIENTED_EDGE('',*,*,#538,.F.);
#717=ORIENTED_EDGE('',*,*,#452,.F.);
#718=ORIENTED_EDGE('',*,*,#514,.F.);
#719=ORIENTED_EDGE('',*,*,#507,.F.);
#720=ORIENTED_EDGE('',*,*,#506,.F.);
#721=ORIENTED_EDGE('',*,*,#501,.F.);
#722=ORIENTED_EDGE('',*,*,#500,.F.);
#723=ORIENTED_EDGE('',*,*,#495,.F.);
#724=ORIENTED_EDGE('',*,*,#492,.F.);
#725=ORIENTED_EDGE('',*,*,#485,.F.);
#726=ORIENTED_EDGE('',*,*,#480,.F.);
#727=ORIENTED_EDGE('',*,*,#479,.F.);
#728=ORIENTED_EDGE('',*,*,#474,.F.);
#729=ORIENTED_EDGE('',*,*,#473,.F.);
#730=ORIENTED_EDGE('',*,*,#468,.F.);
#731=ORIENTED_EDGE('',*,*,#465,.F.);
#732=ORIENTED_EDGE('',*,*,#462,.F.);
#733=ORIENTED_EDGE('',*,*,#461,.F.);
#734=ORIENTED_EDGE('',*,*,#456,.F.);
#735=ORIENTED_EDGE('',*,*,#483,.F.);
#736=ORIENTED_EDGE('',*,*,#542,.T.);
#737=ORIENTED_EDGE('',*,*,#543,.T.);
#738=ORIENTED_EDGE('',*,*,#544,.T.);
#739=ORIENTED_EDGE('',*,*,#454,.F.);
#740=ORIENTED_EDGE('',*,*,#544,.F.);
#741=ORIENTED_EDGE('',*,*,#545,.F.);
#742=ORIENTED_EDGE('',*,*,#546,.F.);
#743=ORIENTED_EDGE('',*,*,#543,.F.);
#744=ORIENTED_EDGE('',*,*,#547,.T.);
#745=ORIENTED_EDGE('',*,*,#518,.F.);
#746=ORIENTED_EDGE('',*,*,#521,.T.);
#747=ORIENTED_EDGE('',*,*,#523,.F.);
#748=ORIENTED_EDGE('',*,*,#525,.F.);
#749=ORIENTED_EDGE('',*,*,#527,.F.);
#750=ORIENTED_EDGE('',*,*,#529,.F.);
#751=ORIENTED_EDGE('',*,*,#531,.F.);
#752=ORIENTED_EDGE('',*,*,#533,.F.);
#753=ORIENTED_EDGE('',*,*,#535,.F.);
#754=ORIENTED_EDGE('',*,*,#537,.F.);
#755=ORIENTED_EDGE('',*,*,#539,.F.);
#756=ORIENTED_EDGE('',*,*,#541,.F.);
#757=ORIENTED_EDGE('',*,*,#548,.F.);
#758=ORIENTED_EDGE('',*,*,#545,.T.);
#759=ORIENTED_EDGE('',*,*,#516,.F.);
#760=ORIENTED_EDGE('',*,*,#546,.T.);
#761=ORIENTED_EDGE('',*,*,#548,.T.);
#762=ORIENTED_EDGE('',*,*,#540,.T.);
#763=ORIENTED_EDGE('',*,*,#460,.F.);
#764=ORIENTED_EDGE('',*,*,#549,.T.);
#765=ORIENTED_EDGE('',*,*,#550,.T.);
#766=ORIENTED_EDGE('',*,*,#551,.T.);
#767=ORIENTED_EDGE('',*,*,#552,.T.);
#768=ORIENTED_EDGE('',*,*,#553,.T.);
#769=ORIENTED_EDGE('',*,*,#550,.F.);
#770=ORIENTED_EDGE('',*,*,#554,.T.);
#771=ORIENTED_EDGE('',*,*,#555,.T.);
#772=ORIENTED_EDGE('',*,*,#556,.T.);
#773=ORIENTED_EDGE('',*,*,#552,.F.);
#774=ORIENTED_EDGE('',*,*,#557,.T.);
#775=ORIENTED_EDGE('',*,*,#558,.T.);
#776=ORIENTED_EDGE('',*,*,#559,.T.);
#777=ORIENTED_EDGE('',*,*,#555,.F.);
#778=ORIENTED_EDGE('',*,*,#560,.T.);
#779=ORIENTED_EDGE('',*,*,#478,.F.);
#780=ORIENTED_EDGE('',*,*,#561,.T.);
#781=ORIENTED_EDGE('',*,*,#558,.F.);
#782=ORIENTED_EDGE('',*,*,#562,.T.);
#783=ORIENTED_EDGE('',*,*,#476,.F.);
#784=ORIENTED_EDGE('',*,*,#562,.F.);
#785=ORIENTED_EDGE('',*,*,#563,.F.);
#786=ORIENTED_EDGE('',*,*,#564,.F.);
#787=ORIENTED_EDGE('',*,*,#560,.F.);
#788=ORIENTED_EDGE('',*,*,#565,.T.);
#789=ORIENTED_EDGE('',*,*,#566,.T.);
#790=ORIENTED_EDGE('',*,*,#563,.T.);
#791=ORIENTED_EDGE('',*,*,#557,.F.);
#792=ORIENTED_EDGE('',*,*,#567,.F.);
#793=ORIENTED_EDGE('',*,*,#568,.F.);
#794=ORIENTED_EDGE('',*,*,#565,.F.);
#795=ORIENTED_EDGE('',*,*,#554,.F.);
#796=ORIENTED_EDGE('',*,*,#569,.T.);
#797=ORIENTED_EDGE('',*,*,#570,.T.);
#798=ORIENTED_EDGE('',*,*,#567,.T.);
#799=ORIENTED_EDGE('',*,*,#464,.F.);
#800=ORIENTED_EDGE('',*,*,#571,.F.);
#801=ORIENTED_EDGE('',*,*,#569,.F.);
#802=ORIENTED_EDGE('',*,*,#549,.F.);
#803=ORIENTED_EDGE('',*,*,#482,.F.);
#804=ORIENTED_EDGE('',*,*,#519,.F.);
#805=ORIENTED_EDGE('',*,*,#547,.F.);
#806=ORIENTED_EDGE('',*,*,#542,.F.);
#807=ORIENTED_EDGE('',*,*,#458,.F.);
#808=ORIENTED_EDGE('',*,*,#551,.F.);
#809=ORIENTED_EDGE('',*,*,#553,.F.);
#810=ORIENTED_EDGE('',*,*,#556,.F.);
#811=ORIENTED_EDGE('',*,*,#559,.F.);
#812=ORIENTED_EDGE('',*,*,#561,.F.);
#813=ORIENTED_EDGE('',*,*,#470,.F.);
#814=ORIENTED_EDGE('',*,*,#572,.F.);
#815=ORIENTED_EDGE('',*,*,#573,.F.);
#816=ORIENTED_EDGE('',*,*,#574,.F.);
#817=ORIENTED_EDGE('',*,*,#467,.F.);
#818=ORIENTED_EDGE('',*,*,#574,.T.);
#819=ORIENTED_EDGE('',*,*,#575,.F.);
#820=ORIENTED_EDGE('',*,*,#571,.T.);
#821=ORIENTED_EDGE('',*,*,#472,.F.);
#822=ORIENTED_EDGE('',*,*,#564,.T.);
#823=ORIENTED_EDGE('',*,*,#576,.F.);
#824=ORIENTED_EDGE('',*,*,#572,.T.);
#825=ORIENTED_EDGE('',*,*,#566,.F.);
#826=ORIENTED_EDGE('',*,*,#577,.F.);
#827=ORIENTED_EDGE('',*,*,#576,.T.);
#828=ORIENTED_EDGE('',*,*,#578,.F.);
#829=ORIENTED_EDGE('',*,*,#570,.F.);
#830=ORIENTED_EDGE('',*,*,#575,.T.);
#831=ORIENTED_EDGE('',*,*,#578,.T.);
#832=ORIENTED_EDGE('',*,*,#573,.T.);
#833=ORIENTED_EDGE('',*,*,#577,.T.);
#834=ORIENTED_EDGE('',*,*,#568,.T.);
#835=PLANE('',#933);
#836=PLANE('',#934);
#837=PLANE('',#938);
#838=PLANE('',#942);
#839=PLANE('',#946);
#840=PLANE('',#950);
#841=PLANE('',#953);
#842=PLANE('',#956);
#843=PLANE('',#959);
#844=PLANE('',#963);
#845=PLANE('',#967);
#846=PLANE('',#970);
#847=PLANE('',#977);
#848=PLANE('',#980);
#849=PLANE('',#983);
#850=PLANE('',#986);
#851=PLANE('',#989);
#852=PLANE('',#992);
#853=PLANE('',#993);
#854=PLANE('',#996);
#855=PLANE('',#997);
#856=PLANE('',#1013);
#857=PLANE('',#1016);
#858=PLANE('',#1019);
#859=PLANE('',#1020);
#860=PLANE('',#1021);
#861=ADVANCED_FACE('',(#87),#835,.T.);
#862=ADVANCED_FACE('',(#88),#836,.T.);
#863=ADVANCED_FACE('',(#89),#75,.F.);
#864=ADVANCED_FACE('',(#90),#837,.T.);
#865=ADVANCED_FACE('',(#91),#76,.T.);
#866=ADVANCED_FACE('',(#92),#838,.T.);
#867=ADVANCED_FACE('',(#93),#77,.T.);
#868=ADVANCED_FACE('',(#94),#839,.T.);
#869=ADVANCED_FACE('',(#95),#78,.F.);
#870=ADVANCED_FACE('',(#96),#840,.T.);
#871=ADVANCED_FACE('',(#97),#79,.T.);
#872=ADVANCED_FACE('',(#98),#841,.T.);
#873=ADVANCED_FACE('',(#99),#80,.T.);
#874=ADVANCED_FACE('',(#100),#842,.T.);
#875=ADVANCED_FACE('',(#101),#81,.T.);
#876=ADVANCED_FACE('',(#102),#843,.T.);
#877=ADVANCED_FACE('',(#103),#82,.F.);
#878=ADVANCED_FACE('',(#104),#844,.T.);
#879=ADVANCED_FACE('',(#105),#83,.F.);
#880=ADVANCED_FACE('',(#106),#845,.T.);
#881=ADVANCED_FACE('',(#107),#84,.T.);
#882=ADVANCED_FACE('',(#108),#846,.T.);
#883=ADVANCED_FACE('',(#109),#85,.T.);
#884=ADVANCED_FACE('',(#110),#86,.T.);
#885=ADVANCED_FACE('',(#111),#19,.T.);
#886=ADVANCED_FACE('',(#112),#847,.T.);
#887=ADVANCED_FACE('',(#113),#20,.T.);
#888=ADVANCED_FACE('',(#114),#848,.T.);
#889=ADVANCED_FACE('',(#115),#21,.T.);
#890=ADVANCED_FACE('',(#116),#849,.F.);
#891=ADVANCED_FACE('',(#117),#22,.F.);
#892=ADVANCED_FACE('',(#118),#850,.F.);
#893=ADVANCED_FACE('',(#119),#23,.F.);
#894=ADVANCED_FACE('',(#120),#851,.F.);
#895=ADVANCED_FACE('',(#121),#24,.T.);
#896=ADVANCED_FACE('',(#122),#852,.T.);
#897=ADVANCED_FACE('',(#123),#853,.T.);
#898=ADVANCED_FACE('',(#124),#25,.T.);
#899=ADVANCED_FACE('',(#125),#854,.T.);
#900=ADVANCED_FACE('',(#126),#855,.F.);
#901=ADVANCED_FACE('',(#127),#26,.T.);
#902=ADVANCED_FACE('',(#128),#27,.F.);
#903=ADVANCED_FACE('',(#129),#17,.F.);
#904=ADVANCED_FACE('',(#130),#28,.F.);
#905=ADVANCED_FACE('',(#131),#18,.F.);
#906=ADVANCED_FACE('',(#132),#29,.F.);
#907=ADVANCED_FACE('',(#133),#856,.T.);
#908=ADVANCED_FACE('',(#134),#30,.T.);
#909=ADVANCED_FACE('',(#135),#857,.T.);
#910=ADVANCED_FACE('',(#136),#31,.T.);
#911=ADVANCED_FACE('',(#137),#858,.T.);
#912=ADVANCED_FACE('',(#138),#859,.T.);
#913=ADVANCED_FACE('',(#139),#860,.T.);
#914=ADVANCED_FACE('',(#140),#32,.T.);
#915=ADVANCED_FACE('',(#141),#33,.T.);
#916=ADVANCED_FACE('',(#142),#15,.T.);
#917=ADVANCED_FACE('',(#143),#16,.T.);
#918=ADVANCED_FACE('',(#144),#34,.T.);
#919=CLOSED_SHELL('',(#861,#862,#863,#864,#865,#866,#867,#868,#869,#870,
#871,#872,#873,#874,#875,#876,#877,#878,#879,#880,#881,#882,#883,#884,#885,
#886,#887,#888,#889,#890,#891,#892,#893,#894,#895,#896,#897,#898,#899,#900,
#901,#902,#903,#904,#905,#906,#907,#908,#909,#910,#911,#912,#913,#914,#915,
#916,#917,#918));
#920=DERIVED_UNIT_ELEMENT(#922,1.);
#921=DERIVED_UNIT_ELEMENT(#1581,-3.);
#922=(
MASS_UNIT()
NAMED_UNIT(*)
SI_UNIT(.KILO.,.GRAM.)
);
#923=DERIVED_UNIT((#920,#921));
#924=MEASURE_REPRESENTATION_ITEM('density measure',
POSITIVE_RATIO_MEASURE(7850.),#923);
#925=PROPERTY_DEFINITION_REPRESENTATION(#930,#927);
#926=PROPERTY_DEFINITION_REPRESENTATION(#931,#928);
#927=REPRESENTATION('material name',(#929),#1578);
#928=REPRESENTATION('density',(#924),#1578);
#929=DESCRIPTIVE_REPRESENTATION_ITEM('Steel','Steel');
#930=PROPERTY_DEFINITION('material property','material name',#1588);
#931=PROPERTY_DEFINITION('material property','density of part',#1588);
#932=AXIS2_PLACEMENT_3D('',#1317,#1031,#1032);
#933=AXIS2_PLACEMENT_3D('',#1318,#1033,#1034);
#934=AXIS2_PLACEMENT_3D('',#1327,#1039,#1040);
#935=AXIS2_PLACEMENT_3D('',#1335,#1045,#1046);
#936=AXIS2_PLACEMENT_3D('',#1339,#1048,#1049);
#937=AXIS2_PLACEMENT_3D('',#1340,#1050,#1051);
#938=AXIS2_PLACEMENT_3D('',#1341,#1052,#1053);
#939=AXIS2_PLACEMENT_3D('',#1347,#1057,#1058);
#940=AXIS2_PLACEMENT_3D('',#1349,#1059,#1060);
#941=AXIS2_PLACEMENT_3D('',#1352,#1062,#1063);
#942=AXIS2_PLACEMENT_3D('',#1353,#1064,#1065);
#943=AXIS2_PLACEMENT_3D('',#1359,#1069,#1070);
#944=AXIS2_PLACEMENT_3D('',#1363,#1072,#1073);
#945=AXIS2_PLACEMENT_3D('',#1364,#1074,#1075);
#946=AXIS2_PLACEMENT_3D('',#1365,#1076,#1077);
#947=AXIS2_PLACEMENT_3D('',#1371,#1081,#1082);
#948=AXIS2_PLACEMENT_3D('',#1375,#1084,#1085);
#949=AXIS2_PLACEMENT_3D('',#1376,#1086,#1087);
#950=AXIS2_PLACEMENT_3D('',#1377,#1088,#1089);
#951=AXIS2_PLACEMENT_3D('',#1383,#1093,#1094);
#952=AXIS2_PLACEMENT_3D('',#1384,#1095,#1096);
#953=AXIS2_PLACEMENT_3D('',#1385,#1097,#1098);
#954=AXIS2_PLACEMENT_3D('',#1393,#1103,#1104);
#955=AXIS2_PLACEMENT_3D('',#1394,#1105,#1106);
#956=AXIS2_PLACEMENT_3D('',#1395,#1107,#1108);
#957=AXIS2_PLACEMENT_3D('',#1403,#1113,#1114);
#958=AXIS2_PLACEMENT_3D('',#1404,#1115,#1116);
#959=AXIS2_PLACEMENT_3D('',#1405,#1117,#1118);
#960=AXIS2_PLACEMENT_3D('',#1413,#1123,#1124);
#961=AXIS2_PLACEMENT_3D('',#1417,#1126,#1127);
#962=AXIS2_PLACEMENT_3D('',#1418,#1128,#1129);
#963=AXIS2_PLACEMENT_3D('',#1419,#1130,#1131);
#964=AXIS2_PLACEMENT_3D('',#1425,#1135,#1136);
#965=AXIS2_PLACEMENT_3D('',#1429,#1138,#1139);
#966=AXIS2_PLACEMENT_3D('',#1430,#1140,#1141);
#967=AXIS2_PLACEMENT_3D('',#1431,#1142,#1143);
#968=AXIS2_PLACEMENT_3D('',#1437,#1147,#1148);
#969=AXIS2_PLACEMENT_3D('',#1438,#1149,#1150);
#970=AXIS2_PLACEMENT_3D('',#1439,#1151,#1152);
#971=AXIS2_PLACEMENT_3D('',#1446,#1157,#1158);
#972=AXIS2_PLACEMENT_3D('',#1447,#1159,#1160);
#973=AXIS2_PLACEMENT_3D('',#1448,#1161,#1162);
#974=AXIS2_PLACEMENT_3D('',#1449,#1163,#1164);
#975=AXIS2_PLACEMENT_3D('',#1450,#1165,#1166);
#976=AXIS2_PLACEMENT_3D('',#1454,#1168,#1169);
#977=AXIS2_PLACEMENT_3D('',#1456,#1171,#1172);
#978=AXIS2_PLACEMENT_3D('',#1460,#1175,#1176);
#979=AXIS2_PLACEMENT_3D('',#1463,#1178,#1179);
#980=AXIS2_PLACEMENT_3D('',#1464,#1180,#1181);
#981=AXIS2_PLACEMENT_3D('',#1468,#1184,#1185);
#982=AXIS2_PLACEMENT_3D('',#1471,#1187,#1188);
#983=AXIS2_PLACEMENT_3D('',#1472,#1189,#1190);
#984=AXIS2_PLACEMENT_3D('',#1476,#1193,#1194);
#985=AXIS2_PLACEMENT_3D('',#1479,#1196,#1197);
#986=AXIS2_PLACEMENT_3D('',#1480,#1198,#1199);
#987=AXIS2_PLACEMENT_3D('',#1484,#1202,#1203);
#988=AXIS2_PLACEMENT_3D('',#1487,#1205,#1206);
#989=AXIS2_PLACEMENT_3D('',#1488,#1207,#1208);
#990=AXIS2_PLACEMENT_3D('',#1492,#1211,#1212);
#991=AXIS2_PLACEMENT_3D('',#1495,#1214,#1215);
#992=AXIS2_PLACEMENT_3D('',#1496,#1216,#1217);
#993=AXIS2_PLACEMENT_3D('',#1500,#1220,#1221);
#994=AXIS2_PLACEMENT_3D('',#1501,#1222,#1223);
#995=AXIS2_PLACEMENT_3D('',#1505,#1225,#1226);
#996=AXIS2_PLACEMENT_3D('',#1507,#1228,#1229);
#997=AXIS2_PLACEMENT_3D('',#1511,#1232,#1233);
#998=AXIS2_PLACEMENT_3D('',#1513,#1235,#1236);
#999=AXIS2_PLACEMENT_3D('',#1514,#1237,#1238);
#1000=AXIS2_PLACEMENT_3D('',#1515,#1239,#1240);
#1001=AXIS2_PLACEMENT_3D('',#1519,#1242,#1243);
#1002=AXIS2_PLACEMENT_3D('',#1521,#1245,#1246);
#1003=AXIS2_PLACEMENT_3D('',#1524,#1247,#1248);
#1004=AXIS2_PLACEMENT_3D('',#1525,#1249,#1250);
#1005=AXIS2_PLACEMENT_3D('',#1526,#1251,#1252);
#1006=AXIS2_PLACEMENT_3D('',#1527,#1253,#1254);
#1007=AXIS2_PLACEMENT_3D('',#1530,#1255,#1256);
#1008=AXIS2_PLACEMENT_3D('',#1533,#1259,#1260);
#1009=AXIS2_PLACEMENT_3D('',#1536,#1261,#1262);
#1010=AXIS2_PLACEMENT_3D('',#1537,#1263,#1264);
#1011=AXIS2_PLACEMENT_3D('',#1538,#1265,#1266);
#1012=AXIS2_PLACEMENT_3D('',#1539,#1267,#1268);
#1013=AXIS2_PLACEMENT_3D('',#1542,#1271,#1272);
#1014=AXIS2_PLACEMENT_3D('',#1546,#1275,#1276);
#1015=AXIS2_PLACEMENT_3D('',#1549,#1278,#1279);
#1016=AXIS2_PLACEMENT_3D('',#1550,#1280,#1281);
#1017=AXIS2_PLACEMENT_3D('',#1554,#1284,#1285);
#1018=AXIS2_PLACEMENT_3D('',#1557,#1287,#1288);
#1019=AXIS2_PLACEMENT_3D('',#1558,#1289,#1290);
#1020=AXIS2_PLACEMENT_3D('',#1560,#1292,#1293);
#1021=AXIS2_PLACEMENT_3D('',#1561,#1294,#1295);
#1022=AXIS2_PLACEMENT_3D('',#1567,#1299,#1300);
#1023=AXIS2_PLACEMENT_3D('',#1568,#1301,#1302);
#1024=AXIS2_PLACEMENT_3D('',#1569,#1303,#1304);
#1025=AXIS2_PLACEMENT_3D('',#1570,#1305,#1306);
#1026=AXIS2_PLACEMENT_3D('',#1571,#1307,#1308);
#1027=AXIS2_PLACEMENT_3D('',#1572,#1309,#1310);
#1028=AXIS2_PLACEMENT_3D('',#1573,#1311,#1312);
#1029=AXIS2_PLACEMENT_3D('',#1574,#1313,#1314);
#1030=AXIS2_PLACEMENT_3D('',#1575,#1315,#1316);
#1031=DIRECTION('axis',(0.,0.,1.));
#1032=DIRECTION('refdir',(1.,0.,0.));
#1033=DIRECTION('center_axis',(-0.707106781186516,-1.80203917095898E-13,
-0.707106781186579));
#1034=DIRECTION('ref_axis',(-0.707106781186579,0.,0.707106781186516));
#1035=DIRECTION('',(-0.707106781186579,1.25607396694699E-13,0.707106781186516));
#1036=DIRECTION('',(1.80411241509091E-16,1.,-2.55027234791273E-13));
#1037=DIRECTION('',(0.707106781186579,-1.25607396694699E-13,-0.707106781186516));
#1038=DIRECTION('',(-1.80411241509091E-16,-1.,2.55027234791273E-13));
#1039=DIRECTION('center_axis',(-0.707106781186516,0.707106781186579,-1.80874654229013E-13));
#1040=DIRECTION('ref_axis',(-2.55795389100226E-13,0.,1.));
#1041=DIRECTION('',(-0.707106781186579,-0.707106781186516,1.25607396694699E-13));
#1042=DIRECTION('',(4.61349062843816E-29,2.55795389100203E-13,1.));
#1043=DIRECTION('',(0.707106781186516,0.707106781186579,-1.25607396694688E-13));
#1044=DIRECTION('',(-4.61349062843816E-29,-2.55795389100203E-13,-1.));
#1045=DIRECTION('center_axis',(-1.,0.,0.));
#1046=DIRECTION('ref_axis',(-8.50466748488925E-17,-0.707106781186422,0.707106781186673));
#1047=DIRECTION('',(0.707106781186485,0.,-0.70710678118661));
#1048=DIRECTION('center_axis',(1.,-1.80411241509091E-16,1.34574354869699E-32));
#1049=DIRECTION('ref_axis',(0.,-0.707106781186422,0.707106781186673));
#1050=DIRECTION('center_axis',(-1.,1.80411241509091E-16,-1.34574354869699E-32));
#1051=DIRECTION('ref_axis',(-1.27570012273339E-16,-0.707106781186422,0.707106781186673));
#1052=DIRECTION('center_axis',(-0.707106781186548,1.27570012273344E-16,
-0.707106781186548));
#1053=DIRECTION('ref_axis',(-0.707106781186548,0.,0.707106781186548));
#1054=DIRECTION('',(1.80411241509091E-16,1.,-2.5342156580225E-29));
#1055=DIRECTION('',(0.707106781186548,0.,-0.707106781186548));
#1056=DIRECTION('',(-1.80411241509091E-16,-1.,2.5342156580225E-29));
#1057=DIRECTION('center_axis',(1.,0.,0.));
#1058=DIRECTION('ref_axis',(1.09170491271485E-16,0.707106781186517,-0.707106781186578));
#1059=DIRECTION('center_axis',(1.,-1.80411241509091E-16,1.34574354869699E-32));
#1060=DIRECTION('ref_axis',(1.27570012273357E-16,0.707106781186517,-0.707106781186578));
#1061=DIRECTION('',(0.707106781186485,0.70710678118661,0.));
#1062=DIRECTION('center_axis',(-1.,1.80411241509091E-16,-1.34574354869699E-32));
#1063=DIRECTION('ref_axis',(9.81307786703635E-17,0.707106781186517,-0.707106781186578));
#1064=DIRECTION('center_axis',(-0.707106781186548,0.707106781186548,-1.79291266116586E-29));
#1065=DIRECTION('ref_axis',(-2.5355614015712E-29,0.,1.));
#1066=DIRECTION('',(-1.34574354869653E-32,2.5342156580225E-29,1.));
#1067=DIRECTION('',(0.707106781186548,0.707106781186548,0.));
#1068=DIRECTION('',(1.34574354869653E-32,-2.5342156580225E-29,-1.));
#1069=DIRECTION('center_axis',(1.,0.,0.));
#1070=DIRECTION('ref_axis',(1.09170491271497E-16,0.707106781186568,0.707106781186527));
#1071=DIRECTION('',(0.707106781186485,0.,0.70710678118661));
#1072=DIRECTION('center_axis',(-1.,1.80411241509091E-16,-1.34574354869699E-32));
#1073=DIRECTION('ref_axis',(9.81307786703761E-17,0.707106781186568,0.707106781186527));
#1074=DIRECTION('center_axis',(1.,-1.80411241509091E-16,1.34574354869699E-32));
#1075=DIRECTION('ref_axis',(1.27570012273366E-16,0.707106781186568,0.707106781186527));
#1076=DIRECTION('center_axis',(-0.707106781186548,1.2757001227338E-16,0.707106781186548));
#1077=DIRECTION('ref_axis',(0.707106781186548,0.,0.707106781186548));
#1078=DIRECTION('',(-1.80411241509091E-16,-1.,2.5342156580225E-29));
#1079=DIRECTION('',(0.707106781186548,0.,0.707106781186548));
#1080=DIRECTION('',(1.80411241509091E-16,1.,-2.5342156580225E-29));
#1081=DIRECTION('center_axis',(-1.,0.,0.));
#1082=DIRECTION('ref_axis',(-8.50466748489077E-17,-0.707106781186548,-0.707106781186548));
#1083=DIRECTION('',(0.707106781186485,0.70710678118661,-1.25607396694716E-13));
#1084=DIRECTION('center_axis',(1.,-1.80411241509091E-16,1.34574354869699E-32));
#1085=DIRECTION('ref_axis',(0.,-0.707106781186548,-0.707106781186548));
#1086=DIRECTION('center_axis',(-1.,1.80411241509091E-16,-1.34574354869699E-32));
#1087=DIRECTION('ref_axis',(-1.27570012273362E-16,-0.707106781186547,-0.707106781186547));
#1088=DIRECTION('center_axis',(-0.707106781186579,0.707106781186516,-1.80874654228997E-13));
#1089=DIRECTION('ref_axis',(-2.5579538910018E-13,0.,1.));
#1090=DIRECTION('',(4.61349062843816E-29,2.55795389100203E-13,1.));
#1091=DIRECTION('',(0.707106781186516,0.707106781186579,-1.25607396694688E-13));
#1092=DIRECTION('',(-4.61349062843816E-29,-2.55795389100203E-13,-1.));
#1093=DIRECTION('center_axis',(1.,1.79332046234135E-15,1.34574354868542E-32));
#1094=DIRECTION('ref_axis',(0.,0.707106781186459,-0.707106781186636));
#1095=DIRECTION('center_axis',(-1.,-1.79332046234135E-15,-1.34574354868542E-32));
#1096=DIRECTION('ref_axis',(0.,0.707106781186459,-0.707106781186636));
#1097=DIRECTION('center_axis',(-0.707106781186579,1.80459057120428E-13,
0.707106781186516));
#1098=DIRECTION('ref_axis',(0.707106781186516,0.,0.707106781186579));
#1099=DIRECTION('',(-0.707106781186516,-1.2560739669471E-13,-0.707106781186579));
#1100=DIRECTION('',(-1.80411241509091E-16,-1.,2.55027234791273E-13));
#1101=DIRECTION('',(0.707106781186516,1.2560739669471E-13,0.707106781186579));
#1102=DIRECTION('',(1.80411241509091E-16,1.,-2.55027234791273E-13));
#1103=DIRECTION('center_axis',(1.,1.79332046234135E-15,1.34574354868542E-32));
#1104=DIRECTION('ref_axis',(0.,0.707106781186814,0.707106781186281));
#1105=DIRECTION('center_axis',(-1.,-1.79332046234135E-15,-1.34574354868542E-32));
#1106=DIRECTION('ref_axis',(0.,0.707106781186814,0.707106781186281));
#1107=DIRECTION('center_axis',(-0.707106781186548,-0.707106781186548,1.80382275380573E-13));
#1108=DIRECTION('ref_axis',(2.55099060254924E-13,0.,1.));
#1109=DIRECTION('',(0.70710678118661,-0.707106781186485,1.25607396694716E-13));
#1110=DIRECTION('',(4.60092807329062E-29,2.55099060254924E-13,1.));
#1111=DIRECTION('',(-0.70710678118661,0.707106781186485,-1.25607396694716E-13));
#1112=DIRECTION('',(-4.60092807329062E-29,-2.55099060254924E-13,-1.));
#1113=DIRECTION('center_axis',(1.,1.50851553470963E-14,-3.38976643852574E-27));
#1114=DIRECTION('ref_axis',(0.,-0.707106781186459,0.707106781186636));
#1115=DIRECTION('center_axis',(-1.,-1.50851553470963E-14,3.38976643852574E-27));
#1116=DIRECTION('ref_axis',(0.,-0.707106781186459,0.707106781186636));
#1117=DIRECTION('center_axis',(-0.707106781186548,1.27570012273344E-16,
-0.707106781186548));
#1118=DIRECTION('ref_axis',(-0.707106781186548,0.,0.707106781186548));
#1119=DIRECTION('',(-0.707106781186548,0.,0.707106781186548));
#1120=DIRECTION('',(1.80411241509091E-16,1.,-2.5342156580225E-29));
#1121=DIRECTION('',(0.707106781186548,0.,-0.707106781186548));
#1122=DIRECTION('',(-1.80411241509091E-16,-1.,2.5342156580225E-29));
#1123=DIRECTION('center_axis',(-1.,0.,0.));
#1124=DIRECTION('ref_axis',(7.44158404928007E-17,0.707106781186598,0.707106781186497));
#1125=DIRECTION('',(0.707106781186485,-0.70710678118661,0.));
#1126=DIRECTION('center_axis',(1.,-1.80411241509091E-16,1.34574354869699E-32));
#1127=DIRECTION('ref_axis',(0.,0.707106781186598,0.707106781186497));
#1128=DIRECTION('center_axis',(-1.,1.80411241509091E-16,-1.34574354869699E-32));
#1129=DIRECTION('ref_axis',(1.27570012273371E-16,0.707106781186598,0.707106781186497));
#1130=DIRECTION('center_axis',(-0.707106781186548,-0.707106781186548,1.79100949238782E-29));
#1131=DIRECTION('ref_axis',(2.5328699144738E-29,0.,1.));
#1132=DIRECTION('',(1.34574354869653E-32,-2.5342156580225E-29,-1.));
#1133=DIRECTION('',(0.707106781186548,-0.707106781186548,0.));
#1134=DIRECTION('',(-1.34574354869653E-32,2.5342156580225E-29,1.));
#1135=DIRECTION('center_axis',(-1.,0.,0.));
#1136=DIRECTION('ref_axis',(7.44158404927901E-17,0.707106781186497,-0.707106781186598));
#1137=DIRECTION('',(0.707106781186485,0.,0.70710678118661));
#1138=DIRECTION('center_axis',(1.,-1.80411241509091E-16,1.34574354869699E-32));
#1139=DIRECTION('ref_axis',(0.,0.707106781186497,-0.707106781186598));
#1140=DIRECTION('center_axis',(-1.,1.80411241509091E-16,-1.34574354869699E-32));
#1141=DIRECTION('ref_axis',(1.27570012273353E-16,0.707106781186497,-0.707106781186598));
#1142=DIRECTION('center_axis',(-0.707106781186548,1.2757001227338E-16,0.707106781186548));
#1143=DIRECTION('ref_axis',(0.707106781186548,0.,0.707106781186548));
#1144=DIRECTION('',(-1.80411241509091E-16,-1.,2.5342156580225E-29));
#1145=DIRECTION('',(0.707106781186548,0.,0.707106781186548));
#1146=DIRECTION('',(1.80411241509091E-16,1.,-2.5342156580225E-29));
#1147=DIRECTION('center_axis',(1.,1.50851553470963E-14,1.3457435486583E-32));
#1148=DIRECTION('ref_axis',(0.,-0.707106781186547,-0.707106781186547));
#1149=DIRECTION('center_axis',(-1.,-1.50851553470963E-14,-1.3457435486583E-32));
#1150=DIRECTION('ref_axis',(0.,-0.707106781186547,-0.707106781186547));
#1151=DIRECTION('center_axis',(-0.707106781186548,-0.707106781186548,1.80382275380573E-13));
#1152=DIRECTION('ref_axis',(2.55099060254924E-13,0.,1.));
#1153=DIRECTION('',(0.707106781186548,-0.707106781186548,1.25607396694705E-13));
#1154=DIRECTION('',(4.60092807329062E-29,2.55099060254924E-13,1.));
#1155=DIRECTION('',(-0.707106781186548,0.707106781186548,-1.25607396694705E-13));
#1156=DIRECTION('',(-4.60092807329062E-29,-2.55099060254924E-13,-1.));
#1157=DIRECTION('center_axis',(1.,1.50851553470963E-14,1.3457435486583E-32));
#1158=DIRECTION('ref_axis',(0.,-0.707106781186547,0.707106781186547));
#1159=DIRECTION('center_axis',(-1.,-1.50851553470963E-14,-1.3457435486583E-32));
#1160=DIRECTION('ref_axis',(0.,-0.707106781186547,0.707106781186547));
#1161=DIRECTION('center_axis',(1.,1.50851553470963E-14,-3.38976643852574E-27));
#1162=DIRECTION('ref_axis',(0.,-0.707106781186636,-0.707106781186459));
#1163=DIRECTION('center_axis',(-1.,-1.50851553470963E-14,3.38976643852574E-27));
#1164=DIRECTION('ref_axis',(0.,-0.707106781186636,-0.707106781186459));
#1165=DIRECTION('center_axis',(1.,1.79332046234135E-15,1.34574354868542E-32));
#1166=DIRECTION('ref_axis',(0.,0.707106781186799,0.707106781186296));
#1167=DIRECTION('',(1.,1.79332046234135E-15,1.34574354868542E-32));
#1168=DIRECTION('center_axis',(-1.,-1.09634523681376E-15,1.29195333218328E-28));
#1169=DIRECTION('ref_axis',(0.,0.707106781186799,0.707106781186296));
#1170=DIRECTION('',(-1.,-1.79332046234135E-15,-1.34574354868542E-32));
#1171=DIRECTION('center_axis',(-4.5735901604101E-28,2.55027234791273E-13,
1.));
#1172=DIRECTION('ref_axis',(-1.09634523681376E-15,1.,-2.55027234791273E-13));
#1173=DIRECTION('',(-1.,-1.50851553470963E-14,3.38976643852574E-27));
#1174=DIRECTION('',(1.09634523681376E-15,-1.,2.55027234791273E-13));
#1175=DIRECTION('center_axis',(-1.,-1.50851553470963E-14,3.38976643852574E-27));
#1176=DIRECTION('ref_axis',(0.,-0.707106781186422,0.707106781186673));
#1177=DIRECTION('',(1.,1.50851553470963E-14,-3.38976643852574E-27));
#1178=DIRECTION('center_axis',(-1.,-1.09634523681376E-15,1.29195333218328E-28));
#1179=DIRECTION('ref_axis',(0.,-0.707106781186422,0.707106781186673));
#1180=DIRECTION('center_axis',(1.50851553470963E-14,-1.,2.55099060254924E-13));
#1181=DIRECTION('ref_axis',(-2.97545006073741E-53,-2.55099060254924E-13,
-1.));
#1182=DIRECTION('',(-1.,-1.50851553470963E-14,-1.3457435486583E-32));
#1183=DIRECTION('',(-1.50481306407823E-28,2.55099060254924E-13,1.));
#1184=DIRECTION('center_axis',(1.,1.50851553470963E-14,1.3457435486583E-32));
#1185=DIRECTION('ref_axis',(0.,-0.707106781186548,-0.707106781186548));
#1186=DIRECTION('',(1.,1.50851553470963E-14,1.3457435486583E-32));
#1187=DIRECTION('center_axis',(-1.,-1.09634523681376E-15,1.29195333218328E-28));
#1188=DIRECTION('ref_axis',(0.,-0.707106781186548,-0.707106781186548));
#1189=DIRECTION('center_axis',(-1.34574354869653E-32,2.5342156580225E-29,
1.));
#1190=DIRECTION('ref_axis',(-1.80411241512819E-16,-1.,2.5342156580225E-29));
#1191=DIRECTION('',(-1.,1.80411241509091E-16,-1.34574354869699E-32));
#1192=DIRECTION('',(1.09634523681376E-15,-1.,2.5342156580225E-29));
#1193=DIRECTION('center_axis',(1.,-1.80411241509091E-16,1.34574354869699E-32));
#1194=DIRECTION('ref_axis',(0.,0.707106781186598,0.707106781186497));
#1195=DIRECTION('',(1.,-1.80411241509091E-16,1.34574354869699E-32));
#1196=DIRECTION('center_axis',(1.,1.09634523681376E-15,-1.29195333218328E-28));
#1197=DIRECTION('ref_axis',(0.,0.707106781186598,0.707106781186497));
#1198=DIRECTION('center_axis',(1.80411241509091E-16,1.,-2.5342156580225E-29));
#1199=DIRECTION('ref_axis',(-9.97390969955134E-32,2.5342156580225E-29,1.));
#1200=DIRECTION('',(-1.,1.80411241509091E-16,-1.34574354869699E-32));
#1201=DIRECTION('',(1.29195333218328E-28,2.5342156580225E-29,1.));
#1202=DIRECTION('center_axis',(1.,-1.80411241509091E-16,1.34574354869699E-32));
#1203=DIRECTION('ref_axis',(0.,0.707106781186497,-0.707106781186598));
#1204=DIRECTION('',(1.,-1.80411241509091E-16,1.34574354869699E-32));
#1205=DIRECTION('center_axis',(1.,1.09634523681376E-15,-1.29195333218328E-28));
#1206=DIRECTION('ref_axis',(0.,0.707106781186497,-0.707106781186598));
#1207=DIRECTION('center_axis',(1.34574354869653E-32,-2.5342156580225E-29,
-1.));
#1208=DIRECTION('ref_axis',(1.80411241512819E-16,1.,-2.5342156580225E-29));
#1209=DIRECTION('',(-1.,-1.50851553470963E-14,-1.3457435486583E-32));
#1210=DIRECTION('',(-1.09634523681376E-15,1.,-2.5342156580225E-29));
#1211=DIRECTION('center_axis',(-1.,-1.50851553470963E-14,-1.3457435486583E-32));
#1212=DIRECTION('ref_axis',(0.,-0.707106781186548,0.707106781186548));
#1213=DIRECTION('',(1.,1.50851553470963E-14,1.3457435486583E-32));
#1214=DIRECTION('center_axis',(-1.,-1.09634523681376E-15,1.29195333218328E-28));
#1215=DIRECTION('ref_axis',(0.,-0.707106781186548,0.707106781186548));
#1216=DIRECTION('center_axis',(1.50851553470963E-14,-1.,2.55099060254924E-13));
#1217=DIRECTION('ref_axis',(-2.97545006073741E-53,-2.55099060254924E-13,
-1.));
#1218=DIRECTION('',(-1.,-1.50851553470963E-14,3.38976643852574E-27));
#1219=DIRECTION('',(-1.50481306407823E-28,2.55099060254924E-13,1.));
#1220=DIRECTION('center_axis',(-1.,1.80411241509091E-16,-1.34574354869699E-32));
#1221=DIRECTION('ref_axis',(-1.34574354869699E-32,1.56966188730996E-72,
1.));
#1222=DIRECTION('center_axis',(-1.,-1.79332046234135E-15,-1.34574354868542E-32));
#1223=DIRECTION('ref_axis',(0.,0.707106781186422,-0.707106781186673));
#1224=DIRECTION('',(1.,1.79332046234135E-15,1.34574354868542E-32));
#1225=DIRECTION('center_axis',(-1.,-1.09634523681376E-15,1.29195333218328E-28));
#1226=DIRECTION('ref_axis',(0.,0.707106781186422,-0.707106781186673));
#1227=DIRECTION('',(-1.,-1.79332046234135E-15,-1.34574354868542E-32));
#1228=DIRECTION('center_axis',(4.5735901604101E-28,-2.55027234791273E-13,
-1.));
#1229=DIRECTION('ref_axis',(1.09634523681376E-15,-1.,2.55027234791273E-13));
#1230=DIRECTION('',(-1.09634523681376E-15,1.,-2.55027234791273E-13));
#1231=DIRECTION('',(1.,1.50851553470963E-14,-3.38976643852574E-27));
#1232=DIRECTION('center_axis',(-1.,-1.09634523681376E-15,1.29195333218328E-28));
#1233=DIRECTION('ref_axis',(1.09634523681376E-15,-1.,4.22656678349332E-21));
#1234=DIRECTION('',(-1.51244723220601E-28,2.55795389100203E-13,1.));
#1235=DIRECTION('center_axis',(-1.,-1.09634523681376E-15,1.29195333218328E-28));
#1236=DIRECTION('ref_axis',(0.,-0.707106781186673,-0.707106781186422));
#1237=DIRECTION('center_axis',(1.,1.50851553470963E-14,-3.38976643852574E-27));
#1238=DIRECTION('ref_axis',(0.,-0.707106781186673,-0.707106781186422));
#1239=DIRECTION('center_axis',(1.,1.79332046234135E-15,1.34574354869198E-32));
#1240=DIRECTION('ref_axis',(0.,-0.707106781186422,0.707106781186673));
#1241=DIRECTION('',(1.,1.79332046234135E-15,1.34574354869198E-32));
#1242=DIRECTION('center_axis',(1.,0.,0.));
#1243=DIRECTION('ref_axis',(0.,0.,1.));
#1244=DIRECTION('',(-1.,-1.79332046234135E-15,-1.34574354869198E-32));
#1245=DIRECTION('center_axis',(-1.79332046234135E-15,1.,-2.55795389100203E-13));
#1246=DIRECTION('ref_axis',(0.,2.52637417159153E-13,1.));
#1247=DIRECTION('center_axis',(0.,1.77635683938672E-13,1.));
#1248=DIRECTION('ref_axis',(-1.,0.,0.));
#1249=DIRECTION('center_axis',(-1.79332046234135E-15,1.,-2.55795389100203E-13));
#1250=DIRECTION('ref_axis',(0.707106781186514,-1.79606585169251E-13,-0.707106781186581));
#1251=DIRECTION('center_axis',(1.79332046234135E-15,-1.,2.55795389100203E-13));
#1252=DIRECTION('ref_axis',(0.707106781186514,-1.7964796317215E-13,-0.707106781186581));
#1253=DIRECTION('center_axis',(-1.51331004881663E-28,2.55795389100203E-13,
1.));
#1254=DIRECTION('ref_axis',(-0.70710678118661,-0.707106781186485,2.51214793389432E-13));
#1255=DIRECTION('center_axis',(0.,1.77635683940029E-13,1.));
#1256=DIRECTION('ref_axis',(-1.,0.,0.));
#1257=DIRECTION('',(1.51331004881663E-28,-2.55795389100203E-13,-1.));
#1258=DIRECTION('',(-1.51331004881663E-28,2.55795389100203E-13,1.));
#1259=DIRECTION('center_axis',(-1.79332046234135E-15,1.,-2.55795389100203E-13));
#1260=DIRECTION('ref_axis',(0.,2.52637417159153E-13,1.));
#1261=DIRECTION('center_axis',(-1.,0.,0.));
#1262=DIRECTION('ref_axis',(0.,-3.55271367880058E-13,-1.));
#1263=DIRECTION('center_axis',(-1.79332046234135E-15,1.,-2.55795389100203E-13));
#1264=DIRECTION('ref_axis',(0.707106781186616,1.8214272328875E-13,0.707106781186479));
#1265=DIRECTION('center_axis',(1.79332046234135E-15,-1.,2.55795389100203E-13));
#1266=DIRECTION('ref_axis',(0.707106781186616,1.82145964977583E-13,0.707106781186479));
#1267=DIRECTION('center_axis',(-1.,-1.79332046234135E-15,-1.34574354869198E-32));
#1268=DIRECTION('ref_axis',(0.,-0.707106781186548,-0.707106781186548));
#1269=DIRECTION('',(1.,1.79332046234135E-15,1.34574354869198E-32));
#1270=DIRECTION('',(-1.,-1.79332046234135E-15,-1.34574354869198E-32));
#1271=DIRECTION('center_axis',(-1.34574354869653E-32,2.5342156580225E-29,
1.));
#1272=DIRECTION('ref_axis',(-1.80411241512819E-16,-1.,2.5342156580225E-29));
#1273=DIRECTION('',(1.09634523681003E-15,-1.,2.5342156580225E-29));
#1274=DIRECTION('',(1.,-1.80411241509091E-16,1.34574354869699E-32));
#1275=DIRECTION('center_axis',(-1.09634523681003E-15,1.,-2.5342156580225E-29));
#1276=DIRECTION('ref_axis',(0.707106781186568,7.39660744205459E-16,0.707106781186527));
#1277=DIRECTION('',(-1.09634523681003E-15,1.,-2.5342156580225E-29));
#1278=DIRECTION('center_axis',(9.71445146543282E-16,-1.,1.18481613409218E-15));
#1279=DIRECTION('ref_axis',(1.,9.71445146543282E-16,-3.1185620622158E-31));
#1280=DIRECTION('center_axis',(1.,1.09634523681003E-15,-1.29109051556313E-28));
#1281=DIRECTION('ref_axis',(-1.09634523681003E-15,1.,-2.5342156580225E-29));
#1282=DIRECTION('',(1.09634523681003E-15,-1.,2.5342156580225E-29));
#1283=DIRECTION('',(-1.29109051556313E-28,-2.5342156580225E-29,-1.));
#1284=DIRECTION('center_axis',(-1.09634523681003E-15,1.,-2.5342156580225E-29));
#1285=DIRECTION('ref_axis',(0.707106781186568,6.3417015713761E-16,-0.707106781186527));
#1286=DIRECTION('',(-1.09634523681003E-15,1.,-2.5342156580225E-29));
#1287=DIRECTION('center_axis',(9.71445146543282E-16,-1.,7.4593109467028E-17));
#1288=DIRECTION('ref_axis',(-2.39393092064264E-31,-7.4593109467028E-17,
-1.));
#1289=DIRECTION('center_axis',(1.34574354869653E-32,-2.5342156580225E-29,
-1.));
#1290=DIRECTION('ref_axis',(1.80411241512819E-16,1.,-2.5342156580225E-29));
#1291=DIRECTION('',(-1.,1.80411241509091E-16,-1.34574354869699E-32));
#1292=DIRECTION('center_axis',(-1.79332046234135E-15,1.,-2.55795389100203E-13));
#1293=DIRECTION('ref_axis',(1.51244723220601E-28,-2.55795389100203E-13,
-1.));
#1294=DIRECTION('center_axis',(1.80411241509091E-16,1.,-2.5342156580225E-29));
#1295=DIRECTION('ref_axis',(-9.97390969955134E-32,2.5342156580225E-29,1.));
#1296=DIRECTION('',(-1.,1.80411241509091E-16,-1.34574354869699E-32));
#1297=DIRECTION('',(1.29109051556313E-28,2.5342156580225E-29,1.));
#1298=DIRECTION('',(1.,-1.80411241509091E-16,1.34574354869699E-32));
#1299=DIRECTION('center_axis',(1.,-1.80411241509091E-16,1.34574354869699E-32));
#1300=DIRECTION('ref_axis',(9.81307786703635E-17,0.707106781186517,-0.707106781186578));
#1301=DIRECTION('center_axis',(1.,-1.80411241509091E-16,1.34574354869699E-32));
#1302=DIRECTION('ref_axis',(2.32823417445615E-16,0.707106781186515,-0.70710678118658));
#1303=DIRECTION('center_axis',(1.,-1.80411241509091E-16,1.34574354869699E-32));
#1304=DIRECTION('ref_axis',(9.81307786703761E-17,0.707106781186568,0.707106781186527));
#1305=DIRECTION('center_axis',(1.,-1.80411241509091E-16,1.34574354869699E-32));
#1306=DIRECTION('ref_axis',(2.45326946669613E-15,0.707106781186576,0.707106781186519));
#1307=DIRECTION('center_axis',(-0.816496580927726,0.408248290463863,0.408248290463863));
#1308=DIRECTION('ref_axis',(0.577350269189588,0.577350269189645,0.577350269189645));
#1309=DIRECTION('center_axis',(-2.39393092064264E-31,-7.4593109467028E-17,
-1.));
#1310=DIRECTION('ref_axis',(1.24900090270703E-15,1.,-7.4593109467028E-17));
#1311=DIRECTION('center_axis',(-0.816496580927745,0.408248290463816,-0.408248290463873));
#1312=DIRECTION('ref_axis',(0.577350269189588,0.577350269189588,-0.577350269189702));
#1313=DIRECTION('center_axis',(2.39393092064264E-31,7.4593109467028E-17,
1.));
#1314=DIRECTION('ref_axis',(1.,9.71445146543282E-16,-3.1185620622158E-31));
#1315=DIRECTION('center_axis',(1.29109051556313E-28,2.5342156580225E-29,
1.));
#1316=DIRECTION('ref_axis',(0.707106781186549,0.707106781186546,-5.2745293533926E-17));
#1317=CARTESIAN_POINT('',(0.,0.,0.));
#1318=CARTESIAN_POINT('Origin',(287.199986648636,339.974959920742,352.103999999926));
#1319=CARTESIAN_POINT('',(287.399986648636,346.199985324441,351.903999999925));
#1320=CARTESIAN_POINT('',(286.999986648636,346.199985324441,352.303999999925));
#1321=CARTESIAN_POINT('',(287.399986648636,346.199985324441,351.903999999925));
#1322=CARTESIAN_POINT('',(286.999986648636,351.39990916145,352.303999999923));
#1323=CARTESIAN_POINT('',(286.999986648636,339.974959920742,352.303999999926));
#1324=CARTESIAN_POINT('',(287.399986648636,351.39990916145,351.903999999923));
#1325=CARTESIAN_POINT('',(286.999986648636,351.39990916145,352.303999999923));
#1326=CARTESIAN_POINT('',(287.399986648636,339.974959920742,351.903999999926));
#1327=CARTESIAN_POINT('Origin',(287.199986648636,351.599909161454,366.903999999927));
#1328=CARTESIAN_POINT('',(287.399986648636,351.79990916145,352.303999999923));
#1329=CARTESIAN_POINT('',(287.399986648636,351.79990916145,352.303999999923));
#1330=CARTESIAN_POINT('',(286.999986648636,351.399909161451,358.603999999925));
#1331=CARTESIAN_POINT('',(286.999986648636,351.399909161454,366.903999999927));
#1332=CARTESIAN_POINT('',(287.399986648636,351.799909161452,358.603999999925));
#1333=CARTESIAN_POINT('',(286.999986648636,351.399909161451,358.603999999925));
#1334=CARTESIAN_POINT('',(287.399986648636,351.799909161454,366.903999999927));
#1335=CARTESIAN_POINT('Origin',(287.199986648636,352.199909161452,358.603999999925));
#1336=CARTESIAN_POINT('',(286.999986648636,352.199909161452,359.403999999925));
#1337=CARTESIAN_POINT('',(287.399986648636,352.199909161452,359.003999999925));
#1338=CARTESIAN_POINT('',(286.999986648636,352.199909161452,359.403999999925));
#1339=CARTESIAN_POINT('Origin',(287.399986648636,352.199909161452,358.603999999925));
#1340=CARTESIAN_POINT('Origin',(286.999986648636,352.199909161452,358.603999999925));
#1341=CARTESIAN_POINT('Origin',(287.199986648636,339.374959920745,359.203999999925));
#1342=CARTESIAN_POINT('',(286.999986648636,355.799909161454,359.403999999925));
#1343=CARTESIAN_POINT('',(286.999986648636,339.374959920745,359.403999999925));
#1344=CARTESIAN_POINT('',(287.399986648636,355.799909161454,359.003999999925));
#1345=CARTESIAN_POINT('',(286.999986648636,355.799909161454,359.403999999925));
#1346=CARTESIAN_POINT('',(287.399986648636,339.374959920745,359.003999999925));
#1347=CARTESIAN_POINT('Origin',(287.199986648636,355.799909161454,360.003999999925));
#1348=CARTESIAN_POINT('',(286.999986648636,356.399909161454,360.003999999925));
#1349=CARTESIAN_POINT('Origin',(286.999986648636,355.799909161454,360.003999999925));
#1350=CARTESIAN_POINT('',(287.399986648636,356.799909161454,360.003999999925));
#1351=CARTESIAN_POINT('',(286.999986648636,356.399909161454,360.003999999925));
#1352=CARTESIAN_POINT('Origin',(287.399986648636,355.799909161454,360.003999999925));
#1353=CARTESIAN_POINT('Origin',(287.199986648636,356.599909161454,360.453999999931));
#1354=CARTESIAN_POINT('',(286.999986648636,356.399909161454,363.803999999925));
#1355=CARTESIAN_POINT('',(286.999986648636,356.399909161454,360.453999999931));
#1356=CARTESIAN_POINT('',(287.399986648636,356.799909161454,363.803999999925));
#1357=CARTESIAN_POINT('',(286.999986648636,356.399909161454,363.803999999925));
#1358=CARTESIAN_POINT('',(287.399986648636,356.799909161454,360.453999999931));
#1359=CARTESIAN_POINT('Origin',(287.199986648636,355.799909161454,363.803999999925));
#1360=CARTESIAN_POINT('',(286.999986648636,355.799909161454,364.403999999925));
#1361=CARTESIAN_POINT('',(287.399986648636,355.799909161454,364.803999999925));
#1362=CARTESIAN_POINT('',(286.999986648636,355.799909161454,364.403999999925));
#1363=CARTESIAN_POINT('Origin',(287.399986648636,355.799909161454,363.803999999925));
#1364=CARTESIAN_POINT('Origin',(286.999986648636,355.799909161454,363.803999999925));
#1365=CARTESIAN_POINT('Origin',(287.199986648636,342.374959920746,364.603999999925));
#1366=CARTESIAN_POINT('',(286.999986648636,352.199909161453,364.403999999925));
#1367=CARTESIAN_POINT('',(286.999986648636,342.374959920746,364.403999999925));
#1368=CARTESIAN_POINT('',(287.399986648636,352.199909161453,364.803999999925));
#1369=CARTESIAN_POINT('',(286.999986648636,352.199909161453,364.403999999925));
#1370=CARTESIAN_POINT('',(287.399986648636,342.374959920746,364.803999999925));
#1371=CARTESIAN_POINT('Origin',(287.199986648636,352.199909161453,365.203999999925));
#1372=CARTESIAN_POINT('',(286.999986648636,351.399909161453,365.203999999925));
#1373=CARTESIAN_POINT('',(287.399986648636,351.799909161453,365.203999999925));
#1374=CARTESIAN_POINT('',(286.999986648636,351.399909161453,365.203999999925));
#1375=CARTESIAN_POINT('Origin',(287.399986648636,352.199909161453,365.203999999925));
#1376=CARTESIAN_POINT('Origin',(286.999986648636,352.199909161453,365.203999999925));
#1377=CARTESIAN_POINT('Origin',(287.199986648636,351.599909161454,366.903999999927));
#1378=CARTESIAN_POINT('',(286.999986648636,351.399909161455,371.503999999924));
#1379=CARTESIAN_POINT('',(286.999986648636,351.399909161453,366.903999999927));
#1380=CARTESIAN_POINT('',(287.399986648636,351.799909161455,371.503999999923));
#1381=CARTESIAN_POINT('',(286.999986648636,351.399909161455,371.503999999924));
#1382=CARTESIAN_POINT('',(287.399986648636,351.799909161454,366.903999999927));
#1383=CARTESIAN_POINT('Origin',(287.399986648636,351.39990916145,352.303999999923));
#1384=CARTESIAN_POINT('Origin',(287.399986648636,351.39990916145,352.303999999923));
#1385=CARTESIAN_POINT('Origin',(287.199986648636,315.925061439332,371.703999999933));
#1386=CARTESIAN_POINT('',(287.399986648636,351.399909161455,371.903999999923));
#1387=CARTESIAN_POINT('',(287.399986648636,351.399909161455,371.903999999923));
#1388=CARTESIAN_POINT('',(286.999986648636,346.199985324446,371.503999999925));
#1389=CARTESIAN_POINT('',(286.999986648636,315.925061439332,371.503999999933));
#1390=CARTESIAN_POINT('',(287.399986648636,346.199985324446,371.903999999925));
#1391=CARTESIAN_POINT('',(286.999986648636,346.199985324446,371.503999999925));
#1392=CARTESIAN_POINT('',(287.399986648636,315.925061439332,371.903999999933));
#1393=CARTESIAN_POINT('Origin',(287.399986648636,351.399909161455,371.503999999924));
#1394=CARTESIAN_POINT('Origin',(287.399986648636,351.399909161455,371.503999999924));
#1395=CARTESIAN_POINT('Origin',(287.199986648636,345.999985324443,361.903999999943));
#1396=CARTESIAN_POINT('',(286.999986648636,346.199985324444,365.353999999925));
#1397=CARTESIAN_POINT('',(287.399986648636,345.799985324444,365.353999999925));
#1398=CARTESIAN_POINT('',(286.999986648636,346.199985324444,365.353999999925));
#1399=CARTESIAN_POINT('',(287.399986648636,345.799985324446,371.503999999925));
#1400=CARTESIAN_POINT('',(287.399986648636,345.799985324443,361.903999999943));
#1401=CARTESIAN_POINT('',(287.399986648636,345.799985324446,371.503999999925));
#1402=CARTESIAN_POINT('',(286.999986648636,346.199985324443,361.903999999943));
#1403=CARTESIAN_POINT('Origin',(287.399986648636,346.199985324446,371.503999999925));
#1404=CARTESIAN_POINT('Origin',(287.399986648636,346.199985324446,371.503999999925));
#1405=CARTESIAN_POINT('Origin',(287.199986648636,339.375005340067,365.153999999925));
#1406=CARTESIAN_POINT('',(287.399986648636,346.199985324444,364.953999999925));
#1407=CARTESIAN_POINT('',(287.399986648636,346.199985324444,364.953999999925));
#1408=CARTESIAN_POINT('',(286.999986648636,349.800000000096,365.353999999925));
#1409=CARTESIAN_POINT('',(286.999986648636,339.375005340067,365.353999999925));
#1410=CARTESIAN_POINT('',(287.399986648636,349.800000000096,364.953999999925));
#1411=CARTESIAN_POINT('',(286.999986648636,349.800000000096,365.353999999925));
#1412=CARTESIAN_POINT('',(287.399986648636,339.375005340067,364.953999999925));
#1413=CARTESIAN_POINT('Origin',(287.199986648636,349.800000000096,363.953999999925));
#1414=CARTESIAN_POINT('',(286.999986648636,351.200000000096,363.953999999925));
#1415=CARTESIAN_POINT('',(287.399986648636,350.800000000096,363.953999999925));
#1416=CARTESIAN_POINT('',(286.999986648636,351.200000000096,363.953999999925));
#1417=CARTESIAN_POINT('Origin',(287.399986648636,349.800000000096,363.953999999925));
#1418=CARTESIAN_POINT('Origin',(286.999986648636,349.800000000096,363.953999999925));
#1419=CARTESIAN_POINT('Origin',(287.199986648636,351.000000000096,360.453999999931));
#1420=CARTESIAN_POINT('',(286.999986648636,351.200000000096,359.853999999925));
#1421=CARTESIAN_POINT('',(286.999986648636,351.200000000096,360.453999999931));
#1422=CARTESIAN_POINT('',(287.399986648636,350.800000000096,359.853999999925));
#1423=CARTESIAN_POINT('',(286.999986648636,351.200000000096,359.853999999925));
#1424=CARTESIAN_POINT('',(287.399986648636,350.800000000096,360.453999999931));
#1425=CARTESIAN_POINT('Origin',(287.199986648636,349.800000000096,359.853999999925));
#1426=CARTESIAN_POINT('',(286.999986648636,349.800000000096,358.453999999925));
#1427=CARTESIAN_POINT('',(287.399986648636,349.800000000096,358.853999999925));
#1428=CARTESIAN_POINT('',(286.999986648636,349.800000000096,358.453999999925));
#1429=CARTESIAN_POINT('Origin',(287.399986648636,349.800000000096,359.853999999925));
#1430=CARTESIAN_POINT('Origin',(286.999986648636,349.800000000096,359.853999999925));
#1431=CARTESIAN_POINT('Origin',(287.199986648636,336.375005340065,358.653999999925));
#1432=CARTESIAN_POINT('',(286.999986648636,346.199985324442,358.453999999925));
#1433=CARTESIAN_POINT('',(286.999986648636,336.375005340065,358.453999999925));
#1434=CARTESIAN_POINT('',(287.399986648636,346.199985324442,358.853999999925));
#1435=CARTESIAN_POINT('',(286.999986648636,346.199985324442,358.453999999925));
#1436=CARTESIAN_POINT('',(287.399986648636,336.375005340065,358.853999999925));
#1437=CARTESIAN_POINT('Origin',(287.399986648636,346.199985324444,365.353999999925));
#1438=CARTESIAN_POINT('Origin',(287.399986648636,346.199985324444,365.353999999925));
#1439=CARTESIAN_POINT('Origin',(287.199986648636,345.999985324443,361.903999999943));
#1440=CARTESIAN_POINT('',(287.399986648636,345.799985324441,352.303999999925));
#1441=CARTESIAN_POINT('',(286.999986648636,346.199985324441,352.303999999925));
#1442=CARTESIAN_POINT('',(287.399986648636,345.799985324442,358.453999999925));
#1443=CARTESIAN_POINT('',(287.399986648636,345.799985324443,361.903999999943));
#1444=CARTESIAN_POINT('',(287.399986648636,345.799985324442,358.453999999925));
#1445=CARTESIAN_POINT('',(286.999986648636,346.199985324443,361.903999999943));
#1446=CARTESIAN_POINT('Origin',(287.399986648636,346.199985324442,358.453999999925));
#1447=CARTESIAN_POINT('Origin',(287.399986648636,346.199985324442,358.453999999925));
#1448=CARTESIAN_POINT('Origin',(287.399986648636,346.199985324441,352.303999999925));
#1449=CARTESIAN_POINT('Origin',(287.399986648636,346.199985324441,352.303999999925));
#1450=CARTESIAN_POINT('Origin',(311.999992370656,351.399909161455,371.503999999924));
#1451=CARTESIAN_POINT('',(311.999992370656,351.399909161455,371.903999999923));
#1452=CARTESIAN_POINT('',(311.999992370656,351.399909161455,371.903999999923));
#1453=CARTESIAN_POINT('',(311.999992370656,351.799909161455,371.503999999923));
#1454=CARTESIAN_POINT('Origin',(311.999992370656,351.399909161455,371.503999999924));
#1455=CARTESIAN_POINT('',(311.999992370656,351.799909161455,371.503999999923));
#1456=CARTESIAN_POINT('Origin',(311.999992370656,303.900112198625,371.903999999936));
#1457=CARTESIAN_POINT('',(311.999992370656,346.199985324446,371.903999999925));
#1458=CARTESIAN_POINT('',(305.999990824308,346.199985324446,371.903999999925));
#1459=CARTESIAN_POINT('',(311.999992370656,315.925061439334,371.903999999933));
#1460=CARTESIAN_POINT('Origin',(305.999990824308,346.199985324446,371.503999999925));
#1461=CARTESIAN_POINT('',(311.999992370656,345.799985324446,371.503999999925));
#1462=CARTESIAN_POINT('',(305.999990824308,345.799985324446,371.503999999925));
#1463=CARTESIAN_POINT('Origin',(311.999992370656,346.199985324446,371.503999999925));
#1464=CARTESIAN_POINT('Origin',(299.99998927796,345.799985324443,361.903999999955));
#1465=CARTESIAN_POINT('',(311.999992370656,345.799985324444,365.353999999925));
#1466=CARTESIAN_POINT('',(293.499992731669,345.799985324444,365.353999999925));
#1467=CARTESIAN_POINT('',(311.999992370656,345.799985324442,355.947441562623));
#1468=CARTESIAN_POINT('Origin',(293.499992731669,346.199985324444,365.353999999925));
#1469=CARTESIAN_POINT('',(311.999992370656,346.199985324445,364.953999999925));
#1470=CARTESIAN_POINT('',(293.499992731669,346.199985324444,364.953999999925));
#1471=CARTESIAN_POINT('Origin',(311.999992370656,346.199985324445,365.353999999925));
#1472=CARTESIAN_POINT('Origin',(286.999996185378,350.800000000096,364.953999999925));
#1473=CARTESIAN_POINT('',(311.999992370656,349.800000000096,364.953999999925));
#1474=CARTESIAN_POINT('',(286.999996185378,349.800000000096,364.953999999925));
#1475=CARTESIAN_POINT('',(311.999992370656,339.375005340067,364.953999999925));
#1476=CARTESIAN_POINT('Origin',(286.999996185378,349.800000000096,363.953999999925));
#1477=CARTESIAN_POINT('',(311.999992370656,350.800000000096,363.953999999925));
#1478=CARTESIAN_POINT('',(286.999996185378,350.800000000096,363.953999999925));
#1479=CARTESIAN_POINT('Origin',(311.999992370656,349.800000000096,363.953999999925));
#1480=CARTESIAN_POINT('Origin',(286.999996185378,350.800000000096,359.003999999925));
#1481=CARTESIAN_POINT('',(311.999992370656,350.800000000096,359.853999999925));
#1482=CARTESIAN_POINT('',(286.999996185378,350.800000000096,359.853999999925));
#1483=CARTESIAN_POINT('',(311.999992370656,350.800000000096,354.49744156261));
#1484=CARTESIAN_POINT('Origin',(286.999996185378,349.800000000096,359.853999999925));
#1485=CARTESIAN_POINT('',(311.999992370656,349.800000000096,358.853999999925));
#1486=CARTESIAN_POINT('',(286.999996185378,349.800000000096,358.853999999925));
#1487=CARTESIAN_POINT('Origin',(311.999992370656,349.800000000096,359.853999999925));
#1488=CARTESIAN_POINT('Origin',(286.999996185378,344.800000000093,358.853999999925));
#1489=CARTESIAN_POINT('',(311.999992370656,346.199985324443,358.853999999925));
#1490=CARTESIAN_POINT('',(293.499992731669,346.199985324443,358.853999999925));
#1491=CARTESIAN_POINT('',(311.999992370656,336.375005340065,358.853999999925));
#1492=CARTESIAN_POINT('Origin',(293.499992731669,346.199985324443,358.453999999925));
#1493=CARTESIAN_POINT('',(311.999992370656,345.799985324443,358.453999999925));
#1494=CARTESIAN_POINT('',(293.499992731669,345.799985324443,358.453999999925));
#1495=CARTESIAN_POINT('Origin',(311.999992370656,346.199985324443,358.453999999925));
#1496=CARTESIAN_POINT('Origin',(299.99998927796,345.799985324443,361.903999999955));
#1497=CARTESIAN_POINT('',(311.999992370656,345.799985324441,352.303999999925));
#1498=CARTESIAN_POINT('',(305.999990824308,345.799985324441,352.303999999925));
#1499=CARTESIAN_POINT('',(311.999992370656,345.799985324442,355.947441562623));
#1500=CARTESIAN_POINT('Origin',(286.999986648636,327.950010680037,361.903999999937));
#1501=CARTESIAN_POINT('Origin',(311.999992370656,351.39990916145,352.303999999923));
#1502=CARTESIAN_POINT('',(311.999992370656,351.79990916145,352.303999999923));
#1503=CARTESIAN_POINT('',(311.999992370656,351.79990916145,352.303999999923));
#1504=CARTESIAN_POINT('',(311.999992370656,351.39990916145,351.903999999923));
#1505=CARTESIAN_POINT('Origin',(311.999992370656,351.39990916145,352.303999999923));
#1506=CARTESIAN_POINT('',(311.999992370656,351.39990916145,351.903999999923));
#1507=CARTESIAN_POINT('Origin',(311.999992370656,351.99990916145,351.903999999923));
#1508=CARTESIAN_POINT('',(311.999992370656,346.199985324441,351.903999999925));
#1509=CARTESIAN_POINT('',(311.999992370656,339.974959920744,351.903999999926));
#1510=CARTESIAN_POINT('',(305.999990824308,346.199985324441,351.903999999925));
#1511=CARTESIAN_POINT('Origin',(311.999992370656,327.950010680037,349.990883125296));
#1512=CARTESIAN_POINT('',(311.999992370656,351.799909161452,360.947441562607));
#1513=CARTESIAN_POINT('Origin',(311.999992370656,346.199985324441,352.303999999925));
#1514=CARTESIAN_POINT('Origin',(305.999990824308,346.199985324441,352.303999999925));
#1515=CARTESIAN_POINT('Origin',(299.499994278017,352.199909161452,358.603999999925));
#1516=CARTESIAN_POINT('',(306.000001907399,352.199909161452,359.003999999925));
#1517=CARTESIAN_POINT('',(299.499994278017,352.199909161452,359.003999999925));
#1518=CARTESIAN_POINT('',(306.000001907399,351.799909161452,358.603999999925));
#1519=CARTESIAN_POINT('Origin',(306.000001907399,352.199909161452,358.603999999925));
#1520=CARTESIAN_POINT('',(299.499994278017,351.799909161452,358.603999999925));
#1521=CARTESIAN_POINT('Origin',(306.000001907399,352.199909161455,360.003999999925));
#1522=CARTESIAN_POINT('',(307.000001907399,352.199909161455,360.003999999925));
#1523=CARTESIAN_POINT('',(307.400001907399,351.799909161452,360.003999999925));
#1524=CARTESIAN_POINT('Origin',(307.400001907399,352.199909161455,360.003999999925));
#1525=CARTESIAN_POINT('Origin',(306.000001907399,351.799909161452,360.003999999925));
#1526=CARTESIAN_POINT('Origin',(306.000001907399,352.199909161455,360.003999999925));
#1527=CARTESIAN_POINT('Origin',(307.400001907399,352.199909161454,366.903999999924));
#1528=CARTESIAN_POINT('',(307.000001907399,352.199909161453,363.803999999925));
#1529=CARTESIAN_POINT('',(307.400001907399,351.799909161453,363.803999999925));
#1530=CARTESIAN_POINT('Origin',(307.400001907399,352.199909161453,363.803999999925));
#1531=CARTESIAN_POINT('',(307.400001907399,351.799909161454,366.903999999924));
#1532=CARTESIAN_POINT('',(307.000001907399,352.199909161454,366.903999999924));
#1533=CARTESIAN_POINT('Origin',(306.000001907399,352.199909161455,363.803999999925));
#1534=CARTESIAN_POINT('',(306.000001907399,352.199909161455,364.803999999925));
#1535=CARTESIAN_POINT('',(306.000001907399,351.799909161453,365.203999999925));
#1536=CARTESIAN_POINT('Origin',(306.000001907399,352.199909161455,365.203999999925));
#1537=CARTESIAN_POINT('Origin',(306.000001907399,351.799909161453,363.803999999925));
#1538=CARTESIAN_POINT('Origin',(306.000001907399,352.199909161455,363.803999999925));
#1539=CARTESIAN_POINT('Origin',(299.499994278017,352.199909161453,365.203999999925));
#1540=CARTESIAN_POINT('',(299.499994278017,351.799909161453,365.203999999925));
#1541=CARTESIAN_POINT('',(299.499994278017,352.199909161453,364.803999999925));
#1542=CARTESIAN_POINT('Origin',(286.999996185378,356.799909161454,364.803999999925));
#1543=CARTESIAN_POINT('',(306.000001907399,355.799909161454,364.803999999925));
#1544=CARTESIAN_POINT('',(306.000001907399,343.624959920746,364.803999999925));
#1545=CARTESIAN_POINT('',(286.999996185378,355.799909161454,364.803999999925));
#1546=CARTESIAN_POINT('Origin',(306.000001907399,343.624959920746,363.803999999925));
#1547=CARTESIAN_POINT('',(307.000001907399,355.799909161454,363.803999999925));
#1548=CARTESIAN_POINT('',(307.000001907399,343.624959920746,363.803999999925));
#1549=CARTESIAN_POINT('Origin',(306.000001907399,355.799909161454,363.803999999925));
#1550=CARTESIAN_POINT('Origin',(307.000001907399,330.450010680038,361.90399999993));
#1551=CARTESIAN_POINT('',(307.000001907399,355.799909161454,360.003999999925));
#1552=CARTESIAN_POINT('',(307.000001907399,340.624959920745,360.003999999925));
#1553=CARTESIAN_POINT('',(307.000001907399,355.799909161454,360.453999999927));
#1554=CARTESIAN_POINT('Origin',(306.000001907399,340.624959920745,360.003999999925));
#1555=CARTESIAN_POINT('',(306.000001907399,355.799909161454,359.003999999925));
#1556=CARTESIAN_POINT('',(306.000001907399,340.624959920745,359.003999999925));
#1557=CARTESIAN_POINT('Origin',(306.000001907399,355.799909161454,360.003999999925));
#1558=CARTESIAN_POINT('Origin',(286.999996185378,350.799909161452,359.003999999925));
#1559=CARTESIAN_POINT('',(286.999996185378,355.799909161454,359.003999999925));
#1560=CARTESIAN_POINT('Origin',(311.999992370656,351.799909161455,371.903999999923));
#1561=CARTESIAN_POINT('Origin',(286.999996185378,356.799909161454,359.003999999925));
#1562=CARTESIAN_POINT('',(306.000001907399,356.799909161454,363.803999999925));
#1563=CARTESIAN_POINT('',(286.999996185378,356.799909161454,363.803999999925));
#1564=CARTESIAN_POINT('',(306.000001907399,356.799909161454,360.003999999925));
#1565=CARTESIAN_POINT('',(306.000001907399,356.799909161454,360.453999999927));
#1566=CARTESIAN_POINT('',(286.999996185378,356.799909161454,360.003999999925));
#1567=CARTESIAN_POINT('Origin',(286.999996185378,355.799909161454,360.003999999925));
#1568=CARTESIAN_POINT('Origin',(306.000001907399,355.799909161454,360.003999999925));
#1569=CARTESIAN_POINT('Origin',(286.999996185378,355.799909161454,363.803999999925));
#1570=CARTESIAN_POINT('Origin',(306.000001907399,355.799909161454,363.803999999925));
#1571=CARTESIAN_POINT('Origin',(306.000001907399,355.799909161454,363.803999999925));
#1572=CARTESIAN_POINT('Origin',(306.000001907399,355.799909161454,363.803999999925));
#1573=CARTESIAN_POINT('Origin',(306.000001907399,355.799909161454,360.003999999925));
#1574=CARTESIAN_POINT('Origin',(306.000001907399,355.799909161454,360.003999999925));
#1575=CARTESIAN_POINT('Origin',(306.000001907399,355.799909161454,360.453999999927));
#1576=UNCERTAINTY_MEASURE_WITH_UNIT(LENGTH_MEASURE(0.01),#1580,
'DISTANCE_ACCURACY_VALUE',
'Maximum model space distance between geometric entities at asserted c
onnectivities');
#1577=UNCERTAINTY_MEASURE_WITH_UNIT(LENGTH_MEASURE(0.01),#1580,
'DISTANCE_ACCURACY_VALUE',
'Maximum model space distance between geometric entities at asserted c
onnectivities');
#1578=(
GEOMETRIC_REPRESENTATION_CONTEXT(3)
GLOBAL_UNCERTAINTY_ASSIGNED_CONTEXT((#1576))
GLOBAL_UNIT_ASSIGNED_CONTEXT((#1580,#1582,#1583))
REPRESENTATION_CONTEXT('','3D')
);
#1579=(
GEOMETRIC_REPRESENTATION_CONTEXT(3)
GLOBAL_UNCERTAINTY_ASSIGNED_CONTEXT((#1577))
GLOBAL_UNIT_ASSIGNED_CONTEXT((#1580,#1582,#1583))
REPRESENTATION_CONTEXT('','3D')
);
#1580=(
LENGTH_UNIT()
NAMED_UNIT(*)
SI_UNIT(.MILLI.,.METRE.)
);
#1581=(
LENGTH_UNIT()
NAMED_UNIT(*)
SI_UNIT($,.METRE.)
);
#1582=(
NAMED_UNIT(*)
PLANE_ANGLE_UNIT()
SI_UNIT($,.RADIAN.)
);
#1583=(
NAMED_UNIT(*)
SI_UNIT($,.STERADIAN.)
SOLID_ANGLE_UNIT()
);
#1584=SHAPE_DEFINITION_REPRESENTATION(#1585,#1586);
#1585=PRODUCT_DEFINITION_SHAPE('',$,#1588);
#1586=SHAPE_REPRESENTATION('',(#932),#1578);
#1587=PRODUCT_DEFINITION_CONTEXT('part definition',#1592,'design');
#1588=PRODUCT_DEFINITION('V2_Z_idler_spacer','V2_Z_idler_spacer v1',#1589,
#1587);
#1589=PRODUCT_DEFINITION_FORMATION('',$,#1594);
#1590=PRODUCT_RELATED_PRODUCT_CATEGORY('V2_Z_idler_spacer v1',
'V2_Z_idler_spacer v1',(#1594));
#1591=APPLICATION_PROTOCOL_DEFINITION('international standard',
'automotive_design',2009,#1592);
#1592=APPLICATION_CONTEXT(
'Core Data for Automotive Mechanical Design Process');
#1593=PRODUCT_CONTEXT('part definition',#1592,'mechanical');
#1594=PRODUCT('V2_Z_idler_spacer','V2_Z_idler_spacer v1',$,(#1593));
#1595=PRESENTATION_STYLE_ASSIGNMENT((#1597));
#1596=PRESENTATION_STYLE_ASSIGNMENT((#1598));
#1597=SURFACE_STYLE_USAGE(.BOTH.,#1599);
#1598=SURFACE_STYLE_USAGE(.BOTH.,#1600);
#1599=SURFACE_SIDE_STYLE('',(#1601));
#1600=SURFACE_SIDE_STYLE('',(#1602));
#1601=SURFACE_STYLE_FILL_AREA(#1603);
#1602=SURFACE_STYLE_FILL_AREA(#1604);
#1603=FILL_AREA_STYLE('Steel - Satin',(#1605));
#1604=FILL_AREA_STYLE('Plastic - Matte (Black)',(#1606));
#1605=FILL_AREA_STYLE_COLOUR('Steel - Satin',#1607);
#1606=FILL_AREA_STYLE_COLOUR('Plastic - Matte (Black)',#1608);
#1607=COLOUR_RGB('Steel - Satin',0.627450980392157,0.627450980392157,0.627450980392157);
#1608=COLOUR_RGB('Plastic - Matte (Black)',0.313725490196078,0.313725490196078,
0.313725490196078);
ENDSEC;
END-ISO-10303-21;
