ISO-10303-21;
HEADER;
/* Generated by software containing ST-Developer
 * from STEP Tools, Inc. (www.steptools.com) 
 */

FILE_DESCRIPTION(
/* description */ (''),
/* implementation_level */ '2;1');

FILE_NAME(
/* name */ 'Tensioner +5mm.step',
/* time_stamp */ '2026-08-22T21:11:15-05:00',
/* author */ (''),
/* organization */ (''),
/* preprocessor_version */ 'ST-DEVELOPER v20.1',
/* originating_system */ 'Autodesk Translation Framework v15.8.0.0',
/* authorisation */ '');

FILE_SCHEMA (('AUTOMOTIVE_DESIGN { 1 0 10303 214 3 1 1 }'));
ENDSEC;

DATA;
#10=MECHANICAL_DESIGN_GEOMETRIC_PRESENTATION_REPRESENTATION('',(#33),#1547);
#11=ITEM_DEFINED_TRANSFORMATION($,$,#911,#992);
#12=ITEM_DEFINED_TRANSFORMATION($,$,#910,#993);
#13=ITEM_DEFINED_TRANSFORMATION($,$,#909,#994);
#14=ITEM_DEFINED_TRANSFORMATION($,$,#908,#995);
#15=ITEM_DEFINED_TRANSFORMATION($,$,#907,#996);
#16=(
REPRESENTATION_RELATIONSHIP($,$,#1574,#1573)
REPRESENTATION_RELATIONSHIP_WITH_TRANSFORMATION(#11)
SHAPE_REPRESENTATION_RELATIONSHIP()
);
#17=(
REPRESENTATION_RELATIONSHIP($,$,#1573,#1572)
REPRESENTATION_RELATIONSHIP_WITH_TRANSFORMATION(#12)
SHAPE_REPRESENTATION_RELATIONSHIP()
);
#18=(
REPRESENTATION_RELATIONSHIP($,$,#1572,#1571)
REPRESENTATION_RELATIONSHIP_WITH_TRANSFORMATION(#13)
SHAPE_REPRESENTATION_RELATIONSHIP()
);
#19=(
REPRESENTATION_RELATIONSHIP($,$,#1571,#1570)
REPRESENTATION_RELATIONSHIP_WITH_TRANSFORMATION(#14)
SHAPE_REPRESENTATION_RELATIONSHIP()
);
#20=(
REPRESENTATION_RELATIONSHIP($,$,#1570,#1569)
REPRESENTATION_RELATIONSHIP_WITH_TRANSFORMATION(#15)
SHAPE_REPRESENTATION_RELATIONSHIP()
);
#21=CONTEXT_DEPENDENT_SHAPE_REPRESENTATION(#16,#1564);
#22=CONTEXT_DEPENDENT_SHAPE_REPRESENTATION(#17,#1565);
#23=CONTEXT_DEPENDENT_SHAPE_REPRESENTATION(#18,#1566);
#24=CONTEXT_DEPENDENT_SHAPE_REPRESENTATION(#19,#1567);
#25=CONTEXT_DEPENDENT_SHAPE_REPRESENTATION(#20,#1568);
#26=NEXT_ASSEMBLY_USAGE_OCCURRENCE(
'Sheet_metal_9mm_tensioner_a_4.7-5mm (1) (1):1',
'Sheet_metal_9mm_tensioner_a_4.7-5mm (1) (1):1',
'Sheet_metal_9mm_tensioner_a_4.7-5mm (1) (1):1',#1580,#1581,
'Sheet_metal_9mm_tensioner_a_4.7-5mm (1) (1):1');
#27=NEXT_ASSEMBLY_USAGE_OCCURRENCE(
'_Sheet_metal_VT_9mm_rear_left_motor_mount (1):1',
'_Sheet_metal_VT_9mm_rear_left_motor_mount (1):1',
'_Sheet_metal_VT_9mm_rear_left_motor_mount (1):1',#1579,#1580,
'_Sheet_metal_VT_9mm_rear_left_motor_mount (1):1');
#28=NEXT_ASSEMBLY_USAGE_OCCURRENCE(
'_31_Sheet_metal_VT_9mm_rear_motor_mounts_FT_0:1',
'_31_Sheet_metal_VT_9mm_rear_motor_mounts_FT_0:1',
'_31_Sheet_metal_VT_9mm_rear_motor_mounts_FT_0:1',#1578,#1579,
'_31_Sheet_metal_VT_9mm_rear_motor_mounts_FT_0:1');
#29=NEXT_ASSEMBLY_USAGE_OCCURRENCE(
'3030 Left Rear Motor Assemblies.stp:1',
'3030 Left Rear Motor Assemblies.stp:1',
'3030 Left Rear Motor Assemblies.stp:1',#1577,#1578,
'3030 Left Rear Motor Assemblies.stp:1');
#30=NEXT_ASSEMBLY_USAGE_OCCURRENCE('3030 Rear Motor Assemblies:1',
'3030 Rear Motor Assemblies:1','3030 Rear Motor Assemblies:1',#1576,#1577,
'3030 Rear Motor Assemblies:1');
#31=SHAPE_REPRESENTATION_RELATIONSHIP('SRR','None',#1574,#32);
#32=ADVANCED_BREP_SHAPE_REPRESENTATION('',(#34),#1546);
#33=STYLED_ITEM('',(#1605),#34);
#34=MANIFOLD_SOLID_BREP('Body1',#893);
#35=FACE_BOUND('',#137,.T.);
#36=FACE_BOUND('',#151,.T.);
#37=PLANE('',#921);
#38=PLANE('',#925);
#39=PLANE('',#929);
#40=PLANE('',#939);
#41=PLANE('',#943);
#42=PLANE('',#944);
#43=PLANE('',#948);
#44=PLANE('',#949);
#45=PLANE('',#950);
#46=PLANE('',#951);
#47=PLANE('',#955);
#48=PLANE('',#959);
#49=PLANE('',#960);
#50=PLANE('',#964);
#51=PLANE('',#968);
#52=PLANE('',#969);
#53=PLANE('',#974);
#54=PLANE('',#975);
#55=PLANE('',#978);
#56=PLANE('',#979);
#57=PLANE('',#980);
#58=PLANE('',#983);
#59=PLANE('',#986);
#60=PLANE('',#989);
#61=PLANE('',#990);
#62=PLANE('',#991);
#63=FACE_OUTER_BOUND('',#107,.T.);
#64=FACE_OUTER_BOUND('',#108,.T.);
#65=FACE_OUTER_BOUND('',#109,.T.);
#66=FACE_OUTER_BOUND('',#110,.T.);
#67=FACE_OUTER_BOUND('',#111,.T.);
#68=FACE_OUTER_BOUND('',#112,.T.);
#69=FACE_OUTER_BOUND('',#113,.T.);
#70=FACE_OUTER_BOUND('',#114,.T.);
#71=FACE_OUTER_BOUND('',#115,.T.);
#72=FACE_OUTER_BOUND('',#116,.T.);
#73=FACE_OUTER_BOUND('',#117,.T.);
#74=FACE_OUTER_BOUND('',#118,.T.);
#75=FACE_OUTER_BOUND('',#119,.T.);
#76=FACE_OUTER_BOUND('',#120,.T.);
#77=FACE_OUTER_BOUND('',#121,.T.);
#78=FACE_OUTER_BOUND('',#122,.T.);
#79=FACE_OUTER_BOUND('',#123,.T.);
#80=FACE_OUTER_BOUND('',#124,.T.);
#81=FACE_OUTER_BOUND('',#125,.T.);
#82=FACE_OUTER_BOUND('',#126,.T.);
#83=FACE_OUTER_BOUND('',#127,.T.);
#84=FACE_OUTER_BOUND('',#128,.T.);
#85=FACE_OUTER_BOUND('',#129,.T.);
#86=FACE_OUTER_BOUND('',#130,.T.);
#87=FACE_OUTER_BOUND('',#131,.T.);
#88=FACE_OUTER_BOUND('',#132,.T.);
#89=FACE_OUTER_BOUND('',#133,.T.);
#90=FACE_OUTER_BOUND('',#134,.T.);
#91=FACE_OUTER_BOUND('',#135,.T.);
#92=FACE_OUTER_BOUND('',#136,.T.);
#93=FACE_OUTER_BOUND('',#138,.T.);
#94=FACE_OUTER_BOUND('',#139,.T.);
#95=FACE_OUTER_BOUND('',#140,.T.);
#96=FACE_OUTER_BOUND('',#141,.T.);
#97=FACE_OUTER_BOUND('',#142,.T.);
#98=FACE_OUTER_BOUND('',#143,.T.);
#99=FACE_OUTER_BOUND('',#144,.T.);
#100=FACE_OUTER_BOUND('',#145,.T.);
#101=FACE_OUTER_BOUND('',#146,.T.);
#102=FACE_OUTER_BOUND('',#147,.T.);
#103=FACE_OUTER_BOUND('',#148,.T.);
#104=FACE_OUTER_BOUND('',#149,.T.);
#105=FACE_OUTER_BOUND('',#150,.T.);
#106=FACE_OUTER_BOUND('',#152,.T.);
#107=EDGE_LOOP('',(#579,#580,#581,#582));
#108=EDGE_LOOP('',(#583,#584,#585,#586));
#109=EDGE_LOOP('',(#587,#588,#589,#590));
#110=EDGE_LOOP('',(#591,#592,#593,#594));
#111=EDGE_LOOP('',(#595,#596,#597,#598));
#112=EDGE_LOOP('',(#599,#600,#601,#602));
#113=EDGE_LOOP('',(#603,#604,#605,#606));
#114=EDGE_LOOP('',(#607,#608,#609,#610));
#115=EDGE_LOOP('',(#611,#612,#613,#614));
#116=EDGE_LOOP('',(#615,#616,#617,#618));
#117=EDGE_LOOP('',(#619,#620,#621,#622));
#118=EDGE_LOOP('',(#623,#624,#625,#626));
#119=EDGE_LOOP('',(#627,#628,#629,#630));
#120=EDGE_LOOP('',(#631,#632,#633,#634));
#121=EDGE_LOOP('',(#635,#636,#637,#638));
#122=EDGE_LOOP('',(#639,#640,#641,#642));
#123=EDGE_LOOP('',(#643,#644,#645,#646));
#124=EDGE_LOOP('',(#647,#648,#649,#650));
#125=EDGE_LOOP('',(#651,#652,#653,#654));
#126=EDGE_LOOP('',(#655,#656,#657,#658));
#127=EDGE_LOOP('',(#659,#660,#661,#662));
#128=EDGE_LOOP('',(#663,#664,#665,#666));
#129=EDGE_LOOP('',(#667,#668,#669,#670));
#130=EDGE_LOOP('',(#671,#672,#673,#674));
#131=EDGE_LOOP('',(#675,#676,#677,#678));
#132=EDGE_LOOP('',(#679,#680,#681,#682));
#133=EDGE_LOOP('',(#683,#684,#685,#686));
#134=EDGE_LOOP('',(#687,#688,#689,#690));
#135=EDGE_LOOP('',(#691,#692,#693,#694));
#136=EDGE_LOOP('',(#695,#696,#697,#698,#699,#700,#701,#702,#703,#704,#705,
#706,#707,#708,#709,#710,#711,#712,#713,#714,#715,#716,#717,#718,#719,#720,
#721,#722,#723,#724,#725,#726,#727,#728,#729,#730));
#137=EDGE_LOOP('',(#731,#732,#733,#734,#735,#736));
#138=EDGE_LOOP('',(#737,#738,#739,#740));
#139=EDGE_LOOP('',(#741,#742,#743,#744));
#140=EDGE_LOOP('',(#745,#746,#747,#748));
#141=EDGE_LOOP('',(#749,#750,#751,#752));
#142=EDGE_LOOP('',(#753,#754,#755,#756));
#143=EDGE_LOOP('',(#757,#758,#759,#760));
#144=EDGE_LOOP('',(#761,#762,#763,#764));
#145=EDGE_LOOP('',(#765,#766,#767,#768));
#146=EDGE_LOOP('',(#769,#770,#771,#772));
#147=EDGE_LOOP('',(#773,#774,#775,#776));
#148=EDGE_LOOP('',(#777,#778,#779,#780));
#149=EDGE_LOOP('',(#781,#782,#783,#784));
#150=EDGE_LOOP('',(#785,#786,#787,#788,#789,#790,#791,#792,#793,#794,#795,
#796,#797,#798,#799,#800,#801,#802,#803,#804,#805,#806,#807,#808,#809,#810,
#811,#812,#813,#814,#815,#816,#817,#818,#819,#820));
#151=EDGE_LOOP('',(#821,#822,#823,#824,#825,#826));
#152=EDGE_LOOP('',(#827,#828,#829,#830));
#153=LINE('',#1280,#243);
#154=LINE('',#1283,#244);
#155=LINE('',#1288,#245);
#156=LINE('',#1294,#246);
#157=LINE('',#1298,#247);
#158=LINE('',#1300,#248);
#159=LINE('',#1301,#249);
#160=LINE('',#1307,#250);
#161=LINE('',#1310,#251);
#162=LINE('',#1312,#252);
#163=LINE('',#1313,#253);
#164=LINE('',#1319,#254);
#165=LINE('',#1322,#255);
#166=LINE('',#1324,#256);
#167=LINE('',#1325,#257);
#168=LINE('',#1331,#258);
#169=LINE('',#1334,#259);
#170=LINE('',#1339,#260);
#171=LINE('',#1345,#261);
#172=LINE('',#1349,#262);
#173=LINE('',#1351,#263);
#174=LINE('',#1352,#264);
#175=LINE('',#1358,#265);
#176=LINE('',#1361,#266);
#177=LINE('',#1363,#267);
#178=LINE('',#1364,#268);
#179=LINE('',#1367,#269);
#180=LINE('',#1369,#270);
#181=LINE('',#1370,#271);
#182=LINE('',#1376,#272);
#183=LINE('',#1380,#273);
#184=LINE('',#1382,#274);
#185=LINE('',#1384,#275);
#186=LINE('',#1385,#276);
#187=LINE('',#1388,#277);
#188=LINE('',#1390,#278);
#189=LINE('',#1391,#279);
#190=LINE('',#1395,#280);
#191=LINE('',#1396,#281);
#192=LINE('',#1397,#282);
#193=LINE('',#1401,#283);
#194=LINE('',#1402,#284);
#195=LINE('',#1403,#285);
#196=LINE('',#1408,#286);
#197=LINE('',#1413,#287);
#198=LINE('',#1414,#288);
#199=LINE('',#1415,#289);
#200=LINE('',#1422,#290);
#201=LINE('',#1424,#291);
#202=LINE('',#1426,#292);
#203=LINE('',#1427,#293);
#204=LINE('',#1431,#294);
#205=LINE('',#1433,#295);
#206=LINE('',#1435,#296);
#207=LINE('',#1436,#297);
#208=LINE('',#1441,#298);
#209=LINE('',#1446,#299);
#210=LINE('',#1447,#300);
#211=LINE('',#1448,#301);
#212=LINE('',#1453,#302);
#213=LINE('',#1454,#303);
#214=LINE('',#1457,#304);
#215=LINE('',#1458,#305);
#216=LINE('',#1460,#306);
#217=LINE('',#1464,#307);
#218=LINE('',#1467,#308);
#219=LINE('',#1470,#309);
#220=LINE('',#1474,#310);
#221=LINE('',#1476,#311);
#222=LINE('',#1478,#312);
#223=LINE('',#1482,#313);
#224=LINE('',#1483,#314);
#225=LINE('',#1485,#315);
#226=LINE('',#1488,#316);
#227=LINE('',#1491,#317);
#228=LINE('',#1494,#318);
#229=LINE('',#1495,#319);
#230=LINE('',#1498,#320);
#231=LINE('',#1499,#321);
#232=LINE('',#1502,#322);
#233=LINE('',#1503,#323);
#234=LINE('',#1507,#324);
#235=LINE('',#1509,#325);
#236=LINE('',#1512,#326);
#237=LINE('',#1515,#327);
#238=LINE('',#1518,#328);
#239=LINE('',#1519,#329);
#240=LINE('',#1523,#330);
#241=LINE('',#1525,#331);
#242=LINE('',#1527,#332);
#243=VECTOR('',#1013,10.);
#244=VECTOR('',#1016,10.);
#245=VECTOR('',#1021,10.);
#246=VECTOR('',#1028,10.);
#247=VECTOR('',#1033,10.);
#248=VECTOR('',#1034,10.);
#249=VECTOR('',#1035,10.);
#250=VECTOR('',#1040,10.);
#251=VECTOR('',#1043,10.);
#252=VECTOR('',#1046,10.);
#253=VECTOR('',#1047,10.);
#254=VECTOR('',#1052,10.);
#255=VECTOR('',#1055,10.);
#256=VECTOR('',#1058,10.);
#257=VECTOR('',#1059,10.);
#258=VECTOR('',#1064,10.);
#259=VECTOR('',#1067,10.);
#260=VECTOR('',#1072,10.);
#261=VECTOR('',#1079,10.);
#262=VECTOR('',#1084,10.);
#263=VECTOR('',#1085,10.);
#264=VECTOR('',#1086,10.);
#265=VECTOR('',#1091,10.);
#266=VECTOR('',#1094,10.);
#267=VECTOR('',#1097,10.);
#268=VECTOR('',#1098,10.);
#269=VECTOR('',#1101,10.);
#270=VECTOR('',#1102,10.);
#271=VECTOR('',#1103,10.);
#272=VECTOR('',#1110,10.);
#273=VECTOR('',#1113,10.);
#274=VECTOR('',#1114,10.);
#275=VECTOR('',#1115,10.);
#276=VECTOR('',#1116,10.);
#277=VECTOR('',#1119,10.);
#278=VECTOR('',#1120,10.);
#279=VECTOR('',#1121,10.);
#280=VECTOR('',#1124,10.);
#281=VECTOR('',#1125,10.);
#282=VECTOR('',#1126,10.);
#283=VECTOR('',#1129,10.);
#284=VECTOR('',#1130,10.);
#285=VECTOR('',#1131,10.);
#286=VECTOR('',#1136,10.);
#287=VECTOR('',#1141,10.);
#288=VECTOR('',#1142,10.);
#289=VECTOR('',#1143,10.);
#290=VECTOR('',#1152,10.);
#291=VECTOR('',#1153,10.);
#292=VECTOR('',#1154,10.);
#293=VECTOR('',#1155,10.);
#294=VECTOR('',#1158,10.);
#295=VECTOR('',#1159,10.);
#296=VECTOR('',#1160,10.);
#297=VECTOR('',#1161,10.);
#298=VECTOR('',#1166,10.);
#299=VECTOR('',#1171,10.);
#300=VECTOR('',#1172,10.);
#301=VECTOR('',#1173,10.);
#302=VECTOR('',#1182,10.);
#303=VECTOR('',#1183,10.);
#304=VECTOR('',#1186,10.);
#305=VECTOR('',#1187,10.);
#306=VECTOR('',#1188,10.);
#307=VECTOR('',#1191,10.);
#308=VECTOR('',#1194,10.);
#309=VECTOR('',#1195,10.);
#310=VECTOR('',#1198,10.);
#311=VECTOR('',#1199,10.);
#312=VECTOR('',#1200,10.);
#313=VECTOR('',#1205,10.);
#314=VECTOR('',#1206,10.);
#315=VECTOR('',#1209,10.);
#316=VECTOR('',#1212,10.);
#317=VECTOR('',#1215,10.);
#318=VECTOR('',#1218,10.);
#319=VECTOR('',#1219,10.);
#320=VECTOR('',#1222,10.);
#321=VECTOR('',#1223,10.);
#322=VECTOR('',#1226,10.);
#323=VECTOR('',#1227,10.);
#324=VECTOR('',#1232,10.);
#325=VECTOR('',#1235,10.);
#326=VECTOR('',#1238,10.);
#327=VECTOR('',#1241,10.);
#328=VECTOR('',#1244,10.);
#329=VECTOR('',#1245,10.);
#330=VECTOR('',#1250,10.);
#331=VECTOR('',#1253,10.);
#332=VECTOR('',#1256,10.);
#333=CIRCLE('',#913,0.5);
#334=CIRCLE('',#914,0.5);
#335=CIRCLE('',#916,0.5);
#336=CIRCLE('',#917,0.5);
#337=CIRCLE('',#919,0.5);
#338=CIRCLE('',#920,0.5);
#339=CIRCLE('',#923,0.5);
#340=CIRCLE('',#924,0.5);
#341=CIRCLE('',#927,0.5);
#342=CIRCLE('',#928,0.5);
#343=CIRCLE('',#931,0.5);
#344=CIRCLE('',#932,0.5);
#345=CIRCLE('',#934,0.500000000000003);
#346=CIRCLE('',#935,0.500000000000003);
#347=CIRCLE('',#937,0.5);
#348=CIRCLE('',#938,0.5);
#349=CIRCLE('',#941,0.5);
#350=CIRCLE('',#942,0.5);
#351=CIRCLE('',#946,0.5);
#352=CIRCLE('',#947,0.5);
#353=CIRCLE('',#953,0.5);
#354=CIRCLE('',#954,0.5);
#355=CIRCLE('',#957,0.5);
#356=CIRCLE('',#958,0.5);
#357=CIRCLE('',#962,0.5);
#358=CIRCLE('',#963,0.5);
#359=CIRCLE('',#966,0.5);
#360=CIRCLE('',#967,0.5);
#361=CIRCLE('',#970,0.5);
#362=CIRCLE('',#971,0.5);
#363=CIRCLE('',#972,1.5);
#364=CIRCLE('',#973,1.5);
#365=CIRCLE('',#977,1.5);
#366=CIRCLE('',#982,1.5);
#367=CIRCLE('',#985,0.5);
#368=CIRCLE('',#988,0.5);
#369=VERTEX_POINT('',#1276);
#370=VERTEX_POINT('',#1277);
#371=VERTEX_POINT('',#1279);
#372=VERTEX_POINT('',#1281);
#373=VERTEX_POINT('',#1285);
#374=VERTEX_POINT('',#1287);
#375=VERTEX_POINT('',#1291);
#376=VERTEX_POINT('',#1293);
#377=VERTEX_POINT('',#1297);
#378=VERTEX_POINT('',#1299);
#379=VERTEX_POINT('',#1303);
#380=VERTEX_POINT('',#1304);
#381=VERTEX_POINT('',#1306);
#382=VERTEX_POINT('',#1308);
#383=VERTEX_POINT('',#1315);
#384=VERTEX_POINT('',#1316);
#385=VERTEX_POINT('',#1318);
#386=VERTEX_POINT('',#1320);
#387=VERTEX_POINT('',#1327);
#388=VERTEX_POINT('',#1328);
#389=VERTEX_POINT('',#1330);
#390=VERTEX_POINT('',#1332);
#391=VERTEX_POINT('',#1336);
#392=VERTEX_POINT('',#1338);
#393=VERTEX_POINT('',#1342);
#394=VERTEX_POINT('',#1344);
#395=VERTEX_POINT('',#1348);
#396=VERTEX_POINT('',#1350);
#397=VERTEX_POINT('',#1354);
#398=VERTEX_POINT('',#1355);
#399=VERTEX_POINT('',#1357);
#400=VERTEX_POINT('',#1359);
#401=VERTEX_POINT('',#1366);
#402=VERTEX_POINT('',#1368);
#403=VERTEX_POINT('',#1372);
#404=VERTEX_POINT('',#1374);
#405=VERTEX_POINT('',#1378);
#406=VERTEX_POINT('',#1379);
#407=VERTEX_POINT('',#1381);
#408=VERTEX_POINT('',#1383);
#409=VERTEX_POINT('',#1387);
#410=VERTEX_POINT('',#1389);
#411=VERTEX_POINT('',#1393);
#412=VERTEX_POINT('',#1394);
#413=VERTEX_POINT('',#1399);
#414=VERTEX_POINT('',#1400);
#415=VERTEX_POINT('',#1405);
#416=VERTEX_POINT('',#1407);
#417=VERTEX_POINT('',#1411);
#418=VERTEX_POINT('',#1412);
#419=VERTEX_POINT('',#1420);
#420=VERTEX_POINT('',#1421);
#421=VERTEX_POINT('',#1423);
#422=VERTEX_POINT('',#1425);
#423=VERTEX_POINT('',#1429);
#424=VERTEX_POINT('',#1430);
#425=VERTEX_POINT('',#1432);
#426=VERTEX_POINT('',#1434);
#427=VERTEX_POINT('',#1438);
#428=VERTEX_POINT('',#1440);
#429=VERTEX_POINT('',#1444);
#430=VERTEX_POINT('',#1445);
#431=VERTEX_POINT('',#1456);
#432=VERTEX_POINT('',#1459);
#433=VERTEX_POINT('',#1461);
#434=VERTEX_POINT('',#1463);
#435=VERTEX_POINT('',#1465);
#436=VERTEX_POINT('',#1468);
#437=VERTEX_POINT('',#1469);
#438=VERTEX_POINT('',#1471);
#439=VERTEX_POINT('',#1473);
#440=VERTEX_POINT('',#1475);
#441=VERTEX_POINT('',#1477);
#442=VERTEX_POINT('',#1481);
#443=VERTEX_POINT('',#1487);
#444=VERTEX_POINT('',#1489);
#445=VERTEX_POINT('',#1493);
#446=VERTEX_POINT('',#1497);
#447=VERTEX_POINT('',#1501);
#448=VERTEX_POINT('',#1505);
#449=VERTEX_POINT('',#1511);
#450=VERTEX_POINT('',#1513);
#451=VERTEX_POINT('',#1517);
#452=VERTEX_POINT('',#1521);
#453=EDGE_CURVE('',#369,#370,#333,.T.);
#454=EDGE_CURVE('',#370,#371,#153,.T.);
#455=EDGE_CURVE('',#371,#372,#334,.T.);
#456=EDGE_CURVE('',#372,#369,#154,.T.);
#457=EDGE_CURVE('',#373,#372,#335,.T.);
#458=EDGE_CURVE('',#374,#373,#155,.T.);
#459=EDGE_CURVE('',#369,#374,#336,.T.);
#460=EDGE_CURVE('',#373,#375,#337,.T.);
#461=EDGE_CURVE('',#375,#376,#156,.T.);
#462=EDGE_CURVE('',#376,#374,#338,.T.);
#463=EDGE_CURVE('',#377,#370,#157,.T.);
#464=EDGE_CURVE('',#377,#378,#158,.T.);
#465=EDGE_CURVE('',#371,#378,#159,.T.);
#466=EDGE_CURVE('',#379,#380,#339,.T.);
#467=EDGE_CURVE('',#380,#381,#160,.T.);
#468=EDGE_CURVE('',#381,#382,#340,.T.);
#469=EDGE_CURVE('',#382,#379,#161,.T.);
#470=EDGE_CURVE('',#379,#375,#162,.T.);
#471=EDGE_CURVE('',#376,#382,#163,.T.);
#472=EDGE_CURVE('',#383,#384,#341,.T.);
#473=EDGE_CURVE('',#384,#385,#164,.T.);
#474=EDGE_CURVE('',#385,#386,#342,.T.);
#475=EDGE_CURVE('',#386,#383,#165,.T.);
#476=EDGE_CURVE('',#383,#380,#166,.T.);
#477=EDGE_CURVE('',#381,#386,#167,.T.);
#478=EDGE_CURVE('',#387,#388,#343,.T.);
#479=EDGE_CURVE('',#388,#389,#168,.T.);
#480=EDGE_CURVE('',#389,#390,#344,.T.);
#481=EDGE_CURVE('',#390,#387,#169,.T.);
#482=EDGE_CURVE('',#391,#390,#345,.T.);
#483=EDGE_CURVE('',#392,#391,#170,.T.);
#484=EDGE_CURVE('',#387,#392,#346,.T.);
#485=EDGE_CURVE('',#391,#393,#347,.T.);
#486=EDGE_CURVE('',#393,#394,#171,.T.);
#487=EDGE_CURVE('',#394,#392,#348,.T.);
#488=EDGE_CURVE('',#395,#388,#172,.T.);
#489=EDGE_CURVE('',#396,#395,#173,.T.);
#490=EDGE_CURVE('',#389,#396,#174,.T.);
#491=EDGE_CURVE('',#397,#398,#349,.T.);
#492=EDGE_CURVE('',#398,#399,#175,.T.);
#493=EDGE_CURVE('',#399,#400,#350,.T.);
#494=EDGE_CURVE('',#400,#397,#176,.T.);
#495=EDGE_CURVE('',#399,#393,#177,.T.);
#496=EDGE_CURVE('',#394,#398,#178,.T.);
#497=EDGE_CURVE('',#401,#400,#179,.T.);
#498=EDGE_CURVE('',#402,#401,#180,.T.);
#499=EDGE_CURVE('',#397,#402,#181,.T.);
#500=EDGE_CURVE('',#403,#402,#351,.T.);
#501=EDGE_CURVE('',#401,#404,#352,.T.);
#502=EDGE_CURVE('',#404,#403,#182,.T.);
#503=EDGE_CURVE('',#405,#406,#183,.T.);
#504=EDGE_CURVE('',#405,#407,#184,.T.);
#505=EDGE_CURVE('',#408,#407,#185,.T.);
#506=EDGE_CURVE('',#406,#408,#186,.T.);
#507=EDGE_CURVE('',#409,#404,#187,.T.);
#508=EDGE_CURVE('',#409,#410,#188,.T.);
#509=EDGE_CURVE('',#403,#410,#189,.T.);
#510=EDGE_CURVE('',#411,#412,#190,.T.);
#511=EDGE_CURVE('',#406,#411,#191,.T.);
#512=EDGE_CURVE('',#412,#408,#192,.T.);
#513=EDGE_CURVE('',#413,#414,#193,.T.);
#514=EDGE_CURVE('',#410,#413,#194,.T.);
#515=EDGE_CURVE('',#414,#409,#195,.T.);
#516=EDGE_CURVE('',#414,#415,#353,.T.);
#517=EDGE_CURVE('',#415,#416,#196,.T.);
#518=EDGE_CURVE('',#416,#413,#354,.T.);
#519=EDGE_CURVE('',#417,#418,#197,.T.);
#520=EDGE_CURVE('',#416,#417,#198,.T.);
#521=EDGE_CURVE('',#418,#415,#199,.T.);
#522=EDGE_CURVE('',#412,#417,#355,.T.);
#523=EDGE_CURVE('',#418,#411,#356,.T.);
#524=EDGE_CURVE('',#419,#420,#200,.T.);
#525=EDGE_CURVE('',#419,#421,#201,.T.);
#526=EDGE_CURVE('',#421,#422,#202,.T.);
#527=EDGE_CURVE('',#420,#422,#203,.T.);
#528=EDGE_CURVE('',#423,#424,#204,.T.);
#529=EDGE_CURVE('',#425,#423,#205,.T.);
#530=EDGE_CURVE('',#426,#425,#206,.T.);
#531=EDGE_CURVE('',#424,#426,#207,.T.);
#532=EDGE_CURVE('',#424,#427,#357,.T.);
#533=EDGE_CURVE('',#427,#428,#208,.T.);
#534=EDGE_CURVE('',#428,#423,#358,.T.);
#535=EDGE_CURVE('',#429,#430,#209,.T.);
#536=EDGE_CURVE('',#428,#429,#210,.T.);
#537=EDGE_CURVE('',#427,#430,#211,.T.);
#538=EDGE_CURVE('',#420,#429,#359,.T.);
#539=EDGE_CURVE('',#430,#419,#360,.T.);
#540=EDGE_CURVE('',#422,#384,#212,.T.);
#541=EDGE_CURVE('',#385,#421,#213,.T.);
#542=EDGE_CURVE('',#407,#431,#214,.T.);
#543=EDGE_CURVE('',#431,#425,#215,.T.);
#544=EDGE_CURVE('',#378,#432,#216,.T.);
#545=EDGE_CURVE('',#433,#432,#361,.T.);
#546=EDGE_CURVE('',#433,#434,#217,.T.);
#547=EDGE_CURVE('',#435,#434,#362,.T.);
#548=EDGE_CURVE('',#435,#395,#218,.T.);
#549=EDGE_CURVE('',#436,#437,#219,.T.);
#550=EDGE_CURVE('',#437,#438,#363,.T.);
#551=EDGE_CURVE('',#438,#439,#220,.T.);
#552=EDGE_CURVE('',#439,#440,#221,.T.);
#553=EDGE_CURVE('',#440,#441,#222,.T.);
#554=EDGE_CURVE('',#441,#436,#364,.T.);
#555=EDGE_CURVE('',#431,#442,#223,.T.);
#556=EDGE_CURVE('',#442,#405,#224,.T.);
#557=EDGE_CURVE('',#426,#442,#225,.T.);
#558=EDGE_CURVE('',#437,#443,#226,.T.);
#559=EDGE_CURVE('',#444,#443,#365,.T.);
#560=EDGE_CURVE('',#438,#444,#227,.T.);
#561=EDGE_CURVE('',#445,#444,#228,.T.);
#562=EDGE_CURVE('',#439,#445,#229,.T.);
#563=EDGE_CURVE('',#446,#445,#230,.T.);
#564=EDGE_CURVE('',#440,#446,#231,.T.);
#565=EDGE_CURVE('',#447,#446,#232,.T.);
#566=EDGE_CURVE('',#441,#447,#233,.T.);
#567=EDGE_CURVE('',#448,#447,#366,.T.);
#568=EDGE_CURVE('',#436,#448,#234,.T.);
#569=EDGE_CURVE('',#443,#448,#235,.T.);
#570=EDGE_CURVE('',#434,#449,#236,.T.);
#571=EDGE_CURVE('',#449,#450,#367,.T.);
#572=EDGE_CURVE('',#450,#435,#237,.T.);
#573=EDGE_CURVE('',#451,#433,#238,.T.);
#574=EDGE_CURVE('',#449,#451,#239,.T.);
#575=EDGE_CURVE('',#452,#451,#368,.T.);
#576=EDGE_CURVE('',#432,#452,#240,.T.);
#577=EDGE_CURVE('',#452,#377,#241,.T.);
#578=EDGE_CURVE('',#396,#450,#242,.T.);
#579=ORIENTED_EDGE('',*,*,#453,.T.);
#580=ORIENTED_EDGE('',*,*,#454,.T.);
#581=ORIENTED_EDGE('',*,*,#455,.T.);
#582=ORIENTED_EDGE('',*,*,#456,.T.);
#583=ORIENTED_EDGE('',*,*,#456,.F.);
#584=ORIENTED_EDGE('',*,*,#457,.F.);
#585=ORIENTED_EDGE('',*,*,#458,.F.);
#586=ORIENTED_EDGE('',*,*,#459,.F.);
#587=ORIENTED_EDGE('',*,*,#460,.T.);
#588=ORIENTED_EDGE('',*,*,#461,.T.);
#589=ORIENTED_EDGE('',*,*,#462,.T.);
#590=ORIENTED_EDGE('',*,*,#458,.T.);
#591=ORIENTED_EDGE('',*,*,#454,.F.);
#592=ORIENTED_EDGE('',*,*,#463,.F.);
#593=ORIENTED_EDGE('',*,*,#464,.T.);
#594=ORIENTED_EDGE('',*,*,#465,.F.);
#595=ORIENTED_EDGE('',*,*,#466,.T.);
#596=ORIENTED_EDGE('',*,*,#467,.T.);
#597=ORIENTED_EDGE('',*,*,#468,.T.);
#598=ORIENTED_EDGE('',*,*,#469,.T.);
#599=ORIENTED_EDGE('',*,*,#461,.F.);
#600=ORIENTED_EDGE('',*,*,#470,.F.);
#601=ORIENTED_EDGE('',*,*,#469,.F.);
#602=ORIENTED_EDGE('',*,*,#471,.F.);
#603=ORIENTED_EDGE('',*,*,#472,.T.);
#604=ORIENTED_EDGE('',*,*,#473,.T.);
#605=ORIENTED_EDGE('',*,*,#474,.T.);
#606=ORIENTED_EDGE('',*,*,#475,.T.);
#607=ORIENTED_EDGE('',*,*,#467,.F.);
#608=ORIENTED_EDGE('',*,*,#476,.F.);
#609=ORIENTED_EDGE('',*,*,#475,.F.);
#610=ORIENTED_EDGE('',*,*,#477,.F.);
#611=ORIENTED_EDGE('',*,*,#478,.T.);
#612=ORIENTED_EDGE('',*,*,#479,.T.);
#613=ORIENTED_EDGE('',*,*,#480,.T.);
#614=ORIENTED_EDGE('',*,*,#481,.T.);
#615=ORIENTED_EDGE('',*,*,#481,.F.);
#616=ORIENTED_EDGE('',*,*,#482,.F.);
#617=ORIENTED_EDGE('',*,*,#483,.F.);
#618=ORIENTED_EDGE('',*,*,#484,.F.);
#619=ORIENTED_EDGE('',*,*,#485,.T.);
#620=ORIENTED_EDGE('',*,*,#486,.T.);
#621=ORIENTED_EDGE('',*,*,#487,.T.);
#622=ORIENTED_EDGE('',*,*,#483,.T.);
#623=ORIENTED_EDGE('',*,*,#479,.F.);
#624=ORIENTED_EDGE('',*,*,#488,.F.);
#625=ORIENTED_EDGE('',*,*,#489,.F.);
#626=ORIENTED_EDGE('',*,*,#490,.F.);
#627=ORIENTED_EDGE('',*,*,#491,.T.);
#628=ORIENTED_EDGE('',*,*,#492,.T.);
#629=ORIENTED_EDGE('',*,*,#493,.T.);
#630=ORIENTED_EDGE('',*,*,#494,.T.);
#631=ORIENTED_EDGE('',*,*,#486,.F.);
#632=ORIENTED_EDGE('',*,*,#495,.F.);
#633=ORIENTED_EDGE('',*,*,#492,.F.);
#634=ORIENTED_EDGE('',*,*,#496,.F.);
#635=ORIENTED_EDGE('',*,*,#494,.F.);
#636=ORIENTED_EDGE('',*,*,#497,.F.);
#637=ORIENTED_EDGE('',*,*,#498,.F.);
#638=ORIENTED_EDGE('',*,*,#499,.F.);
#639=ORIENTED_EDGE('',*,*,#500,.T.);
#640=ORIENTED_EDGE('',*,*,#498,.T.);
#641=ORIENTED_EDGE('',*,*,#501,.T.);
#642=ORIENTED_EDGE('',*,*,#502,.T.);
#643=ORIENTED_EDGE('',*,*,#503,.F.);
#644=ORIENTED_EDGE('',*,*,#504,.T.);
#645=ORIENTED_EDGE('',*,*,#505,.F.);
#646=ORIENTED_EDGE('',*,*,#506,.F.);
#647=ORIENTED_EDGE('',*,*,#507,.F.);
#648=ORIENTED_EDGE('',*,*,#508,.T.);
#649=ORIENTED_EDGE('',*,*,#509,.F.);
#650=ORIENTED_EDGE('',*,*,#502,.F.);
#651=ORIENTED_EDGE('',*,*,#510,.F.);
#652=ORIENTED_EDGE('',*,*,#511,.F.);
#653=ORIENTED_EDGE('',*,*,#506,.T.);
#654=ORIENTED_EDGE('',*,*,#512,.F.);
#655=ORIENTED_EDGE('',*,*,#513,.F.);
#656=ORIENTED_EDGE('',*,*,#514,.F.);
#657=ORIENTED_EDGE('',*,*,#508,.F.);
#658=ORIENTED_EDGE('',*,*,#515,.F.);
#659=ORIENTED_EDGE('',*,*,#516,.T.);
#660=ORIENTED_EDGE('',*,*,#517,.T.);
#661=ORIENTED_EDGE('',*,*,#518,.T.);
#662=ORIENTED_EDGE('',*,*,#513,.T.);
#663=ORIENTED_EDGE('',*,*,#519,.F.);
#664=ORIENTED_EDGE('',*,*,#520,.F.);
#665=ORIENTED_EDGE('',*,*,#517,.F.);
#666=ORIENTED_EDGE('',*,*,#521,.F.);
#667=ORIENTED_EDGE('',*,*,#522,.T.);
#668=ORIENTED_EDGE('',*,*,#519,.T.);
#669=ORIENTED_EDGE('',*,*,#523,.T.);
#670=ORIENTED_EDGE('',*,*,#510,.T.);
#671=ORIENTED_EDGE('',*,*,#524,.F.);
#672=ORIENTED_EDGE('',*,*,#525,.T.);
#673=ORIENTED_EDGE('',*,*,#526,.T.);
#674=ORIENTED_EDGE('',*,*,#527,.F.);
#675=ORIENTED_EDGE('',*,*,#528,.F.);
#676=ORIENTED_EDGE('',*,*,#529,.F.);
#677=ORIENTED_EDGE('',*,*,#530,.F.);
#678=ORIENTED_EDGE('',*,*,#531,.F.);
#679=ORIENTED_EDGE('',*,*,#532,.T.);
#680=ORIENTED_EDGE('',*,*,#533,.T.);
#681=ORIENTED_EDGE('',*,*,#534,.T.);
#682=ORIENTED_EDGE('',*,*,#528,.T.);
#683=ORIENTED_EDGE('',*,*,#535,.F.);
#684=ORIENTED_EDGE('',*,*,#536,.F.);
#685=ORIENTED_EDGE('',*,*,#533,.F.);
#686=ORIENTED_EDGE('',*,*,#537,.T.);
#687=ORIENTED_EDGE('',*,*,#538,.T.);
#688=ORIENTED_EDGE('',*,*,#535,.T.);
#689=ORIENTED_EDGE('',*,*,#539,.T.);
#690=ORIENTED_EDGE('',*,*,#524,.T.);
#691=ORIENTED_EDGE('',*,*,#540,.F.);
#692=ORIENTED_EDGE('',*,*,#526,.F.);
#693=ORIENTED_EDGE('',*,*,#541,.F.);
#694=ORIENTED_EDGE('',*,*,#473,.F.);
#695=ORIENTED_EDGE('',*,*,#509,.T.);
#696=ORIENTED_EDGE('',*,*,#514,.T.);
#697=ORIENTED_EDGE('',*,*,#518,.F.);
#698=ORIENTED_EDGE('',*,*,#520,.T.);
#699=ORIENTED_EDGE('',*,*,#522,.F.);
#700=ORIENTED_EDGE('',*,*,#512,.T.);
#701=ORIENTED_EDGE('',*,*,#505,.T.);
#702=ORIENTED_EDGE('',*,*,#542,.T.);
#703=ORIENTED_EDGE('',*,*,#543,.T.);
#704=ORIENTED_EDGE('',*,*,#529,.T.);
#705=ORIENTED_EDGE('',*,*,#534,.F.);
#706=ORIENTED_EDGE('',*,*,#536,.T.);
#707=ORIENTED_EDGE('',*,*,#538,.F.);
#708=ORIENTED_EDGE('',*,*,#527,.T.);
#709=ORIENTED_EDGE('',*,*,#540,.T.);
#710=ORIENTED_EDGE('',*,*,#472,.F.);
#711=ORIENTED_EDGE('',*,*,#476,.T.);
#712=ORIENTED_EDGE('',*,*,#466,.F.);
#713=ORIENTED_EDGE('',*,*,#470,.T.);
#714=ORIENTED_EDGE('',*,*,#460,.F.);
#715=ORIENTED_EDGE('',*,*,#457,.T.);
#716=ORIENTED_EDGE('',*,*,#455,.F.);
#717=ORIENTED_EDGE('',*,*,#465,.T.);
#718=ORIENTED_EDGE('',*,*,#544,.T.);
#719=ORIENTED_EDGE('',*,*,#545,.F.);
#720=ORIENTED_EDGE('',*,*,#546,.T.);
#721=ORIENTED_EDGE('',*,*,#547,.F.);
#722=ORIENTED_EDGE('',*,*,#548,.T.);
#723=ORIENTED_EDGE('',*,*,#488,.T.);
#724=ORIENTED_EDGE('',*,*,#478,.F.);
#725=ORIENTED_EDGE('',*,*,#484,.T.);
#726=ORIENTED_EDGE('',*,*,#487,.F.);
#727=ORIENTED_EDGE('',*,*,#496,.T.);
#728=ORIENTED_EDGE('',*,*,#491,.F.);
#729=ORIENTED_EDGE('',*,*,#499,.T.);
#730=ORIENTED_EDGE('',*,*,#500,.F.);
#731=ORIENTED_EDGE('',*,*,#549,.T.);
#732=ORIENTED_EDGE('',*,*,#550,.T.);
#733=ORIENTED_EDGE('',*,*,#551,.T.);
#734=ORIENTED_EDGE('',*,*,#552,.T.);
#735=ORIENTED_EDGE('',*,*,#553,.T.);
#736=ORIENTED_EDGE('',*,*,#554,.T.);
#737=ORIENTED_EDGE('',*,*,#555,.F.);
#738=ORIENTED_EDGE('',*,*,#542,.F.);
#739=ORIENTED_EDGE('',*,*,#504,.F.);
#740=ORIENTED_EDGE('',*,*,#556,.F.);
#741=ORIENTED_EDGE('',*,*,#555,.T.);
#742=ORIENTED_EDGE('',*,*,#557,.F.);
#743=ORIENTED_EDGE('',*,*,#530,.T.);
#744=ORIENTED_EDGE('',*,*,#543,.F.);
#745=ORIENTED_EDGE('',*,*,#550,.F.);
#746=ORIENTED_EDGE('',*,*,#558,.T.);
#747=ORIENTED_EDGE('',*,*,#559,.F.);
#748=ORIENTED_EDGE('',*,*,#560,.F.);
#749=ORIENTED_EDGE('',*,*,#551,.F.);
#750=ORIENTED_EDGE('',*,*,#560,.T.);
#751=ORIENTED_EDGE('',*,*,#561,.F.);
#752=ORIENTED_EDGE('',*,*,#562,.F.);
#753=ORIENTED_EDGE('',*,*,#552,.F.);
#754=ORIENTED_EDGE('',*,*,#562,.T.);
#755=ORIENTED_EDGE('',*,*,#563,.F.);
#756=ORIENTED_EDGE('',*,*,#564,.F.);
#757=ORIENTED_EDGE('',*,*,#553,.F.);
#758=ORIENTED_EDGE('',*,*,#564,.T.);
#759=ORIENTED_EDGE('',*,*,#565,.F.);
#760=ORIENTED_EDGE('',*,*,#566,.F.);
#761=ORIENTED_EDGE('',*,*,#554,.F.);
#762=ORIENTED_EDGE('',*,*,#566,.T.);
#763=ORIENTED_EDGE('',*,*,#567,.F.);
#764=ORIENTED_EDGE('',*,*,#568,.F.);
#765=ORIENTED_EDGE('',*,*,#549,.F.);
#766=ORIENTED_EDGE('',*,*,#568,.T.);
#767=ORIENTED_EDGE('',*,*,#569,.F.);
#768=ORIENTED_EDGE('',*,*,#558,.F.);
#769=ORIENTED_EDGE('',*,*,#547,.T.);
#770=ORIENTED_EDGE('',*,*,#570,.T.);
#771=ORIENTED_EDGE('',*,*,#571,.T.);
#772=ORIENTED_EDGE('',*,*,#572,.T.);
#773=ORIENTED_EDGE('',*,*,#573,.F.);
#774=ORIENTED_EDGE('',*,*,#574,.F.);
#775=ORIENTED_EDGE('',*,*,#570,.F.);
#776=ORIENTED_EDGE('',*,*,#546,.F.);
#777=ORIENTED_EDGE('',*,*,#575,.T.);
#778=ORIENTED_EDGE('',*,*,#573,.T.);
#779=ORIENTED_EDGE('',*,*,#545,.T.);
#780=ORIENTED_EDGE('',*,*,#576,.T.);
#781=ORIENTED_EDGE('',*,*,#577,.F.);
#782=ORIENTED_EDGE('',*,*,#576,.F.);
#783=ORIENTED_EDGE('',*,*,#544,.F.);
#784=ORIENTED_EDGE('',*,*,#464,.F.);
#785=ORIENTED_EDGE('',*,*,#578,.T.);
#786=ORIENTED_EDGE('',*,*,#571,.F.);
#787=ORIENTED_EDGE('',*,*,#574,.T.);
#788=ORIENTED_EDGE('',*,*,#575,.F.);
#789=ORIENTED_EDGE('',*,*,#577,.T.);
#790=ORIENTED_EDGE('',*,*,#463,.T.);
#791=ORIENTED_EDGE('',*,*,#453,.F.);
#792=ORIENTED_EDGE('',*,*,#459,.T.);
#793=ORIENTED_EDGE('',*,*,#462,.F.);
#794=ORIENTED_EDGE('',*,*,#471,.T.);
#795=ORIENTED_EDGE('',*,*,#468,.F.);
#796=ORIENTED_EDGE('',*,*,#477,.T.);
#797=ORIENTED_EDGE('',*,*,#474,.F.);
#798=ORIENTED_EDGE('',*,*,#541,.T.);
#799=ORIENTED_EDGE('',*,*,#525,.F.);
#800=ORIENTED_EDGE('',*,*,#539,.F.);
#801=ORIENTED_EDGE('',*,*,#537,.F.);
#802=ORIENTED_EDGE('',*,*,#532,.F.);
#803=ORIENTED_EDGE('',*,*,#531,.T.);
#804=ORIENTED_EDGE('',*,*,#557,.T.);
#805=ORIENTED_EDGE('',*,*,#556,.T.);
#806=ORIENTED_EDGE('',*,*,#503,.T.);
#807=ORIENTED_EDGE('',*,*,#511,.T.);
#808=ORIENTED_EDGE('',*,*,#523,.F.);
#809=ORIENTED_EDGE('',*,*,#521,.T.);
#810=ORIENTED_EDGE('',*,*,#516,.F.);
#811=ORIENTED_EDGE('',*,*,#515,.T.);
#812=ORIENTED_EDGE('',*,*,#507,.T.);
#813=ORIENTED_EDGE('',*,*,#501,.F.);
#814=ORIENTED_EDGE('',*,*,#497,.T.);
#815=ORIENTED_EDGE('',*,*,#493,.F.);
#816=ORIENTED_EDGE('',*,*,#495,.T.);
#817=ORIENTED_EDGE('',*,*,#485,.F.);
#818=ORIENTED_EDGE('',*,*,#482,.T.);
#819=ORIENTED_EDGE('',*,*,#480,.F.);
#820=ORIENTED_EDGE('',*,*,#490,.T.);
#821=ORIENTED_EDGE('',*,*,#569,.T.);
#822=ORIENTED_EDGE('',*,*,#567,.T.);
#823=ORIENTED_EDGE('',*,*,#565,.T.);
#824=ORIENTED_EDGE('',*,*,#563,.T.);
#825=ORIENTED_EDGE('',*,*,#561,.T.);
#826=ORIENTED_EDGE('',*,*,#559,.T.);
#827=ORIENTED_EDGE('',*,*,#548,.F.);
#828=ORIENTED_EDGE('',*,*,#572,.F.);
#829=ORIENTED_EDGE('',*,*,#578,.F.);
#830=ORIENTED_EDGE('',*,*,#489,.T.);
#831=CYLINDRICAL_SURFACE('',#912,0.5);
#832=CYLINDRICAL_SURFACE('',#915,0.5);
#833=CYLINDRICAL_SURFACE('',#918,0.5);
#834=CYLINDRICAL_SURFACE('',#922,0.5);
#835=CYLINDRICAL_SURFACE('',#926,0.5);
#836=CYLINDRICAL_SURFACE('',#930,0.5);
#837=CYLINDRICAL_SURFACE('',#933,0.500000000000003);
#838=CYLINDRICAL_SURFACE('',#936,0.5);
#839=CYLINDRICAL_SURFACE('',#940,0.5);
#840=CYLINDRICAL_SURFACE('',#945,0.5);
#841=CYLINDRICAL_SURFACE('',#952,0.5);
#842=CYLINDRICAL_SURFACE('',#956,0.5);
#843=CYLINDRICAL_SURFACE('',#961,0.5);
#844=CYLINDRICAL_SURFACE('',#965,0.5);
#845=CYLINDRICAL_SURFACE('',#976,1.5);
#846=CYLINDRICAL_SURFACE('',#981,1.5);
#847=CYLINDRICAL_SURFACE('',#984,0.5);
#848=CYLINDRICAL_SURFACE('',#987,0.5);
#849=ADVANCED_FACE('',(#63),#831,.T.);
#850=ADVANCED_FACE('',(#64),#832,.F.);
#851=ADVANCED_FACE('',(#65),#833,.T.);
#852=ADVANCED_FACE('',(#66),#37,.T.);
#853=ADVANCED_FACE('',(#67),#834,.T.);
#854=ADVANCED_FACE('',(#68),#38,.T.);
#855=ADVANCED_FACE('',(#69),#835,.T.);
#856=ADVANCED_FACE('',(#70),#39,.T.);
#857=ADVANCED_FACE('',(#71),#836,.T.);
#858=ADVANCED_FACE('',(#72),#837,.F.);
#859=ADVANCED_FACE('',(#73),#838,.T.);
#860=ADVANCED_FACE('',(#74),#40,.T.);
#861=ADVANCED_FACE('',(#75),#839,.T.);
#862=ADVANCED_FACE('',(#76),#41,.T.);
#863=ADVANCED_FACE('',(#77),#42,.T.);
#864=ADVANCED_FACE('',(#78),#840,.T.);
#865=ADVANCED_FACE('',(#79),#43,.T.);
#866=ADVANCED_FACE('',(#80),#44,.T.);
#867=ADVANCED_FACE('',(#81),#45,.T.);
#868=ADVANCED_FACE('',(#82),#46,.T.);
#869=ADVANCED_FACE('',(#83),#841,.T.);
#870=ADVANCED_FACE('',(#84),#47,.T.);
#871=ADVANCED_FACE('',(#85),#842,.T.);
#872=ADVANCED_FACE('',(#86),#48,.T.);
#873=ADVANCED_FACE('',(#87),#49,.T.);
#874=ADVANCED_FACE('',(#88),#843,.T.);
#875=ADVANCED_FACE('',(#89),#50,.T.);
#876=ADVANCED_FACE('',(#90),#844,.T.);
#877=ADVANCED_FACE('',(#91),#51,.T.);
#878=ADVANCED_FACE('',(#92,#35),#52,.T.);
#879=ADVANCED_FACE('',(#93),#53,.T.);
#880=ADVANCED_FACE('',(#94),#54,.T.);
#881=ADVANCED_FACE('',(#95),#845,.F.);
#882=ADVANCED_FACE('',(#96),#55,.F.);
#883=ADVANCED_FACE('',(#97),#56,.F.);
#884=ADVANCED_FACE('',(#98),#57,.F.);
#885=ADVANCED_FACE('',(#99),#846,.F.);
#886=ADVANCED_FACE('',(#100),#58,.F.);
#887=ADVANCED_FACE('',(#101),#847,.F.);
#888=ADVANCED_FACE('',(#102),#59,.T.);
#889=ADVANCED_FACE('',(#103),#848,.F.);
#890=ADVANCED_FACE('',(#104),#60,.T.);
#891=ADVANCED_FACE('',(#105,#36),#61,.F.);
#892=ADVANCED_FACE('',(#106),#62,.T.);
#893=CLOSED_SHELL('',(#849,#850,#851,#852,#853,#854,#855,#856,#857,#858,
#859,#860,#861,#862,#863,#864,#865,#866,#867,#868,#869,#870,#871,#872,#873,
#874,#875,#876,#877,#878,#879,#880,#881,#882,#883,#884,#885,#886,#887,#888,
#889,#890,#891,#892));
#894=DERIVED_UNIT_ELEMENT(#896,1.);
#895=DERIVED_UNIT_ELEMENT(#1549,-3.);
#896=(
MASS_UNIT()
NAMED_UNIT(*)
SI_UNIT(.KILO.,.GRAM.)
);
#897=DERIVED_UNIT((#894,#895));
#898=MEASURE_REPRESENTATION_ITEM('density measure',
POSITIVE_RATIO_MEASURE(2700.),#897);
#899=PROPERTY_DEFINITION_REPRESENTATION(#904,#901);
#900=PROPERTY_DEFINITION_REPRESENTATION(#905,#902);
#901=REPRESENTATION('material name',(#903),#1546);
#902=REPRESENTATION('density',(#898),#1546);
#903=DESCRIPTIVE_REPRESENTATION_ITEM('Aluminum','Aluminum');
#904=PROPERTY_DEFINITION('material property','material name',#1581);
#905=PROPERTY_DEFINITION('material property','density of part',#1581);
#906=AXIS2_PLACEMENT_3D('',#1269,#997,#998);
#907=AXIS2_PLACEMENT_3D('',#1270,#999,#1000);
#908=AXIS2_PLACEMENT_3D('',#1271,#1001,#1002);
#909=AXIS2_PLACEMENT_3D('',#1272,#1003,#1004);
#910=AXIS2_PLACEMENT_3D('',#1273,#1005,#1006);
#911=AXIS2_PLACEMENT_3D('',#1274,#1007,#1008);
#912=AXIS2_PLACEMENT_3D('',#1275,#1009,#1010);
#913=AXIS2_PLACEMENT_3D('',#1278,#1011,#1012);
#914=AXIS2_PLACEMENT_3D('',#1282,#1014,#1015);
#915=AXIS2_PLACEMENT_3D('',#1284,#1017,#1018);
#916=AXIS2_PLACEMENT_3D('',#1286,#1019,#1020);
#917=AXIS2_PLACEMENT_3D('',#1289,#1022,#1023);
#918=AXIS2_PLACEMENT_3D('',#1290,#1024,#1025);
#919=AXIS2_PLACEMENT_3D('',#1292,#1026,#1027);
#920=AXIS2_PLACEMENT_3D('',#1295,#1029,#1030);
#921=AXIS2_PLACEMENT_3D('',#1296,#1031,#1032);
#922=AXIS2_PLACEMENT_3D('',#1302,#1036,#1037);
#923=AXIS2_PLACEMENT_3D('',#1305,#1038,#1039);
#924=AXIS2_PLACEMENT_3D('',#1309,#1041,#1042);
#925=AXIS2_PLACEMENT_3D('',#1311,#1044,#1045);
#926=AXIS2_PLACEMENT_3D('',#1314,#1048,#1049);
#927=AXIS2_PLACEMENT_3D('',#1317,#1050,#1051);
#928=AXIS2_PLACEMENT_3D('',#1321,#1053,#1054);
#929=AXIS2_PLACEMENT_3D('',#1323,#1056,#1057);
#930=AXIS2_PLACEMENT_3D('',#1326,#1060,#1061);
#931=AXIS2_PLACEMENT_3D('',#1329,#1062,#1063);
#932=AXIS2_PLACEMENT_3D('',#1333,#1065,#1066);
#933=AXIS2_PLACEMENT_3D('',#1335,#1068,#1069);
#934=AXIS2_PLACEMENT_3D('',#1337,#1070,#1071);
#935=AXIS2_PLACEMENT_3D('',#1340,#1073,#1074);
#936=AXIS2_PLACEMENT_3D('',#1341,#1075,#1076);
#937=AXIS2_PLACEMENT_3D('',#1343,#1077,#1078);
#938=AXIS2_PLACEMENT_3D('',#1346,#1080,#1081);
#939=AXIS2_PLACEMENT_3D('',#1347,#1082,#1083);
#940=AXIS2_PLACEMENT_3D('',#1353,#1087,#1088);
#941=AXIS2_PLACEMENT_3D('',#1356,#1089,#1090);
#942=AXIS2_PLACEMENT_3D('',#1360,#1092,#1093);
#943=AXIS2_PLACEMENT_3D('',#1362,#1095,#1096);
#944=AXIS2_PLACEMENT_3D('',#1365,#1099,#1100);
#945=AXIS2_PLACEMENT_3D('',#1371,#1104,#1105);
#946=AXIS2_PLACEMENT_3D('',#1373,#1106,#1107);
#947=AXIS2_PLACEMENT_3D('',#1375,#1108,#1109);
#948=AXIS2_PLACEMENT_3D('',#1377,#1111,#1112);
#949=AXIS2_PLACEMENT_3D('',#1386,#1117,#1118);
#950=AXIS2_PLACEMENT_3D('',#1392,#1122,#1123);
#951=AXIS2_PLACEMENT_3D('',#1398,#1127,#1128);
#952=AXIS2_PLACEMENT_3D('',#1404,#1132,#1133);
#953=AXIS2_PLACEMENT_3D('',#1406,#1134,#1135);
#954=AXIS2_PLACEMENT_3D('',#1409,#1137,#1138);
#955=AXIS2_PLACEMENT_3D('',#1410,#1139,#1140);
#956=AXIS2_PLACEMENT_3D('',#1416,#1144,#1145);
#957=AXIS2_PLACEMENT_3D('',#1417,#1146,#1147);
#958=AXIS2_PLACEMENT_3D('',#1418,#1148,#1149);
#959=AXIS2_PLACEMENT_3D('',#1419,#1150,#1151);
#960=AXIS2_PLACEMENT_3D('',#1428,#1156,#1157);
#961=AXIS2_PLACEMENT_3D('',#1437,#1162,#1163);
#962=AXIS2_PLACEMENT_3D('',#1439,#1164,#1165);
#963=AXIS2_PLACEMENT_3D('',#1442,#1167,#1168);
#964=AXIS2_PLACEMENT_3D('',#1443,#1169,#1170);
#965=AXIS2_PLACEMENT_3D('',#1449,#1174,#1175);
#966=AXIS2_PLACEMENT_3D('',#1450,#1176,#1177);
#967=AXIS2_PLACEMENT_3D('',#1451,#1178,#1179);
#968=AXIS2_PLACEMENT_3D('',#1452,#1180,#1181);
#969=AXIS2_PLACEMENT_3D('',#1455,#1184,#1185);
#970=AXIS2_PLACEMENT_3D('',#1462,#1189,#1190);
#971=AXIS2_PLACEMENT_3D('',#1466,#1192,#1193);
#972=AXIS2_PLACEMENT_3D('',#1472,#1196,#1197);
#973=AXIS2_PLACEMENT_3D('',#1479,#1201,#1202);
#974=AXIS2_PLACEMENT_3D('',#1480,#1203,#1204);
#975=AXIS2_PLACEMENT_3D('',#1484,#1207,#1208);
#976=AXIS2_PLACEMENT_3D('',#1486,#1210,#1211);
#977=AXIS2_PLACEMENT_3D('',#1490,#1213,#1214);
#978=AXIS2_PLACEMENT_3D('',#1492,#1216,#1217);
#979=AXIS2_PLACEMENT_3D('',#1496,#1220,#1221);
#980=AXIS2_PLACEMENT_3D('',#1500,#1224,#1225);
#981=AXIS2_PLACEMENT_3D('',#1504,#1228,#1229);
#982=AXIS2_PLACEMENT_3D('',#1506,#1230,#1231);
#983=AXIS2_PLACEMENT_3D('',#1508,#1233,#1234);
#984=AXIS2_PLACEMENT_3D('',#1510,#1236,#1237);
#985=AXIS2_PLACEMENT_3D('',#1514,#1239,#1240);
#986=AXIS2_PLACEMENT_3D('',#1516,#1242,#1243);
#987=AXIS2_PLACEMENT_3D('',#1520,#1246,#1247);
#988=AXIS2_PLACEMENT_3D('',#1522,#1248,#1249);
#989=AXIS2_PLACEMENT_3D('',#1524,#1251,#1252);
#990=AXIS2_PLACEMENT_3D('',#1526,#1254,#1255);
#991=AXIS2_PLACEMENT_3D('',#1528,#1257,#1258);
#992=AXIS2_PLACEMENT_3D('',#1529,#1259,#1260);
#993=AXIS2_PLACEMENT_3D('',#1530,#1261,#1262);
#994=AXIS2_PLACEMENT_3D('',#1531,#1263,#1264);
#995=AXIS2_PLACEMENT_3D('',#1532,#1265,#1266);
#996=AXIS2_PLACEMENT_3D('',#1533,#1267,#1268);
#997=DIRECTION('axis',(0.,0.,1.));
#998=DIRECTION('refdir',(1.,0.,0.));
#999=DIRECTION('axis',(0.,0.,1.));
#1000=DIRECTION('refdir',(1.,0.,0.));
#1001=DIRECTION('axis',(0.,0.,1.));
#1002=DIRECTION('refdir',(1.,0.,0.));
#1003=DIRECTION('axis',(0.,0.,1.));
#1004=DIRECTION('refdir',(1.,0.,0.));
#1005=DIRECTION('axis',(0.,0.,1.));
#1006=DIRECTION('refdir',(1.,0.,0.));
#1007=DIRECTION('axis',(0.,0.,1.));
#1008=DIRECTION('refdir',(1.,0.,0.));
#1009=DIRECTION('center_axis',(1.22464679914737E-16,1.,1.77975810760649E-16));
#1010=DIRECTION('ref_axis',(-0.935414346693482,5.16312672174539E-17,0.353553390593284));
#1011=DIRECTION('center_axis',(-1.1442377452196E-17,-1.,-1.77975810760649E-16));
#1012=DIRECTION('ref_axis',(-0.935414346693482,-5.222058730895E-17,0.353553390593284));
#1013=DIRECTION('',(-1.22464679914737E-16,-1.,-1.77975810760649E-16));
#1014=DIRECTION('center_axis',(1.22464679914737E-16,1.,1.77975810760649E-16));
#1015=DIRECTION('ref_axis',(-0.935414346693482,5.16312672174539E-17,0.353553390593284));
#1016=DIRECTION('',(1.22464679914737E-16,1.,1.77975810760649E-16));
#1017=DIRECTION('center_axis',(1.22464679914737E-16,1.,1.77975810760649E-16));
#1018=DIRECTION('ref_axis',(0.707106781186548,-2.12443508299579E-16,0.707106781186547));
#1019=DIRECTION('center_axis',(1.22464679914737E-16,1.,1.77975810760649E-16));
#1020=DIRECTION('ref_axis',(-1.52655656493764E-16,1.77975810760649E-16,
-1.));
#1021=DIRECTION('',(-1.22464679914737E-16,-1.,-1.77975810760649E-16));
#1022=DIRECTION('center_axis',(-1.1442377452196E-17,-1.,-1.77975810760649E-16));
#1023=DIRECTION('ref_axis',(-1.52655656493764E-16,1.77975810760649E-16,
-1.));
#1024=DIRECTION('center_axis',(-1.22464679914737E-16,-1.,-1.77975810760649E-16));
#1025=DIRECTION('ref_axis',(0.353553390593267,1.23183323938142E-16,-0.935414346693488));
#1026=DIRECTION('center_axis',(1.22464679914737E-16,1.,1.77975810760649E-16));
#1027=DIRECTION('ref_axis',(0.353553390593267,1.23183323938142E-16,-0.935414346693488));
#1028=DIRECTION('',(1.22464679914737E-16,1.,1.77975810760649E-16));
#1029=DIRECTION('center_axis',(-1.1442377452196E-17,-1.,-1.77975810760649E-16));
#1030=DIRECTION('ref_axis',(0.353553390593267,1.62435635405244E-16,-0.935414346693488));
#1031=DIRECTION('center_axis',(-1.,1.22464679914733E-16,2.38374135151637E-14));
#1032=DIRECTION('ref_axis',(-2.38374135151637E-14,1.77975810760649E-16,
-1.));
#1033=DIRECTION('',(2.38374135151637E-14,-1.77975810760649E-16,1.));
#1034=DIRECTION('',(-1.22464679914737E-16,-1.,-1.77975810760649E-16));
#1035=DIRECTION('',(-2.38374135151637E-14,1.77975810760649E-16,-1.));
#1036=DIRECTION('center_axis',(-1.22464679914737E-16,-1.,-1.77975810760649E-16));
#1037=DIRECTION('ref_axis',(-0.707106781186548,2.12443508299579E-16,-0.707106781186547));
#1038=DIRECTION('center_axis',(1.22464679914737E-16,1.,1.77975810760649E-16));
#1039=DIRECTION('ref_axis',(-0.707106781186548,2.12443508299579E-16,-0.707106781186547));
#1040=DIRECTION('',(1.22464679914737E-16,1.,1.77975810760649E-16));
#1041=DIRECTION('center_axis',(-1.1442377452196E-17,-1.,-1.77975810760649E-16));
#1042=DIRECTION('ref_axis',(-0.707106781186548,1.33938885365372E-16,-0.707106781186547));
#1043=DIRECTION('',(-1.22464679914737E-16,-1.,-1.77975810760649E-16));
#1044=DIRECTION('center_axis',(-1.52655656493764E-16,1.77975810760649E-16,
-1.));
#1045=DIRECTION('ref_axis',(1.,-1.14423774521959E-17,-1.52655656493764E-16));
#1046=DIRECTION('',(1.,-1.14423774521959E-17,-1.52655656493764E-16));
#1047=DIRECTION('',(-1.,1.14423774521959E-17,1.52655656493764E-16));
#1048=DIRECTION('center_axis',(-1.22464679914737E-16,-1.,-1.77975810760649E-16));
#1049=DIRECTION('ref_axis',(-0.707106781186544,-3.92522970524791E-17,0.707106781186551));
#1050=DIRECTION('center_axis',(1.22464679914737E-16,1.,1.77975810760649E-16));
#1051=DIRECTION('ref_axis',(-0.707106781186544,-3.92522970524791E-17,0.707106781186551));
#1052=DIRECTION('',(1.22464679914737E-16,1.,1.77975810760649E-16));
#1053=DIRECTION('center_axis',(-1.1442377452196E-17,-1.,-1.77975810760649E-16));
#1054=DIRECTION('ref_axis',(-0.707106781186544,-1.17756919986685E-16,0.707106781186551));
#1055=DIRECTION('',(-1.22464679914737E-16,-1.,-1.77975810760649E-16));
#1056=DIRECTION('center_axis',(-1.,1.22464679914737E-16,1.52655656493764E-16));
#1057=DIRECTION('ref_axis',(-1.52655656493764E-16,1.77975810760649E-16,
-1.));
#1058=DIRECTION('',(-1.52655656493764E-16,1.77975810760649E-16,-1.));
#1059=DIRECTION('',(1.52655656493764E-16,-1.77975810760649E-16,1.));
#1060=DIRECTION('center_axis',(-1.22464679914737E-16,-1.,-1.77975810760649E-16));
#1061=DIRECTION('ref_axis',(-0.935414346693495,1.77479169893481E-16,-0.353553390593248));
#1062=DIRECTION('center_axis',(1.22464679914737E-16,1.,1.77975810760649E-16));
#1063=DIRECTION('ref_axis',(-0.935414346693495,1.77479169893481E-16,-0.353553390593248));
#1064=DIRECTION('',(1.22464679914737E-16,1.,1.77975810760649E-16));
#1065=DIRECTION('center_axis',(-1.1442377452196E-17,-1.,-1.77975810760649E-16));
#1066=DIRECTION('ref_axis',(-0.935414346693495,7.36273153670761E-17,-0.353553390593248));
#1067=DIRECTION('',(-1.22464679914737E-16,-1.,-1.77975810760649E-16));
#1068=DIRECTION('center_axis',(1.22464679914737E-16,1.,1.77975810760649E-16));
#1069=DIRECTION('ref_axis',(-1.52655656493764E-16,1.77975810760649E-16,
-1.));
#1070=DIRECTION('center_axis',(-1.1442377452196E-17,-1.,-1.77975810760649E-16));
#1071=DIRECTION('ref_axis',(-1.52655656493764E-16,1.77975810760649E-16,
-1.));
#1072=DIRECTION('',(1.22464679914737E-16,1.,1.77975810760649E-16));
#1073=DIRECTION('center_axis',(1.22464679914737E-16,1.,1.77975810760649E-16));
#1074=DIRECTION('ref_axis',(-1.52655656493764E-16,1.77975810760649E-16,
-1.));
#1075=DIRECTION('center_axis',(1.22464679914737E-16,1.,1.77975810760649E-16));
#1076=DIRECTION('ref_axis',(0.353553390593277,-2.09778929561691E-16,0.935414346693484));
#1077=DIRECTION('center_axis',(-1.1442377452196E-17,-1.,-1.77975810760649E-16));
#1078=DIRECTION('ref_axis',(0.353553390593277,-1.70526618094588E-16,0.935414346693484));
#1079=DIRECTION('',(-1.22464679914737E-16,-1.,-1.77975810760649E-16));
#1080=DIRECTION('center_axis',(1.22464679914737E-16,1.,1.77975810760649E-16));
#1081=DIRECTION('ref_axis',(0.353553390593277,-2.09778929561691E-16,0.935414346693484));
#1082=DIRECTION('center_axis',(-1.,1.22464679914737E-16,1.52655656493764E-16));
#1083=DIRECTION('ref_axis',(-1.52655656493764E-16,1.77975810760649E-16,
-1.));
#1084=DIRECTION('',(-1.52655656493764E-16,1.77975810760649E-16,-1.));
#1085=DIRECTION('',(-1.22464679914737E-16,-1.,-1.77975810760649E-16));
#1086=DIRECTION('',(1.52655656493764E-16,-1.77975810760649E-16,1.));
#1087=DIRECTION('center_axis',(-1.22464679914737E-16,-1.,-1.77975810760649E-16));
#1088=DIRECTION('ref_axis',(-0.707106781186547,-3.92522970524783E-17,0.707106781186548));
#1089=DIRECTION('center_axis',(1.22464679914737E-16,1.,1.77975810760649E-16));
#1090=DIRECTION('ref_axis',(-0.707106781186547,-3.92522970524783E-17,0.707106781186548));
#1091=DIRECTION('',(1.22464679914737E-16,1.,1.77975810760649E-16));
#1092=DIRECTION('center_axis',(-1.1442377452196E-17,-1.,-1.77975810760649E-16));
#1093=DIRECTION('ref_axis',(-0.707106781186547,-1.17756919986685E-16,0.707106781186548));
#1094=DIRECTION('',(-1.22464679914737E-16,-1.,-1.77975810760649E-16));
#1095=DIRECTION('center_axis',(1.52655656493764E-16,-1.77975810760649E-16,
1.));
#1096=DIRECTION('ref_axis',(-1.,1.14423774521959E-17,1.52655656493764E-16));
#1097=DIRECTION('',(1.,-1.14423774521959E-17,-1.52655656493764E-16));
#1098=DIRECTION('',(-1.,1.14423774521959E-17,1.52655656493764E-16));
#1099=DIRECTION('center_axis',(-1.,1.22464679914737E-16,1.52655656493764E-16));
#1100=DIRECTION('ref_axis',(-1.52655656493764E-16,1.77975810760649E-16,
-1.));
#1101=DIRECTION('',(1.52655656493764E-16,-1.77975810760649E-16,1.));
#1102=DIRECTION('',(1.22464679914737E-16,1.,1.77975810760649E-16));
#1103=DIRECTION('',(-1.52655656493764E-16,1.77975810760649E-16,-1.));
#1104=DIRECTION('center_axis',(-1.22464679914737E-16,-1.,-1.77975810760649E-16));
#1105=DIRECTION('ref_axis',(-0.707106781186544,2.12443508299579E-16,-0.707106781186551));
#1106=DIRECTION('center_axis',(1.22464679914737E-16,1.,1.77975810760649E-16));
#1107=DIRECTION('ref_axis',(-0.707106781186544,2.12443508299579E-16,-0.707106781186551));
#1108=DIRECTION('center_axis',(-1.1442377452196E-17,-1.,-1.77975810760649E-16));
#1109=DIRECTION('ref_axis',(-0.707106781186544,1.33938885365373E-16,-0.707106781186551));
#1110=DIRECTION('',(-1.22464679914737E-16,-1.,-1.77975810760649E-16));
#1111=DIRECTION('center_axis',(5.96744866343825E-16,-1.77975810760649E-16,
1.));
#1112=DIRECTION('ref_axis',(-1.,1.14423774521959E-17,5.96744866343825E-16));
#1113=DIRECTION('',(1.,-1.14423774521959E-17,-5.96744866343825E-16));
#1114=DIRECTION('',(-1.22464679914737E-16,-1.,-1.77975810760649E-16));
#1115=DIRECTION('',(-1.,1.14423774521959E-17,5.96744866343825E-16));
#1116=DIRECTION('',(-1.22464679914737E-16,-1.,-1.77975810760649E-16));
#1117=DIRECTION('center_axis',(-2.05024667089272E-16,1.77975810760649E-16,
-1.));
#1118=DIRECTION('ref_axis',(1.,-1.14423774521959E-17,-2.05024667089272E-16));
#1119=DIRECTION('',(-1.,1.14423774521959E-17,2.05024667089272E-16));
#1120=DIRECTION('',(-1.22464679914737E-16,-1.,-1.77975810760649E-16));
#1121=DIRECTION('',(1.,-1.14423774521959E-17,-2.05024667089272E-16));
#1122=DIRECTION('center_axis',(1.,-1.22464679914737E-16,-1.52655656493764E-16));
#1123=DIRECTION('ref_axis',(1.52655656493764E-16,-1.77975810760649E-16,
1.));
#1124=DIRECTION('',(-1.22464679914737E-16,-1.,-1.77975810760649E-16));
#1125=DIRECTION('',(-1.52655656493764E-16,1.77975810760649E-16,-1.));
#1126=DIRECTION('',(1.52655656493764E-16,-1.77975810760649E-16,1.));
#1127=DIRECTION('center_axis',(-1.,1.22464679914737E-16,1.52655656493764E-16));
#1128=DIRECTION('ref_axis',(-1.52655656493764E-16,1.77975810760649E-16,
-1.));
#1129=DIRECTION('',(1.22464679914737E-16,1.,1.77975810760649E-16));
#1130=DIRECTION('',(-1.52655656493764E-16,1.77975810760649E-16,-1.));
#1131=DIRECTION('',(1.52655656493764E-16,-1.77975810760649E-16,1.));
#1132=DIRECTION('center_axis',(1.22464679914737E-16,1.,1.77975810760649E-16));
#1133=DIRECTION('ref_axis',(-0.707106781186546,2.12443508299579E-16,-0.707106781186549));
#1134=DIRECTION('center_axis',(-1.1442377452196E-17,-1.,-1.77975810760649E-16));
#1135=DIRECTION('ref_axis',(-0.707106781186546,1.33938885365373E-16,-0.707106781186549));
#1136=DIRECTION('',(-1.22464679914737E-16,-1.,-1.77975810760649E-16));
#1137=DIRECTION('center_axis',(1.22464679914737E-16,1.,1.77975810760649E-16));
#1138=DIRECTION('ref_axis',(-0.707106781186546,2.12443508299579E-16,-0.707106781186549));
#1139=DIRECTION('center_axis',(-1.52655656493764E-16,1.77975810760649E-16,
-1.));
#1140=DIRECTION('ref_axis',(1.,-1.14423774521959E-17,-1.52655656493764E-16));
#1141=DIRECTION('',(1.22464679914737E-16,1.,1.77975810760649E-16));
#1142=DIRECTION('',(1.,-1.14423774521959E-17,-1.52655656493764E-16));
#1143=DIRECTION('',(-1.,1.14423774521959E-17,1.52655656493764E-16));
#1144=DIRECTION('center_axis',(-1.22464679914737E-16,-1.,-1.77975810760649E-16));
#1145=DIRECTION('ref_axis',(0.707106781186544,3.92522970524791E-17,-0.707106781186551));
#1146=DIRECTION('center_axis',(1.22464679914737E-16,1.,1.77975810760649E-16));
#1147=DIRECTION('ref_axis',(0.707106781186544,3.92522970524791E-17,-0.707106781186551));
#1148=DIRECTION('center_axis',(-1.1442377452196E-17,-1.,-1.77975810760649E-16));
#1149=DIRECTION('ref_axis',(0.707106781186544,1.17756919986685E-16,-0.707106781186551));
#1150=DIRECTION('center_axis',(-1.,1.22464679914736E-16,3.70536933529426E-15));
#1151=DIRECTION('ref_axis',(-3.70536933529426E-15,1.77975810760649E-16,
-1.));
#1152=DIRECTION('',(-1.22464679914737E-16,-1.,-1.77975810760649E-16));
#1153=DIRECTION('',(-3.70536933529426E-15,1.77975810760649E-16,-1.));
#1154=DIRECTION('',(-1.22464679914737E-16,-1.,-1.77975810760649E-16));
#1155=DIRECTION('',(-3.70536933529426E-15,1.77975810760649E-16,-1.));
#1156=DIRECTION('center_axis',(1.,-1.22464679914737E-16,-1.52655656493764E-16));
#1157=DIRECTION('ref_axis',(1.52655656493764E-16,-1.77975810760649E-16,
1.));
#1158=DIRECTION('',(1.22464679914737E-16,1.,1.77975810760649E-16));
#1159=DIRECTION('',(1.52655656493764E-16,-1.77975810760649E-16,1.));
#1160=DIRECTION('',(-1.22464679914737E-16,-1.,-1.77975810760649E-16));
#1161=DIRECTION('',(-1.52655656493764E-16,1.77975810760649E-16,-1.));
#1162=DIRECTION('center_axis',(1.22464679914737E-16,1.,1.77975810760649E-16));
#1163=DIRECTION('ref_axis',(0.707106781186544,-2.12443508299579E-16,0.707106781186551));
#1164=DIRECTION('center_axis',(-1.1442377452196E-17,-1.,-1.77975810760649E-16));
#1165=DIRECTION('ref_axis',(0.707106781186544,-1.33938885365373E-16,0.707106781186551));
#1166=DIRECTION('',(-1.22464679914737E-16,-1.,-1.77975810760649E-16));
#1167=DIRECTION('center_axis',(1.22464679914737E-16,1.,1.77975810760649E-16));
#1168=DIRECTION('ref_axis',(0.707106781186544,-2.12443508299579E-16,0.707106781186551));
#1169=DIRECTION('center_axis',(1.52655656493764E-16,-1.77975810760649E-16,
1.));
#1170=DIRECTION('ref_axis',(-1.,1.14423774521959E-17,1.52655656493764E-16));
#1171=DIRECTION('',(1.22464679914737E-16,1.,1.77975810760649E-16));
#1172=DIRECTION('',(-1.,1.14423774521959E-17,1.52655656493764E-16));
#1173=DIRECTION('',(-1.,1.14423774521959E-17,1.52655656493764E-16));
#1174=DIRECTION('center_axis',(-1.22464679914737E-16,-1.,-1.77975810760649E-16));
#1175=DIRECTION('ref_axis',(-0.707106781186543,-3.92522970524795E-17,0.707106781186552));
#1176=DIRECTION('center_axis',(1.22464679914737E-16,1.,1.77975810760649E-16));
#1177=DIRECTION('ref_axis',(-0.707106781186543,-3.92522970524795E-17,0.707106781186552));
#1178=DIRECTION('center_axis',(-1.1442377452196E-17,-1.,-1.77975810760649E-16));
#1179=DIRECTION('ref_axis',(-0.707106781186543,-1.17756919986686E-16,0.707106781186552));
#1180=DIRECTION('center_axis',(-3.06358805905128E-17,-1.77975810760649E-16,
1.));
#1181=DIRECTION('ref_axis',(-1.,1.1442377452196E-17,-3.06358805905128E-17));
#1182=DIRECTION('',(-1.,1.1442377452196E-17,-3.06358805905128E-17));
#1183=DIRECTION('',(1.,-1.1442377452196E-17,3.06358805905128E-17));
#1184=DIRECTION('center_axis',(-1.22464679914737E-16,-1.,-1.77975810760649E-16));
#1185=DIRECTION('ref_axis',(-1.52655656493764E-16,1.77975810760649E-16,
-1.));
#1186=DIRECTION('',(1.89418196963126E-15,-1.77975810760649E-16,1.));
#1187=DIRECTION('',(1.,-1.14423774521959E-17,-1.52655656493764E-16));
#1188=DIRECTION('',(1.,-1.14423774521959E-17,-6.38378145237516E-17));
#1189=DIRECTION('center_axis',(-1.22464679914737E-16,-1.,-1.77975810760649E-16));
#1190=DIRECTION('ref_axis',(0.707106781186548,-2.12443508299579E-16,0.707106781186547));
#1191=DIRECTION('',(-1.52655656493764E-16,1.77975810760649E-16,-1.));
#1192=DIRECTION('center_axis',(-1.22464679914737E-16,-1.,-1.77975810760649E-16));
#1193=DIRECTION('ref_axis',(0.707106781186547,3.92522970524783E-17,-0.707106781186548));
#1194=DIRECTION('',(-1.,1.14423774521959E-17,1.08246735508758E-16));
#1195=DIRECTION('',(2.6367795895628E-16,-1.77975810760649E-16,1.));
#1196=DIRECTION('center_axis',(1.22464679914737E-16,1.,1.77975810760649E-16));
#1197=DIRECTION('ref_axis',(2.6367795895628E-16,-1.77975810760649E-16,1.));
#1198=DIRECTION('',(1.,-1.22464679914737E-16,-1.68787102150711E-16));
#1199=DIRECTION('',(2.27397466875837E-15,1.77975810760649E-16,-1.));
#1200=DIRECTION('',(-1.,1.22464679914737E-16,7.38962453451429E-17));
#1201=DIRECTION('center_axis',(1.22464679914737E-16,1.,1.77975810760649E-16));
#1202=DIRECTION('ref_axis',(-1.,1.22464679914737E-16,1.5265565649376E-16));
#1203=DIRECTION('center_axis',(1.,-1.22464679914737E-16,-1.89418196963126E-15));
#1204=DIRECTION('ref_axis',(1.89418196963126E-15,-1.77975810760649E-16,
1.));
#1205=DIRECTION('',(1.22464679914737E-16,1.,1.77975810760649E-16));
#1206=DIRECTION('',(-1.89418196963126E-15,1.77975810760649E-16,-1.));
#1207=DIRECTION('center_axis',(-1.52655656493764E-16,1.77975810760649E-16,
-1.));
#1208=DIRECTION('ref_axis',(1.,-1.14423774521959E-17,-1.52655656493764E-16));
#1209=DIRECTION('',(-1.,1.14423774521959E-17,1.52655656493764E-16));
#1210=DIRECTION('center_axis',(1.50220255530367E-16,1.,1.77975810760642E-16));
#1211=DIRECTION('ref_axis',(2.6367795895628E-16,-1.77975810760642E-16,1.));
#1212=DIRECTION('',(1.50220255530367E-16,1.,1.77975810760642E-16));
#1213=DIRECTION('center_axis',(-1.1442377452196E-17,-1.,-1.77975810760649E-16));
#1214=DIRECTION('ref_axis',(2.6367795895628E-16,-1.77975810760649E-16,1.));
#1215=DIRECTION('',(1.50220255530367E-16,1.,1.77975810760642E-16));
#1216=DIRECTION('center_axis',(1.68787102150711E-16,-1.77975810760642E-16,
1.));
#1217=DIRECTION('ref_axis',(1.,-1.22464679914713E-16,-1.68787102150711E-16));
#1218=DIRECTION('',(-1.,1.14423774521959E-17,1.68787102150711E-16));
#1219=DIRECTION('',(1.50220255530367E-16,1.,1.77975810760642E-16));
#1220=DIRECTION('center_axis',(1.,-1.50220255530367E-16,2.27397466875837E-15));
#1221=DIRECTION('ref_axis',(2.27397466875837E-15,1.77975810760649E-16,-1.));
#1222=DIRECTION('',(-2.27397466875837E-15,-1.77975810760649E-16,1.));
#1223=DIRECTION('',(1.50220255530367E-16,1.,1.77975810760642E-16));
#1224=DIRECTION('center_axis',(-7.38962453451429E-17,1.77975810760642E-16,
-1.));
#1225=DIRECTION('ref_axis',(-1.,1.22464679914713E-16,7.38962453451429E-17));
#1226=DIRECTION('',(1.,-1.14423774521959E-17,-7.38962453451429E-17));
#1227=DIRECTION('',(1.50220255530367E-16,1.,1.77975810760642E-16));
#1228=DIRECTION('center_axis',(1.50220255530367E-16,1.,1.77975810760642E-16));
#1229=DIRECTION('ref_axis',(-1.,1.50220255530367E-16,1.5265565649376E-16));
#1230=DIRECTION('center_axis',(-1.1442377452196E-17,-1.,-1.77975810760649E-16));
#1231=DIRECTION('ref_axis',(-1.,1.1442377452196E-17,1.5265565649376E-16));
#1232=DIRECTION('',(1.50220255530367E-16,1.,1.77975810760642E-16));
#1233=DIRECTION('center_axis',(-1.,1.50220255530367E-16,2.6367795895628E-16));
#1234=DIRECTION('ref_axis',(2.6367795895628E-16,-1.77975810760649E-16,1.));
#1235=DIRECTION('',(-2.6367795895628E-16,1.77975810760649E-16,-1.));
#1236=DIRECTION('center_axis',(1.22464679914737E-16,1.,1.77975810760649E-16));
#1237=DIRECTION('ref_axis',(0.707106781186547,3.92522970524783E-17,-0.707106781186548));
#1238=DIRECTION('',(1.22464679914737E-16,1.,1.77975810760649E-16));
#1239=DIRECTION('center_axis',(1.1442377452196E-17,1.,1.77975810760649E-16));
#1240=DIRECTION('ref_axis',(0.707106781186547,1.17756919986685E-16,-0.707106781186548));
#1241=DIRECTION('',(-1.22464679914737E-16,-1.,-1.77975810760649E-16));
#1242=DIRECTION('center_axis',(-1.,1.22464679914737E-16,1.52655656493764E-16));
#1243=DIRECTION('ref_axis',(-1.52655656493764E-16,1.77975810760649E-16,
-1.));
#1244=DIRECTION('',(-1.22464679914737E-16,-1.,-1.77975810760649E-16));
#1245=DIRECTION('',(1.52655656493764E-16,-1.77975810760649E-16,1.));
#1246=DIRECTION('center_axis',(-1.22464679914737E-16,-1.,-1.77975810760649E-16));
#1247=DIRECTION('ref_axis',(0.707106781186548,-2.12443508299579E-16,0.707106781186547));
#1248=DIRECTION('center_axis',(1.1442377452196E-17,1.,1.77975810760649E-16));
#1249=DIRECTION('ref_axis',(0.707106781186548,-1.33938885365372E-16,0.707106781186547));
#1250=DIRECTION('',(1.22464679914737E-16,1.,1.77975810760649E-16));
#1251=DIRECTION('center_axis',(-6.38378145237516E-17,1.77975810760649E-16,
-1.));
#1252=DIRECTION('ref_axis',(1.,-1.1442377452196E-17,-6.38378145237516E-17));
#1253=DIRECTION('',(-1.,1.14423774521959E-17,6.38378145237516E-17));
#1254=DIRECTION('center_axis',(-1.1442377452196E-17,-1.,-1.77975810760649E-16));
#1255=DIRECTION('ref_axis',(1.,-1.1442377452196E-17,-1.52655656493764E-16));
#1256=DIRECTION('',(1.,-1.14423774521959E-17,-1.08246735508758E-16));
#1257=DIRECTION('center_axis',(1.08246735508758E-16,-1.77975810760649E-16,
1.));
#1258=DIRECTION('ref_axis',(-1.,1.14423774521959E-17,1.08246735508758E-16));
#1259=DIRECTION('',(2.22044604925031E-16,2.52435489670724E-29,-1.));
#1260=DIRECTION('',(-1.,2.77555756156297E-17,-2.22044604925031E-16));
#1261=DIRECTION('',(0.,0.,1.));
#1262=DIRECTION('',(1.,0.,0.));
#1263=DIRECTION('',(0.,0.,1.));
#1264=DIRECTION('',(1.,0.,0.));
#1265=DIRECTION('',(-1.27345531304144E-18,-5.80721936902099E-18,1.));
#1266=DIRECTION('',(1.,-7.39523435947694E-36,1.27345531304144E-18));
#1267=DIRECTION('',(0.,0.,1.));
#1268=DIRECTION('',(1.,0.,0.));
#1269=CARTESIAN_POINT('',(0.,0.,0.));
#1270=CARTESIAN_POINT('',(0.,0.,0.));
#1271=CARTESIAN_POINT('',(0.,0.,0.));
#1272=CARTESIAN_POINT('',(0.,0.,0.));
#1273=CARTESIAN_POINT('',(0.,0.,0.));
#1274=CARTESIAN_POINT('',(0.,0.,0.));
#1275=CARTESIAN_POINT('Origin',(-33.0000000000038,135.359999999984,9.43856217223399));
#1276=CARTESIAN_POINT('',(-33.3750000000038,137.859999999985,9.76928108611702));
#1277=CARTESIAN_POINT('',(-33.5000000000038,137.859999999985,9.43856217223399));
#1278=CARTESIAN_POINT('Origin',(-33.0000000000038,137.859999999985,9.43856217223399));
#1279=CARTESIAN_POINT('',(-33.5000000000038,132.859999999985,9.43856217223399));
#1280=CARTESIAN_POINT('',(-33.5000000000038,135.359999999984,9.43856217223399));
#1281=CARTESIAN_POINT('',(-33.3750000000038,132.859999999985,9.76928108611702));
#1282=CARTESIAN_POINT('Origin',(-33.0000000000038,132.859999999985,9.43856217223399));
#1283=CARTESIAN_POINT('',(-33.3750000000038,135.359999999984,9.76928108611702));
#1284=CARTESIAN_POINT('Origin',(-33.7500000000038,135.359999999984,10.1000000000002));
#1285=CARTESIAN_POINT('',(-34.0807189138868,132.859999999985,10.4750000000001));
#1286=CARTESIAN_POINT('Origin',(-33.7500000000038,132.859999999985,10.1000000000002));
#1287=CARTESIAN_POINT('',(-34.0807189138868,137.859999999985,10.4750000000001));
#1288=CARTESIAN_POINT('',(-34.0807189138868,135.359999999984,10.4750000000001));
#1289=CARTESIAN_POINT('Origin',(-33.7500000000038,137.859999999985,10.1000000000002));
#1290=CARTESIAN_POINT('Origin',(-34.4114378277699,135.359999999984,10.8500000000001));
#1291=CARTESIAN_POINT('',(-34.4114378277699,132.859999999985,10.3500000000001));
#1292=CARTESIAN_POINT('Origin',(-34.4114378277699,132.859999999985,10.8500000000001));
#1293=CARTESIAN_POINT('',(-34.4114378277699,137.859999999985,10.3500000000001));
#1294=CARTESIAN_POINT('',(-34.4114378277699,135.359999999984,10.3500000000001));
#1295=CARTESIAN_POINT('Origin',(-34.4114378277699,137.859999999985,10.8500000000001));
#1296=CARTESIAN_POINT('Origin',(-33.5000000000038,137.859999999985,6.35000000000019));
#1297=CARTESIAN_POINT('',(-33.5000000000039,137.859999999985,7.15000000000018));
#1298=CARTESIAN_POINT('',(-33.5000000000039,137.859999999985,4.85000000000014));
#1299=CARTESIAN_POINT('',(-33.5000000000039,132.859999999985,7.15000000000018));
#1300=CARTESIAN_POINT('',(-33.5000000000039,137.859999999985,7.15000000000018));
#1301=CARTESIAN_POINT('',(-33.5000000000039,132.859999999985,4.85000000000014));
#1302=CARTESIAN_POINT('Origin',(-38.0000000000039,137.859999999985,10.8500000000001));
#1303=CARTESIAN_POINT('',(-38.0000000000039,132.859999999985,10.3500000000001));
#1304=CARTESIAN_POINT('',(-38.5000000000039,132.859999999985,10.8500000000001));
#1305=CARTESIAN_POINT('Origin',(-38.0000000000039,132.859999999985,10.8500000000001));
#1306=CARTESIAN_POINT('',(-38.5000000000039,137.859999999985,10.8500000000001));
#1307=CARTESIAN_POINT('',(-38.5000000000039,137.859999999985,10.8500000000001));
#1308=CARTESIAN_POINT('',(-38.0000000000039,137.859999999985,10.3500000000001));
#1309=CARTESIAN_POINT('Origin',(-38.0000000000039,137.859999999985,10.8500000000001));
#1310=CARTESIAN_POINT('',(-38.0000000000039,137.859999999985,10.3500000000001));
#1311=CARTESIAN_POINT('Origin',(-38.5000000000039,137.859999999985,10.3500000000001));
#1312=CARTESIAN_POINT('',(-33.5000000000038,132.859999999985,10.3500000000001));
#1313=CARTESIAN_POINT('',(-33.5000000000038,137.859999999985,10.3500000000001));
#1314=CARTESIAN_POINT('Origin',(-38.0000000000039,137.859999999985,12.5500000000001));
#1315=CARTESIAN_POINT('',(-38.5000000000039,132.859999999985,12.5500000000001));
#1316=CARTESIAN_POINT('',(-38.0000000000039,132.859999999985,13.0500000000002));
#1317=CARTESIAN_POINT('Origin',(-38.0000000000039,132.859999999985,12.5500000000001));
#1318=CARTESIAN_POINT('',(-38.0000000000039,137.859999999985,13.0500000000002));
#1319=CARTESIAN_POINT('',(-38.0000000000039,137.859999999985,13.0500000000002));
#1320=CARTESIAN_POINT('',(-38.5000000000039,137.859999999985,12.5500000000001));
#1321=CARTESIAN_POINT('Origin',(-38.0000000000039,137.859999999985,12.5500000000001));
#1322=CARTESIAN_POINT('',(-38.5000000000039,137.859999999985,12.5500000000001));
#1323=CARTESIAN_POINT('Origin',(-38.5000000000039,137.859999999985,9.35000000000016));
#1324=CARTESIAN_POINT('',(-38.5000000000039,132.859999999985,6.35000000000019));
#1325=CARTESIAN_POINT('',(-38.5000000000039,137.859999999985,6.35000000000019));
#1326=CARTESIAN_POINT('Origin',(-33.0000000000039,135.359999999984,-11.0385621722338));
#1327=CARTESIAN_POINT('',(-33.3750000000039,132.859999999985,-11.3692810861168));
#1328=CARTESIAN_POINT('',(-33.5000000000039,132.859999999985,-11.0385621722338));
#1329=CARTESIAN_POINT('Origin',(-33.0000000000039,132.859999999985,-11.0385621722338));
#1330=CARTESIAN_POINT('',(-33.5000000000039,137.859999999985,-11.0385621722338));
#1331=CARTESIAN_POINT('',(-33.5000000000039,135.359999999984,-11.0385621722338));
#1332=CARTESIAN_POINT('',(-33.3750000000039,137.859999999985,-11.3692810861168));
#1333=CARTESIAN_POINT('Origin',(-33.0000000000039,137.859999999985,-11.0385621722338));
#1334=CARTESIAN_POINT('',(-33.3750000000039,135.359999999984,-11.3692810861168));
#1335=CARTESIAN_POINT('Origin',(-33.7500000000039,135.359999999984,-11.6999999999999));
#1336=CARTESIAN_POINT('',(-34.080718913887,137.859999999985,-12.0749999999998));
#1337=CARTESIAN_POINT('Origin',(-33.7500000000039,137.859999999985,-11.6999999999999));
#1338=CARTESIAN_POINT('',(-34.080718913887,132.859999999985,-12.0749999999998));
#1339=CARTESIAN_POINT('',(-34.080718913887,135.359999999984,-12.0749999999998));
#1340=CARTESIAN_POINT('Origin',(-33.7500000000039,132.859999999985,-11.6999999999999));
#1341=CARTESIAN_POINT('Origin',(-34.4114378277701,135.359999999984,-12.4499999999999));
#1342=CARTESIAN_POINT('',(-34.4114378277701,137.859999999985,-11.9499999999998));
#1343=CARTESIAN_POINT('Origin',(-34.4114378277701,137.859999999985,-12.4499999999999));
#1344=CARTESIAN_POINT('',(-34.4114378277701,132.859999999985,-11.9499999999998));
#1345=CARTESIAN_POINT('',(-34.4114378277701,135.359999999984,-11.9499999999998));
#1346=CARTESIAN_POINT('Origin',(-34.4114378277701,132.859999999985,-12.4499999999999));
#1347=CARTESIAN_POINT('Origin',(-33.5000000000039,137.859999999985,-5.14999999999986));
#1348=CARTESIAN_POINT('',(-33.5000000000039,132.859999999985,-8.74999999999986));
#1349=CARTESIAN_POINT('',(-33.5000000000039,132.859999999985,-6.64999999999992));
#1350=CARTESIAN_POINT('',(-33.5000000000039,137.859999999985,-8.74999999999986));
#1351=CARTESIAN_POINT('',(-33.5000000000039,137.859999999985,-8.74999999999986));
#1352=CARTESIAN_POINT('',(-33.5000000000039,137.859999999985,-6.64999999999992));
#1353=CARTESIAN_POINT('Origin',(-38.0000000000039,137.859999999985,-12.4499999999999));
#1354=CARTESIAN_POINT('',(-38.5000000000039,132.859999999985,-12.4499999999999));
#1355=CARTESIAN_POINT('',(-38.0000000000039,132.859999999985,-11.9499999999998));
#1356=CARTESIAN_POINT('Origin',(-38.0000000000039,132.859999999985,-12.4499999999999));
#1357=CARTESIAN_POINT('',(-38.0000000000039,137.859999999985,-11.9499999999998));
#1358=CARTESIAN_POINT('',(-38.0000000000039,137.859999999985,-11.9499999999998));
#1359=CARTESIAN_POINT('',(-38.5000000000039,137.859999999985,-12.4499999999999));
#1360=CARTESIAN_POINT('Origin',(-38.0000000000039,137.859999999985,-12.4499999999999));
#1361=CARTESIAN_POINT('',(-38.5000000000039,137.859999999985,-12.4499999999999));
#1362=CARTESIAN_POINT('Origin',(-33.5000000000039,137.859999999985,-11.9499999999998));
#1363=CARTESIAN_POINT('',(-38.5000000000039,137.859999999985,-11.9499999999998));
#1364=CARTESIAN_POINT('',(-38.5000000000039,132.859999999985,-11.9499999999998));
#1365=CARTESIAN_POINT('Origin',(-38.5000000000039,137.859999999985,-6.64999999999992));
#1366=CARTESIAN_POINT('',(-38.5000000000039,137.859999999985,-14.1499999999999));
#1367=CARTESIAN_POINT('',(-38.5000000000039,137.859999999985,-9.64999999999989));
#1368=CARTESIAN_POINT('',(-38.5000000000039,132.859999999985,-14.1499999999999));
#1369=CARTESIAN_POINT('',(-38.5000000000039,137.859999999985,-14.1499999999999));
#1370=CARTESIAN_POINT('',(-38.5000000000039,132.859999999985,-9.64999999999989));
#1371=CARTESIAN_POINT('Origin',(-38.0000000000039,137.859999999985,-14.1499999999999));
#1372=CARTESIAN_POINT('',(-38.0000000000039,132.859999999985,-14.6499999999999));
#1373=CARTESIAN_POINT('Origin',(-38.0000000000039,132.859999999985,-14.1499999999999));
#1374=CARTESIAN_POINT('',(-38.0000000000039,137.859999999985,-14.6499999999999));
#1375=CARTESIAN_POINT('Origin',(-38.0000000000039,137.859999999985,-14.1499999999999));
#1376=CARTESIAN_POINT('',(-38.0000000000039,137.859999999985,-14.6499999999999));
#1377=CARTESIAN_POINT('Origin',(21.0000000000112,137.859999999985,-15.4499999999999));
#1378=CARTESIAN_POINT('',(15.5000000000112,137.859999999985,-15.4499999999999));
#1379=CARTESIAN_POINT('',(21.0000000000112,137.859999999985,-15.4499999999999));
#1380=CARTESIAN_POINT('',(16.0000000000112,137.859999999985,-15.4499999999999));
#1381=CARTESIAN_POINT('',(15.5000000000112,132.859999999985,-15.4499999999999));
#1382=CARTESIAN_POINT('',(15.5000000000112,137.859999999985,-15.4499999999999));
#1383=CARTESIAN_POINT('',(21.0000000000112,132.859999999985,-15.4499999999999));
#1384=CARTESIAN_POINT('',(16.0000000000112,132.859999999985,-15.4499999999999));
#1385=CARTESIAN_POINT('',(21.0000000000112,137.859999999985,-15.4499999999999));
#1386=CARTESIAN_POINT('Origin',(-33.5000000000039,137.859999999985,-14.6499999999999));
#1387=CARTESIAN_POINT('',(9.00000000001118,137.859999999985,-14.6499999999999));
#1388=CARTESIAN_POINT('',(8.9000000000112,137.859999999985,-14.6499999999999));
#1389=CARTESIAN_POINT('',(9.00000000001118,132.859999999985,-14.6499999999999));
#1390=CARTESIAN_POINT('',(9.00000000001118,137.859999999985,-14.6499999999999));
#1391=CARTESIAN_POINT('',(3.9000000000112,132.859999999985,-14.6499999999999));
#1392=CARTESIAN_POINT('Origin',(21.0000000000112,137.859999999985,-14.6499999999999));
#1393=CARTESIAN_POINT('',(21.0000000000112,137.859999999985,-19.0499999999999));
#1394=CARTESIAN_POINT('',(21.0000000000112,132.859999999985,-19.0499999999999));
#1395=CARTESIAN_POINT('',(21.0000000000112,137.859999999985,-19.0499999999999));
#1396=CARTESIAN_POINT('',(21.0000000000112,137.859999999985,-10.3499999999998));
#1397=CARTESIAN_POINT('',(21.0000000000112,132.859999999985,-10.3499999999998));
#1398=CARTESIAN_POINT('Origin',(9.00000000001118,137.859999999985,-9.64999999999989));
#1399=CARTESIAN_POINT('',(9.00000000001118,132.859999999985,-19.0499999999999));
#1400=CARTESIAN_POINT('',(9.00000000001118,137.859999999985,-19.0499999999999));
#1401=CARTESIAN_POINT('',(9.00000000001118,137.859999999985,-19.0499999999999));
#1402=CARTESIAN_POINT('',(9.00000000001118,132.859999999985,-14.6499999999999));
#1403=CARTESIAN_POINT('',(9.00000000001118,137.859999999985,-14.6499999999999));
#1404=CARTESIAN_POINT('Origin',(9.50000000001118,137.859999999985,-19.0499999999999));
#1405=CARTESIAN_POINT('',(9.50000000001118,137.859999999985,-19.5499999999998));
#1406=CARTESIAN_POINT('Origin',(9.50000000001118,137.859999999985,-19.0499999999999));
#1407=CARTESIAN_POINT('',(9.50000000001118,132.859999999985,-19.5499999999998));
#1408=CARTESIAN_POINT('',(9.50000000001118,137.859999999985,-19.5499999999998));
#1409=CARTESIAN_POINT('Origin',(9.50000000001118,132.859999999985,-19.0499999999999));
#1410=CARTESIAN_POINT('Origin',(9.00000000001118,137.859999999985,-19.5499999999998));
#1411=CARTESIAN_POINT('',(20.5000000000112,132.859999999985,-19.5499999999998));
#1412=CARTESIAN_POINT('',(20.5000000000112,137.859999999985,-19.5499999999998));
#1413=CARTESIAN_POINT('',(20.5000000000112,137.859999999985,-19.5499999999998));
#1414=CARTESIAN_POINT('',(21.0000000000112,132.859999999985,-19.5499999999998));
#1415=CARTESIAN_POINT('',(21.0000000000112,137.859999999985,-19.5499999999998));
#1416=CARTESIAN_POINT('Origin',(20.5000000000112,137.859999999985,-19.0499999999999));
#1417=CARTESIAN_POINT('Origin',(20.5000000000112,132.859999999985,-19.0499999999999));
#1418=CARTESIAN_POINT('Origin',(20.5000000000112,137.859999999985,-19.0499999999999));
#1419=CARTESIAN_POINT('Origin',(9.00000000001118,137.859999999985,14.3500000000002));
#1420=CARTESIAN_POINT('',(9.00000000001121,137.859999999985,18.1500000000001));
#1421=CARTESIAN_POINT('',(9.00000000001121,132.859999999985,18.1500000000001));
#1422=CARTESIAN_POINT('',(9.00000000001121,137.859999999985,18.1500000000001));
#1423=CARTESIAN_POINT('',(9.00000000001118,137.859999999985,13.0500000000002));
#1424=CARTESIAN_POINT('',(9.00000000001118,137.859999999985,14.3500000000002));
#1425=CARTESIAN_POINT('',(9.00000000001118,132.859999999985,13.0500000000002));
#1426=CARTESIAN_POINT('',(9.00000000001118,137.859999999985,13.0500000000002));
#1427=CARTESIAN_POINT('',(9.00000000001118,132.859999999985,14.3500000000002));
#1428=CARTESIAN_POINT('Origin',(21.0000000000112,137.859999999985,9.35000000000016));
#1429=CARTESIAN_POINT('',(21.0000000000112,132.859999999985,18.1500000000001));
#1430=CARTESIAN_POINT('',(21.0000000000112,137.859999999985,18.1500000000001));
#1431=CARTESIAN_POINT('',(21.0000000000112,137.859999999985,18.1500000000001));
#1432=CARTESIAN_POINT('',(21.0000000000112,132.859999999985,10.8500000000001));
#1433=CARTESIAN_POINT('',(21.0000000000112,132.859999999985,14.3500000000002));
#1434=CARTESIAN_POINT('',(21.0000000000112,137.859999999985,10.8500000000001));
#1435=CARTESIAN_POINT('',(21.0000000000112,137.859999999985,10.8500000000001));
#1436=CARTESIAN_POINT('',(21.0000000000112,137.859999999985,14.3500000000002));
#1437=CARTESIAN_POINT('Origin',(20.5000000000112,137.859999999985,18.1500000000001));
#1438=CARTESIAN_POINT('',(20.5000000000112,137.859999999985,18.6500000000001));
#1439=CARTESIAN_POINT('Origin',(20.5000000000112,137.859999999985,18.1500000000001));
#1440=CARTESIAN_POINT('',(20.5000000000112,132.859999999985,18.6500000000001));
#1441=CARTESIAN_POINT('',(20.5000000000112,137.859999999985,18.6500000000001));
#1442=CARTESIAN_POINT('Origin',(20.5000000000112,132.859999999985,18.1500000000001));
#1443=CARTESIAN_POINT('Origin',(21.0000000000112,137.859999999985,18.6500000000001));
#1444=CARTESIAN_POINT('',(9.50000000001118,132.859999999985,18.6500000000001));
#1445=CARTESIAN_POINT('',(9.50000000001118,137.859999999985,18.6500000000001));
#1446=CARTESIAN_POINT('',(9.50000000001118,137.859999999985,18.6500000000001));
#1447=CARTESIAN_POINT('',(21.0000000000112,132.859999999985,18.6500000000001));
#1448=CARTESIAN_POINT('',(21.0000000000112,137.859999999985,18.6500000000001));
#1449=CARTESIAN_POINT('Origin',(9.50000000001118,137.859999999985,18.1500000000001));
#1450=CARTESIAN_POINT('Origin',(9.50000000001118,132.859999999985,18.1500000000001));
#1451=CARTESIAN_POINT('Origin',(9.50000000001118,137.859999999985,18.1500000000001));
#1452=CARTESIAN_POINT('Origin',(8.90000000001116,137.859999999985,13.0500000000002));
#1453=CARTESIAN_POINT('',(-33.5000000000039,132.859999999985,13.0500000000002));
#1454=CARTESIAN_POINT('',(-38.5000000000039,137.859999999985,13.0500000000002));
#1455=CARTESIAN_POINT('Origin',(-4.84999999999634,132.859999999985,-0.39999999999992));
#1456=CARTESIAN_POINT('',(15.5000000000112,132.859999999985,10.8500000000001));
#1457=CARTESIAN_POINT('',(15.5000000000112,132.859999999985,-0.149999999999864));
#1458=CARTESIAN_POINT('',(21.0000000000112,132.859999999985,10.8500000000001));
#1459=CARTESIAN_POINT('',(-4.00000000000389,132.859999999985,7.15000000000018));
#1460=CARTESIAN_POINT('',(-3.40000000000387,132.859999999985,7.15000000000018));
#1461=CARTESIAN_POINT('',(-3.50000000000389,132.859999999985,6.6500000000002));
#1462=CARTESIAN_POINT('Origin',(-4.00000000000389,132.859999999985,6.6500000000002));
#1463=CARTESIAN_POINT('',(-3.50000000000389,132.859999999985,-8.24999999999989));
#1464=CARTESIAN_POINT('',(-3.50000000000389,132.859999999985,-5.14999999999986));
#1465=CARTESIAN_POINT('',(-4.00000000000389,132.859999999985,-8.74999999999986));
#1466=CARTESIAN_POINT('Origin',(-4.00000000000389,132.859999999985,-8.24999999999989));
#1467=CARTESIAN_POINT('',(-33.4000000000039,132.859999999985,-8.74999999999986));
#1468=CARTESIAN_POINT('',(-0.399999999987415,132.859999999984,1.35000000000019));
#1469=CARTESIAN_POINT('',(-0.399999999987415,132.859999999984,5.35000000000025));
#1470=CARTESIAN_POINT('',(-0.399999999987415,132.859999999985,0.475000000000136));
#1471=CARTESIAN_POINT('',(1.10000000001261,132.859999999984,6.85000000000016));
#1472=CARTESIAN_POINT('Origin',(1.10000000001261,132.859999999985,5.35000000000025));
#1473=CARTESIAN_POINT('',(12.8000000000126,132.859999999984,6.85000000000016));
#1474=CARTESIAN_POINT('',(-1.87499999999186,132.859999999985,6.85000000000016));
#1475=CARTESIAN_POINT('',(12.8000000000126,132.859999999984,-0.149999999999721));
#1476=CARTESIAN_POINT('',(12.8000000000126,132.859999999985,3.22500000000019));
#1477=CARTESIAN_POINT('',(1.10000000001261,132.859999999984,-0.149999999999721));
#1478=CARTESIAN_POINT('',(3.97500000000814,132.859999999985,-0.149999999999721));
#1479=CARTESIAN_POINT('Origin',(1.10000000001261,132.859999999985,1.35000000000019));
#1480=CARTESIAN_POINT('Origin',(15.5000000000112,137.859999999985,-10.3499999999998));
#1481=CARTESIAN_POINT('',(15.5000000000112,137.859999999985,10.8500000000001));
#1482=CARTESIAN_POINT('',(15.5000000000112,137.859999999985,10.8500000000001));
#1483=CARTESIAN_POINT('',(15.5000000000112,137.859999999985,-0.149999999999864));
#1484=CARTESIAN_POINT('Origin',(18.0000000000112,137.859999999985,10.8500000000001));
#1485=CARTESIAN_POINT('',(21.0000000000112,137.859999999985,10.8500000000001));
#1486=CARTESIAN_POINT('Origin',(1.10000000001261,132.859999999984,5.35000000000025));
#1487=CARTESIAN_POINT('',(-0.399999999987415,137.859999999987,5.35000000000025));
#1488=CARTESIAN_POINT('',(-0.399999999987415,132.859999999984,5.35000000000025));
#1489=CARTESIAN_POINT('',(1.10000000001261,137.859999999987,6.85000000000016));
#1490=CARTESIAN_POINT('Origin',(1.10000000001261,137.859999999985,5.35000000000025));
#1491=CARTESIAN_POINT('',(1.10000000001261,132.859999999984,6.85000000000016));
#1492=CARTESIAN_POINT('Origin',(1.10000000001261,132.859999999984,6.85000000000016));
#1493=CARTESIAN_POINT('',(12.8000000000126,137.859999999987,6.85000000000016));
#1494=CARTESIAN_POINT('',(-1.87499999999186,137.859999999985,6.85000000000016));
#1495=CARTESIAN_POINT('',(12.8000000000126,132.859999999984,6.85000000000016));
#1496=CARTESIAN_POINT('Origin',(12.8000000000126,132.859999999984,6.85000000000016));
#1497=CARTESIAN_POINT('',(12.8000000000126,137.859999999987,-0.149999999999721));
#1498=CARTESIAN_POINT('',(12.8000000000126,137.859999999985,3.22500000000019));
#1499=CARTESIAN_POINT('',(12.8000000000126,132.859999999984,-0.149999999999721));
#1500=CARTESIAN_POINT('Origin',(12.8000000000126,132.859999999984,-0.149999999999721));
#1501=CARTESIAN_POINT('',(1.10000000001261,137.859999999987,-0.149999999999721));
#1502=CARTESIAN_POINT('',(3.97500000000814,137.859999999985,-0.149999999999721));
#1503=CARTESIAN_POINT('',(1.10000000001261,132.859999999984,-0.149999999999721));
#1504=CARTESIAN_POINT('Origin',(1.10000000001261,132.859999999984,1.35000000000019));
#1505=CARTESIAN_POINT('',(-0.399999999987415,137.859999999987,1.35000000000019));
#1506=CARTESIAN_POINT('Origin',(1.10000000001261,137.859999999985,1.35000000000019));
#1507=CARTESIAN_POINT('',(-0.399999999987415,132.859999999984,1.35000000000019));
#1508=CARTESIAN_POINT('Origin',(-0.399999999987415,132.859999999984,1.35000000000019));
#1509=CARTESIAN_POINT('',(-0.399999999987415,137.859999999985,0.475000000000136));
#1510=CARTESIAN_POINT('Origin',(-4.00000000000389,137.859999999985,-8.24999999999989));
#1511=CARTESIAN_POINT('',(-3.50000000000389,137.859999999985,-8.24999999999989));
#1512=CARTESIAN_POINT('',(-3.50000000000389,137.859999999985,-8.24999999999989));
#1513=CARTESIAN_POINT('',(-4.00000000000389,137.859999999985,-8.74999999999986));
#1514=CARTESIAN_POINT('Origin',(-4.00000000000389,137.859999999985,-8.24999999999989));
#1515=CARTESIAN_POINT('',(-4.00000000000389,137.859999999985,-8.74999999999986));
#1516=CARTESIAN_POINT('Origin',(-3.50000000000389,137.859999999985,4.85000000000014));
#1517=CARTESIAN_POINT('',(-3.50000000000389,137.859999999985,6.6500000000002));
#1518=CARTESIAN_POINT('',(-3.50000000000389,137.859999999985,6.6500000000002));
#1519=CARTESIAN_POINT('',(-3.50000000000389,137.859999999985,-5.14999999999986));
#1520=CARTESIAN_POINT('Origin',(-4.00000000000389,137.859999999985,6.6500000000002));
#1521=CARTESIAN_POINT('',(-4.00000000000389,137.859999999985,7.15000000000018));
#1522=CARTESIAN_POINT('Origin',(-4.00000000000389,137.859999999985,6.6500000000002));
#1523=CARTESIAN_POINT('',(-4.00000000000389,137.859999999985,7.15000000000018));
#1524=CARTESIAN_POINT('Origin',(-28.4000000000039,137.859999999985,7.15000000000018));
#1525=CARTESIAN_POINT('',(-8.40000000000387,137.859999999985,7.15000000000018));
#1526=CARTESIAN_POINT('Origin',(-4.84999999999634,137.859999999985,-0.39999999999992));
#1527=CARTESIAN_POINT('',(-33.4000000000039,137.859999999985,-8.74999999999986));
#1528=CARTESIAN_POINT('Origin',(-3.40000000000387,137.859999999985,-8.74999999999986));
#1529=CARTESIAN_POINT('',(-124.999999999999,44.9999999999989,1.26565424807268E-13));
#1530=CARTESIAN_POINT('',(0.,0.,0.));
#1531=CARTESIAN_POINT('',(0.,450.,600.));
#1532=CARTESIAN_POINT('',(-131.999719137405,-286.5,94.9999680325012));
#1533=CARTESIAN_POINT('',(0.,0.,0.));
#1534=UNCERTAINTY_MEASURE_WITH_UNIT(LENGTH_MEASURE(0.01),#1548,
'DISTANCE_ACCURACY_VALUE',
'Maximum model space distance between geometric entities at asserted c
onnectivities');
#1535=UNCERTAINTY_MEASURE_WITH_UNIT(LENGTH_MEASURE(0.01),#1548,
'DISTANCE_ACCURACY_VALUE',
'Maximum model space distance between geometric entities at asserted c
onnectivities');
#1536=UNCERTAINTY_MEASURE_WITH_UNIT(LENGTH_MEASURE(0.01),#1548,
'DISTANCE_ACCURACY_VALUE',
'Maximum model space distance between geometric entities at asserted c
onnectivities');
#1537=UNCERTAINTY_MEASURE_WITH_UNIT(LENGTH_MEASURE(0.01),#1548,
'DISTANCE_ACCURACY_VALUE',
'Maximum model space distance between geometric entities at asserted c
onnectivities');
#1538=UNCERTAINTY_MEASURE_WITH_UNIT(LENGTH_MEASURE(0.01),#1548,
'DISTANCE_ACCURACY_VALUE',
'Maximum model space distance between geometric entities at asserted c
onnectivities');
#1539=UNCERTAINTY_MEASURE_WITH_UNIT(LENGTH_MEASURE(0.01),#1548,
'DISTANCE_ACCURACY_VALUE',
'Maximum model space distance between geometric entities at asserted c
onnectivities');
#1540=UNCERTAINTY_MEASURE_WITH_UNIT(LENGTH_MEASURE(0.01),#1548,
'DISTANCE_ACCURACY_VALUE',
'Maximum model space distance between geometric entities at asserted c
onnectivities');
#1541=(
GEOMETRIC_REPRESENTATION_CONTEXT(3)
GLOBAL_UNCERTAINTY_ASSIGNED_CONTEXT((#1534))
GLOBAL_UNIT_ASSIGNED_CONTEXT((#1548,#1550,#1551))
REPRESENTATION_CONTEXT('','3D')
);
#1542=(
GEOMETRIC_REPRESENTATION_CONTEXT(3)
GLOBAL_UNCERTAINTY_ASSIGNED_CONTEXT((#1535))
GLOBAL_UNIT_ASSIGNED_CONTEXT((#1548,#1550,#1551))
REPRESENTATION_CONTEXT('','3D')
);
#1543=(
GEOMETRIC_REPRESENTATION_CONTEXT(3)
GLOBAL_UNCERTAINTY_ASSIGNED_CONTEXT((#1536))
GLOBAL_UNIT_ASSIGNED_CONTEXT((#1548,#1550,#1551))
REPRESENTATION_CONTEXT('','3D')
);
#1544=(
GEOMETRIC_REPRESENTATION_CONTEXT(3)
GLOBAL_UNCERTAINTY_ASSIGNED_CONTEXT((#1537))
GLOBAL_UNIT_ASSIGNED_CONTEXT((#1548,#1550,#1551))
REPRESENTATION_CONTEXT('','3D')
);
#1545=(
GEOMETRIC_REPRESENTATION_CONTEXT(3)
GLOBAL_UNCERTAINTY_ASSIGNED_CONTEXT((#1538))
GLOBAL_UNIT_ASSIGNED_CONTEXT((#1548,#1550,#1551))
REPRESENTATION_CONTEXT('','3D')
);
#1546=(
GEOMETRIC_REPRESENTATION_CONTEXT(3)
GLOBAL_UNCERTAINTY_ASSIGNED_CONTEXT((#1539))
GLOBAL_UNIT_ASSIGNED_CONTEXT((#1548,#1550,#1551))
REPRESENTATION_CONTEXT('','3D')
);
#1547=(
GEOMETRIC_REPRESENTATION_CONTEXT(3)
GLOBAL_UNCERTAINTY_ASSIGNED_CONTEXT((#1540))
GLOBAL_UNIT_ASSIGNED_CONTEXT((#1548,#1550,#1551))
REPRESENTATION_CONTEXT('','3D')
);
#1548=(
LENGTH_UNIT()
NAMED_UNIT(*)
SI_UNIT(.MILLI.,.METRE.)
);
#1549=(
LENGTH_UNIT()
NAMED_UNIT(*)
SI_UNIT($,.METRE.)
);
#1550=(
NAMED_UNIT(*)
PLANE_ANGLE_UNIT()
SI_UNIT($,.RADIAN.)
);
#1551=(
NAMED_UNIT(*)
SI_UNIT($,.STERADIAN.)
SOLID_ANGLE_UNIT()
);
#1552=SHAPE_DEFINITION_REPRESENTATION(#1558,#1569);
#1553=SHAPE_DEFINITION_REPRESENTATION(#1559,#1570);
#1554=SHAPE_DEFINITION_REPRESENTATION(#1560,#1571);
#1555=SHAPE_DEFINITION_REPRESENTATION(#1561,#1572);
#1556=SHAPE_DEFINITION_REPRESENTATION(#1562,#1573);
#1557=SHAPE_DEFINITION_REPRESENTATION(#1563,#1574);
#1558=PRODUCT_DEFINITION_SHAPE('',$,#1576);
#1559=PRODUCT_DEFINITION_SHAPE('',$,#1577);
#1560=PRODUCT_DEFINITION_SHAPE('',$,#1578);
#1561=PRODUCT_DEFINITION_SHAPE('',$,#1579);
#1562=PRODUCT_DEFINITION_SHAPE('',$,#1580);
#1563=PRODUCT_DEFINITION_SHAPE('',$,#1581);
#1564=PRODUCT_DEFINITION_SHAPE($,$,#26);
#1565=PRODUCT_DEFINITION_SHAPE($,$,#27);
#1566=PRODUCT_DEFINITION_SHAPE($,$,#28);
#1567=PRODUCT_DEFINITION_SHAPE($,$,#29);
#1568=PRODUCT_DEFINITION_SHAPE($,$,#30);
#1569=SHAPE_REPRESENTATION('',(#906,#996),#1541);
#1570=SHAPE_REPRESENTATION('',(#907,#995),#1542);
#1571=SHAPE_REPRESENTATION('',(#908,#994),#1543);
#1572=SHAPE_REPRESENTATION('',(#909,#993),#1544);
#1573=SHAPE_REPRESENTATION('',(#910,#992),#1545);
#1574=SHAPE_REPRESENTATION('',(#911),#1546);
#1575=PRODUCT_DEFINITION_CONTEXT('part definition',#1595,'design');
#1576=PRODUCT_DEFINITION('2026-08-09-21-43-37-793','(Unsaved)',#1582,#1575);
#1577=PRODUCT_DEFINITION('2026-08-14-10-18-47-270',
'3030 Rear Motor Assemblies',#1583,#1575);
#1578=PRODUCT_DEFINITION('2026-08-14-10-18-47-280',
'3030 Left Rear Motor Assemblies.stp',#1584,#1575);
#1579=PRODUCT_DEFINITION('2026-08-14-10-18-47-280_1',
'_31_Sheet_metal_VT_9mm_rear_motor_mounts_FT_0',#1585,#1575);
#1580=PRODUCT_DEFINITION('2026-08-14-10-18-47-280_2',
'_Sheet_metal_VT_9mm_rear_left_motor_mount (1)',#1586,#1575);
#1581=PRODUCT_DEFINITION('2026-08-14-10-18-47-278',
'Sheet_metal_9mm_tensioner_a_4.7-5mm (1) (1)',#1587,#1575);
#1582=PRODUCT_DEFINITION_FORMATION('',$,#1597);
#1583=PRODUCT_DEFINITION_FORMATION('',$,#1598);
#1584=PRODUCT_DEFINITION_FORMATION('',$,#1599);
#1585=PRODUCT_DEFINITION_FORMATION('',$,#1600);
#1586=PRODUCT_DEFINITION_FORMATION('',$,#1601);
#1587=PRODUCT_DEFINITION_FORMATION('',$,#1602);
#1588=PRODUCT_RELATED_PRODUCT_CATEGORY('(Unsaved)','(Unsaved)',(#1597));
#1589=PRODUCT_RELATED_PRODUCT_CATEGORY('3030 Rear Motor Assemblies',
'3030 Rear Motor Assemblies',(#1598));
#1590=PRODUCT_RELATED_PRODUCT_CATEGORY(
'3030 Left Rear Motor Assemblies.stp',
'3030 Left Rear Motor Assemblies.stp',(#1599));
#1591=PRODUCT_RELATED_PRODUCT_CATEGORY(
'_31_Sheet_metal_VT_9mm_rear_motor_mounts_FT_0',
'_31_Sheet_metal_VT_9mm_rear_motor_mounts_FT_0',(#1600));
#1592=PRODUCT_RELATED_PRODUCT_CATEGORY(
'_Sheet_metal_VT_9mm_rear_left_motor_mount (1)',
'_Sheet_metal_VT_9mm_rear_left_motor_mount (1)',(#1601));
#1593=PRODUCT_RELATED_PRODUCT_CATEGORY(
'Sheet_metal_9mm_tensioner_a_4.7-5mm (1) (1)',
'Sheet_metal_9mm_tensioner_a_4.7-5mm (1) (1)',(#1602));
#1594=APPLICATION_PROTOCOL_DEFINITION('international standard',
'automotive_design',2009,#1595);
#1595=APPLICATION_CONTEXT(
'Core Data for Automotive Mechanical Design Process');
#1596=PRODUCT_CONTEXT('part definition',#1595,'mechanical');
#1597=PRODUCT('2026-08-09-21-43-37-793','(Unsaved)',$,(#1596));
#1598=PRODUCT('2026-08-14-10-18-47-270','3030 Rear Motor Assemblies',$,
(#1596));
#1599=PRODUCT('2026-08-14-10-18-47-280',
'3030 Left Rear Motor Assemblies.stp',$,(#1596));
#1600=PRODUCT('2026-08-14-10-18-47-280_1',
'_31_Sheet_metal_VT_9mm_rear_motor_mounts_FT_0',$,(#1596));
#1601=PRODUCT('2026-08-14-10-18-47-280_2',
'_Sheet_metal_VT_9mm_rear_left_motor_mount (1)',$,(#1596));
#1602=PRODUCT('2026-08-14-10-18-47-278',
'Sheet_metal_9mm_tensioner_a_4.7-5mm (1) (1)',$,(#1596));
#1603=PRESENTATION_STYLE_ASSIGNMENT((#1606));
#1604=PRESENTATION_STYLE_ASSIGNMENT((#1607));
#1605=PRESENTATION_STYLE_ASSIGNMENT((#1608));
#1606=SURFACE_STYLE_USAGE(.BOTH.,#1609);
#1607=SURFACE_STYLE_USAGE(.BOTH.,#1610);
#1608=SURFACE_STYLE_USAGE(.BOTH.,#1611);
#1609=SURFACE_SIDE_STYLE('',(#1612));
#1610=SURFACE_SIDE_STYLE('',(#1613));
#1611=SURFACE_SIDE_STYLE('',(#1614));
#1612=SURFACE_STYLE_FILL_AREA(#1615);
#1613=SURFACE_STYLE_FILL_AREA(#1616);
#1614=SURFACE_STYLE_FILL_AREA(#1617);
#1615=FILL_AREA_STYLE('Steel - Satin',(#1618));
#1616=FILL_AREA_STYLE('Opaque(137,137,137)',(#1619));
#1617=FILL_AREA_STYLE('Opaque(245,245,246)',(#1620));
#1618=FILL_AREA_STYLE_COLOUR('Steel - Satin',#1621);
#1619=FILL_AREA_STYLE_COLOUR('Opaque(137,137,137)',#1622);
#1620=FILL_AREA_STYLE_COLOUR('Opaque(245,245,246)',#1623);
#1621=COLOUR_RGB('Steel - Satin',0.627450980392157,0.627450980392157,0.627450980392157);
#1622=COLOUR_RGB('Opaque(137,137,137)',0.537254901960784,0.537254901960784,
0.537254901960784);
#1623=COLOUR_RGB('Opaque(245,245,246)',0.96078431372549,0.96078431372549,
0.964705882352941);
ENDSEC;
END-ISO-10303-21;
