ISO-10303-21;
HEADER;
/* Generated by software containing ST-Developer
 * from STEP Tools, Inc. (www.steptools.com) 
 */

FILE_DESCRIPTION(
/* description */ (''),
/* implementation_level */ '2;1');

FILE_NAME(
/* name */ 'Tensioner Spacer.step',
/* time_stamp */ '2026-08-22T21:11:55-05:00',
/* author */ (''),
/* organization */ (''),
/* preprocessor_version */ 'ST-DEVELOPER v20.1',
/* originating_system */ 'Autodesk Translation Framework v15.8.0.0',
/* authorisation */ '');

FILE_SCHEMA (('AUTOMOTIVE_DESIGN { 1 0 10303 214 3 1 1 }'));
ENDSEC;

DATA;
#10=MECHANICAL_DESIGN_GEOMETRIC_PRESENTATION_REPRESENTATION('',(#33),#1357);
#11=ITEM_DEFINED_TRANSFORMATION($,$,#777,#860);
#12=ITEM_DEFINED_TRANSFORMATION($,$,#776,#861);
#13=ITEM_DEFINED_TRANSFORMATION($,$,#775,#862);
#14=ITEM_DEFINED_TRANSFORMATION($,$,#774,#863);
#15=ITEM_DEFINED_TRANSFORMATION($,$,#773,#864);
#16=(
REPRESENTATION_RELATIONSHIP($,$,#1384,#1383)
REPRESENTATION_RELATIONSHIP_WITH_TRANSFORMATION(#11)
SHAPE_REPRESENTATION_RELATIONSHIP()
);
#17=(
REPRESENTATION_RELATIONSHIP($,$,#1383,#1382)
REPRESENTATION_RELATIONSHIP_WITH_TRANSFORMATION(#12)
SHAPE_REPRESENTATION_RELATIONSHIP()
);
#18=(
REPRESENTATION_RELATIONSHIP($,$,#1382,#1381)
REPRESENTATION_RELATIONSHIP_WITH_TRANSFORMATION(#13)
SHAPE_REPRESENTATION_RELATIONSHIP()
);
#19=(
REPRESENTATION_RELATIONSHIP($,$,#1381,#1380)
REPRESENTATION_RELATIONSHIP_WITH_TRANSFORMATION(#14)
SHAPE_REPRESENTATION_RELATIONSHIP()
);
#20=(
REPRESENTATION_RELATIONSHIP($,$,#1380,#1379)
REPRESENTATION_RELATIONSHIP_WITH_TRANSFORMATION(#15)
SHAPE_REPRESENTATION_RELATIONSHIP()
);
#21=CONTEXT_DEPENDENT_SHAPE_REPRESENTATION(#16,#1374);
#22=CONTEXT_DEPENDENT_SHAPE_REPRESENTATION(#17,#1375);
#23=CONTEXT_DEPENDENT_SHAPE_REPRESENTATION(#18,#1376);
#24=CONTEXT_DEPENDENT_SHAPE_REPRESENTATION(#19,#1377);
#25=CONTEXT_DEPENDENT_SHAPE_REPRESENTATION(#20,#1378);
#26=NEXT_ASSEMBLY_USAGE_OCCURRENCE(
'Sheet_metal_9mm_tensioner_c_4.7-5mm (1) (1):1',
'Sheet_metal_9mm_tensioner_c_4.7-5mm (1) (1):1',
'Sheet_metal_9mm_tensioner_c_4.7-5mm (1) (1):1',#1390,#1391,
'Sheet_metal_9mm_tensioner_c_4.7-5mm (1) (1):1');
#27=NEXT_ASSEMBLY_USAGE_OCCURRENCE(
'_Sheet_metal_VT_9mm_rear_left_motor_mount (1):1',
'_Sheet_metal_VT_9mm_rear_left_motor_mount (1):1',
'_Sheet_metal_VT_9mm_rear_left_motor_mount (1):1',#1389,#1390,
'_Sheet_metal_VT_9mm_rear_left_motor_mount (1):1');
#28=NEXT_ASSEMBLY_USAGE_OCCURRENCE(
'_31_Sheet_metal_VT_9mm_rear_motor_mounts_FT_0:1',
'_31_Sheet_metal_VT_9mm_rear_motor_mounts_FT_0:1',
'_31_Sheet_metal_VT_9mm_rear_motor_mounts_FT_0:1',#1388,#1389,
'_31_Sheet_metal_VT_9mm_rear_motor_mounts_FT_0:1');
#29=NEXT_ASSEMBLY_USAGE_OCCURRENCE(
'3030 Left Rear Motor Assemblies.stp:1',
'3030 Left Rear Motor Assemblies.stp:1',
'3030 Left Rear Motor Assemblies.stp:1',#1387,#1388,
'3030 Left Rear Motor Assemblies.stp:1');
#30=NEXT_ASSEMBLY_USAGE_OCCURRENCE('3030 Rear Motor Assemblies:1',
'3030 Rear Motor Assemblies:1','3030 Rear Motor Assemblies:1',#1386,#1387,
'3030 Rear Motor Assemblies:1');
#31=SHAPE_REPRESENTATION_RELATIONSHIP('SRR','None',#1384,#32);
#32=ADVANCED_BREP_SHAPE_REPRESENTATION('',(#34),#1356);
#33=STYLED_ITEM('',(#1415),#34);
#34=MANIFOLD_SOLID_BREP('Body1',#759);
#35=FACE_BOUND('',#93,.T.);
#36=FACE_BOUND('',#120,.T.);
#37=PLANE('',#781);
#38=PLANE('',#803);
#39=PLANE('',#808);
#40=PLANE('',#811);
#41=PLANE('',#812);
#42=PLANE('',#813);
#43=PLANE('',#814);
#44=PLANE('',#817);
#45=PLANE('',#822);
#46=PLANE('',#825);
#47=PLANE('',#826);
#48=PLANE('',#835);
#49=PLANE('',#842);
#50=PLANE('',#850);
#51=PLANE('',#851);
#52=PLANE('',#856);
#53=FACE_OUTER_BOUND('',#91,.T.);
#54=FACE_OUTER_BOUND('',#92,.T.);
#55=FACE_OUTER_BOUND('',#94,.T.);
#56=FACE_OUTER_BOUND('',#95,.T.);
#57=FACE_OUTER_BOUND('',#96,.T.);
#58=FACE_OUTER_BOUND('',#97,.T.);
#59=FACE_OUTER_BOUND('',#98,.T.);
#60=FACE_OUTER_BOUND('',#99,.T.);
#61=FACE_OUTER_BOUND('',#100,.T.);
#62=FACE_OUTER_BOUND('',#101,.T.);
#63=FACE_OUTER_BOUND('',#102,.T.);
#64=FACE_OUTER_BOUND('',#103,.T.);
#65=FACE_OUTER_BOUND('',#104,.T.);
#66=FACE_OUTER_BOUND('',#105,.T.);
#67=FACE_OUTER_BOUND('',#106,.T.);
#68=FACE_OUTER_BOUND('',#107,.T.);
#69=FACE_OUTER_BOUND('',#108,.T.);
#70=FACE_OUTER_BOUND('',#109,.T.);
#71=FACE_OUTER_BOUND('',#110,.T.);
#72=FACE_OUTER_BOUND('',#111,.T.);
#73=FACE_OUTER_BOUND('',#112,.T.);
#74=FACE_OUTER_BOUND('',#113,.T.);
#75=FACE_OUTER_BOUND('',#114,.T.);
#76=FACE_OUTER_BOUND('',#115,.T.);
#77=FACE_OUTER_BOUND('',#116,.T.);
#78=FACE_OUTER_BOUND('',#117,.T.);
#79=FACE_OUTER_BOUND('',#118,.T.);
#80=FACE_OUTER_BOUND('',#119,.T.);
#81=FACE_OUTER_BOUND('',#121,.T.);
#82=FACE_OUTER_BOUND('',#122,.T.);
#83=FACE_OUTER_BOUND('',#123,.T.);
#84=FACE_OUTER_BOUND('',#124,.T.);
#85=FACE_OUTER_BOUND('',#125,.T.);
#86=FACE_OUTER_BOUND('',#126,.T.);
#87=FACE_OUTER_BOUND('',#127,.T.);
#88=FACE_OUTER_BOUND('',#128,.T.);
#89=FACE_OUTER_BOUND('',#129,.T.);
#90=FACE_OUTER_BOUND('',#130,.T.);
#91=EDGE_LOOP('',(#483,#484,#485,#486));
#92=EDGE_LOOP('',(#487,#488,#489,#490,#491,#492,#493,#494,#495,#496,#497,
#498,#499,#500,#501,#502,#503,#504,#505,#506,#507,#508,#509,#510,#511,#512,
#513,#514,#515,#516,#517,#518));
#93=EDGE_LOOP('',(#519,#520,#521,#522));
#94=EDGE_LOOP('',(#523,#524,#525,#526));
#95=EDGE_LOOP('',(#527,#528,#529,#530));
#96=EDGE_LOOP('',(#531,#532,#533,#534));
#97=EDGE_LOOP('',(#535,#536,#537,#538));
#98=EDGE_LOOP('',(#539,#540,#541,#542));
#99=EDGE_LOOP('',(#543,#544,#545,#546));
#100=EDGE_LOOP('',(#547,#548,#549,#550));
#101=EDGE_LOOP('',(#551,#552,#553,#554));
#102=EDGE_LOOP('',(#555,#556,#557,#558));
#103=EDGE_LOOP('',(#559,#560,#561,#562));
#104=EDGE_LOOP('',(#563,#564,#565,#566));
#105=EDGE_LOOP('',(#567,#568,#569,#570));
#106=EDGE_LOOP('',(#571,#572,#573,#574));
#107=EDGE_LOOP('',(#575,#576,#577,#578));
#108=EDGE_LOOP('',(#579,#580,#581,#582));
#109=EDGE_LOOP('',(#583,#584,#585,#586));
#110=EDGE_LOOP('',(#587,#588,#589,#590));
#111=EDGE_LOOP('',(#591,#592,#593,#594));
#112=EDGE_LOOP('',(#595,#596,#597,#598));
#113=EDGE_LOOP('',(#599,#600,#601,#602));
#114=EDGE_LOOP('',(#603,#604,#605,#606));
#115=EDGE_LOOP('',(#607,#608,#609,#610));
#116=EDGE_LOOP('',(#611,#612,#613,#614));
#117=EDGE_LOOP('',(#615,#616,#617,#618));
#118=EDGE_LOOP('',(#619,#620,#621,#622));
#119=EDGE_LOOP('',(#623,#624,#625,#626,#627,#628,#629,#630,#631,#632,#633,
#634,#635,#636,#637,#638,#639,#640,#641,#642,#643,#644,#645,#646,#647,#648,
#649,#650,#651,#652,#653,#654));
#120=EDGE_LOOP('',(#655,#656,#657,#658));
#121=EDGE_LOOP('',(#659,#660,#661,#662));
#122=EDGE_LOOP('',(#663,#664,#665,#666));
#123=EDGE_LOOP('',(#667,#668,#669,#670));
#124=EDGE_LOOP('',(#671,#672,#673,#674));
#125=EDGE_LOOP('',(#675,#676,#677,#678));
#126=EDGE_LOOP('',(#679,#680,#681,#682));
#127=EDGE_LOOP('',(#683,#684,#685,#686));
#128=EDGE_LOOP('',(#687,#688,#689,#690));
#129=EDGE_LOOP('',(#691,#692,#693,#694));
#130=EDGE_LOOP('',(#695,#696,#697,#698));
#131=LINE('',#1126,#195);
#132=LINE('',#1129,#196);
#133=LINE('',#1132,#197);
#134=LINE('',#1136,#198);
#135=LINE('',#1140,#199);
#136=LINE('',#1144,#200);
#137=LINE('',#1152,#201);
#138=LINE('',#1160,#202);
#139=LINE('',#1164,#203);
#140=LINE('',#1168,#204);
#141=LINE('',#1172,#205);
#142=LINE('',#1176,#206);
#143=LINE('',#1184,#207);
#144=LINE('',#1191,#208);
#145=LINE('',#1194,#209);
#146=LINE('',#1198,#210);
#147=LINE('',#1202,#211);
#148=LINE('',#1203,#212);
#149=LINE('',#1207,#213);
#150=LINE('',#1212,#214);
#151=LINE('',#1213,#215);
#152=LINE('',#1216,#216);
#153=LINE('',#1217,#217);
#154=LINE('',#1220,#218);
#155=LINE('',#1223,#219);
#156=LINE('',#1226,#220);
#157=LINE('',#1227,#221);
#158=LINE('',#1230,#222);
#159=LINE('',#1231,#223);
#160=LINE('',#1234,#224);
#161=LINE('',#1235,#225);
#162=LINE('',#1237,#226);
#163=LINE('',#1240,#227);
#164=LINE('',#1243,#228);
#165=LINE('',#1246,#229);
#166=LINE('',#1247,#230);
#167=LINE('',#1253,#231);
#168=LINE('',#1256,#232);
#169=LINE('',#1257,#233);
#170=LINE('',#1261,#234);
#171=LINE('',#1264,#235);
#172=LINE('',#1265,#236);
#173=LINE('',#1268,#237);
#174=LINE('',#1269,#238);
#175=LINE('',#1274,#239);
#176=LINE('',#1275,#240);
#177=LINE('',#1278,#241);
#178=LINE('',#1280,#242);
#179=LINE('',#1287,#243);
#180=LINE('',#1290,#244);
#181=LINE('',#1291,#245);
#182=LINE('',#1295,#246);
#183=LINE('',#1298,#247);
#184=LINE('',#1310,#248);
#185=LINE('',#1317,#249);
#186=LINE('',#1319,#250);
#187=LINE('',#1322,#251);
#188=LINE('',#1324,#252);
#189=LINE('',#1327,#253);
#190=LINE('',#1328,#254);
#191=LINE('',#1331,#255);
#192=LINE('',#1333,#256);
#193=LINE('',#1335,#257);
#194=LINE('',#1337,#258);
#195=VECTOR('',#881,10.);
#196=VECTOR('',#884,10.);
#197=VECTOR('',#887,10.);
#198=VECTOR('',#890,10.);
#199=VECTOR('',#893,10.);
#200=VECTOR('',#896,10.);
#201=VECTOR('',#903,10.);
#202=VECTOR('',#910,10.);
#203=VECTOR('',#913,10.);
#204=VECTOR('',#916,10.);
#205=VECTOR('',#919,10.);
#206=VECTOR('',#922,10.);
#207=VECTOR('',#929,10.);
#208=VECTOR('',#936,10.);
#209=VECTOR('',#937,10.);
#210=VECTOR('',#940,10.);
#211=VECTOR('',#945,10.);
#212=VECTOR('',#946,10.);
#213=VECTOR('',#951,10.);
#214=VECTOR('',#956,10.);
#215=VECTOR('',#957,10.);
#216=VECTOR('',#960,10.);
#217=VECTOR('',#961,10.);
#218=VECTOR('',#964,10.);
#219=VECTOR('',#967,10.);
#220=VECTOR('',#970,10.);
#221=VECTOR('',#971,10.);
#222=VECTOR('',#974,10.);
#223=VECTOR('',#975,10.);
#224=VECTOR('',#978,10.);
#225=VECTOR('',#979,10.);
#226=VECTOR('',#982,10.);
#227=VECTOR('',#985,10.);
#228=VECTOR('',#988,10.);
#229=VECTOR('',#991,10.);
#230=VECTOR('',#992,10.);
#231=VECTOR('',#1001,10.);
#232=VECTOR('',#1004,10.);
#233=VECTOR('',#1005,10.);
#234=VECTOR('',#1010,10.);
#235=VECTOR('',#1013,10.);
#236=VECTOR('',#1014,10.);
#237=VECTOR('',#1017,10.);
#238=VECTOR('',#1018,10.);
#239=VECTOR('',#1023,10.);
#240=VECTOR('',#1024,10.);
#241=VECTOR('',#1027,10.);
#242=VECTOR('',#1028,10.);
#243=VECTOR('',#1039,10.);
#244=VECTOR('',#1042,10.);
#245=VECTOR('',#1043,10.);
#246=VECTOR('',#1048,10.);
#247=VECTOR('',#1051,10.);
#248=VECTOR('',#1066,10.);
#249=VECTOR('',#1073,10.);
#250=VECTOR('',#1074,10.);
#251=VECTOR('',#1079,10.);
#252=VECTOR('',#1082,10.);
#253=VECTOR('',#1087,10.);
#254=VECTOR('',#1088,10.);
#255=VECTOR('',#1093,10.);
#256=VECTOR('',#1096,10.);
#257=VECTOR('',#1099,10.);
#258=VECTOR('',#1102,10.);
#259=CIRCLE('',#779,0.5);
#260=CIRCLE('',#780,0.5);
#261=CIRCLE('',#782,1.);
#262=CIRCLE('',#783,1.);
#263=CIRCLE('',#784,0.5);
#264=CIRCLE('',#785,0.5);
#265=CIRCLE('',#786,0.499999999999999);
#266=CIRCLE('',#787,0.5);
#267=CIRCLE('',#788,0.5);
#268=CIRCLE('',#789,0.499999999999999);
#269=CIRCLE('',#790,0.5);
#270=CIRCLE('',#791,0.5);
#271=CIRCLE('',#792,1.);
#272=CIRCLE('',#793,1.);
#273=CIRCLE('',#794,0.5);
#274=CIRCLE('',#795,0.5);
#275=CIRCLE('',#796,0.499999999999999);
#276=CIRCLE('',#797,0.5);
#277=CIRCLE('',#798,0.5);
#278=CIRCLE('',#799,0.499999999999999);
#279=CIRCLE('',#800,0.5);
#280=CIRCLE('',#801,2.55000000000001);
#281=CIRCLE('',#802,2.55000000000001);
#282=CIRCLE('',#805,1.);
#283=CIRCLE('',#807,1.);
#284=CIRCLE('',#810,0.5);
#285=CIRCLE('',#816,0.5);
#286=CIRCLE('',#819,1.);
#287=CIRCLE('',#821,1.);
#288=CIRCLE('',#824,0.5);
#289=CIRCLE('',#828,2.55000000000001);
#290=CIRCLE('',#830,0.499999999999999);
#291=CIRCLE('',#832,0.5);
#292=CIRCLE('',#834,0.5);
#293=CIRCLE('',#837,0.5);
#294=CIRCLE('',#839,0.499999999999999);
#295=CIRCLE('',#841,0.5);
#296=CIRCLE('',#843,0.5);
#297=CIRCLE('',#844,0.499999999999999);
#298=CIRCLE('',#845,0.5);
#299=CIRCLE('',#846,0.5);
#300=CIRCLE('',#847,0.499999999999999);
#301=CIRCLE('',#848,0.5);
#302=CIRCLE('',#849,2.55000000000001);
#303=VERTEX_POINT('',#1122);
#304=VERTEX_POINT('',#1123);
#305=VERTEX_POINT('',#1125);
#306=VERTEX_POINT('',#1127);
#307=VERTEX_POINT('',#1131);
#308=VERTEX_POINT('',#1133);
#309=VERTEX_POINT('',#1135);
#310=VERTEX_POINT('',#1137);
#311=VERTEX_POINT('',#1139);
#312=VERTEX_POINT('',#1141);
#313=VERTEX_POINT('',#1143);
#314=VERTEX_POINT('',#1145);
#315=VERTEX_POINT('',#1147);
#316=VERTEX_POINT('',#1149);
#317=VERTEX_POINT('',#1151);
#318=VERTEX_POINT('',#1153);
#319=VERTEX_POINT('',#1155);
#320=VERTEX_POINT('',#1157);
#321=VERTEX_POINT('',#1159);
#322=VERTEX_POINT('',#1161);
#323=VERTEX_POINT('',#1163);
#324=VERTEX_POINT('',#1165);
#325=VERTEX_POINT('',#1167);
#326=VERTEX_POINT('',#1169);
#327=VERTEX_POINT('',#1171);
#328=VERTEX_POINT('',#1173);
#329=VERTEX_POINT('',#1175);
#330=VERTEX_POINT('',#1177);
#331=VERTEX_POINT('',#1179);
#332=VERTEX_POINT('',#1181);
#333=VERTEX_POINT('',#1183);
#334=VERTEX_POINT('',#1185);
#335=VERTEX_POINT('',#1187);
#336=VERTEX_POINT('',#1189);
#337=VERTEX_POINT('',#1192);
#338=VERTEX_POINT('',#1193);
#339=VERTEX_POINT('',#1195);
#340=VERTEX_POINT('',#1197);
#341=VERTEX_POINT('',#1201);
#342=VERTEX_POINT('',#1205);
#343=VERTEX_POINT('',#1209);
#344=VERTEX_POINT('',#1210);
#345=VERTEX_POINT('',#1215);
#346=VERTEX_POINT('',#1219);
#347=VERTEX_POINT('',#1221);
#348=VERTEX_POINT('',#1225);
#349=VERTEX_POINT('',#1229);
#350=VERTEX_POINT('',#1233);
#351=VERTEX_POINT('',#1239);
#352=VERTEX_POINT('',#1241);
#353=VERTEX_POINT('',#1245);
#354=VERTEX_POINT('',#1251);
#355=VERTEX_POINT('',#1255);
#356=VERTEX_POINT('',#1259);
#357=VERTEX_POINT('',#1263);
#358=VERTEX_POINT('',#1267);
#359=VERTEX_POINT('',#1271);
#360=VERTEX_POINT('',#1272);
#361=VERTEX_POINT('',#1277);
#362=VERTEX_POINT('',#1279);
#363=VERTEX_POINT('',#1285);
#364=VERTEX_POINT('',#1289);
#365=VERTEX_POINT('',#1293);
#366=VERTEX_POINT('',#1297);
#367=VERTEX_POINT('',#1303);
#368=VERTEX_POINT('',#1305);
#369=VERTEX_POINT('',#1307);
#370=VERTEX_POINT('',#1309);
#371=VERTEX_POINT('',#1311);
#372=VERTEX_POINT('',#1313);
#373=VERTEX_POINT('',#1316);
#374=VERTEX_POINT('',#1318);
#375=EDGE_CURVE('',#303,#304,#259,.T.);
#376=EDGE_CURVE('',#304,#305,#131,.T.);
#377=EDGE_CURVE('',#305,#306,#260,.T.);
#378=EDGE_CURVE('',#306,#303,#132,.T.);
#379=EDGE_CURVE('',#305,#307,#133,.T.);
#380=EDGE_CURVE('',#308,#307,#261,.T.);
#381=EDGE_CURVE('',#309,#308,#134,.T.);
#382=EDGE_CURVE('',#310,#309,#262,.T.);
#383=EDGE_CURVE('',#311,#310,#135,.T.);
#384=EDGE_CURVE('',#312,#311,#263,.T.);
#385=EDGE_CURVE('',#313,#312,#136,.T.);
#386=EDGE_CURVE('',#314,#313,#264,.T.);
#387=EDGE_CURVE('',#314,#315,#265,.T.);
#388=EDGE_CURVE('',#316,#315,#266,.T.);
#389=EDGE_CURVE('',#317,#316,#137,.T.);
#390=EDGE_CURVE('',#318,#317,#267,.T.);
#391=EDGE_CURVE('',#318,#319,#268,.T.);
#392=EDGE_CURVE('',#320,#319,#269,.T.);
#393=EDGE_CURVE('',#321,#320,#138,.T.);
#394=EDGE_CURVE('',#322,#321,#270,.T.);
#395=EDGE_CURVE('',#323,#322,#139,.T.);
#396=EDGE_CURVE('',#324,#323,#271,.T.);
#397=EDGE_CURVE('',#325,#324,#140,.T.);
#398=EDGE_CURVE('',#326,#325,#272,.T.);
#399=EDGE_CURVE('',#326,#327,#141,.T.);
#400=EDGE_CURVE('',#328,#327,#273,.T.);
#401=EDGE_CURVE('',#328,#329,#142,.T.);
#402=EDGE_CURVE('',#329,#330,#274,.T.);
#403=EDGE_CURVE('',#331,#330,#275,.T.);
#404=EDGE_CURVE('',#331,#332,#276,.T.);
#405=EDGE_CURVE('',#332,#333,#143,.T.);
#406=EDGE_CURVE('',#333,#334,#277,.T.);
#407=EDGE_CURVE('',#335,#334,#278,.T.);
#408=EDGE_CURVE('',#335,#336,#279,.T.);
#409=EDGE_CURVE('',#336,#306,#144,.T.);
#410=EDGE_CURVE('',#337,#338,#145,.T.);
#411=EDGE_CURVE('',#338,#339,#280,.T.);
#412=EDGE_CURVE('',#339,#340,#146,.T.);
#413=EDGE_CURVE('',#337,#340,#281,.T.);
#414=EDGE_CURVE('',#304,#341,#147,.T.);
#415=EDGE_CURVE('',#307,#341,#148,.T.);
#416=EDGE_CURVE('',#341,#342,#282,.T.);
#417=EDGE_CURVE('',#342,#308,#149,.T.);
#418=EDGE_CURVE('',#343,#344,#283,.T.);
#419=EDGE_CURVE('',#344,#326,#150,.T.);
#420=EDGE_CURVE('',#325,#343,#151,.T.);
#421=EDGE_CURVE('',#345,#324,#152,.T.);
#422=EDGE_CURVE('',#343,#345,#153,.T.);
#423=EDGE_CURVE('',#327,#346,#154,.T.);
#424=EDGE_CURVE('',#346,#347,#284,.T.);
#425=EDGE_CURVE('',#347,#328,#155,.T.);
#426=EDGE_CURVE('',#347,#348,#156,.T.);
#427=EDGE_CURVE('',#348,#329,#157,.T.);
#428=EDGE_CURVE('',#349,#342,#158,.T.);
#429=EDGE_CURVE('',#309,#349,#159,.T.);
#430=EDGE_CURVE('',#336,#350,#160,.T.);
#431=EDGE_CURVE('',#350,#303,#161,.T.);
#432=EDGE_CURVE('',#346,#344,#162,.T.);
#433=EDGE_CURVE('',#311,#351,#163,.T.);
#434=EDGE_CURVE('',#351,#352,#285,.T.);
#435=EDGE_CURVE('',#352,#312,#164,.T.);
#436=EDGE_CURVE('',#353,#310,#165,.T.);
#437=EDGE_CURVE('',#351,#353,#166,.T.);
#438=EDGE_CURVE('',#349,#353,#286,.T.);
#439=EDGE_CURVE('',#354,#345,#287,.T.);
#440=EDGE_CURVE('',#323,#354,#167,.T.);
#441=EDGE_CURVE('',#355,#322,#168,.T.);
#442=EDGE_CURVE('',#354,#355,#169,.T.);
#443=EDGE_CURVE('',#356,#355,#288,.T.);
#444=EDGE_CURVE('',#321,#356,#170,.T.);
#445=EDGE_CURVE('',#357,#320,#171,.T.);
#446=EDGE_CURVE('',#356,#357,#172,.T.);
#447=EDGE_CURVE('',#358,#352,#173,.T.);
#448=EDGE_CURVE('',#313,#358,#174,.T.);
#449=EDGE_CURVE('',#359,#360,#289,.T.);
#450=EDGE_CURVE('',#360,#337,#175,.T.);
#451=EDGE_CURVE('',#359,#340,#176,.T.);
#452=EDGE_CURVE('',#315,#361,#177,.T.);
#453=EDGE_CURVE('',#362,#314,#178,.T.);
#454=EDGE_CURVE('',#361,#362,#290,.T.);
#455=EDGE_CURVE('',#358,#362,#291,.T.);
#456=EDGE_CURVE('',#361,#363,#292,.T.);
#457=EDGE_CURVE('',#363,#316,#179,.T.);
#458=EDGE_CURVE('',#317,#364,#180,.T.);
#459=EDGE_CURVE('',#364,#363,#181,.T.);
#460=EDGE_CURVE('',#364,#365,#293,.T.);
#461=EDGE_CURVE('',#365,#318,#182,.T.);
#462=EDGE_CURVE('',#319,#366,#183,.T.);
#463=EDGE_CURVE('',#366,#365,#294,.T.);
#464=EDGE_CURVE('',#366,#357,#295,.T.);
#465=EDGE_CURVE('',#350,#367,#296,.T.);
#466=EDGE_CURVE('',#368,#367,#297,.T.);
#467=EDGE_CURVE('',#368,#369,#298,.T.);
#468=EDGE_CURVE('',#370,#369,#184,.T.);
#469=EDGE_CURVE('',#370,#371,#299,.T.);
#470=EDGE_CURVE('',#372,#371,#300,.T.);
#471=EDGE_CURVE('',#372,#348,#301,.T.);
#472=EDGE_CURVE('',#360,#373,#185,.T.);
#473=EDGE_CURVE('',#359,#374,#186,.T.);
#474=EDGE_CURVE('',#374,#373,#302,.T.);
#475=EDGE_CURVE('',#374,#339,#187,.T.);
#476=EDGE_CURVE('',#373,#338,#188,.T.);
#477=EDGE_CURVE('',#334,#368,#189,.T.);
#478=EDGE_CURVE('',#367,#335,#190,.T.);
#479=EDGE_CURVE('',#369,#333,#191,.T.);
#480=EDGE_CURVE('',#332,#370,#192,.T.);
#481=EDGE_CURVE('',#371,#331,#193,.T.);
#482=EDGE_CURVE('',#330,#372,#194,.T.);
#483=ORIENTED_EDGE('',*,*,#375,.T.);
#484=ORIENTED_EDGE('',*,*,#376,.T.);
#485=ORIENTED_EDGE('',*,*,#377,.T.);
#486=ORIENTED_EDGE('',*,*,#378,.T.);
#487=ORIENTED_EDGE('',*,*,#377,.F.);
#488=ORIENTED_EDGE('',*,*,#379,.T.);
#489=ORIENTED_EDGE('',*,*,#380,.F.);
#490=ORIENTED_EDGE('',*,*,#381,.F.);
#491=ORIENTED_EDGE('',*,*,#382,.F.);
#492=ORIENTED_EDGE('',*,*,#383,.F.);
#493=ORIENTED_EDGE('',*,*,#384,.F.);
#494=ORIENTED_EDGE('',*,*,#385,.F.);
#495=ORIENTED_EDGE('',*,*,#386,.F.);
#496=ORIENTED_EDGE('',*,*,#387,.T.);
#497=ORIENTED_EDGE('',*,*,#388,.F.);
#498=ORIENTED_EDGE('',*,*,#389,.F.);
#499=ORIENTED_EDGE('',*,*,#390,.F.);
#500=ORIENTED_EDGE('',*,*,#391,.T.);
#501=ORIENTED_EDGE('',*,*,#392,.F.);
#502=ORIENTED_EDGE('',*,*,#393,.F.);
#503=ORIENTED_EDGE('',*,*,#394,.F.);
#504=ORIENTED_EDGE('',*,*,#395,.F.);
#505=ORIENTED_EDGE('',*,*,#396,.F.);
#506=ORIENTED_EDGE('',*,*,#397,.F.);
#507=ORIENTED_EDGE('',*,*,#398,.F.);
#508=ORIENTED_EDGE('',*,*,#399,.T.);
#509=ORIENTED_EDGE('',*,*,#400,.F.);
#510=ORIENTED_EDGE('',*,*,#401,.T.);
#511=ORIENTED_EDGE('',*,*,#402,.T.);
#512=ORIENTED_EDGE('',*,*,#403,.F.);
#513=ORIENTED_EDGE('',*,*,#404,.T.);
#514=ORIENTED_EDGE('',*,*,#405,.T.);
#515=ORIENTED_EDGE('',*,*,#406,.T.);
#516=ORIENTED_EDGE('',*,*,#407,.F.);
#517=ORIENTED_EDGE('',*,*,#408,.T.);
#518=ORIENTED_EDGE('',*,*,#409,.T.);
#519=ORIENTED_EDGE('',*,*,#410,.T.);
#520=ORIENTED_EDGE('',*,*,#411,.T.);
#521=ORIENTED_EDGE('',*,*,#412,.T.);
#522=ORIENTED_EDGE('',*,*,#413,.F.);
#523=ORIENTED_EDGE('',*,*,#376,.F.);
#524=ORIENTED_EDGE('',*,*,#414,.T.);
#525=ORIENTED_EDGE('',*,*,#415,.F.);
#526=ORIENTED_EDGE('',*,*,#379,.F.);
#527=ORIENTED_EDGE('',*,*,#380,.T.);
#528=ORIENTED_EDGE('',*,*,#415,.T.);
#529=ORIENTED_EDGE('',*,*,#416,.T.);
#530=ORIENTED_EDGE('',*,*,#417,.T.);
#531=ORIENTED_EDGE('',*,*,#418,.T.);
#532=ORIENTED_EDGE('',*,*,#419,.T.);
#533=ORIENTED_EDGE('',*,*,#398,.T.);
#534=ORIENTED_EDGE('',*,*,#420,.T.);
#535=ORIENTED_EDGE('',*,*,#420,.F.);
#536=ORIENTED_EDGE('',*,*,#397,.T.);
#537=ORIENTED_EDGE('',*,*,#421,.F.);
#538=ORIENTED_EDGE('',*,*,#422,.F.);
#539=ORIENTED_EDGE('',*,*,#400,.T.);
#540=ORIENTED_EDGE('',*,*,#423,.T.);
#541=ORIENTED_EDGE('',*,*,#424,.T.);
#542=ORIENTED_EDGE('',*,*,#425,.T.);
#543=ORIENTED_EDGE('',*,*,#425,.F.);
#544=ORIENTED_EDGE('',*,*,#426,.T.);
#545=ORIENTED_EDGE('',*,*,#427,.T.);
#546=ORIENTED_EDGE('',*,*,#401,.F.);
#547=ORIENTED_EDGE('',*,*,#417,.F.);
#548=ORIENTED_EDGE('',*,*,#428,.F.);
#549=ORIENTED_EDGE('',*,*,#429,.F.);
#550=ORIENTED_EDGE('',*,*,#381,.T.);
#551=ORIENTED_EDGE('',*,*,#378,.F.);
#552=ORIENTED_EDGE('',*,*,#409,.F.);
#553=ORIENTED_EDGE('',*,*,#430,.T.);
#554=ORIENTED_EDGE('',*,*,#431,.T.);
#555=ORIENTED_EDGE('',*,*,#419,.F.);
#556=ORIENTED_EDGE('',*,*,#432,.F.);
#557=ORIENTED_EDGE('',*,*,#423,.F.);
#558=ORIENTED_EDGE('',*,*,#399,.F.);
#559=ORIENTED_EDGE('',*,*,#384,.T.);
#560=ORIENTED_EDGE('',*,*,#433,.T.);
#561=ORIENTED_EDGE('',*,*,#434,.T.);
#562=ORIENTED_EDGE('',*,*,#435,.T.);
#563=ORIENTED_EDGE('',*,*,#433,.F.);
#564=ORIENTED_EDGE('',*,*,#383,.T.);
#565=ORIENTED_EDGE('',*,*,#436,.F.);
#566=ORIENTED_EDGE('',*,*,#437,.F.);
#567=ORIENTED_EDGE('',*,*,#438,.T.);
#568=ORIENTED_EDGE('',*,*,#436,.T.);
#569=ORIENTED_EDGE('',*,*,#382,.T.);
#570=ORIENTED_EDGE('',*,*,#429,.T.);
#571=ORIENTED_EDGE('',*,*,#439,.T.);
#572=ORIENTED_EDGE('',*,*,#421,.T.);
#573=ORIENTED_EDGE('',*,*,#396,.T.);
#574=ORIENTED_EDGE('',*,*,#440,.T.);
#575=ORIENTED_EDGE('',*,*,#440,.F.);
#576=ORIENTED_EDGE('',*,*,#395,.T.);
#577=ORIENTED_EDGE('',*,*,#441,.F.);
#578=ORIENTED_EDGE('',*,*,#442,.F.);
#579=ORIENTED_EDGE('',*,*,#443,.T.);
#580=ORIENTED_EDGE('',*,*,#441,.T.);
#581=ORIENTED_EDGE('',*,*,#394,.T.);
#582=ORIENTED_EDGE('',*,*,#444,.T.);
#583=ORIENTED_EDGE('',*,*,#444,.F.);
#584=ORIENTED_EDGE('',*,*,#393,.T.);
#585=ORIENTED_EDGE('',*,*,#445,.F.);
#586=ORIENTED_EDGE('',*,*,#446,.F.);
#587=ORIENTED_EDGE('',*,*,#435,.F.);
#588=ORIENTED_EDGE('',*,*,#447,.F.);
#589=ORIENTED_EDGE('',*,*,#448,.F.);
#590=ORIENTED_EDGE('',*,*,#385,.T.);
#591=ORIENTED_EDGE('',*,*,#449,.T.);
#592=ORIENTED_EDGE('',*,*,#450,.T.);
#593=ORIENTED_EDGE('',*,*,#413,.T.);
#594=ORIENTED_EDGE('',*,*,#451,.F.);
#595=ORIENTED_EDGE('',*,*,#452,.F.);
#596=ORIENTED_EDGE('',*,*,#387,.F.);
#597=ORIENTED_EDGE('',*,*,#453,.F.);
#598=ORIENTED_EDGE('',*,*,#454,.F.);
#599=ORIENTED_EDGE('',*,*,#386,.T.);
#600=ORIENTED_EDGE('',*,*,#448,.T.);
#601=ORIENTED_EDGE('',*,*,#455,.T.);
#602=ORIENTED_EDGE('',*,*,#453,.T.);
#603=ORIENTED_EDGE('',*,*,#456,.T.);
#604=ORIENTED_EDGE('',*,*,#457,.T.);
#605=ORIENTED_EDGE('',*,*,#388,.T.);
#606=ORIENTED_EDGE('',*,*,#452,.T.);
#607=ORIENTED_EDGE('',*,*,#458,.F.);
#608=ORIENTED_EDGE('',*,*,#389,.T.);
#609=ORIENTED_EDGE('',*,*,#457,.F.);
#610=ORIENTED_EDGE('',*,*,#459,.F.);
#611=ORIENTED_EDGE('',*,*,#390,.T.);
#612=ORIENTED_EDGE('',*,*,#458,.T.);
#613=ORIENTED_EDGE('',*,*,#460,.T.);
#614=ORIENTED_EDGE('',*,*,#461,.T.);
#615=ORIENTED_EDGE('',*,*,#462,.F.);
#616=ORIENTED_EDGE('',*,*,#391,.F.);
#617=ORIENTED_EDGE('',*,*,#461,.F.);
#618=ORIENTED_EDGE('',*,*,#463,.F.);
#619=ORIENTED_EDGE('',*,*,#464,.T.);
#620=ORIENTED_EDGE('',*,*,#445,.T.);
#621=ORIENTED_EDGE('',*,*,#392,.T.);
#622=ORIENTED_EDGE('',*,*,#462,.T.);
#623=ORIENTED_EDGE('',*,*,#375,.F.);
#624=ORIENTED_EDGE('',*,*,#431,.F.);
#625=ORIENTED_EDGE('',*,*,#465,.T.);
#626=ORIENTED_EDGE('',*,*,#466,.F.);
#627=ORIENTED_EDGE('',*,*,#467,.T.);
#628=ORIENTED_EDGE('',*,*,#468,.F.);
#629=ORIENTED_EDGE('',*,*,#469,.T.);
#630=ORIENTED_EDGE('',*,*,#470,.F.);
#631=ORIENTED_EDGE('',*,*,#471,.T.);
#632=ORIENTED_EDGE('',*,*,#426,.F.);
#633=ORIENTED_EDGE('',*,*,#424,.F.);
#634=ORIENTED_EDGE('',*,*,#432,.T.);
#635=ORIENTED_EDGE('',*,*,#418,.F.);
#636=ORIENTED_EDGE('',*,*,#422,.T.);
#637=ORIENTED_EDGE('',*,*,#439,.F.);
#638=ORIENTED_EDGE('',*,*,#442,.T.);
#639=ORIENTED_EDGE('',*,*,#443,.F.);
#640=ORIENTED_EDGE('',*,*,#446,.T.);
#641=ORIENTED_EDGE('',*,*,#464,.F.);
#642=ORIENTED_EDGE('',*,*,#463,.T.);
#643=ORIENTED_EDGE('',*,*,#460,.F.);
#644=ORIENTED_EDGE('',*,*,#459,.T.);
#645=ORIENTED_EDGE('',*,*,#456,.F.);
#646=ORIENTED_EDGE('',*,*,#454,.T.);
#647=ORIENTED_EDGE('',*,*,#455,.F.);
#648=ORIENTED_EDGE('',*,*,#447,.T.);
#649=ORIENTED_EDGE('',*,*,#434,.F.);
#650=ORIENTED_EDGE('',*,*,#437,.T.);
#651=ORIENTED_EDGE('',*,*,#438,.F.);
#652=ORIENTED_EDGE('',*,*,#428,.T.);
#653=ORIENTED_EDGE('',*,*,#416,.F.);
#654=ORIENTED_EDGE('',*,*,#414,.F.);
#655=ORIENTED_EDGE('',*,*,#472,.F.);
#656=ORIENTED_EDGE('',*,*,#449,.F.);
#657=ORIENTED_EDGE('',*,*,#473,.T.);
#658=ORIENTED_EDGE('',*,*,#474,.T.);
#659=ORIENTED_EDGE('',*,*,#412,.F.);
#660=ORIENTED_EDGE('',*,*,#475,.F.);
#661=ORIENTED_EDGE('',*,*,#473,.F.);
#662=ORIENTED_EDGE('',*,*,#451,.T.);
#663=ORIENTED_EDGE('',*,*,#472,.T.);
#664=ORIENTED_EDGE('',*,*,#476,.T.);
#665=ORIENTED_EDGE('',*,*,#410,.F.);
#666=ORIENTED_EDGE('',*,*,#450,.F.);
#667=ORIENTED_EDGE('',*,*,#474,.F.);
#668=ORIENTED_EDGE('',*,*,#475,.T.);
#669=ORIENTED_EDGE('',*,*,#411,.F.);
#670=ORIENTED_EDGE('',*,*,#476,.F.);
#671=ORIENTED_EDGE('',*,*,#477,.T.);
#672=ORIENTED_EDGE('',*,*,#466,.T.);
#673=ORIENTED_EDGE('',*,*,#478,.T.);
#674=ORIENTED_EDGE('',*,*,#407,.T.);
#675=ORIENTED_EDGE('',*,*,#408,.F.);
#676=ORIENTED_EDGE('',*,*,#478,.F.);
#677=ORIENTED_EDGE('',*,*,#465,.F.);
#678=ORIENTED_EDGE('',*,*,#430,.F.);
#679=ORIENTED_EDGE('',*,*,#467,.F.);
#680=ORIENTED_EDGE('',*,*,#477,.F.);
#681=ORIENTED_EDGE('',*,*,#406,.F.);
#682=ORIENTED_EDGE('',*,*,#479,.F.);
#683=ORIENTED_EDGE('',*,*,#480,.T.);
#684=ORIENTED_EDGE('',*,*,#468,.T.);
#685=ORIENTED_EDGE('',*,*,#479,.T.);
#686=ORIENTED_EDGE('',*,*,#405,.F.);
#687=ORIENTED_EDGE('',*,*,#404,.F.);
#688=ORIENTED_EDGE('',*,*,#481,.F.);
#689=ORIENTED_EDGE('',*,*,#469,.F.);
#690=ORIENTED_EDGE('',*,*,#480,.F.);
#691=ORIENTED_EDGE('',*,*,#482,.T.);
#692=ORIENTED_EDGE('',*,*,#470,.T.);
#693=ORIENTED_EDGE('',*,*,#481,.T.);
#694=ORIENTED_EDGE('',*,*,#403,.T.);
#695=ORIENTED_EDGE('',*,*,#471,.F.);
#696=ORIENTED_EDGE('',*,*,#482,.F.);
#697=ORIENTED_EDGE('',*,*,#402,.F.);
#698=ORIENTED_EDGE('',*,*,#427,.F.);
#699=CYLINDRICAL_SURFACE('',#778,0.5);
#700=CYLINDRICAL_SURFACE('',#804,1.);
#701=CYLINDRICAL_SURFACE('',#806,1.);
#702=CYLINDRICAL_SURFACE('',#809,0.5);
#703=CYLINDRICAL_SURFACE('',#815,0.5);
#704=CYLINDRICAL_SURFACE('',#818,1.);
#705=CYLINDRICAL_SURFACE('',#820,1.);
#706=CYLINDRICAL_SURFACE('',#823,0.5);
#707=CYLINDRICAL_SURFACE('',#827,2.55000000000001);
#708=CYLINDRICAL_SURFACE('',#829,0.499999999999999);
#709=CYLINDRICAL_SURFACE('',#831,0.5);
#710=CYLINDRICAL_SURFACE('',#833,0.5);
#711=CYLINDRICAL_SURFACE('',#836,0.5);
#712=CYLINDRICAL_SURFACE('',#838,0.499999999999999);
#713=CYLINDRICAL_SURFACE('',#840,0.5);
#714=CYLINDRICAL_SURFACE('',#852,2.55000000000001);
#715=CYLINDRICAL_SURFACE('',#853,0.499999999999999);
#716=CYLINDRICAL_SURFACE('',#854,0.5);
#717=CYLINDRICAL_SURFACE('',#855,0.5);
#718=CYLINDRICAL_SURFACE('',#857,0.5);
#719=CYLINDRICAL_SURFACE('',#858,0.499999999999999);
#720=CYLINDRICAL_SURFACE('',#859,0.5);
#721=ADVANCED_FACE('',(#53),#699,.T.);
#722=ADVANCED_FACE('',(#54,#35),#37,.F.);
#723=ADVANCED_FACE('',(#55),#38,.F.);
#724=ADVANCED_FACE('',(#56),#700,.T.);
#725=ADVANCED_FACE('',(#57),#701,.T.);
#726=ADVANCED_FACE('',(#58),#39,.T.);
#727=ADVANCED_FACE('',(#59),#702,.T.);
#728=ADVANCED_FACE('',(#60),#40,.F.);
#729=ADVANCED_FACE('',(#61),#41,.T.);
#730=ADVANCED_FACE('',(#62),#42,.F.);
#731=ADVANCED_FACE('',(#63),#43,.F.);
#732=ADVANCED_FACE('',(#64),#703,.T.);
#733=ADVANCED_FACE('',(#65),#44,.T.);
#734=ADVANCED_FACE('',(#66),#704,.T.);
#735=ADVANCED_FACE('',(#67),#705,.T.);
#736=ADVANCED_FACE('',(#68),#45,.T.);
#737=ADVANCED_FACE('',(#69),#706,.T.);
#738=ADVANCED_FACE('',(#70),#46,.T.);
#739=ADVANCED_FACE('',(#71),#47,.T.);
#740=ADVANCED_FACE('',(#72),#707,.F.);
#741=ADVANCED_FACE('',(#73),#708,.F.);
#742=ADVANCED_FACE('',(#74),#709,.T.);
#743=ADVANCED_FACE('',(#75),#710,.T.);
#744=ADVANCED_FACE('',(#76),#48,.T.);
#745=ADVANCED_FACE('',(#77),#711,.T.);
#746=ADVANCED_FACE('',(#78),#712,.F.);
#747=ADVANCED_FACE('',(#79),#713,.T.);
#748=ADVANCED_FACE('',(#80,#36),#49,.T.);
#749=ADVANCED_FACE('',(#81),#50,.F.);
#750=ADVANCED_FACE('',(#82),#51,.F.);
#751=ADVANCED_FACE('',(#83),#714,.F.);
#752=ADVANCED_FACE('',(#84),#715,.F.);
#753=ADVANCED_FACE('',(#85),#716,.T.);
#754=ADVANCED_FACE('',(#86),#717,.T.);
#755=ADVANCED_FACE('',(#87),#52,.F.);
#756=ADVANCED_FACE('',(#88),#718,.T.);
#757=ADVANCED_FACE('',(#89),#719,.F.);
#758=ADVANCED_FACE('',(#90),#720,.T.);
#759=CLOSED_SHELL('',(#721,#722,#723,#724,#725,#726,#727,#728,#729,#730,
#731,#732,#733,#734,#735,#736,#737,#738,#739,#740,#741,#742,#743,#744,#745,
#746,#747,#748,#749,#750,#751,#752,#753,#754,#755,#756,#757,#758));
#760=DERIVED_UNIT_ELEMENT(#762,1.);
#761=DERIVED_UNIT_ELEMENT(#1359,-3.);
#762=(
MASS_UNIT()
NAMED_UNIT(*)
SI_UNIT(.KILO.,.GRAM.)
);
#763=DERIVED_UNIT((#760,#761));
#764=MEASURE_REPRESENTATION_ITEM('density measure',
POSITIVE_RATIO_MEASURE(7850.),#763);
#765=PROPERTY_DEFINITION_REPRESENTATION(#770,#767);
#766=PROPERTY_DEFINITION_REPRESENTATION(#771,#768);
#767=REPRESENTATION('material name',(#769),#1356);
#768=REPRESENTATION('density',(#764),#1356);
#769=DESCRIPTIVE_REPRESENTATION_ITEM('Steel','Steel');
#770=PROPERTY_DEFINITION('material property','material name',#1391);
#771=PROPERTY_DEFINITION('material property','density of part',#1391);
#772=AXIS2_PLACEMENT_3D('',#1115,#865,#866);
#773=AXIS2_PLACEMENT_3D('',#1116,#867,#868);
#774=AXIS2_PLACEMENT_3D('',#1117,#869,#870);
#775=AXIS2_PLACEMENT_3D('',#1118,#871,#872);
#776=AXIS2_PLACEMENT_3D('',#1119,#873,#874);
#777=AXIS2_PLACEMENT_3D('',#1120,#875,#876);
#778=AXIS2_PLACEMENT_3D('',#1121,#877,#878);
#779=AXIS2_PLACEMENT_3D('',#1124,#879,#880);
#780=AXIS2_PLACEMENT_3D('',#1128,#882,#883);
#781=AXIS2_PLACEMENT_3D('',#1130,#885,#886);
#782=AXIS2_PLACEMENT_3D('',#1134,#888,#889);
#783=AXIS2_PLACEMENT_3D('',#1138,#891,#892);
#784=AXIS2_PLACEMENT_3D('',#1142,#894,#895);
#785=AXIS2_PLACEMENT_3D('',#1146,#897,#898);
#786=AXIS2_PLACEMENT_3D('',#1148,#899,#900);
#787=AXIS2_PLACEMENT_3D('',#1150,#901,#902);
#788=AXIS2_PLACEMENT_3D('',#1154,#904,#905);
#789=AXIS2_PLACEMENT_3D('',#1156,#906,#907);
#790=AXIS2_PLACEMENT_3D('',#1158,#908,#909);
#791=AXIS2_PLACEMENT_3D('',#1162,#911,#912);
#792=AXIS2_PLACEMENT_3D('',#1166,#914,#915);
#793=AXIS2_PLACEMENT_3D('',#1170,#917,#918);
#794=AXIS2_PLACEMENT_3D('',#1174,#920,#921);
#795=AXIS2_PLACEMENT_3D('',#1178,#923,#924);
#796=AXIS2_PLACEMENT_3D('',#1180,#925,#926);
#797=AXIS2_PLACEMENT_3D('',#1182,#927,#928);
#798=AXIS2_PLACEMENT_3D('',#1186,#930,#931);
#799=AXIS2_PLACEMENT_3D('',#1188,#932,#933);
#800=AXIS2_PLACEMENT_3D('',#1190,#934,#935);
#801=AXIS2_PLACEMENT_3D('',#1196,#938,#939);
#802=AXIS2_PLACEMENT_3D('',#1199,#941,#942);
#803=AXIS2_PLACEMENT_3D('',#1200,#943,#944);
#804=AXIS2_PLACEMENT_3D('',#1204,#947,#948);
#805=AXIS2_PLACEMENT_3D('',#1206,#949,#950);
#806=AXIS2_PLACEMENT_3D('',#1208,#952,#953);
#807=AXIS2_PLACEMENT_3D('',#1211,#954,#955);
#808=AXIS2_PLACEMENT_3D('',#1214,#958,#959);
#809=AXIS2_PLACEMENT_3D('',#1218,#962,#963);
#810=AXIS2_PLACEMENT_3D('',#1222,#965,#966);
#811=AXIS2_PLACEMENT_3D('',#1224,#968,#969);
#812=AXIS2_PLACEMENT_3D('',#1228,#972,#973);
#813=AXIS2_PLACEMENT_3D('',#1232,#976,#977);
#814=AXIS2_PLACEMENT_3D('',#1236,#980,#981);
#815=AXIS2_PLACEMENT_3D('',#1238,#983,#984);
#816=AXIS2_PLACEMENT_3D('',#1242,#986,#987);
#817=AXIS2_PLACEMENT_3D('',#1244,#989,#990);
#818=AXIS2_PLACEMENT_3D('',#1248,#993,#994);
#819=AXIS2_PLACEMENT_3D('',#1249,#995,#996);
#820=AXIS2_PLACEMENT_3D('',#1250,#997,#998);
#821=AXIS2_PLACEMENT_3D('',#1252,#999,#1000);
#822=AXIS2_PLACEMENT_3D('',#1254,#1002,#1003);
#823=AXIS2_PLACEMENT_3D('',#1258,#1006,#1007);
#824=AXIS2_PLACEMENT_3D('',#1260,#1008,#1009);
#825=AXIS2_PLACEMENT_3D('',#1262,#1011,#1012);
#826=AXIS2_PLACEMENT_3D('',#1266,#1015,#1016);
#827=AXIS2_PLACEMENT_3D('',#1270,#1019,#1020);
#828=AXIS2_PLACEMENT_3D('',#1273,#1021,#1022);
#829=AXIS2_PLACEMENT_3D('',#1276,#1025,#1026);
#830=AXIS2_PLACEMENT_3D('',#1281,#1029,#1030);
#831=AXIS2_PLACEMENT_3D('',#1282,#1031,#1032);
#832=AXIS2_PLACEMENT_3D('',#1283,#1033,#1034);
#833=AXIS2_PLACEMENT_3D('',#1284,#1035,#1036);
#834=AXIS2_PLACEMENT_3D('',#1286,#1037,#1038);
#835=AXIS2_PLACEMENT_3D('',#1288,#1040,#1041);
#836=AXIS2_PLACEMENT_3D('',#1292,#1044,#1045);
#837=AXIS2_PLACEMENT_3D('',#1294,#1046,#1047);
#838=AXIS2_PLACEMENT_3D('',#1296,#1049,#1050);
#839=AXIS2_PLACEMENT_3D('',#1299,#1052,#1053);
#840=AXIS2_PLACEMENT_3D('',#1300,#1054,#1055);
#841=AXIS2_PLACEMENT_3D('',#1301,#1056,#1057);
#842=AXIS2_PLACEMENT_3D('',#1302,#1058,#1059);
#843=AXIS2_PLACEMENT_3D('',#1304,#1060,#1061);
#844=AXIS2_PLACEMENT_3D('',#1306,#1062,#1063);
#845=AXIS2_PLACEMENT_3D('',#1308,#1064,#1065);
#846=AXIS2_PLACEMENT_3D('',#1312,#1067,#1068);
#847=AXIS2_PLACEMENT_3D('',#1314,#1069,#1070);
#848=AXIS2_PLACEMENT_3D('',#1315,#1071,#1072);
#849=AXIS2_PLACEMENT_3D('',#1320,#1075,#1076);
#850=AXIS2_PLACEMENT_3D('',#1321,#1077,#1078);
#851=AXIS2_PLACEMENT_3D('',#1323,#1080,#1081);
#852=AXIS2_PLACEMENT_3D('',#1325,#1083,#1084);
#853=AXIS2_PLACEMENT_3D('',#1326,#1085,#1086);
#854=AXIS2_PLACEMENT_3D('',#1329,#1089,#1090);
#855=AXIS2_PLACEMENT_3D('',#1330,#1091,#1092);
#856=AXIS2_PLACEMENT_3D('',#1332,#1094,#1095);
#857=AXIS2_PLACEMENT_3D('',#1334,#1097,#1098);
#858=AXIS2_PLACEMENT_3D('',#1336,#1100,#1101);
#859=AXIS2_PLACEMENT_3D('',#1338,#1103,#1104);
#860=AXIS2_PLACEMENT_3D('',#1339,#1105,#1106);
#861=AXIS2_PLACEMENT_3D('',#1340,#1107,#1108);
#862=AXIS2_PLACEMENT_3D('',#1341,#1109,#1110);
#863=AXIS2_PLACEMENT_3D('',#1342,#1111,#1112);
#864=AXIS2_PLACEMENT_3D('',#1343,#1113,#1114);
#865=DIRECTION('axis',(0.,0.,1.));
#866=DIRECTION('refdir',(1.,0.,0.));
#867=DIRECTION('axis',(0.,0.,1.));
#868=DIRECTION('refdir',(1.,0.,0.));
#869=DIRECTION('axis',(0.,0.,1.));
#870=DIRECTION('refdir',(1.,0.,0.));
#871=DIRECTION('axis',(0.,0.,1.));
#872=DIRECTION('refdir',(1.,0.,0.));
#873=DIRECTION('axis',(0.,0.,1.));
#874=DIRECTION('refdir',(1.,0.,0.));
#875=DIRECTION('axis',(0.,0.,1.));
#876=DIRECTION('refdir',(1.,0.,0.));
#877=DIRECTION('center_axis',(-1.,1.29685696487246E-33,0.));
#878=DIRECTION('ref_axis',(9.17016354090329E-34,0.707106781186554,0.707106781186541));
#879=DIRECTION('center_axis',(1.,-1.29685696487246E-33,0.));
#880=DIRECTION('ref_axis',(9.17016354090329E-34,0.707106781186554,0.707106781186541));
#881=DIRECTION('',(1.,-1.29685696487246E-33,0.));
#882=DIRECTION('center_axis',(-1.,1.29685696487246E-33,0.));
#883=DIRECTION('ref_axis',(9.17016354090329E-34,0.707106781186554,0.707106781186541));
#884=DIRECTION('',(-1.,1.29685696487246E-33,0.));
#885=DIRECTION('center_axis',(-1.,1.29685696487246E-33,0.));
#886=DIRECTION('ref_axis',(-1.29685696487246E-33,-1.,2.82102680605243E-37));
#887=DIRECTION('',(1.35888624264507E-13,-1.,2.01858731750028E-16));
#888=DIRECTION('center_axis',(-1.,1.29685696487246E-33,0.));
#889=DIRECTION('ref_axis',(-9.17016354090327E-34,-0.707106781186552,0.707106781186543));
#890=DIRECTION('',(3.658468261521E-70,2.82102680605243E-37,1.));
#891=DIRECTION('center_axis',(-1.,1.29685696487246E-33,0.));
#892=DIRECTION('ref_axis',(-9.17016354090327E-34,-0.707106781186552,-0.707106781186543));
#893=DIRECTION('',(1.35888624264507E-13,-1.,2.01858731750028E-16));
#894=DIRECTION('center_axis',(-1.,1.29685696487246E-33,0.));
#895=DIRECTION('ref_axis',(9.17016354090325E-34,0.707106781186551,-0.707106781186544));
#896=DIRECTION('',(-2.61781902190345E-49,-2.01858731750028E-16,-1.));
#897=DIRECTION('center_axis',(-1.,1.29685696487246E-33,0.));
#898=DIRECTION('ref_axis',(1.21309861055107E-33,0.93541434669349,0.353553390593263));
#899=DIRECTION('center_axis',(-1.,1.29685696487246E-33,0.));
#900=DIRECTION('ref_axis',(-1.29685696487246E-33,-1.,2.01858731750028E-16));
#901=DIRECTION('center_axis',(-1.,1.29685696487246E-33,0.));
#902=DIRECTION('ref_axis',(-4.58508177045154E-34,-0.353553390593269,-0.935414346693487));
#903=DIRECTION('',(-1.29685696487246E-33,-1.,2.01858731750028E-16));
#904=DIRECTION('center_axis',(-1.,1.29685696487246E-33,0.));
#905=DIRECTION('ref_axis',(4.58508177045154E-34,0.353553390593269,-0.935414346693487));
#906=DIRECTION('center_axis',(-1.,1.29685696487246E-33,0.));
#907=DIRECTION('ref_axis',(-1.29685696487246E-33,-1.,2.01858731750028E-16));
#908=DIRECTION('center_axis',(-1.,1.29685696487246E-33,0.));
#909=DIRECTION('ref_axis',(-1.21309861055107E-33,-0.935414346693489,0.353553390593263));
#910=DIRECTION('',(2.61781902190345E-49,2.01858731750028E-16,1.));
#911=DIRECTION('center_axis',(-1.,1.29685696487246E-33,0.));
#912=DIRECTION('ref_axis',(-9.17016354090325E-34,-0.707106781186551,-0.707106781186544));
#913=DIRECTION('',(1.35888624264507E-13,-1.,2.01858731750028E-16));
#914=DIRECTION('center_axis',(-1.,1.29685696487246E-33,0.));
#915=DIRECTION('ref_axis',(9.17016354090327E-34,0.707106781186552,-0.707106781186543));
#916=DIRECTION('',(-7.74494749694083E-14,-9.20392144766969E-16,-1.));
#917=DIRECTION('center_axis',(-1.,1.29685696487246E-33,0.));
#918=DIRECTION('ref_axis',(9.17016354090311E-34,0.70710678118654,0.707106781186555));
#919=DIRECTION('',(1.35888624264507E-13,-1.,2.01858731750028E-16));
#920=DIRECTION('center_axis',(-1.,1.29685696487246E-33,0.));
#921=DIRECTION('ref_axis',(-9.17016354090329E-34,-0.707106781186554,0.707106781186541));
#922=DIRECTION('',(-2.61781902190345E-49,-2.01858731750028E-16,-1.));
#923=DIRECTION('center_axis',(1.,-1.29685696487246E-33,0.));
#924=DIRECTION('ref_axis',(-1.21309861055107E-33,-0.93541434669349,-0.353553390593263));
#925=DIRECTION('center_axis',(1.,-1.29685696487246E-33,0.));
#926=DIRECTION('ref_axis',(-1.29685696487246E-33,-1.,2.01858731750028E-16));
#927=DIRECTION('center_axis',(1.,-1.29685696487246E-33,0.));
#928=DIRECTION('ref_axis',(4.58508177045154E-34,0.353553390593269,0.935414346693487));
#929=DIRECTION('',(-1.29685696487246E-33,-1.,2.01858731750028E-16));
#930=DIRECTION('center_axis',(1.,-1.29685696487246E-33,0.));
#931=DIRECTION('ref_axis',(-4.58508177045153E-34,-0.353553390593268,0.935414346693487));
#932=DIRECTION('center_axis',(1.,-1.29685696487246E-33,0.));
#933=DIRECTION('ref_axis',(-1.29685696487246E-33,-1.,2.01858731750028E-16));
#934=DIRECTION('center_axis',(1.,-1.29685696487246E-33,0.));
#935=DIRECTION('ref_axis',(1.21309861055107E-33,0.93541434669349,-0.353553390593263));
#936=DIRECTION('',(2.61781902190345E-49,2.01858731750028E-16,1.));
#937=DIRECTION('',(0.,0.,1.));
#938=DIRECTION('center_axis',(-1.,1.29685696487246E-33,0.));
#939=DIRECTION('ref_axis',(-1.29685696487246E-33,-1.,6.12255344462401E-17));
#940=DIRECTION('',(0.,0.,-1.));
#941=DIRECTION('center_axis',(1.,-1.29685696487246E-33,0.));
#942=DIRECTION('ref_axis',(-1.29685696487246E-33,-1.,3.42491929053816E-16));
#943=DIRECTION('center_axis',(-2.61781902190345E-49,-2.01858731750028E-16,
-1.));
#944=DIRECTION('ref_axis',(1.35888624264507E-13,-1.,2.01858731750028E-16));
#945=DIRECTION('',(-1.29685696487246E-33,-1.,2.01858731750028E-16));
#946=DIRECTION('',(-1.,1.29685696487246E-33,0.));
#947=DIRECTION('center_axis',(1.,-1.29685696487246E-33,0.));
#948=DIRECTION('ref_axis',(-9.17016354090327E-34,-0.707106781186552,0.707106781186543));
#949=DIRECTION('center_axis',(1.,-1.29685696487246E-33,0.));
#950=DIRECTION('ref_axis',(-9.17016354090327E-34,-0.707106781186552,0.707106781186543));
#951=DIRECTION('',(1.,-1.29685696487246E-33,0.));
#952=DIRECTION('center_axis',(-1.,1.29685696487246E-33,0.));
#953=DIRECTION('ref_axis',(9.17016354090311E-34,0.70710678118654,0.707106781186555));
#954=DIRECTION('center_axis',(1.,-1.29685696487246E-33,0.));
#955=DIRECTION('ref_axis',(9.17016354090311E-34,0.70710678118654,0.707106781186555));
#956=DIRECTION('',(1.,-1.29685696487246E-33,0.));
#957=DIRECTION('',(-1.,1.29685696487246E-33,0.));
#958=DIRECTION('center_axis',(1.29685696487246E-33,1.,-9.20392144766969E-16));
#959=DIRECTION('ref_axis',(-7.74494749694083E-14,-9.20392144766969E-16,
-1.));
#960=DIRECTION('',(1.,-1.29685696487246E-33,0.));
#961=DIRECTION('',(-7.74494749694083E-14,-1.122250876517E-15,-1.));
#962=DIRECTION('center_axis',(1.,-1.29685696487246E-33,0.));
#963=DIRECTION('ref_axis',(-9.17016354090329E-34,-0.707106781186554,0.707106781186541));
#964=DIRECTION('',(-1.,1.29685696487246E-33,0.));
#965=DIRECTION('center_axis',(1.,-1.29685696487246E-33,0.));
#966=DIRECTION('ref_axis',(-9.17016354090329E-34,-0.707106781186554,0.707106781186541));
#967=DIRECTION('',(1.,-1.29685696487246E-33,0.));
#968=DIRECTION('center_axis',(1.29685696487246E-33,1.,-2.01858731750028E-16));
#969=DIRECTION('ref_axis',(-2.61781902190345E-49,-2.01858731750028E-16,
-1.));
#970=DIRECTION('',(-2.61781902190345E-49,-2.01858731750028E-16,-1.));
#971=DIRECTION('',(1.,-1.29685696487246E-33,0.));
#972=DIRECTION('center_axis',(-1.29685696487246E-33,-1.,2.82102680605243E-37));
#973=DIRECTION('ref_axis',(3.658468261521E-70,2.82102680605243E-37,1.));
#974=DIRECTION('',(2.61781902190345E-49,2.01858731750028E-16,1.));
#975=DIRECTION('',(-1.,1.29685696487246E-33,0.));
#976=DIRECTION('center_axis',(-1.29685696487246E-33,-1.,2.01858731750028E-16));
#977=DIRECTION('ref_axis',(2.61781902190345E-49,2.01858731750028E-16,1.));
#978=DIRECTION('',(-1.,1.29685696487246E-33,0.));
#979=DIRECTION('',(2.61781902190345E-49,2.01858731750028E-16,1.));
#980=DIRECTION('center_axis',(-2.61781902190345E-49,-2.01858731750028E-16,
-1.));
#981=DIRECTION('ref_axis',(1.35888624264507E-13,-1.,2.01858731750028E-16));
#982=DIRECTION('',(1.29685696487246E-33,1.,-2.01858731750028E-16));
#983=DIRECTION('center_axis',(1.,-1.29685696487246E-33,0.));
#984=DIRECTION('ref_axis',(9.17016354090325E-34,0.707106781186551,-0.707106781186544));
#985=DIRECTION('',(-1.,1.29685696487246E-33,0.));
#986=DIRECTION('center_axis',(1.,-1.29685696487246E-33,0.));
#987=DIRECTION('ref_axis',(9.17016354090325E-34,0.707106781186551,-0.707106781186544));
#988=DIRECTION('',(1.,-1.29685696487246E-33,0.));
#989=DIRECTION('center_axis',(-2.61781902190345E-49,-2.01858731750028E-16,
-1.));
#990=DIRECTION('ref_axis',(1.35888624264507E-13,-1.,2.01858731750028E-16));
#991=DIRECTION('',(1.,-1.29685696487246E-33,0.));
#992=DIRECTION('',(1.35888624264507E-13,-1.,2.01858731750028E-16));
#993=DIRECTION('center_axis',(-1.,1.29685696487246E-33,0.));
#994=DIRECTION('ref_axis',(-9.17016354090327E-34,-0.707106781186552,-0.707106781186543));
#995=DIRECTION('center_axis',(1.,-1.29685696487246E-33,0.));
#996=DIRECTION('ref_axis',(-9.17016354090327E-34,-0.707106781186552,-0.707106781186543));
#997=DIRECTION('center_axis',(-1.,1.29685696487246E-33,0.));
#998=DIRECTION('ref_axis',(9.17016354090327E-34,0.707106781186552,-0.707106781186543));
#999=DIRECTION('center_axis',(1.,-1.29685696487246E-33,0.));
#1000=DIRECTION('ref_axis',(9.17016354090327E-34,0.707106781186552,-0.707106781186543));
#1001=DIRECTION('',(-1.,1.29685696487246E-33,0.));
#1002=DIRECTION('center_axis',(-2.61781902190345E-49,-2.01858731750028E-16,
-1.));
#1003=DIRECTION('ref_axis',(1.35888624264507E-13,-1.,2.01858731750028E-16));
#1004=DIRECTION('',(1.,-1.29685696487246E-33,0.));
#1005=DIRECTION('',(1.35888624264507E-13,-1.,2.01858731750028E-16));
#1006=DIRECTION('center_axis',(-1.,1.29685696487246E-33,0.));
#1007=DIRECTION('ref_axis',(-9.17016354090325E-34,-0.707106781186551,-0.707106781186544));
#1008=DIRECTION('center_axis',(1.,-1.29685696487246E-33,0.));
#1009=DIRECTION('ref_axis',(-9.17016354090325E-34,-0.707106781186551,-0.707106781186544));
#1010=DIRECTION('',(-1.,1.29685696487246E-33,0.));
#1011=DIRECTION('center_axis',(-1.29685696487246E-33,-1.,2.01858731750028E-16));
#1012=DIRECTION('ref_axis',(2.61781902190345E-49,2.01858731750028E-16,1.));
#1013=DIRECTION('',(1.,-1.29685696487246E-33,0.));
#1014=DIRECTION('',(2.61781902190345E-49,2.01858731750028E-16,1.));
#1015=DIRECTION('center_axis',(1.29685696487246E-33,1.,-2.01858731750028E-16));
#1016=DIRECTION('ref_axis',(-2.61781902190345E-49,-2.01858731750028E-16,
-1.));
#1017=DIRECTION('',(-2.61781902190345E-49,-2.01858731750028E-16,-1.));
#1018=DIRECTION('',(-1.,1.29685696487246E-33,0.));
#1019=DIRECTION('center_axis',(-1.,1.29685696487246E-33,0.));
#1020=DIRECTION('ref_axis',(-1.29685696487246E-33,-1.,3.42491929053816E-16));
#1021=DIRECTION('center_axis',(-1.,1.29685696487246E-33,0.));
#1022=DIRECTION('ref_axis',(-1.29685696487246E-33,-1.,3.42491929053816E-16));
#1023=DIRECTION('',(1.,-1.29685696487246E-33,0.));
#1024=DIRECTION('',(1.,-1.29685696487246E-33,0.));
#1025=DIRECTION('center_axis',(1.,-1.29685696487246E-33,0.));
#1026=DIRECTION('ref_axis',(-1.29685696487246E-33,-1.,2.01858731750028E-16));
#1027=DIRECTION('',(-1.,1.29685696487246E-33,0.));
#1028=DIRECTION('',(1.,-1.29685696487246E-33,0.));
#1029=DIRECTION('center_axis',(1.,-1.29685696487246E-33,0.));
#1030=DIRECTION('ref_axis',(-1.29685696487246E-33,-1.,2.01858731750028E-16));
#1031=DIRECTION('center_axis',(1.,-1.29685696487246E-33,0.));
#1032=DIRECTION('ref_axis',(1.21309861055107E-33,0.93541434669349,0.353553390593263));
#1033=DIRECTION('center_axis',(1.,-1.29685696487246E-33,0.));
#1034=DIRECTION('ref_axis',(1.21309861055107E-33,0.93541434669349,0.353553390593263));
#1035=DIRECTION('center_axis',(-1.,1.29685696487246E-33,0.));
#1036=DIRECTION('ref_axis',(-4.58508177045154E-34,-0.353553390593269,-0.935414346693487));
#1037=DIRECTION('center_axis',(1.,-1.29685696487246E-33,0.));
#1038=DIRECTION('ref_axis',(-4.58508177045154E-34,-0.353553390593269,-0.935414346693487));
#1039=DIRECTION('',(1.,-1.29685696487246E-33,0.));
#1040=DIRECTION('center_axis',(-2.61781902190345E-49,-2.01858731750028E-16,
-1.));
#1041=DIRECTION('ref_axis',(-1.29685696487246E-33,-1.,2.01858731750028E-16));
#1042=DIRECTION('',(-1.,1.29685696487246E-33,0.));
#1043=DIRECTION('',(-1.29685696487246E-33,-1.,2.01858731750028E-16));
#1044=DIRECTION('center_axis',(1.,-1.29685696487246E-33,0.));
#1045=DIRECTION('ref_axis',(4.58508177045154E-34,0.353553390593269,-0.935414346693487));
#1046=DIRECTION('center_axis',(1.,-1.29685696487246E-33,0.));
#1047=DIRECTION('ref_axis',(4.58508177045154E-34,0.353553390593269,-0.935414346693487));
#1048=DIRECTION('',(1.,-1.29685696487246E-33,0.));
#1049=DIRECTION('center_axis',(1.,-1.29685696487246E-33,0.));
#1050=DIRECTION('ref_axis',(9.17016354090329E-34,0.707106781186554,0.707106781186541));
#1051=DIRECTION('',(-1.,1.29685696487246E-33,0.));
#1052=DIRECTION('center_axis',(1.,-1.29685696487246E-33,0.));
#1053=DIRECTION('ref_axis',(-1.29685696487246E-33,-1.,2.01858731750028E-16));
#1054=DIRECTION('center_axis',(-1.,1.29685696487246E-33,0.));
#1055=DIRECTION('ref_axis',(-1.21309861055107E-33,-0.935414346693489,0.353553390593263));
#1056=DIRECTION('center_axis',(1.,-1.29685696487246E-33,0.));
#1057=DIRECTION('ref_axis',(-1.21309861055107E-33,-0.935414346693489,0.353553390593263));
#1058=DIRECTION('center_axis',(-1.,1.29685696487246E-33,0.));
#1059=DIRECTION('ref_axis',(-1.29685696487246E-33,-1.,2.82102680605243E-37));
#1060=DIRECTION('center_axis',(-1.,1.29685696487246E-33,0.));
#1061=DIRECTION('ref_axis',(1.21309861055107E-33,0.93541434669349,-0.353553390593263));
#1062=DIRECTION('center_axis',(-1.,1.29685696487246E-33,0.));
#1063=DIRECTION('ref_axis',(-1.29685696487246E-33,-1.,2.01858731750028E-16));
#1064=DIRECTION('center_axis',(-1.,1.29685696487246E-33,0.));
#1065=DIRECTION('ref_axis',(-4.58508177045153E-34,-0.353553390593268,0.935414346693487));
#1066=DIRECTION('',(-1.29685696487246E-33,-1.,2.01858731750028E-16));
#1067=DIRECTION('center_axis',(-1.,1.29685696487246E-33,0.));
#1068=DIRECTION('ref_axis',(4.58508177045154E-34,0.353553390593269,0.935414346693487));
#1069=DIRECTION('center_axis',(-1.,1.29685696487246E-33,0.));
#1070=DIRECTION('ref_axis',(-1.29685696487246E-33,-1.,2.01858731750028E-16));
#1071=DIRECTION('center_axis',(-1.,1.29685696487246E-33,0.));
#1072=DIRECTION('ref_axis',(-1.21309861055107E-33,-0.93541434669349,-0.353553390593263));
#1073=DIRECTION('',(5.2356380438069E-49,4.03717463500056E-16,1.));
#1074=DIRECTION('',(0.,0.,1.));
#1075=DIRECTION('center_axis',(1.,-1.29685696487246E-33,0.));
#1076=DIRECTION('ref_axis',(-1.29685696487246E-33,-1.,6.12255344462401E-17));
#1077=DIRECTION('center_axis',(1.29685696487246E-33,1.,0.));
#1078=DIRECTION('ref_axis',(0.,0.,1.));
#1079=DIRECTION('',(1.,-1.29685696487246E-33,0.));
#1080=DIRECTION('center_axis',(-1.29685696487246E-33,-1.,0.));
#1081=DIRECTION('ref_axis',(0.,0.,-1.));
#1082=DIRECTION('',(1.,-1.29685696487246E-33,0.));
#1083=DIRECTION('center_axis',(1.,-1.29685696487246E-33,0.));
#1084=DIRECTION('ref_axis',(-1.29685696487246E-33,-1.,6.12255344462401E-17));
#1085=DIRECTION('center_axis',(-1.,1.29685696487246E-33,0.));
#1086=DIRECTION('ref_axis',(-1.29685696487246E-33,-1.,2.01858731750028E-16));
#1087=DIRECTION('',(-1.,1.29685696487246E-33,0.));
#1088=DIRECTION('',(1.,-1.29685696487246E-33,0.));
#1089=DIRECTION('center_axis',(-1.,1.29685696487246E-33,0.));
#1090=DIRECTION('ref_axis',(1.21309861055107E-33,0.93541434669349,-0.353553390593263));
#1091=DIRECTION('center_axis',(1.,-1.29685696487246E-33,0.));
#1092=DIRECTION('ref_axis',(-4.58508177045153E-34,-0.353553390593268,0.935414346693487));
#1093=DIRECTION('',(1.,-1.29685696487246E-33,0.));
#1094=DIRECTION('center_axis',(-2.61781902190345E-49,-2.01858731750028E-16,
-1.));
#1095=DIRECTION('ref_axis',(-1.29685696487246E-33,-1.,2.01858731750028E-16));
#1096=DIRECTION('',(-1.,1.29685696487246E-33,0.));
#1097=DIRECTION('center_axis',(-1.,1.29685696487246E-33,0.));
#1098=DIRECTION('ref_axis',(4.58508177045154E-34,0.353553390593269,0.935414346693487));
#1099=DIRECTION('',(1.,-1.29685696487246E-33,0.));
#1100=DIRECTION('center_axis',(-1.,1.29685696487246E-33,0.));
#1101=DIRECTION('ref_axis',(9.17016354090329E-34,0.707106781186554,-0.707106781186541));
#1102=DIRECTION('',(-1.,1.29685696487246E-33,0.));
#1103=DIRECTION('center_axis',(1.,-1.29685696487246E-33,0.));
#1104=DIRECTION('ref_axis',(-1.21309861055107E-33,-0.93541434669349,-0.353553390593263));
#1105=DIRECTION('',(8.32667268468867E-17,-1.57772181044204E-30,-1.));
#1106=DIRECTION('',(-1.,6.34786509670031E-31,-8.32667268468867E-17));
#1107=DIRECTION('',(0.,0.,1.));
#1108=DIRECTION('',(1.,0.,0.));
#1109=DIRECTION('',(0.,0.,1.));
#1110=DIRECTION('',(1.,0.,0.));
#1111=DIRECTION('',(-1.27345531304144E-18,-5.80721936902099E-18,1.));
#1112=DIRECTION('',(1.,-7.39523435947694E-36,1.27345531304144E-18));
#1113=DIRECTION('',(0.,0.,1.));
#1114=DIRECTION('',(1.,0.,0.));
#1115=CARTESIAN_POINT('',(0.,0.,0.));
#1116=CARTESIAN_POINT('',(0.,0.,0.));
#1117=CARTESIAN_POINT('',(0.,0.,0.));
#1118=CARTESIAN_POINT('',(0.,0.,0.));
#1119=CARTESIAN_POINT('',(0.,0.,0.));
#1120=CARTESIAN_POINT('',(0.,0.,0.));
#1121=CARTESIAN_POINT('Origin',(91.4999999999978,132.449999999989,12.7));
#1122=CARTESIAN_POINT('',(86.4999999999976,132.949999999989,12.7));
#1123=CARTESIAN_POINT('',(86.4999999999976,132.449999999989,13.2));
#1124=CARTESIAN_POINT('Origin',(86.4999999999976,132.449999999989,12.7));
#1125=CARTESIAN_POINT('',(91.499999999998,132.449999999989,13.2));
#1126=CARTESIAN_POINT('',(91.4999999999978,132.449999999989,13.2));
#1127=CARTESIAN_POINT('',(91.4999999999976,132.949999999989,12.7));
#1128=CARTESIAN_POINT('Origin',(91.4999999999976,132.449999999989,12.7));
#1129=CARTESIAN_POINT('',(91.4999999999978,132.949999999989,12.7));
#1130=CARTESIAN_POINT('Origin',(91.4999999999976,136.999999999983,2.22044604925031E-15));
#1131=CARTESIAN_POINT('',(91.4999999999982,130.999999999977,13.2));
#1132=CARTESIAN_POINT('',(91.4999999999969,140.999999999977,13.2));
#1133=CARTESIAN_POINT('',(91.4999999999984,129.999999999977,12.2));
#1134=CARTESIAN_POINT('Origin',(91.4999999999976,130.999999999977,12.2));
#1135=CARTESIAN_POINT('',(91.4999999999984,129.999999999977,-13.5));
#1136=CARTESIAN_POINT('',(91.4999999999984,129.999999999977,-9.79999999999998));
#1137=CARTESIAN_POINT('',(91.4999999999982,130.999999999977,-14.5));
#1138=CARTESIAN_POINT('Origin',(91.4999999999976,130.999999999977,-13.5));
#1139=CARTESIAN_POINT('',(91.499999999998,132.449999999989,-14.5));
#1140=CARTESIAN_POINT('',(91.4999999999969,140.999999999977,-14.5));
#1141=CARTESIAN_POINT('',(91.4999999999976,132.949999999989,-14.));
#1142=CARTESIAN_POINT('Origin',(91.4999999999976,132.449999999989,-14.));
#1143=CARTESIAN_POINT('',(91.4999999999976,132.949999999989,-12.7114378277661));
#1144=CARTESIAN_POINT('',(91.4999999999976,132.949999999989,-10.));
#1145=CARTESIAN_POINT('',(91.4999999999976,132.824999999989,-12.3807189138831));
#1146=CARTESIAN_POINT('Origin',(91.4999999999976,132.449999999989,-12.7114378277661));
#1147=CARTESIAN_POINT('',(91.4999999999976,133.530718913872,-11.675));
#1148=CARTESIAN_POINT('Origin',(91.4999999999976,133.199999999989,-12.05));
#1149=CARTESIAN_POINT('',(91.4999999999976,133.861437827755,-11.8));
#1150=CARTESIAN_POINT('Origin',(91.4999999999976,133.861437827755,-11.3));
#1151=CARTESIAN_POINT('',(91.4999999999976,137.138562172223,-11.8));
#1152=CARTESIAN_POINT('',(91.4999999999976,137.999999999989,-11.8));
#1153=CARTESIAN_POINT('',(91.4999999999976,137.469281086106,-11.675));
#1154=CARTESIAN_POINT('Origin',(91.4999999999976,137.138562172223,-11.3));
#1155=CARTESIAN_POINT('',(91.4999999999976,138.174999999989,-12.3807189138831));
#1156=CARTESIAN_POINT('Origin',(91.4999999999976,137.799999999989,-12.05));
#1157=CARTESIAN_POINT('',(91.4999999999976,138.049999999989,-12.7114378277661));
#1158=CARTESIAN_POINT('Origin',(91.4999999999976,138.549999999989,-12.7114378277661));
#1159=CARTESIAN_POINT('',(91.4999999999976,138.049999999989,-14.));
#1160=CARTESIAN_POINT('',(91.4999999999976,138.049999999989,-14.6));
#1161=CARTESIAN_POINT('',(91.4999999999972,138.549999999989,-14.5));
#1162=CARTESIAN_POINT('Origin',(91.4999999999976,138.549999999989,-14.));
#1163=CARTESIAN_POINT('',(91.4999999999967,142.499999999977,-14.5));
#1164=CARTESIAN_POINT('',(91.4999999999969,140.999999999977,-14.5));
#1165=CARTESIAN_POINT('',(91.4999999999966,143.499999999977,-13.5));
#1166=CARTESIAN_POINT('Origin',(91.4999999999976,142.499999999977,-13.5));
#1167=CARTESIAN_POINT('',(91.4999999999986,143.499999999977,12.2));
#1168=CARTESIAN_POINT('',(91.4999999999984,143.499999999977,9.50000000000002));
#1169=CARTESIAN_POINT('',(91.4999999999967,142.499999999977,13.2));
#1170=CARTESIAN_POINT('Origin',(91.4999999999976,142.499999999977,12.2));
#1171=CARTESIAN_POINT('',(91.4999999999972,138.549999999989,13.2));
#1172=CARTESIAN_POINT('',(91.4999999999969,140.999999999977,13.2));
#1173=CARTESIAN_POINT('',(91.4999999999976,138.049999999989,12.7));
#1174=CARTESIAN_POINT('Origin',(91.4999999999976,138.549999999989,12.7));
#1175=CARTESIAN_POINT('',(91.4999999999976,138.049999999989,11.4114378277661));
#1176=CARTESIAN_POINT('',(91.4999999999976,138.049999999989,13.3));
#1177=CARTESIAN_POINT('',(91.4999999999976,138.174999999989,11.0807189138831));
#1178=CARTESIAN_POINT('Origin',(91.4999999999976,138.549999999989,11.4114378277661));
#1179=CARTESIAN_POINT('',(91.4999999999976,137.469281086106,10.375));
#1180=CARTESIAN_POINT('Origin',(91.4999999999976,137.799999999989,10.75));
#1181=CARTESIAN_POINT('',(91.4999999999976,137.138562172223,10.5));
#1182=CARTESIAN_POINT('Origin',(91.4999999999976,137.138562172223,10.));
#1183=CARTESIAN_POINT('',(91.4999999999976,133.861437827755,10.5));
#1184=CARTESIAN_POINT('',(91.4999999999976,137.999999999989,10.5));
#1185=CARTESIAN_POINT('',(91.4999999999976,133.530718913872,10.375));
#1186=CARTESIAN_POINT('Origin',(91.4999999999976,133.861437827755,10.));
#1187=CARTESIAN_POINT('',(91.4999999999976,132.824999999989,11.0807189138831));
#1188=CARTESIAN_POINT('Origin',(91.4999999999976,133.199999999989,10.75));
#1189=CARTESIAN_POINT('',(91.4999999999976,132.949999999989,11.4114378277661));
#1190=CARTESIAN_POINT('Origin',(91.4999999999976,132.449999999989,11.4114378277661));
#1191=CARTESIAN_POINT('',(91.4999999999976,132.949999999989,8.70000000000001));
#1192=CARTESIAN_POINT('',(91.4999999999976,132.949999999977,-1.15));
#1193=CARTESIAN_POINT('',(91.4999999999976,132.949999999977,-0.15));
#1194=CARTESIAN_POINT('',(91.4999999999976,132.949999999977,-0.224999999999999));
#1195=CARTESIAN_POINT('',(91.4999999999976,138.049999999977,-0.15));
#1196=CARTESIAN_POINT('Origin',(91.4999999999976,135.499999999977,-0.15));
#1197=CARTESIAN_POINT('',(91.4999999999976,138.049999999977,-1.15));
#1198=CARTESIAN_POINT('',(91.4999999999976,138.049999999977,-0.374999999999999));
#1199=CARTESIAN_POINT('Origin',(91.4999999999976,135.499999999977,-1.15));
#1200=CARTESIAN_POINT('Origin',(91.499999999998,132.699999999989,13.2));
#1201=CARTESIAN_POINT('',(86.4999999999976,130.999999999977,13.2));
#1202=CARTESIAN_POINT('',(86.4999999999976,134.849999999986,13.2));
#1203=CARTESIAN_POINT('',(91.4999999999982,130.999999999977,13.2));
#1204=CARTESIAN_POINT('Origin',(91.4999999999982,130.999999999977,12.2));
#1205=CARTESIAN_POINT('',(86.4999999999984,129.999999999977,12.2));
#1206=CARTESIAN_POINT('Origin',(86.4999999999976,130.999999999977,12.2));
#1207=CARTESIAN_POINT('',(91.4999999999982,129.999999999977,12.2));
#1208=CARTESIAN_POINT('Origin',(91.4999999999982,142.499999999977,12.2));
#1209=CARTESIAN_POINT('',(86.4999999999986,143.499999999977,12.2));
#1210=CARTESIAN_POINT('',(86.4999999999976,142.499999999977,13.2));
#1211=CARTESIAN_POINT('Origin',(86.4999999999976,142.499999999977,12.2));
#1212=CARTESIAN_POINT('',(91.4999999999982,142.499999999977,13.2));
#1213=CARTESIAN_POINT('',(91.4999999999982,143.499999999977,12.2));
#1214=CARTESIAN_POINT('Origin',(91.4999999999984,143.499999999977,9.50000000000002));
#1215=CARTESIAN_POINT('',(86.4999999999966,143.499999999977,-13.5));
#1216=CARTESIAN_POINT('',(91.4999999999982,143.499999999977,-13.5));
#1217=CARTESIAN_POINT('',(86.4999999999984,143.499999999977,9.40000000000002));
#1218=CARTESIAN_POINT('Origin',(91.4999999999978,138.549999999989,12.7));
#1219=CARTESIAN_POINT('',(86.4999999999976,138.549999999989,13.2));
#1220=CARTESIAN_POINT('',(91.4999999999978,138.549999999989,13.2));
#1221=CARTESIAN_POINT('',(86.4999999999976,138.049999999989,12.7));
#1222=CARTESIAN_POINT('Origin',(86.4999999999976,138.549999999989,12.7));
#1223=CARTESIAN_POINT('',(91.4999999999978,138.049999999989,12.7));
#1224=CARTESIAN_POINT('Origin',(91.4999999999976,138.049999999989,13.3));
#1225=CARTESIAN_POINT('',(86.4999999999976,138.049999999989,11.4114378277661));
#1226=CARTESIAN_POINT('',(86.4999999999976,138.049999999989,13.3));
#1227=CARTESIAN_POINT('',(90.9999999999976,138.049999999989,11.4114378277661));
#1228=CARTESIAN_POINT('Origin',(91.4999999999984,129.999999999977,-9.79999999999998));
#1229=CARTESIAN_POINT('',(86.4999999999984,129.999999999977,-13.5));
#1230=CARTESIAN_POINT('',(86.4999999999984,129.999999999977,-9.89999999999998));
#1231=CARTESIAN_POINT('',(91.4999999999982,129.999999999977,-13.5));
#1232=CARTESIAN_POINT('Origin',(91.4999999999976,132.949999999989,8.70000000000001));
#1233=CARTESIAN_POINT('',(86.4999999999976,132.949999999989,11.4114378277661));
#1234=CARTESIAN_POINT('',(90.9999999999976,132.949999999989,11.4114378277661));
#1235=CARTESIAN_POINT('',(86.4999999999976,132.949999999989,8.70000000000001));
#1236=CARTESIAN_POINT('Origin',(91.499999999998,132.699999999989,13.2));
#1237=CARTESIAN_POINT('',(86.4999999999976,134.849999999986,13.2));
#1238=CARTESIAN_POINT('Origin',(91.4999999999978,132.449999999989,-14.));
#1239=CARTESIAN_POINT('',(86.499999999998,132.449999999989,-14.5));
#1240=CARTESIAN_POINT('',(91.4999999999978,132.449999999989,-14.5));
#1241=CARTESIAN_POINT('',(86.4999999999976,132.949999999989,-14.));
#1242=CARTESIAN_POINT('Origin',(86.4999999999976,132.449999999989,-14.));
#1243=CARTESIAN_POINT('',(91.4999999999978,132.949999999989,-14.));
#1244=CARTESIAN_POINT('Origin',(91.499999999998,132.699999999989,-14.5));
#1245=CARTESIAN_POINT('',(86.4999999999982,130.999999999977,-14.5));
#1246=CARTESIAN_POINT('',(91.4999999999982,130.999999999977,-14.5));
#1247=CARTESIAN_POINT('',(86.4999999999969,140.999999999977,-14.5));
#1248=CARTESIAN_POINT('Origin',(91.4999999999982,130.999999999977,-13.5));
#1249=CARTESIAN_POINT('Origin',(86.4999999999976,130.999999999977,-13.5));
#1250=CARTESIAN_POINT('Origin',(91.4999999999982,142.499999999977,-13.5));
#1251=CARTESIAN_POINT('',(86.4999999999967,142.499999999977,-14.5));
#1252=CARTESIAN_POINT('Origin',(86.4999999999976,142.499999999977,-13.5));
#1253=CARTESIAN_POINT('',(91.4999999999982,142.499999999977,-14.5));
#1254=CARTESIAN_POINT('Origin',(91.499999999998,132.699999999989,-14.5));
#1255=CARTESIAN_POINT('',(86.4999999999972,138.549999999989,-14.5));
#1256=CARTESIAN_POINT('',(91.4999999999978,138.549999999989,-14.5));
#1257=CARTESIAN_POINT('',(86.4999999999969,140.999999999977,-14.5));
#1258=CARTESIAN_POINT('Origin',(91.4999999999978,138.549999999989,-14.));
#1259=CARTESIAN_POINT('',(86.4999999999976,138.049999999989,-14.));
#1260=CARTESIAN_POINT('Origin',(86.4999999999976,138.549999999989,-14.));
#1261=CARTESIAN_POINT('',(91.4999999999978,138.049999999989,-14.));
#1262=CARTESIAN_POINT('Origin',(91.4999999999976,138.049999999989,-14.6));
#1263=CARTESIAN_POINT('',(86.4999999999976,138.049999999989,-12.7114378277661));
#1264=CARTESIAN_POINT('',(90.9999999999976,138.049999999989,-12.7114378277661));
#1265=CARTESIAN_POINT('',(86.4999999999976,138.049999999989,-14.6));
#1266=CARTESIAN_POINT('Origin',(91.4999999999976,132.949999999989,-10.));
#1267=CARTESIAN_POINT('',(86.4999999999976,132.949999999989,-12.7114378277661));
#1268=CARTESIAN_POINT('',(86.4999999999976,132.949999999989,-10.));
#1269=CARTESIAN_POINT('',(90.9999999999976,132.949999999989,-12.7114378277661));
#1270=CARTESIAN_POINT('Origin',(86.4999999999976,135.499999999977,-1.15));
#1271=CARTESIAN_POINT('',(86.4999999999976,138.049999999977,-1.15));
#1272=CARTESIAN_POINT('',(86.4999999999976,132.949999999977,-1.15));
#1273=CARTESIAN_POINT('Origin',(86.4999999999976,135.499999999977,-1.15));
#1274=CARTESIAN_POINT('',(86.4999999999976,132.949999999977,-1.15));
#1275=CARTESIAN_POINT('',(86.4999999999976,138.049999999977,-1.15));
#1276=CARTESIAN_POINT('Origin',(90.9999999999976,133.199999999989,-12.05));
#1277=CARTESIAN_POINT('',(86.4999999999976,133.530718913872,-11.675));
#1278=CARTESIAN_POINT('',(90.9999999999976,133.530718913872,-11.675));
#1279=CARTESIAN_POINT('',(86.4999999999976,132.824999999989,-12.3807189138831));
#1280=CARTESIAN_POINT('',(90.9999999999976,132.824999999989,-12.3807189138831));
#1281=CARTESIAN_POINT('Origin',(86.4999999999976,133.199999999989,-12.05));
#1282=CARTESIAN_POINT('Origin',(90.9999999999976,132.449999999989,-12.7114378277661));
#1283=CARTESIAN_POINT('Origin',(86.4999999999976,132.449999999989,-12.7114378277661));
#1284=CARTESIAN_POINT('Origin',(90.9999999999976,133.861437827755,-11.3));
#1285=CARTESIAN_POINT('',(86.4999999999976,133.861437827755,-11.8));
#1286=CARTESIAN_POINT('Origin',(86.4999999999976,133.861437827755,-11.3));
#1287=CARTESIAN_POINT('',(90.9999999999976,133.861437827755,-11.8));
#1288=CARTESIAN_POINT('Origin',(91.4999999999976,137.999999999989,-11.8));
#1289=CARTESIAN_POINT('',(86.4999999999976,137.138562172223,-11.8));
#1290=CARTESIAN_POINT('',(90.9999999999976,137.138562172223,-11.8));
#1291=CARTESIAN_POINT('',(86.4999999999976,137.999999999989,-11.8));
#1292=CARTESIAN_POINT('Origin',(90.9999999999976,137.138562172223,-11.3));
#1293=CARTESIAN_POINT('',(86.4999999999976,137.469281086106,-11.675));
#1294=CARTESIAN_POINT('Origin',(86.4999999999976,137.138562172223,-11.3));
#1295=CARTESIAN_POINT('',(90.9999999999976,137.469281086106,-11.675));
#1296=CARTESIAN_POINT('Origin',(90.9999999999976,137.799999999989,-12.05));
#1297=CARTESIAN_POINT('',(86.4999999999976,138.174999999989,-12.3807189138831));
#1298=CARTESIAN_POINT('',(90.9999999999976,138.174999999989,-12.3807189138831));
#1299=CARTESIAN_POINT('Origin',(86.4999999999976,137.799999999989,-12.05));
#1300=CARTESIAN_POINT('Origin',(90.9999999999976,138.549999999989,-12.7114378277661));
#1301=CARTESIAN_POINT('Origin',(86.4999999999976,138.549999999989,-12.7114378277661));
#1302=CARTESIAN_POINT('Origin',(86.4999999999976,136.999999999983,2.22044604925031E-15));
#1303=CARTESIAN_POINT('',(86.4999999999976,132.824999999989,11.0807189138831));
#1304=CARTESIAN_POINT('Origin',(86.4999999999976,132.449999999989,11.4114378277661));
#1305=CARTESIAN_POINT('',(86.4999999999976,133.530718913872,10.375));
#1306=CARTESIAN_POINT('Origin',(86.4999999999976,133.199999999989,10.75));
#1307=CARTESIAN_POINT('',(86.4999999999976,133.861437827755,10.5));
#1308=CARTESIAN_POINT('Origin',(86.4999999999976,133.861437827755,10.));
#1309=CARTESIAN_POINT('',(86.4999999999976,137.138562172223,10.5));
#1310=CARTESIAN_POINT('',(86.4999999999976,137.999999999989,10.5));
#1311=CARTESIAN_POINT('',(86.4999999999976,137.469281086106,10.375));
#1312=CARTESIAN_POINT('Origin',(86.4999999999976,137.138562172223,10.));
#1313=CARTESIAN_POINT('',(86.4999999999976,138.174999999989,11.0807189138831));
#1314=CARTESIAN_POINT('Origin',(86.4999999999976,137.799999999989,10.75));
#1315=CARTESIAN_POINT('Origin',(86.4999999999976,138.549999999989,11.4114378277661));
#1316=CARTESIAN_POINT('',(86.4999999999976,132.949999999977,-0.15));
#1317=CARTESIAN_POINT('',(86.4999999999976,132.949999999977,-1.075));
#1318=CARTESIAN_POINT('',(86.4999999999976,138.049999999977,-0.15));
#1319=CARTESIAN_POINT('',(86.4999999999976,138.049999999977,-0.374999999999999));
#1320=CARTESIAN_POINT('Origin',(86.4999999999976,135.499999999977,-0.15));
#1321=CARTESIAN_POINT('Origin',(86.4999999999976,138.049999999977,-0.45));
#1322=CARTESIAN_POINT('',(86.4999999999976,138.049999999977,-0.15));
#1323=CARTESIAN_POINT('Origin',(86.4999999999976,132.949999999977,-0.15));
#1324=CARTESIAN_POINT('',(86.4999999999976,132.949999999977,-0.15));
#1325=CARTESIAN_POINT('Origin',(86.4999999999976,135.499999999977,-0.15));
#1326=CARTESIAN_POINT('Origin',(90.9999999999976,133.199999999989,10.75));
#1327=CARTESIAN_POINT('',(90.9999999999976,133.530718913872,10.375));
#1328=CARTESIAN_POINT('',(90.9999999999976,132.824999999989,11.0807189138831));
#1329=CARTESIAN_POINT('Origin',(90.9999999999976,132.449999999989,11.4114378277661));
#1330=CARTESIAN_POINT('Origin',(90.9999999999976,133.861437827755,10.));
#1331=CARTESIAN_POINT('',(90.9999999999976,133.861437827755,10.5));
#1332=CARTESIAN_POINT('Origin',(91.4999999999976,137.999999999989,10.5));
#1333=CARTESIAN_POINT('',(90.9999999999976,137.138562172223,10.5));
#1334=CARTESIAN_POINT('Origin',(90.9999999999976,137.138562172223,10.));
#1335=CARTESIAN_POINT('',(90.9999999999976,137.469281086106,10.375));
#1336=CARTESIAN_POINT('Origin',(90.9999999999976,137.799999999989,10.75));
#1337=CARTESIAN_POINT('',(90.9999999999976,138.174999999989,11.0807189138831));
#1338=CARTESIAN_POINT('Origin',(90.9999999999976,138.549999999989,11.4114378277661));
#1339=CARTESIAN_POINT('',(-7.105427357601E-14,45.,-7.28583859910267E-16));
#1340=CARTESIAN_POINT('',(0.,0.,0.));
#1341=CARTESIAN_POINT('',(0.,450.,600.));
#1342=CARTESIAN_POINT('',(-131.999719137405,-286.5,94.9999680325012));
#1343=CARTESIAN_POINT('',(0.,0.,0.));
#1344=UNCERTAINTY_MEASURE_WITH_UNIT(LENGTH_MEASURE(0.01),#1358,
'DISTANCE_ACCURACY_VALUE',
'Maximum model space distance between geometric entities at asserted c
onnectivities');
#1345=UNCERTAINTY_MEASURE_WITH_UNIT(LENGTH_MEASURE(0.01),#1358,
'DISTANCE_ACCURACY_VALUE',
'Maximum model space distance between geometric entities at asserted c
onnectivities');
#1346=UNCERTAINTY_MEASURE_WITH_UNIT(LENGTH_MEASURE(0.01),#1358,
'DISTANCE_ACCURACY_VALUE',
'Maximum model space distance between geometric entities at asserted c
onnectivities');
#1347=UNCERTAINTY_MEASURE_WITH_UNIT(LENGTH_MEASURE(0.01),#1358,
'DISTANCE_ACCURACY_VALUE',
'Maximum model space distance between geometric entities at asserted c
onnectivities');
#1348=UNCERTAINTY_MEASURE_WITH_UNIT(LENGTH_MEASURE(0.01),#1358,
'DISTANCE_ACCURACY_VALUE',
'Maximum model space distance between geometric entities at asserted c
onnectivities');
#1349=UNCERTAINTY_MEASURE_WITH_UNIT(LENGTH_MEASURE(0.01),#1358,
'DISTANCE_ACCURACY_VALUE',
'Maximum model space distance between geometric entities at asserted c
onnectivities');
#1350=UNCERTAINTY_MEASURE_WITH_UNIT(LENGTH_MEASURE(0.01),#1358,
'DISTANCE_ACCURACY_VALUE',
'Maximum model space distance between geometric entities at asserted c
onnectivities');
#1351=(
GEOMETRIC_REPRESENTATION_CONTEXT(3)
GLOBAL_UNCERTAINTY_ASSIGNED_CONTEXT((#1344))
GLOBAL_UNIT_ASSIGNED_CONTEXT((#1358,#1360,#1361))
REPRESENTATION_CONTEXT('','3D')
);
#1352=(
GEOMETRIC_REPRESENTATION_CONTEXT(3)
GLOBAL_UNCERTAINTY_ASSIGNED_CONTEXT((#1345))
GLOBAL_UNIT_ASSIGNED_CONTEXT((#1358,#1360,#1361))
REPRESENTATION_CONTEXT('','3D')
);
#1353=(
GEOMETRIC_REPRESENTATION_CONTEXT(3)
GLOBAL_UNCERTAINTY_ASSIGNED_CONTEXT((#1346))
GLOBAL_UNIT_ASSIGNED_CONTEXT((#1358,#1360,#1361))
REPRESENTATION_CONTEXT('','3D')
);
#1354=(
GEOMETRIC_REPRESENTATION_CONTEXT(3)
GLOBAL_UNCERTAINTY_ASSIGNED_CONTEXT((#1347))
GLOBAL_UNIT_ASSIGNED_CONTEXT((#1358,#1360,#1361))
REPRESENTATION_CONTEXT('','3D')
);
#1355=(
GEOMETRIC_REPRESENTATION_CONTEXT(3)
GLOBAL_UNCERTAINTY_ASSIGNED_CONTEXT((#1348))
GLOBAL_UNIT_ASSIGNED_CONTEXT((#1358,#1360,#1361))
REPRESENTATION_CONTEXT('','3D')
);
#1356=(
GEOMETRIC_REPRESENTATION_CONTEXT(3)
GLOBAL_UNCERTAINTY_ASSIGNED_CONTEXT((#1349))
GLOBAL_UNIT_ASSIGNED_CONTEXT((#1358,#1360,#1361))
REPRESENTATION_CONTEXT('','3D')
);
#1357=(
GEOMETRIC_REPRESENTATION_CONTEXT(3)
GLOBAL_UNCERTAINTY_ASSIGNED_CONTEXT((#1350))
GLOBAL_UNIT_ASSIGNED_CONTEXT((#1358,#1360,#1361))
REPRESENTATION_CONTEXT('','3D')
);
#1358=(
LENGTH_UNIT()
NAMED_UNIT(*)
SI_UNIT(.MILLI.,.METRE.)
);
#1359=(
LENGTH_UNIT()
NAMED_UNIT(*)
SI_UNIT($,.METRE.)
);
#1360=(
NAMED_UNIT(*)
PLANE_ANGLE_UNIT()
SI_UNIT($,.RADIAN.)
);
#1361=(
NAMED_UNIT(*)
SI_UNIT($,.STERADIAN.)
SOLID_ANGLE_UNIT()
);
#1362=SHAPE_DEFINITION_REPRESENTATION(#1368,#1379);
#1363=SHAPE_DEFINITION_REPRESENTATION(#1369,#1380);
#1364=SHAPE_DEFINITION_REPRESENTATION(#1370,#1381);
#1365=SHAPE_DEFINITION_REPRESENTATION(#1371,#1382);
#1366=SHAPE_DEFINITION_REPRESENTATION(#1372,#1383);
#1367=SHAPE_DEFINITION_REPRESENTATION(#1373,#1384);
#1368=PRODUCT_DEFINITION_SHAPE('',$,#1386);
#1369=PRODUCT_DEFINITION_SHAPE('',$,#1387);
#1370=PRODUCT_DEFINITION_SHAPE('',$,#1388);
#1371=PRODUCT_DEFINITION_SHAPE('',$,#1389);
#1372=PRODUCT_DEFINITION_SHAPE('',$,#1390);
#1373=PRODUCT_DEFINITION_SHAPE('',$,#1391);
#1374=PRODUCT_DEFINITION_SHAPE($,$,#26);
#1375=PRODUCT_DEFINITION_SHAPE($,$,#27);
#1376=PRODUCT_DEFINITION_SHAPE($,$,#28);
#1377=PRODUCT_DEFINITION_SHAPE($,$,#29);
#1378=PRODUCT_DEFINITION_SHAPE($,$,#30);
#1379=SHAPE_REPRESENTATION('',(#772,#864),#1351);
#1380=SHAPE_REPRESENTATION('',(#773,#863),#1352);
#1381=SHAPE_REPRESENTATION('',(#774,#862),#1353);
#1382=SHAPE_REPRESENTATION('',(#775,#861),#1354);
#1383=SHAPE_REPRESENTATION('',(#776,#860),#1355);
#1384=SHAPE_REPRESENTATION('',(#777),#1356);
#1385=PRODUCT_DEFINITION_CONTEXT('part definition',#1405,'design');
#1386=PRODUCT_DEFINITION('2026-08-09-21-43-37-793','(Unsaved)',#1392,#1385);
#1387=PRODUCT_DEFINITION('2026-08-14-10-18-47-270',
'3030 Rear Motor Assemblies',#1393,#1385);
#1388=PRODUCT_DEFINITION('2026-08-14-10-18-47-280',
'3030 Left Rear Motor Assemblies.stp',#1394,#1385);
#1389=PRODUCT_DEFINITION('2026-08-14-10-18-47-280_1',
'_31_Sheet_metal_VT_9mm_rear_motor_mounts_FT_0',#1395,#1385);
#1390=PRODUCT_DEFINITION('2026-08-14-10-18-47-280_2',
'_Sheet_metal_VT_9mm_rear_left_motor_mount (1)',#1396,#1385);
#1391=PRODUCT_DEFINITION('2026-08-14-10-18-47-278_1',
'Sheet_metal_9mm_tensioner_c_4.7-5mm (1) (1)',#1397,#1385);
#1392=PRODUCT_DEFINITION_FORMATION('',$,#1407);
#1393=PRODUCT_DEFINITION_FORMATION('',$,#1408);
#1394=PRODUCT_DEFINITION_FORMATION('',$,#1409);
#1395=PRODUCT_DEFINITION_FORMATION('',$,#1410);
#1396=PRODUCT_DEFINITION_FORMATION('',$,#1411);
#1397=PRODUCT_DEFINITION_FORMATION('',$,#1412);
#1398=PRODUCT_RELATED_PRODUCT_CATEGORY('(Unsaved)','(Unsaved)',(#1407));
#1399=PRODUCT_RELATED_PRODUCT_CATEGORY('3030 Rear Motor Assemblies',
'3030 Rear Motor Assemblies',(#1408));
#1400=PRODUCT_RELATED_PRODUCT_CATEGORY(
'3030 Left Rear Motor Assemblies.stp',
'3030 Left Rear Motor Assemblies.stp',(#1409));
#1401=PRODUCT_RELATED_PRODUCT_CATEGORY(
'_31_Sheet_metal_VT_9mm_rear_motor_mounts_FT_0',
'_31_Sheet_metal_VT_9mm_rear_motor_mounts_FT_0',(#1410));
#1402=PRODUCT_RELATED_PRODUCT_CATEGORY(
'_Sheet_metal_VT_9mm_rear_left_motor_mount (1)',
'_Sheet_metal_VT_9mm_rear_left_motor_mount (1)',(#1411));
#1403=PRODUCT_RELATED_PRODUCT_CATEGORY(
'Sheet_metal_9mm_tensioner_c_4.7-5mm (1) (1)',
'Sheet_metal_9mm_tensioner_c_4.7-5mm (1) (1)',(#1412));
#1404=APPLICATION_PROTOCOL_DEFINITION('international standard',
'automotive_design',2009,#1405);
#1405=APPLICATION_CONTEXT(
'Core Data for Automotive Mechanical Design Process');
#1406=PRODUCT_CONTEXT('part definition',#1405,'mechanical');
#1407=PRODUCT('2026-08-09-21-43-37-793','(Unsaved)',$,(#1406));
#1408=PRODUCT('2026-08-14-10-18-47-270','3030 Rear Motor Assemblies',$,
(#1406));
#1409=PRODUCT('2026-08-14-10-18-47-280',
'3030 Left Rear Motor Assemblies.stp',$,(#1406));
#1410=PRODUCT('2026-08-14-10-18-47-280_1',
'_31_Sheet_metal_VT_9mm_rear_motor_mounts_FT_0',$,(#1406));
#1411=PRODUCT('2026-08-14-10-18-47-280_2',
'_Sheet_metal_VT_9mm_rear_left_motor_mount (1)',$,(#1406));
#1412=PRODUCT('2026-08-14-10-18-47-278_1',
'Sheet_metal_9mm_tensioner_c_4.7-5mm (1) (1)',$,(#1406));
#1413=PRESENTATION_STYLE_ASSIGNMENT((#1416));
#1414=PRESENTATION_STYLE_ASSIGNMENT((#1417));
#1415=PRESENTATION_STYLE_ASSIGNMENT((#1418));
#1416=SURFACE_STYLE_USAGE(.BOTH.,#1419);
#1417=SURFACE_STYLE_USAGE(.BOTH.,#1420);
#1418=SURFACE_STYLE_USAGE(.BOTH.,#1421);
#1419=SURFACE_SIDE_STYLE('',(#1422));
#1420=SURFACE_SIDE_STYLE('',(#1423));
#1421=SURFACE_SIDE_STYLE('',(#1424));
#1422=SURFACE_STYLE_FILL_AREA(#1425);
#1423=SURFACE_STYLE_FILL_AREA(#1426);
#1424=SURFACE_STYLE_FILL_AREA(#1427);
#1425=FILL_AREA_STYLE('Steel - Satin',(#1428));
#1426=FILL_AREA_STYLE('Opaque(137,137,137)',(#1429));
#1427=FILL_AREA_STYLE('Opaque(245,245,246)',(#1430));
#1428=FILL_AREA_STYLE_COLOUR('Steel - Satin',#1431);
#1429=FILL_AREA_STYLE_COLOUR('Opaque(137,137,137)',#1432);
#1430=FILL_AREA_STYLE_COLOUR('Opaque(245,245,246)',#1433);
#1431=COLOUR_RGB('Steel - Satin',0.627450980392157,0.627450980392157,0.627450980392157);
#1432=COLOUR_RGB('Opaque(137,137,137)',0.537254901960784,0.537254901960784,
0.537254901960784);
#1433=COLOUR_RGB('Opaque(245,245,246)',0.96078431372549,0.96078431372549,
0.964705882352941);
ENDSEC;
END-ISO-10303-21;
