ISO-10303-21;
HEADER;
/* Generated by software containing ST-Developer
 * from STEP Tools, Inc. (www.steptools.com) 
 */

FILE_DESCRIPTION(
/* description */ (''),
/* implementation_level */ '2;1');

FILE_NAME(
/* name */ 'Tensioner Spacer 2.step',
/* time_stamp */ '2026-08-22T21:12:51-05:00',
/* author */ (''),
/* organization */ (''),
/* preprocessor_version */ 'ST-DEVELOPER v20.1',
/* originating_system */ 'Autodesk Translation Framework v15.8.0.0',
/* authorisation */ '');

FILE_SCHEMA (('AUTOMOTIVE_DESIGN { 1 0 10303 214 3 1 1 }'));
ENDSEC;

DATA;
#10=MECHANICAL_DESIGN_GEOMETRIC_PRESENTATION_REPRESENTATION('',(#33),#1116);
#11=ITEM_DEFINED_TRANSFORMATION($,$,#656,#714);
#12=ITEM_DEFINED_TRANSFORMATION($,$,#655,#715);
#13=ITEM_DEFINED_TRANSFORMATION($,$,#654,#716);
#14=ITEM_DEFINED_TRANSFORMATION($,$,#653,#717);
#15=ITEM_DEFINED_TRANSFORMATION($,$,#652,#718);
#16=(
REPRESENTATION_RELATIONSHIP($,$,#1143,#1142)
REPRESENTATION_RELATIONSHIP_WITH_TRANSFORMATION(#11)
SHAPE_REPRESENTATION_RELATIONSHIP()
);
#17=(
REPRESENTATION_RELATIONSHIP($,$,#1142,#1141)
REPRESENTATION_RELATIONSHIP_WITH_TRANSFORMATION(#12)
SHAPE_REPRESENTATION_RELATIONSHIP()
);
#18=(
REPRESENTATION_RELATIONSHIP($,$,#1141,#1140)
REPRESENTATION_RELATIONSHIP_WITH_TRANSFORMATION(#13)
SHAPE_REPRESENTATION_RELATIONSHIP()
);
#19=(
REPRESENTATION_RELATIONSHIP($,$,#1140,#1139)
REPRESENTATION_RELATIONSHIP_WITH_TRANSFORMATION(#14)
SHAPE_REPRESENTATION_RELATIONSHIP()
);
#20=(
REPRESENTATION_RELATIONSHIP($,$,#1139,#1138)
REPRESENTATION_RELATIONSHIP_WITH_TRANSFORMATION(#15)
SHAPE_REPRESENTATION_RELATIONSHIP()
);
#21=CONTEXT_DEPENDENT_SHAPE_REPRESENTATION(#16,#1133);
#22=CONTEXT_DEPENDENT_SHAPE_REPRESENTATION(#17,#1134);
#23=CONTEXT_DEPENDENT_SHAPE_REPRESENTATION(#18,#1135);
#24=CONTEXT_DEPENDENT_SHAPE_REPRESENTATION(#19,#1136);
#25=CONTEXT_DEPENDENT_SHAPE_REPRESENTATION(#20,#1137);
#26=NEXT_ASSEMBLY_USAGE_OCCURRENCE(
'Sheet_metal_9mm_tensioner_b_4.7-5mm (1) (1):1',
'Sheet_metal_9mm_tensioner_b_4.7-5mm (1) (1):1',
'Sheet_metal_9mm_tensioner_b_4.7-5mm (1) (1):1',#1149,#1150,
'Sheet_metal_9mm_tensioner_b_4.7-5mm (1) (1):1');
#27=NEXT_ASSEMBLY_USAGE_OCCURRENCE(
'_Sheet_metal_VT_9mm_rear_left_motor_mount (1):1',
'_Sheet_metal_VT_9mm_rear_left_motor_mount (1):1',
'_Sheet_metal_VT_9mm_rear_left_motor_mount (1):1',#1148,#1149,
'_Sheet_metal_VT_9mm_rear_left_motor_mount (1):1');
#28=NEXT_ASSEMBLY_USAGE_OCCURRENCE(
'_31_Sheet_metal_VT_9mm_rear_motor_mounts_FT_0:1',
'_31_Sheet_metal_VT_9mm_rear_motor_mounts_FT_0:1',
'_31_Sheet_metal_VT_9mm_rear_motor_mounts_FT_0:1',#1147,#1148,
'_31_Sheet_metal_VT_9mm_rear_motor_mounts_FT_0:1');
#29=NEXT_ASSEMBLY_USAGE_OCCURRENCE(
'3030 Left Rear Motor Assemblies.stp:1',
'3030 Left Rear Motor Assemblies.stp:1',
'3030 Left Rear Motor Assemblies.stp:1',#1146,#1147,
'3030 Left Rear Motor Assemblies.stp:1');
#30=NEXT_ASSEMBLY_USAGE_OCCURRENCE('3030 Rear Motor Assemblies:1',
'3030 Rear Motor Assemblies:1','3030 Rear Motor Assemblies:1',#1145,#1146,
'3030 Rear Motor Assemblies:1');
#31=SHAPE_REPRESENTATION_RELATIONSHIP('SRR','None',#1143,#32);
#32=ADVANCED_BREP_SHAPE_REPRESENTATION('',(#34),#1115);
#33=STYLED_ITEM('',(#1174),#34);
#34=MANIFOLD_SOLID_BREP('Body1',#638);
#35=FACE_BOUND('',#93,.T.);
#36=FACE_BOUND('',#94,.T.);
#37=FACE_BOUND('',#95,.T.);
#38=FACE_BOUND('',#115,.T.);
#39=FACE_BOUND('',#116,.T.);
#40=FACE_BOUND('',#117,.T.);
#41=PLANE('',#660);
#42=PLANE('',#661);
#43=PLANE('',#676);
#44=PLANE('',#677);
#45=PLANE('',#680);
#46=PLANE('',#687);
#47=PLANE('',#688);
#48=PLANE('',#695);
#49=PLANE('',#700);
#50=PLANE('',#703);
#51=PLANE('',#705);
#52=PLANE('',#706);
#53=PLANE('',#707);
#54=PLANE('',#708);
#55=PLANE('',#709);
#56=PLANE('',#710);
#57=PLANE('',#711);
#58=PLANE('',#712);
#59=FACE_OUTER_BOUND('',#90,.T.);
#60=FACE_OUTER_BOUND('',#91,.T.);
#61=FACE_OUTER_BOUND('',#92,.T.);
#62=FACE_OUTER_BOUND('',#96,.T.);
#63=FACE_OUTER_BOUND('',#97,.T.);
#64=FACE_OUTER_BOUND('',#98,.T.);
#65=FACE_OUTER_BOUND('',#99,.T.);
#66=FACE_OUTER_BOUND('',#100,.T.);
#67=FACE_OUTER_BOUND('',#101,.T.);
#68=FACE_OUTER_BOUND('',#102,.T.);
#69=FACE_OUTER_BOUND('',#103,.T.);
#70=FACE_OUTER_BOUND('',#104,.T.);
#71=FACE_OUTER_BOUND('',#105,.T.);
#72=FACE_OUTER_BOUND('',#106,.T.);
#73=FACE_OUTER_BOUND('',#107,.T.);
#74=FACE_OUTER_BOUND('',#108,.T.);
#75=FACE_OUTER_BOUND('',#109,.T.);
#76=FACE_OUTER_BOUND('',#110,.T.);
#77=FACE_OUTER_BOUND('',#111,.T.);
#78=FACE_OUTER_BOUND('',#112,.T.);
#79=FACE_OUTER_BOUND('',#113,.T.);
#80=FACE_OUTER_BOUND('',#114,.T.);
#81=FACE_OUTER_BOUND('',#118,.T.);
#82=FACE_OUTER_BOUND('',#119,.T.);
#83=FACE_OUTER_BOUND('',#120,.T.);
#84=FACE_OUTER_BOUND('',#121,.T.);
#85=FACE_OUTER_BOUND('',#122,.T.);
#86=FACE_OUTER_BOUND('',#123,.T.);
#87=FACE_OUTER_BOUND('',#124,.T.);
#88=FACE_OUTER_BOUND('',#125,.T.);
#89=FACE_OUTER_BOUND('',#126,.T.);
#90=EDGE_LOOP('',(#420,#421,#422,#423));
#91=EDGE_LOOP('',(#424,#425,#426,#427));
#92=EDGE_LOOP('',(#428,#429,#430,#431,#432,#433,#434,#435,#436,#437,#438,
#439,#440,#441,#442,#443,#444,#445,#446,#447));
#93=EDGE_LOOP('',(#448));
#94=EDGE_LOOP('',(#449,#450,#451,#452));
#95=EDGE_LOOP('',(#453,#454,#455,#456));
#96=EDGE_LOOP('',(#457,#458,#459,#460));
#97=EDGE_LOOP('',(#461,#462,#463,#464));
#98=EDGE_LOOP('',(#465,#466,#467,#468));
#99=EDGE_LOOP('',(#469,#470,#471,#472));
#100=EDGE_LOOP('',(#473,#474,#475,#476));
#101=EDGE_LOOP('',(#477,#478,#479,#480));
#102=EDGE_LOOP('',(#481,#482,#483,#484));
#103=EDGE_LOOP('',(#485,#486,#487,#488));
#104=EDGE_LOOP('',(#489,#490,#491,#492));
#105=EDGE_LOOP('',(#493,#494,#495,#496));
#106=EDGE_LOOP('',(#497,#498,#499,#500));
#107=EDGE_LOOP('',(#501,#502,#503,#504));
#108=EDGE_LOOP('',(#505,#506,#507,#508));
#109=EDGE_LOOP('',(#509,#510,#511,#512));
#110=EDGE_LOOP('',(#513,#514,#515,#516));
#111=EDGE_LOOP('',(#517,#518,#519,#520));
#112=EDGE_LOOP('',(#521,#522,#523,#524));
#113=EDGE_LOOP('',(#525,#526,#527,#528));
#114=EDGE_LOOP('',(#529,#530,#531,#532,#533,#534,#535,#536,#537,#538,#539,
#540,#541,#542,#543,#544,#545,#546,#547,#548));
#115=EDGE_LOOP('',(#549,#550,#551,#552));
#116=EDGE_LOOP('',(#553,#554,#555,#556));
#117=EDGE_LOOP('',(#557));
#118=EDGE_LOOP('',(#558,#559,#560,#561));
#119=EDGE_LOOP('',(#562,#563,#564,#565));
#120=EDGE_LOOP('',(#566,#567,#568,#569));
#121=EDGE_LOOP('',(#570,#571,#572,#573));
#122=EDGE_LOOP('',(#574,#575,#576,#577));
#123=EDGE_LOOP('',(#578,#579,#580,#581));
#124=EDGE_LOOP('',(#582,#583,#584,#585));
#125=EDGE_LOOP('',(#586,#587,#588,#589));
#126=EDGE_LOOP('',(#590,#591,#592,#593));
#127=LINE('',#927,#188);
#128=LINE('',#930,#189);
#129=LINE('',#933,#190);
#130=LINE('',#935,#191);
#131=LINE('',#936,#192);
#132=LINE('',#939,#193);
#133=LINE('',#943,#194);
#134=LINE('',#947,#195);
#135=LINE('',#955,#196);
#136=LINE('',#959,#197);
#137=LINE('',#963,#198);
#138=LINE('',#971,#199);
#139=LINE('',#977,#200);
#140=LINE('',#979,#201);
#141=LINE('',#981,#202);
#142=LINE('',#982,#203);
#143=LINE('',#985,#204);
#144=LINE('',#987,#205);
#145=LINE('',#989,#206);
#146=LINE('',#990,#207);
#147=LINE('',#994,#208);
#148=LINE('',#997,#209);
#149=LINE('',#998,#210);
#150=LINE('',#1001,#211);
#151=LINE('',#1002,#212);
#152=LINE('',#1005,#213);
#153=LINE('',#1008,#214);
#154=LINE('',#1011,#215);
#155=LINE('',#1012,#216);
#156=LINE('',#1015,#217);
#157=LINE('',#1019,#218);
#158=LINE('',#1024,#219);
#159=LINE('',#1027,#220);
#160=LINE('',#1028,#221);
#161=LINE('',#1031,#222);
#162=LINE('',#1032,#223);
#163=LINE('',#1035,#224);
#164=LINE('',#1039,#225);
#165=LINE('',#1043,#226);
#166=LINE('',#1047,#227);
#167=LINE('',#1048,#228);
#168=LINE('',#1053,#229);
#169=LINE('',#1057,#230);
#170=LINE('',#1058,#231);
#171=LINE('',#1064,#232);
#172=LINE('',#1066,#233);
#173=LINE('',#1068,#234);
#174=LINE('',#1069,#235);
#175=LINE('',#1072,#236);
#176=LINE('',#1074,#237);
#177=LINE('',#1076,#238);
#178=LINE('',#1077,#239);
#179=LINE('',#1081,#240);
#180=LINE('',#1082,#241);
#181=LINE('',#1084,#242);
#182=LINE('',#1086,#243);
#183=LINE('',#1089,#244);
#184=LINE('',#1090,#245);
#185=LINE('',#1092,#246);
#186=LINE('',#1094,#247);
#187=LINE('',#1097,#248);
#188=VECTOR('',#735,10.);
#189=VECTOR('',#738,10.);
#190=VECTOR('',#741,10.);
#191=VECTOR('',#742,10.);
#192=VECTOR('',#743,10.);
#193=VECTOR('',#746,10.);
#194=VECTOR('',#749,10.);
#195=VECTOR('',#752,10.);
#196=VECTOR('',#759,10.);
#197=VECTOR('',#762,10.);
#198=VECTOR('',#765,10.);
#199=VECTOR('',#772,10.);
#200=VECTOR('',#777,10.);
#201=VECTOR('',#778,10.);
#202=VECTOR('',#779,10.);
#203=VECTOR('',#780,10.);
#204=VECTOR('',#781,10.);
#205=VECTOR('',#782,10.);
#206=VECTOR('',#783,10.);
#207=VECTOR('',#784,10.);
#208=VECTOR('',#789,10.);
#209=VECTOR('',#792,10.);
#210=VECTOR('',#793,10.);
#211=VECTOR('',#796,10.);
#212=VECTOR('',#797,10.);
#213=VECTOR('',#800,10.);
#214=VECTOR('',#803,10.);
#215=VECTOR('',#806,10.);
#216=VECTOR('',#807,10.);
#217=VECTOR('',#810,10.);
#218=VECTOR('',#815,10.);
#219=VECTOR('',#822,10.);
#220=VECTOR('',#825,10.);
#221=VECTOR('',#826,10.);
#222=VECTOR('',#829,10.);
#223=VECTOR('',#830,10.);
#224=VECTOR('',#833,10.);
#225=VECTOR('',#838,10.);
#226=VECTOR('',#843,10.);
#227=VECTOR('',#848,10.);
#228=VECTOR('',#849,10.);
#229=VECTOR('',#856,10.);
#230=VECTOR('',#861,10.);
#231=VECTOR('',#862,10.);
#232=VECTOR('',#869,10.);
#233=VECTOR('',#870,10.);
#234=VECTOR('',#871,10.);
#235=VECTOR('',#872,10.);
#236=VECTOR('',#873,10.);
#237=VECTOR('',#874,10.);
#238=VECTOR('',#875,10.);
#239=VECTOR('',#876,10.);
#240=VECTOR('',#881,10.);
#241=VECTOR('',#882,10.);
#242=VECTOR('',#885,10.);
#243=VECTOR('',#888,10.);
#244=VECTOR('',#893,10.);
#245=VECTOR('',#894,10.);
#246=VECTOR('',#897,10.);
#247=VECTOR('',#900,10.);
#248=VECTOR('',#905,2.1);
#249=CIRCLE('',#658,0.5);
#250=CIRCLE('',#659,0.5);
#251=CIRCLE('',#662,0.5);
#252=CIRCLE('',#663,0.5);
#253=CIRCLE('',#664,0.5);
#254=CIRCLE('',#665,0.500000000000004);
#255=CIRCLE('',#666,0.5);
#256=CIRCLE('',#667,0.5);
#257=CIRCLE('',#668,0.5);
#258=CIRCLE('',#669,0.5);
#259=CIRCLE('',#670,0.500000000000004);
#260=CIRCLE('',#671,0.5);
#261=CIRCLE('',#672,0.5);
#262=CIRCLE('',#673,2.1);
#263=CIRCLE('',#675,0.5);
#264=CIRCLE('',#679,0.5);
#265=CIRCLE('',#682,0.5);
#266=CIRCLE('',#684,0.500000000000004);
#267=CIRCLE('',#686,0.5);
#268=CIRCLE('',#690,0.5);
#269=CIRCLE('',#692,0.500000000000004);
#270=CIRCLE('',#694,0.5);
#271=CIRCLE('',#697,0.5);
#272=CIRCLE('',#699,0.5);
#273=CIRCLE('',#702,0.5);
#274=CIRCLE('',#704,2.1);
#275=VERTEX_POINT('',#923);
#276=VERTEX_POINT('',#924);
#277=VERTEX_POINT('',#926);
#278=VERTEX_POINT('',#928);
#279=VERTEX_POINT('',#932);
#280=VERTEX_POINT('',#934);
#281=VERTEX_POINT('',#938);
#282=VERTEX_POINT('',#940);
#283=VERTEX_POINT('',#942);
#284=VERTEX_POINT('',#944);
#285=VERTEX_POINT('',#946);
#286=VERTEX_POINT('',#948);
#287=VERTEX_POINT('',#950);
#288=VERTEX_POINT('',#952);
#289=VERTEX_POINT('',#954);
#290=VERTEX_POINT('',#956);
#291=VERTEX_POINT('',#958);
#292=VERTEX_POINT('',#960);
#293=VERTEX_POINT('',#962);
#294=VERTEX_POINT('',#964);
#295=VERTEX_POINT('',#966);
#296=VERTEX_POINT('',#968);
#297=VERTEX_POINT('',#970);
#298=VERTEX_POINT('',#973);
#299=VERTEX_POINT('',#975);
#300=VERTEX_POINT('',#976);
#301=VERTEX_POINT('',#978);
#302=VERTEX_POINT('',#980);
#303=VERTEX_POINT('',#983);
#304=VERTEX_POINT('',#984);
#305=VERTEX_POINT('',#986);
#306=VERTEX_POINT('',#988);
#307=VERTEX_POINT('',#992);
#308=VERTEX_POINT('',#996);
#309=VERTEX_POINT('',#1000);
#310=VERTEX_POINT('',#1004);
#311=VERTEX_POINT('',#1006);
#312=VERTEX_POINT('',#1010);
#313=VERTEX_POINT('',#1014);
#314=VERTEX_POINT('',#1018);
#315=VERTEX_POINT('',#1022);
#316=VERTEX_POINT('',#1026);
#317=VERTEX_POINT('',#1030);
#318=VERTEX_POINT('',#1034);
#319=VERTEX_POINT('',#1038);
#320=VERTEX_POINT('',#1042);
#321=VERTEX_POINT('',#1046);
#322=VERTEX_POINT('',#1052);
#323=VERTEX_POINT('',#1056);
#324=VERTEX_POINT('',#1062);
#325=VERTEX_POINT('',#1063);
#326=VERTEX_POINT('',#1065);
#327=VERTEX_POINT('',#1067);
#328=VERTEX_POINT('',#1070);
#329=VERTEX_POINT('',#1071);
#330=VERTEX_POINT('',#1073);
#331=VERTEX_POINT('',#1075);
#332=VERTEX_POINT('',#1078);
#333=EDGE_CURVE('',#275,#276,#249,.T.);
#334=EDGE_CURVE('',#276,#277,#127,.T.);
#335=EDGE_CURVE('',#277,#278,#250,.T.);
#336=EDGE_CURVE('',#278,#275,#128,.T.);
#337=EDGE_CURVE('',#279,#276,#129,.T.);
#338=EDGE_CURVE('',#280,#279,#130,.T.);
#339=EDGE_CURVE('',#277,#280,#131,.T.);
#340=EDGE_CURVE('',#281,#275,#132,.T.);
#341=EDGE_CURVE('',#282,#281,#251,.T.);
#342=EDGE_CURVE('',#283,#282,#133,.T.);
#343=EDGE_CURVE('',#284,#283,#252,.T.);
#344=EDGE_CURVE('',#285,#284,#134,.T.);
#345=EDGE_CURVE('',#286,#285,#253,.T.);
#346=EDGE_CURVE('',#287,#286,#254,.T.);
#347=EDGE_CURVE('',#288,#287,#255,.T.);
#348=EDGE_CURVE('',#289,#288,#135,.T.);
#349=EDGE_CURVE('',#290,#289,#256,.T.);
#350=EDGE_CURVE('',#291,#290,#136,.T.);
#351=EDGE_CURVE('',#292,#291,#257,.T.);
#352=EDGE_CURVE('',#292,#293,#137,.T.);
#353=EDGE_CURVE('',#294,#293,#258,.T.);
#354=EDGE_CURVE('',#294,#295,#259,.T.);
#355=EDGE_CURVE('',#296,#295,#260,.T.);
#356=EDGE_CURVE('',#296,#297,#138,.T.);
#357=EDGE_CURVE('',#279,#297,#261,.T.);
#358=EDGE_CURVE('',#298,#298,#262,.T.);
#359=EDGE_CURVE('',#299,#300,#139,.T.);
#360=EDGE_CURVE('',#301,#299,#140,.T.);
#361=EDGE_CURVE('',#302,#301,#141,.T.);
#362=EDGE_CURVE('',#300,#302,#142,.T.);
#363=EDGE_CURVE('',#303,#304,#143,.T.);
#364=EDGE_CURVE('',#304,#305,#144,.T.);
#365=EDGE_CURVE('',#305,#306,#145,.T.);
#366=EDGE_CURVE('',#306,#303,#146,.T.);
#367=EDGE_CURVE('',#307,#280,#263,.T.);
#368=EDGE_CURVE('',#297,#307,#147,.T.);
#369=EDGE_CURVE('',#308,#296,#148,.T.);
#370=EDGE_CURVE('',#307,#308,#149,.T.);
#371=EDGE_CURVE('',#309,#278,#150,.T.);
#372=EDGE_CURVE('',#281,#309,#151,.T.);
#373=EDGE_CURVE('',#289,#310,#152,.T.);
#374=EDGE_CURVE('',#310,#311,#264,.T.);
#375=EDGE_CURVE('',#311,#290,#153,.T.);
#376=EDGE_CURVE('',#312,#288,#154,.T.);
#377=EDGE_CURVE('',#312,#310,#155,.T.);
#378=EDGE_CURVE('',#287,#313,#156,.T.);
#379=EDGE_CURVE('',#313,#312,#265,.T.);
#380=EDGE_CURVE('',#314,#286,#157,.T.);
#381=EDGE_CURVE('',#314,#313,#266,.T.);
#382=EDGE_CURVE('',#315,#314,#267,.T.);
#383=EDGE_CURVE('',#285,#315,#158,.T.);
#384=EDGE_CURVE('',#316,#284,#159,.T.);
#385=EDGE_CURVE('',#316,#315,#160,.T.);
#386=EDGE_CURVE('',#311,#317,#161,.T.);
#387=EDGE_CURVE('',#291,#317,#162,.T.);
#388=EDGE_CURVE('',#295,#318,#163,.T.);
#389=EDGE_CURVE('',#318,#308,#268,.T.);
#390=EDGE_CURVE('',#319,#294,#164,.T.);
#391=EDGE_CURVE('',#318,#319,#269,.T.);
#392=EDGE_CURVE('',#293,#320,#165,.T.);
#393=EDGE_CURVE('',#320,#319,#270,.T.);
#394=EDGE_CURVE('',#321,#292,#166,.T.);
#395=EDGE_CURVE('',#320,#321,#167,.T.);
#396=EDGE_CURVE('',#317,#321,#271,.T.);
#397=EDGE_CURVE('',#283,#322,#168,.T.);
#398=EDGE_CURVE('',#322,#316,#272,.T.);
#399=EDGE_CURVE('',#323,#282,#169,.T.);
#400=EDGE_CURVE('',#323,#322,#170,.T.);
#401=EDGE_CURVE('',#309,#323,#273,.T.);
#402=EDGE_CURVE('',#324,#325,#171,.T.);
#403=EDGE_CURVE('',#326,#324,#172,.T.);
#404=EDGE_CURVE('',#327,#326,#173,.T.);
#405=EDGE_CURVE('',#325,#327,#174,.T.);
#406=EDGE_CURVE('',#328,#329,#175,.T.);
#407=EDGE_CURVE('',#329,#330,#176,.T.);
#408=EDGE_CURVE('',#330,#331,#177,.T.);
#409=EDGE_CURVE('',#331,#328,#178,.T.);
#410=EDGE_CURVE('',#332,#332,#274,.T.);
#411=EDGE_CURVE('',#326,#302,#179,.T.);
#412=EDGE_CURVE('',#327,#301,#180,.T.);
#413=EDGE_CURVE('',#324,#300,#181,.T.);
#414=EDGE_CURVE('',#325,#299,#182,.T.);
#415=EDGE_CURVE('',#330,#306,#183,.T.);
#416=EDGE_CURVE('',#331,#305,#184,.T.);
#417=EDGE_CURVE('',#328,#304,#185,.T.);
#418=EDGE_CURVE('',#329,#303,#186,.T.);
#419=EDGE_CURVE('',#332,#298,#187,.T.);
#420=ORIENTED_EDGE('',*,*,#333,.T.);
#421=ORIENTED_EDGE('',*,*,#334,.T.);
#422=ORIENTED_EDGE('',*,*,#335,.T.);
#423=ORIENTED_EDGE('',*,*,#336,.T.);
#424=ORIENTED_EDGE('',*,*,#334,.F.);
#425=ORIENTED_EDGE('',*,*,#337,.F.);
#426=ORIENTED_EDGE('',*,*,#338,.F.);
#427=ORIENTED_EDGE('',*,*,#339,.F.);
#428=ORIENTED_EDGE('',*,*,#333,.F.);
#429=ORIENTED_EDGE('',*,*,#340,.F.);
#430=ORIENTED_EDGE('',*,*,#341,.F.);
#431=ORIENTED_EDGE('',*,*,#342,.F.);
#432=ORIENTED_EDGE('',*,*,#343,.F.);
#433=ORIENTED_EDGE('',*,*,#344,.F.);
#434=ORIENTED_EDGE('',*,*,#345,.F.);
#435=ORIENTED_EDGE('',*,*,#346,.F.);
#436=ORIENTED_EDGE('',*,*,#347,.F.);
#437=ORIENTED_EDGE('',*,*,#348,.F.);
#438=ORIENTED_EDGE('',*,*,#349,.F.);
#439=ORIENTED_EDGE('',*,*,#350,.F.);
#440=ORIENTED_EDGE('',*,*,#351,.F.);
#441=ORIENTED_EDGE('',*,*,#352,.T.);
#442=ORIENTED_EDGE('',*,*,#353,.F.);
#443=ORIENTED_EDGE('',*,*,#354,.T.);
#444=ORIENTED_EDGE('',*,*,#355,.F.);
#445=ORIENTED_EDGE('',*,*,#356,.T.);
#446=ORIENTED_EDGE('',*,*,#357,.F.);
#447=ORIENTED_EDGE('',*,*,#337,.T.);
#448=ORIENTED_EDGE('',*,*,#358,.F.);
#449=ORIENTED_EDGE('',*,*,#359,.F.);
#450=ORIENTED_EDGE('',*,*,#360,.F.);
#451=ORIENTED_EDGE('',*,*,#361,.F.);
#452=ORIENTED_EDGE('',*,*,#362,.F.);
#453=ORIENTED_EDGE('',*,*,#363,.T.);
#454=ORIENTED_EDGE('',*,*,#364,.T.);
#455=ORIENTED_EDGE('',*,*,#365,.T.);
#456=ORIENTED_EDGE('',*,*,#366,.T.);
#457=ORIENTED_EDGE('',*,*,#367,.T.);
#458=ORIENTED_EDGE('',*,*,#338,.T.);
#459=ORIENTED_EDGE('',*,*,#357,.T.);
#460=ORIENTED_EDGE('',*,*,#368,.T.);
#461=ORIENTED_EDGE('',*,*,#368,.F.);
#462=ORIENTED_EDGE('',*,*,#356,.F.);
#463=ORIENTED_EDGE('',*,*,#369,.F.);
#464=ORIENTED_EDGE('',*,*,#370,.F.);
#465=ORIENTED_EDGE('',*,*,#336,.F.);
#466=ORIENTED_EDGE('',*,*,#371,.F.);
#467=ORIENTED_EDGE('',*,*,#372,.F.);
#468=ORIENTED_EDGE('',*,*,#340,.T.);
#469=ORIENTED_EDGE('',*,*,#349,.T.);
#470=ORIENTED_EDGE('',*,*,#373,.T.);
#471=ORIENTED_EDGE('',*,*,#374,.T.);
#472=ORIENTED_EDGE('',*,*,#375,.T.);
#473=ORIENTED_EDGE('',*,*,#373,.F.);
#474=ORIENTED_EDGE('',*,*,#348,.T.);
#475=ORIENTED_EDGE('',*,*,#376,.F.);
#476=ORIENTED_EDGE('',*,*,#377,.T.);
#477=ORIENTED_EDGE('',*,*,#347,.T.);
#478=ORIENTED_EDGE('',*,*,#378,.T.);
#479=ORIENTED_EDGE('',*,*,#379,.T.);
#480=ORIENTED_EDGE('',*,*,#376,.T.);
#481=ORIENTED_EDGE('',*,*,#378,.F.);
#482=ORIENTED_EDGE('',*,*,#346,.T.);
#483=ORIENTED_EDGE('',*,*,#380,.F.);
#484=ORIENTED_EDGE('',*,*,#381,.T.);
#485=ORIENTED_EDGE('',*,*,#382,.T.);
#486=ORIENTED_EDGE('',*,*,#380,.T.);
#487=ORIENTED_EDGE('',*,*,#345,.T.);
#488=ORIENTED_EDGE('',*,*,#383,.T.);
#489=ORIENTED_EDGE('',*,*,#383,.F.);
#490=ORIENTED_EDGE('',*,*,#344,.T.);
#491=ORIENTED_EDGE('',*,*,#384,.F.);
#492=ORIENTED_EDGE('',*,*,#385,.T.);
#493=ORIENTED_EDGE('',*,*,#375,.F.);
#494=ORIENTED_EDGE('',*,*,#386,.T.);
#495=ORIENTED_EDGE('',*,*,#387,.F.);
#496=ORIENTED_EDGE('',*,*,#350,.T.);
#497=ORIENTED_EDGE('',*,*,#355,.T.);
#498=ORIENTED_EDGE('',*,*,#388,.T.);
#499=ORIENTED_EDGE('',*,*,#389,.T.);
#500=ORIENTED_EDGE('',*,*,#369,.T.);
#501=ORIENTED_EDGE('',*,*,#388,.F.);
#502=ORIENTED_EDGE('',*,*,#354,.F.);
#503=ORIENTED_EDGE('',*,*,#390,.F.);
#504=ORIENTED_EDGE('',*,*,#391,.F.);
#505=ORIENTED_EDGE('',*,*,#353,.T.);
#506=ORIENTED_EDGE('',*,*,#392,.T.);
#507=ORIENTED_EDGE('',*,*,#393,.T.);
#508=ORIENTED_EDGE('',*,*,#390,.T.);
#509=ORIENTED_EDGE('',*,*,#392,.F.);
#510=ORIENTED_EDGE('',*,*,#352,.F.);
#511=ORIENTED_EDGE('',*,*,#394,.F.);
#512=ORIENTED_EDGE('',*,*,#395,.F.);
#513=ORIENTED_EDGE('',*,*,#396,.T.);
#514=ORIENTED_EDGE('',*,*,#394,.T.);
#515=ORIENTED_EDGE('',*,*,#351,.T.);
#516=ORIENTED_EDGE('',*,*,#387,.T.);
#517=ORIENTED_EDGE('',*,*,#343,.T.);
#518=ORIENTED_EDGE('',*,*,#397,.T.);
#519=ORIENTED_EDGE('',*,*,#398,.T.);
#520=ORIENTED_EDGE('',*,*,#384,.T.);
#521=ORIENTED_EDGE('',*,*,#397,.F.);
#522=ORIENTED_EDGE('',*,*,#342,.T.);
#523=ORIENTED_EDGE('',*,*,#399,.F.);
#524=ORIENTED_EDGE('',*,*,#400,.T.);
#525=ORIENTED_EDGE('',*,*,#401,.T.);
#526=ORIENTED_EDGE('',*,*,#399,.T.);
#527=ORIENTED_EDGE('',*,*,#341,.T.);
#528=ORIENTED_EDGE('',*,*,#372,.T.);
#529=ORIENTED_EDGE('',*,*,#335,.F.);
#530=ORIENTED_EDGE('',*,*,#339,.T.);
#531=ORIENTED_EDGE('',*,*,#367,.F.);
#532=ORIENTED_EDGE('',*,*,#370,.T.);
#533=ORIENTED_EDGE('',*,*,#389,.F.);
#534=ORIENTED_EDGE('',*,*,#391,.T.);
#535=ORIENTED_EDGE('',*,*,#393,.F.);
#536=ORIENTED_EDGE('',*,*,#395,.T.);
#537=ORIENTED_EDGE('',*,*,#396,.F.);
#538=ORIENTED_EDGE('',*,*,#386,.F.);
#539=ORIENTED_EDGE('',*,*,#374,.F.);
#540=ORIENTED_EDGE('',*,*,#377,.F.);
#541=ORIENTED_EDGE('',*,*,#379,.F.);
#542=ORIENTED_EDGE('',*,*,#381,.F.);
#543=ORIENTED_EDGE('',*,*,#382,.F.);
#544=ORIENTED_EDGE('',*,*,#385,.F.);
#545=ORIENTED_EDGE('',*,*,#398,.F.);
#546=ORIENTED_EDGE('',*,*,#400,.F.);
#547=ORIENTED_EDGE('',*,*,#401,.F.);
#548=ORIENTED_EDGE('',*,*,#371,.T.);
#549=ORIENTED_EDGE('',*,*,#402,.F.);
#550=ORIENTED_EDGE('',*,*,#403,.F.);
#551=ORIENTED_EDGE('',*,*,#404,.F.);
#552=ORIENTED_EDGE('',*,*,#405,.F.);
#553=ORIENTED_EDGE('',*,*,#406,.T.);
#554=ORIENTED_EDGE('',*,*,#407,.T.);
#555=ORIENTED_EDGE('',*,*,#408,.T.);
#556=ORIENTED_EDGE('',*,*,#409,.T.);
#557=ORIENTED_EDGE('',*,*,#410,.F.);
#558=ORIENTED_EDGE('',*,*,#404,.T.);
#559=ORIENTED_EDGE('',*,*,#411,.T.);
#560=ORIENTED_EDGE('',*,*,#361,.T.);
#561=ORIENTED_EDGE('',*,*,#412,.F.);
#562=ORIENTED_EDGE('',*,*,#403,.T.);
#563=ORIENTED_EDGE('',*,*,#413,.T.);
#564=ORIENTED_EDGE('',*,*,#362,.T.);
#565=ORIENTED_EDGE('',*,*,#411,.F.);
#566=ORIENTED_EDGE('',*,*,#402,.T.);
#567=ORIENTED_EDGE('',*,*,#414,.T.);
#568=ORIENTED_EDGE('',*,*,#359,.T.);
#569=ORIENTED_EDGE('',*,*,#413,.F.);
#570=ORIENTED_EDGE('',*,*,#405,.T.);
#571=ORIENTED_EDGE('',*,*,#412,.T.);
#572=ORIENTED_EDGE('',*,*,#360,.T.);
#573=ORIENTED_EDGE('',*,*,#414,.F.);
#574=ORIENTED_EDGE('',*,*,#408,.F.);
#575=ORIENTED_EDGE('',*,*,#415,.T.);
#576=ORIENTED_EDGE('',*,*,#365,.F.);
#577=ORIENTED_EDGE('',*,*,#416,.F.);
#578=ORIENTED_EDGE('',*,*,#409,.F.);
#579=ORIENTED_EDGE('',*,*,#416,.T.);
#580=ORIENTED_EDGE('',*,*,#364,.F.);
#581=ORIENTED_EDGE('',*,*,#417,.F.);
#582=ORIENTED_EDGE('',*,*,#406,.F.);
#583=ORIENTED_EDGE('',*,*,#417,.T.);
#584=ORIENTED_EDGE('',*,*,#363,.F.);
#585=ORIENTED_EDGE('',*,*,#418,.F.);
#586=ORIENTED_EDGE('',*,*,#407,.F.);
#587=ORIENTED_EDGE('',*,*,#418,.T.);
#588=ORIENTED_EDGE('',*,*,#366,.F.);
#589=ORIENTED_EDGE('',*,*,#415,.F.);
#590=ORIENTED_EDGE('',*,*,#410,.T.);
#591=ORIENTED_EDGE('',*,*,#419,.T.);
#592=ORIENTED_EDGE('',*,*,#358,.T.);
#593=ORIENTED_EDGE('',*,*,#419,.F.);
#594=CYLINDRICAL_SURFACE('',#657,0.5);
#595=CYLINDRICAL_SURFACE('',#674,0.5);
#596=CYLINDRICAL_SURFACE('',#678,0.5);
#597=CYLINDRICAL_SURFACE('',#681,0.5);
#598=CYLINDRICAL_SURFACE('',#683,0.500000000000004);
#599=CYLINDRICAL_SURFACE('',#685,0.5);
#600=CYLINDRICAL_SURFACE('',#689,0.5);
#601=CYLINDRICAL_SURFACE('',#691,0.500000000000004);
#602=CYLINDRICAL_SURFACE('',#693,0.5);
#603=CYLINDRICAL_SURFACE('',#696,0.5);
#604=CYLINDRICAL_SURFACE('',#698,0.5);
#605=CYLINDRICAL_SURFACE('',#701,0.5);
#606=CYLINDRICAL_SURFACE('',#713,2.1);
#607=ADVANCED_FACE('',(#59),#594,.T.);
#608=ADVANCED_FACE('',(#60),#41,.T.);
#609=ADVANCED_FACE('',(#61,#35,#36,#37),#42,.T.);
#610=ADVANCED_FACE('',(#62),#595,.T.);
#611=ADVANCED_FACE('',(#63),#43,.T.);
#612=ADVANCED_FACE('',(#64),#44,.T.);
#613=ADVANCED_FACE('',(#65),#596,.T.);
#614=ADVANCED_FACE('',(#66),#45,.F.);
#615=ADVANCED_FACE('',(#67),#597,.T.);
#616=ADVANCED_FACE('',(#68),#598,.F.);
#617=ADVANCED_FACE('',(#69),#599,.T.);
#618=ADVANCED_FACE('',(#70),#46,.F.);
#619=ADVANCED_FACE('',(#71),#47,.T.);
#620=ADVANCED_FACE('',(#72),#600,.T.);
#621=ADVANCED_FACE('',(#73),#601,.F.);
#622=ADVANCED_FACE('',(#74),#602,.T.);
#623=ADVANCED_FACE('',(#75),#48,.T.);
#624=ADVANCED_FACE('',(#76),#603,.T.);
#625=ADVANCED_FACE('',(#77),#604,.T.);
#626=ADVANCED_FACE('',(#78),#49,.F.);
#627=ADVANCED_FACE('',(#79),#605,.T.);
#628=ADVANCED_FACE('',(#80,#38,#39,#40),#50,.F.);
#629=ADVANCED_FACE('',(#81),#51,.T.);
#630=ADVANCED_FACE('',(#82),#52,.T.);
#631=ADVANCED_FACE('',(#83),#53,.T.);
#632=ADVANCED_FACE('',(#84),#54,.T.);
#633=ADVANCED_FACE('',(#85),#55,.F.);
#634=ADVANCED_FACE('',(#86),#56,.F.);
#635=ADVANCED_FACE('',(#87),#57,.F.);
#636=ADVANCED_FACE('',(#88),#58,.F.);
#637=ADVANCED_FACE('',(#89),#606,.F.);
#638=CLOSED_SHELL('',(#607,#608,#609,#610,#611,#612,#613,#614,#615,#616,
#617,#618,#619,#620,#621,#622,#623,#624,#625,#626,#627,#628,#629,#630,#631,
#632,#633,#634,#635,#636,#637));
#639=DERIVED_UNIT_ELEMENT(#641,1.);
#640=DERIVED_UNIT_ELEMENT(#1118,-3.);
#641=(
MASS_UNIT()
NAMED_UNIT(*)
SI_UNIT(.KILO.,.GRAM.)
);
#642=DERIVED_UNIT((#639,#640));
#643=MEASURE_REPRESENTATION_ITEM('density measure',
POSITIVE_RATIO_MEASURE(7850.),#642);
#644=PROPERTY_DEFINITION_REPRESENTATION(#649,#646);
#645=PROPERTY_DEFINITION_REPRESENTATION(#650,#647);
#646=REPRESENTATION('material name',(#648),#1115);
#647=REPRESENTATION('density',(#643),#1115);
#648=DESCRIPTIVE_REPRESENTATION_ITEM('Steel','Steel');
#649=PROPERTY_DEFINITION('material property','material name',#1150);
#650=PROPERTY_DEFINITION('material property','density of part',#1150);
#651=AXIS2_PLACEMENT_3D('',#916,#719,#720);
#652=AXIS2_PLACEMENT_3D('',#917,#721,#722);
#653=AXIS2_PLACEMENT_3D('',#918,#723,#724);
#654=AXIS2_PLACEMENT_3D('',#919,#725,#726);
#655=AXIS2_PLACEMENT_3D('',#920,#727,#728);
#656=AXIS2_PLACEMENT_3D('',#921,#729,#730);
#657=AXIS2_PLACEMENT_3D('',#922,#731,#732);
#658=AXIS2_PLACEMENT_3D('',#925,#733,#734);
#659=AXIS2_PLACEMENT_3D('',#929,#736,#737);
#660=AXIS2_PLACEMENT_3D('',#931,#739,#740);
#661=AXIS2_PLACEMENT_3D('',#937,#744,#745);
#662=AXIS2_PLACEMENT_3D('',#941,#747,#748);
#663=AXIS2_PLACEMENT_3D('',#945,#750,#751);
#664=AXIS2_PLACEMENT_3D('',#949,#753,#754);
#665=AXIS2_PLACEMENT_3D('',#951,#755,#756);
#666=AXIS2_PLACEMENT_3D('',#953,#757,#758);
#667=AXIS2_PLACEMENT_3D('',#957,#760,#761);
#668=AXIS2_PLACEMENT_3D('',#961,#763,#764);
#669=AXIS2_PLACEMENT_3D('',#965,#766,#767);
#670=AXIS2_PLACEMENT_3D('',#967,#768,#769);
#671=AXIS2_PLACEMENT_3D('',#969,#770,#771);
#672=AXIS2_PLACEMENT_3D('',#972,#773,#774);
#673=AXIS2_PLACEMENT_3D('',#974,#775,#776);
#674=AXIS2_PLACEMENT_3D('',#991,#785,#786);
#675=AXIS2_PLACEMENT_3D('',#993,#787,#788);
#676=AXIS2_PLACEMENT_3D('',#995,#790,#791);
#677=AXIS2_PLACEMENT_3D('',#999,#794,#795);
#678=AXIS2_PLACEMENT_3D('',#1003,#798,#799);
#679=AXIS2_PLACEMENT_3D('',#1007,#801,#802);
#680=AXIS2_PLACEMENT_3D('',#1009,#804,#805);
#681=AXIS2_PLACEMENT_3D('',#1013,#808,#809);
#682=AXIS2_PLACEMENT_3D('',#1016,#811,#812);
#683=AXIS2_PLACEMENT_3D('',#1017,#813,#814);
#684=AXIS2_PLACEMENT_3D('',#1020,#816,#817);
#685=AXIS2_PLACEMENT_3D('',#1021,#818,#819);
#686=AXIS2_PLACEMENT_3D('',#1023,#820,#821);
#687=AXIS2_PLACEMENT_3D('',#1025,#823,#824);
#688=AXIS2_PLACEMENT_3D('',#1029,#827,#828);
#689=AXIS2_PLACEMENT_3D('',#1033,#831,#832);
#690=AXIS2_PLACEMENT_3D('',#1036,#834,#835);
#691=AXIS2_PLACEMENT_3D('',#1037,#836,#837);
#692=AXIS2_PLACEMENT_3D('',#1040,#839,#840);
#693=AXIS2_PLACEMENT_3D('',#1041,#841,#842);
#694=AXIS2_PLACEMENT_3D('',#1044,#844,#845);
#695=AXIS2_PLACEMENT_3D('',#1045,#846,#847);
#696=AXIS2_PLACEMENT_3D('',#1049,#850,#851);
#697=AXIS2_PLACEMENT_3D('',#1050,#852,#853);
#698=AXIS2_PLACEMENT_3D('',#1051,#854,#855);
#699=AXIS2_PLACEMENT_3D('',#1054,#857,#858);
#700=AXIS2_PLACEMENT_3D('',#1055,#859,#860);
#701=AXIS2_PLACEMENT_3D('',#1059,#863,#864);
#702=AXIS2_PLACEMENT_3D('',#1060,#865,#866);
#703=AXIS2_PLACEMENT_3D('',#1061,#867,#868);
#704=AXIS2_PLACEMENT_3D('',#1079,#877,#878);
#705=AXIS2_PLACEMENT_3D('',#1080,#879,#880);
#706=AXIS2_PLACEMENT_3D('',#1083,#883,#884);
#707=AXIS2_PLACEMENT_3D('',#1085,#886,#887);
#708=AXIS2_PLACEMENT_3D('',#1087,#889,#890);
#709=AXIS2_PLACEMENT_3D('',#1088,#891,#892);
#710=AXIS2_PLACEMENT_3D('',#1091,#895,#896);
#711=AXIS2_PLACEMENT_3D('',#1093,#898,#899);
#712=AXIS2_PLACEMENT_3D('',#1095,#901,#902);
#713=AXIS2_PLACEMENT_3D('',#1096,#903,#904);
#714=AXIS2_PLACEMENT_3D('',#1098,#906,#907);
#715=AXIS2_PLACEMENT_3D('',#1099,#908,#909);
#716=AXIS2_PLACEMENT_3D('',#1100,#910,#911);
#717=AXIS2_PLACEMENT_3D('',#1101,#912,#913);
#718=AXIS2_PLACEMENT_3D('',#1102,#914,#915);
#719=DIRECTION('axis',(0.,0.,1.));
#720=DIRECTION('refdir',(1.,0.,0.));
#721=DIRECTION('axis',(0.,0.,1.));
#722=DIRECTION('refdir',(1.,0.,0.));
#723=DIRECTION('axis',(0.,0.,1.));
#724=DIRECTION('refdir',(1.,0.,0.));
#725=DIRECTION('axis',(0.,0.,1.));
#726=DIRECTION('refdir',(1.,0.,0.));
#727=DIRECTION('axis',(0.,0.,1.));
#728=DIRECTION('refdir',(1.,0.,0.));
#729=DIRECTION('axis',(0.,0.,1.));
#730=DIRECTION('refdir',(1.,0.,0.));
#731=DIRECTION('center_axis',(1.,-2.59371392974754E-33,-9.86076131526265E-32));
#732=DIRECTION('ref_axis',(6.78920792286591E-32,-0.707106781186551,0.707106781186544));
#733=DIRECTION('center_axis',(-1.,2.59371392974754E-33,0.));
#734=DIRECTION('ref_axis',(-1.8340327081825E-33,-0.707106781186551,0.707106781186544));
#735=DIRECTION('',(-1.,2.59371392974754E-33,9.86076131526265E-32));
#736=DIRECTION('center_axis',(1.,-2.59371392974754E-33,0.));
#737=DIRECTION('ref_axis',(-1.8340327081825E-33,-0.707106781186551,0.707106781186544));
#738=DIRECTION('',(1.,-2.59371392974754E-33,-9.86076131526265E-32));
#739=DIRECTION('center_axis',(9.86076131526265E-32,3.41086813490239E-29,
1.));
#740=DIRECTION('ref_axis',(4.87773981265411E-34,-1.,3.41086813490239E-29));
#741=DIRECTION('',(4.87773981265412E-34,-1.,3.41086813490239E-29));
#742=DIRECTION('',(1.,-2.59371392974754E-33,-9.86076131526265E-32));
#743=DIRECTION('',(-4.87773981265412E-34,1.,-3.41086813490239E-29));
#744=DIRECTION('center_axis',(1.,-2.59371392974754E-33,0.));
#745=DIRECTION('ref_axis',(-1.66157784441247E-62,-6.40617234366397E-30,
-1.));
#746=DIRECTION('',(8.84681619402835E-62,3.41086813490239E-29,1.));
#747=DIRECTION('center_axis',(-1.,2.59371392974754E-33,0.));
#748=DIRECTION('ref_axis',(-1.83403270818251E-33,-0.707106781186554,-0.707106781186541));
#749=DIRECTION('',(-2.59371392974754E-33,-1.,-2.1296336661696E-29));
#750=DIRECTION('center_axis',(-1.,2.59371392974754E-33,0.));
#751=DIRECTION('ref_axis',(1.83403270818251E-33,0.707106781186554,-0.707106781186541));
#752=DIRECTION('',(5.52366050520342E-62,2.1296336661696E-29,-1.));
#753=DIRECTION('center_axis',(-1.,2.59371392974754E-33,0.));
#754=DIRECTION('ref_axis',(2.4261972211046E-33,0.935414346693492,0.353553390593257));
#755=DIRECTION('center_axis',(1.,-2.59371392974754E-33,0.));
#756=DIRECTION('ref_axis',(-2.59371392974754E-33,-1.,1.28123446873279E-29));
#757=DIRECTION('center_axis',(-1.,2.59371392974754E-33,0.));
#758=DIRECTION('ref_axis',(-9.17016354091235E-34,-0.353553390593269,-0.935414346693487));
#759=DIRECTION('',(-2.59371392974754E-33,-1.,-2.1296336661696E-29));
#760=DIRECTION('center_axis',(-1.,2.59371392974754E-33,0.));
#761=DIRECTION('ref_axis',(1.83403270818251E-33,0.707106781186554,-0.707106781186541));
#762=DIRECTION('',(1.22464679914735E-16,-3.41086813490239E-29,-1.));
#763=DIRECTION('center_axis',(-1.,2.59371392974754E-33,0.));
#764=DIRECTION('ref_axis',(1.83403270818251E-33,0.707106781186554,0.707106781186541));
#765=DIRECTION('',(-2.59371392974754E-33,-1.,3.41086813490239E-29));
#766=DIRECTION('center_axis',(-1.,2.59371392974754E-33,0.));
#767=DIRECTION('ref_axis',(-9.17016354091235E-34,-0.353553390593269,0.935414346693487));
#768=DIRECTION('center_axis',(-1.,2.59371392974754E-33,0.));
#769=DIRECTION('ref_axis',(-2.59371392974754E-33,-1.,0.));
#770=DIRECTION('center_axis',(-1.,2.59371392974754E-33,0.));
#771=DIRECTION('ref_axis',(2.4261972211046E-33,0.935414346693492,-0.353553390593257));
#772=DIRECTION('',(8.84681619402835E-62,3.41086813490239E-29,1.));
#773=DIRECTION('center_axis',(-1.,2.59371392974754E-33,0.));
#774=DIRECTION('ref_axis',(1.83403270818251E-33,0.707106781186554,0.707106781186541));
#775=DIRECTION('center_axis',(1.,-2.59371392974754E-33,0.));
#776=DIRECTION('ref_axis',(-2.59371392974754E-33,-1.,1.28123446873279E-29));
#777=DIRECTION('',(-3.32315568882493E-62,-1.28123446873279E-29,-1.));
#778=DIRECTION('',(-2.59371392974754E-33,-1.,1.28156671985847E-29));
#779=DIRECTION('',(3.32315568882493E-62,1.28123446873279E-29,1.));
#780=DIRECTION('',(2.59371392974754E-33,1.,-1.28156671985847E-29));
#781=DIRECTION('',(0.,0.,1.));
#782=DIRECTION('',(2.59371392974754E-33,1.,3.32251125674859E-33));
#783=DIRECTION('',(0.,0.,-1.));
#784=DIRECTION('',(-2.59371392974754E-33,-1.,-3.32251125674859E-33));
#785=DIRECTION('center_axis',(-1.,2.59371392974754E-33,9.86076131526265E-32));
#786=DIRECTION('ref_axis',(7.15601446450239E-32,0.707106781186554,0.707106781186541));
#787=DIRECTION('center_axis',(1.,-2.59371392974754E-33,0.));
#788=DIRECTION('ref_axis',(1.83403270818251E-33,0.707106781186554,0.707106781186541));
#789=DIRECTION('',(-1.,2.59371392974754E-33,9.86076131526265E-32));
#790=DIRECTION('center_axis',(2.59371392974754E-33,1.,-3.41086813490239E-29));
#791=DIRECTION('ref_axis',(8.84681619402835E-62,3.41086813490239E-29,1.));
#792=DIRECTION('',(1.,-2.59371392974754E-33,0.));
#793=DIRECTION('',(-8.84681619402835E-62,-3.41086813490239E-29,-1.));
#794=DIRECTION('center_axis',(-2.59371392974754E-33,-1.,3.41086813490239E-29));
#795=DIRECTION('ref_axis',(-8.84681619402835E-62,-3.41086813490239E-29,
-1.));
#796=DIRECTION('',(-5.52366050520342E-62,-2.1296336661696E-29,1.));
#797=DIRECTION('',(-1.,2.59371392974754E-33,0.));
#798=DIRECTION('center_axis',(1.,-2.59371392974754E-33,0.));
#799=DIRECTION('ref_axis',(1.83403270818251E-33,0.707106781186554,-0.707106781186541));
#800=DIRECTION('',(-1.,2.59371392974754E-33,0.));
#801=DIRECTION('center_axis',(1.,-2.59371392974754E-33,0.));
#802=DIRECTION('ref_axis',(1.83403270818251E-33,0.707106781186554,-0.707106781186541));
#803=DIRECTION('',(1.,-2.59371392974754E-33,0.));
#804=DIRECTION('center_axis',(-5.52366050520342E-62,-2.1296336661696E-29,
1.));
#805=DIRECTION('ref_axis',(-2.59371392974754E-33,-1.,-2.1296336661696E-29));
#806=DIRECTION('',(1.,-2.59371392974754E-33,0.));
#807=DIRECTION('',(2.59371392974754E-33,1.,2.1296336661696E-29));
#808=DIRECTION('center_axis',(1.,-2.59371392974754E-33,0.));
#809=DIRECTION('ref_axis',(-9.17016354091235E-34,-0.353553390593269,-0.935414346693487));
#810=DIRECTION('',(-1.,2.59371392974754E-33,0.));
#811=DIRECTION('center_axis',(1.,-2.59371392974754E-33,0.));
#812=DIRECTION('ref_axis',(-9.17016354091235E-34,-0.353553390593269,-0.935414346693487));
#813=DIRECTION('center_axis',(-1.,2.59371392974754E-33,0.));
#814=DIRECTION('ref_axis',(-2.59371392974754E-33,-1.,1.28123446873279E-29));
#815=DIRECTION('',(1.,-2.59371392974754E-33,0.));
#816=DIRECTION('center_axis',(-1.,2.59371392974754E-33,0.));
#817=DIRECTION('ref_axis',(-2.59371392974754E-33,-1.,1.28123446873279E-29));
#818=DIRECTION('center_axis',(-1.,2.59371392974754E-33,0.));
#819=DIRECTION('ref_axis',(2.4261972211046E-33,0.935414346693492,0.353553390593257));
#820=DIRECTION('center_axis',(1.,-2.59371392974754E-33,0.));
#821=DIRECTION('ref_axis',(2.4261972211046E-33,0.935414346693492,0.353553390593257));
#822=DIRECTION('',(-1.,2.59371392974754E-33,0.));
#823=DIRECTION('center_axis',(-2.59371392974754E-33,-1.,-2.1296336661696E-29));
#824=DIRECTION('ref_axis',(5.52366050520342E-62,2.1296336661696E-29,-1.));
#825=DIRECTION('',(1.,-2.59371392974754E-33,0.));
#826=DIRECTION('',(-5.52366050520342E-62,-2.1296336661696E-29,1.));
#827=DIRECTION('center_axis',(2.59371392974754E-33,1.,-3.41086813490239E-29));
#828=DIRECTION('ref_axis',(1.22464679914735E-16,3.41086813490239E-29,1.));
#829=DIRECTION('',(-1.22464679914735E-16,-2.1296336661696E-29,1.));
#830=DIRECTION('',(-1.,2.59371392974754E-33,0.));
#831=DIRECTION('center_axis',(1.,-2.59371392974754E-33,0.));
#832=DIRECTION('ref_axis',(2.4261972211046E-33,0.935414346693492,-0.353553390593257));
#833=DIRECTION('',(-1.,2.59371392974754E-33,0.));
#834=DIRECTION('center_axis',(1.,-2.59371392974754E-33,0.));
#835=DIRECTION('ref_axis',(2.4261972211046E-33,0.935414346693492,-0.353553390593257));
#836=DIRECTION('center_axis',(1.,-2.59371392974754E-33,0.));
#837=DIRECTION('ref_axis',(-2.59371392974754E-33,-1.,0.));
#838=DIRECTION('',(1.,-2.59371392974754E-33,0.));
#839=DIRECTION('center_axis',(1.,-2.59371392974754E-33,0.));
#840=DIRECTION('ref_axis',(-2.59371392974754E-33,-1.,0.));
#841=DIRECTION('center_axis',(1.,-2.59371392974754E-33,0.));
#842=DIRECTION('ref_axis',(-9.17016354091235E-34,-0.353553390593269,0.935414346693487));
#843=DIRECTION('',(-1.,2.59371392974754E-33,0.));
#844=DIRECTION('center_axis',(1.,-2.59371392974754E-33,0.));
#845=DIRECTION('ref_axis',(-9.17016354091235E-34,-0.353553390593269,0.935414346693487));
#846=DIRECTION('center_axis',(8.84681619402835E-62,3.41086813490239E-29,
1.));
#847=DIRECTION('ref_axis',(-2.59371392974754E-33,-1.,3.41086813490239E-29));
#848=DIRECTION('',(1.,-2.59371392974754E-33,0.));
#849=DIRECTION('',(2.59371392974754E-33,1.,-3.41086813490239E-29));
#850=DIRECTION('center_axis',(-1.,2.59371392974754E-33,0.));
#851=DIRECTION('ref_axis',(1.83403270818251E-33,0.707106781186554,0.707106781186541));
#852=DIRECTION('center_axis',(1.,-2.59371392974754E-33,0.));
#853=DIRECTION('ref_axis',(1.83403270818251E-33,0.707106781186554,0.707106781186541));
#854=DIRECTION('center_axis',(1.,-2.59371392974754E-33,0.));
#855=DIRECTION('ref_axis',(1.83403270818251E-33,0.707106781186554,-0.707106781186541));
#856=DIRECTION('',(-1.,2.59371392974754E-33,0.));
#857=DIRECTION('center_axis',(1.,-2.59371392974754E-33,0.));
#858=DIRECTION('ref_axis',(1.83403270818251E-33,0.707106781186554,-0.707106781186541));
#859=DIRECTION('center_axis',(-5.52366050520342E-62,-2.1296336661696E-29,
1.));
#860=DIRECTION('ref_axis',(-2.59371392974754E-33,-1.,-2.1296336661696E-29));
#861=DIRECTION('',(1.,-2.59371392974754E-33,0.));
#862=DIRECTION('',(2.59371392974754E-33,1.,2.1296336661696E-29));
#863=DIRECTION('center_axis',(-1.,2.59371392974754E-33,0.));
#864=DIRECTION('ref_axis',(-1.83403270818251E-33,-0.707106781186554,-0.707106781186541));
#865=DIRECTION('center_axis',(1.,-2.59371392974754E-33,0.));
#866=DIRECTION('ref_axis',(-1.83403270818251E-33,-0.707106781186554,-0.707106781186541));
#867=DIRECTION('center_axis',(1.,-2.59371392974754E-33,0.));
#868=DIRECTION('ref_axis',(2.59371392974754E-33,1.,-3.41086813490239E-29));
#869=DIRECTION('',(3.32315568882493E-62,1.28123446873279E-29,1.));
#870=DIRECTION('',(-2.59371392974754E-33,-1.,1.28156671985847E-29));
#871=DIRECTION('',(-3.32315568882493E-62,-1.28123446873279E-29,-1.));
#872=DIRECTION('',(2.59371392974754E-33,1.,-1.28156671985847E-29));
#873=DIRECTION('',(0.,0.,-1.));
#874=DIRECTION('',(2.59371392974754E-33,1.,3.32251125674859E-33));
#875=DIRECTION('',(0.,0.,1.));
#876=DIRECTION('',(-2.59371392974754E-33,-1.,-3.32251125674859E-33));
#877=DIRECTION('center_axis',(-1.,2.59371392974754E-33,0.));
#878=DIRECTION('ref_axis',(-2.59371392974754E-33,-1.,0.));
#879=DIRECTION('center_axis',(-2.59371392974754E-33,-1.,1.28123446873279E-29));
#880=DIRECTION('ref_axis',(7.11228003565426E-46,-1.28123446873279E-29,-1.));
#881=DIRECTION('',(1.,-2.59371392974754E-33,0.));
#882=DIRECTION('',(1.,-2.59371392974754E-33,0.));
#883=DIRECTION('center_axis',(3.32401745319778E-62,1.28156671985847E-29,
1.));
#884=DIRECTION('ref_axis',(-2.59371392974754E-33,-1.,1.28156671985847E-29));
#885=DIRECTION('',(1.,-2.59371392974754E-33,0.));
#886=DIRECTION('center_axis',(2.59371392974754E-33,1.,-1.28123446873279E-29));
#887=DIRECTION('ref_axis',(-7.11228003565426E-46,1.28123446873279E-29,1.));
#888=DIRECTION('',(1.,-2.59371392974754E-33,0.));
#889=DIRECTION('center_axis',(-3.32401745319778E-62,-1.28156671985847E-29,
-1.));
#890=DIRECTION('ref_axis',(2.59371392974754E-33,1.,-1.28156671985847E-29));
#891=DIRECTION('center_axis',(2.59371392974754E-33,1.,0.));
#892=DIRECTION('ref_axis',(7.11228003565426E-46,-1.84472198007418E-78,1.));
#893=DIRECTION('',(1.,-2.59371392974754E-33,0.));
#894=DIRECTION('',(1.,-2.59371392974754E-33,0.));
#895=DIRECTION('center_axis',(-8.61764372837183E-66,-3.32251125674859E-33,
1.));
#896=DIRECTION('ref_axis',(-2.59371392974754E-33,-1.,-3.32251125674859E-33));
#897=DIRECTION('',(1.,-2.59371392974754E-33,0.));
#898=DIRECTION('center_axis',(-2.59371392974754E-33,-1.,0.));
#899=DIRECTION('ref_axis',(-7.11228003565426E-46,1.84472198007418E-78,-1.));
#900=DIRECTION('',(1.,-2.59371392974754E-33,0.));
#901=DIRECTION('center_axis',(8.61764372837183E-66,3.32251125674859E-33,
-1.));
#902=DIRECTION('ref_axis',(2.59371392974754E-33,1.,3.32251125674859E-33));
#903=DIRECTION('center_axis',(1.,-2.59371392974754E-33,0.));
#904=DIRECTION('ref_axis',(-2.59371392974754E-33,-1.,0.));
#905=DIRECTION('',(1.,-2.59371392974754E-33,0.));
#906=DIRECTION('',(2.22044604925031E-16,2.52435489670724E-29,-1.));
#907=DIRECTION('',(-1.,2.77555756156297E-17,-2.22044604925031E-16));
#908=DIRECTION('',(0.,0.,1.));
#909=DIRECTION('',(1.,0.,0.));
#910=DIRECTION('',(0.,0.,1.));
#911=DIRECTION('',(1.,0.,0.));
#912=DIRECTION('',(-1.27345531304144E-18,-5.80721936902099E-18,1.));
#913=DIRECTION('',(1.,-7.39523435947694E-36,1.27345531304144E-18));
#914=DIRECTION('',(0.,0.,1.));
#915=DIRECTION('',(1.,0.,0.));
#916=CARTESIAN_POINT('',(0.,0.,0.));
#917=CARTESIAN_POINT('',(0.,0.,0.));
#918=CARTESIAN_POINT('',(0.,0.,0.));
#919=CARTESIAN_POINT('',(0.,0.,0.));
#920=CARTESIAN_POINT('',(0.,0.,0.));
#921=CARTESIAN_POINT('',(0.,0.,0.));
#922=CARTESIAN_POINT('Origin',(-33.5000000000024,130.499999999977,19.8));
#923=CARTESIAN_POINT('',(-28.5000000000024,129.999999999977,19.8));
#924=CARTESIAN_POINT('',(-28.5000000000024,130.499999999977,20.3));
#925=CARTESIAN_POINT('Origin',(-28.5000000000024,130.499999999977,19.8));
#926=CARTESIAN_POINT('',(-33.5000000000024,130.499999999977,20.3));
#927=CARTESIAN_POINT('',(-33.5000000000024,130.499999999977,20.3));
#928=CARTESIAN_POINT('',(-33.5000000000024,129.999999999977,19.8));
#929=CARTESIAN_POINT('Origin',(-33.5000000000024,130.499999999977,19.8));
#930=CARTESIAN_POINT('',(-33.5000000000024,129.999999999977,19.8));
#931=CARTESIAN_POINT('Origin',(-33.5000000000024,140.899999999989,20.3));
#932=CARTESIAN_POINT('',(-28.5000000000024,140.399999999989,20.3));
#933=CARTESIAN_POINT('',(-28.5000000000024,129.999999999977,20.3));
#934=CARTESIAN_POINT('',(-33.5000000000024,140.399999999989,20.3));
#935=CARTESIAN_POINT('',(-33.5000000000024,140.399999999989,20.3));
#936=CARTESIAN_POINT('',(-33.5000000000024,129.999999999977,20.3));
#937=CARTESIAN_POINT('Origin',(-28.5000000000024,136.999999999983,-0.100000000000002));
#938=CARTESIAN_POINT('',(-28.5000000000024,129.999999999977,-19.2));
#939=CARTESIAN_POINT('',(-28.5000000000024,129.999999999977,-15.1));
#940=CARTESIAN_POINT('',(-28.5000000000024,130.499999999977,-19.7));
#941=CARTESIAN_POINT('Origin',(-28.5000000000024,130.499999999977,-19.2));
#942=CARTESIAN_POINT('',(-28.5000000000024,140.399999999989,-19.7));
#943=CARTESIAN_POINT('',(-28.5000000000024,129.999999999977,-19.7));
#944=CARTESIAN_POINT('',(-28.5000000000024,140.899999999989,-19.2));
#945=CARTESIAN_POINT('Origin',(-28.5000000000024,140.399999999989,-19.2));
#946=CARTESIAN_POINT('',(-28.5000000000024,140.899999999989,-15.6114378277661));
#947=CARTESIAN_POINT('',(-28.5000000000024,140.899999999989,-15.1));
#948=CARTESIAN_POINT('',(-28.5000000000024,140.774999999989,-15.2807189138831));
#949=CARTESIAN_POINT('Origin',(-28.5000000000024,140.399999999989,-15.6114378277661));
#950=CARTESIAN_POINT('',(-28.5000000000024,141.480718913872,-14.575));
#951=CARTESIAN_POINT('Origin',(-28.5000000000024,141.149999999989,-14.95));
#952=CARTESIAN_POINT('',(-28.5000000000024,141.811437827755,-14.7));
#953=CARTESIAN_POINT('Origin',(-28.5000000000024,141.811437827755,-14.2));
#954=CARTESIAN_POINT('',(-28.5000000000024,143.499999999989,-14.7));
#955=CARTESIAN_POINT('',(-28.5000000000024,140.899999999989,-14.7));
#956=CARTESIAN_POINT('',(-28.5000000000024,143.999999999989,-14.2));
#957=CARTESIAN_POINT('Origin',(-28.5000000000024,143.499999999989,-14.2));
#958=CARTESIAN_POINT('',(-28.5000000000024,143.999999999989,14.));
#959=CARTESIAN_POINT('',(-28.5000000000024,143.999999999989,-10.));
#960=CARTESIAN_POINT('',(-28.5000000000024,143.499999999989,14.5));
#961=CARTESIAN_POINT('Origin',(-28.5000000000024,143.499999999989,14.));
#962=CARTESIAN_POINT('',(-28.5000000000024,141.811437827755,14.5));
#963=CARTESIAN_POINT('',(-28.5000000000024,140.899999999989,14.5));
#964=CARTESIAN_POINT('',(-28.5000000000024,141.480718913872,14.375));
#965=CARTESIAN_POINT('Origin',(-28.5000000000024,141.811437827755,14.));
#966=CARTESIAN_POINT('',(-28.5000000000024,140.774999999989,15.0807189138831));
#967=CARTESIAN_POINT('Origin',(-28.5000000000024,141.149999999989,14.75));
#968=CARTESIAN_POINT('',(-28.5000000000024,140.899999999989,15.4114378277661));
#969=CARTESIAN_POINT('Origin',(-28.5000000000024,140.399999999989,15.4114378277661));
#970=CARTESIAN_POINT('',(-28.5000000000024,140.899999999989,19.8));
#971=CARTESIAN_POINT('',(-28.5000000000024,140.899999999989,14.9));
#972=CARTESIAN_POINT('Origin',(-28.5000000000024,140.399999999989,19.8));
#973=CARTESIAN_POINT('',(-28.5000000000024,137.599999999977,-0.0999999999999998));
#974=CARTESIAN_POINT('Origin',(-28.5000000000024,135.499999999977,-0.100000000000001));
#975=CARTESIAN_POINT('',(-28.5000000006558,132.699999999989,-7.80000000000001));
#976=CARTESIAN_POINT('',(-28.5000000006558,132.699999999989,-14.2));
#977=CARTESIAN_POINT('',(-28.5000000000024,132.699999999989,-4.59999999999999));
#978=CARTESIAN_POINT('',(-28.5000000006558,137.999999999989,-7.80000000000001));
#979=CARTESIAN_POINT('',(-28.5000000000024,134.999999999986,-7.80000000000001));
#980=CARTESIAN_POINT('',(-28.5000000006558,137.999999999989,-14.2));
#981=CARTESIAN_POINT('',(-28.5000000000024,137.999999999989,-3.85));
#982=CARTESIAN_POINT('',(-28.5000000000024,137.499999999986,-14.2));
#983=CARTESIAN_POINT('',(-28.5000000006558,132.699999999989,7.60000000000001));
#984=CARTESIAN_POINT('',(-28.5000000006558,132.699999999989,14.));
#985=CARTESIAN_POINT('',(-28.5000000000024,132.699999999989,4.39999999999999));
#986=CARTESIAN_POINT('',(-28.5000000006558,137.999999999989,14.));
#987=CARTESIAN_POINT('',(-28.5000000000024,137.499999999986,14.));
#988=CARTESIAN_POINT('',(-28.5000000006558,137.999999999989,7.60000000000001));
#989=CARTESIAN_POINT('',(-28.5000000000024,137.999999999989,3.65));
#990=CARTESIAN_POINT('',(-28.5000000000024,134.999999999986,7.60000000000001));
#991=CARTESIAN_POINT('Origin',(-33.5000000000024,140.399999999989,19.8));
#992=CARTESIAN_POINT('',(-33.5000000000024,140.899999999989,19.8));
#993=CARTESIAN_POINT('Origin',(-33.5000000000024,140.399999999989,19.8));
#994=CARTESIAN_POINT('',(-33.5000000000024,140.899999999989,19.8));
#995=CARTESIAN_POINT('Origin',(-33.5000000000024,140.899999999989,9.8));
#996=CARTESIAN_POINT('',(-33.5000000000024,140.899999999989,15.4114378277661));
#997=CARTESIAN_POINT('',(-29.0000000000024,140.899999999989,15.4114378277661));
#998=CARTESIAN_POINT('',(-33.5000000000024,140.899999999989,14.9));
#999=CARTESIAN_POINT('Origin',(-33.5000000000024,129.999999999977,14.9));
#1000=CARTESIAN_POINT('',(-33.5000000000024,129.999999999977,-19.2));
#1001=CARTESIAN_POINT('',(-33.5000000000024,129.999999999977,-15.1));
#1002=CARTESIAN_POINT('',(-33.5000000000024,129.999999999977,-19.2));
#1003=CARTESIAN_POINT('Origin',(-33.5000000000024,143.499999999989,-14.2));
#1004=CARTESIAN_POINT('',(-33.5000000000024,143.499999999989,-14.7));
#1005=CARTESIAN_POINT('',(-33.5000000000024,143.499999999989,-14.7));
#1006=CARTESIAN_POINT('',(-33.5000000000024,143.999999999989,-14.2));
#1007=CARTESIAN_POINT('Origin',(-33.5000000000024,143.499999999989,-14.2));
#1008=CARTESIAN_POINT('',(-33.5000000000024,143.999999999989,-14.2));
#1009=CARTESIAN_POINT('Origin',(-33.5000000000024,143.999999999989,-14.7));
#1010=CARTESIAN_POINT('',(-33.5000000000024,141.811437827755,-14.7));
#1011=CARTESIAN_POINT('',(-29.0000000000024,141.811437827755,-14.7));
#1012=CARTESIAN_POINT('',(-33.5000000000024,140.899999999989,-14.7));
#1013=CARTESIAN_POINT('Origin',(-29.0000000000024,141.811437827755,-14.2));
#1014=CARTESIAN_POINT('',(-33.5000000000024,141.480718913872,-14.575));
#1015=CARTESIAN_POINT('',(-29.0000000000024,141.480718913872,-14.575));
#1016=CARTESIAN_POINT('Origin',(-33.5000000000024,141.811437827755,-14.2));
#1017=CARTESIAN_POINT('Origin',(-29.0000000000024,141.149999999989,-14.95));
#1018=CARTESIAN_POINT('',(-33.5000000000024,140.774999999989,-15.2807189138831));
#1019=CARTESIAN_POINT('',(-29.0000000000024,140.774999999989,-15.2807189138831));
#1020=CARTESIAN_POINT('Origin',(-33.5000000000024,141.149999999989,-14.95));
#1021=CARTESIAN_POINT('Origin',(-29.0000000000024,140.399999999989,-15.6114378277661));
#1022=CARTESIAN_POINT('',(-33.5000000000024,140.899999999989,-15.6114378277661));
#1023=CARTESIAN_POINT('Origin',(-33.5000000000024,140.399999999989,-15.6114378277661));
#1024=CARTESIAN_POINT('',(-29.0000000000024,140.899999999989,-15.6114378277661));
#1025=CARTESIAN_POINT('Origin',(-33.5000000000024,140.899999999989,-10.));
#1026=CARTESIAN_POINT('',(-33.5000000000024,140.899999999989,-19.2));
#1027=CARTESIAN_POINT('',(-33.5000000000024,140.899999999989,-19.2));
#1028=CARTESIAN_POINT('',(-33.5000000000024,140.899999999989,-15.1));
#1029=CARTESIAN_POINT('Origin',(-33.5000000000024,143.999999999989,-10.));
#1030=CARTESIAN_POINT('',(-33.5000000000024,143.999999999989,14.));
#1031=CARTESIAN_POINT('',(-33.5000000000024,143.999999999989,-10.));
#1032=CARTESIAN_POINT('',(-33.5000000000024,143.999999999989,14.));
#1033=CARTESIAN_POINT('Origin',(-29.0000000000024,140.399999999989,15.4114378277661));
#1034=CARTESIAN_POINT('',(-33.5000000000024,140.774999999989,15.0807189138831));
#1035=CARTESIAN_POINT('',(-29.0000000000024,140.774999999989,15.0807189138831));
#1036=CARTESIAN_POINT('Origin',(-33.5000000000024,140.399999999989,15.4114378277661));
#1037=CARTESIAN_POINT('Origin',(-29.0000000000024,141.149999999989,14.75));
#1038=CARTESIAN_POINT('',(-33.5000000000024,141.480718913872,14.375));
#1039=CARTESIAN_POINT('',(-29.0000000000024,141.480718913872,14.375));
#1040=CARTESIAN_POINT('Origin',(-33.5000000000024,141.149999999989,14.75));
#1041=CARTESIAN_POINT('Origin',(-29.0000000000024,141.811437827755,14.));
#1042=CARTESIAN_POINT('',(-33.5000000000024,141.811437827755,14.5));
#1043=CARTESIAN_POINT('',(-29.0000000000024,141.811437827755,14.5));
#1044=CARTESIAN_POINT('Origin',(-33.5000000000024,141.811437827755,14.));
#1045=CARTESIAN_POINT('Origin',(-33.5000000000024,143.999999999989,14.5));
#1046=CARTESIAN_POINT('',(-33.5000000000024,143.499999999989,14.5));
#1047=CARTESIAN_POINT('',(-33.5000000000024,143.499999999989,14.5));
#1048=CARTESIAN_POINT('',(-33.5000000000024,140.899999999989,14.5));
#1049=CARTESIAN_POINT('Origin',(-33.5000000000024,143.499999999989,14.));
#1050=CARTESIAN_POINT('Origin',(-33.5000000000024,143.499999999989,14.));
#1051=CARTESIAN_POINT('Origin',(-33.5000000000024,140.399999999989,-19.2));
#1052=CARTESIAN_POINT('',(-33.5000000000024,140.399999999989,-19.7));
#1053=CARTESIAN_POINT('',(-33.5000000000024,140.399999999989,-19.7));
#1054=CARTESIAN_POINT('Origin',(-33.5000000000024,140.399999999989,-19.2));
#1055=CARTESIAN_POINT('Origin',(-33.5000000000024,140.899999999989,-19.7));
#1056=CARTESIAN_POINT('',(-33.5000000000024,130.499999999977,-19.7));
#1057=CARTESIAN_POINT('',(-33.5000000000024,130.499999999977,-19.7));
#1058=CARTESIAN_POINT('',(-33.5000000000024,129.999999999977,-19.7));
#1059=CARTESIAN_POINT('Origin',(-33.5000000000024,130.499999999977,-19.2));
#1060=CARTESIAN_POINT('Origin',(-33.5000000000024,130.499999999977,-19.2));
#1061=CARTESIAN_POINT('Origin',(-33.5000000000024,136.999999999983,-0.100000000000002));
#1062=CARTESIAN_POINT('',(-33.5000000000024,132.699999999989,-14.2));
#1063=CARTESIAN_POINT('',(-33.5000000000024,132.699999999989,-7.80000000000001));
#1064=CARTESIAN_POINT('',(-33.5000000000024,132.699999999989,-4.59999999999999));
#1065=CARTESIAN_POINT('',(-33.5000000000024,137.999999999989,-14.2));
#1066=CARTESIAN_POINT('',(-33.5000000000024,137.499999999986,-14.2));
#1067=CARTESIAN_POINT('',(-33.5000000000024,137.999999999989,-7.80000000000001));
#1068=CARTESIAN_POINT('',(-33.5000000000024,137.999999999989,-3.85));
#1069=CARTESIAN_POINT('',(-33.5000000000024,134.999999999986,-7.80000000000001));
#1070=CARTESIAN_POINT('',(-33.5000000000024,132.699999999989,14.));
#1071=CARTESIAN_POINT('',(-33.5000000000024,132.699999999989,7.60000000000001));
#1072=CARTESIAN_POINT('',(-33.5000000000024,132.699999999989,4.39999999999999));
#1073=CARTESIAN_POINT('',(-33.5000000000024,137.999999999989,7.60000000000001));
#1074=CARTESIAN_POINT('',(-33.5000000000024,134.999999999986,7.60000000000001));
#1075=CARTESIAN_POINT('',(-33.5000000000024,137.999999999989,14.));
#1076=CARTESIAN_POINT('',(-33.5000000000024,137.999999999989,3.65));
#1077=CARTESIAN_POINT('',(-33.5000000000024,137.499999999986,14.));
#1078=CARTESIAN_POINT('',(-33.5000000000024,137.599999999977,-0.0999999999999998));
#1079=CARTESIAN_POINT('Origin',(-33.5000000000024,135.499999999977,-0.1));
#1080=CARTESIAN_POINT('Origin',(-38.5000000000025,137.999999999989,-7.60000000000001));
#1081=CARTESIAN_POINT('',(-38.5000000000025,137.999999999989,-14.2));
#1082=CARTESIAN_POINT('',(-38.5000000000025,137.999999999989,-7.80000000000001));
#1083=CARTESIAN_POINT('Origin',(-38.5000000000025,137.999999999989,-14.2));
#1084=CARTESIAN_POINT('',(-38.5000000000025,132.699999999989,-14.2));
#1085=CARTESIAN_POINT('Origin',(-38.5000000000025,132.699999999989,-9.09999999999999));
#1086=CARTESIAN_POINT('',(-38.5000000000025,132.699999999989,-7.80000000000001));
#1087=CARTESIAN_POINT('Origin',(-38.5000000000025,132.999999999989,-7.80000000000001));
#1088=CARTESIAN_POINT('Origin',(-38.5000000000025,137.999999999989,7.40000000000001));
#1089=CARTESIAN_POINT('',(-38.5000000000025,137.999999999989,7.60000000000001));
#1090=CARTESIAN_POINT('',(-38.5000000000025,137.999999999989,14.));
#1091=CARTESIAN_POINT('Origin',(-38.5000000000025,137.999999999989,14.));
#1092=CARTESIAN_POINT('',(-38.5000000000025,132.699999999989,14.));
#1093=CARTESIAN_POINT('Origin',(-38.5000000000025,132.699999999989,8.89999999999999));
#1094=CARTESIAN_POINT('',(-38.5000000000025,132.699999999989,7.60000000000001));
#1095=CARTESIAN_POINT('Origin',(-38.5000000000025,132.999999999989,7.60000000000001));
#1096=CARTESIAN_POINT('Origin',(-29.0000000000024,135.499999999977,-0.1));
#1097=CARTESIAN_POINT('',(-29.0000000000024,137.599999999977,-0.0999999999999998));
#1098=CARTESIAN_POINT('',(-124.999999999999,44.9999999999988,0.300000000000065));
#1099=CARTESIAN_POINT('',(0.,0.,0.));
#1100=CARTESIAN_POINT('',(0.,450.,600.));
#1101=CARTESIAN_POINT('',(-131.999719137405,-286.5,94.9999680325012));
#1102=CARTESIAN_POINT('',(0.,0.,0.));
#1103=UNCERTAINTY_MEASURE_WITH_UNIT(LENGTH_MEASURE(0.01),#1117,
'DISTANCE_ACCURACY_VALUE',
'Maximum model space distance between geometric entities at asserted c
onnectivities');
#1104=UNCERTAINTY_MEASURE_WITH_UNIT(LENGTH_MEASURE(0.01),#1117,
'DISTANCE_ACCURACY_VALUE',
'Maximum model space distance between geometric entities at asserted c
onnectivities');
#1105=UNCERTAINTY_MEASURE_WITH_UNIT(LENGTH_MEASURE(0.01),#1117,
'DISTANCE_ACCURACY_VALUE',
'Maximum model space distance between geometric entities at asserted c
onnectivities');
#1106=UNCERTAINTY_MEASURE_WITH_UNIT(LENGTH_MEASURE(0.01),#1117,
'DISTANCE_ACCURACY_VALUE',
'Maximum model space distance between geometric entities at asserted c
onnectivities');
#1107=UNCERTAINTY_MEASURE_WITH_UNIT(LENGTH_MEASURE(0.01),#1117,
'DISTANCE_ACCURACY_VALUE',
'Maximum model space distance between geometric entities at asserted c
onnectivities');
#1108=UNCERTAINTY_MEASURE_WITH_UNIT(LENGTH_MEASURE(0.01),#1117,
'DISTANCE_ACCURACY_VALUE',
'Maximum model space distance between geometric entities at asserted c
onnectivities');
#1109=UNCERTAINTY_MEASURE_WITH_UNIT(LENGTH_MEASURE(0.01),#1117,
'DISTANCE_ACCURACY_VALUE',
'Maximum model space distance between geometric entities at asserted c
onnectivities');
#1110=(
GEOMETRIC_REPRESENTATION_CONTEXT(3)
GLOBAL_UNCERTAINTY_ASSIGNED_CONTEXT((#1103))
GLOBAL_UNIT_ASSIGNED_CONTEXT((#1117,#1119,#1120))
REPRESENTATION_CONTEXT('','3D')
);
#1111=(
GEOMETRIC_REPRESENTATION_CONTEXT(3)
GLOBAL_UNCERTAINTY_ASSIGNED_CONTEXT((#1104))
GLOBAL_UNIT_ASSIGNED_CONTEXT((#1117,#1119,#1120))
REPRESENTATION_CONTEXT('','3D')
);
#1112=(
GEOMETRIC_REPRESENTATION_CONTEXT(3)
GLOBAL_UNCERTAINTY_ASSIGNED_CONTEXT((#1105))
GLOBAL_UNIT_ASSIGNED_CONTEXT((#1117,#1119,#1120))
REPRESENTATION_CONTEXT('','3D')
);
#1113=(
GEOMETRIC_REPRESENTATION_CONTEXT(3)
GLOBAL_UNCERTAINTY_ASSIGNED_CONTEXT((#1106))
GLOBAL_UNIT_ASSIGNED_CONTEXT((#1117,#1119,#1120))
REPRESENTATION_CONTEXT('','3D')
);
#1114=(
GEOMETRIC_REPRESENTATION_CONTEXT(3)
GLOBAL_UNCERTAINTY_ASSIGNED_CONTEXT((#1107))
GLOBAL_UNIT_ASSIGNED_CONTEXT((#1117,#1119,#1120))
REPRESENTATION_CONTEXT('','3D')
);
#1115=(
GEOMETRIC_REPRESENTATION_CONTEXT(3)
GLOBAL_UNCERTAINTY_ASSIGNED_CONTEXT((#1108))
GLOBAL_UNIT_ASSIGNED_CONTEXT((#1117,#1119,#1120))
REPRESENTATION_CONTEXT('','3D')
);
#1116=(
GEOMETRIC_REPRESENTATION_CONTEXT(3)
GLOBAL_UNCERTAINTY_ASSIGNED_CONTEXT((#1109))
GLOBAL_UNIT_ASSIGNED_CONTEXT((#1117,#1119,#1120))
REPRESENTATION_CONTEXT('','3D')
);
#1117=(
LENGTH_UNIT()
NAMED_UNIT(*)
SI_UNIT(.MILLI.,.METRE.)
);
#1118=(
LENGTH_UNIT()
NAMED_UNIT(*)
SI_UNIT($,.METRE.)
);
#1119=(
NAMED_UNIT(*)
PLANE_ANGLE_UNIT()
SI_UNIT($,.RADIAN.)
);
#1120=(
NAMED_UNIT(*)
SI_UNIT($,.STERADIAN.)
SOLID_ANGLE_UNIT()
);
#1121=SHAPE_DEFINITION_REPRESENTATION(#1127,#1138);
#1122=SHAPE_DEFINITION_REPRESENTATION(#1128,#1139);
#1123=SHAPE_DEFINITION_REPRESENTATION(#1129,#1140);
#1124=SHAPE_DEFINITION_REPRESENTATION(#1130,#1141);
#1125=SHAPE_DEFINITION_REPRESENTATION(#1131,#1142);
#1126=SHAPE_DEFINITION_REPRESENTATION(#1132,#1143);
#1127=PRODUCT_DEFINITION_SHAPE('',$,#1145);
#1128=PRODUCT_DEFINITION_SHAPE('',$,#1146);
#1129=PRODUCT_DEFINITION_SHAPE('',$,#1147);
#1130=PRODUCT_DEFINITION_SHAPE('',$,#1148);
#1131=PRODUCT_DEFINITION_SHAPE('',$,#1149);
#1132=PRODUCT_DEFINITION_SHAPE('',$,#1150);
#1133=PRODUCT_DEFINITION_SHAPE($,$,#26);
#1134=PRODUCT_DEFINITION_SHAPE($,$,#27);
#1135=PRODUCT_DEFINITION_SHAPE($,$,#28);
#1136=PRODUCT_DEFINITION_SHAPE($,$,#29);
#1137=PRODUCT_DEFINITION_SHAPE($,$,#30);
#1138=SHAPE_REPRESENTATION('',(#651,#718),#1110);
#1139=SHAPE_REPRESENTATION('',(#652,#717),#1111);
#1140=SHAPE_REPRESENTATION('',(#653,#716),#1112);
#1141=SHAPE_REPRESENTATION('',(#654,#715),#1113);
#1142=SHAPE_REPRESENTATION('',(#655,#714),#1114);
#1143=SHAPE_REPRESENTATION('',(#656),#1115);
#1144=PRODUCT_DEFINITION_CONTEXT('part definition',#1164,'design');
#1145=PRODUCT_DEFINITION('2026-08-09-21-43-37-793','(Unsaved)',#1151,#1144);
#1146=PRODUCT_DEFINITION('2026-08-14-10-18-47-270',
'3030 Rear Motor Assemblies',#1152,#1144);
#1147=PRODUCT_DEFINITION('2026-08-14-10-18-47-280',
'3030 Left Rear Motor Assemblies.stp',#1153,#1144);
#1148=PRODUCT_DEFINITION('2026-08-14-10-18-47-280_1',
'_31_Sheet_metal_VT_9mm_rear_motor_mounts_FT_0',#1154,#1144);
#1149=PRODUCT_DEFINITION('2026-08-14-10-18-47-280_2',
'_Sheet_metal_VT_9mm_rear_left_motor_mount (1)',#1155,#1144);
#1150=PRODUCT_DEFINITION('2026-08-14-10-18-47-278_2',
'Sheet_metal_9mm_tensioner_b_4.7-5mm (1) (1)',#1156,#1144);
#1151=PRODUCT_DEFINITION_FORMATION('',$,#1166);
#1152=PRODUCT_DEFINITION_FORMATION('',$,#1167);
#1153=PRODUCT_DEFINITION_FORMATION('',$,#1168);
#1154=PRODUCT_DEFINITION_FORMATION('',$,#1169);
#1155=PRODUCT_DEFINITION_FORMATION('',$,#1170);
#1156=PRODUCT_DEFINITION_FORMATION('',$,#1171);
#1157=PRODUCT_RELATED_PRODUCT_CATEGORY('(Unsaved)','(Unsaved)',(#1166));
#1158=PRODUCT_RELATED_PRODUCT_CATEGORY('3030 Rear Motor Assemblies',
'3030 Rear Motor Assemblies',(#1167));
#1159=PRODUCT_RELATED_PRODUCT_CATEGORY(
'3030 Left Rear Motor Assemblies.stp',
'3030 Left Rear Motor Assemblies.stp',(#1168));
#1160=PRODUCT_RELATED_PRODUCT_CATEGORY(
'_31_Sheet_metal_VT_9mm_rear_motor_mounts_FT_0',
'_31_Sheet_metal_VT_9mm_rear_motor_mounts_FT_0',(#1169));
#1161=PRODUCT_RELATED_PRODUCT_CATEGORY(
'_Sheet_metal_VT_9mm_rear_left_motor_mount (1)',
'_Sheet_metal_VT_9mm_rear_left_motor_mount (1)',(#1170));
#1162=PRODUCT_RELATED_PRODUCT_CATEGORY(
'Sheet_metal_9mm_tensioner_b_4.7-5mm (1) (1)',
'Sheet_metal_9mm_tensioner_b_4.7-5mm (1) (1)',(#1171));
#1163=APPLICATION_PROTOCOL_DEFINITION('international standard',
'automotive_design',2009,#1164);
#1164=APPLICATION_CONTEXT(
'Core Data for Automotive Mechanical Design Process');
#1165=PRODUCT_CONTEXT('part definition',#1164,'mechanical');
#1166=PRODUCT('2026-08-09-21-43-37-793','(Unsaved)',$,(#1165));
#1167=PRODUCT('2026-08-14-10-18-47-270','3030 Rear Motor Assemblies',$,
(#1165));
#1168=PRODUCT('2026-08-14-10-18-47-280',
'3030 Left Rear Motor Assemblies.stp',$,(#1165));
#1169=PRODUCT('2026-08-14-10-18-47-280_1',
'_31_Sheet_metal_VT_9mm_rear_motor_mounts_FT_0',$,(#1165));
#1170=PRODUCT('2026-08-14-10-18-47-280_2',
'_Sheet_metal_VT_9mm_rear_left_motor_mount (1)',$,(#1165));
#1171=PRODUCT('2026-08-14-10-18-47-278_2',
'Sheet_metal_9mm_tensioner_b_4.7-5mm (1) (1)',$,(#1165));
#1172=PRESENTATION_STYLE_ASSIGNMENT((#1175));
#1173=PRESENTATION_STYLE_ASSIGNMENT((#1176));
#1174=PRESENTATION_STYLE_ASSIGNMENT((#1177));
#1175=SURFACE_STYLE_USAGE(.BOTH.,#1178);
#1176=SURFACE_STYLE_USAGE(.BOTH.,#1179);
#1177=SURFACE_STYLE_USAGE(.BOTH.,#1180);
#1178=SURFACE_SIDE_STYLE('',(#1181));
#1179=SURFACE_SIDE_STYLE('',(#1182));
#1180=SURFACE_SIDE_STYLE('',(#1183));
#1181=SURFACE_STYLE_FILL_AREA(#1184);
#1182=SURFACE_STYLE_FILL_AREA(#1185);
#1183=SURFACE_STYLE_FILL_AREA(#1186);
#1184=FILL_AREA_STYLE('Steel - Satin',(#1187));
#1185=FILL_AREA_STYLE('Opaque(137,137,137)',(#1188));
#1186=FILL_AREA_STYLE('Opaque(245,245,246)',(#1189));
#1187=FILL_AREA_STYLE_COLOUR('Steel - Satin',#1190);
#1188=FILL_AREA_STYLE_COLOUR('Opaque(137,137,137)',#1191);
#1189=FILL_AREA_STYLE_COLOUR('Opaque(245,245,246)',#1192);
#1190=COLOUR_RGB('Steel - Satin',0.627450980392157,0.627450980392157,0.627450980392157);
#1191=COLOUR_RGB('Opaque(137,137,137)',0.537254901960784,0.537254901960784,
0.537254901960784);
#1192=COLOUR_RGB('Opaque(245,245,246)',0.96078431372549,0.96078431372549,
0.964705882352941);
ENDSEC;
END-ISO-10303-21;
