ISO-10303-21;
HEADER;
/* Generated by software containing ST-Developer
 * from STEP Tools, Inc. (www.steptools.com) 
 */

FILE_DESCRIPTION(
/* description */ (''),
/* implementation_level */ '2;1');

FILE_NAME(
/* name */ '4x Sheet_metal_9mm_spacer_c_1.5mm.step',
/* time_stamp */ '2026-08-22T21:23:27-05:00',
/* author */ (''),
/* organization */ (''),
/* preprocessor_version */ 'ST-DEVELOPER v20.1',
/* originating_system */ 'Autodesk Translation Framework v15.8.0.0',
/* authorisation */ '');

FILE_SCHEMA (('AUTOMOTIVE_DESIGN { 1 0 10303 214 3 1 1 }'));
ENDSEC;

DATA;
#10=MECHANICAL_DESIGN_GEOMETRIC_PRESENTATION_REPRESENTATION('',(#21),#1525);
#11=ITEM_DEFINED_TRANSFORMATION($,$,#884,#981);
#12=ITEM_DEFINED_TRANSFORMATION($,$,#883,#982);
#13=(
REPRESENTATION_RELATIONSHIP($,$,#1540,#1539)
REPRESENTATION_RELATIONSHIP_WITH_TRANSFORMATION(#11)
SHAPE_REPRESENTATION_RELATIONSHIP()
);
#14=(
REPRESENTATION_RELATIONSHIP($,$,#1539,#1538)
REPRESENTATION_RELATIONSHIP_WITH_TRANSFORMATION(#12)
SHAPE_REPRESENTATION_RELATIONSHIP()
);
#15=CONTEXT_DEPENDENT_SHAPE_REPRESENTATION(#13,#1536);
#16=CONTEXT_DEPENDENT_SHAPE_REPRESENTATION(#14,#1537);
#17=NEXT_ASSEMBLY_USAGE_OCCURRENCE(
'Sheet_metal_9mm_spacer_c_2x2.5_or_5mm (2) (1):1',
'Sheet_metal_9mm_spacer_c_2x2.5_or_5mm (2) (1):1',
'Sheet_metal_9mm_spacer_c_2x2.5_or_5mm (2) (1):1',#1543,#1544,
'Sheet_metal_9mm_spacer_c_2x2.5_or_5mm (2) (1):1');
#18=NEXT_ASSEMBLY_USAGE_OCCURRENCE(
'_Sheet_metal_9mm_AWD_left_XY_joint (1) (1):1',
'_Sheet_metal_9mm_AWD_left_XY_joint (1) (1):1',
'_Sheet_metal_9mm_AWD_left_XY_joint (1) (1):1',#1542,#1543,
'_Sheet_metal_9mm_AWD_left_XY_joint (1) (1):1');
#19=SHAPE_REPRESENTATION_RELATIONSHIP('SRR','None',#1540,#20);
#20=ADVANCED_BREP_SHAPE_REPRESENTATION('',(#22),#1524);
#21=STYLED_ITEM('',(#1558),#22);
#22=MANIFOLD_SOLID_BREP('Body1',#869);
#23=CYLINDRICAL_SURFACE('',#912,0.5);
#24=CYLINDRICAL_SURFACE('',#915,0.500000000000007);
#25=CYLINDRICAL_SURFACE('',#917,0.500000000000024);
#26=CYLINDRICAL_SURFACE('',#920,0.500000000000003);
#27=CYLINDRICAL_SURFACE('',#922,0.5);
#28=CYLINDRICAL_SURFACE('',#925,0.499999999999998);
#29=CYLINDRICAL_SURFACE('',#927,0.500000000000018);
#30=CYLINDRICAL_SURFACE('',#929,0.499999999999999);
#31=CYLINDRICAL_SURFACE('',#932,1.5);
#32=CYLINDRICAL_SURFACE('',#935,1.5);
#33=CYLINDRICAL_SURFACE('',#938,1.50000499016666);
#34=CYLINDRICAL_SURFACE('',#941,1.50000000000002);
#35=CYLINDRICAL_SURFACE('',#959,1.49999999999962);
#36=CYLINDRICAL_SURFACE('',#961,1.49999759932389);
#37=CYLINDRICAL_SURFACE('',#963,0.5);
#38=CYLINDRICAL_SURFACE('',#965,0.499999999999999);
#39=CYLINDRICAL_SURFACE('',#967,0.500000000000025);
#40=CYLINDRICAL_SURFACE('',#968,1.5);
#41=CYLINDRICAL_SURFACE('',#970,1.5);
#42=CYLINDRICAL_SURFACE('',#972,0.5);
#43=CYLINDRICAL_SURFACE('',#975,1.54999999999999);
#44=CYLINDRICAL_SURFACE('',#976,1.54999999999999);
#45=CYLINDRICAL_SURFACE('',#977,0.500000000000025);
#46=CYLINDRICAL_SURFACE('',#978,0.500000000000024);
#47=CYLINDRICAL_SURFACE('',#979,0.499999999999992);
#48=CYLINDRICAL_SURFACE('',#980,0.499999999999995);
#49=FACE_BOUND('',#98,.T.);
#50=FACE_BOUND('',#99,.T.);
#51=FACE_BOUND('',#121,.T.);
#52=FACE_BOUND('',#122,.T.);
#53=FACE_OUTER_BOUND('',#97,.T.);
#54=FACE_OUTER_BOUND('',#100,.T.);
#55=FACE_OUTER_BOUND('',#101,.T.);
#56=FACE_OUTER_BOUND('',#102,.T.);
#57=FACE_OUTER_BOUND('',#103,.T.);
#58=FACE_OUTER_BOUND('',#104,.T.);
#59=FACE_OUTER_BOUND('',#105,.T.);
#60=FACE_OUTER_BOUND('',#106,.T.);
#61=FACE_OUTER_BOUND('',#107,.T.);
#62=FACE_OUTER_BOUND('',#108,.T.);
#63=FACE_OUTER_BOUND('',#109,.T.);
#64=FACE_OUTER_BOUND('',#110,.T.);
#65=FACE_OUTER_BOUND('',#111,.T.);
#66=FACE_OUTER_BOUND('',#112,.T.);
#67=FACE_OUTER_BOUND('',#113,.T.);
#68=FACE_OUTER_BOUND('',#114,.T.);
#69=FACE_OUTER_BOUND('',#115,.T.);
#70=FACE_OUTER_BOUND('',#116,.T.);
#71=FACE_OUTER_BOUND('',#117,.T.);
#72=FACE_OUTER_BOUND('',#118,.T.);
#73=FACE_OUTER_BOUND('',#119,.T.);
#74=FACE_OUTER_BOUND('',#120,.T.);
#75=FACE_OUTER_BOUND('',#123,.T.);
#76=FACE_OUTER_BOUND('',#124,.T.);
#77=FACE_OUTER_BOUND('',#125,.T.);
#78=FACE_OUTER_BOUND('',#126,.T.);
#79=FACE_OUTER_BOUND('',#127,.T.);
#80=FACE_OUTER_BOUND('',#128,.T.);
#81=FACE_OUTER_BOUND('',#129,.T.);
#82=FACE_OUTER_BOUND('',#130,.T.);
#83=FACE_OUTER_BOUND('',#131,.T.);
#84=FACE_OUTER_BOUND('',#132,.T.);
#85=FACE_OUTER_BOUND('',#133,.T.);
#86=FACE_OUTER_BOUND('',#134,.T.);
#87=FACE_OUTER_BOUND('',#135,.T.);
#88=FACE_OUTER_BOUND('',#136,.T.);
#89=FACE_OUTER_BOUND('',#137,.T.);
#90=FACE_OUTER_BOUND('',#138,.T.);
#91=FACE_OUTER_BOUND('',#139,.T.);
#92=FACE_OUTER_BOUND('',#140,.T.);
#93=FACE_OUTER_BOUND('',#141,.T.);
#94=FACE_OUTER_BOUND('',#142,.T.);
#95=FACE_OUTER_BOUND('',#143,.T.);
#96=FACE_OUTER_BOUND('',#144,.T.);
#97=EDGE_LOOP('',(#555,#556,#557,#558,#559,#560,#561,#562,#563,#564,#565,
#566,#567,#568,#569,#570,#571,#572,#573,#574,#575,#576,#577,#578,#579,#580,
#581,#582,#583,#584,#585,#586,#587,#588,#589,#590,#591,#592,#593,#594));
#98=EDGE_LOOP('',(#595));
#99=EDGE_LOOP('',(#596));
#100=EDGE_LOOP('',(#597,#598,#599,#600));
#101=EDGE_LOOP('',(#601,#602,#603,#604));
#102=EDGE_LOOP('',(#605,#606,#607,#608));
#103=EDGE_LOOP('',(#609,#610,#611,#612));
#104=EDGE_LOOP('',(#613,#614,#615,#616));
#105=EDGE_LOOP('',(#617,#618,#619,#620));
#106=EDGE_LOOP('',(#621,#622,#623,#624));
#107=EDGE_LOOP('',(#625,#626,#627,#628));
#108=EDGE_LOOP('',(#629,#630,#631,#632));
#109=EDGE_LOOP('',(#633,#634,#635,#636));
#110=EDGE_LOOP('',(#637,#638,#639,#640));
#111=EDGE_LOOP('',(#641,#642,#643,#644));
#112=EDGE_LOOP('',(#645,#646,#647,#648));
#113=EDGE_LOOP('',(#649,#650,#651,#652));
#114=EDGE_LOOP('',(#653,#654,#655,#656));
#115=EDGE_LOOP('',(#657,#658,#659,#660));
#116=EDGE_LOOP('',(#661,#662,#663,#664));
#117=EDGE_LOOP('',(#665,#666,#667,#668));
#118=EDGE_LOOP('',(#669,#670,#671,#672));
#119=EDGE_LOOP('',(#673,#674,#675,#676));
#120=EDGE_LOOP('',(#677,#678,#679,#680,#681,#682,#683,#684,#685,#686,#687,
#688,#689,#690,#691,#692,#693,#694,#695,#696,#697,#698,#699,#700,#701,#702,
#703,#704,#705,#706,#707,#708,#709,#710,#711,#712,#713,#714,#715,#716));
#121=EDGE_LOOP('',(#717));
#122=EDGE_LOOP('',(#718));
#123=EDGE_LOOP('',(#719,#720,#721,#722));
#124=EDGE_LOOP('',(#723,#724,#725,#726));
#125=EDGE_LOOP('',(#727,#728,#729,#730));
#126=EDGE_LOOP('',(#731,#732,#733,#734));
#127=EDGE_LOOP('',(#735,#736,#737,#738));
#128=EDGE_LOOP('',(#739,#740,#741,#742));
#129=EDGE_LOOP('',(#743,#744,#745,#746));
#130=EDGE_LOOP('',(#747,#748,#749,#750));
#131=EDGE_LOOP('',(#751,#752,#753,#754));
#132=EDGE_LOOP('',(#755,#756,#757,#758));
#133=EDGE_LOOP('',(#759,#760,#761,#762));
#134=EDGE_LOOP('',(#763,#764,#765,#766));
#135=EDGE_LOOP('',(#767,#768,#769,#770));
#136=EDGE_LOOP('',(#771,#772,#773,#774));
#137=EDGE_LOOP('',(#775,#776,#777,#778));
#138=EDGE_LOOP('',(#779,#780,#781,#782));
#139=EDGE_LOOP('',(#783,#784,#785,#786));
#140=EDGE_LOOP('',(#787,#788,#789,#790));
#141=EDGE_LOOP('',(#791,#792,#793,#794));
#142=EDGE_LOOP('',(#795,#796,#797,#798));
#143=EDGE_LOOP('',(#799,#800,#801,#802));
#144=EDGE_LOOP('',(#803,#804,#805,#806));
#145=CIRCLE('',#886,1.50000000000002);
#146=CIRCLE('',#887,1.50000499016666);
#147=CIRCLE('',#888,1.5);
#148=CIRCLE('',#889,1.5);
#149=CIRCLE('',#890,0.499999999999999);
#150=CIRCLE('',#891,0.500000000000018);
#151=CIRCLE('',#892,0.499999999999998);
#152=CIRCLE('',#893,0.5);
#153=CIRCLE('',#894,0.500000000000003);
#154=CIRCLE('',#895,0.500000000000024);
#155=CIRCLE('',#896,0.500000000000007);
#156=CIRCLE('',#897,0.5);
#157=CIRCLE('',#898,0.5);
#158=CIRCLE('',#899,0.499999999999995);
#159=CIRCLE('',#900,0.500000000000025);
#160=CIRCLE('',#901,0.5);
#161=CIRCLE('',#902,0.499999999999999);
#162=CIRCLE('',#903,0.499999999999992);
#163=CIRCLE('',#904,0.500000000000024);
#164=CIRCLE('',#905,0.500000000000025);
#165=CIRCLE('',#906,1.5);
#166=CIRCLE('',#907,1.5);
#167=CIRCLE('',#908,1.49999999999962);
#168=CIRCLE('',#909,1.49999759932389);
#169=CIRCLE('',#910,1.54999999999999);
#170=CIRCLE('',#911,1.54999999999999);
#171=CIRCLE('',#913,0.5);
#172=CIRCLE('',#916,0.500000000000007);
#173=CIRCLE('',#918,0.500000000000024);
#174=CIRCLE('',#921,0.500000000000003);
#175=CIRCLE('',#923,0.5);
#176=CIRCLE('',#926,0.499999999999998);
#177=CIRCLE('',#928,0.500000000000018);
#178=CIRCLE('',#930,0.499999999999999);
#179=CIRCLE('',#933,1.5);
#180=CIRCLE('',#936,1.5);
#181=CIRCLE('',#939,1.50000499016666);
#182=CIRCLE('',#942,1.50000000000002);
#183=CIRCLE('',#945,1.49999759932389);
#184=CIRCLE('',#946,1.49999999999962);
#185=CIRCLE('',#947,1.5);
#186=CIRCLE('',#948,1.5);
#187=CIRCLE('',#949,0.500000000000025);
#188=CIRCLE('',#950,0.500000000000024);
#189=CIRCLE('',#951,0.499999999999992);
#190=CIRCLE('',#952,0.499999999999999);
#191=CIRCLE('',#953,0.5);
#192=CIRCLE('',#954,0.500000000000025);
#193=CIRCLE('',#955,0.499999999999995);
#194=CIRCLE('',#956,0.5);
#195=CIRCLE('',#957,1.54999999999999);
#196=CIRCLE('',#958,1.54999999999999);
#197=LINE('',#1265,#271);
#198=LINE('',#1269,#272);
#199=LINE('',#1273,#273);
#200=LINE('',#1277,#274);
#201=LINE('',#1281,#275);
#202=LINE('',#1289,#276);
#203=LINE('',#1295,#277);
#204=LINE('',#1301,#278);
#205=LINE('',#1305,#279);
#206=LINE('',#1309,#280);
#207=LINE('',#1315,#281);
#208=LINE('',#1321,#282);
#209=LINE('',#1329,#283);
#210=LINE('',#1333,#284);
#211=LINE('',#1337,#285);
#212=LINE('',#1341,#286);
#213=LINE('',#1349,#287);
#214=LINE('',#1352,#288);
#215=LINE('',#1355,#289);
#216=LINE('',#1356,#290);
#217=LINE('',#1359,#291);
#218=LINE('',#1363,#292);
#219=LINE('',#1367,#293);
#220=LINE('',#1368,#294);
#221=LINE('',#1371,#295);
#222=LINE('',#1375,#296);
#223=LINE('',#1379,#297);
#224=LINE('',#1380,#298);
#225=LINE('',#1383,#299);
#226=LINE('',#1387,#300);
#227=LINE('',#1391,#301);
#228=LINE('',#1395,#302);
#229=LINE('',#1396,#303);
#230=LINE('',#1399,#304);
#231=LINE('',#1403,#305);
#232=LINE('',#1404,#306);
#233=LINE('',#1407,#307);
#234=LINE('',#1411,#308);
#235=LINE('',#1412,#309);
#236=LINE('',#1415,#310);
#237=LINE('',#1419,#311);
#238=LINE('',#1420,#312);
#239=LINE('',#1423,#313);
#240=LINE('',#1427,#314);
#241=LINE('',#1428,#315);
#242=LINE('',#1433,#316);
#243=LINE('',#1437,#317);
#244=LINE('',#1441,#318);
#245=LINE('',#1445,#319);
#246=LINE('',#1453,#320);
#247=LINE('',#1459,#321);
#248=LINE('',#1465,#322);
#249=LINE('',#1468,#323);
#250=LINE('',#1474,#324);
#251=LINE('',#1475,#325);
#252=LINE('',#1477,#326);
#253=LINE('',#1480,#327);
#254=LINE('',#1482,#328);
#255=LINE('',#1483,#329);
#256=LINE('',#1485,#330);
#257=LINE('',#1487,#331);
#258=LINE('',#1489,#332);
#259=LINE('',#1491,#333);
#260=LINE('',#1493,#334);
#261=LINE('',#1495,#335);
#262=LINE('',#1497,#336);
#263=LINE('',#1499,#337);
#264=LINE('',#1501,#338);
#265=LINE('',#1502,#339);
#266=LINE('',#1505,#340);
#267=LINE('',#1507,#341);
#268=LINE('',#1509,#342);
#269=LINE('',#1511,#343);
#270=LINE('',#1513,#344);
#271=VECTOR('',#991,10.);
#272=VECTOR('',#994,10.);
#273=VECTOR('',#997,10.);
#274=VECTOR('',#1000,10.);
#275=VECTOR('',#1003,10.);
#276=VECTOR('',#1010,10.);
#277=VECTOR('',#1015,10.);
#278=VECTOR('',#1020,10.);
#279=VECTOR('',#1023,10.);
#280=VECTOR('',#1026,10.);
#281=VECTOR('',#1031,10.);
#282=VECTOR('',#1036,10.);
#283=VECTOR('',#1043,10.);
#284=VECTOR('',#1046,10.);
#285=VECTOR('',#1049,10.);
#286=VECTOR('',#1052,10.);
#287=VECTOR('',#1061,10.);
#288=VECTOR('',#1064,10.);
#289=VECTOR('',#1067,10.);
#290=VECTOR('',#1068,10.);
#291=VECTOR('',#1071,10.);
#292=VECTOR('',#1076,10.);
#293=VECTOR('',#1081,0.5);
#294=VECTOR('',#1082,10.);
#295=VECTOR('',#1085,10.);
#296=VECTOR('',#1090,10.);
#297=VECTOR('',#1095,10.);
#298=VECTOR('',#1096,10.);
#299=VECTOR('',#1099,10.);
#300=VECTOR('',#1104,10.);
#301=VECTOR('',#1109,10.);
#302=VECTOR('',#1114,10.);
#303=VECTOR('',#1115,10.);
#304=VECTOR('',#1118,10.);
#305=VECTOR('',#1123,10.);
#306=VECTOR('',#1124,10.);
#307=VECTOR('',#1127,10.);
#308=VECTOR('',#1132,10.);
#309=VECTOR('',#1133,10.);
#310=VECTOR('',#1136,10.);
#311=VECTOR('',#1141,10.);
#312=VECTOR('',#1142,10.);
#313=VECTOR('',#1145,10.);
#314=VECTOR('',#1150,10.);
#315=VECTOR('',#1151,10.);
#316=VECTOR('',#1156,10.);
#317=VECTOR('',#1159,10.);
#318=VECTOR('',#1162,10.);
#319=VECTOR('',#1165,10.);
#320=VECTOR('',#1172,10.);
#321=VECTOR('',#1177,10.);
#322=VECTOR('',#1182,10.);
#323=VECTOR('',#1185,10.);
#324=VECTOR('',#1192,10.);
#325=VECTOR('',#1193,10.);
#326=VECTOR('',#1196,10.);
#327=VECTOR('',#1201,10.);
#328=VECTOR('',#1204,10.);
#329=VECTOR('',#1205,10.);
#330=VECTOR('',#1208,10.);
#331=VECTOR('',#1211,0.5);
#332=VECTOR('',#1214,10.);
#333=VECTOR('',#1217,10.);
#334=VECTOR('',#1220,10.);
#335=VECTOR('',#1223,10.);
#336=VECTOR('',#1226,10.);
#337=VECTOR('',#1229,10.);
#338=VECTOR('',#1232,10.);
#339=VECTOR('',#1233,10.);
#340=VECTOR('',#1238,10.);
#341=VECTOR('',#1241,1.54999999999999);
#342=VECTOR('',#1244,1.54999999999999);
#343=VECTOR('',#1247,10.);
#344=VECTOR('',#1250,10.);
#345=VERTEX_POINT('',#1263);
#346=VERTEX_POINT('',#1264);
#347=VERTEX_POINT('',#1266);
#348=VERTEX_POINT('',#1268);
#349=VERTEX_POINT('',#1270);
#350=VERTEX_POINT('',#1272);
#351=VERTEX_POINT('',#1274);
#352=VERTEX_POINT('',#1276);
#353=VERTEX_POINT('',#1278);
#354=VERTEX_POINT('',#1280);
#355=VERTEX_POINT('',#1282);
#356=VERTEX_POINT('',#1284);
#357=VERTEX_POINT('',#1286);
#358=VERTEX_POINT('',#1288);
#359=VERTEX_POINT('',#1290);
#360=VERTEX_POINT('',#1292);
#361=VERTEX_POINT('',#1294);
#362=VERTEX_POINT('',#1296);
#363=VERTEX_POINT('',#1298);
#364=VERTEX_POINT('',#1300);
#365=VERTEX_POINT('',#1302);
#366=VERTEX_POINT('',#1304);
#367=VERTEX_POINT('',#1306);
#368=VERTEX_POINT('',#1308);
#369=VERTEX_POINT('',#1310);
#370=VERTEX_POINT('',#1312);
#371=VERTEX_POINT('',#1314);
#372=VERTEX_POINT('',#1316);
#373=VERTEX_POINT('',#1318);
#374=VERTEX_POINT('',#1320);
#375=VERTEX_POINT('',#1322);
#376=VERTEX_POINT('',#1324);
#377=VERTEX_POINT('',#1326);
#378=VERTEX_POINT('',#1328);
#379=VERTEX_POINT('',#1330);
#380=VERTEX_POINT('',#1332);
#381=VERTEX_POINT('',#1334);
#382=VERTEX_POINT('',#1336);
#383=VERTEX_POINT('',#1338);
#384=VERTEX_POINT('',#1340);
#385=VERTEX_POINT('',#1343);
#386=VERTEX_POINT('',#1345);
#387=VERTEX_POINT('',#1348);
#388=VERTEX_POINT('',#1350);
#389=VERTEX_POINT('',#1354);
#390=VERTEX_POINT('',#1358);
#391=VERTEX_POINT('',#1362);
#392=VERTEX_POINT('',#1366);
#393=VERTEX_POINT('',#1370);
#394=VERTEX_POINT('',#1374);
#395=VERTEX_POINT('',#1378);
#396=VERTEX_POINT('',#1382);
#397=VERTEX_POINT('',#1386);
#398=VERTEX_POINT('',#1390);
#399=VERTEX_POINT('',#1394);
#400=VERTEX_POINT('',#1398);
#401=VERTEX_POINT('',#1402);
#402=VERTEX_POINT('',#1406);
#403=VERTEX_POINT('',#1410);
#404=VERTEX_POINT('',#1414);
#405=VERTEX_POINT('',#1418);
#406=VERTEX_POINT('',#1422);
#407=VERTEX_POINT('',#1426);
#408=VERTEX_POINT('',#1430);
#409=VERTEX_POINT('',#1432);
#410=VERTEX_POINT('',#1434);
#411=VERTEX_POINT('',#1436);
#412=VERTEX_POINT('',#1438);
#413=VERTEX_POINT('',#1440);
#414=VERTEX_POINT('',#1442);
#415=VERTEX_POINT('',#1444);
#416=VERTEX_POINT('',#1446);
#417=VERTEX_POINT('',#1448);
#418=VERTEX_POINT('',#1450);
#419=VERTEX_POINT('',#1452);
#420=VERTEX_POINT('',#1454);
#421=VERTEX_POINT('',#1456);
#422=VERTEX_POINT('',#1458);
#423=VERTEX_POINT('',#1460);
#424=VERTEX_POINT('',#1462);
#425=VERTEX_POINT('',#1464);
#426=VERTEX_POINT('',#1466);
#427=VERTEX_POINT('',#1469);
#428=VERTEX_POINT('',#1471);
#429=EDGE_CURVE('',#345,#346,#197,.T.);
#430=EDGE_CURVE('',#347,#345,#145,.T.);
#431=EDGE_CURVE('',#348,#347,#198,.T.);
#432=EDGE_CURVE('',#349,#348,#146,.T.);
#433=EDGE_CURVE('',#350,#349,#199,.T.);
#434=EDGE_CURVE('',#351,#350,#147,.T.);
#435=EDGE_CURVE('',#352,#351,#200,.T.);
#436=EDGE_CURVE('',#353,#352,#148,.T.);
#437=EDGE_CURVE('',#354,#353,#201,.T.);
#438=EDGE_CURVE('',#355,#354,#149,.T.);
#439=EDGE_CURVE('',#356,#355,#150,.T.);
#440=EDGE_CURVE('',#357,#356,#151,.T.);
#441=EDGE_CURVE('',#358,#357,#202,.T.);
#442=EDGE_CURVE('',#359,#358,#152,.T.);
#443=EDGE_CURVE('',#360,#359,#153,.T.);
#444=EDGE_CURVE('',#361,#360,#203,.T.);
#445=EDGE_CURVE('',#362,#361,#154,.T.);
#446=EDGE_CURVE('',#363,#362,#155,.T.);
#447=EDGE_CURVE('',#364,#363,#204,.T.);
#448=EDGE_CURVE('',#365,#364,#156,.T.);
#449=EDGE_CURVE('',#366,#365,#205,.T.);
#450=EDGE_CURVE('',#367,#366,#157,.T.);
#451=EDGE_CURVE('',#368,#367,#206,.T.);
#452=EDGE_CURVE('',#369,#368,#158,.T.);
#453=EDGE_CURVE('',#370,#369,#159,.T.);
#454=EDGE_CURVE('',#371,#370,#207,.T.);
#455=EDGE_CURVE('',#372,#371,#160,.T.);
#456=EDGE_CURVE('',#373,#372,#161,.T.);
#457=EDGE_CURVE('',#374,#373,#208,.T.);
#458=EDGE_CURVE('',#375,#374,#162,.T.);
#459=EDGE_CURVE('',#376,#375,#163,.T.);
#460=EDGE_CURVE('',#377,#376,#164,.T.);
#461=EDGE_CURVE('',#378,#377,#209,.T.);
#462=EDGE_CURVE('',#379,#378,#165,.T.);
#463=EDGE_CURVE('',#380,#379,#210,.T.);
#464=EDGE_CURVE('',#381,#380,#166,.T.);
#465=EDGE_CURVE('',#382,#381,#211,.T.);
#466=EDGE_CURVE('',#383,#382,#167,.T.);
#467=EDGE_CURVE('',#384,#383,#212,.T.);
#468=EDGE_CURVE('',#346,#384,#168,.T.);
#469=EDGE_CURVE('',#385,#385,#169,.T.);
#470=EDGE_CURVE('',#386,#386,#170,.T.);
#471=EDGE_CURVE('',#364,#387,#213,.T.);
#472=EDGE_CURVE('',#387,#388,#171,.T.);
#473=EDGE_CURVE('',#388,#365,#214,.T.);
#474=EDGE_CURVE('',#389,#363,#215,.T.);
#475=EDGE_CURVE('',#387,#389,#216,.T.);
#476=EDGE_CURVE('',#390,#362,#217,.T.);
#477=EDGE_CURVE('',#389,#390,#172,.T.);
#478=EDGE_CURVE('',#361,#391,#218,.T.);
#479=EDGE_CURVE('',#391,#390,#173,.T.);
#480=EDGE_CURVE('',#392,#360,#219,.T.);
#481=EDGE_CURVE('',#391,#392,#220,.T.);
#482=EDGE_CURVE('',#393,#359,#221,.T.);
#483=EDGE_CURVE('',#393,#392,#174,.T.);
#484=EDGE_CURVE('',#358,#394,#222,.T.);
#485=EDGE_CURVE('',#394,#393,#175,.T.);
#486=EDGE_CURVE('',#395,#357,#223,.T.);
#487=EDGE_CURVE('',#394,#395,#224,.T.);
#488=EDGE_CURVE('',#396,#356,#225,.T.);
#489=EDGE_CURVE('',#395,#396,#176,.T.);
#490=EDGE_CURVE('',#397,#355,#226,.T.);
#491=EDGE_CURVE('',#397,#396,#177,.T.);
#492=EDGE_CURVE('',#398,#354,#227,.T.);
#493=EDGE_CURVE('',#397,#398,#178,.T.);
#494=EDGE_CURVE('',#399,#353,#228,.T.);
#495=EDGE_CURVE('',#398,#399,#229,.T.);
#496=EDGE_CURVE('',#352,#400,#230,.T.);
#497=EDGE_CURVE('',#400,#399,#179,.T.);
#498=EDGE_CURVE('',#401,#351,#231,.T.);
#499=EDGE_CURVE('',#400,#401,#232,.T.);
#500=EDGE_CURVE('',#350,#402,#233,.T.);
#501=EDGE_CURVE('',#402,#401,#180,.T.);
#502=EDGE_CURVE('',#349,#403,#234,.T.);
#503=EDGE_CURVE('',#403,#402,#235,.T.);
#504=EDGE_CURVE('',#404,#348,#236,.T.);
#505=EDGE_CURVE('',#403,#404,#181,.T.);
#506=EDGE_CURVE('',#405,#347,#237,.T.);
#507=EDGE_CURVE('',#404,#405,#238,.T.);
#508=EDGE_CURVE('',#406,#345,#239,.T.);
#509=EDGE_CURVE('',#405,#406,#182,.T.);
#510=EDGE_CURVE('',#407,#346,#240,.T.);
#511=EDGE_CURVE('',#406,#407,#241,.T.);
#512=EDGE_CURVE('',#407,#408,#183,.T.);
#513=EDGE_CURVE('',#408,#409,#242,.T.);
#514=EDGE_CURVE('',#409,#410,#184,.T.);
#515=EDGE_CURVE('',#410,#411,#243,.T.);
#516=EDGE_CURVE('',#412,#411,#185,.T.);
#517=EDGE_CURVE('',#412,#413,#244,.T.);
#518=EDGE_CURVE('',#414,#413,#186,.T.);
#519=EDGE_CURVE('',#414,#415,#245,.T.);
#520=EDGE_CURVE('',#415,#416,#187,.T.);
#521=EDGE_CURVE('',#417,#416,#188,.T.);
#522=EDGE_CURVE('',#417,#418,#189,.T.);
#523=EDGE_CURVE('',#418,#419,#246,.T.);
#524=EDGE_CURVE('',#420,#419,#190,.T.);
#525=EDGE_CURVE('',#421,#420,#191,.T.);
#526=EDGE_CURVE('',#421,#422,#247,.T.);
#527=EDGE_CURVE('',#423,#422,#192,.T.);
#528=EDGE_CURVE('',#423,#424,#193,.T.);
#529=EDGE_CURVE('',#424,#425,#248,.T.);
#530=EDGE_CURVE('',#426,#425,#194,.T.);
#531=EDGE_CURVE('',#426,#388,#249,.T.);
#532=EDGE_CURVE('',#427,#427,#195,.T.);
#533=EDGE_CURVE('',#428,#428,#196,.T.);
#534=EDGE_CURVE('',#382,#410,#250,.T.);
#535=EDGE_CURVE('',#409,#383,#251,.T.);
#536=EDGE_CURVE('',#408,#384,#252,.T.);
#537=EDGE_CURVE('',#411,#381,#253,.T.);
#538=EDGE_CURVE('',#371,#421,#254,.T.);
#539=EDGE_CURVE('',#420,#372,#255,.T.);
#540=EDGE_CURVE('',#370,#422,#256,.T.);
#541=EDGE_CURVE('',#419,#373,#257,.T.);
#542=EDGE_CURVE('',#418,#374,#258,.T.);
#543=EDGE_CURVE('',#423,#369,#259,.T.);
#544=EDGE_CURVE('',#380,#412,#260,.T.);
#545=EDGE_CURVE('',#413,#379,#261,.T.);
#546=EDGE_CURVE('',#378,#414,#262,.T.);
#547=EDGE_CURVE('',#415,#377,#263,.T.);
#548=EDGE_CURVE('',#366,#426,#264,.T.);
#549=EDGE_CURVE('',#425,#367,#265,.T.);
#550=EDGE_CURVE('',#424,#368,#266,.T.);
#551=EDGE_CURVE('',#427,#386,#267,.T.);
#552=EDGE_CURVE('',#428,#385,#268,.T.);
#553=EDGE_CURVE('',#416,#376,#269,.T.);
#554=EDGE_CURVE('',#417,#375,#270,.T.);
#555=ORIENTED_EDGE('',*,*,#429,.F.);
#556=ORIENTED_EDGE('',*,*,#430,.F.);
#557=ORIENTED_EDGE('',*,*,#431,.F.);
#558=ORIENTED_EDGE('',*,*,#432,.F.);
#559=ORIENTED_EDGE('',*,*,#433,.F.);
#560=ORIENTED_EDGE('',*,*,#434,.F.);
#561=ORIENTED_EDGE('',*,*,#435,.F.);
#562=ORIENTED_EDGE('',*,*,#436,.F.);
#563=ORIENTED_EDGE('',*,*,#437,.F.);
#564=ORIENTED_EDGE('',*,*,#438,.F.);
#565=ORIENTED_EDGE('',*,*,#439,.F.);
#566=ORIENTED_EDGE('',*,*,#440,.F.);
#567=ORIENTED_EDGE('',*,*,#441,.F.);
#568=ORIENTED_EDGE('',*,*,#442,.F.);
#569=ORIENTED_EDGE('',*,*,#443,.F.);
#570=ORIENTED_EDGE('',*,*,#444,.F.);
#571=ORIENTED_EDGE('',*,*,#445,.F.);
#572=ORIENTED_EDGE('',*,*,#446,.F.);
#573=ORIENTED_EDGE('',*,*,#447,.F.);
#574=ORIENTED_EDGE('',*,*,#448,.F.);
#575=ORIENTED_EDGE('',*,*,#449,.F.);
#576=ORIENTED_EDGE('',*,*,#450,.F.);
#577=ORIENTED_EDGE('',*,*,#451,.F.);
#578=ORIENTED_EDGE('',*,*,#452,.F.);
#579=ORIENTED_EDGE('',*,*,#453,.F.);
#580=ORIENTED_EDGE('',*,*,#454,.F.);
#581=ORIENTED_EDGE('',*,*,#455,.F.);
#582=ORIENTED_EDGE('',*,*,#456,.F.);
#583=ORIENTED_EDGE('',*,*,#457,.F.);
#584=ORIENTED_EDGE('',*,*,#458,.F.);
#585=ORIENTED_EDGE('',*,*,#459,.F.);
#586=ORIENTED_EDGE('',*,*,#460,.F.);
#587=ORIENTED_EDGE('',*,*,#461,.F.);
#588=ORIENTED_EDGE('',*,*,#462,.F.);
#589=ORIENTED_EDGE('',*,*,#463,.F.);
#590=ORIENTED_EDGE('',*,*,#464,.F.);
#591=ORIENTED_EDGE('',*,*,#465,.F.);
#592=ORIENTED_EDGE('',*,*,#466,.F.);
#593=ORIENTED_EDGE('',*,*,#467,.F.);
#594=ORIENTED_EDGE('',*,*,#468,.F.);
#595=ORIENTED_EDGE('',*,*,#469,.F.);
#596=ORIENTED_EDGE('',*,*,#470,.F.);
#597=ORIENTED_EDGE('',*,*,#448,.T.);
#598=ORIENTED_EDGE('',*,*,#471,.T.);
#599=ORIENTED_EDGE('',*,*,#472,.T.);
#600=ORIENTED_EDGE('',*,*,#473,.T.);
#601=ORIENTED_EDGE('',*,*,#447,.T.);
#602=ORIENTED_EDGE('',*,*,#474,.F.);
#603=ORIENTED_EDGE('',*,*,#475,.F.);
#604=ORIENTED_EDGE('',*,*,#471,.F.);
#605=ORIENTED_EDGE('',*,*,#446,.T.);
#606=ORIENTED_EDGE('',*,*,#476,.F.);
#607=ORIENTED_EDGE('',*,*,#477,.F.);
#608=ORIENTED_EDGE('',*,*,#474,.T.);
#609=ORIENTED_EDGE('',*,*,#445,.T.);
#610=ORIENTED_EDGE('',*,*,#478,.T.);
#611=ORIENTED_EDGE('',*,*,#479,.T.);
#612=ORIENTED_EDGE('',*,*,#476,.T.);
#613=ORIENTED_EDGE('',*,*,#444,.T.);
#614=ORIENTED_EDGE('',*,*,#480,.F.);
#615=ORIENTED_EDGE('',*,*,#481,.F.);
#616=ORIENTED_EDGE('',*,*,#478,.F.);
#617=ORIENTED_EDGE('',*,*,#443,.T.);
#618=ORIENTED_EDGE('',*,*,#482,.F.);
#619=ORIENTED_EDGE('',*,*,#483,.T.);
#620=ORIENTED_EDGE('',*,*,#480,.T.);
#621=ORIENTED_EDGE('',*,*,#442,.T.);
#622=ORIENTED_EDGE('',*,*,#484,.T.);
#623=ORIENTED_EDGE('',*,*,#485,.T.);
#624=ORIENTED_EDGE('',*,*,#482,.T.);
#625=ORIENTED_EDGE('',*,*,#441,.T.);
#626=ORIENTED_EDGE('',*,*,#486,.F.);
#627=ORIENTED_EDGE('',*,*,#487,.F.);
#628=ORIENTED_EDGE('',*,*,#484,.F.);
#629=ORIENTED_EDGE('',*,*,#440,.T.);
#630=ORIENTED_EDGE('',*,*,#488,.F.);
#631=ORIENTED_EDGE('',*,*,#489,.F.);
#632=ORIENTED_EDGE('',*,*,#486,.T.);
#633=ORIENTED_EDGE('',*,*,#439,.T.);
#634=ORIENTED_EDGE('',*,*,#490,.F.);
#635=ORIENTED_EDGE('',*,*,#491,.T.);
#636=ORIENTED_EDGE('',*,*,#488,.T.);
#637=ORIENTED_EDGE('',*,*,#438,.T.);
#638=ORIENTED_EDGE('',*,*,#492,.F.);
#639=ORIENTED_EDGE('',*,*,#493,.F.);
#640=ORIENTED_EDGE('',*,*,#490,.T.);
#641=ORIENTED_EDGE('',*,*,#437,.T.);
#642=ORIENTED_EDGE('',*,*,#494,.F.);
#643=ORIENTED_EDGE('',*,*,#495,.F.);
#644=ORIENTED_EDGE('',*,*,#492,.T.);
#645=ORIENTED_EDGE('',*,*,#436,.T.);
#646=ORIENTED_EDGE('',*,*,#496,.T.);
#647=ORIENTED_EDGE('',*,*,#497,.T.);
#648=ORIENTED_EDGE('',*,*,#494,.T.);
#649=ORIENTED_EDGE('',*,*,#435,.T.);
#650=ORIENTED_EDGE('',*,*,#498,.F.);
#651=ORIENTED_EDGE('',*,*,#499,.F.);
#652=ORIENTED_EDGE('',*,*,#496,.F.);
#653=ORIENTED_EDGE('',*,*,#434,.T.);
#654=ORIENTED_EDGE('',*,*,#500,.T.);
#655=ORIENTED_EDGE('',*,*,#501,.T.);
#656=ORIENTED_EDGE('',*,*,#498,.T.);
#657=ORIENTED_EDGE('',*,*,#433,.T.);
#658=ORIENTED_EDGE('',*,*,#502,.T.);
#659=ORIENTED_EDGE('',*,*,#503,.T.);
#660=ORIENTED_EDGE('',*,*,#500,.F.);
#661=ORIENTED_EDGE('',*,*,#432,.T.);
#662=ORIENTED_EDGE('',*,*,#504,.F.);
#663=ORIENTED_EDGE('',*,*,#505,.F.);
#664=ORIENTED_EDGE('',*,*,#502,.F.);
#665=ORIENTED_EDGE('',*,*,#431,.T.);
#666=ORIENTED_EDGE('',*,*,#506,.F.);
#667=ORIENTED_EDGE('',*,*,#507,.F.);
#668=ORIENTED_EDGE('',*,*,#504,.T.);
#669=ORIENTED_EDGE('',*,*,#430,.T.);
#670=ORIENTED_EDGE('',*,*,#508,.F.);
#671=ORIENTED_EDGE('',*,*,#509,.F.);
#672=ORIENTED_EDGE('',*,*,#506,.T.);
#673=ORIENTED_EDGE('',*,*,#429,.T.);
#674=ORIENTED_EDGE('',*,*,#510,.F.);
#675=ORIENTED_EDGE('',*,*,#511,.F.);
#676=ORIENTED_EDGE('',*,*,#508,.T.);
#677=ORIENTED_EDGE('',*,*,#511,.T.);
#678=ORIENTED_EDGE('',*,*,#512,.T.);
#679=ORIENTED_EDGE('',*,*,#513,.T.);
#680=ORIENTED_EDGE('',*,*,#514,.T.);
#681=ORIENTED_EDGE('',*,*,#515,.T.);
#682=ORIENTED_EDGE('',*,*,#516,.F.);
#683=ORIENTED_EDGE('',*,*,#517,.T.);
#684=ORIENTED_EDGE('',*,*,#518,.F.);
#685=ORIENTED_EDGE('',*,*,#519,.T.);
#686=ORIENTED_EDGE('',*,*,#520,.T.);
#687=ORIENTED_EDGE('',*,*,#521,.F.);
#688=ORIENTED_EDGE('',*,*,#522,.T.);
#689=ORIENTED_EDGE('',*,*,#523,.T.);
#690=ORIENTED_EDGE('',*,*,#524,.F.);
#691=ORIENTED_EDGE('',*,*,#525,.F.);
#692=ORIENTED_EDGE('',*,*,#526,.T.);
#693=ORIENTED_EDGE('',*,*,#527,.F.);
#694=ORIENTED_EDGE('',*,*,#528,.T.);
#695=ORIENTED_EDGE('',*,*,#529,.T.);
#696=ORIENTED_EDGE('',*,*,#530,.F.);
#697=ORIENTED_EDGE('',*,*,#531,.T.);
#698=ORIENTED_EDGE('',*,*,#472,.F.);
#699=ORIENTED_EDGE('',*,*,#475,.T.);
#700=ORIENTED_EDGE('',*,*,#477,.T.);
#701=ORIENTED_EDGE('',*,*,#479,.F.);
#702=ORIENTED_EDGE('',*,*,#481,.T.);
#703=ORIENTED_EDGE('',*,*,#483,.F.);
#704=ORIENTED_EDGE('',*,*,#485,.F.);
#705=ORIENTED_EDGE('',*,*,#487,.T.);
#706=ORIENTED_EDGE('',*,*,#489,.T.);
#707=ORIENTED_EDGE('',*,*,#491,.F.);
#708=ORIENTED_EDGE('',*,*,#493,.T.);
#709=ORIENTED_EDGE('',*,*,#495,.T.);
#710=ORIENTED_EDGE('',*,*,#497,.F.);
#711=ORIENTED_EDGE('',*,*,#499,.T.);
#712=ORIENTED_EDGE('',*,*,#501,.F.);
#713=ORIENTED_EDGE('',*,*,#503,.F.);
#714=ORIENTED_EDGE('',*,*,#505,.T.);
#715=ORIENTED_EDGE('',*,*,#507,.T.);
#716=ORIENTED_EDGE('',*,*,#509,.T.);
#717=ORIENTED_EDGE('',*,*,#532,.F.);
#718=ORIENTED_EDGE('',*,*,#533,.F.);
#719=ORIENTED_EDGE('',*,*,#466,.T.);
#720=ORIENTED_EDGE('',*,*,#534,.T.);
#721=ORIENTED_EDGE('',*,*,#514,.F.);
#722=ORIENTED_EDGE('',*,*,#535,.T.);
#723=ORIENTED_EDGE('',*,*,#467,.T.);
#724=ORIENTED_EDGE('',*,*,#535,.F.);
#725=ORIENTED_EDGE('',*,*,#513,.F.);
#726=ORIENTED_EDGE('',*,*,#536,.T.);
#727=ORIENTED_EDGE('',*,*,#468,.T.);
#728=ORIENTED_EDGE('',*,*,#536,.F.);
#729=ORIENTED_EDGE('',*,*,#512,.F.);
#730=ORIENTED_EDGE('',*,*,#510,.T.);
#731=ORIENTED_EDGE('',*,*,#465,.T.);
#732=ORIENTED_EDGE('',*,*,#537,.F.);
#733=ORIENTED_EDGE('',*,*,#515,.F.);
#734=ORIENTED_EDGE('',*,*,#534,.F.);
#735=ORIENTED_EDGE('',*,*,#455,.T.);
#736=ORIENTED_EDGE('',*,*,#538,.T.);
#737=ORIENTED_EDGE('',*,*,#525,.T.);
#738=ORIENTED_EDGE('',*,*,#539,.T.);
#739=ORIENTED_EDGE('',*,*,#454,.T.);
#740=ORIENTED_EDGE('',*,*,#540,.T.);
#741=ORIENTED_EDGE('',*,*,#526,.F.);
#742=ORIENTED_EDGE('',*,*,#538,.F.);
#743=ORIENTED_EDGE('',*,*,#456,.T.);
#744=ORIENTED_EDGE('',*,*,#539,.F.);
#745=ORIENTED_EDGE('',*,*,#524,.T.);
#746=ORIENTED_EDGE('',*,*,#541,.T.);
#747=ORIENTED_EDGE('',*,*,#457,.T.);
#748=ORIENTED_EDGE('',*,*,#541,.F.);
#749=ORIENTED_EDGE('',*,*,#523,.F.);
#750=ORIENTED_EDGE('',*,*,#542,.T.);
#751=ORIENTED_EDGE('',*,*,#453,.T.);
#752=ORIENTED_EDGE('',*,*,#543,.F.);
#753=ORIENTED_EDGE('',*,*,#527,.T.);
#754=ORIENTED_EDGE('',*,*,#540,.F.);
#755=ORIENTED_EDGE('',*,*,#464,.T.);
#756=ORIENTED_EDGE('',*,*,#544,.T.);
#757=ORIENTED_EDGE('',*,*,#516,.T.);
#758=ORIENTED_EDGE('',*,*,#537,.T.);
#759=ORIENTED_EDGE('',*,*,#463,.T.);
#760=ORIENTED_EDGE('',*,*,#545,.F.);
#761=ORIENTED_EDGE('',*,*,#517,.F.);
#762=ORIENTED_EDGE('',*,*,#544,.F.);
#763=ORIENTED_EDGE('',*,*,#462,.T.);
#764=ORIENTED_EDGE('',*,*,#546,.T.);
#765=ORIENTED_EDGE('',*,*,#518,.T.);
#766=ORIENTED_EDGE('',*,*,#545,.T.);
#767=ORIENTED_EDGE('',*,*,#461,.T.);
#768=ORIENTED_EDGE('',*,*,#547,.F.);
#769=ORIENTED_EDGE('',*,*,#519,.F.);
#770=ORIENTED_EDGE('',*,*,#546,.F.);
#771=ORIENTED_EDGE('',*,*,#450,.T.);
#772=ORIENTED_EDGE('',*,*,#548,.T.);
#773=ORIENTED_EDGE('',*,*,#530,.T.);
#774=ORIENTED_EDGE('',*,*,#549,.T.);
#775=ORIENTED_EDGE('',*,*,#449,.T.);
#776=ORIENTED_EDGE('',*,*,#473,.F.);
#777=ORIENTED_EDGE('',*,*,#531,.F.);
#778=ORIENTED_EDGE('',*,*,#548,.F.);
#779=ORIENTED_EDGE('',*,*,#451,.T.);
#780=ORIENTED_EDGE('',*,*,#549,.F.);
#781=ORIENTED_EDGE('',*,*,#529,.F.);
#782=ORIENTED_EDGE('',*,*,#550,.T.);
#783=ORIENTED_EDGE('',*,*,#532,.T.);
#784=ORIENTED_EDGE('',*,*,#551,.T.);
#785=ORIENTED_EDGE('',*,*,#470,.T.);
#786=ORIENTED_EDGE('',*,*,#551,.F.);
#787=ORIENTED_EDGE('',*,*,#533,.T.);
#788=ORIENTED_EDGE('',*,*,#552,.T.);
#789=ORIENTED_EDGE('',*,*,#469,.T.);
#790=ORIENTED_EDGE('',*,*,#552,.F.);
#791=ORIENTED_EDGE('',*,*,#460,.T.);
#792=ORIENTED_EDGE('',*,*,#553,.F.);
#793=ORIENTED_EDGE('',*,*,#520,.F.);
#794=ORIENTED_EDGE('',*,*,#547,.T.);
#795=ORIENTED_EDGE('',*,*,#459,.T.);
#796=ORIENTED_EDGE('',*,*,#554,.F.);
#797=ORIENTED_EDGE('',*,*,#521,.T.);
#798=ORIENTED_EDGE('',*,*,#553,.T.);
#799=ORIENTED_EDGE('',*,*,#458,.T.);
#800=ORIENTED_EDGE('',*,*,#542,.F.);
#801=ORIENTED_EDGE('',*,*,#522,.F.);
#802=ORIENTED_EDGE('',*,*,#554,.T.);
#803=ORIENTED_EDGE('',*,*,#452,.T.);
#804=ORIENTED_EDGE('',*,*,#550,.F.);
#805=ORIENTED_EDGE('',*,*,#528,.F.);
#806=ORIENTED_EDGE('',*,*,#543,.T.);
#807=PLANE('',#885);
#808=PLANE('',#914);
#809=PLANE('',#919);
#810=PLANE('',#924);
#811=PLANE('',#931);
#812=PLANE('',#934);
#813=PLANE('',#937);
#814=PLANE('',#940);
#815=PLANE('',#943);
#816=PLANE('',#944);
#817=PLANE('',#960);
#818=PLANE('',#962);
#819=PLANE('',#964);
#820=PLANE('',#966);
#821=PLANE('',#969);
#822=PLANE('',#971);
#823=PLANE('',#973);
#824=PLANE('',#974);
#825=ADVANCED_FACE('',(#53,#49,#50),#807,.F.);
#826=ADVANCED_FACE('',(#54),#23,.T.);
#827=ADVANCED_FACE('',(#55),#808,.T.);
#828=ADVANCED_FACE('',(#56),#24,.T.);
#829=ADVANCED_FACE('',(#57),#25,.F.);
#830=ADVANCED_FACE('',(#58),#809,.F.);
#831=ADVANCED_FACE('',(#59),#26,.F.);
#832=ADVANCED_FACE('',(#60),#27,.T.);
#833=ADVANCED_FACE('',(#61),#810,.T.);
#834=ADVANCED_FACE('',(#62),#28,.T.);
#835=ADVANCED_FACE('',(#63),#29,.F.);
#836=ADVANCED_FACE('',(#64),#30,.T.);
#837=ADVANCED_FACE('',(#65),#811,.T.);
#838=ADVANCED_FACE('',(#66),#31,.T.);
#839=ADVANCED_FACE('',(#67),#812,.T.);
#840=ADVANCED_FACE('',(#68),#32,.T.);
#841=ADVANCED_FACE('',(#69),#813,.T.);
#842=ADVANCED_FACE('',(#70),#33,.T.);
#843=ADVANCED_FACE('',(#71),#814,.F.);
#844=ADVANCED_FACE('',(#72),#34,.T.);
#845=ADVANCED_FACE('',(#73),#815,.F.);
#846=ADVANCED_FACE('',(#74,#51,#52),#816,.T.);
#847=ADVANCED_FACE('',(#75),#35,.T.);
#848=ADVANCED_FACE('',(#76),#817,.F.);
#849=ADVANCED_FACE('',(#77),#36,.T.);
#850=ADVANCED_FACE('',(#78),#818,.T.);
#851=ADVANCED_FACE('',(#79),#37,.F.);
#852=ADVANCED_FACE('',(#80),#819,.F.);
#853=ADVANCED_FACE('',(#81),#38,.T.);
#854=ADVANCED_FACE('',(#82),#820,.T.);
#855=ADVANCED_FACE('',(#83),#39,.F.);
#856=ADVANCED_FACE('',(#84),#40,.T.);
#857=ADVANCED_FACE('',(#85),#821,.T.);
#858=ADVANCED_FACE('',(#86),#41,.T.);
#859=ADVANCED_FACE('',(#87),#822,.T.);
#860=ADVANCED_FACE('',(#88),#42,.T.);
#861=ADVANCED_FACE('',(#89),#823,.T.);
#862=ADVANCED_FACE('',(#90),#824,.T.);
#863=ADVANCED_FACE('',(#91),#43,.F.);
#864=ADVANCED_FACE('',(#92),#44,.F.);
#865=ADVANCED_FACE('',(#93),#45,.T.);
#866=ADVANCED_FACE('',(#94),#46,.F.);
#867=ADVANCED_FACE('',(#95),#47,.T.);
#868=ADVANCED_FACE('',(#96),#48,.T.);
#869=CLOSED_SHELL('',(#825,#826,#827,#828,#829,#830,#831,#832,#833,#834,
#835,#836,#837,#838,#839,#840,#841,#842,#843,#844,#845,#846,#847,#848,#849,
#850,#851,#852,#853,#854,#855,#856,#857,#858,#859,#860,#861,#862,#863,#864,
#865,#866,#867,#868));
#870=DERIVED_UNIT_ELEMENT(#872,1.);
#871=DERIVED_UNIT_ELEMENT(#1527,-3.);
#872=(
MASS_UNIT()
NAMED_UNIT(*)
SI_UNIT(.KILO.,.GRAM.)
);
#873=DERIVED_UNIT((#870,#871));
#874=MEASURE_REPRESENTATION_ITEM('density measure',
POSITIVE_RATIO_MEASURE(7850.),#873);
#875=PROPERTY_DEFINITION_REPRESENTATION(#880,#877);
#876=PROPERTY_DEFINITION_REPRESENTATION(#881,#878);
#877=REPRESENTATION('material name',(#879),#1524);
#878=REPRESENTATION('density',(#874),#1524);
#879=DESCRIPTIVE_REPRESENTATION_ITEM('Steel','Steel');
#880=PROPERTY_DEFINITION('material property','material name',#1544);
#881=PROPERTY_DEFINITION('material property','density of part',#1544);
#882=AXIS2_PLACEMENT_3D('',#1259,#983,#984);
#883=AXIS2_PLACEMENT_3D('',#1260,#985,#986);
#884=AXIS2_PLACEMENT_3D('',#1261,#987,#988);
#885=AXIS2_PLACEMENT_3D('',#1262,#989,#990);
#886=AXIS2_PLACEMENT_3D('',#1267,#992,#993);
#887=AXIS2_PLACEMENT_3D('',#1271,#995,#996);
#888=AXIS2_PLACEMENT_3D('',#1275,#998,#999);
#889=AXIS2_PLACEMENT_3D('',#1279,#1001,#1002);
#890=AXIS2_PLACEMENT_3D('',#1283,#1004,#1005);
#891=AXIS2_PLACEMENT_3D('',#1285,#1006,#1007);
#892=AXIS2_PLACEMENT_3D('',#1287,#1008,#1009);
#893=AXIS2_PLACEMENT_3D('',#1291,#1011,#1012);
#894=AXIS2_PLACEMENT_3D('',#1293,#1013,#1014);
#895=AXIS2_PLACEMENT_3D('',#1297,#1016,#1017);
#896=AXIS2_PLACEMENT_3D('',#1299,#1018,#1019);
#897=AXIS2_PLACEMENT_3D('',#1303,#1021,#1022);
#898=AXIS2_PLACEMENT_3D('',#1307,#1024,#1025);
#899=AXIS2_PLACEMENT_3D('',#1311,#1027,#1028);
#900=AXIS2_PLACEMENT_3D('',#1313,#1029,#1030);
#901=AXIS2_PLACEMENT_3D('',#1317,#1032,#1033);
#902=AXIS2_PLACEMENT_3D('',#1319,#1034,#1035);
#903=AXIS2_PLACEMENT_3D('',#1323,#1037,#1038);
#904=AXIS2_PLACEMENT_3D('',#1325,#1039,#1040);
#905=AXIS2_PLACEMENT_3D('',#1327,#1041,#1042);
#906=AXIS2_PLACEMENT_3D('',#1331,#1044,#1045);
#907=AXIS2_PLACEMENT_3D('',#1335,#1047,#1048);
#908=AXIS2_PLACEMENT_3D('',#1339,#1050,#1051);
#909=AXIS2_PLACEMENT_3D('',#1342,#1053,#1054);
#910=AXIS2_PLACEMENT_3D('',#1344,#1055,#1056);
#911=AXIS2_PLACEMENT_3D('',#1346,#1057,#1058);
#912=AXIS2_PLACEMENT_3D('',#1347,#1059,#1060);
#913=AXIS2_PLACEMENT_3D('',#1351,#1062,#1063);
#914=AXIS2_PLACEMENT_3D('',#1353,#1065,#1066);
#915=AXIS2_PLACEMENT_3D('',#1357,#1069,#1070);
#916=AXIS2_PLACEMENT_3D('',#1360,#1072,#1073);
#917=AXIS2_PLACEMENT_3D('',#1361,#1074,#1075);
#918=AXIS2_PLACEMENT_3D('',#1364,#1077,#1078);
#919=AXIS2_PLACEMENT_3D('',#1365,#1079,#1080);
#920=AXIS2_PLACEMENT_3D('',#1369,#1083,#1084);
#921=AXIS2_PLACEMENT_3D('',#1372,#1086,#1087);
#922=AXIS2_PLACEMENT_3D('',#1373,#1088,#1089);
#923=AXIS2_PLACEMENT_3D('',#1376,#1091,#1092);
#924=AXIS2_PLACEMENT_3D('',#1377,#1093,#1094);
#925=AXIS2_PLACEMENT_3D('',#1381,#1097,#1098);
#926=AXIS2_PLACEMENT_3D('',#1384,#1100,#1101);
#927=AXIS2_PLACEMENT_3D('',#1385,#1102,#1103);
#928=AXIS2_PLACEMENT_3D('',#1388,#1105,#1106);
#929=AXIS2_PLACEMENT_3D('',#1389,#1107,#1108);
#930=AXIS2_PLACEMENT_3D('',#1392,#1110,#1111);
#931=AXIS2_PLACEMENT_3D('',#1393,#1112,#1113);
#932=AXIS2_PLACEMENT_3D('',#1397,#1116,#1117);
#933=AXIS2_PLACEMENT_3D('',#1400,#1119,#1120);
#934=AXIS2_PLACEMENT_3D('',#1401,#1121,#1122);
#935=AXIS2_PLACEMENT_3D('',#1405,#1125,#1126);
#936=AXIS2_PLACEMENT_3D('',#1408,#1128,#1129);
#937=AXIS2_PLACEMENT_3D('',#1409,#1130,#1131);
#938=AXIS2_PLACEMENT_3D('',#1413,#1134,#1135);
#939=AXIS2_PLACEMENT_3D('',#1416,#1137,#1138);
#940=AXIS2_PLACEMENT_3D('',#1417,#1139,#1140);
#941=AXIS2_PLACEMENT_3D('',#1421,#1143,#1144);
#942=AXIS2_PLACEMENT_3D('',#1424,#1146,#1147);
#943=AXIS2_PLACEMENT_3D('',#1425,#1148,#1149);
#944=AXIS2_PLACEMENT_3D('',#1429,#1152,#1153);
#945=AXIS2_PLACEMENT_3D('',#1431,#1154,#1155);
#946=AXIS2_PLACEMENT_3D('',#1435,#1157,#1158);
#947=AXIS2_PLACEMENT_3D('',#1439,#1160,#1161);
#948=AXIS2_PLACEMENT_3D('',#1443,#1163,#1164);
#949=AXIS2_PLACEMENT_3D('',#1447,#1166,#1167);
#950=AXIS2_PLACEMENT_3D('',#1449,#1168,#1169);
#951=AXIS2_PLACEMENT_3D('',#1451,#1170,#1171);
#952=AXIS2_PLACEMENT_3D('',#1455,#1173,#1174);
#953=AXIS2_PLACEMENT_3D('',#1457,#1175,#1176);
#954=AXIS2_PLACEMENT_3D('',#1461,#1178,#1179);
#955=AXIS2_PLACEMENT_3D('',#1463,#1180,#1181);
#956=AXIS2_PLACEMENT_3D('',#1467,#1183,#1184);
#957=AXIS2_PLACEMENT_3D('',#1470,#1186,#1187);
#958=AXIS2_PLACEMENT_3D('',#1472,#1188,#1189);
#959=AXIS2_PLACEMENT_3D('',#1473,#1190,#1191);
#960=AXIS2_PLACEMENT_3D('',#1476,#1194,#1195);
#961=AXIS2_PLACEMENT_3D('',#1478,#1197,#1198);
#962=AXIS2_PLACEMENT_3D('',#1479,#1199,#1200);
#963=AXIS2_PLACEMENT_3D('',#1481,#1202,#1203);
#964=AXIS2_PLACEMENT_3D('',#1484,#1206,#1207);
#965=AXIS2_PLACEMENT_3D('',#1486,#1209,#1210);
#966=AXIS2_PLACEMENT_3D('',#1488,#1212,#1213);
#967=AXIS2_PLACEMENT_3D('',#1490,#1215,#1216);
#968=AXIS2_PLACEMENT_3D('',#1492,#1218,#1219);
#969=AXIS2_PLACEMENT_3D('',#1494,#1221,#1222);
#970=AXIS2_PLACEMENT_3D('',#1496,#1224,#1225);
#971=AXIS2_PLACEMENT_3D('',#1498,#1227,#1228);
#972=AXIS2_PLACEMENT_3D('',#1500,#1230,#1231);
#973=AXIS2_PLACEMENT_3D('',#1503,#1234,#1235);
#974=AXIS2_PLACEMENT_3D('',#1504,#1236,#1237);
#975=AXIS2_PLACEMENT_3D('',#1506,#1239,#1240);
#976=AXIS2_PLACEMENT_3D('',#1508,#1242,#1243);
#977=AXIS2_PLACEMENT_3D('',#1510,#1245,#1246);
#978=AXIS2_PLACEMENT_3D('',#1512,#1248,#1249);
#979=AXIS2_PLACEMENT_3D('',#1514,#1251,#1252);
#980=AXIS2_PLACEMENT_3D('',#1515,#1253,#1254);
#981=AXIS2_PLACEMENT_3D('',#1516,#1255,#1256);
#982=AXIS2_PLACEMENT_3D('',#1517,#1257,#1258);
#983=DIRECTION('axis',(0.,0.,1.));
#984=DIRECTION('refdir',(1.,0.,0.));
#985=DIRECTION('axis',(0.,0.,1.));
#986=DIRECTION('refdir',(1.,0.,0.));
#987=DIRECTION('axis',(0.,0.,1.));
#988=DIRECTION('refdir',(1.,0.,0.));
#989=DIRECTION('center_axis',(-2.7755575615629E-17,6.93889390394163E-18,
1.));
#990=DIRECTION('ref_axis',(-1.,1.73472347597682E-18,-2.7755575615629E-17));
#991=DIRECTION('',(-3.21647148960036E-10,1.,-6.93889391286913E-18));
#992=DIRECTION('center_axis',(-2.7755575615629E-17,6.93889390394163E-18,
1.));
#993=DIRECTION('ref_axis',(1.,3.33327115908939E-14,2.77555756156288E-17));
#994=DIRECTION('',(0.707105564221517,0.707107998149484,1.47195745781944E-17));
#995=DIRECTION('center_axis',(-2.7755575615629E-17,6.93889390394163E-18,
1.));
#996=DIRECTION('ref_axis',(0.707106781186567,-0.707106781186528,2.45326946669588E-17));
#997=DIRECTION('',(1.,-1.73472347597682E-18,2.7755575615629E-17));
#998=DIRECTION('center_axis',(-2.7755575615629E-17,6.93889390394163E-18,
1.));
#999=DIRECTION('ref_axis',(-0.707106781186547,-0.707106781186547,-1.47196168001361E-17));
#1000=DIRECTION('',(-1.73472347597682E-18,-1.,6.93889390394163E-18));
#1001=DIRECTION('center_axis',(-2.7755575615629E-17,6.93889390394163E-18,
1.));
#1002=DIRECTION('ref_axis',(-0.707106781186547,0.707106781186547,-2.45326946669584E-17));
#1003=DIRECTION('',(-1.,1.73472347597682E-18,-2.7755575615629E-17));
#1004=DIRECTION('center_axis',(-2.7755575615629E-17,6.93889390394163E-18,
1.));
#1005=DIRECTION('ref_axis',(0.661437827766155,0.749999999999994,1.31544172156447E-17));
#1006=DIRECTION('center_axis',(2.7755575615629E-17,-6.93889390394163E-18,
-1.));
#1007=DIRECTION('ref_axis',(-0.661437827766166,-0.749999999999984,-1.31544172156451E-17));
#1008=DIRECTION('center_axis',(-2.7755575615629E-17,6.93889390394163E-18,
1.));
#1009=DIRECTION('ref_axis',(-1.,1.73472347597682E-18,-2.7755575615629E-17));
#1010=DIRECTION('',(-1.73472347597682E-18,-1.,6.93889390394163E-18));
#1011=DIRECTION('center_axis',(-2.7755575615629E-17,6.93889390394163E-18,
1.));
#1012=DIRECTION('ref_axis',(-0.93541434669354,0.35355339059313,-2.84162330983013E-17));
#1013=DIRECTION('center_axis',(2.7755575615629E-17,-6.93889390394163E-18,
-1.));
#1014=DIRECTION('ref_axis',(0.500000000000448,-0.86602540378418,1.98870462028036E-17));
#1015=DIRECTION('',(-1.73472347597672E-18,-1.,6.93889390394163E-18));
#1016=DIRECTION('center_axis',(2.7755575615629E-17,-6.93889390394163E-18,
-1.));
#1017=DIRECTION('ref_axis',(0.749999999999975,-0.661437827766176,2.54063286226442E-17));
#1018=DIRECTION('center_axis',(-2.7755575615629E-17,6.93889390394163E-18,
1.));
#1019=DIRECTION('ref_axis',(-1.73472347597682E-18,-1.,6.93889390394163E-18));
#1020=DIRECTION('',(1.,-1.73472347597682E-18,2.7755575615629E-17));
#1021=DIRECTION('center_axis',(-2.7755575615629E-17,6.93889390394163E-18,
1.));
#1022=DIRECTION('ref_axis',(-0.707106781186541,-0.707106781186554,-1.47196168001359E-17));
#1023=DIRECTION('',(-1.73472347597682E-18,-1.,6.93889390394163E-18));
#1024=DIRECTION('center_axis',(-2.7755575615629E-17,6.93889390394163E-18,
1.));
#1025=DIRECTION('ref_axis',(-0.707106781186541,0.707106781186554,-2.45326946669582E-17));
#1026=DIRECTION('',(-1.,1.73472347597682E-18,-2.7755575615629E-17));
#1027=DIRECTION('center_axis',(-2.7755575615629E-17,6.93889390394163E-18,
1.));
#1028=DIRECTION('ref_axis',(0.526782687642667,0.849999999999981,8.72309690152006E-18));
#1029=DIRECTION('center_axis',(2.7755575615629E-17,-6.93889390394163E-18,
-1.));
#1030=DIRECTION('ref_axis',(-0.526782687642635,-0.850000000000001,-8.72309690151904E-18));
#1031=DIRECTION('',(-1.73472347597672E-18,-1.,6.93889390394163E-18));
#1032=DIRECTION('center_axis',(2.7755575615629E-17,-6.93889390394163E-18,
-1.));
#1033=DIRECTION('ref_axis',(0.935414346693543,0.353553390593121,2.35096941648923E-17));
#1034=DIRECTION('center_axis',(-2.7755575615629E-17,6.93889390394163E-18,
1.));
#1035=DIRECTION('ref_axis',(-0.500000000000452,-0.866025403784178,-7.86852941285042E-18));
#1036=DIRECTION('',(-1.73472347597682E-18,-1.,6.93889390394163E-18));
#1037=DIRECTION('center_axis',(-2.7755575615629E-17,6.93889390394163E-18,
1.));
#1038=DIRECTION('ref_axis',(-0.749999999999969,0.661437827766182,-2.54063286226441E-17));
#1039=DIRECTION('center_axis',(2.7755575615629E-17,-6.93889390394163E-18,
-1.));
#1040=DIRECTION('ref_axis',(0.749999999999975,-0.661437827766176,2.54063286226442E-17));
#1041=DIRECTION('center_axis',(-2.7755575615629E-17,6.93889390394163E-18,
1.));
#1042=DIRECTION('ref_axis',(-1.73472347597682E-18,-1.,6.93889390394163E-18));
#1043=DIRECTION('',(1.,-1.73472347597682E-18,2.7755575615629E-17));
#1044=DIRECTION('center_axis',(-2.7755575615629E-17,6.93889390394163E-18,
1.));
#1045=DIRECTION('ref_axis',(-0.707106781186547,-0.707106781186547,-1.47196168001361E-17));
#1046=DIRECTION('',(-1.73472347597682E-18,-1.,6.93889390394163E-18));
#1047=DIRECTION('center_axis',(-2.7755575615629E-17,6.93889390394163E-18,
1.));
#1048=DIRECTION('ref_axis',(-0.707106781186547,0.707106781186547,-2.45326946669584E-17));
#1049=DIRECTION('',(-1.,-2.41579399372038E-15,-2.7755575615629E-17));
#1050=DIRECTION('center_axis',(-2.7755575615629E-17,6.93889390394163E-18,
1.));
#1051=DIRECTION('ref_axis',(2.13136799875945E-13,1.,-6.93889390393571E-18));
#1052=DIRECTION('',(-0.707106781186555,0.70710678118654,-2.4532694666959E-17));
#1053=DIRECTION('center_axis',(-2.7755575615629E-17,6.93889390394163E-18,
1.));
#1054=DIRECTION('ref_axis',(0.707106781186545,0.70710678118655,1.4719616800136E-17));
#1055=DIRECTION('center_axis',(2.7755575615629E-17,-6.93889390394163E-18,
-1.));
#1056=DIRECTION('ref_axis',(-1.,1.73472347597682E-18,-2.7755575615629E-17));
#1057=DIRECTION('center_axis',(2.7755575615629E-17,-6.93889390394163E-18,
-1.));
#1058=DIRECTION('ref_axis',(-1.,1.73472347597682E-18,-2.7755575615629E-17));
#1059=DIRECTION('center_axis',(2.7755575615629E-17,-6.93889390391393E-18,
-1.));
#1060=DIRECTION('ref_axis',(-0.707106781186541,-0.707106781186554,-1.47196168001555E-17));
#1061=DIRECTION('',(-2.7755575615629E-17,6.93889390391393E-18,1.));
#1062=DIRECTION('center_axis',(2.7755575615629E-17,-6.93889390394163E-18,
-1.));
#1063=DIRECTION('ref_axis',(-0.707106781186541,-0.707106781186554,-1.47196168001359E-17));
#1064=DIRECTION('',(2.7755575615629E-17,-6.93889390391393E-18,-1.));
#1065=DIRECTION('center_axis',(-1.73472347597682E-18,-1.,6.93889390391393E-18));
#1066=DIRECTION('ref_axis',(-1.,1.73472347597682E-18,-2.7755575615629E-17));
#1067=DIRECTION('',(2.7755575615629E-17,-6.93889390391393E-18,-1.));
#1068=DIRECTION('',(1.,-1.73472347597682E-18,2.7755575615629E-17));
#1069=DIRECTION('center_axis',(2.7755575615629E-17,-6.93889390391393E-18,
-1.));
#1070=DIRECTION('ref_axis',(-1.73472347597682E-18,-1.,6.93889390391393E-18));
#1071=DIRECTION('',(2.7755575615629E-17,-6.93889390391393E-18,-1.));
#1072=DIRECTION('center_axis',(-2.7755575615629E-17,6.93889390394163E-18,
1.));
#1073=DIRECTION('ref_axis',(-1.73472347597682E-18,-1.,6.93889390394163E-18));
#1074=DIRECTION('center_axis',(2.7755575615629E-17,-6.93889390391393E-18,
-1.));
#1075=DIRECTION('ref_axis',(0.749999999999975,-0.661437827766176,2.54063286226258E-17));
#1076=DIRECTION('',(-2.7755575615629E-17,6.93889390391393E-18,1.));
#1077=DIRECTION('center_axis',(-2.7755575615629E-17,6.93889390394163E-18,
1.));
#1078=DIRECTION('ref_axis',(0.749999999999975,-0.661437827766176,2.54063286226442E-17));
#1079=DIRECTION('center_axis',(1.,-1.73472347597672E-18,-9.4709104299106E-17));
#1080=DIRECTION('ref_axis',(1.73472347597672E-18,1.,-6.93889390397574E-18));
#1081=DIRECTION('',(-9.4709104299106E-17,-6.93889390391393E-18,-1.));
#1082=DIRECTION('',(-1.73472347597672E-18,-1.,6.93889390394163E-18));
#1083=DIRECTION('center_axis',(9.4709104299106E-17,6.93889390391393E-18,
1.));
#1084=DIRECTION('ref_axis',(0.500000000000448,-0.86602540378418,-4.13452937546428E-17));
#1085=DIRECTION('',(-9.4709104299106E-17,-6.93889390391393E-18,-1.));
#1086=DIRECTION('center_axis',(-2.7755575615629E-17,6.93889390394163E-18,
1.));
#1087=DIRECTION('ref_axis',(0.500000000000448,-0.86602540378418,1.98870462028036E-17));
#1088=DIRECTION('center_axis',(-9.4709104299106E-17,-6.93889390391393E-18,
-1.));
#1089=DIRECTION('ref_axis',(-0.93541434669354,0.35355339059313,8.61389854571838E-17));
#1090=DIRECTION('',(-2.7755575615629E-17,6.93889390391393E-18,1.));
#1091=DIRECTION('center_axis',(2.7755575615629E-17,-6.93889390394163E-18,
-1.));
#1092=DIRECTION('ref_axis',(-0.93541434669354,0.35355339059313,-2.84162330983013E-17));
#1093=DIRECTION('center_axis',(-1.,1.73472347597682E-18,-2.7755575615629E-17));
#1094=DIRECTION('ref_axis',(1.73472347597682E-18,1.,-6.93889390394163E-18));
#1095=DIRECTION('',(2.7755575615629E-17,-6.93889390391393E-18,-1.));
#1096=DIRECTION('',(-1.73472347597682E-18,-1.,6.93889390394163E-18));
#1097=DIRECTION('center_axis',(2.7755575615629E-17,-6.93889390391393E-18,
-1.));
#1098=DIRECTION('ref_axis',(-1.,1.73472347597682E-18,-2.7755575615629E-17));
#1099=DIRECTION('',(2.7755575615629E-17,-6.93889390391393E-18,-1.));
#1100=DIRECTION('center_axis',(-2.7755575615629E-17,6.93889390394163E-18,
1.));
#1101=DIRECTION('ref_axis',(-1.,1.73472347597682E-18,-2.7755575615629E-17));
#1102=DIRECTION('center_axis',(2.7755575615629E-17,-6.93889390391393E-18,
-1.));
#1103=DIRECTION('ref_axis',(-0.661437827766166,-0.749999999999984,-1.31544172156659E-17));
#1104=DIRECTION('',(2.7755575615629E-17,-6.93889390391393E-18,-1.));
#1105=DIRECTION('center_axis',(-2.7755575615629E-17,6.93889390394163E-18,
1.));
#1106=DIRECTION('ref_axis',(-0.661437827766166,-0.749999999999984,-1.31544172156451E-17));
#1107=DIRECTION('center_axis',(2.7755575615629E-17,-6.93889390391393E-18,
-1.));
#1108=DIRECTION('ref_axis',(0.661437827766155,0.749999999999994,1.31544172156655E-17));
#1109=DIRECTION('',(2.7755575615629E-17,-6.93889390391393E-18,-1.));
#1110=DIRECTION('center_axis',(-2.7755575615629E-17,6.93889390394163E-18,
1.));
#1111=DIRECTION('ref_axis',(0.661437827766155,0.749999999999994,1.31544172156447E-17));
#1112=DIRECTION('center_axis',(1.73472347597682E-18,1.,-6.93889390391393E-18));
#1113=DIRECTION('ref_axis',(1.,-1.73472347597682E-18,2.7755575615629E-17));
#1114=DIRECTION('',(2.7755575615629E-17,-6.93889390391393E-18,-1.));
#1115=DIRECTION('',(-1.,1.73472347597682E-18,-2.7755575615629E-17));
#1116=DIRECTION('center_axis',(2.7755575615629E-17,-6.93889390391393E-18,
-1.));
#1117=DIRECTION('ref_axis',(-0.707106781186547,0.707106781186547,-2.45326946669388E-17));
#1118=DIRECTION('',(-2.7755575615629E-17,6.93889390391393E-18,1.));
#1119=DIRECTION('center_axis',(2.7755575615629E-17,-6.93889390394163E-18,
-1.));
#1120=DIRECTION('ref_axis',(-0.707106781186547,0.707106781186547,-2.45326946669584E-17));
#1121=DIRECTION('center_axis',(-1.,1.73472347597682E-18,-2.7755575615629E-17));
#1122=DIRECTION('ref_axis',(1.73472347597682E-18,1.,-6.93889390394163E-18));
#1123=DIRECTION('',(2.7755575615629E-17,-6.93889390391393E-18,-1.));
#1124=DIRECTION('',(-1.73472347597682E-18,-1.,6.93889390394163E-18));
#1125=DIRECTION('center_axis',(-2.7755575615629E-17,6.93889390391393E-18,
1.));
#1126=DIRECTION('ref_axis',(-0.707106781186547,-0.707106781186547,-1.47196168001557E-17));
#1127=DIRECTION('',(-2.7755575615629E-17,6.93889390391393E-18,1.));
#1128=DIRECTION('center_axis',(2.7755575615629E-17,-6.93889390394163E-18,
-1.));
#1129=DIRECTION('ref_axis',(-0.707106781186547,-0.707106781186547,-1.47196168001361E-17));
#1130=DIRECTION('center_axis',(-1.73472347597682E-18,-1.,6.93889390391393E-18));
#1131=DIRECTION('ref_axis',(-1.,1.73472347597682E-18,-2.7755575615629E-17));
#1132=DIRECTION('',(2.05731406761622E-16,6.93889390391383E-18,1.));
#1133=DIRECTION('',(-1.,1.73472347597682E-18,-2.7755575615629E-17));
#1134=DIRECTION('center_axis',(-2.05731406761622E-16,-6.93889390391383E-18,
-1.));
#1135=DIRECTION('ref_axis',(0.707106781186567,-0.707106781186528,-1.40567533890804E-16));
#1136=DIRECTION('',(-2.05731406761622E-16,-6.93889390391383E-18,-1.));
#1137=DIRECTION('center_axis',(-2.7755575615629E-17,6.93889390394163E-18,
1.));
#1138=DIRECTION('ref_axis',(0.707106781186567,-0.707106781186528,2.45326946669588E-17));
#1139=DIRECTION('center_axis',(-0.707107998149484,0.707105564221517,1.40567792702687E-16));
#1140=DIRECTION('ref_axis',(0.707105564221517,0.707107998149484,-1.74154798519452E-15));
#1141=DIRECTION('',(-2.05731406761622E-16,-6.93889390391383E-18,-1.));
#1142=DIRECTION('',(0.707105564221517,0.707107998149484,1.47195745781944E-17));
#1143=DIRECTION('center_axis',(-2.05731406761622E-16,-6.93889390391383E-18,
-1.));
#1144=DIRECTION('ref_axis',(1.,3.33327115908939E-14,-2.05731406761622E-16));
#1145=DIRECTION('',(-2.05731406761622E-16,-6.93889390391383E-18,-1.));
#1146=DIRECTION('center_axis',(-2.7755575615629E-17,6.93889390394163E-18,
1.));
#1147=DIRECTION('ref_axis',(1.,3.33327115908939E-14,2.77555756156288E-17));
#1148=DIRECTION('center_axis',(-1.,-3.21647148960036E-10,2.05731406763854E-16));
#1149=DIRECTION('ref_axis',(-3.21647148960036E-10,1.,-6.93889383778501E-18));
#1150=DIRECTION('',(-2.05731406761622E-16,-6.93889390391383E-18,-1.));
#1151=DIRECTION('',(-3.21647148960036E-10,1.,-6.93889391286913E-18));
#1152=DIRECTION('center_axis',(-2.7755575615629E-17,6.93889390394163E-18,
1.));
#1153=DIRECTION('ref_axis',(-1.,1.73472347597682E-18,-2.7755575615629E-17));
#1154=DIRECTION('center_axis',(-2.7755575615629E-17,6.93889390394163E-18,
1.));
#1155=DIRECTION('ref_axis',(0.707106781186545,0.70710678118655,1.4719616800136E-17));
#1156=DIRECTION('',(-0.707106781186555,0.70710678118654,-2.4532694666959E-17));
#1157=DIRECTION('center_axis',(-2.7755575615629E-17,6.93889390394163E-18,
1.));
#1158=DIRECTION('ref_axis',(2.13136799875945E-13,1.,-6.93889390393571E-18));
#1159=DIRECTION('',(-1.,-2.41579399372038E-15,-2.7755575615629E-17));
#1160=DIRECTION('center_axis',(2.7755575615629E-17,-6.93889390394163E-18,
-1.));
#1161=DIRECTION('ref_axis',(-0.707106781186547,0.707106781186547,-2.45326946669584E-17));
#1162=DIRECTION('',(-1.73472347597682E-18,-1.,6.93889390394163E-18));
#1163=DIRECTION('center_axis',(2.7755575615629E-17,-6.93889390394163E-18,
-1.));
#1164=DIRECTION('ref_axis',(-0.707106781186547,-0.707106781186547,-1.47196168001361E-17));
#1165=DIRECTION('',(1.,-1.73472347597682E-18,2.7755575615629E-17));
#1166=DIRECTION('center_axis',(-2.7755575615629E-17,6.93889390394163E-18,
1.));
#1167=DIRECTION('ref_axis',(-1.73472347597682E-18,-1.,6.93889390394163E-18));
#1168=DIRECTION('center_axis',(-2.7755575615629E-17,6.93889390394163E-18,
1.));
#1169=DIRECTION('ref_axis',(0.749999999999975,-0.661437827766176,2.54063286226442E-17));
#1170=DIRECTION('center_axis',(-2.7755575615629E-17,6.93889390394163E-18,
1.));
#1171=DIRECTION('ref_axis',(-0.749999999999969,0.661437827766182,-2.54063286226441E-17));
#1172=DIRECTION('',(-1.73472347597682E-18,-1.,6.93889390394163E-18));
#1173=DIRECTION('center_axis',(2.7755575615629E-17,-6.93889390394163E-18,
-1.));
#1174=DIRECTION('ref_axis',(-0.500000000000452,-0.866025403784178,-7.86852941285042E-18));
#1175=DIRECTION('center_axis',(-2.7755575615629E-17,6.93889390394163E-18,
1.));
#1176=DIRECTION('ref_axis',(0.935414346693543,0.353553390593121,2.35096941648923E-17));
#1177=DIRECTION('',(-1.73472347597672E-18,-1.,6.93889390394163E-18));
#1178=DIRECTION('center_axis',(-2.7755575615629E-17,6.93889390394163E-18,
1.));
#1179=DIRECTION('ref_axis',(-0.526782687642635,-0.850000000000001,-8.72309690151904E-18));
#1180=DIRECTION('center_axis',(-2.7755575615629E-17,6.93889390394163E-18,
1.));
#1181=DIRECTION('ref_axis',(0.526782687642667,0.849999999999981,8.72309690152006E-18));
#1182=DIRECTION('',(-1.,1.73472347597682E-18,-2.7755575615629E-17));
#1183=DIRECTION('center_axis',(2.7755575615629E-17,-6.93889390394163E-18,
-1.));
#1184=DIRECTION('ref_axis',(-0.707106781186541,0.707106781186554,-2.45326946669582E-17));
#1185=DIRECTION('',(-1.73472347597682E-18,-1.,6.93889390394163E-18));
#1186=DIRECTION('center_axis',(-2.7755575615629E-17,6.93889390394163E-18,
1.));
#1187=DIRECTION('ref_axis',(-1.,1.73472347597682E-18,-2.7755575615629E-17));
#1188=DIRECTION('center_axis',(-2.7755575615629E-17,6.93889390394163E-18,
1.));
#1189=DIRECTION('ref_axis',(-1.,1.73472347597682E-18,-2.7755575615629E-17));
#1190=DIRECTION('center_axis',(-2.05731406761622E-16,-6.93889390391383E-18,
-1.));
#1191=DIRECTION('ref_axis',(2.13136799875945E-13,1.,-6.93889390395768E-18));
#1192=DIRECTION('',(2.05731406761622E-16,6.93889390391383E-18,1.));
#1193=DIRECTION('',(-2.05731406761622E-16,-6.93889390391383E-18,-1.));
#1194=DIRECTION('center_axis',(-0.70710678118654,-0.707106781186555,1.5038061175758E-16));
#1195=DIRECTION('ref_axis',(-0.707106781186555,0.70710678118654,1.79819845357697E-16));
#1196=DIRECTION('',(-2.05731406761622E-16,-6.93889390391383E-18,-1.));
#1197=DIRECTION('center_axis',(-2.05731406761622E-16,-6.93889390391383E-18,
-1.));
#1198=DIRECTION('ref_axis',(0.707106781186545,0.70710678118655,-1.50380611757582E-16));
#1199=DIRECTION('center_axis',(-2.41579399372038E-15,1.,-6.93889390391399E-18));
#1200=DIRECTION('ref_axis',(1.,2.41579399372038E-15,2.7755575615629E-17));
#1201=DIRECTION('',(2.7755575615629E-17,-6.93889390391393E-18,-1.));
#1202=DIRECTION('center_axis',(-2.7755575615629E-17,6.93889390391393E-18,
1.));
#1203=DIRECTION('ref_axis',(0.935414346693543,0.353553390593121,2.35096941649021E-17));
#1204=DIRECTION('',(9.4709104299106E-17,6.93889390391393E-18,1.));
#1205=DIRECTION('',(2.7755575615629E-17,-6.93889390391393E-18,-1.));
#1206=DIRECTION('center_axis',(1.,-1.73472347597672E-18,-9.4709104299106E-17));
#1207=DIRECTION('ref_axis',(1.73472347597672E-18,1.,-6.93889390397574E-18));
#1208=DIRECTION('',(-2.7755575615629E-17,6.93889390391393E-18,1.));
#1209=DIRECTION('center_axis',(2.7755575615629E-17,-6.93889390391393E-18,
-1.));
#1210=DIRECTION('ref_axis',(-0.500000000000452,-0.866025403784178,-7.86852941287441E-18));
#1211=DIRECTION('',(2.7755575615629E-17,-6.93889390391393E-18,-1.));
#1212=DIRECTION('center_axis',(-1.,1.73472347597682E-18,-2.7755575615629E-17));
#1213=DIRECTION('ref_axis',(1.73472347597682E-18,1.,-6.93889390394163E-18));
#1214=DIRECTION('',(2.7755575615629E-17,-6.93889390391393E-18,-1.));
#1215=DIRECTION('center_axis',(2.7755575615629E-17,-6.93889390391393E-18,
-1.));
#1216=DIRECTION('ref_axis',(-0.526782687642635,-0.850000000000001,-8.72309690154258E-18));
#1217=DIRECTION('',(2.7755575615629E-17,-6.93889390391393E-18,-1.));
#1218=DIRECTION('center_axis',(2.7755575615629E-17,-6.93889390391393E-18,
-1.));
#1219=DIRECTION('ref_axis',(-0.707106781186547,0.707106781186547,-2.45326946669388E-17));
#1220=DIRECTION('',(-2.7755575615629E-17,6.93889390391393E-18,1.));
#1221=DIRECTION('center_axis',(-1.,1.73472347597682E-18,-2.7755575615629E-17));
#1222=DIRECTION('ref_axis',(1.73472347597682E-18,1.,-6.93889390394163E-18));
#1223=DIRECTION('',(2.7755575615629E-17,-6.93889390391393E-18,-1.));
#1224=DIRECTION('center_axis',(2.7755575615629E-17,-6.93889390391393E-18,
-1.));
#1225=DIRECTION('ref_axis',(-0.707106781186547,-0.707106781186547,-1.47196168001557E-17));
#1226=DIRECTION('',(-2.7755575615629E-17,6.93889390391393E-18,1.));
#1227=DIRECTION('center_axis',(-1.73472347597682E-18,-1.,6.93889390391393E-18));
#1228=DIRECTION('ref_axis',(-1.,1.73472347597682E-18,-2.7755575615629E-17));
#1229=DIRECTION('',(2.7755575615629E-17,-6.93889390391393E-18,-1.));
#1230=DIRECTION('center_axis',(-2.7755575615629E-17,6.93889390391393E-18,
1.));
#1231=DIRECTION('ref_axis',(-0.707106781186541,0.707106781186554,-2.45326946669387E-17));
#1232=DIRECTION('',(-2.7755575615629E-17,6.93889390391393E-18,1.));
#1233=DIRECTION('',(2.7755575615629E-17,-6.93889390391393E-18,-1.));
#1234=DIRECTION('center_axis',(-1.,1.73472347597682E-18,-2.7755575615629E-17));
#1235=DIRECTION('ref_axis',(1.73472347597682E-18,1.,-6.93889390394163E-18));
#1236=DIRECTION('center_axis',(1.73472347597682E-18,1.,-6.93889390391393E-18));
#1237=DIRECTION('ref_axis',(1.,-1.73472347597682E-18,2.7755575615629E-17));
#1238=DIRECTION('',(2.7755575615629E-17,-6.93889390391393E-18,-1.));
#1239=DIRECTION('center_axis',(2.7755575615629E-17,-6.93889390391393E-18,
-1.));
#1240=DIRECTION('ref_axis',(-1.,1.73472347597682E-18,-2.7755575615629E-17));
#1241=DIRECTION('',(2.7755575615629E-17,-6.93889390391393E-18,-1.));
#1242=DIRECTION('center_axis',(2.7755575615629E-17,-6.93889390391393E-18,
-1.));
#1243=DIRECTION('ref_axis',(-1.,1.73472347597682E-18,-2.7755575615629E-17));
#1244=DIRECTION('',(2.7755575615629E-17,-6.93889390391393E-18,-1.));
#1245=DIRECTION('center_axis',(2.7755575615629E-17,-6.93889390391393E-18,
-1.));
#1246=DIRECTION('ref_axis',(-1.73472347597682E-18,-1.,6.93889390391393E-18));
#1247=DIRECTION('',(2.7755575615629E-17,-6.93889390391393E-18,-1.));
#1248=DIRECTION('center_axis',(2.7755575615629E-17,-6.93889390391393E-18,
-1.));
#1249=DIRECTION('ref_axis',(0.749999999999975,-0.661437827766176,2.54063286226258E-17));
#1250=DIRECTION('',(2.7755575615629E-17,-6.93889390391393E-18,-1.));
#1251=DIRECTION('center_axis',(2.7755575615629E-17,-6.93889390391393E-18,
-1.));
#1252=DIRECTION('ref_axis',(-0.749999999999969,0.661437827766182,-2.54063286226257E-17));
#1253=DIRECTION('center_axis',(2.7755575615629E-17,-6.93889390391393E-18,
-1.));
#1254=DIRECTION('ref_axis',(0.526782687642667,0.849999999999981,8.72309690154361E-18));
#1255=DIRECTION('',(1.22464679914565E-16,5.3638544849001E-29,-1.));
#1256=DIRECTION('',(-1.,3.4694469518401E-18,-1.22464679914565E-16));
#1257=DIRECTION('',(-1.11022302463323E-16,2.36658271566304E-29,1.));
#1258=DIRECTION('',(1.,2.60208521396269E-17,1.11022302463323E-16));
#1259=CARTESIAN_POINT('',(0.,0.,0.));
#1260=CARTESIAN_POINT('',(0.,0.,0.));
#1261=CARTESIAN_POINT('',(0.,0.,0.));
#1262=CARTESIAN_POINT('Origin',(32.5499999999995,-36.1199999999993,13.5000000000003));
#1263=CARTESIAN_POINT('',(53.399999995359,-52.4497474683026,13.5000000000003));
#1264=CARTESIAN_POINT('',(53.3999987902138,-22.5502525316907,13.5000000000003));
#1265=CARTESIAN_POINT('',(53.3999999974295,-44.1099999966463,13.5000000000003));
#1266=CARTESIAN_POINT('',(52.9606601623875,-53.5104076400825,13.5000000000003));
#1267=CARTESIAN_POINT('Origin',(51.8999999906074,-52.4497474683026,13.5000000000003));
#1268=CARTESIAN_POINT('',(50.9104111592715,-55.5606637003597,13.5000000000003));
#1269=CARTESIAN_POINT('',(51.1804900940795,-55.2905838359128,13.5000000000003));
#1270=CARTESIAN_POINT('',(49.8497474589115,-56.0000024950807,13.5000000000003));
#1271=CARTESIAN_POINT('Origin',(49.8497474589115,-54.4999999999992,13.5000000000003));
#1272=CARTESIAN_POINT('',(46.4999999999995,-55.9999999999986,13.5000000000003));
#1273=CARTESIAN_POINT('',(41.2143398282195,-55.9999999999986,13.5000000000003));
#1274=CARTESIAN_POINT('',(44.9999999999995,-54.4999999999986,13.5000000000003));
#1275=CARTESIAN_POINT('Origin',(46.4999999999995,-54.4999999999986,13.5000000000003));
#1276=CARTESIAN_POINT('',(44.9999999999995,-48.4999999999992,13.5000000000003));
#1277=CARTESIAN_POINT('',(44.9999999999995,-32.0599999999993,13.5000000000003));
#1278=CARTESIAN_POINT('',(46.4999999999995,-46.9999999999992,13.5000000000003));
#1279=CARTESIAN_POINT('Origin',(46.4999999999995,-48.4999999999992,13.5000000000003));
#1280=CARTESIAN_POINT('',(49.0885621722335,-46.9999999999992,13.5000000000003));
#1281=CARTESIAN_POINT('',(38.7749999999995,-46.9999999999992,13.5000000000003));
#1282=CARTESIAN_POINT('',(49.4192810861165,-47.1249999999992,13.5000000000003));
#1283=CARTESIAN_POINT('Origin',(49.0885621722335,-47.4999999999992,13.5000000000003));
#1284=CARTESIAN_POINT('',(50.1249999999995,-46.4192810861161,13.5000000000003));
#1285=CARTESIAN_POINT('Origin',(49.7499999999995,-46.7499999999992,13.5000000000003));
#1286=CARTESIAN_POINT('',(49.9999999999995,-46.088562172233,13.5000000000003));
#1287=CARTESIAN_POINT('Origin',(50.4999999999995,-46.088562172233,13.5000000000003));
#1288=CARTESIAN_POINT('',(49.9999999999995,-43.728425125873,13.5000000000003));
#1289=CARTESIAN_POINT('',(49.9999999999995,-41.1042810861162,13.5000000000003));
#1290=CARTESIAN_POINT('',(50.1249999999995,-43.3977062119901,13.5000000000003));
#1291=CARTESIAN_POINT('Origin',(50.4999999999995,-43.728425125873,13.5000000000003));
#1292=CARTESIAN_POINT('',(50.2499999999995,-43.0669872981071,13.5000000000003));
#1293=CARTESIAN_POINT('Origin',(49.7499999999995,-43.0669872981071,13.5000000000003));
#1294=CARTESIAN_POINT('',(50.2499999999995,-40.2499999999992,13.5000000000003));
#1295=CARTESIAN_POINT('',(50.2499999999995,-39.8099999999993,13.5000000000003));
#1296=CARTESIAN_POINT('',(49.4866086561785,-39.8249999999992,13.5000000000003));
#1297=CARTESIAN_POINT('Origin',(49.7499999999995,-40.2499999999992,13.5000000000003));
#1298=CARTESIAN_POINT('',(49.2232173123565,-39.8999999999992,13.5000000000003));
#1299=CARTESIAN_POINT('Origin',(49.2232173123565,-39.3999999999992,13.5000000000003));
#1300=CARTESIAN_POINT('',(47.2999999999995,-39.8999999999992,13.5000000000003));
#1301=CARTESIAN_POINT('',(40.8866086561785,-39.8999999999992,13.5000000000003));
#1302=CARTESIAN_POINT('',(46.7999999999995,-39.3999999999992,13.5000000000003));
#1303=CARTESIAN_POINT('Origin',(47.2999999999995,-39.3999999999992,13.5000000000003));
#1304=CARTESIAN_POINT('',(46.7999999999995,-35.5999999999992,13.5000000000003));
#1305=CARTESIAN_POINT('',(46.7999999999995,-37.9684936490532,13.5000000000003));
#1306=CARTESIAN_POINT('',(47.2999999999995,-35.0999999999992,13.5000000000003));
#1307=CARTESIAN_POINT('Origin',(47.2999999999995,-35.5999999999992,13.5000000000003));
#1308=CARTESIAN_POINT('',(49.2232173123565,-35.0999999999992,13.5000000000003));
#1309=CARTESIAN_POINT('',(40.0633913438204,-35.0999999999992,13.5000000000003));
#1310=CARTESIAN_POINT('',(49.4866086561785,-35.1749999999992,13.5000000000003));
#1311=CARTESIAN_POINT('Origin',(49.2232173123565,-35.5999999999992,13.5000000000003));
#1312=CARTESIAN_POINT('',(50.2499999999995,-34.7499999999992,13.5000000000003));
#1313=CARTESIAN_POINT('Origin',(49.7499999999995,-34.7499999999992,13.5000000000003));
#1314=CARTESIAN_POINT('',(50.2499999999995,-31.728425125873,13.5000000000003));
#1315=CARTESIAN_POINT('',(50.2499999999995,-35.4349999999993,13.5000000000003));
#1316=CARTESIAN_POINT('',(50.1249999999995,-31.3977062119901,13.5000000000003));
#1317=CARTESIAN_POINT('Origin',(49.7499999999995,-31.728425125873,13.5000000000003));
#1318=CARTESIAN_POINT('',(49.9999999999995,-31.0669872981071,13.5000000000003));
#1319=CARTESIAN_POINT('Origin',(50.4999999999995,-31.0669872981071,13.5000000000003));
#1320=CARTESIAN_POINT('',(49.9999999999995,-28.9114378277654,13.5000000000003));
#1321=CARTESIAN_POINT('',(49.9999999999995,-35.1042810861162,13.5000000000003));
#1322=CARTESIAN_POINT('',(50.1249999999995,-28.5807189138823,13.5000000000003));
#1323=CARTESIAN_POINT('Origin',(50.4999999999995,-28.9114378277654,13.5000000000003));
#1324=CARTESIAN_POINT('',(49.4192810861165,-27.8749999999992,13.5000000000003));
#1325=CARTESIAN_POINT('Origin',(49.7499999999995,-28.2499999999992,13.5000000000003));
#1326=CARTESIAN_POINT('',(49.0885621722335,-27.9999999999992,13.5000000000003));
#1327=CARTESIAN_POINT('Origin',(49.0885621722335,-27.4999999999992,13.5000000000003));
#1328=CARTESIAN_POINT('',(46.4999999999995,-27.9999999999992,13.5000000000003));
#1329=CARTESIAN_POINT('',(40.8192810861164,-27.9999999999992,13.5000000000003));
#1330=CARTESIAN_POINT('',(44.9999999999995,-26.4999999999992,13.5000000000003));
#1331=CARTESIAN_POINT('Origin',(46.4999999999995,-26.4999999999992,13.5000000000003));
#1332=CARTESIAN_POINT('',(44.9999999999995,-20.4999999999992,13.5000000000003));
#1333=CARTESIAN_POINT('',(44.9999999999995,-32.0599999999993,13.5000000000003));
#1334=CARTESIAN_POINT('',(46.4999999999995,-18.9999999999992,13.5000000000003));
#1335=CARTESIAN_POINT('Origin',(46.4999999999995,-20.4999999999992,13.5000000000003));
#1336=CARTESIAN_POINT('',(49.8497474589164,-18.9999999999992,13.5000000000003));
#1337=CARTESIAN_POINT('',(38.7749999999995,-18.9999999999992,13.5000000000003));
#1338=CARTESIAN_POINT('',(50.9104067819291,-19.4393406769858,13.5000000000003));
#1339=CARTESIAN_POINT('Origin',(49.8497474589164,-20.4999999999993,13.5000000000003));
#1340=CARTESIAN_POINT('',(52.9606584648534,-21.4895940574453,13.5000000000003));
#1341=CARTESIAN_POINT('',(51.5155953342785,-20.0445309268703,13.5000000000003));
#1342=CARTESIAN_POINT('Origin',(51.8999999906074,-22.5502525316907,13.5000000000003));
#1343=CARTESIAN_POINT('',(49.9499999999995,-50.9999999999992,13.5000000000003));
#1344=CARTESIAN_POINT('Origin',(48.3999999999995,-50.9999999999992,13.5000000000003));
#1345=CARTESIAN_POINT('',(49.9499999999995,-23.9999999999992,13.5000000000003));
#1346=CARTESIAN_POINT('Origin',(48.3999999999995,-23.9999999999992,13.5000000000003));
#1347=CARTESIAN_POINT('Origin',(47.2999999999995,-39.3999999999992,15.0000000000002));
#1348=CARTESIAN_POINT('',(47.2999999999995,-39.8999999999992,15.0000000000002));
#1349=CARTESIAN_POINT('',(47.2999999999995,-39.8999999999992,15.0000000000002));
#1350=CARTESIAN_POINT('',(46.7999999999995,-39.3999999999992,15.0000000000002));
#1351=CARTESIAN_POINT('Origin',(47.2999999999995,-39.3999999999992,15.0000000000002));
#1352=CARTESIAN_POINT('',(46.7999999999995,-39.3999999999992,15.0000000000002));
#1353=CARTESIAN_POINT('Origin',(49.2232173123565,-39.8999999999992,15.0000000000002));
#1354=CARTESIAN_POINT('',(49.2232173123565,-39.8999999999992,15.0000000000002));
#1355=CARTESIAN_POINT('',(49.2232173123565,-39.8999999999992,15.0000000000002));
#1356=CARTESIAN_POINT('',(47.5767826876425,-39.8999999999992,15.0000000000002));
#1357=CARTESIAN_POINT('Origin',(49.2232173123565,-39.3999999999992,15.0000000000002));
#1358=CARTESIAN_POINT('',(49.4866086561785,-39.8249999999992,15.0000000000002));
#1359=CARTESIAN_POINT('',(49.4866086561785,-39.8249999999992,15.0000000000002));
#1360=CARTESIAN_POINT('Origin',(49.2232173123565,-39.3999999999992,15.0000000000002));
#1361=CARTESIAN_POINT('Origin',(49.7499999999995,-40.2499999999992,15.0000000000002));
#1362=CARTESIAN_POINT('',(50.2499999999995,-40.2499999999992,15.0000000000002));
#1363=CARTESIAN_POINT('',(50.2499999999995,-40.2499999999992,15.0000000000002));
#1364=CARTESIAN_POINT('Origin',(49.7499999999995,-40.2499999999992,15.0000000000002));
#1365=CARTESIAN_POINT('Origin',(50.2499999999995,-43.4999999999992,10.0000000000002));
#1366=CARTESIAN_POINT('',(50.2499999999995,-43.0669872981071,15.0000000000002));
#1367=CARTESIAN_POINT('',(50.2499999999995,-43.0669872981071,12.5000000000002));
#1368=CARTESIAN_POINT('',(50.2499999999995,-39.8099999999992,15.0000000000002));
#1369=CARTESIAN_POINT('Origin',(49.7499999999995,-43.0669872981071,12.5000000000002));
#1370=CARTESIAN_POINT('',(50.1249999999995,-43.3977062119901,15.0000000000002));
#1371=CARTESIAN_POINT('',(50.1249999999995,-43.3977062119901,12.5000000000002));
#1372=CARTESIAN_POINT('Origin',(49.7499999999995,-43.0669872981071,15.0000000000002));
#1373=CARTESIAN_POINT('Origin',(50.4999999999995,-43.728425125873,12.5000000000002));
#1374=CARTESIAN_POINT('',(49.9999999999995,-43.728425125873,15.0000000000002));
#1375=CARTESIAN_POINT('',(49.9999999999995,-43.728425125873,12.5000000000002));
#1376=CARTESIAN_POINT('Origin',(50.4999999999995,-43.728425125873,15.0000000000002));
#1377=CARTESIAN_POINT('Origin',(49.9999999999995,-46.088562172233,15.0000000000002));
#1378=CARTESIAN_POINT('',(49.9999999999995,-46.088562172233,15.0000000000002));
#1379=CARTESIAN_POINT('',(49.9999999999995,-46.088562172233,15.0000000000002));
#1380=CARTESIAN_POINT('',(49.9999999999995,-40.9114378277654,15.0000000000002));
#1381=CARTESIAN_POINT('Origin',(50.4999999999995,-46.088562172233,15.0000000000002));
#1382=CARTESIAN_POINT('',(50.1249999999995,-46.4192810861161,15.0000000000002));
#1383=CARTESIAN_POINT('',(50.1249999999995,-46.4192810861161,15.0000000000002));
#1384=CARTESIAN_POINT('Origin',(50.4999999999995,-46.088562172233,15.0000000000002));
#1385=CARTESIAN_POINT('Origin',(49.7499999999995,-46.7499999999992,15.0000000000002));
#1386=CARTESIAN_POINT('',(49.4192810861165,-47.1249999999992,15.0000000000002));
#1387=CARTESIAN_POINT('',(49.4192810861165,-47.1249999999992,15.0000000000002));
#1388=CARTESIAN_POINT('Origin',(49.7499999999995,-46.7499999999992,15.0000000000002));
#1389=CARTESIAN_POINT('Origin',(49.0885621722335,-47.4999999999992,15.0000000000002));
#1390=CARTESIAN_POINT('',(49.0885621722335,-46.9999999999992,15.0000000000002));
#1391=CARTESIAN_POINT('',(49.0885621722335,-46.9999999999992,15.0000000000002));
#1392=CARTESIAN_POINT('Origin',(49.0885621722335,-47.4999999999992,15.0000000000002));
#1393=CARTESIAN_POINT('Origin',(44.9999999999995,-46.9999999999992,15.0000000000002));
#1394=CARTESIAN_POINT('',(46.4999999999995,-46.9999999999992,15.0000000000002));
#1395=CARTESIAN_POINT('',(46.4999999999995,-46.9999999999992,15.0000000000002));
#1396=CARTESIAN_POINT('',(49.0885621722335,-46.9999999999992,15.0000000000002));
#1397=CARTESIAN_POINT('Origin',(46.4999999999995,-48.4999999999992,15.0000000000002));
#1398=CARTESIAN_POINT('',(44.9999999999995,-48.4999999999992,15.0000000000002));
#1399=CARTESIAN_POINT('',(44.9999999999995,-48.4999999999992,15.0000000000002));
#1400=CARTESIAN_POINT('Origin',(46.4999999999995,-48.4999999999992,15.0000000000002));
#1401=CARTESIAN_POINT('Origin',(44.9999999999995,-27.9999999999992,15.0000000000002));
#1402=CARTESIAN_POINT('',(44.9999999999995,-54.4999999999986,15.0000000000002));
#1403=CARTESIAN_POINT('',(44.9999999999995,-54.4999999999986,15.0000000000002));
#1404=CARTESIAN_POINT('',(44.9999999999995,-32.0599999999992,15.0000000000002));
#1405=CARTESIAN_POINT('Origin',(46.4999999999995,-54.4999999999986,15.0000000000002));
#1406=CARTESIAN_POINT('',(46.4999999999995,-55.9999999999986,15.0000000000002));
#1407=CARTESIAN_POINT('',(46.4999999999995,-55.9999999999986,15.0000000000002));
#1408=CARTESIAN_POINT('Origin',(46.4999999999995,-54.4999999999986,15.0000000000002));
#1409=CARTESIAN_POINT('Origin',(49.8786796564395,-55.9999999999986,15.0000000000002));
#1410=CARTESIAN_POINT('',(49.8497474589115,-56.0000024950807,15.0000000000002));
#1411=CARTESIAN_POINT('',(49.8497474589115,-55.9999999999986,2.1316282072803E-13));
#1412=CARTESIAN_POINT('',(47.5923881554245,-55.9999999999986,15.0000000000002));
#1413=CARTESIAN_POINT('Origin',(49.8497474589115,-54.4999999999992,2.1316282072803E-13));
#1414=CARTESIAN_POINT('',(50.9104111592715,-55.5606637003597,15.0000000000002));
#1415=CARTESIAN_POINT('',(50.9104111592715,-55.5606637003597,2.1316282072803E-13));
#1416=CARTESIAN_POINT('Origin',(49.8497474589115,-54.4999999999992,15.0000000000002));
#1417=CARTESIAN_POINT('Origin',(50.9104111592715,-55.5606637003597,2.1316282072803E-13));
#1418=CARTESIAN_POINT('',(52.9606601623875,-53.5104076400825,15.0000000000002));
#1419=CARTESIAN_POINT('',(52.9606601623875,-53.5104076400825,2.1316282072803E-13));
#1420=CARTESIAN_POINT('',(51.1804900940795,-55.2905838359127,15.0000000000002));
#1421=CARTESIAN_POINT('Origin',(51.8999999906074,-52.4497474683026,2.1316282072803E-13));
#1422=CARTESIAN_POINT('',(53.399999995359,-52.4497474683026,15.0000000000002));
#1423=CARTESIAN_POINT('',(53.3999999906075,-52.4497474683026,2.1316282072803E-13));
#1424=CARTESIAN_POINT('Origin',(51.8999999906074,-52.4497474683026,15.0000000000002));
#1425=CARTESIAN_POINT('Origin',(53.3999999999995,-52.0999999999995,2.1316282072803E-13));
#1426=CARTESIAN_POINT('',(53.3999987902138,-22.5502525316907,15.0000000000002));
#1427=CARTESIAN_POINT('',(53.3999999906075,-22.5502525316907,2.1316282072803E-13));
#1428=CARTESIAN_POINT('',(53.3999999974295,-44.1099999966462,15.0000000000002));
#1429=CARTESIAN_POINT('Origin',(32.5499999999995,-36.1199999999993,15.0000000000002));
#1430=CARTESIAN_POINT('',(52.9606584648534,-21.4895940574453,15.0000000000002));
#1431=CARTESIAN_POINT('Origin',(51.8999999906074,-22.5502525316907,15.0000000000002));
#1432=CARTESIAN_POINT('',(50.9104067819291,-19.4393406769858,15.0000000000002));
#1433=CARTESIAN_POINT('',(51.5155953342785,-20.0445309268703,15.0000000000002));
#1434=CARTESIAN_POINT('',(49.8497474589164,-18.9999999999992,15.0000000000002));
#1435=CARTESIAN_POINT('Origin',(49.8497474589164,-20.4999999999993,15.0000000000002));
#1436=CARTESIAN_POINT('',(46.4999999999995,-18.9999999999992,15.0000000000002));
#1437=CARTESIAN_POINT('',(49.5923881554245,-18.9999999999992,15.0000000000002));
#1438=CARTESIAN_POINT('',(44.9999999999995,-20.4999999999992,15.0000000000002));
#1439=CARTESIAN_POINT('Origin',(46.4999999999995,-20.4999999999992,15.0000000000002));
#1440=CARTESIAN_POINT('',(44.9999999999995,-26.4999999999992,15.0000000000002));
#1441=CARTESIAN_POINT('',(44.9999999999995,-18.9999999999992,15.0000000000002));
#1442=CARTESIAN_POINT('',(46.4999999999995,-27.9999999999992,15.0000000000002));
#1443=CARTESIAN_POINT('Origin',(46.4999999999995,-26.4999999999992,15.0000000000002));
#1444=CARTESIAN_POINT('',(49.0885621722335,-27.9999999999992,15.0000000000002));
#1445=CARTESIAN_POINT('',(44.9999999999995,-27.9999999999992,15.0000000000002));
#1446=CARTESIAN_POINT('',(49.4192810861165,-27.8749999999992,15.0000000000002));
#1447=CARTESIAN_POINT('Origin',(49.0885621722335,-27.4999999999992,15.0000000000002));
#1448=CARTESIAN_POINT('',(50.1249999999995,-28.5807189138823,15.0000000000002));
#1449=CARTESIAN_POINT('Origin',(49.7499999999995,-28.2499999999992,15.0000000000002));
#1450=CARTESIAN_POINT('',(49.9999999999995,-28.9114378277654,15.0000000000002));
#1451=CARTESIAN_POINT('Origin',(50.4999999999995,-28.9114378277654,15.0000000000002));
#1452=CARTESIAN_POINT('',(49.9999999999995,-31.0669872981071,15.0000000000002));
#1453=CARTESIAN_POINT('',(49.9999999999995,-28.9114378277654,15.0000000000002));
#1454=CARTESIAN_POINT('',(50.1249999999995,-31.3977062119901,15.0000000000002));
#1455=CARTESIAN_POINT('Origin',(50.4999999999995,-31.0669872981071,15.0000000000002));
#1456=CARTESIAN_POINT('',(50.2499999999995,-31.728425125873,15.0000000000002));
#1457=CARTESIAN_POINT('Origin',(49.7499999999995,-31.728425125873,15.0000000000002));
#1458=CARTESIAN_POINT('',(50.2499999999995,-34.7499999999992,15.0000000000002));
#1459=CARTESIAN_POINT('',(50.2499999999995,-35.4349999999992,15.0000000000002));
#1460=CARTESIAN_POINT('',(49.4866086561785,-35.1749999999992,15.0000000000002));
#1461=CARTESIAN_POINT('Origin',(49.7499999999995,-34.7499999999992,15.0000000000002));
#1462=CARTESIAN_POINT('',(49.2232173123565,-35.0999999999992,15.0000000000002));
#1463=CARTESIAN_POINT('Origin',(49.2232173123565,-35.5999999999992,15.0000000000002));
#1464=CARTESIAN_POINT('',(47.2999999999995,-35.0999999999992,15.0000000000002));
#1465=CARTESIAN_POINT('',(49.2232173123565,-35.0999999999992,15.0000000000002));
#1466=CARTESIAN_POINT('',(46.7999999999995,-35.5999999999992,15.0000000000002));
#1467=CARTESIAN_POINT('Origin',(47.2999999999995,-35.5999999999992,15.0000000000002));
#1468=CARTESIAN_POINT('',(46.7999999999995,-35.0999999999992,15.0000000000002));
#1469=CARTESIAN_POINT('',(49.9499999999995,-23.9999999999992,15.0000000000002));
#1470=CARTESIAN_POINT('Origin',(48.3999999999995,-23.9999999999992,15.0000000000002));
#1471=CARTESIAN_POINT('',(49.9499999999995,-50.9999999999992,15.0000000000002));
#1472=CARTESIAN_POINT('Origin',(48.3999999999995,-50.9999999999992,15.0000000000002));
#1473=CARTESIAN_POINT('Origin',(49.8497474589164,-20.4999999999993,2.1316282072803E-13));
#1474=CARTESIAN_POINT('',(49.8497474589164,-18.9999999999992,2.1316282072803E-13));
#1475=CARTESIAN_POINT('',(50.9104076306955,-19.4393398282197,2.1316282072803E-13));
#1476=CARTESIAN_POINT('Origin',(52.9606584648534,-21.4895940574453,2.1316282072803E-13));
#1477=CARTESIAN_POINT('',(52.9606584648534,-21.4895940574453,2.1316282072803E-13));
#1478=CARTESIAN_POINT('Origin',(51.8999999906074,-22.5502525316907,2.1316282072803E-13));
#1479=CARTESIAN_POINT('Origin',(44.9999999999995,-18.9999999999992,15.0000000000002));
#1480=CARTESIAN_POINT('',(46.4999999999995,-18.9999999999992,15.0000000000002));
#1481=CARTESIAN_POINT('Origin',(49.7499999999995,-31.728425125873,10.0000000000002));
#1482=CARTESIAN_POINT('',(50.2499999999995,-31.728425125873,10.0000000000002));
#1483=CARTESIAN_POINT('',(50.1249999999995,-31.3977062119901,10.0000000000002));
#1484=CARTESIAN_POINT('Origin',(50.2499999999995,-34.7499999999992,10.0000000000002));
#1485=CARTESIAN_POINT('',(50.2499999999995,-34.7499999999992,15.0000000000002));
#1486=CARTESIAN_POINT('Origin',(50.4999999999995,-31.0669872981071,10.0000000000002));
#1487=CARTESIAN_POINT('',(49.9999999999995,-31.0669872981071,10.0000000000002));
#1488=CARTESIAN_POINT('Origin',(49.9999999999995,-34.088562172233,15.0000000000002));
#1489=CARTESIAN_POINT('',(49.9999999999995,-28.9114378277654,15.0000000000002));
#1490=CARTESIAN_POINT('Origin',(49.7499999999995,-34.7499999999992,15.0000000000002));
#1491=CARTESIAN_POINT('',(49.4866086561785,-35.1749999999992,15.0000000000002));
#1492=CARTESIAN_POINT('Origin',(46.4999999999995,-20.4999999999992,15.0000000000002));
#1493=CARTESIAN_POINT('',(44.9999999999995,-20.4999999999992,15.0000000000002));
#1494=CARTESIAN_POINT('Origin',(44.9999999999995,-27.9999999999992,15.0000000000002));
#1495=CARTESIAN_POINT('',(44.9999999999995,-26.4999999999992,15.0000000000002));
#1496=CARTESIAN_POINT('Origin',(46.4999999999995,-26.4999999999992,15.0000000000002));
#1497=CARTESIAN_POINT('',(46.4999999999995,-27.9999999999992,15.0000000000002));
#1498=CARTESIAN_POINT('Origin',(49.0885621722335,-27.9999999999992,15.0000000000002));
#1499=CARTESIAN_POINT('',(49.0885621722335,-27.9999999999992,15.0000000000002));
#1500=CARTESIAN_POINT('Origin',(47.2999999999995,-35.5999999999992,15.0000000000002));
#1501=CARTESIAN_POINT('',(46.7999999999995,-35.5999999999992,15.0000000000002));
#1502=CARTESIAN_POINT('',(47.2999999999995,-35.0999999999992,15.0000000000002));
#1503=CARTESIAN_POINT('Origin',(46.7999999999995,-39.816987298107,15.0000000000002));
#1504=CARTESIAN_POINT('Origin',(47.5767826876425,-35.0999999999992,15.0000000000002));
#1505=CARTESIAN_POINT('',(49.2232173123565,-35.0999999999992,15.0000000000002));
#1506=CARTESIAN_POINT('Origin',(48.3999999999995,-23.9999999999992,15.0000000000002));
#1507=CARTESIAN_POINT('',(49.9499999999995,-23.9999999999992,15.0000000000002));
#1508=CARTESIAN_POINT('Origin',(48.3999999999995,-50.9999999999992,15.0000000000002));
#1509=CARTESIAN_POINT('',(49.9499999999995,-50.9999999999992,15.0000000000002));
#1510=CARTESIAN_POINT('Origin',(49.0885621722335,-27.4999999999992,15.0000000000002));
#1511=CARTESIAN_POINT('',(49.4192810861165,-27.8749999999992,15.0000000000002));
#1512=CARTESIAN_POINT('Origin',(49.7499999999995,-28.2499999999992,15.0000000000002));
#1513=CARTESIAN_POINT('',(50.1249999999995,-28.5807189138823,15.0000000000002));
#1514=CARTESIAN_POINT('Origin',(50.4999999999995,-28.9114378277654,15.0000000000002));
#1515=CARTESIAN_POINT('Origin',(49.2232173123565,-35.5999999999992,15.0000000000002));
#1516=CARTESIAN_POINT('',(-250.000000000001,1.66533453693773E-13,28.5000000000004));
#1517=CARTESIAN_POINT('',(-7.00006149153936,6.3497493726894,694.999522435471));
#1518=UNCERTAINTY_MEASURE_WITH_UNIT(LENGTH_MEASURE(0.01),#1526,
'DISTANCE_ACCURACY_VALUE',
'Maximum model space distance between geometric entities at asserted c
onnectivities');
#1519=UNCERTAINTY_MEASURE_WITH_UNIT(LENGTH_MEASURE(0.01),#1526,
'DISTANCE_ACCURACY_VALUE',
'Maximum model space distance between geometric entities at asserted c
onnectivities');
#1520=UNCERTAINTY_MEASURE_WITH_UNIT(LENGTH_MEASURE(0.01),#1526,
'DISTANCE_ACCURACY_VALUE',
'Maximum model space distance between geometric entities at asserted c
onnectivities');
#1521=UNCERTAINTY_MEASURE_WITH_UNIT(LENGTH_MEASURE(0.01),#1526,
'DISTANCE_ACCURACY_VALUE',
'Maximum model space distance between geometric entities at asserted c
onnectivities');
#1522=(
GEOMETRIC_REPRESENTATION_CONTEXT(3)
GLOBAL_UNCERTAINTY_ASSIGNED_CONTEXT((#1518))
GLOBAL_UNIT_ASSIGNED_CONTEXT((#1526,#1528,#1529))
REPRESENTATION_CONTEXT('','3D')
);
#1523=(
GEOMETRIC_REPRESENTATION_CONTEXT(3)
GLOBAL_UNCERTAINTY_ASSIGNED_CONTEXT((#1519))
GLOBAL_UNIT_ASSIGNED_CONTEXT((#1526,#1528,#1529))
REPRESENTATION_CONTEXT('','3D')
);
#1524=(
GEOMETRIC_REPRESENTATION_CONTEXT(3)
GLOBAL_UNCERTAINTY_ASSIGNED_CONTEXT((#1520))
GLOBAL_UNIT_ASSIGNED_CONTEXT((#1526,#1528,#1529))
REPRESENTATION_CONTEXT('','3D')
);
#1525=(
GEOMETRIC_REPRESENTATION_CONTEXT(3)
GLOBAL_UNCERTAINTY_ASSIGNED_CONTEXT((#1521))
GLOBAL_UNIT_ASSIGNED_CONTEXT((#1526,#1528,#1529))
REPRESENTATION_CONTEXT('','3D')
);
#1526=(
LENGTH_UNIT()
NAMED_UNIT(*)
SI_UNIT(.MILLI.,.METRE.)
);
#1527=(
LENGTH_UNIT()
NAMED_UNIT(*)
SI_UNIT($,.METRE.)
);
#1528=(
NAMED_UNIT(*)
PLANE_ANGLE_UNIT()
SI_UNIT($,.RADIAN.)
);
#1529=(
NAMED_UNIT(*)
SI_UNIT($,.STERADIAN.)
SOLID_ANGLE_UNIT()
);
#1530=SHAPE_DEFINITION_REPRESENTATION(#1533,#1538);
#1531=SHAPE_DEFINITION_REPRESENTATION(#1534,#1539);
#1532=SHAPE_DEFINITION_REPRESENTATION(#1535,#1540);
#1533=PRODUCT_DEFINITION_SHAPE('',$,#1542);
#1534=PRODUCT_DEFINITION_SHAPE('',$,#1543);
#1535=PRODUCT_DEFINITION_SHAPE('',$,#1544);
#1536=PRODUCT_DEFINITION_SHAPE($,$,#17);
#1537=PRODUCT_DEFINITION_SHAPE($,$,#18);
#1538=SHAPE_REPRESENTATION('',(#882,#982),#1522);
#1539=SHAPE_REPRESENTATION('',(#883,#981),#1523);
#1540=SHAPE_REPRESENTATION('',(#884),#1524);
#1541=PRODUCT_DEFINITION_CONTEXT('part definition',#1552,'design');
#1542=PRODUCT_DEFINITION('2026-08-06-20-18-19-490','(Unsaved)',#1545,#1541);
#1543=PRODUCT_DEFINITION('2026-08-22-19-56-40-349',
'_Sheet_metal_9mm_AWD_left_XY_joint (1) (1)',#1546,#1541);
#1544=PRODUCT_DEFINITION('2026-08-22-20-20-21-305',
'Sheet_metal_9mm_spacer_c_2x2.5_or_5mm (2) (1)',#1547,#1541);
#1545=PRODUCT_DEFINITION_FORMATION('',$,#1554);
#1546=PRODUCT_DEFINITION_FORMATION('',$,#1555);
#1547=PRODUCT_DEFINITION_FORMATION('',$,#1556);
#1548=PRODUCT_RELATED_PRODUCT_CATEGORY('(Unsaved)','(Unsaved)',(#1554));
#1549=PRODUCT_RELATED_PRODUCT_CATEGORY(
'_Sheet_metal_9mm_AWD_left_XY_joint (1) (1)',
'_Sheet_metal_9mm_AWD_left_XY_joint (1) (1)',(#1555));
#1550=PRODUCT_RELATED_PRODUCT_CATEGORY(
'Sheet_metal_9mm_spacer_c_2x2.5_or_5mm (2) (1)',
'Sheet_metal_9mm_spacer_c_2x2.5_or_5mm (2) (1)',(#1556));
#1551=APPLICATION_PROTOCOL_DEFINITION('international standard',
'automotive_design',2009,#1552);
#1552=APPLICATION_CONTEXT(
'Core Data for Automotive Mechanical Design Process');
#1553=PRODUCT_CONTEXT('part definition',#1552,'mechanical');
#1554=PRODUCT('2026-08-06-20-18-19-490','(Unsaved)',$,(#1553));
#1555=PRODUCT('2026-08-22-19-56-40-349',
'_Sheet_metal_9mm_AWD_left_XY_joint (1) (1)',$,(#1553));
#1556=PRODUCT('2026-08-22-20-20-21-305',
'Sheet_metal_9mm_spacer_c_2x2.5_or_5mm (2) (1)',$,(#1553));
#1557=PRESENTATION_STYLE_ASSIGNMENT((#1559));
#1558=PRESENTATION_STYLE_ASSIGNMENT((#1560));
#1559=SURFACE_STYLE_USAGE(.BOTH.,#1561);
#1560=SURFACE_STYLE_USAGE(.BOTH.,#1562);
#1561=SURFACE_SIDE_STYLE('',(#1563));
#1562=SURFACE_SIDE_STYLE('',(#1564));
#1563=SURFACE_STYLE_FILL_AREA(#1565);
#1564=SURFACE_STYLE_FILL_AREA(#1566);
#1565=FILL_AREA_STYLE('Steel - Satin',(#1567));
#1566=FILL_AREA_STYLE('Opaque(245,245,246)',(#1568));
#1567=FILL_AREA_STYLE_COLOUR('Steel - Satin',#1569);
#1568=FILL_AREA_STYLE_COLOUR('Opaque(245,245,246)',#1570);
#1569=COLOUR_RGB('Steel - Satin',0.627450980392157,0.627450980392157,0.627450980392157);
#1570=COLOUR_RGB('Opaque(245,245,246)',0.96078431372549,0.96078431372549,
0.964705882352941);
ENDSEC;
END-ISO-10303-21;
