ISO-10303-21;
HEADER;
/* Generated by software containing ST-Developer
 * from STEP Tools, Inc. (www.steptools.com) 
 */

FILE_DESCRIPTION(
/* description */ (''),
/* implementation_level */ '2;1');

FILE_NAME(
/* name */ '4x Sheet_metal_9mm_spacer_b_2x2.5_or_5mm.step',
/* time_stamp */ '2026-08-22T21:22:13-05:00',
/* author */ (''),
/* organization */ (''),
/* preprocessor_version */ 'ST-DEVELOPER v20.1',
/* originating_system */ 'Autodesk Translation Framework v15.8.0.0',
/* authorisation */ '');

FILE_SCHEMA (('AUTOMOTIVE_DESIGN { 1 0 10303 214 3 1 1 }'));
ENDSEC;

DATA;
#10=MECHANICAL_DESIGN_GEOMETRIC_PRESENTATION_REPRESENTATION('',(#21),#627);
#11=ITEM_DEFINED_TRANSFORMATION($,$,#370,#405);
#12=ITEM_DEFINED_TRANSFORMATION($,$,#369,#406);
#13=(
REPRESENTATION_RELATIONSHIP($,$,#642,#641)
REPRESENTATION_RELATIONSHIP_WITH_TRANSFORMATION(#11)
SHAPE_REPRESENTATION_RELATIONSHIP()
);
#14=(
REPRESENTATION_RELATIONSHIP($,$,#641,#640)
REPRESENTATION_RELATIONSHIP_WITH_TRANSFORMATION(#12)
SHAPE_REPRESENTATION_RELATIONSHIP()
);
#15=CONTEXT_DEPENDENT_SHAPE_REPRESENTATION(#13,#638);
#16=CONTEXT_DEPENDENT_SHAPE_REPRESENTATION(#14,#639);
#17=NEXT_ASSEMBLY_USAGE_OCCURRENCE(
'Sheet_metal_9mm_spacer_b_2x2.5_or_5mm (2):1',
'Sheet_metal_9mm_spacer_b_2x2.5_or_5mm (2):1',
'Sheet_metal_9mm_spacer_b_2x2.5_or_5mm (2):1',#645,#646,
'Sheet_metal_9mm_spacer_b_2x2.5_or_5mm (2):1');
#18=NEXT_ASSEMBLY_USAGE_OCCURRENCE(
'_Sheet_metal_9mm_AWD_left_XY_joint (1) (1):1',
'_Sheet_metal_9mm_AWD_left_XY_joint (1) (1):1',
'_Sheet_metal_9mm_AWD_left_XY_joint (1) (1):1',#644,#645,
'_Sheet_metal_9mm_AWD_left_XY_joint (1) (1):1');
#19=SHAPE_REPRESENTATION_RELATIONSHIP('SRR','None',#642,#20);
#20=ADVANCED_BREP_SHAPE_REPRESENTATION('',(#22),#626);
#21=STYLED_ITEM('',(#660),#22);
#22=MANIFOLD_SOLID_BREP('Body1',#355);
#23=FACE_BOUND('',#74,.T.);
#24=FACE_BOUND('',#83,.T.);
#25=CIRCLE('',#373,2.54999999999997);
#26=CIRCLE('',#374,2.54999999999997);
#27=CIRCLE('',#377,2.55000000000001);
#28=CIRCLE('',#378,2.55000000000001);
#29=CIRCLE('',#380,1.5);
#30=CIRCLE('',#381,1.5);
#31=CIRCLE('',#384,1.5);
#32=CIRCLE('',#385,1.5);
#33=CIRCLE('',#386,1.5);
#34=CIRCLE('',#387,1.5);
#35=CIRCLE('',#388,1.5);
#36=CIRCLE('',#390,1.5);
#37=CIRCLE('',#393,1.5);
#38=CIRCLE('',#396,1.5);
#39=CIRCLE('',#400,1.5);
#40=CIRCLE('',#401,1.5);
#41=CYLINDRICAL_SURFACE('',#372,2.54999999999997);
#42=CYLINDRICAL_SURFACE('',#376,2.55000000000001);
#43=CYLINDRICAL_SURFACE('',#379,1.5);
#44=CYLINDRICAL_SURFACE('',#389,1.5);
#45=CYLINDRICAL_SURFACE('',#392,1.5);
#46=CYLINDRICAL_SURFACE('',#395,1.5);
#47=CYLINDRICAL_SURFACE('',#402,1.5);
#48=CYLINDRICAL_SURFACE('',#404,1.5);
#49=FACE_OUTER_BOUND('',#67,.T.);
#50=FACE_OUTER_BOUND('',#68,.T.);
#51=FACE_OUTER_BOUND('',#69,.T.);
#52=FACE_OUTER_BOUND('',#70,.T.);
#53=FACE_OUTER_BOUND('',#71,.T.);
#54=FACE_OUTER_BOUND('',#72,.T.);
#55=FACE_OUTER_BOUND('',#73,.T.);
#56=FACE_OUTER_BOUND('',#75,.T.);
#57=FACE_OUTER_BOUND('',#76,.T.);
#58=FACE_OUTER_BOUND('',#77,.T.);
#59=FACE_OUTER_BOUND('',#78,.T.);
#60=FACE_OUTER_BOUND('',#79,.T.);
#61=FACE_OUTER_BOUND('',#80,.T.);
#62=FACE_OUTER_BOUND('',#81,.T.);
#63=FACE_OUTER_BOUND('',#82,.T.);
#64=FACE_OUTER_BOUND('',#84,.T.);
#65=FACE_OUTER_BOUND('',#85,.T.);
#66=FACE_OUTER_BOUND('',#86,.T.);
#67=EDGE_LOOP('',(#231,#232,#233,#234));
#68=EDGE_LOOP('',(#235,#236,#237,#238));
#69=EDGE_LOOP('',(#239,#240,#241,#242));
#70=EDGE_LOOP('',(#243,#244,#245,#246));
#71=EDGE_LOOP('',(#247,#248,#249,#250));
#72=EDGE_LOOP('',(#251,#252,#253,#254));
#73=EDGE_LOOP('',(#255,#256,#257,#258,#259,#260,#261,#262,#263,#264,#265,
#266));
#74=EDGE_LOOP('',(#267,#268,#269,#270));
#75=EDGE_LOOP('',(#271,#272,#273,#274));
#76=EDGE_LOOP('',(#275,#276,#277,#278));
#77=EDGE_LOOP('',(#279,#280,#281,#282));
#78=EDGE_LOOP('',(#283,#284,#285,#286));
#79=EDGE_LOOP('',(#287,#288,#289,#290));
#80=EDGE_LOOP('',(#291,#292,#293,#294));
#81=EDGE_LOOP('',(#295,#296,#297,#298));
#82=EDGE_LOOP('',(#299,#300,#301,#302,#303,#304,#305,#306,#307,#308,#309,
#310));
#83=EDGE_LOOP('',(#311,#312,#313,#314));
#84=EDGE_LOOP('',(#315,#316,#317,#318));
#85=EDGE_LOOP('',(#319,#320,#321,#322));
#86=EDGE_LOOP('',(#323,#324,#325,#326));
#87=LINE('',#523,#119);
#88=LINE('',#525,#120);
#89=LINE('',#527,#121);
#90=LINE('',#528,#122);
#91=LINE('',#534,#123);
#92=LINE('',#537,#124);
#93=LINE('',#539,#125);
#94=LINE('',#540,#126);
#95=LINE('',#549,#127);
#96=LINE('',#552,#128);
#97=LINE('',#555,#129);
#98=LINE('',#557,#130);
#99=LINE('',#558,#131);
#100=LINE('',#561,#132);
#101=LINE('',#565,#133);
#102=LINE('',#569,#134);
#103=LINE('',#573,#135);
#104=LINE('',#577,#136);
#105=LINE('',#581,#137);
#106=LINE('',#585,#138);
#107=LINE('',#586,#139);
#108=LINE('',#589,#140);
#109=LINE('',#593,#141);
#110=LINE('',#594,#142);
#111=LINE('',#598,#143);
#112=LINE('',#601,#144);
#113=LINE('',#602,#145);
#114=LINE('',#605,#146);
#115=LINE('',#606,#147);
#116=LINE('',#611,#148);
#117=LINE('',#614,#149);
#118=LINE('',#616,#150);
#119=VECTOR('',#415,10.);
#120=VECTOR('',#416,10.);
#121=VECTOR('',#417,10.);
#122=VECTOR('',#418,10.);
#123=VECTOR('',#425,10.);
#124=VECTOR('',#428,10.);
#125=VECTOR('',#429,10.);
#126=VECTOR('',#430,10.);
#127=VECTOR('',#441,10.);
#128=VECTOR('',#444,10.);
#129=VECTOR('',#447,10.);
#130=VECTOR('',#448,10.);
#131=VECTOR('',#449,10.);
#132=VECTOR('',#452,10.);
#133=VECTOR('',#455,10.);
#134=VECTOR('',#458,10.);
#135=VECTOR('',#461,9.99999999999999);
#136=VECTOR('',#464,10.);
#137=VECTOR('',#469,10.);
#138=VECTOR('',#474,10.);
#139=VECTOR('',#475,10.);
#140=VECTOR('',#478,10.);
#141=VECTOR('',#483,10.);
#142=VECTOR('',#484,9.99999999999999);
#143=VECTOR('',#489,10.);
#144=VECTOR('',#492,10.);
#145=VECTOR('',#493,10.);
#146=VECTOR('',#496,10.);
#147=VECTOR('',#497,10.);
#148=VECTOR('',#502,10.);
#149=VECTOR('',#507,10.);
#150=VECTOR('',#510,10.);
#151=VERTEX_POINT('',#521);
#152=VERTEX_POINT('',#522);
#153=VERTEX_POINT('',#524);
#154=VERTEX_POINT('',#526);
#155=VERTEX_POINT('',#530);
#156=VERTEX_POINT('',#532);
#157=VERTEX_POINT('',#536);
#158=VERTEX_POINT('',#538);
#159=VERTEX_POINT('',#545);
#160=VERTEX_POINT('',#546);
#161=VERTEX_POINT('',#548);
#162=VERTEX_POINT('',#550);
#163=VERTEX_POINT('',#554);
#164=VERTEX_POINT('',#556);
#165=VERTEX_POINT('',#560);
#166=VERTEX_POINT('',#562);
#167=VERTEX_POINT('',#564);
#168=VERTEX_POINT('',#566);
#169=VERTEX_POINT('',#568);
#170=VERTEX_POINT('',#570);
#171=VERTEX_POINT('',#572);
#172=VERTEX_POINT('',#574);
#173=VERTEX_POINT('',#576);
#174=VERTEX_POINT('',#580);
#175=VERTEX_POINT('',#584);
#176=VERTEX_POINT('',#588);
#177=VERTEX_POINT('',#592);
#178=VERTEX_POINT('',#596);
#179=VERTEX_POINT('',#600);
#180=VERTEX_POINT('',#604);
#181=VERTEX_POINT('',#608);
#182=VERTEX_POINT('',#610);
#183=EDGE_CURVE('',#151,#152,#87,.T.);
#184=EDGE_CURVE('',#151,#153,#88,.T.);
#185=EDGE_CURVE('',#154,#153,#89,.T.);
#186=EDGE_CURVE('',#152,#154,#90,.T.);
#187=EDGE_CURVE('',#152,#155,#25,.T.);
#188=EDGE_CURVE('',#156,#154,#26,.T.);
#189=EDGE_CURVE('',#155,#156,#91,.T.);
#190=EDGE_CURVE('',#155,#157,#92,.T.);
#191=EDGE_CURVE('',#158,#156,#93,.T.);
#192=EDGE_CURVE('',#157,#158,#94,.T.);
#193=EDGE_CURVE('',#157,#151,#27,.T.);
#194=EDGE_CURVE('',#153,#158,#28,.T.);
#195=EDGE_CURVE('',#159,#160,#29,.T.);
#196=EDGE_CURVE('',#160,#161,#95,.T.);
#197=EDGE_CURVE('',#161,#162,#30,.T.);
#198=EDGE_CURVE('',#162,#159,#96,.T.);
#199=EDGE_CURVE('',#163,#160,#97,.T.);
#200=EDGE_CURVE('',#164,#163,#98,.T.);
#201=EDGE_CURVE('',#161,#164,#99,.T.);
#202=EDGE_CURVE('',#159,#165,#100,.T.);
#203=EDGE_CURVE('',#166,#165,#31,.T.);
#204=EDGE_CURVE('',#166,#167,#101,.T.);
#205=EDGE_CURVE('',#168,#167,#32,.T.);
#206=EDGE_CURVE('',#168,#169,#102,.T.);
#207=EDGE_CURVE('',#170,#169,#33,.T.);
#208=EDGE_CURVE('',#171,#170,#103,.T.);
#209=EDGE_CURVE('',#172,#171,#34,.T.);
#210=EDGE_CURVE('',#172,#173,#104,.T.);
#211=EDGE_CURVE('',#163,#173,#35,.T.);
#212=EDGE_CURVE('',#173,#174,#105,.T.);
#213=EDGE_CURVE('',#174,#164,#36,.T.);
#214=EDGE_CURVE('',#175,#172,#106,.T.);
#215=EDGE_CURVE('',#174,#175,#107,.T.);
#216=EDGE_CURVE('',#171,#176,#108,.T.);
#217=EDGE_CURVE('',#176,#175,#37,.T.);
#218=EDGE_CURVE('',#177,#170,#109,.T.);
#219=EDGE_CURVE('',#177,#176,#110,.T.);
#220=EDGE_CURVE('',#178,#177,#38,.T.);
#221=EDGE_CURVE('',#169,#178,#111,.T.);
#222=EDGE_CURVE('',#179,#162,#112,.T.);
#223=EDGE_CURVE('',#165,#179,#113,.T.);
#224=EDGE_CURVE('',#180,#168,#114,.T.);
#225=EDGE_CURVE('',#180,#178,#115,.T.);
#226=EDGE_CURVE('',#181,#180,#39,.T.);
#227=EDGE_CURVE('',#182,#181,#116,.T.);
#228=EDGE_CURVE('',#179,#182,#40,.T.);
#229=EDGE_CURVE('',#182,#166,#117,.T.);
#230=EDGE_CURVE('',#167,#181,#118,.T.);
#231=ORIENTED_EDGE('',*,*,#183,.F.);
#232=ORIENTED_EDGE('',*,*,#184,.T.);
#233=ORIENTED_EDGE('',*,*,#185,.F.);
#234=ORIENTED_EDGE('',*,*,#186,.F.);
#235=ORIENTED_EDGE('',*,*,#187,.F.);
#236=ORIENTED_EDGE('',*,*,#186,.T.);
#237=ORIENTED_EDGE('',*,*,#188,.F.);
#238=ORIENTED_EDGE('',*,*,#189,.F.);
#239=ORIENTED_EDGE('',*,*,#190,.F.);
#240=ORIENTED_EDGE('',*,*,#189,.T.);
#241=ORIENTED_EDGE('',*,*,#191,.F.);
#242=ORIENTED_EDGE('',*,*,#192,.F.);
#243=ORIENTED_EDGE('',*,*,#193,.F.);
#244=ORIENTED_EDGE('',*,*,#192,.T.);
#245=ORIENTED_EDGE('',*,*,#194,.F.);
#246=ORIENTED_EDGE('',*,*,#184,.F.);
#247=ORIENTED_EDGE('',*,*,#195,.T.);
#248=ORIENTED_EDGE('',*,*,#196,.T.);
#249=ORIENTED_EDGE('',*,*,#197,.T.);
#250=ORIENTED_EDGE('',*,*,#198,.T.);
#251=ORIENTED_EDGE('',*,*,#196,.F.);
#252=ORIENTED_EDGE('',*,*,#199,.F.);
#253=ORIENTED_EDGE('',*,*,#200,.F.);
#254=ORIENTED_EDGE('',*,*,#201,.F.);
#255=ORIENTED_EDGE('',*,*,#195,.F.);
#256=ORIENTED_EDGE('',*,*,#202,.T.);
#257=ORIENTED_EDGE('',*,*,#203,.F.);
#258=ORIENTED_EDGE('',*,*,#204,.T.);
#259=ORIENTED_EDGE('',*,*,#205,.F.);
#260=ORIENTED_EDGE('',*,*,#206,.T.);
#261=ORIENTED_EDGE('',*,*,#207,.F.);
#262=ORIENTED_EDGE('',*,*,#208,.F.);
#263=ORIENTED_EDGE('',*,*,#209,.F.);
#264=ORIENTED_EDGE('',*,*,#210,.T.);
#265=ORIENTED_EDGE('',*,*,#211,.F.);
#266=ORIENTED_EDGE('',*,*,#199,.T.);
#267=ORIENTED_EDGE('',*,*,#191,.T.);
#268=ORIENTED_EDGE('',*,*,#188,.T.);
#269=ORIENTED_EDGE('',*,*,#185,.T.);
#270=ORIENTED_EDGE('',*,*,#194,.T.);
#271=ORIENTED_EDGE('',*,*,#211,.T.);
#272=ORIENTED_EDGE('',*,*,#212,.T.);
#273=ORIENTED_EDGE('',*,*,#213,.T.);
#274=ORIENTED_EDGE('',*,*,#200,.T.);
#275=ORIENTED_EDGE('',*,*,#212,.F.);
#276=ORIENTED_EDGE('',*,*,#210,.F.);
#277=ORIENTED_EDGE('',*,*,#214,.F.);
#278=ORIENTED_EDGE('',*,*,#215,.F.);
#279=ORIENTED_EDGE('',*,*,#209,.T.);
#280=ORIENTED_EDGE('',*,*,#216,.T.);
#281=ORIENTED_EDGE('',*,*,#217,.T.);
#282=ORIENTED_EDGE('',*,*,#214,.T.);
#283=ORIENTED_EDGE('',*,*,#216,.F.);
#284=ORIENTED_EDGE('',*,*,#208,.T.);
#285=ORIENTED_EDGE('',*,*,#218,.F.);
#286=ORIENTED_EDGE('',*,*,#219,.T.);
#287=ORIENTED_EDGE('',*,*,#220,.T.);
#288=ORIENTED_EDGE('',*,*,#218,.T.);
#289=ORIENTED_EDGE('',*,*,#207,.T.);
#290=ORIENTED_EDGE('',*,*,#221,.T.);
#291=ORIENTED_EDGE('',*,*,#198,.F.);
#292=ORIENTED_EDGE('',*,*,#222,.F.);
#293=ORIENTED_EDGE('',*,*,#223,.F.);
#294=ORIENTED_EDGE('',*,*,#202,.F.);
#295=ORIENTED_EDGE('',*,*,#221,.F.);
#296=ORIENTED_EDGE('',*,*,#206,.F.);
#297=ORIENTED_EDGE('',*,*,#224,.F.);
#298=ORIENTED_EDGE('',*,*,#225,.T.);
#299=ORIENTED_EDGE('',*,*,#197,.F.);
#300=ORIENTED_EDGE('',*,*,#201,.T.);
#301=ORIENTED_EDGE('',*,*,#213,.F.);
#302=ORIENTED_EDGE('',*,*,#215,.T.);
#303=ORIENTED_EDGE('',*,*,#217,.F.);
#304=ORIENTED_EDGE('',*,*,#219,.F.);
#305=ORIENTED_EDGE('',*,*,#220,.F.);
#306=ORIENTED_EDGE('',*,*,#225,.F.);
#307=ORIENTED_EDGE('',*,*,#226,.F.);
#308=ORIENTED_EDGE('',*,*,#227,.F.);
#309=ORIENTED_EDGE('',*,*,#228,.F.);
#310=ORIENTED_EDGE('',*,*,#222,.T.);
#311=ORIENTED_EDGE('',*,*,#190,.T.);
#312=ORIENTED_EDGE('',*,*,#193,.T.);
#313=ORIENTED_EDGE('',*,*,#183,.T.);
#314=ORIENTED_EDGE('',*,*,#187,.T.);
#315=ORIENTED_EDGE('',*,*,#228,.T.);
#316=ORIENTED_EDGE('',*,*,#229,.T.);
#317=ORIENTED_EDGE('',*,*,#203,.T.);
#318=ORIENTED_EDGE('',*,*,#223,.T.);
#319=ORIENTED_EDGE('',*,*,#229,.F.);
#320=ORIENTED_EDGE('',*,*,#227,.T.);
#321=ORIENTED_EDGE('',*,*,#230,.F.);
#322=ORIENTED_EDGE('',*,*,#204,.F.);
#323=ORIENTED_EDGE('',*,*,#205,.T.);
#324=ORIENTED_EDGE('',*,*,#230,.T.);
#325=ORIENTED_EDGE('',*,*,#226,.T.);
#326=ORIENTED_EDGE('',*,*,#224,.T.);
#327=PLANE('',#371);
#328=PLANE('',#375);
#329=PLANE('',#382);
#330=PLANE('',#383);
#331=PLANE('',#391);
#332=PLANE('',#394);
#333=PLANE('',#397);
#334=PLANE('',#398);
#335=PLANE('',#399);
#336=PLANE('',#403);
#337=ADVANCED_FACE('',(#49),#327,.F.);
#338=ADVANCED_FACE('',(#50),#41,.F.);
#339=ADVANCED_FACE('',(#51),#328,.F.);
#340=ADVANCED_FACE('',(#52),#42,.F.);
#341=ADVANCED_FACE('',(#53),#43,.T.);
#342=ADVANCED_FACE('',(#54),#329,.T.);
#343=ADVANCED_FACE('',(#55,#23),#330,.T.);
#344=ADVANCED_FACE('',(#56),#44,.T.);
#345=ADVANCED_FACE('',(#57),#331,.T.);
#346=ADVANCED_FACE('',(#58),#45,.T.);
#347=ADVANCED_FACE('',(#59),#332,.T.);
#348=ADVANCED_FACE('',(#60),#46,.T.);
#349=ADVANCED_FACE('',(#61),#333,.T.);
#350=ADVANCED_FACE('',(#62),#334,.T.);
#351=ADVANCED_FACE('',(#63,#24),#335,.F.);
#352=ADVANCED_FACE('',(#64),#47,.T.);
#353=ADVANCED_FACE('',(#65),#336,.T.);
#354=ADVANCED_FACE('',(#66),#48,.T.);
#355=CLOSED_SHELL('',(#337,#338,#339,#340,#341,#342,#343,#344,#345,#346,
#347,#348,#349,#350,#351,#352,#353,#354));
#356=DERIVED_UNIT_ELEMENT(#358,1.);
#357=DERIVED_UNIT_ELEMENT(#629,-3.);
#358=(
MASS_UNIT()
NAMED_UNIT(*)
SI_UNIT(.KILO.,.GRAM.)
);
#359=DERIVED_UNIT((#356,#357));
#360=MEASURE_REPRESENTATION_ITEM('density measure',
POSITIVE_RATIO_MEASURE(7850.),#359);
#361=PROPERTY_DEFINITION_REPRESENTATION(#366,#363);
#362=PROPERTY_DEFINITION_REPRESENTATION(#367,#364);
#363=REPRESENTATION('material name',(#365),#626);
#364=REPRESENTATION('density',(#360),#626);
#365=DESCRIPTIVE_REPRESENTATION_ITEM('Steel','Steel');
#366=PROPERTY_DEFINITION('material property','material name',#646);
#367=PROPERTY_DEFINITION('material property','density of part',#646);
#368=AXIS2_PLACEMENT_3D('',#517,#407,#408);
#369=AXIS2_PLACEMENT_3D('',#518,#409,#410);
#370=AXIS2_PLACEMENT_3D('',#519,#411,#412);
#371=AXIS2_PLACEMENT_3D('',#520,#413,#414);
#372=AXIS2_PLACEMENT_3D('',#529,#419,#420);
#373=AXIS2_PLACEMENT_3D('',#531,#421,#422);
#374=AXIS2_PLACEMENT_3D('',#533,#423,#424);
#375=AXIS2_PLACEMENT_3D('',#535,#426,#427);
#376=AXIS2_PLACEMENT_3D('',#541,#431,#432);
#377=AXIS2_PLACEMENT_3D('',#542,#433,#434);
#378=AXIS2_PLACEMENT_3D('',#543,#435,#436);
#379=AXIS2_PLACEMENT_3D('',#544,#437,#438);
#380=AXIS2_PLACEMENT_3D('',#547,#439,#440);
#381=AXIS2_PLACEMENT_3D('',#551,#442,#443);
#382=AXIS2_PLACEMENT_3D('',#553,#445,#446);
#383=AXIS2_PLACEMENT_3D('',#559,#450,#451);
#384=AXIS2_PLACEMENT_3D('',#563,#453,#454);
#385=AXIS2_PLACEMENT_3D('',#567,#456,#457);
#386=AXIS2_PLACEMENT_3D('',#571,#459,#460);
#387=AXIS2_PLACEMENT_3D('',#575,#462,#463);
#388=AXIS2_PLACEMENT_3D('',#578,#465,#466);
#389=AXIS2_PLACEMENT_3D('',#579,#467,#468);
#390=AXIS2_PLACEMENT_3D('',#582,#470,#471);
#391=AXIS2_PLACEMENT_3D('',#583,#472,#473);
#392=AXIS2_PLACEMENT_3D('',#587,#476,#477);
#393=AXIS2_PLACEMENT_3D('',#590,#479,#480);
#394=AXIS2_PLACEMENT_3D('',#591,#481,#482);
#395=AXIS2_PLACEMENT_3D('',#595,#485,#486);
#396=AXIS2_PLACEMENT_3D('',#597,#487,#488);
#397=AXIS2_PLACEMENT_3D('',#599,#490,#491);
#398=AXIS2_PLACEMENT_3D('',#603,#494,#495);
#399=AXIS2_PLACEMENT_3D('',#607,#498,#499);
#400=AXIS2_PLACEMENT_3D('',#609,#500,#501);
#401=AXIS2_PLACEMENT_3D('',#612,#503,#504);
#402=AXIS2_PLACEMENT_3D('',#613,#505,#506);
#403=AXIS2_PLACEMENT_3D('',#615,#508,#509);
#404=AXIS2_PLACEMENT_3D('',#617,#511,#512);
#405=AXIS2_PLACEMENT_3D('',#618,#513,#514);
#406=AXIS2_PLACEMENT_3D('',#619,#515,#516);
#407=DIRECTION('axis',(0.,0.,1.));
#408=DIRECTION('refdir',(1.,0.,0.));
#409=DIRECTION('axis',(0.,0.,1.));
#410=DIRECTION('refdir',(1.,0.,0.));
#411=DIRECTION('axis',(0.,0.,1.));
#412=DIRECTION('refdir',(1.,0.,0.));
#413=DIRECTION('center_axis',(-1.,-6.95415947049584E-14,1.63637481064748E-16));
#414=DIRECTION('ref_axis',(6.95415947049584E-14,-1.,-2.99064891844492E-17));
#415=DIRECTION('',(6.95415947049584E-14,-1.,6.40617234366397E-30));
#416=DIRECTION('',(1.6363748106475E-16,-2.99064891844378E-17,1.));
#417=DIRECTION('',(-6.95415947049584E-14,1.,-6.40617234366397E-30));
#418=DIRECTION('',(1.6363748106475E-16,-2.99064891844378E-17,1.));
#419=DIRECTION('center_axis',(1.6363748106475E-16,-2.99064891844378E-17,
1.));
#420=DIRECTION('ref_axis',(1.,1.83407210987156E-14,-1.63637481064749E-16));
#421=DIRECTION('center_axis',(0.,6.40617234366397E-30,1.));
#422=DIRECTION('ref_axis',(1.,1.83407210987156E-14,-1.17493820265446E-43));
#423=DIRECTION('center_axis',(0.,-6.40617234366397E-30,-1.));
#424=DIRECTION('ref_axis',(1.,1.83407210987156E-14,-1.17493820265446E-43));
#425=DIRECTION('',(1.6363748106475E-16,-2.99064891844378E-17,1.));
#426=DIRECTION('center_axis',(1.,-1.51267887105137E-15,-1.6363748106475E-16));
#427=DIRECTION('ref_axis',(1.51267887105137E-15,1.,2.99064891844376E-17));
#428=DIRECTION('',(1.51267887105137E-15,1.,-6.40617234366397E-30));
#429=DIRECTION('',(-1.51267887105137E-15,-1.,6.40617234366397E-30));
#430=DIRECTION('',(1.6363748106475E-16,-2.99064891844378E-17,1.));
#431=DIRECTION('center_axis',(1.6363748106475E-16,-2.99064891844378E-17,
1.));
#432=DIRECTION('ref_axis',(-1.,-2.00822474118533E-14,1.63637481064749E-16));
#433=DIRECTION('center_axis',(0.,6.40617234366397E-30,1.));
#434=DIRECTION('ref_axis',(-1.,-2.00822474118533E-14,1.28650337968432E-43));
#435=DIRECTION('center_axis',(0.,-6.40617234366397E-30,-1.));
#436=DIRECTION('ref_axis',(-1.,-2.00822474118533E-14,1.28650337968432E-43));
#437=DIRECTION('center_axis',(0.,6.35686853708766E-30,1.));
#438=DIRECTION('ref_axis',(-0.923879532511287,0.382683432365089,-2.43266827086635E-30));
#439=DIRECTION('center_axis',(0.,-6.40617234366397E-30,-1.));
#440=DIRECTION('ref_axis',(-0.923879532511287,0.382683432365089,-2.45153602079563E-30));
#441=DIRECTION('',(4.95433823295187E-46,-6.35686853708766E-30,-1.));
#442=DIRECTION('center_axis',(0.,6.40617234366397E-30,1.));
#443=DIRECTION('ref_axis',(-0.923879532511287,0.382683432365089,-2.45153602079563E-30));
#444=DIRECTION('',(0.,6.35686853708766E-30,1.));
#445=DIRECTION('center_axis',(-0.707106781186549,0.707106781186546,-4.49498484968608E-30));
#446=DIRECTION('ref_axis',(-0.707106781186546,-0.707106781186549,4.56471096162294E-30));
#447=DIRECTION('',(-0.707106781186546,-0.707106781186549,4.56471096162294E-30));
#448=DIRECTION('',(4.93038065763135E-32,6.40617234366397E-30,1.));
#449=DIRECTION('',(0.707106781186546,0.707106781186549,-4.56471096162294E-30));
#450=DIRECTION('center_axis',(0.,6.40617234366397E-30,1.));
#451=DIRECTION('ref_axis',(1.,0.,0.));
#452=DIRECTION('',(0.,-1.,6.40617234366397E-30));
#453=DIRECTION('center_axis',(0.,-6.40617234366397E-30,-1.));
#454=DIRECTION('ref_axis',(-0.70710678118655,-0.707106781186545,4.52984790565449E-30));
#455=DIRECTION('',(1.,0.,0.));
#456=DIRECTION('center_axis',(0.,-6.40617234366397E-30,-1.));
#457=DIRECTION('ref_axis',(0.707106781186547,-0.707106781186547,4.52984790565451E-30));
#458=DIRECTION('',(0.,1.,-6.40617234366397E-30));
#459=DIRECTION('center_axis',(0.,-6.40617234366397E-30,-1.));
#460=DIRECTION('ref_axis',(0.923879532511287,0.382683432365089,-2.45153602079563E-30));
#461=DIRECTION('',(0.707106781186547,-0.707106781186547,4.49498484968609E-30));
#462=DIRECTION('center_axis',(0.,-6.40617234366397E-30,-1.));
#463=DIRECTION('ref_axis',(0.382683432365089,0.923879532511287,-5.918531510051E-30));
#464=DIRECTION('',(-1.,5.22457893941244E-16,4.93038065763099E-32));
#465=DIRECTION('center_axis',(0.,-6.40617234366397E-30,-1.));
#466=DIRECTION('ref_axis',(-0.382683432365094,0.923879532511285,-5.91853151005099E-30));
#467=DIRECTION('center_axis',(4.93038065763135E-32,6.40617234366397E-30,
1.));
#468=DIRECTION('ref_axis',(-0.382683432365094,0.923879532511285,-5.8996637601217E-30));
#469=DIRECTION('',(-4.93038065763135E-32,-6.40617234366397E-30,-1.));
#470=DIRECTION('center_axis',(0.,6.40617234366397E-30,1.));
#471=DIRECTION('ref_axis',(-0.382683432365094,0.923879532511285,-5.91853151005099E-30));
#472=DIRECTION('center_axis',(5.22457893941244E-16,1.,-6.40617234366397E-30));
#473=DIRECTION('ref_axis',(-1.,5.22457893941244E-16,4.93038065763099E-32));
#474=DIRECTION('',(4.93038065763137E-32,6.40617234366397E-30,1.));
#475=DIRECTION('',(1.,-5.22457893941244E-16,-4.93038065763099E-32));
#476=DIRECTION('center_axis',(4.93038065763137E-32,6.40617234366397E-30,
1.));
#477=DIRECTION('ref_axis',(0.382683432365089,0.923879532511287,-5.93739925998029E-30));
#478=DIRECTION('',(-4.93038065763137E-32,-6.40617234366397E-30,-1.));
#479=DIRECTION('center_axis',(0.,6.40617234366397E-30,1.));
#480=DIRECTION('ref_axis',(0.382683432365089,0.923879532511287,-5.918531510051E-30));
#481=DIRECTION('center_axis',(0.707106781186548,0.707106781186548,-4.56471096162293E-30));
#482=DIRECTION('ref_axis',(-6.45547615024028E-30,5.60519385729927E-45,-1.));
#483=DIRECTION('',(0.,6.45547615024029E-30,1.));
#484=DIRECTION('',(-0.707106781186547,0.707106781186547,-4.49498484968609E-30));
#485=DIRECTION('center_axis',(0.,-6.45547615024029E-30,-1.));
#486=DIRECTION('ref_axis',(0.923879532511287,0.382683432365089,-2.47040377072493E-30));
#487=DIRECTION('center_axis',(0.,6.40617234366397E-30,1.));
#488=DIRECTION('ref_axis',(0.923879532511287,0.382683432365089,-2.45153602079563E-30));
#489=DIRECTION('',(0.,-6.45547615024029E-30,-1.));
#490=DIRECTION('center_axis',(-1.,0.,0.));
#491=DIRECTION('ref_axis',(0.,-1.,6.40617234366397E-30));
#492=DIRECTION('',(0.,1.,-6.40617234366397E-30));
#493=DIRECTION('',(0.,-6.40617234366397E-30,-1.));
#494=DIRECTION('center_axis',(1.,0.,0.));
#495=DIRECTION('ref_axis',(0.,1.,-6.40617234366397E-30));
#496=DIRECTION('',(0.,6.40617234366397E-30,1.));
#497=DIRECTION('',(0.,1.,-6.40617234366397E-30));
#498=DIRECTION('center_axis',(0.,6.40617234366397E-30,1.));
#499=DIRECTION('ref_axis',(1.,0.,0.));
#500=DIRECTION('center_axis',(0.,6.40617234366397E-30,1.));
#501=DIRECTION('ref_axis',(0.707106781186547,-0.707106781186547,4.52984790565451E-30));
#502=DIRECTION('',(1.,0.,0.));
#503=DIRECTION('center_axis',(0.,6.40617234366397E-30,1.));
#504=DIRECTION('ref_axis',(-0.70710678118655,-0.707106781186545,4.52984790565449E-30));
#505=DIRECTION('center_axis',(0.,-6.40617234366397E-30,-1.));
#506=DIRECTION('ref_axis',(-0.70710678118655,-0.707106781186545,4.52984790565449E-30));
#507=DIRECTION('',(0.,6.40617234366397E-30,1.));
#508=DIRECTION('center_axis',(0.,-1.,6.40617234366397E-30));
#509=DIRECTION('ref_axis',(1.,0.,0.));
#510=DIRECTION('',(0.,-6.40617234366397E-30,-1.));
#511=DIRECTION('center_axis',(0.,6.40617234366397E-30,1.));
#512=DIRECTION('ref_axis',(0.707106781186547,-0.707106781186547,4.52984790565451E-30));
#513=DIRECTION('',(4.07012882433999E-17,-1.39092316434854E-16,1.));
#514=DIRECTION('',(-1.9148311408701E-14,-1.,-1.39092316434853E-16));
#515=DIRECTION('',(-1.11022302463323E-16,2.36658271566304E-29,1.));
#516=DIRECTION('',(1.,2.60208521396269E-17,1.11022302463323E-16));
#517=CARTESIAN_POINT('',(0.,0.,0.));
#518=CARTESIAN_POINT('',(0.,0.,0.));
#519=CARTESIAN_POINT('',(0.,0.,0.));
#520=CARTESIAN_POINT('Origin',(-57.5499999999983,37.0000000000001,-3.00000000000001));
#521=CARTESIAN_POINT('',(-57.5499999999983,37.0000000000001,0.));
#522=CARTESIAN_POINT('',(-57.5499999999982,36.0000000000001,0.));
#523=CARTESIAN_POINT('',(-57.5499999999998,58.5000000000077,0.));
#524=CARTESIAN_POINT('',(-57.5499999999983,37.0000000000001,5.00000000000037));
#525=CARTESIAN_POINT('',(-57.5499999999983,37.0000000000001,-3.00000000000001));
#526=CARTESIAN_POINT('',(-57.5499999999982,36.0000000000001,5.00000000000037));
#527=CARTESIAN_POINT('',(-57.5499999999998,58.5000000000077,5.));
#528=CARTESIAN_POINT('',(-57.5499999999982,36.0000000000001,-3.00000000000001));
#529=CARTESIAN_POINT('Origin',(-54.9999999999983,36.0000000000002,-3.00000000000002));
#530=CARTESIAN_POINT('',(-52.4499999999983,36.0000000000002,0.));
#531=CARTESIAN_POINT('Origin',(-54.9999999999983,36.0000000000002,-8.88178419700125E-15));
#532=CARTESIAN_POINT('',(-52.4499999999983,36.0000000000002,5.00000000000037));
#533=CARTESIAN_POINT('Origin',(-54.9999999999983,36.0000000000002,4.99999999999999));
#534=CARTESIAN_POINT('',(-52.4499999999983,36.0000000000002,-3.00000000000002));
#535=CARTESIAN_POINT('Origin',(-52.4499999999983,36.0000000000002,-3.00000000000002));
#536=CARTESIAN_POINT('',(-52.4499999999983,37.0000000000002,0.));
#537=CARTESIAN_POINT('',(-52.4499999999983,58.0000000000061,0.));
#538=CARTESIAN_POINT('',(-52.4499999999983,37.0000000000002,5.00000000000037));
#539=CARTESIAN_POINT('',(-52.4499999999983,58.0000000000061,5.));
#540=CARTESIAN_POINT('',(-52.4499999999983,37.0000000000002,-3.00000000000002));
#541=CARTESIAN_POINT('Origin',(-54.9999999999983,37.0000000000002,-3.00000000000002));
#542=CARTESIAN_POINT('Origin',(-54.9999999999983,37.0000000000002,-8.88178419700125E-15));
#543=CARTESIAN_POINT('Origin',(-54.9999999999983,37.0000000000002,4.99999999999999));
#544=CARTESIAN_POINT('Origin',(-63.5,40.6286796554287,2.22044604925001E-15));
#545=CARTESIAN_POINT('',(-65.,40.6286796554287,5.));
#546=CARTESIAN_POINT('',(-64.5606601717799,41.6893398272085,5.));
#547=CARTESIAN_POINT('Origin',(-63.5,40.6286796554287,5.));
#548=CARTESIAN_POINT('',(-64.5606601717799,41.6893398272085,4.44089209850027E-15));
#549=CARTESIAN_POINT('',(-64.5606601717799,41.6893398272085,2.22044604925E-15));
#550=CARTESIAN_POINT('',(-65.,40.6286796554287,-2.6027432396819E-28));
#551=CARTESIAN_POINT('Origin',(-63.5,40.6286796554287,-2.62049731953105E-28));
#552=CARTESIAN_POINT('',(-65.,40.6286796554287,2.22044604925001E-15));
#553=CARTESIAN_POINT('Origin',(-62.0000000000001,44.2499999989883,4.44089209850025E-15));
#554=CARTESIAN_POINT('',(-62.4393398282203,43.8106601707681,5.));
#555=CARTESIAN_POINT('',(-67.9000000000001,38.3499999989883,5.));
#556=CARTESIAN_POINT('',(-62.4393398282203,43.8106601707681,4.44089209850026E-15));
#557=CARTESIAN_POINT('',(-62.4393398282203,43.8106601707681,4.44089209850026E-15));
#558=CARTESIAN_POINT('',(-67.9000000000001,38.3499999989883,4.44089209850029E-15));
#559=CARTESIAN_POINT('Origin',(-101.700000000001,80.0000000000121,5.));
#560=CARTESIAN_POINT('',(-65.,31.5,5.));
#561=CARTESIAN_POINT('',(-65.,55.,5.));
#562=CARTESIAN_POINT('',(-63.5,30.,5.));
#563=CARTESIAN_POINT('Origin',(-63.5,31.5,5.));
#564=CARTESIAN_POINT('',(-46.5000000000001,30.,5.));
#565=CARTESIAN_POINT('',(-57.5000000000001,30.,5.));
#566=CARTESIAN_POINT('',(-45.0000000000001,31.5,5.));
#567=CARTESIAN_POINT('Origin',(-46.5000000000001,31.5,5.));
#568=CARTESIAN_POINT('',(-45.0000000000001,40.6286796554286,5.));
#569=CARTESIAN_POINT('',(-45.0000000000001,20.,5.));
#570=CARTESIAN_POINT('',(-45.4393398282202,41.6893398272084,5.));
#571=CARTESIAN_POINT('Origin',(-46.5000000000001,40.6286796554286,5.));
#572=CARTESIAN_POINT('',(-47.5606601717799,43.8106601707681,5.));
#573=CARTESIAN_POINT('',(-66.0750000000034,62.3249999989916,5.));
#574=CARTESIAN_POINT('',(-48.6213203435597,44.2499999989883,5.));
#575=CARTESIAN_POINT('Origin',(-48.6213203435597,42.7499999989883,5.));
#576=CARTESIAN_POINT('',(-61.3786796564404,44.2499999989883,5.));
#577=CARTESIAN_POINT('',(-62.0000000000001,44.2499999989883,5.));
#578=CARTESIAN_POINT('Origin',(-61.3786796564404,42.7499999989883,5.));
#579=CARTESIAN_POINT('Origin',(-61.3786796564404,42.7499999989883,4.44089209850026E-15));
#580=CARTESIAN_POINT('',(-61.3786796564404,44.2499999989883,4.44089209850025E-15));
#581=CARTESIAN_POINT('',(-61.3786796564404,44.2499999989883,4.44089209850026E-15));
#582=CARTESIAN_POINT('Origin',(-61.3786796564404,42.7499999989883,-2.75608278761591E-28));
#583=CARTESIAN_POINT('Origin',(-45.0000000000001,44.2499999989883,4.44089209850025E-15));
#584=CARTESIAN_POINT('',(-48.6213203435597,44.2499999989883,4.44089209850025E-15));
#585=CARTESIAN_POINT('',(-48.6213203435597,44.2499999989883,4.44089209850025E-15));
#586=CARTESIAN_POINT('',(-62.0000000000001,44.2499999989883,4.44089209850025E-15));
#587=CARTESIAN_POINT('Origin',(-48.6213203435597,42.7499999989883,4.44089209850026E-15));
#588=CARTESIAN_POINT('',(-47.5606601717799,43.8106601707681,4.44089209850026E-15));
#589=CARTESIAN_POINT('',(-47.5606601717799,43.8106601707681,4.44089209850026E-15));
#590=CARTESIAN_POINT('Origin',(-48.6213203435597,42.7499999989883,-2.76101316827354E-28));
#591=CARTESIAN_POINT('Origin',(-46.5000000000001,42.7499999989883,4.44089209850026E-15));
#592=CARTESIAN_POINT('',(-45.4393398282202,41.6893398272084,4.44089209850027E-15));
#593=CARTESIAN_POINT('',(-45.4393398282202,41.6893398272084,2.22044604925E-15));
#594=CARTESIAN_POINT('',(-66.0750000000034,62.3249999989916,4.44089209850014E-15));
#595=CARTESIAN_POINT('Origin',(-46.5000000000001,40.6286796554286,2.22044604925001E-15));
#596=CARTESIAN_POINT('',(-45.0000000000001,40.6286796554286,-2.6027432396819E-28));
#597=CARTESIAN_POINT('Origin',(-46.5000000000001,40.6286796554286,-2.58351946459881E-28));
#598=CARTESIAN_POINT('',(-45.0000000000001,40.6286796554286,2.22044604925001E-15));
#599=CARTESIAN_POINT('Origin',(-65.,55.4,-3.54901947838984E-28));
#600=CARTESIAN_POINT('',(-65.,31.5,-2.01794428825415E-28));
#601=CARTESIAN_POINT('',(-65.,55.,-3.52339478901518E-28));
#602=CARTESIAN_POINT('',(-65.,31.5,-2.01794428825415E-28));
#603=CARTESIAN_POINT('Origin',(-45.0000000000001,30.,-1.92185170309919E-28));
#604=CARTESIAN_POINT('',(-45.0000000000001,31.5,-2.01794428825415E-28));
#605=CARTESIAN_POINT('',(-45.0000000000001,31.5,-2.01794428825415E-28));
#606=CARTESIAN_POINT('',(-45.0000000000001,20.,-1.28123446873279E-28));
#607=CARTESIAN_POINT('Origin',(-101.700000000001,80.0000000000121,-5.12493787493195E-28));
#608=CARTESIAN_POINT('',(-46.5000000000001,30.,-1.92185170309919E-28));
#609=CARTESIAN_POINT('Origin',(-46.5000000000001,31.5,-2.01794428825415E-28));
#610=CARTESIAN_POINT('',(-63.5,30.,-1.92185170309919E-28));
#611=CARTESIAN_POINT('',(-57.5000000000001,30.,-1.92185170309919E-28));
#612=CARTESIAN_POINT('Origin',(-63.5,31.5,-2.01794428825415E-28));
#613=CARTESIAN_POINT('Origin',(-63.5,31.5,-2.01794428825415E-28));
#614=CARTESIAN_POINT('',(-63.5,30.,-1.92185170309919E-28));
#615=CARTESIAN_POINT('Origin',(-57.5000000000001,30.,-1.92185170309919E-28));
#616=CARTESIAN_POINT('',(-46.5000000000001,30.,-1.92185170309919E-28));
#617=CARTESIAN_POINT('Origin',(-46.5000000000001,31.5,-2.01794428825415E-28));
#618=CARTESIAN_POINT('',(-320.000000000002,-76.4999999999981,-15.0000000000013));
#619=CARTESIAN_POINT('',(-7.00006149153936,6.3497493726894,694.999522435471));
#620=UNCERTAINTY_MEASURE_WITH_UNIT(LENGTH_MEASURE(0.01),#628,
'DISTANCE_ACCURACY_VALUE',
'Maximum model space distance between geometric entities at asserted c
onnectivities');
#621=UNCERTAINTY_MEASURE_WITH_UNIT(LENGTH_MEASURE(0.01),#628,
'DISTANCE_ACCURACY_VALUE',
'Maximum model space distance between geometric entities at asserted c
onnectivities');
#622=UNCERTAINTY_MEASURE_WITH_UNIT(LENGTH_MEASURE(0.01),#628,
'DISTANCE_ACCURACY_VALUE',
'Maximum model space distance between geometric entities at asserted c
onnectivities');
#623=UNCERTAINTY_MEASURE_WITH_UNIT(LENGTH_MEASURE(0.01),#628,
'DISTANCE_ACCURACY_VALUE',
'Maximum model space distance between geometric entities at asserted c
onnectivities');
#624=(
GEOMETRIC_REPRESENTATION_CONTEXT(3)
GLOBAL_UNCERTAINTY_ASSIGNED_CONTEXT((#620))
GLOBAL_UNIT_ASSIGNED_CONTEXT((#628,#630,#631))
REPRESENTATION_CONTEXT('','3D')
);
#625=(
GEOMETRIC_REPRESENTATION_CONTEXT(3)
GLOBAL_UNCERTAINTY_ASSIGNED_CONTEXT((#621))
GLOBAL_UNIT_ASSIGNED_CONTEXT((#628,#630,#631))
REPRESENTATION_CONTEXT('','3D')
);
#626=(
GEOMETRIC_REPRESENTATION_CONTEXT(3)
GLOBAL_UNCERTAINTY_ASSIGNED_CONTEXT((#622))
GLOBAL_UNIT_ASSIGNED_CONTEXT((#628,#630,#631))
REPRESENTATION_CONTEXT('','3D')
);
#627=(
GEOMETRIC_REPRESENTATION_CONTEXT(3)
GLOBAL_UNCERTAINTY_ASSIGNED_CONTEXT((#623))
GLOBAL_UNIT_ASSIGNED_CONTEXT((#628,#630,#631))
REPRESENTATION_CONTEXT('','3D')
);
#628=(
LENGTH_UNIT()
NAMED_UNIT(*)
SI_UNIT(.MILLI.,.METRE.)
);
#629=(
LENGTH_UNIT()
NAMED_UNIT(*)
SI_UNIT($,.METRE.)
);
#630=(
NAMED_UNIT(*)
PLANE_ANGLE_UNIT()
SI_UNIT($,.RADIAN.)
);
#631=(
NAMED_UNIT(*)
SI_UNIT($,.STERADIAN.)
SOLID_ANGLE_UNIT()
);
#632=SHAPE_DEFINITION_REPRESENTATION(#635,#640);
#633=SHAPE_DEFINITION_REPRESENTATION(#636,#641);
#634=SHAPE_DEFINITION_REPRESENTATION(#637,#642);
#635=PRODUCT_DEFINITION_SHAPE('',$,#644);
#636=PRODUCT_DEFINITION_SHAPE('',$,#645);
#637=PRODUCT_DEFINITION_SHAPE('',$,#646);
#638=PRODUCT_DEFINITION_SHAPE($,$,#17);
#639=PRODUCT_DEFINITION_SHAPE($,$,#18);
#640=SHAPE_REPRESENTATION('',(#368,#406),#624);
#641=SHAPE_REPRESENTATION('',(#369,#405),#625);
#642=SHAPE_REPRESENTATION('',(#370),#626);
#643=PRODUCT_DEFINITION_CONTEXT('part definition',#654,'design');
#644=PRODUCT_DEFINITION('2026-08-06-20-18-19-490','(Unsaved)',#647,#643);
#645=PRODUCT_DEFINITION('2026-08-22-19-56-40-349',
'_Sheet_metal_9mm_AWD_left_XY_joint (1) (1)',#648,#643);
#646=PRODUCT_DEFINITION('2026-08-22-19-55-18-507_7',
'Sheet_metal_9mm_spacer_b_2x2.5_or_5mm (2)',#649,#643);
#647=PRODUCT_DEFINITION_FORMATION('',$,#656);
#648=PRODUCT_DEFINITION_FORMATION('',$,#657);
#649=PRODUCT_DEFINITION_FORMATION('',$,#658);
#650=PRODUCT_RELATED_PRODUCT_CATEGORY('(Unsaved)','(Unsaved)',(#656));
#651=PRODUCT_RELATED_PRODUCT_CATEGORY(
'_Sheet_metal_9mm_AWD_left_XY_joint (1) (1)',
'_Sheet_metal_9mm_AWD_left_XY_joint (1) (1)',(#657));
#652=PRODUCT_RELATED_PRODUCT_CATEGORY(
'Sheet_metal_9mm_spacer_b_2x2.5_or_5mm (2)',
'Sheet_metal_9mm_spacer_b_2x2.5_or_5mm (2)',(#658));
#653=APPLICATION_PROTOCOL_DEFINITION('international standard',
'automotive_design',2009,#654);
#654=APPLICATION_CONTEXT(
'Core Data for Automotive Mechanical Design Process');
#655=PRODUCT_CONTEXT('part definition',#654,'mechanical');
#656=PRODUCT('2026-08-06-20-18-19-490','(Unsaved)',$,(#655));
#657=PRODUCT('2026-08-22-19-56-40-349',
'_Sheet_metal_9mm_AWD_left_XY_joint (1) (1)',$,(#655));
#658=PRODUCT('2026-08-22-19-55-18-507_7',
'Sheet_metal_9mm_spacer_b_2x2.5_or_5mm (2)',$,(#655));
#659=PRESENTATION_STYLE_ASSIGNMENT((#661));
#660=PRESENTATION_STYLE_ASSIGNMENT((#662));
#661=SURFACE_STYLE_USAGE(.BOTH.,#663);
#662=SURFACE_STYLE_USAGE(.BOTH.,#664);
#663=SURFACE_SIDE_STYLE('',(#665));
#664=SURFACE_SIDE_STYLE('',(#666));
#665=SURFACE_STYLE_FILL_AREA(#667);
#666=SURFACE_STYLE_FILL_AREA(#668);
#667=FILL_AREA_STYLE('Steel - Satin',(#669));
#668=FILL_AREA_STYLE('Opaque(245,245,246)',(#670));
#669=FILL_AREA_STYLE_COLOUR('Steel - Satin',#671);
#670=FILL_AREA_STYLE_COLOUR('Opaque(245,245,246)',#672);
#671=COLOUR_RGB('Steel - Satin',0.627450980392157,0.627450980392157,0.627450980392157);
#672=COLOUR_RGB('Opaque(245,245,246)',0.96078431372549,0.96078431372549,
0.964705882352941);
ENDSEC;
END-ISO-10303-21;
