ISO-10303-21;
HEADER;
/* Generated by software containing ST-Developer
 * from STEP Tools, Inc. (www.steptools.com) 
 */

FILE_DESCRIPTION(
/* description */ (''),
/* implementation_level */ '2;1');

FILE_NAME(
/* name */ '4x Sheet_metal_9mm_spacer_a_2.5mm.step',
/* time_stamp */ '2026-08-23T22:14:41-05:00',
/* author */ (''),
/* organization */ (''),
/* preprocessor_version */ 'ST-DEVELOPER v20.1',
/* originating_system */ 'Autodesk Translation Framework v15.8.0.0',
/* authorisation */ '');

FILE_SCHEMA (('AUTOMOTIVE_DESIGN { 1 0 10303 214 3 1 1 }'));
ENDSEC;

DATA;
#10=MECHANICAL_DESIGN_GEOMETRIC_PRESENTATION_REPRESENTATION('',(#25),#1185);
#11=ITEM_DEFINED_TRANSFORMATION($,$,#695,#762);
#12=ITEM_DEFINED_TRANSFORMATION($,$,#694,#763);
#13=ITEM_DEFINED_TRANSFORMATION($,$,#693,#764);
#14=(
REPRESENTATION_RELATIONSHIP($,$,#1204,#1203)
REPRESENTATION_RELATIONSHIP_WITH_TRANSFORMATION(#11)
SHAPE_REPRESENTATION_RELATIONSHIP()
);
#15=(
REPRESENTATION_RELATIONSHIP($,$,#1203,#1202)
REPRESENTATION_RELATIONSHIP_WITH_TRANSFORMATION(#12)
SHAPE_REPRESENTATION_RELATIONSHIP()
);
#16=(
REPRESENTATION_RELATIONSHIP($,$,#1202,#1201)
REPRESENTATION_RELATIONSHIP_WITH_TRANSFORMATION(#13)
SHAPE_REPRESENTATION_RELATIONSHIP()
);
#17=CONTEXT_DEPENDENT_SHAPE_REPRESENTATION(#14,#1198);
#18=CONTEXT_DEPENDENT_SHAPE_REPRESENTATION(#15,#1199);
#19=CONTEXT_DEPENDENT_SHAPE_REPRESENTATION(#16,#1200);
#20=NEXT_ASSEMBLY_USAGE_OCCURRENCE(
'Sheet_metal_9mm_spacer_a_2x2.5_or_5mm (1) (2):1',
'Sheet_metal_9mm_spacer_a_2x2.5_or_5mm (1) (2):1',
'Sheet_metal_9mm_spacer_a_2x2.5_or_5mm (1) (2):1',#1208,#1209,
'Sheet_metal_9mm_spacer_a_2x2.5_or_5mm (1) (2):1');
#21=NEXT_ASSEMBLY_USAGE_OCCURRENCE(
'_Sheet_metal_9mm_AWD_left_XY_joint (1) (1):1',
'_Sheet_metal_9mm_AWD_left_XY_joint (1) (1):1',
'_Sheet_metal_9mm_AWD_left_XY_joint (1) (1):1',#1207,#1208,
'_Sheet_metal_9mm_AWD_left_XY_joint (1) (1):1');
#22=NEXT_ASSEMBLY_USAGE_OCCURRENCE('3030 X Axis Assembly:1',
'3030 X Axis Assembly:1','3030 X Axis Assembly:1',#1206,#1207,
'3030 X Axis Assembly:1');
#23=SHAPE_REPRESENTATION_RELATIONSHIP('SRR','None',#1204,#24);
#24=ADVANCED_BREP_SHAPE_REPRESENTATION('',(#26),#1184);
#25=STYLED_ITEM('',(#1226),#26);
#26=MANIFOLD_SOLID_BREP('Body1',#679);
#27=FACE_BOUND('',#83,.T.);
#28=FACE_BOUND('',#91,.T.);
#29=PLANE('',#699);
#30=PLANE('',#715);
#31=PLANE('',#720);
#32=PLANE('',#723);
#33=PLANE('',#724);
#34=PLANE('',#738);
#35=PLANE('',#741);
#36=PLANE('',#743);
#37=PLANE('',#744);
#38=PLANE('',#745);
#39=PLANE('',#746);
#40=PLANE('',#747);
#41=PLANE('',#749);
#42=PLANE('',#751);
#43=PLANE('',#753);
#44=PLANE('',#755);
#45=PLANE('',#756);
#46=PLANE('',#758);
#47=FACE_OUTER_BOUND('',#81,.T.);
#48=FACE_OUTER_BOUND('',#82,.T.);
#49=FACE_OUTER_BOUND('',#84,.T.);
#50=FACE_OUTER_BOUND('',#85,.T.);
#51=FACE_OUTER_BOUND('',#86,.T.);
#52=FACE_OUTER_BOUND('',#87,.T.);
#53=FACE_OUTER_BOUND('',#88,.T.);
#54=FACE_OUTER_BOUND('',#89,.T.);
#55=FACE_OUTER_BOUND('',#90,.T.);
#56=FACE_OUTER_BOUND('',#92,.T.);
#57=FACE_OUTER_BOUND('',#93,.T.);
#58=FACE_OUTER_BOUND('',#94,.T.);
#59=FACE_OUTER_BOUND('',#95,.T.);
#60=FACE_OUTER_BOUND('',#96,.T.);
#61=FACE_OUTER_BOUND('',#97,.T.);
#62=FACE_OUTER_BOUND('',#98,.T.);
#63=FACE_OUTER_BOUND('',#99,.T.);
#64=FACE_OUTER_BOUND('',#100,.T.);
#65=FACE_OUTER_BOUND('',#101,.T.);
#66=FACE_OUTER_BOUND('',#102,.T.);
#67=FACE_OUTER_BOUND('',#103,.T.);
#68=FACE_OUTER_BOUND('',#104,.T.);
#69=FACE_OUTER_BOUND('',#105,.T.);
#70=FACE_OUTER_BOUND('',#106,.T.);
#71=FACE_OUTER_BOUND('',#107,.T.);
#72=FACE_OUTER_BOUND('',#108,.T.);
#73=FACE_OUTER_BOUND('',#109,.T.);
#74=FACE_OUTER_BOUND('',#110,.T.);
#75=FACE_OUTER_BOUND('',#111,.T.);
#76=FACE_OUTER_BOUND('',#112,.T.);
#77=FACE_OUTER_BOUND('',#113,.T.);
#78=FACE_OUTER_BOUND('',#114,.T.);
#79=FACE_OUTER_BOUND('',#115,.T.);
#80=FACE_OUTER_BOUND('',#116,.T.);
#81=EDGE_LOOP('',(#437,#438,#439,#440));
#82=EDGE_LOOP('',(#441,#442,#443,#444,#445,#446,#447,#448,#449,#450,#451,
#452));
#83=EDGE_LOOP('',(#453,#454,#455,#456,#457,#458,#459,#460,#461,#462,#463,
#464,#465,#466,#467,#468,#469,#470,#471,#472));
#84=EDGE_LOOP('',(#473,#474,#475,#476));
#85=EDGE_LOOP('',(#477,#478,#479,#480));
#86=EDGE_LOOP('',(#481,#482,#483,#484));
#87=EDGE_LOOP('',(#485,#486,#487,#488));
#88=EDGE_LOOP('',(#489,#490,#491,#492));
#89=EDGE_LOOP('',(#493,#494,#495,#496));
#90=EDGE_LOOP('',(#497,#498,#499,#500,#501,#502,#503,#504,#505,#506,#507,
#508));
#91=EDGE_LOOP('',(#509,#510,#511,#512,#513,#514,#515,#516,#517,#518,#519,
#520,#521,#522,#523,#524,#525,#526,#527,#528));
#92=EDGE_LOOP('',(#529,#530,#531,#532));
#93=EDGE_LOOP('',(#533,#534,#535,#536));
#94=EDGE_LOOP('',(#537,#538,#539,#540));
#95=EDGE_LOOP('',(#541,#542,#543,#544));
#96=EDGE_LOOP('',(#545,#546,#547,#548));
#97=EDGE_LOOP('',(#549,#550,#551,#552));
#98=EDGE_LOOP('',(#553,#554,#555,#556));
#99=EDGE_LOOP('',(#557,#558,#559,#560));
#100=EDGE_LOOP('',(#561,#562,#563,#564));
#101=EDGE_LOOP('',(#565,#566,#567,#568));
#102=EDGE_LOOP('',(#569,#570,#571,#572));
#103=EDGE_LOOP('',(#573,#574,#575,#576));
#104=EDGE_LOOP('',(#577,#578,#579,#580));
#105=EDGE_LOOP('',(#581,#582,#583,#584));
#106=EDGE_LOOP('',(#585,#586,#587,#588));
#107=EDGE_LOOP('',(#589,#590,#591,#592));
#108=EDGE_LOOP('',(#593,#594,#595,#596));
#109=EDGE_LOOP('',(#597,#598,#599,#600));
#110=EDGE_LOOP('',(#601,#602,#603,#604));
#111=EDGE_LOOP('',(#605,#606,#607,#608));
#112=EDGE_LOOP('',(#609,#610,#611,#612));
#113=EDGE_LOOP('',(#613,#614,#615,#616));
#114=EDGE_LOOP('',(#617,#618,#619,#620));
#115=EDGE_LOOP('',(#621,#622,#623,#624));
#116=EDGE_LOOP('',(#625,#626,#627,#628));
#117=LINE('',#984,#181);
#118=LINE('',#987,#182);
#119=LINE('',#991,#183);
#120=LINE('',#995,#184);
#121=LINE('',#999,#185);
#122=LINE('',#1003,#186);
#123=LINE('',#1007,#187);
#124=LINE('',#1011,#188);
#125=LINE('',#1014,#189);
#126=LINE('',#1018,#190);
#127=LINE('',#1022,#191);
#128=LINE('',#1026,#192);
#129=LINE('',#1030,#193);
#130=LINE('',#1034,#194);
#131=LINE('',#1038,#195);
#132=LINE('',#1042,#196);
#133=LINE('',#1046,#197);
#134=LINE('',#1049,#198);
#135=LINE('',#1052,#199);
#136=LINE('',#1053,#200);
#137=LINE('',#1057,#201);
#138=LINE('',#1060,#202);
#139=LINE('',#1063,#203);
#140=LINE('',#1065,#204);
#141=LINE('',#1070,#205);
#142=LINE('',#1071,#206);
#143=LINE('',#1074,#207);
#144=LINE('',#1075,#208);
#145=LINE('',#1079,#209);
#146=LINE('',#1083,#210);
#147=LINE('',#1087,#211);
#148=LINE('',#1091,#212);
#149=LINE('',#1095,#213);
#150=LINE('',#1099,#214);
#151=LINE('',#1102,#215);
#152=LINE('',#1106,#216);
#153=LINE('',#1110,#217);
#154=LINE('',#1114,#218);
#155=LINE('',#1118,#219);
#156=LINE('',#1122,#220);
#157=LINE('',#1124,#221);
#158=LINE('',#1126,#222);
#159=LINE('',#1127,#223);
#160=LINE('',#1129,#224);
#161=LINE('',#1131,#225);
#162=LINE('',#1133,#226);
#163=LINE('',#1134,#227);
#164=LINE('',#1137,#228);
#165=LINE('',#1138,#229);
#166=LINE('',#1142,#230);
#167=LINE('',#1144,#231);
#168=LINE('',#1146,#232);
#169=LINE('',#1148,#233);
#170=LINE('',#1149,#234);
#171=LINE('',#1151,#235);
#172=LINE('',#1153,#236);
#173=LINE('',#1155,#237);
#174=LINE('',#1157,#238);
#175=LINE('',#1159,#239);
#176=LINE('',#1161,#240);
#177=LINE('',#1163,#241);
#178=LINE('',#1165,#242);
#179=LINE('',#1167,#243);
#180=LINE('',#1169,#244);
#181=VECTOR('',#777,10.);
#182=VECTOR('',#780,10.);
#183=VECTOR('',#783,10.);
#184=VECTOR('',#786,10.);
#185=VECTOR('',#789,10.);
#186=VECTOR('',#792,10.);
#187=VECTOR('',#795,10.);
#188=VECTOR('',#798,9.99999999999999);
#189=VECTOR('',#801,10.);
#190=VECTOR('',#804,10.);
#191=VECTOR('',#807,10.);
#192=VECTOR('',#810,10.);
#193=VECTOR('',#813,10.);
#194=VECTOR('',#816,10.);
#195=VECTOR('',#819,10.);
#196=VECTOR('',#822,10.);
#197=VECTOR('',#825,10.);
#198=VECTOR('',#828,10.);
#199=VECTOR('',#831,10.);
#200=VECTOR('',#832,10.);
#201=VECTOR('',#837,10.);
#202=VECTOR('',#840,10.);
#203=VECTOR('',#843,10.);
#204=VECTOR('',#846,10.);
#205=VECTOR('',#851,10.);
#206=VECTOR('',#852,10.);
#207=VECTOR('',#855,10.);
#208=VECTOR('',#856,10.);
#209=VECTOR('',#859,10.);
#210=VECTOR('',#862,9.99999999999999);
#211=VECTOR('',#865,10.);
#212=VECTOR('',#868,10.);
#213=VECTOR('',#871,10.);
#214=VECTOR('',#874,10.);
#215=VECTOR('',#877,10.);
#216=VECTOR('',#880,10.);
#217=VECTOR('',#883,10.);
#218=VECTOR('',#886,10.);
#219=VECTOR('',#889,10.);
#220=VECTOR('',#892,10.);
#221=VECTOR('',#895,10.);
#222=VECTOR('',#898,10.);
#223=VECTOR('',#899,10.);
#224=VECTOR('',#902,10.);
#225=VECTOR('',#905,10.);
#226=VECTOR('',#908,10.);
#227=VECTOR('',#909,10.);
#228=VECTOR('',#914,10.);
#229=VECTOR('',#915,10.);
#230=VECTOR('',#922,10.);
#231=VECTOR('',#925,10.);
#232=VECTOR('',#928,10.);
#233=VECTOR('',#931,10.);
#234=VECTOR('',#932,10.);
#235=VECTOR('',#935,10.);
#236=VECTOR('',#938,10.);
#237=VECTOR('',#941,10.);
#238=VECTOR('',#944,10.);
#239=VECTOR('',#947,10.);
#240=VECTOR('',#950,10.);
#241=VECTOR('',#953,10.);
#242=VECTOR('',#956,10.);
#243=VECTOR('',#959,10.);
#244=VECTOR('',#962,10.);
#245=CIRCLE('',#697,0.5);
#246=CIRCLE('',#698,0.5);
#247=CIRCLE('',#700,1.5);
#248=CIRCLE('',#701,1.5);
#249=CIRCLE('',#702,1.5);
#250=CIRCLE('',#703,1.5);
#251=CIRCLE('',#704,1.5);
#252=CIRCLE('',#705,1.5);
#253=CIRCLE('',#706,0.5);
#254=CIRCLE('',#707,0.5);
#255=CIRCLE('',#708,0.5);
#256=CIRCLE('',#709,2.54999999999999);
#257=CIRCLE('',#710,0.5);
#258=CIRCLE('',#711,0.5);
#259=CIRCLE('',#712,0.5);
#260=CIRCLE('',#713,0.5);
#261=CIRCLE('',#714,2.55000000000003);
#262=CIRCLE('',#717,0.5);
#263=CIRCLE('',#719,0.5);
#264=CIRCLE('',#722,0.5);
#265=CIRCLE('',#725,1.5);
#266=CIRCLE('',#726,1.5);
#267=CIRCLE('',#727,1.5);
#268=CIRCLE('',#728,1.5);
#269=CIRCLE('',#729,1.5);
#270=CIRCLE('',#730,1.5);
#271=CIRCLE('',#731,2.55000000000003);
#272=CIRCLE('',#732,0.5);
#273=CIRCLE('',#733,0.5);
#274=CIRCLE('',#734,0.5);
#275=CIRCLE('',#735,0.5);
#276=CIRCLE('',#736,2.54999999999999);
#277=VERTEX_POINT('',#980);
#278=VERTEX_POINT('',#981);
#279=VERTEX_POINT('',#983);
#280=VERTEX_POINT('',#985);
#281=VERTEX_POINT('',#989);
#282=VERTEX_POINT('',#990);
#283=VERTEX_POINT('',#992);
#284=VERTEX_POINT('',#994);
#285=VERTEX_POINT('',#996);
#286=VERTEX_POINT('',#998);
#287=VERTEX_POINT('',#1000);
#288=VERTEX_POINT('',#1002);
#289=VERTEX_POINT('',#1004);
#290=VERTEX_POINT('',#1006);
#291=VERTEX_POINT('',#1008);
#292=VERTEX_POINT('',#1010);
#293=VERTEX_POINT('',#1013);
#294=VERTEX_POINT('',#1015);
#295=VERTEX_POINT('',#1017);
#296=VERTEX_POINT('',#1019);
#297=VERTEX_POINT('',#1021);
#298=VERTEX_POINT('',#1023);
#299=VERTEX_POINT('',#1025);
#300=VERTEX_POINT('',#1027);
#301=VERTEX_POINT('',#1029);
#302=VERTEX_POINT('',#1031);
#303=VERTEX_POINT('',#1033);
#304=VERTEX_POINT('',#1035);
#305=VERTEX_POINT('',#1037);
#306=VERTEX_POINT('',#1039);
#307=VERTEX_POINT('',#1041);
#308=VERTEX_POINT('',#1043);
#309=VERTEX_POINT('',#1045);
#310=VERTEX_POINT('',#1047);
#311=VERTEX_POINT('',#1051);
#312=VERTEX_POINT('',#1055);
#313=VERTEX_POINT('',#1059);
#314=VERTEX_POINT('',#1061);
#315=VERTEX_POINT('',#1067);
#316=VERTEX_POINT('',#1068);
#317=VERTEX_POINT('',#1073);
#318=VERTEX_POINT('',#1077);
#319=VERTEX_POINT('',#1078);
#320=VERTEX_POINT('',#1080);
#321=VERTEX_POINT('',#1082);
#322=VERTEX_POINT('',#1084);
#323=VERTEX_POINT('',#1086);
#324=VERTEX_POINT('',#1088);
#325=VERTEX_POINT('',#1090);
#326=VERTEX_POINT('',#1092);
#327=VERTEX_POINT('',#1094);
#328=VERTEX_POINT('',#1096);
#329=VERTEX_POINT('',#1098);
#330=VERTEX_POINT('',#1101);
#331=VERTEX_POINT('',#1103);
#332=VERTEX_POINT('',#1105);
#333=VERTEX_POINT('',#1107);
#334=VERTEX_POINT('',#1109);
#335=VERTEX_POINT('',#1111);
#336=VERTEX_POINT('',#1113);
#337=VERTEX_POINT('',#1115);
#338=VERTEX_POINT('',#1117);
#339=VERTEX_POINT('',#1119);
#340=VERTEX_POINT('',#1121);
#341=EDGE_CURVE('',#277,#278,#245,.T.);
#342=EDGE_CURVE('',#278,#279,#117,.T.);
#343=EDGE_CURVE('',#279,#280,#246,.T.);
#344=EDGE_CURVE('',#280,#277,#118,.T.);
#345=EDGE_CURVE('',#281,#282,#119,.T.);
#346=EDGE_CURVE('',#283,#282,#247,.T.);
#347=EDGE_CURVE('',#283,#284,#120,.T.);
#348=EDGE_CURVE('',#285,#284,#248,.T.);
#349=EDGE_CURVE('',#285,#286,#121,.T.);
#350=EDGE_CURVE('',#287,#286,#249,.T.);
#351=EDGE_CURVE('',#287,#288,#122,.T.);
#352=EDGE_CURVE('',#289,#288,#250,.T.);
#353=EDGE_CURVE('',#289,#290,#123,.T.);
#354=EDGE_CURVE('',#291,#290,#251,.T.);
#355=EDGE_CURVE('',#292,#291,#124,.T.);
#356=EDGE_CURVE('',#281,#292,#252,.T.);
#357=EDGE_CURVE('',#277,#293,#125,.T.);
#358=EDGE_CURVE('',#294,#293,#253,.T.);
#359=EDGE_CURVE('',#294,#295,#126,.T.);
#360=EDGE_CURVE('',#296,#295,#254,.T.);
#361=EDGE_CURVE('',#296,#297,#127,.T.);
#362=EDGE_CURVE('',#298,#297,#255,.T.);
#363=EDGE_CURVE('',#298,#299,#128,.T.);
#364=EDGE_CURVE('',#299,#300,#256,.T.);
#365=EDGE_CURVE('',#300,#301,#129,.T.);
#366=EDGE_CURVE('',#302,#301,#257,.T.);
#367=EDGE_CURVE('',#302,#303,#130,.T.);
#368=EDGE_CURVE('',#304,#303,#258,.T.);
#369=EDGE_CURVE('',#304,#305,#131,.T.);
#370=EDGE_CURVE('',#306,#305,#259,.T.);
#371=EDGE_CURVE('',#306,#307,#132,.T.);
#372=EDGE_CURVE('',#308,#307,#260,.T.);
#373=EDGE_CURVE('',#308,#309,#133,.T.);
#374=EDGE_CURVE('',#309,#310,#261,.T.);
#375=EDGE_CURVE('',#310,#278,#134,.T.);
#376=EDGE_CURVE('',#311,#280,#135,.T.);
#377=EDGE_CURVE('',#293,#311,#136,.T.);
#378=EDGE_CURVE('',#311,#312,#262,.T.);
#379=EDGE_CURVE('',#312,#294,#137,.T.);
#380=EDGE_CURVE('',#295,#313,#138,.T.);
#381=EDGE_CURVE('',#313,#314,#263,.T.);
#382=EDGE_CURVE('',#314,#296,#139,.T.);
#383=EDGE_CURVE('',#313,#312,#140,.T.);
#384=EDGE_CURVE('',#315,#316,#264,.T.);
#385=EDGE_CURVE('',#316,#298,#141,.T.);
#386=EDGE_CURVE('',#297,#315,#142,.T.);
#387=EDGE_CURVE('',#317,#316,#143,.T.);
#388=EDGE_CURVE('',#317,#299,#144,.T.);
#389=EDGE_CURVE('',#318,#319,#145,.T.);
#390=EDGE_CURVE('',#320,#319,#265,.T.);
#391=EDGE_CURVE('',#321,#320,#146,.T.);
#392=EDGE_CURVE('',#322,#321,#266,.T.);
#393=EDGE_CURVE('',#323,#322,#147,.T.);
#394=EDGE_CURVE('',#324,#323,#267,.T.);
#395=EDGE_CURVE('',#325,#324,#148,.T.);
#396=EDGE_CURVE('',#326,#325,#268,.T.);
#397=EDGE_CURVE('',#326,#327,#149,.T.);
#398=EDGE_CURVE('',#328,#327,#269,.T.);
#399=EDGE_CURVE('',#328,#329,#150,.T.);
#400=EDGE_CURVE('',#318,#329,#270,.T.);
#401=EDGE_CURVE('',#279,#330,#151,.T.);
#402=EDGE_CURVE('',#330,#331,#271,.T.);
#403=EDGE_CURVE('',#331,#332,#152,.T.);
#404=EDGE_CURVE('',#333,#332,#272,.T.);
#405=EDGE_CURVE('',#333,#334,#153,.T.);
#406=EDGE_CURVE('',#335,#334,#273,.T.);
#407=EDGE_CURVE('',#335,#336,#154,.T.);
#408=EDGE_CURVE('',#337,#336,#274,.T.);
#409=EDGE_CURVE('',#337,#338,#155,.T.);
#410=EDGE_CURVE('',#339,#338,#275,.T.);
#411=EDGE_CURVE('',#339,#340,#156,.T.);
#412=EDGE_CURVE('',#340,#317,#276,.T.);
#413=EDGE_CURVE('',#315,#314,#157,.T.);
#414=EDGE_CURVE('',#301,#339,#158,.T.);
#415=EDGE_CURVE('',#338,#302,#159,.T.);
#416=EDGE_CURVE('',#303,#337,#160,.T.);
#417=EDGE_CURVE('',#336,#304,#161,.T.);
#418=EDGE_CURVE('',#305,#335,#162,.T.);
#419=EDGE_CURVE('',#334,#306,#163,.T.);
#420=EDGE_CURVE('',#332,#308,#164,.T.);
#421=EDGE_CURVE('',#307,#333,#165,.T.);
#422=EDGE_CURVE('',#340,#300,#166,.T.);
#423=EDGE_CURVE('',#309,#331,#167,.T.);
#424=EDGE_CURVE('',#330,#310,#168,.T.);
#425=EDGE_CURVE('',#284,#328,#169,.T.);
#426=EDGE_CURVE('',#327,#285,#170,.T.);
#427=EDGE_CURVE('',#329,#283,#171,.T.);
#428=EDGE_CURVE('',#282,#318,#172,.T.);
#429=EDGE_CURVE('',#319,#281,#173,.T.);
#430=EDGE_CURVE('',#292,#320,#174,.T.);
#431=EDGE_CURVE('',#321,#291,#175,.T.);
#432=EDGE_CURVE('',#290,#322,#176,.T.);
#433=EDGE_CURVE('',#286,#326,#177,.T.);
#434=EDGE_CURVE('',#323,#289,#178,.T.);
#435=EDGE_CURVE('',#325,#287,#179,.T.);
#436=EDGE_CURVE('',#288,#324,#180,.T.);
#437=ORIENTED_EDGE('',*,*,#341,.T.);
#438=ORIENTED_EDGE('',*,*,#342,.T.);
#439=ORIENTED_EDGE('',*,*,#343,.T.);
#440=ORIENTED_EDGE('',*,*,#344,.T.);
#441=ORIENTED_EDGE('',*,*,#345,.T.);
#442=ORIENTED_EDGE('',*,*,#346,.F.);
#443=ORIENTED_EDGE('',*,*,#347,.T.);
#444=ORIENTED_EDGE('',*,*,#348,.F.);
#445=ORIENTED_EDGE('',*,*,#349,.T.);
#446=ORIENTED_EDGE('',*,*,#350,.F.);
#447=ORIENTED_EDGE('',*,*,#351,.T.);
#448=ORIENTED_EDGE('',*,*,#352,.F.);
#449=ORIENTED_EDGE('',*,*,#353,.T.);
#450=ORIENTED_EDGE('',*,*,#354,.F.);
#451=ORIENTED_EDGE('',*,*,#355,.F.);
#452=ORIENTED_EDGE('',*,*,#356,.F.);
#453=ORIENTED_EDGE('',*,*,#341,.F.);
#454=ORIENTED_EDGE('',*,*,#357,.T.);
#455=ORIENTED_EDGE('',*,*,#358,.F.);
#456=ORIENTED_EDGE('',*,*,#359,.T.);
#457=ORIENTED_EDGE('',*,*,#360,.F.);
#458=ORIENTED_EDGE('',*,*,#361,.T.);
#459=ORIENTED_EDGE('',*,*,#362,.F.);
#460=ORIENTED_EDGE('',*,*,#363,.T.);
#461=ORIENTED_EDGE('',*,*,#364,.T.);
#462=ORIENTED_EDGE('',*,*,#365,.T.);
#463=ORIENTED_EDGE('',*,*,#366,.F.);
#464=ORIENTED_EDGE('',*,*,#367,.T.);
#465=ORIENTED_EDGE('',*,*,#368,.F.);
#466=ORIENTED_EDGE('',*,*,#369,.T.);
#467=ORIENTED_EDGE('',*,*,#370,.F.);
#468=ORIENTED_EDGE('',*,*,#371,.T.);
#469=ORIENTED_EDGE('',*,*,#372,.F.);
#470=ORIENTED_EDGE('',*,*,#373,.T.);
#471=ORIENTED_EDGE('',*,*,#374,.T.);
#472=ORIENTED_EDGE('',*,*,#375,.T.);
#473=ORIENTED_EDGE('',*,*,#344,.F.);
#474=ORIENTED_EDGE('',*,*,#376,.F.);
#475=ORIENTED_EDGE('',*,*,#377,.F.);
#476=ORIENTED_EDGE('',*,*,#357,.F.);
#477=ORIENTED_EDGE('',*,*,#358,.T.);
#478=ORIENTED_EDGE('',*,*,#377,.T.);
#479=ORIENTED_EDGE('',*,*,#378,.T.);
#480=ORIENTED_EDGE('',*,*,#379,.T.);
#481=ORIENTED_EDGE('',*,*,#360,.T.);
#482=ORIENTED_EDGE('',*,*,#380,.T.);
#483=ORIENTED_EDGE('',*,*,#381,.T.);
#484=ORIENTED_EDGE('',*,*,#382,.T.);
#485=ORIENTED_EDGE('',*,*,#379,.F.);
#486=ORIENTED_EDGE('',*,*,#383,.F.);
#487=ORIENTED_EDGE('',*,*,#380,.F.);
#488=ORIENTED_EDGE('',*,*,#359,.F.);
#489=ORIENTED_EDGE('',*,*,#384,.T.);
#490=ORIENTED_EDGE('',*,*,#385,.T.);
#491=ORIENTED_EDGE('',*,*,#362,.T.);
#492=ORIENTED_EDGE('',*,*,#386,.T.);
#493=ORIENTED_EDGE('',*,*,#385,.F.);
#494=ORIENTED_EDGE('',*,*,#387,.F.);
#495=ORIENTED_EDGE('',*,*,#388,.T.);
#496=ORIENTED_EDGE('',*,*,#363,.F.);
#497=ORIENTED_EDGE('',*,*,#389,.T.);
#498=ORIENTED_EDGE('',*,*,#390,.F.);
#499=ORIENTED_EDGE('',*,*,#391,.F.);
#500=ORIENTED_EDGE('',*,*,#392,.F.);
#501=ORIENTED_EDGE('',*,*,#393,.F.);
#502=ORIENTED_EDGE('',*,*,#394,.F.);
#503=ORIENTED_EDGE('',*,*,#395,.F.);
#504=ORIENTED_EDGE('',*,*,#396,.F.);
#505=ORIENTED_EDGE('',*,*,#397,.T.);
#506=ORIENTED_EDGE('',*,*,#398,.F.);
#507=ORIENTED_EDGE('',*,*,#399,.T.);
#508=ORIENTED_EDGE('',*,*,#400,.F.);
#509=ORIENTED_EDGE('',*,*,#343,.F.);
#510=ORIENTED_EDGE('',*,*,#401,.T.);
#511=ORIENTED_EDGE('',*,*,#402,.T.);
#512=ORIENTED_EDGE('',*,*,#403,.T.);
#513=ORIENTED_EDGE('',*,*,#404,.F.);
#514=ORIENTED_EDGE('',*,*,#405,.T.);
#515=ORIENTED_EDGE('',*,*,#406,.F.);
#516=ORIENTED_EDGE('',*,*,#407,.T.);
#517=ORIENTED_EDGE('',*,*,#408,.F.);
#518=ORIENTED_EDGE('',*,*,#409,.T.);
#519=ORIENTED_EDGE('',*,*,#410,.F.);
#520=ORIENTED_EDGE('',*,*,#411,.T.);
#521=ORIENTED_EDGE('',*,*,#412,.T.);
#522=ORIENTED_EDGE('',*,*,#387,.T.);
#523=ORIENTED_EDGE('',*,*,#384,.F.);
#524=ORIENTED_EDGE('',*,*,#413,.T.);
#525=ORIENTED_EDGE('',*,*,#381,.F.);
#526=ORIENTED_EDGE('',*,*,#383,.T.);
#527=ORIENTED_EDGE('',*,*,#378,.F.);
#528=ORIENTED_EDGE('',*,*,#376,.T.);
#529=ORIENTED_EDGE('',*,*,#366,.T.);
#530=ORIENTED_EDGE('',*,*,#414,.T.);
#531=ORIENTED_EDGE('',*,*,#410,.T.);
#532=ORIENTED_EDGE('',*,*,#415,.T.);
#533=ORIENTED_EDGE('',*,*,#415,.F.);
#534=ORIENTED_EDGE('',*,*,#409,.F.);
#535=ORIENTED_EDGE('',*,*,#416,.F.);
#536=ORIENTED_EDGE('',*,*,#367,.F.);
#537=ORIENTED_EDGE('',*,*,#368,.T.);
#538=ORIENTED_EDGE('',*,*,#416,.T.);
#539=ORIENTED_EDGE('',*,*,#408,.T.);
#540=ORIENTED_EDGE('',*,*,#417,.T.);
#541=ORIENTED_EDGE('',*,*,#370,.T.);
#542=ORIENTED_EDGE('',*,*,#418,.T.);
#543=ORIENTED_EDGE('',*,*,#406,.T.);
#544=ORIENTED_EDGE('',*,*,#419,.T.);
#545=ORIENTED_EDGE('',*,*,#417,.F.);
#546=ORIENTED_EDGE('',*,*,#407,.F.);
#547=ORIENTED_EDGE('',*,*,#418,.F.);
#548=ORIENTED_EDGE('',*,*,#369,.F.);
#549=ORIENTED_EDGE('',*,*,#404,.T.);
#550=ORIENTED_EDGE('',*,*,#420,.T.);
#551=ORIENTED_EDGE('',*,*,#372,.T.);
#552=ORIENTED_EDGE('',*,*,#421,.T.);
#553=ORIENTED_EDGE('',*,*,#419,.F.);
#554=ORIENTED_EDGE('',*,*,#405,.F.);
#555=ORIENTED_EDGE('',*,*,#421,.F.);
#556=ORIENTED_EDGE('',*,*,#371,.F.);
#557=ORIENTED_EDGE('',*,*,#382,.F.);
#558=ORIENTED_EDGE('',*,*,#413,.F.);
#559=ORIENTED_EDGE('',*,*,#386,.F.);
#560=ORIENTED_EDGE('',*,*,#361,.F.);
#561=ORIENTED_EDGE('',*,*,#414,.F.);
#562=ORIENTED_EDGE('',*,*,#365,.F.);
#563=ORIENTED_EDGE('',*,*,#422,.F.);
#564=ORIENTED_EDGE('',*,*,#411,.F.);
#565=ORIENTED_EDGE('',*,*,#420,.F.);
#566=ORIENTED_EDGE('',*,*,#403,.F.);
#567=ORIENTED_EDGE('',*,*,#423,.F.);
#568=ORIENTED_EDGE('',*,*,#373,.F.);
#569=ORIENTED_EDGE('',*,*,#342,.F.);
#570=ORIENTED_EDGE('',*,*,#375,.F.);
#571=ORIENTED_EDGE('',*,*,#424,.F.);
#572=ORIENTED_EDGE('',*,*,#401,.F.);
#573=ORIENTED_EDGE('',*,*,#348,.T.);
#574=ORIENTED_EDGE('',*,*,#425,.T.);
#575=ORIENTED_EDGE('',*,*,#398,.T.);
#576=ORIENTED_EDGE('',*,*,#426,.T.);
#577=ORIENTED_EDGE('',*,*,#425,.F.);
#578=ORIENTED_EDGE('',*,*,#347,.F.);
#579=ORIENTED_EDGE('',*,*,#427,.F.);
#580=ORIENTED_EDGE('',*,*,#399,.F.);
#581=ORIENTED_EDGE('',*,*,#346,.T.);
#582=ORIENTED_EDGE('',*,*,#428,.T.);
#583=ORIENTED_EDGE('',*,*,#400,.T.);
#584=ORIENTED_EDGE('',*,*,#427,.T.);
#585=ORIENTED_EDGE('',*,*,#428,.F.);
#586=ORIENTED_EDGE('',*,*,#345,.F.);
#587=ORIENTED_EDGE('',*,*,#429,.F.);
#588=ORIENTED_EDGE('',*,*,#389,.F.);
#589=ORIENTED_EDGE('',*,*,#356,.T.);
#590=ORIENTED_EDGE('',*,*,#430,.T.);
#591=ORIENTED_EDGE('',*,*,#390,.T.);
#592=ORIENTED_EDGE('',*,*,#429,.T.);
#593=ORIENTED_EDGE('',*,*,#430,.F.);
#594=ORIENTED_EDGE('',*,*,#355,.T.);
#595=ORIENTED_EDGE('',*,*,#431,.F.);
#596=ORIENTED_EDGE('',*,*,#391,.T.);
#597=ORIENTED_EDGE('',*,*,#392,.T.);
#598=ORIENTED_EDGE('',*,*,#431,.T.);
#599=ORIENTED_EDGE('',*,*,#354,.T.);
#600=ORIENTED_EDGE('',*,*,#432,.T.);
#601=ORIENTED_EDGE('',*,*,#426,.F.);
#602=ORIENTED_EDGE('',*,*,#397,.F.);
#603=ORIENTED_EDGE('',*,*,#433,.F.);
#604=ORIENTED_EDGE('',*,*,#349,.F.);
#605=ORIENTED_EDGE('',*,*,#432,.F.);
#606=ORIENTED_EDGE('',*,*,#353,.F.);
#607=ORIENTED_EDGE('',*,*,#434,.F.);
#608=ORIENTED_EDGE('',*,*,#393,.T.);
#609=ORIENTED_EDGE('',*,*,#396,.T.);
#610=ORIENTED_EDGE('',*,*,#435,.T.);
#611=ORIENTED_EDGE('',*,*,#350,.T.);
#612=ORIENTED_EDGE('',*,*,#433,.T.);
#613=ORIENTED_EDGE('',*,*,#435,.F.);
#614=ORIENTED_EDGE('',*,*,#395,.T.);
#615=ORIENTED_EDGE('',*,*,#436,.F.);
#616=ORIENTED_EDGE('',*,*,#351,.F.);
#617=ORIENTED_EDGE('',*,*,#352,.T.);
#618=ORIENTED_EDGE('',*,*,#436,.T.);
#619=ORIENTED_EDGE('',*,*,#394,.T.);
#620=ORIENTED_EDGE('',*,*,#434,.T.);
#621=ORIENTED_EDGE('',*,*,#402,.F.);
#622=ORIENTED_EDGE('',*,*,#424,.T.);
#623=ORIENTED_EDGE('',*,*,#374,.F.);
#624=ORIENTED_EDGE('',*,*,#423,.T.);
#625=ORIENTED_EDGE('',*,*,#412,.F.);
#626=ORIENTED_EDGE('',*,*,#422,.T.);
#627=ORIENTED_EDGE('',*,*,#364,.F.);
#628=ORIENTED_EDGE('',*,*,#388,.F.);
#629=CYLINDRICAL_SURFACE('',#696,0.5);
#630=CYLINDRICAL_SURFACE('',#716,0.5);
#631=CYLINDRICAL_SURFACE('',#718,0.5);
#632=CYLINDRICAL_SURFACE('',#721,0.5);
#633=CYLINDRICAL_SURFACE('',#737,0.5);
#634=CYLINDRICAL_SURFACE('',#739,0.5);
#635=CYLINDRICAL_SURFACE('',#740,0.5);
#636=CYLINDRICAL_SURFACE('',#742,0.5);
#637=CYLINDRICAL_SURFACE('',#748,1.5);
#638=CYLINDRICAL_SURFACE('',#750,1.5);
#639=CYLINDRICAL_SURFACE('',#752,1.5);
#640=CYLINDRICAL_SURFACE('',#754,1.5);
#641=CYLINDRICAL_SURFACE('',#757,1.5);
#642=CYLINDRICAL_SURFACE('',#759,1.5);
#643=CYLINDRICAL_SURFACE('',#760,2.55000000000003);
#644=CYLINDRICAL_SURFACE('',#761,2.54999999999999);
#645=ADVANCED_FACE('',(#47),#629,.T.);
#646=ADVANCED_FACE('',(#48,#27),#29,.T.);
#647=ADVANCED_FACE('',(#49),#30,.F.);
#648=ADVANCED_FACE('',(#50),#630,.F.);
#649=ADVANCED_FACE('',(#51),#631,.F.);
#650=ADVANCED_FACE('',(#52),#31,.F.);
#651=ADVANCED_FACE('',(#53),#632,.T.);
#652=ADVANCED_FACE('',(#54),#32,.T.);
#653=ADVANCED_FACE('',(#55,#28),#33,.F.);
#654=ADVANCED_FACE('',(#56),#633,.T.);
#655=ADVANCED_FACE('',(#57),#34,.F.);
#656=ADVANCED_FACE('',(#58),#634,.F.);
#657=ADVANCED_FACE('',(#59),#635,.F.);
#658=ADVANCED_FACE('',(#60),#35,.F.);
#659=ADVANCED_FACE('',(#61),#636,.T.);
#660=ADVANCED_FACE('',(#62),#36,.F.);
#661=ADVANCED_FACE('',(#63),#37,.F.);
#662=ADVANCED_FACE('',(#64),#38,.T.);
#663=ADVANCED_FACE('',(#65),#39,.T.);
#664=ADVANCED_FACE('',(#66),#40,.T.);
#665=ADVANCED_FACE('',(#67),#637,.T.);
#666=ADVANCED_FACE('',(#68),#41,.T.);
#667=ADVANCED_FACE('',(#69),#638,.T.);
#668=ADVANCED_FACE('',(#70),#42,.T.);
#669=ADVANCED_FACE('',(#71),#639,.T.);
#670=ADVANCED_FACE('',(#72),#43,.T.);
#671=ADVANCED_FACE('',(#73),#640,.T.);
#672=ADVANCED_FACE('',(#74),#44,.T.);
#673=ADVANCED_FACE('',(#75),#45,.T.);
#674=ADVANCED_FACE('',(#76),#641,.T.);
#675=ADVANCED_FACE('',(#77),#46,.T.);
#676=ADVANCED_FACE('',(#78),#642,.T.);
#677=ADVANCED_FACE('',(#79),#643,.F.);
#678=ADVANCED_FACE('',(#80),#644,.F.);
#679=CLOSED_SHELL('',(#645,#646,#647,#648,#649,#650,#651,#652,#653,#654,
#655,#656,#657,#658,#659,#660,#661,#662,#663,#664,#665,#666,#667,#668,#669,
#670,#671,#672,#673,#674,#675,#676,#677,#678));
#680=DERIVED_UNIT_ELEMENT(#682,1.);
#681=DERIVED_UNIT_ELEMENT(#1187,-3.);
#682=(
MASS_UNIT()
NAMED_UNIT(*)
SI_UNIT(.KILO.,.GRAM.)
);
#683=DERIVED_UNIT((#680,#681));
#684=MEASURE_REPRESENTATION_ITEM('density measure',
POSITIVE_RATIO_MEASURE(7850.),#683);
#685=PROPERTY_DEFINITION_REPRESENTATION(#690,#687);
#686=PROPERTY_DEFINITION_REPRESENTATION(#691,#688);
#687=REPRESENTATION('material name',(#689),#1184);
#688=REPRESENTATION('density',(#684),#1184);
#689=DESCRIPTIVE_REPRESENTATION_ITEM('Steel','Steel');
#690=PROPERTY_DEFINITION('material property','material name',#1209);
#691=PROPERTY_DEFINITION('material property','density of part',#1209);
#692=AXIS2_PLACEMENT_3D('',#975,#765,#766);
#693=AXIS2_PLACEMENT_3D('',#976,#767,#768);
#694=AXIS2_PLACEMENT_3D('',#977,#769,#770);
#695=AXIS2_PLACEMENT_3D('',#978,#771,#772);
#696=AXIS2_PLACEMENT_3D('',#979,#773,#774);
#697=AXIS2_PLACEMENT_3D('',#982,#775,#776);
#698=AXIS2_PLACEMENT_3D('',#986,#778,#779);
#699=AXIS2_PLACEMENT_3D('',#988,#781,#782);
#700=AXIS2_PLACEMENT_3D('',#993,#784,#785);
#701=AXIS2_PLACEMENT_3D('',#997,#787,#788);
#702=AXIS2_PLACEMENT_3D('',#1001,#790,#791);
#703=AXIS2_PLACEMENT_3D('',#1005,#793,#794);
#704=AXIS2_PLACEMENT_3D('',#1009,#796,#797);
#705=AXIS2_PLACEMENT_3D('',#1012,#799,#800);
#706=AXIS2_PLACEMENT_3D('',#1016,#802,#803);
#707=AXIS2_PLACEMENT_3D('',#1020,#805,#806);
#708=AXIS2_PLACEMENT_3D('',#1024,#808,#809);
#709=AXIS2_PLACEMENT_3D('',#1028,#811,#812);
#710=AXIS2_PLACEMENT_3D('',#1032,#814,#815);
#711=AXIS2_PLACEMENT_3D('',#1036,#817,#818);
#712=AXIS2_PLACEMENT_3D('',#1040,#820,#821);
#713=AXIS2_PLACEMENT_3D('',#1044,#823,#824);
#714=AXIS2_PLACEMENT_3D('',#1048,#826,#827);
#715=AXIS2_PLACEMENT_3D('',#1050,#829,#830);
#716=AXIS2_PLACEMENT_3D('',#1054,#833,#834);
#717=AXIS2_PLACEMENT_3D('',#1056,#835,#836);
#718=AXIS2_PLACEMENT_3D('',#1058,#838,#839);
#719=AXIS2_PLACEMENT_3D('',#1062,#841,#842);
#720=AXIS2_PLACEMENT_3D('',#1064,#844,#845);
#721=AXIS2_PLACEMENT_3D('',#1066,#847,#848);
#722=AXIS2_PLACEMENT_3D('',#1069,#849,#850);
#723=AXIS2_PLACEMENT_3D('',#1072,#853,#854);
#724=AXIS2_PLACEMENT_3D('',#1076,#857,#858);
#725=AXIS2_PLACEMENT_3D('',#1081,#860,#861);
#726=AXIS2_PLACEMENT_3D('',#1085,#863,#864);
#727=AXIS2_PLACEMENT_3D('',#1089,#866,#867);
#728=AXIS2_PLACEMENT_3D('',#1093,#869,#870);
#729=AXIS2_PLACEMENT_3D('',#1097,#872,#873);
#730=AXIS2_PLACEMENT_3D('',#1100,#875,#876);
#731=AXIS2_PLACEMENT_3D('',#1104,#878,#879);
#732=AXIS2_PLACEMENT_3D('',#1108,#881,#882);
#733=AXIS2_PLACEMENT_3D('',#1112,#884,#885);
#734=AXIS2_PLACEMENT_3D('',#1116,#887,#888);
#735=AXIS2_PLACEMENT_3D('',#1120,#890,#891);
#736=AXIS2_PLACEMENT_3D('',#1123,#893,#894);
#737=AXIS2_PLACEMENT_3D('',#1125,#896,#897);
#738=AXIS2_PLACEMENT_3D('',#1128,#900,#901);
#739=AXIS2_PLACEMENT_3D('',#1130,#903,#904);
#740=AXIS2_PLACEMENT_3D('',#1132,#906,#907);
#741=AXIS2_PLACEMENT_3D('',#1135,#910,#911);
#742=AXIS2_PLACEMENT_3D('',#1136,#912,#913);
#743=AXIS2_PLACEMENT_3D('',#1139,#916,#917);
#744=AXIS2_PLACEMENT_3D('',#1140,#918,#919);
#745=AXIS2_PLACEMENT_3D('',#1141,#920,#921);
#746=AXIS2_PLACEMENT_3D('',#1143,#923,#924);
#747=AXIS2_PLACEMENT_3D('',#1145,#926,#927);
#748=AXIS2_PLACEMENT_3D('',#1147,#929,#930);
#749=AXIS2_PLACEMENT_3D('',#1150,#933,#934);
#750=AXIS2_PLACEMENT_3D('',#1152,#936,#937);
#751=AXIS2_PLACEMENT_3D('',#1154,#939,#940);
#752=AXIS2_PLACEMENT_3D('',#1156,#942,#943);
#753=AXIS2_PLACEMENT_3D('',#1158,#945,#946);
#754=AXIS2_PLACEMENT_3D('',#1160,#948,#949);
#755=AXIS2_PLACEMENT_3D('',#1162,#951,#952);
#756=AXIS2_PLACEMENT_3D('',#1164,#954,#955);
#757=AXIS2_PLACEMENT_3D('',#1166,#957,#958);
#758=AXIS2_PLACEMENT_3D('',#1168,#960,#961);
#759=AXIS2_PLACEMENT_3D('',#1170,#963,#964);
#760=AXIS2_PLACEMENT_3D('',#1171,#965,#966);
#761=AXIS2_PLACEMENT_3D('',#1172,#967,#968);
#762=AXIS2_PLACEMENT_3D('',#1173,#969,#970);
#763=AXIS2_PLACEMENT_3D('',#1174,#971,#972);
#764=AXIS2_PLACEMENT_3D('',#1175,#973,#974);
#765=DIRECTION('axis',(0.,0.,1.));
#766=DIRECTION('refdir',(1.,0.,0.));
#767=DIRECTION('axis',(0.,0.,1.));
#768=DIRECTION('refdir',(1.,0.,0.));
#769=DIRECTION('axis',(0.,0.,1.));
#770=DIRECTION('refdir',(1.,0.,0.));
#771=DIRECTION('axis',(0.,0.,1.));
#772=DIRECTION('refdir',(1.,0.,0.));
#773=DIRECTION('center_axis',(-6.38366548424194E-29,-1.40928791647468E-16,
1.));
#774=DIRECTION('ref_axis',(-0.707106781186698,-0.707106781186397,-9.96517042383746E-17));
#775=DIRECTION('center_axis',(0.,-6.40617234366397E-30,-1.));
#776=DIRECTION('ref_axis',(-0.707106781186698,-0.707106781186397,4.52984790565355E-30));
#777=DIRECTION('',(6.38366548424194E-29,1.40928791647468E-16,-1.));
#778=DIRECTION('center_axis',(0.,6.40617234366397E-30,1.));
#779=DIRECTION('ref_axis',(-0.707106781186698,-0.707106781186397,4.52984790565355E-30));
#780=DIRECTION('',(-6.38366548424194E-29,-1.40928791647468E-16,1.));
#781=DIRECTION('center_axis',(0.,6.40617234366397E-30,1.));
#782=DIRECTION('ref_axis',(1.,0.,0.));
#783=DIRECTION('',(-1.,5.2245789394125E-16,4.93038065763099E-32));
#784=DIRECTION('center_axis',(0.,-6.40617234366397E-30,-1.));
#785=DIRECTION('ref_axis',(-0.382683432365089,0.923879532511287,-5.918531510051E-30));
#786=DIRECTION('',(-0.707106781186546,-0.707106781186549,4.54727943363873E-30));
#787=DIRECTION('center_axis',(0.,-6.40617234366397E-30,-1.));
#788=DIRECTION('ref_axis',(-0.923879532511289,0.382683432365084,-2.4515360207956E-30));
#789=DIRECTION('',(0.,-1.,6.40617234366397E-30));
#790=DIRECTION('center_axis',(0.,-6.40617234366397E-30,-1.));
#791=DIRECTION('ref_axis',(-0.70710678118655,-0.707106781186545,4.52984790565449E-30));
#792=DIRECTION('',(1.,0.,0.));
#793=DIRECTION('center_axis',(0.,-6.40617234366397E-30,-1.));
#794=DIRECTION('ref_axis',(0.707106781186547,-0.707106781186547,4.52984790565451E-30));
#795=DIRECTION('',(0.,1.,-6.40617234366397E-30));
#796=DIRECTION('center_axis',(0.,-6.40617234366397E-30,-1.));
#797=DIRECTION('ref_axis',(0.923879532511287,0.382683432365089,-2.45153602079563E-30));
#798=DIRECTION('',(0.707106781186548,-0.707106781186548,4.47755332170188E-30));
#799=DIRECTION('center_axis',(0.,-6.40617234366397E-30,-1.));
#800=DIRECTION('ref_axis',(0.382683432365089,0.923879532511287,-5.918531510051E-30));
#801=DIRECTION('',(1.,3.39867023413376E-14,-2.17724672591417E-43));
#802=DIRECTION('center_axis',(0.,6.40617234366397E-30,1.));
#803=DIRECTION('ref_axis',(0.707106781186523,0.707106781186573,-4.52984790565467E-30));
#804=DIRECTION('',(3.13550625792632E-14,-1.,6.40617234366397E-30));
#805=DIRECTION('center_axis',(0.,6.40617234366397E-30,1.));
#806=DIRECTION('ref_axis',(0.707106781186579,-0.707106781186516,4.52984790565431E-30));
#807=DIRECTION('',(-1.,-3.39867023413376E-14,2.17724672591417E-43));
#808=DIRECTION('center_axis',(0.,-6.40617234366397E-30,-1.));
#809=DIRECTION('ref_axis',(-0.707106781186403,0.707106781186692,-4.52984790565544E-30));
#810=DIRECTION('',(-4.52970994047146E-13,-1.,6.38152044037582E-30));
#811=DIRECTION('center_axis',(0.,-6.40617234366397E-30,-1.));
#812=DIRECTION('ref_axis',(-1.,0.,0.));
#813=DIRECTION('',(0.,1.,-6.40617234366397E-30));
#814=DIRECTION('center_axis',(0.,-6.40617234366397E-30,-1.));
#815=DIRECTION('ref_axis',(0.707106781186529,0.707106781186566,-4.52984790565463E-30));
#816=DIRECTION('',(-1.,-3.39867023413376E-14,2.17724672591417E-43));
#817=DIRECTION('center_axis',(0.,6.40617234366397E-30,1.));
#818=DIRECTION('ref_axis',(-0.707106781186529,-0.707106781186566,4.52984790565463E-30));
#819=DIRECTION('',(-3.39867023413376E-14,1.,-6.40617234366397E-30));
#820=DIRECTION('center_axis',(0.,6.40617234366397E-30,1.));
#821=DIRECTION('ref_axis',(-0.707106781186573,0.707106781186523,-4.52984790565435E-30));
#822=DIRECTION('',(1.,3.39867023413376E-14,-2.17724672591417E-43));
#823=DIRECTION('center_axis',(0.,-6.40617234366397E-30,-1.));
#824=DIRECTION('ref_axis',(0.70710678118656,-0.707106781186535,4.52984790565443E-30));
#825=DIRECTION('',(0.,1.,-6.40617234366397E-30));
#826=DIRECTION('center_axis',(-4.04112077313205E-59,-6.38152044037582E-30,
-1.));
#827=DIRECTION('ref_axis',(1.,-4.52796841415744E-13,2.88953229883218E-42));
#828=DIRECTION('',(-4.52970994047146E-13,-1.,6.38152044037582E-30));
#829=DIRECTION('center_axis',(-3.39867023413376E-14,1.,1.40928791647468E-16));
#830=DIRECTION('ref_axis',(1.,3.39867023413376E-14,9.60880807697759E-18));
#831=DIRECTION('',(-1.,-3.39867023413376E-14,2.17724672591417E-43));
#832=DIRECTION('',(-1.63637481064754E-16,1.40928791647462E-16,-1.));
#833=DIRECTION('center_axis',(-1.63637481064754E-16,1.40928791647462E-16,
-1.));
#834=DIRECTION('ref_axis',(0.707106781186523,0.707106781186573,-1.60574682788188E-17));
#835=DIRECTION('center_axis',(0.,-6.40617234366397E-30,-1.));
#836=DIRECTION('ref_axis',(0.707106781186523,0.707106781186573,-4.52984790565467E-30));
#837=DIRECTION('',(1.63637481064754E-16,-1.40928791647462E-16,1.));
#838=DIRECTION('center_axis',(-1.63637481064754E-16,1.40928791647462E-16,
-1.));
#839=DIRECTION('ref_axis',(0.707106781186579,-0.707106781186516,-2.1536087675552E-16));
#840=DIRECTION('',(-1.63637481064754E-16,1.40928791647462E-16,-1.));
#841=DIRECTION('center_axis',(0.,-6.40617234366397E-30,-1.));
#842=DIRECTION('ref_axis',(0.707106781186579,-0.707106781186516,4.52984790565431E-30));
#843=DIRECTION('',(1.63637481064754E-16,-1.40928791647462E-16,1.));
#844=DIRECTION('center_axis',(1.,3.13550625792632E-14,-1.6363748106475E-16));
#845=DIRECTION('ref_axis',(3.13550625792632E-14,-1.,1.55390421385845E-15));
#846=DIRECTION('',(-3.13550625792632E-14,1.,-6.40617234366397E-30));
#847=DIRECTION('center_axis',(6.38366548424194E-29,1.40928791647468E-16,
-1.));
#848=DIRECTION('ref_axis',(-0.707106781186403,0.707106781186692,9.96517042383259E-17));
#849=DIRECTION('center_axis',(0.,6.40617234366397E-30,1.));
#850=DIRECTION('ref_axis',(-0.707106781186403,0.707106781186692,-4.52984790565544E-30));
#851=DIRECTION('',(-6.38366548424194E-29,-1.40928791647468E-16,1.));
#852=DIRECTION('',(6.38366548424194E-29,1.40928791647468E-16,-1.));
#853=DIRECTION('center_axis',(-1.,4.52970994047146E-13,-2.89064365740921E-42));
#854=DIRECTION('ref_axis',(-4.52970994047146E-13,-1.,6.38152044037582E-30));
#855=DIRECTION('',(4.52970994047146E-13,1.,-6.38152044037582E-30));
#856=DIRECTION('',(0.,6.40617234366397E-30,1.));
#857=DIRECTION('center_axis',(0.,6.40617234366397E-30,1.));
#858=DIRECTION('ref_axis',(1.,0.,0.));
#859=DIRECTION('',(1.,-5.2245789394125E-16,-4.93038065763099E-32));
#860=DIRECTION('center_axis',(0.,6.40617234366397E-30,1.));
#861=DIRECTION('ref_axis',(0.382683432365089,0.923879532511287,-5.918531510051E-30));
#862=DIRECTION('',(-0.707106781186548,0.707106781186548,-4.47755332170188E-30));
#863=DIRECTION('center_axis',(0.,6.40617234366397E-30,1.));
#864=DIRECTION('ref_axis',(0.923879532511287,0.382683432365089,-2.45153602079563E-30));
#865=DIRECTION('',(0.,1.,-6.40617234366397E-30));
#866=DIRECTION('center_axis',(0.,6.40617234366397E-30,1.));
#867=DIRECTION('ref_axis',(0.707106781186547,-0.707106781186547,4.52984790565451E-30));
#868=DIRECTION('',(1.,0.,0.));
#869=DIRECTION('center_axis',(0.,6.40617234366397E-30,1.));
#870=DIRECTION('ref_axis',(-0.70710678118655,-0.707106781186545,4.52984790565449E-30));
#871=DIRECTION('',(0.,1.,-6.40617234366397E-30));
#872=DIRECTION('center_axis',(0.,6.40617234366397E-30,1.));
#873=DIRECTION('ref_axis',(-0.923879532511289,0.382683432365084,-2.4515360207956E-30));
#874=DIRECTION('',(0.707106781186546,0.707106781186549,-4.54727943363873E-30));
#875=DIRECTION('center_axis',(0.,6.40617234366397E-30,1.));
#876=DIRECTION('ref_axis',(-0.382683432365089,0.923879532511287,-5.918531510051E-30));
#877=DIRECTION('',(4.52970994047146E-13,1.,-6.38152044037582E-30));
#878=DIRECTION('center_axis',(4.04112077313205E-59,6.38152044037582E-30,
1.));
#879=DIRECTION('ref_axis',(1.,-4.52796841415744E-13,2.88953229883218E-42));
#880=DIRECTION('',(0.,-1.,6.40617234366397E-30));
#881=DIRECTION('center_axis',(0.,6.40617234366397E-30,1.));
#882=DIRECTION('ref_axis',(0.70710678118656,-0.707106781186535,4.52984790565443E-30));
#883=DIRECTION('',(-1.,-3.39867023413376E-14,2.17724672591417E-43));
#884=DIRECTION('center_axis',(0.,-6.40617234366397E-30,-1.));
#885=DIRECTION('ref_axis',(-0.707106781186573,0.707106781186523,-4.52984790565435E-30));
#886=DIRECTION('',(3.39867023413376E-14,-1.,6.40617234366397E-30));
#887=DIRECTION('center_axis',(0.,-6.40617234366397E-30,-1.));
#888=DIRECTION('ref_axis',(-0.707106781186529,-0.707106781186566,4.52984790565463E-30));
#889=DIRECTION('',(1.,3.39867023413376E-14,-2.17724672591417E-43));
#890=DIRECTION('center_axis',(0.,6.40617234366397E-30,1.));
#891=DIRECTION('ref_axis',(0.707106781186529,0.707106781186566,-4.52984790565463E-30));
#892=DIRECTION('',(0.,-1.,6.40617234366397E-30));
#893=DIRECTION('center_axis',(0.,6.40617234366397E-30,1.));
#894=DIRECTION('ref_axis',(-1.,0.,0.));
#895=DIRECTION('',(1.,3.39867023413376E-14,-2.17724672591417E-43));
#896=DIRECTION('center_axis',(0.,-1.40928791647468E-16,1.));
#897=DIRECTION('ref_axis',(0.707106781186529,0.707106781186566,9.96517042383533E-17));
#898=DIRECTION('',(0.,1.40928791647468E-16,-1.));
#899=DIRECTION('',(0.,-1.40928791647468E-16,1.));
#900=DIRECTION('center_axis',(3.39867023413376E-14,-1.,-1.40928791647468E-16));
#901=DIRECTION('ref_axis',(-1.,-3.39867023413376E-14,-2.64638849156173E-15));
#902=DIRECTION('',(-1.63637481064754E-16,1.40928791647462E-16,-1.));
#903=DIRECTION('center_axis',(-1.63637481064754E-16,1.40928791647462E-16,
-1.));
#904=DIRECTION('ref_axis',(-0.707106781186529,-0.707106781186566,1.60574682788207E-17));
#905=DIRECTION('',(1.63637481064754E-16,-1.40928791647462E-16,1.));
#906=DIRECTION('center_axis',(-1.63637481064754E-16,1.40928791647462E-16,
-1.));
#907=DIRECTION('ref_axis',(-0.707106781186573,0.707106781186523,2.1536087675552E-16));
#908=DIRECTION('',(-1.63637481064754E-16,1.40928791647462E-16,-1.));
#909=DIRECTION('',(1.63637481064754E-16,-1.40928791647462E-16,1.));
#910=DIRECTION('center_axis',(-1.,-3.39867023413376E-14,1.63637481064749E-16));
#911=DIRECTION('ref_axis',(-3.39867023413376E-14,1.,8.63189487325651E-18));
#912=DIRECTION('center_axis',(0.,1.40928791647468E-16,-1.));
#913=DIRECTION('ref_axis',(0.70710678118656,-0.707106781186535,-9.9651704238349E-17));
#914=DIRECTION('',(0.,-1.40928791647468E-16,1.));
#915=DIRECTION('',(0.,1.40928791647468E-16,-1.));
#916=DIRECTION('center_axis',(-3.39867023413376E-14,1.,1.40928791647468E-16));
#917=DIRECTION('ref_axis',(1.,3.39867023413376E-14,9.60880807697759E-18));
#918=DIRECTION('center_axis',(3.39867023413376E-14,-1.,-1.40928791647468E-16));
#919=DIRECTION('ref_axis',(-1.,-3.39867023413376E-14,-2.64638849156173E-15));
#920=DIRECTION('center_axis',(1.,0.,0.));
#921=DIRECTION('ref_axis',(0.,1.,-6.40617234366397E-30));
#922=DIRECTION('',(0.,6.40617234366397E-30,1.));
#923=DIRECTION('center_axis',(1.,0.,0.));
#924=DIRECTION('ref_axis',(0.,1.,-6.40617234366397E-30));
#925=DIRECTION('',(-4.04112077313205E-59,-6.38152044037582E-30,-1.));
#926=DIRECTION('center_axis',(-1.,4.52970994047146E-13,-2.89064365740921E-42));
#927=DIRECTION('ref_axis',(-4.52970994047146E-13,-1.,6.38152044037582E-30));
#928=DIRECTION('',(4.04112077313205E-59,6.38152044037582E-30,1.));
#929=DIRECTION('center_axis',(0.,6.3322166337995E-30,1.));
#930=DIRECTION('ref_axis',(-0.923879532511289,0.382683432365084,-2.42323439590167E-30));
#931=DIRECTION('',(0.,-6.3322166337995E-30,-1.));
#932=DIRECTION('',(0.,6.3322166337995E-30,1.));
#933=DIRECTION('center_axis',(-0.707106781186549,0.707106781186546,-4.47755332170187E-30));
#934=DIRECTION('ref_axis',(-0.707106781186546,-0.707106781186549,4.54727943363873E-30));
#935=DIRECTION('',(4.93038065763135E-32,6.38152044037582E-30,1.));
#936=DIRECTION('center_axis',(4.93038065763135E-32,6.38152044037582E-30,
1.));
#937=DIRECTION('ref_axis',(-0.382683432365089,0.923879532511287,-5.87688837123635E-30));
#938=DIRECTION('',(-4.93038065763135E-32,-6.38152044037582E-30,-1.));
#939=DIRECTION('center_axis',(5.2245789394125E-16,1.,-6.38152044037582E-30));
#940=DIRECTION('ref_axis',(-1.,5.2245789394125E-16,4.93038065763099E-32));
#941=DIRECTION('',(4.93038065763127E-32,6.38152044037582E-30,1.));
#942=DIRECTION('center_axis',(4.93038065763127E-32,6.38152044037582E-30,
1.));
#943=DIRECTION('ref_axis',(0.382683432365089,0.923879532511287,-5.91462387109492E-30));
#944=DIRECTION('',(-4.93038065763127E-32,-6.38152044037582E-30,-1.));
#945=DIRECTION('center_axis',(0.707106781186548,0.707106781186548,-4.54727943363872E-30));
#946=DIRECTION('ref_axis',(-6.45547615024028E-30,2.46519032881601E-32,-1.));
#947=DIRECTION('',(0.,6.43082424695213E-30,1.));
#948=DIRECTION('center_axis',(0.,-6.43082424695213E-30,-1.));
#949=DIRECTION('ref_axis',(0.923879532511287,0.382683432365089,-2.46096989576028E-30));
#950=DIRECTION('',(0.,-6.43082424695213E-30,-1.));
#951=DIRECTION('center_axis',(-1.,0.,0.));
#952=DIRECTION('ref_axis',(0.,-1.,6.40617234366397E-30));
#953=DIRECTION('',(0.,-6.40617234366397E-30,-1.));
#954=DIRECTION('center_axis',(1.,0.,0.));
#955=DIRECTION('ref_axis',(0.,1.,-6.40617234366397E-30));
#956=DIRECTION('',(0.,6.40617234366397E-30,1.));
#957=DIRECTION('center_axis',(0.,-6.40617234366397E-30,-1.));
#958=DIRECTION('ref_axis',(-0.70710678118655,-0.707106781186545,4.52984790565449E-30));
#959=DIRECTION('',(0.,6.40617234366397E-30,1.));
#960=DIRECTION('center_axis',(0.,-1.,6.40617234366397E-30));
#961=DIRECTION('ref_axis',(1.,0.,0.));
#962=DIRECTION('',(0.,-6.40617234366397E-30,-1.));
#963=DIRECTION('center_axis',(0.,6.40617234366397E-30,1.));
#964=DIRECTION('ref_axis',(0.707106781186547,-0.707106781186547,4.52984790565451E-30));
#965=DIRECTION('center_axis',(4.04112077313205E-59,6.38152044037582E-30,
1.));
#966=DIRECTION('ref_axis',(1.,-4.52796841415744E-13,2.88953229883218E-42));
#967=DIRECTION('center_axis',(0.,6.40617234366397E-30,1.));
#968=DIRECTION('ref_axis',(-1.,0.,0.));
#969=DIRECTION('',(1.43739268477186E-16,-1.73246282593841E-16,-1.));
#970=DIRECTION('',(-3.43752803999565E-14,1.,-1.73246282593846E-16));
#971=DIRECTION('',(-1.11022302463323E-16,2.36712479194418E-29,1.));
#972=DIRECTION('',(1.,2.60208521396269E-17,1.11022302463323E-16));
#973=DIRECTION('',(0.,0.,1.));
#974=DIRECTION('',(1.,0.,0.));
#975=CARTESIAN_POINT('',(0.,0.,0.));
#976=CARTESIAN_POINT('',(0.,0.,0.));
#977=CARTESIAN_POINT('',(0.,0.,0.));
#978=CARTESIAN_POINT('',(0.,0.,0.));
#979=CARTESIAN_POINT('Origin',(-51.9500000000005,51.5000000000002,2.49999999999998));
#980=CARTESIAN_POINT('',(-51.9500000000005,51.0000000000002,5.));
#981=CARTESIAN_POINT('',(-52.4500000000005,51.5000000000004,5.));
#982=CARTESIAN_POINT('Origin',(-51.9500000000005,51.5000000000002,5.));
#983=CARTESIAN_POINT('',(-52.4500000000005,51.5000000000004,-1.11022302462548E-15));
#984=CARTESIAN_POINT('',(-52.4500000000005,51.5000000000004,2.49999999999998));
#985=CARTESIAN_POINT('',(-51.9500000000005,51.0000000000002,-5.47033239885928E-42));
#986=CARTESIAN_POINT('Origin',(-51.9500000000005,51.5000000000002,-3.88578058618805E-15));
#987=CARTESIAN_POINT('',(-51.9500000000005,51.0000000000002,2.49999999999998));
#988=CARTESIAN_POINT('Origin',(-101.700000000001,80.0000000000121,5.));
#989=CARTESIAN_POINT('',(-48.6213203435597,58.5,5.));
#990=CARTESIAN_POINT('',(-61.3786796564405,58.5,5.));
#991=CARTESIAN_POINT('',(-62.0000000000001,58.5,5.));
#992=CARTESIAN_POINT('',(-62.4393398282203,58.0606601717798,5.));
#993=CARTESIAN_POINT('Origin',(-61.3786796564405,57.,5.));
#994=CARTESIAN_POINT('',(-64.5606601717799,55.9393398282203,5.));
#995=CARTESIAN_POINT('',(-67.9000000000001,52.6,5.));
#996=CARTESIAN_POINT('',(-65.,54.8786796564404,5.));
#997=CARTESIAN_POINT('Origin',(-63.5,54.8786796564404,5.));
#998=CARTESIAN_POINT('',(-65.,31.5,5.));
#999=CARTESIAN_POINT('',(-65.,55.,5.));
#1000=CARTESIAN_POINT('',(-63.5,30.,5.));
#1001=CARTESIAN_POINT('Origin',(-63.5,31.5,5.));
#1002=CARTESIAN_POINT('',(-46.5000000000001,30.,5.));
#1003=CARTESIAN_POINT('',(-57.5000000000001,30.,5.));
#1004=CARTESIAN_POINT('',(-45.0000000000001,31.5,5.));
#1005=CARTESIAN_POINT('Origin',(-46.5000000000001,31.5,5.));
#1006=CARTESIAN_POINT('',(-45.0000000000001,54.8786796564404,5.));
#1007=CARTESIAN_POINT('',(-45.0000000000001,20.,5.));
#1008=CARTESIAN_POINT('',(-45.4393398282202,55.9393398282202,5.));
#1009=CARTESIAN_POINT('Origin',(-46.5000000000001,54.8786796564404,5.));
#1010=CARTESIAN_POINT('',(-47.5606601717799,58.0606601717798,5.));
#1011=CARTESIAN_POINT('',(-66.0750000000034,76.5750000000033,5.));
#1012=CARTESIAN_POINT('Origin',(-48.6213203435597,57.,5.));
#1013=CARTESIAN_POINT('',(-51.5000000000003,51.0000000000002,5.));
#1014=CARTESIAN_POINT('',(-77.0750000000002,50.9999999999993,5.));
#1015=CARTESIAN_POINT('',(-51.0000000000002,50.5000000000002,5.));
#1016=CARTESIAN_POINT('Origin',(-51.5000000000002,50.5000000000002,4.99999999999999));
#1017=CARTESIAN_POINT('',(-50.9999999999999,38.0000000000002,5.));
#1018=CARTESIAN_POINT('',(-51.0000000000007,65.5000000000069,5.));
#1019=CARTESIAN_POINT('',(-51.4999999999998,37.5000000000002,5.));
#1020=CARTESIAN_POINT('Origin',(-51.4999999999999,38.0000000000002,4.99999999999999));
#1021=CARTESIAN_POINT('',(-51.9500000000071,37.5000000000002,5.));
#1022=CARTESIAN_POINT('',(-76.3499999999999,37.4999999999993,5.));
#1023=CARTESIAN_POINT('',(-52.450000000007,37.0000000000004,5.));
#1024=CARTESIAN_POINT('Origin',(-51.950000000007,37.0000000000002,4.99999999999999));
#1025=CARTESIAN_POINT('',(-52.4500000000001,36.,5.));
#1026=CARTESIAN_POINT('',(-52.4500000000005,51.499999999999,5.));
#1027=CARTESIAN_POINT('',(-57.55,36.,5.));
#1028=CARTESIAN_POINT('Origin',(-55.0000000000001,36.,5.));
#1029=CARTESIAN_POINT('',(-57.55,37.,5.));
#1030=CARTESIAN_POINT('',(-57.55,37.,5.));
#1031=CARTESIAN_POINT('',(-58.0500000000001,37.4999999999999,5.));
#1032=CARTESIAN_POINT('Origin',(-58.05,37.,4.99999999999999));
#1033=CARTESIAN_POINT('',(-58.4999999999998,37.4999999999999,5.));
#1034=CARTESIAN_POINT('',(-79.6249999999999,37.4999999999992,5.));
#1035=CARTESIAN_POINT('',(-58.9999999999999,37.9999999999999,5.));
#1036=CARTESIAN_POINT('Origin',(-58.4999999999999,37.9999999999999,4.99999999999999));
#1037=CARTESIAN_POINT('',(-59.0000000000003,50.4999999999999,5.));
#1038=CARTESIAN_POINT('',(-59.0000000000006,58.7500000000067,5.));
#1039=CARTESIAN_POINT('',(-58.5000000000003,50.9999999999999,5.));
#1040=CARTESIAN_POINT('Origin',(-58.5000000000003,50.4999999999999,4.99999999999999));
#1041=CARTESIAN_POINT('',(-58.05,50.9999999999999,5.));
#1042=CARTESIAN_POINT('',(-80.3500000000003,50.9999999999992,5.));
#1043=CARTESIAN_POINT('',(-57.55,51.4999999999999,5.));
#1044=CARTESIAN_POINT('Origin',(-58.05,51.4999999999999,5.));
#1045=CARTESIAN_POINT('',(-57.5500000000001,52.5000000000012,5.));
#1046=CARTESIAN_POINT('',(-57.55,37.,5.));
#1047=CARTESIAN_POINT('',(-52.45,52.4999999999989,5.));
#1048=CARTESIAN_POINT('Origin',(-55.0000000000001,52.5,5.));
#1049=CARTESIAN_POINT('',(-52.4500000000005,51.499999999999,5.));
#1050=CARTESIAN_POINT('Origin',(-52.45,51.0000000000001,4.99999999999996));
#1051=CARTESIAN_POINT('',(-51.5000000000003,51.0000000000002,-5.56830850152546E-42));
#1052=CARTESIAN_POINT('',(-77.0750000000002,50.9999999999993,0.));
#1053=CARTESIAN_POINT('',(-51.5000000000003,51.0000000000002,4.99999999999996));
#1054=CARTESIAN_POINT('Origin',(-51.5000000000002,50.5000000000002,4.99999999999996));
#1055=CARTESIAN_POINT('',(-51.0000000000002,50.5000000000002,9.60925851550028E-29));
#1056=CARTESIAN_POINT('Origin',(-51.5000000000002,50.5000000000002,-1.22124532708767E-14));
#1057=CARTESIAN_POINT('',(-51.0000000000002,50.5000000000002,4.99999999999996));
#1058=CARTESIAN_POINT('Origin',(-51.4999999999999,38.0000000000002,4.99999999999997));
#1059=CARTESIAN_POINT('',(-50.9999999999999,38.0000000000002,1.76169739450802E-28));
#1060=CARTESIAN_POINT('',(-50.9999999999999,38.0000000000002,4.99999999999997));
#1061=CARTESIAN_POINT('',(-51.4999999999998,37.5000000000002,-5.41045811389671E-42));
#1062=CARTESIAN_POINT('Origin',(-51.4999999999999,38.0000000000002,-1.38777878078145E-14));
#1063=CARTESIAN_POINT('',(-51.4999999999998,37.5000000000002,4.99999999999997));
#1064=CARTESIAN_POINT('Origin',(-51.0000000000003,51.0000000000002,4.99999999999996));
#1065=CARTESIAN_POINT('',(-51.0000000000007,65.5000000000069,0.));
#1066=CARTESIAN_POINT('Origin',(-51.950000000007,37.0000000000002,2.49999999999999));
#1067=CARTESIAN_POINT('',(-51.9500000000071,37.5000000000002,-5.31248201122899E-42));
#1068=CARTESIAN_POINT('',(-52.450000000007,37.0000000000004,-1.11022302462539E-15));
#1069=CARTESIAN_POINT('Origin',(-51.950000000007,37.0000000000002,-6.10622663543836E-15));
#1070=CARTESIAN_POINT('',(-52.450000000007,37.0000000000004,2.49999999999999));
#1071=CARTESIAN_POINT('',(-51.9500000000071,37.5000000000002,2.49999999999999));
#1072=CARTESIAN_POINT('Origin',(-52.45,52.4999999999989,-1.11022302462549E-15));
#1073=CARTESIAN_POINT('',(-52.4500000000001,36.,-2.30622204371903E-28));
#1074=CARTESIAN_POINT('',(-52.4500000000005,51.499999999999,-1.11022302462548E-15));
#1075=CARTESIAN_POINT('',(-52.4500000000001,36.,-2.30622204371903E-28));
#1076=CARTESIAN_POINT('Origin',(-101.700000000001,80.0000000000121,-5.12493787493195E-28));
#1077=CARTESIAN_POINT('',(-61.3786796564405,58.5,-3.33066907387584E-15));
#1078=CARTESIAN_POINT('',(-48.6213203435597,58.5,-3.33066907387584E-15));
#1079=CARTESIAN_POINT('',(-62.0000000000001,58.5,-3.33066907387584E-15));
#1080=CARTESIAN_POINT('',(-47.5606601717799,58.0606601717798,-3.33066907387584E-15));
#1081=CARTESIAN_POINT('Origin',(-48.6213203435597,57.,-3.6829943512506E-28));
#1082=CARTESIAN_POINT('',(-45.4393398282202,55.9393398282202,-3.33066907387582E-15));
#1083=CARTESIAN_POINT('',(-66.0750000000034,76.5750000000033,-3.33066907387595E-15));
#1084=CARTESIAN_POINT('',(-45.0000000000001,54.8786796564404,-3.51562279871883E-28));
#1085=CARTESIAN_POINT('Origin',(-46.5000000000001,54.8786796564404,-3.5104310282335E-28));
#1086=CARTESIAN_POINT('',(-45.0000000000001,31.5,-2.01794428825415E-28));
#1087=CARTESIAN_POINT('',(-45.0000000000001,20.,-1.28123446873279E-28));
#1088=CARTESIAN_POINT('',(-46.5000000000001,30.,-1.92185170309919E-28));
#1089=CARTESIAN_POINT('Origin',(-46.5000000000001,31.5,-2.01794428825415E-28));
#1090=CARTESIAN_POINT('',(-63.5,30.,-1.92185170309919E-28));
#1091=CARTESIAN_POINT('',(-57.5000000000001,30.,-1.92185170309919E-28));
#1092=CARTESIAN_POINT('',(-65.,31.5,-2.01794428825415E-28));
#1093=CARTESIAN_POINT('Origin',(-63.5,31.5,-2.01794428825415E-28));
#1094=CARTESIAN_POINT('',(-65.,54.8786796564404,-3.51562279871883E-28));
#1095=CARTESIAN_POINT('',(-65.,55.,-3.52339478901518E-28));
#1096=CARTESIAN_POINT('',(-64.5606601717799,55.9393398282203,-3.33066907387582E-15));
#1097=CARTESIAN_POINT('Origin',(-63.5,54.8786796564404,-3.53508293152166E-28));
#1098=CARTESIAN_POINT('',(-62.4393398282203,58.0606601717798,-3.33066907387584E-15));
#1099=CARTESIAN_POINT('',(-67.9000000000001,52.6,-3.3306690738758E-15));
#1100=CARTESIAN_POINT('Origin',(-61.3786796564405,57.,-3.67313358993534E-28));
#1101=CARTESIAN_POINT('',(-52.45,52.4999999999989,-1.11022302462549E-15));
#1102=CARTESIAN_POINT('',(-52.4500000000005,51.499999999999,-1.11022302462548E-15));
#1103=CARTESIAN_POINT('',(-57.5500000000001,52.5000000000012,-1.11022302462549E-15));
#1104=CARTESIAN_POINT('Origin',(-55.0000000000001,52.5,-1.11022302462549E-15));
#1105=CARTESIAN_POINT('',(-57.55,51.4999999999999,-3.29917875698694E-28));
#1106=CARTESIAN_POINT('',(-57.55,37.,-2.37028376715567E-28));
#1107=CARTESIAN_POINT('',(-58.05,50.9999999999999,-4.85526019878865E-42));
#1108=CARTESIAN_POINT('Origin',(-58.05,51.4999999999999,-3.88578058618805E-15));
#1109=CARTESIAN_POINT('',(-58.5000000000003,50.9999999999999,-4.75728409612245E-42));
#1110=CARTESIAN_POINT('',(-80.3500000000003,50.9999999999992,0.));
#1111=CARTESIAN_POINT('',(-59.0000000000003,50.4999999999999,5.28509218352715E-29));
#1112=CARTESIAN_POINT('Origin',(-58.5000000000003,50.4999999999999,-1.11022302462516E-14));
#1113=CARTESIAN_POINT('',(-58.9999999999999,37.9999999999999,1.32928076131071E-28));
#1114=CARTESIAN_POINT('',(-59.0000000000006,58.7500000000067,0.));
#1115=CARTESIAN_POINT('',(-58.4999999999998,37.4999999999999,-4.5994337084937E-42));
#1116=CARTESIAN_POINT('Origin',(-58.4999999999999,37.9999999999999,-1.27675647831893E-14));
#1117=CARTESIAN_POINT('',(-58.0500000000001,37.4999999999999,-4.69740981115979E-42));
#1118=CARTESIAN_POINT('',(-79.6249999999999,37.4999999999992,0.));
#1119=CARTESIAN_POINT('',(-57.55,37.,-2.37028376715567E-28));
#1120=CARTESIAN_POINT('Origin',(-58.05,37.,-6.10622663543836E-15));
#1121=CARTESIAN_POINT('',(-57.55,36.,-2.30622204371903E-28));
#1122=CARTESIAN_POINT('',(-57.55,37.,-2.37028376715567E-28));
#1123=CARTESIAN_POINT('Origin',(-55.0000000000001,36.,-2.30622204371903E-28));
#1124=CARTESIAN_POINT('',(-76.3499999999999,37.4999999999993,0.));
#1125=CARTESIAN_POINT('Origin',(-58.05,37.,2.49999999999998));
#1126=CARTESIAN_POINT('',(-57.55,37.,2.49999999999998));
#1127=CARTESIAN_POINT('',(-58.0500000000001,37.4999999999999,2.49999999999998));
#1128=CARTESIAN_POINT('Origin',(-57.55,37.5,4.99999999999997));
#1129=CARTESIAN_POINT('',(-58.4999999999998,37.4999999999999,4.99999999999996));
#1130=CARTESIAN_POINT('Origin',(-58.4999999999999,37.9999999999999,4.99999999999996));
#1131=CARTESIAN_POINT('',(-58.9999999999999,37.9999999999999,4.99999999999996));
#1132=CARTESIAN_POINT('Origin',(-58.5000000000003,50.4999999999999,4.99999999999996));
#1133=CARTESIAN_POINT('',(-59.0000000000003,50.4999999999999,4.99999999999996));
#1134=CARTESIAN_POINT('',(-58.5000000000003,50.9999999999999,4.99999999999996));
#1135=CARTESIAN_POINT('Origin',(-58.9999999999998,37.4999999999999,4.99999999999996));
#1136=CARTESIAN_POINT('Origin',(-58.05,51.4999999999999,2.49999999999998));
#1137=CARTESIAN_POINT('',(-57.55,51.4999999999999,2.49999999999998));
#1138=CARTESIAN_POINT('',(-58.05,50.9999999999999,2.49999999999998));
#1139=CARTESIAN_POINT('Origin',(-59.0000000000003,50.9999999999999,4.99999999999996));
#1140=CARTESIAN_POINT('Origin',(-50.9999999999999,37.5000000000002,4.99999999999998));
#1141=CARTESIAN_POINT('Origin',(-57.55,36.,-2.30622204371903E-28));
#1142=CARTESIAN_POINT('',(-57.55,36.,-2.30622204371903E-28));
#1143=CARTESIAN_POINT('Origin',(-57.55,36.,-2.30622204371903E-28));
#1144=CARTESIAN_POINT('',(-57.55,52.5,-1.11022302462549E-15));
#1145=CARTESIAN_POINT('Origin',(-52.45,52.4999999999989,-1.11022302462549E-15));
#1146=CARTESIAN_POINT('',(-52.45,52.4999999999989,-1.11022302462549E-15));
#1147=CARTESIAN_POINT('Origin',(-63.5,54.8786796564404,-1.66533453693808E-15));
#1148=CARTESIAN_POINT('',(-64.5606601717799,55.9393398282203,-1.66533453693809E-15));
#1149=CARTESIAN_POINT('',(-65.,54.8786796564404,-1.66533453693808E-15));
#1150=CARTESIAN_POINT('Origin',(-62.0000000000001,58.5,-3.33066907387584E-15));
#1151=CARTESIAN_POINT('',(-62.4393398282203,58.0606601717798,-3.33066907387584E-15));
#1152=CARTESIAN_POINT('Origin',(-61.3786796564405,57.,-3.33066907387583E-15));
#1153=CARTESIAN_POINT('',(-61.3786796564405,58.5,-3.33066907387584E-15));
#1154=CARTESIAN_POINT('Origin',(-45.0000000000001,58.5,-3.33066907387584E-15));
#1155=CARTESIAN_POINT('',(-48.6213203435597,58.5,-3.33066907387584E-15));
#1156=CARTESIAN_POINT('Origin',(-48.6213203435597,57.,-3.33066907387583E-15));
#1157=CARTESIAN_POINT('',(-47.5606601717799,58.0606601717798,-3.33066907387584E-15));
#1158=CARTESIAN_POINT('Origin',(-46.5000000000001,57.,-3.33066907387583E-15));
#1159=CARTESIAN_POINT('',(-45.4393398282202,55.9393398282202,-1.66533453693809E-15));
#1160=CARTESIAN_POINT('Origin',(-46.5000000000001,54.8786796564404,-1.66533453693808E-15));
#1161=CARTESIAN_POINT('',(-45.0000000000001,54.8786796564404,-1.66533453693808E-15));
#1162=CARTESIAN_POINT('Origin',(-65.,55.4,-3.54901947838984E-28));
#1163=CARTESIAN_POINT('',(-65.,31.5,-2.01794428825415E-28));
#1164=CARTESIAN_POINT('Origin',(-45.0000000000001,30.,-1.92185170309919E-28));
#1165=CARTESIAN_POINT('',(-45.0000000000001,31.5,-2.01794428825415E-28));
#1166=CARTESIAN_POINT('Origin',(-63.5,31.5,-2.01794428825415E-28));
#1167=CARTESIAN_POINT('',(-63.5,30.,-1.92185170309919E-28));
#1168=CARTESIAN_POINT('Origin',(-57.5000000000001,30.,-1.92185170309919E-28));
#1169=CARTESIAN_POINT('',(-46.5000000000001,30.,-1.92185170309919E-28));
#1170=CARTESIAN_POINT('Origin',(-46.5000000000001,31.5,-2.01794428825415E-28));
#1171=CARTESIAN_POINT('Origin',(-55.0000000000001,52.5,-1.11022302462549E-15));
#1172=CARTESIAN_POINT('Origin',(-55.0000000000001,36.,-2.30622204371903E-28));
#1173=CARTESIAN_POINT('',(-320.000000000002,33.4999999999982,15.));
#1174=CARTESIAN_POINT('',(-10.0000614915394,6.34974937268941,694.999522435471));
#1175=CARTESIAN_POINT('',(0.,0.,0.));
#1176=UNCERTAINTY_MEASURE_WITH_UNIT(LENGTH_MEASURE(0.01),#1186,
'DISTANCE_ACCURACY_VALUE',
'Maximum model space distance between geometric entities at asserted c
onnectivities');
#1177=UNCERTAINTY_MEASURE_WITH_UNIT(LENGTH_MEASURE(0.01),#1186,
'DISTANCE_ACCURACY_VALUE',
'Maximum model space distance between geometric entities at asserted c
onnectivities');
#1178=UNCERTAINTY_MEASURE_WITH_UNIT(LENGTH_MEASURE(0.01),#1186,
'DISTANCE_ACCURACY_VALUE',
'Maximum model space distance between geometric entities at asserted c
onnectivities');
#1179=UNCERTAINTY_MEASURE_WITH_UNIT(LENGTH_MEASURE(0.01),#1186,
'DISTANCE_ACCURACY_VALUE',
'Maximum model space distance between geometric entities at asserted c
onnectivities');
#1180=UNCERTAINTY_MEASURE_WITH_UNIT(LENGTH_MEASURE(0.01),#1186,
'DISTANCE_ACCURACY_VALUE',
'Maximum model space distance between geometric entities at asserted c
onnectivities');
#1181=(
GEOMETRIC_REPRESENTATION_CONTEXT(3)
GLOBAL_UNCERTAINTY_ASSIGNED_CONTEXT((#1176))
GLOBAL_UNIT_ASSIGNED_CONTEXT((#1186,#1188,#1189))
REPRESENTATION_CONTEXT('','3D')
);
#1182=(
GEOMETRIC_REPRESENTATION_CONTEXT(3)
GLOBAL_UNCERTAINTY_ASSIGNED_CONTEXT((#1177))
GLOBAL_UNIT_ASSIGNED_CONTEXT((#1186,#1188,#1189))
REPRESENTATION_CONTEXT('','3D')
);
#1183=(
GEOMETRIC_REPRESENTATION_CONTEXT(3)
GLOBAL_UNCERTAINTY_ASSIGNED_CONTEXT((#1178))
GLOBAL_UNIT_ASSIGNED_CONTEXT((#1186,#1188,#1189))
REPRESENTATION_CONTEXT('','3D')
);
#1184=(
GEOMETRIC_REPRESENTATION_CONTEXT(3)
GLOBAL_UNCERTAINTY_ASSIGNED_CONTEXT((#1179))
GLOBAL_UNIT_ASSIGNED_CONTEXT((#1186,#1188,#1189))
REPRESENTATION_CONTEXT('','3D')
);
#1185=(
GEOMETRIC_REPRESENTATION_CONTEXT(3)
GLOBAL_UNCERTAINTY_ASSIGNED_CONTEXT((#1180))
GLOBAL_UNIT_ASSIGNED_CONTEXT((#1186,#1188,#1189))
REPRESENTATION_CONTEXT('','3D')
);
#1186=(
LENGTH_UNIT()
NAMED_UNIT(*)
SI_UNIT(.MILLI.,.METRE.)
);
#1187=(
LENGTH_UNIT()
NAMED_UNIT(*)
SI_UNIT($,.METRE.)
);
#1188=(
NAMED_UNIT(*)
PLANE_ANGLE_UNIT()
SI_UNIT($,.RADIAN.)
);
#1189=(
NAMED_UNIT(*)
SI_UNIT($,.STERADIAN.)
SOLID_ANGLE_UNIT()
);
#1190=SHAPE_DEFINITION_REPRESENTATION(#1194,#1201);
#1191=SHAPE_DEFINITION_REPRESENTATION(#1195,#1202);
#1192=SHAPE_DEFINITION_REPRESENTATION(#1196,#1203);
#1193=SHAPE_DEFINITION_REPRESENTATION(#1197,#1204);
#1194=PRODUCT_DEFINITION_SHAPE('',$,#1206);
#1195=PRODUCT_DEFINITION_SHAPE('',$,#1207);
#1196=PRODUCT_DEFINITION_SHAPE('',$,#1208);
#1197=PRODUCT_DEFINITION_SHAPE('',$,#1209);
#1198=PRODUCT_DEFINITION_SHAPE($,$,#20);
#1199=PRODUCT_DEFINITION_SHAPE($,$,#21);
#1200=PRODUCT_DEFINITION_SHAPE($,$,#22);
#1201=SHAPE_REPRESENTATION('',(#692,#764),#1181);
#1202=SHAPE_REPRESENTATION('',(#693,#763),#1182);
#1203=SHAPE_REPRESENTATION('',(#694,#762),#1183);
#1204=SHAPE_REPRESENTATION('',(#695),#1184);
#1205=PRODUCT_DEFINITION_CONTEXT('part definition',#1219,'design');
#1206=PRODUCT_DEFINITION('2026-08-24-02-12-37-900',
'3030 Monolith Assembled',#1210,#1205);
#1207=PRODUCT_DEFINITION('2026-08-23-21-13-57-741',
'3030 X Axis Assembly',#1211,#1205);
#1208=PRODUCT_DEFINITION('2026-08-23-21-13-57-765',
'_Sheet_metal_9mm_AWD_left_XY_joint (1) (1)',#1212,#1205);
#1209=PRODUCT_DEFINITION('2026-08-23-21-13-57-756',
'Sheet_metal_9mm_spacer_a_2x2.5_or_5mm (1) (2)',#1213,#1205);
#1210=PRODUCT_DEFINITION_FORMATION('',$,#1221);
#1211=PRODUCT_DEFINITION_FORMATION('',$,#1222);
#1212=PRODUCT_DEFINITION_FORMATION('',$,#1223);
#1213=PRODUCT_DEFINITION_FORMATION('',$,#1224);
#1214=PRODUCT_RELATED_PRODUCT_CATEGORY('3030 Monolith Assembled',
'3030 Monolith Assembled',(#1221));
#1215=PRODUCT_RELATED_PRODUCT_CATEGORY('3030 X Axis Assembly',
'3030 X Axis Assembly',(#1222));
#1216=PRODUCT_RELATED_PRODUCT_CATEGORY(
'_Sheet_metal_9mm_AWD_left_XY_joint (1) (1)',
'_Sheet_metal_9mm_AWD_left_XY_joint (1) (1)',(#1223));
#1217=PRODUCT_RELATED_PRODUCT_CATEGORY(
'Sheet_metal_9mm_spacer_a_2x2.5_or_5mm (1) (2)',
'Sheet_metal_9mm_spacer_a_2x2.5_or_5mm (1) (2)',(#1224));
#1218=APPLICATION_PROTOCOL_DEFINITION('international standard',
'automotive_design',2009,#1219);
#1219=APPLICATION_CONTEXT(
'Core Data for Automotive Mechanical Design Process');
#1220=PRODUCT_CONTEXT('part definition',#1219,'mechanical');
#1221=PRODUCT('2026-08-24-02-12-37-900','3030 Monolith Assembled',$,(#1220));
#1222=PRODUCT('2026-08-23-21-13-57-741','3030 X Axis Assembly',$,(#1220));
#1223=PRODUCT('2026-08-23-21-13-57-765',
'_Sheet_metal_9mm_AWD_left_XY_joint (1) (1)',$,(#1220));
#1224=PRODUCT('2026-08-23-21-13-57-756',
'Sheet_metal_9mm_spacer_a_2x2.5_or_5mm (1) (2)',$,(#1220));
#1225=PRESENTATION_STYLE_ASSIGNMENT((#1227));
#1226=PRESENTATION_STYLE_ASSIGNMENT((#1228));
#1227=SURFACE_STYLE_USAGE(.BOTH.,#1229);
#1228=SURFACE_STYLE_USAGE(.BOTH.,#1230);
#1229=SURFACE_SIDE_STYLE('',(#1231));
#1230=SURFACE_SIDE_STYLE('',(#1232));
#1231=SURFACE_STYLE_FILL_AREA(#1233);
#1232=SURFACE_STYLE_FILL_AREA(#1234);
#1233=FILL_AREA_STYLE('Steel - Satin',(#1235));
#1234=FILL_AREA_STYLE('Opaque(245,245,246)',(#1236));
#1235=FILL_AREA_STYLE_COLOUR('Steel - Satin',#1237);
#1236=FILL_AREA_STYLE_COLOUR('Opaque(245,245,246)',#1238);
#1237=COLOUR_RGB('Steel - Satin',0.627450980392157,0.627450980392157,0.627450980392157);
#1238=COLOUR_RGB('Opaque(245,245,246)',0.96078431372549,0.96078431372549,
0.964705882352941);
ENDSEC;
END-ISO-10303-21;
